<svg width="285" height="365" viewBox="0 0 285 365" fill="none" xmlns="http://www.w3.org/2000/svg">
<g filter="url(#filter0_d_38_2651)">
<rect x="4.5" y="95" width="276" height="262" rx="8" fill="white"/>
<circle cx="142.5" cy="95" r="95" fill="white"/>
<path d="M80.7051 213.651C80.7051 213.423 80.6699 213.218 80.5996 213.036C80.5352 212.849 80.4121 212.679 80.2305 212.526C80.0488 212.368 79.7939 212.213 79.4658 212.061C79.1377 211.908 78.7129 211.75 78.1914 211.586C77.6113 211.398 77.0605 211.188 76.5391 210.953C76.0234 210.719 75.5664 210.446 75.168 210.136C74.7754 209.819 74.4648 209.453 74.2363 209.037C74.0137 208.621 73.9023 208.138 73.9023 207.587C73.9023 207.054 74.0195 206.57 74.2539 206.137C74.4883 205.697 74.8164 205.322 75.2383 205.012C75.6602 204.695 76.1582 204.452 76.7324 204.282C77.3125 204.112 77.9482 204.027 78.6396 204.027C79.583 204.027 80.4062 204.197 81.1094 204.537C81.8125 204.877 82.3574 205.343 82.7441 205.935C83.1367 206.526 83.333 207.203 83.333 207.965H80.7139C80.7139 207.59 80.6348 207.262 80.4766 206.98C80.3242 206.693 80.0898 206.468 79.7734 206.304C79.4629 206.14 79.0703 206.058 78.5957 206.058C78.1387 206.058 77.7578 206.128 77.4531 206.269C77.1484 206.403 76.9199 206.588 76.7676 206.822C76.6152 207.051 76.5391 207.309 76.5391 207.596C76.5391 207.812 76.5918 208.009 76.6973 208.185C76.8086 208.36 76.9727 208.524 77.1895 208.677C77.4062 208.829 77.6729 208.973 77.9893 209.107C78.3057 209.242 78.6719 209.374 79.0879 209.503C79.7852 209.714 80.3975 209.951 80.9248 210.215C81.458 210.479 81.9033 210.774 82.2607 211.103C82.6182 211.431 82.8877 211.803 83.0693 212.219C83.251 212.635 83.3418 213.106 83.3418 213.634C83.3418 214.19 83.2334 214.688 83.0166 215.128C82.7998 215.567 82.4863 215.939 82.0762 216.244C81.666 216.549 81.1768 216.78 80.6084 216.938C80.04 217.097 79.4043 217.176 78.7012 217.176C78.0684 217.176 77.4443 217.094 76.8291 216.93C76.2139 216.76 75.6543 216.505 75.1504 216.165C74.6523 215.825 74.2539 215.392 73.9551 214.864C73.6562 214.337 73.5068 213.713 73.5068 212.992H76.1523C76.1523 213.391 76.2139 213.728 76.3369 214.003C76.46 214.278 76.6328 214.501 76.8555 214.671C77.084 214.841 77.3535 214.964 77.6641 215.04C77.9805 215.116 78.3262 215.154 78.7012 215.154C79.1582 215.154 79.5332 215.09 79.8262 214.961C80.125 214.832 80.3447 214.653 80.4854 214.425C80.6318 214.196 80.7051 213.938 80.7051 213.651ZM87.6484 207.49V217H85.1084V207.49H87.6484ZM84.9502 205.012C84.9502 204.643 85.0791 204.338 85.3369 204.098C85.5947 203.857 85.9404 203.737 86.374 203.737C86.8018 203.737 87.1445 203.857 87.4023 204.098C87.666 204.338 87.7979 204.643 87.7979 205.012C87.7979 205.381 87.666 205.686 87.4023 205.926C87.1445 206.166 86.8018 206.286 86.374 206.286C85.9404 206.286 85.5947 206.166 85.3369 205.926C85.0791 205.686 84.9502 205.381 84.9502 205.012ZM95.7607 207.49H98.0547V216.684C98.0547 217.551 97.8613 218.286 97.4746 218.89C97.0938 219.499 96.5605 219.959 95.875 220.27C95.1895 220.586 94.3926 220.744 93.4844 220.744C93.0859 220.744 92.6641 220.691 92.2188 220.586C91.7793 220.48 91.3574 220.316 90.9531 220.094C90.5547 219.871 90.2207 219.59 89.9512 219.25L91.0674 217.756C91.3604 218.096 91.7002 218.359 92.0869 218.547C92.4736 218.74 92.9014 218.837 93.3701 218.837C93.8271 218.837 94.2139 218.752 94.5303 218.582C94.8467 218.418 95.0898 218.175 95.2598 217.853C95.4297 217.536 95.5146 217.152 95.5146 216.701V209.688L95.7607 207.49ZM89.3623 212.359V212.175C89.3623 211.448 89.4502 210.789 89.626 210.197C89.8076 209.6 90.0625 209.087 90.3906 208.659C90.7246 208.231 91.1289 207.9 91.6035 207.666C92.0781 207.432 92.6143 207.314 93.2119 207.314C93.8447 207.314 94.375 207.432 94.8027 207.666C95.2305 207.9 95.582 208.234 95.8574 208.668C96.1328 209.096 96.3467 209.603 96.499 210.188C96.6572 210.769 96.7803 211.404 96.8682 212.096V212.5C96.7803 213.162 96.6484 213.777 96.4727 214.346C96.2969 214.914 96.0654 215.412 95.7783 215.84C95.4912 216.262 95.1338 216.59 94.7061 216.824C94.2842 217.059 93.7803 217.176 93.1943 217.176C92.6084 217.176 92.0781 217.056 91.6035 216.815C91.1348 216.575 90.7334 216.238 90.3994 215.805C90.0654 215.371 89.8076 214.861 89.626 214.275C89.4502 213.689 89.3623 213.051 89.3623 212.359ZM91.8936 212.175V212.359C91.8936 212.752 91.9316 213.118 92.0078 213.458C92.084 213.798 92.2012 214.1 92.3594 214.363C92.5234 214.621 92.7256 214.823 92.9658 214.97C93.2119 215.11 93.502 215.181 93.8359 215.181C94.2988 215.181 94.6768 215.084 94.9697 214.891C95.2627 214.691 95.4824 214.419 95.6289 214.073C95.7754 213.728 95.8604 213.329 95.8838 212.878V211.727C95.8721 211.357 95.8223 211.026 95.7344 210.733C95.6465 210.435 95.5234 210.18 95.3652 209.969C95.207 209.758 95.002 209.594 94.75 209.477C94.498 209.359 94.1992 209.301 93.8535 209.301C93.5195 209.301 93.2295 209.377 92.9834 209.529C92.7432 209.676 92.541 209.878 92.377 210.136C92.2188 210.394 92.0986 210.698 92.0166 211.05C91.9346 211.396 91.8936 211.771 91.8936 212.175ZM102.502 209.521V217H99.9707V207.49H102.344L102.502 209.521ZM102.133 211.911H101.447C101.447 211.208 101.538 210.575 101.72 210.013C101.901 209.444 102.156 208.961 102.484 208.562C102.812 208.158 103.202 207.851 103.653 207.64C104.11 207.423 104.62 207.314 105.183 207.314C105.628 207.314 106.035 207.379 106.404 207.508C106.773 207.637 107.09 207.842 107.354 208.123C107.623 208.404 107.828 208.776 107.969 209.239C108.115 209.702 108.188 210.268 108.188 210.936V217H105.64V210.927C105.64 210.505 105.581 210.177 105.464 209.942C105.347 209.708 105.174 209.544 104.945 209.45C104.723 209.351 104.447 209.301 104.119 209.301C103.779 209.301 103.483 209.368 103.231 209.503C102.985 209.638 102.78 209.825 102.616 210.065C102.458 210.3 102.338 210.575 102.256 210.892C102.174 211.208 102.133 211.548 102.133 211.911ZM115.246 214.855V210.619C115.246 210.314 115.196 210.054 115.097 209.837C114.997 209.614 114.842 209.441 114.631 209.318C114.426 209.195 114.159 209.134 113.831 209.134C113.55 209.134 113.307 209.184 113.102 209.283C112.896 209.377 112.738 209.515 112.627 209.696C112.516 209.872 112.46 210.08 112.46 210.32H109.929C109.929 209.916 110.022 209.532 110.21 209.169C110.397 208.806 110.67 208.486 111.027 208.211C111.385 207.93 111.81 207.71 112.302 207.552C112.8 207.394 113.356 207.314 113.972 207.314C114.71 207.314 115.366 207.438 115.94 207.684C116.515 207.93 116.966 208.299 117.294 208.791C117.628 209.283 117.795 209.898 117.795 210.637V214.706C117.795 215.228 117.827 215.655 117.892 215.989C117.956 216.317 118.05 216.604 118.173 216.851V217H115.615C115.492 216.742 115.398 216.42 115.334 216.033C115.275 215.641 115.246 215.248 115.246 214.855ZM115.58 211.208L115.598 212.641H114.183C113.849 212.641 113.559 212.679 113.312 212.755C113.066 212.831 112.864 212.939 112.706 213.08C112.548 213.215 112.431 213.373 112.354 213.555C112.284 213.736 112.249 213.936 112.249 214.152C112.249 214.369 112.299 214.565 112.398 214.741C112.498 214.911 112.642 215.046 112.829 215.146C113.017 215.239 113.236 215.286 113.488 215.286C113.869 215.286 114.2 215.21 114.481 215.058C114.763 214.905 114.979 214.718 115.132 214.495C115.29 214.272 115.372 214.062 115.378 213.862L116.046 214.935C115.952 215.175 115.823 215.424 115.659 215.682C115.501 215.939 115.299 216.183 115.053 216.411C114.807 216.634 114.511 216.818 114.165 216.965C113.819 217.105 113.409 217.176 112.935 217.176C112.331 217.176 111.783 217.056 111.291 216.815C110.805 216.569 110.418 216.232 110.131 215.805C109.85 215.371 109.709 214.879 109.709 214.328C109.709 213.83 109.803 213.388 109.99 213.001C110.178 212.614 110.453 212.289 110.816 212.025C111.186 211.756 111.646 211.554 112.196 211.419C112.747 211.278 113.386 211.208 114.112 211.208H115.58ZM125.767 207.49H128.061V216.684C128.061 217.551 127.867 218.286 127.48 218.89C127.1 219.499 126.566 219.959 125.881 220.27C125.195 220.586 124.398 220.744 123.49 220.744C123.092 220.744 122.67 220.691 122.225 220.586C121.785 220.48 121.363 220.316 120.959 220.094C120.561 219.871 120.227 219.59 119.957 219.25L121.073 217.756C121.366 218.096 121.706 218.359 122.093 218.547C122.479 218.74 122.907 218.837 123.376 218.837C123.833 218.837 124.22 218.752 124.536 218.582C124.853 218.418 125.096 218.175 125.266 217.853C125.436 217.536 125.521 217.152 125.521 216.701V209.688L125.767 207.49ZM119.368 212.359V212.175C119.368 211.448 119.456 210.789 119.632 210.197C119.813 209.6 120.068 209.087 120.396 208.659C120.73 208.231 121.135 207.9 121.609 207.666C122.084 207.432 122.62 207.314 123.218 207.314C123.851 207.314 124.381 207.432 124.809 207.666C125.236 207.9 125.588 208.234 125.863 208.668C126.139 209.096 126.353 209.603 126.505 210.188C126.663 210.769 126.786 211.404 126.874 212.096V212.5C126.786 213.162 126.654 213.777 126.479 214.346C126.303 214.914 126.071 215.412 125.784 215.84C125.497 216.262 125.14 216.59 124.712 216.824C124.29 217.059 123.786 217.176 123.2 217.176C122.614 217.176 122.084 217.056 121.609 216.815C121.141 216.575 120.739 216.238 120.405 215.805C120.071 215.371 119.813 214.861 119.632 214.275C119.456 213.689 119.368 213.051 119.368 212.359ZM121.899 212.175V212.359C121.899 212.752 121.938 213.118 122.014 213.458C122.09 213.798 122.207 214.1 122.365 214.363C122.529 214.621 122.731 214.823 122.972 214.97C123.218 215.11 123.508 215.181 123.842 215.181C124.305 215.181 124.683 215.084 124.976 214.891C125.269 214.691 125.488 214.419 125.635 214.073C125.781 213.728 125.866 213.329 125.89 212.878V211.727C125.878 211.357 125.828 211.026 125.74 210.733C125.652 210.435 125.529 210.18 125.371 209.969C125.213 209.758 125.008 209.594 124.756 209.477C124.504 209.359 124.205 209.301 123.859 209.301C123.525 209.301 123.235 209.377 122.989 209.529C122.749 209.676 122.547 209.878 122.383 210.136C122.225 210.394 122.104 210.698 122.022 211.05C121.94 211.396 121.899 211.771 121.899 212.175ZM134.406 217.176C133.668 217.176 133.006 217.059 132.42 216.824C131.834 216.584 131.336 216.253 130.926 215.831C130.521 215.409 130.211 214.92 129.994 214.363C129.777 213.801 129.669 213.203 129.669 212.57V212.219C129.669 211.498 129.771 210.839 129.977 210.241C130.182 209.644 130.475 209.125 130.855 208.686C131.242 208.246 131.711 207.909 132.262 207.675C132.812 207.435 133.434 207.314 134.125 207.314C134.799 207.314 135.396 207.426 135.918 207.648C136.439 207.871 136.876 208.188 137.228 208.598C137.585 209.008 137.854 209.5 138.036 210.074C138.218 210.643 138.309 211.275 138.309 211.973V213.027H130.75V211.34H135.821V211.146C135.821 210.795 135.757 210.481 135.628 210.206C135.505 209.925 135.317 209.702 135.065 209.538C134.813 209.374 134.491 209.292 134.099 209.292C133.765 209.292 133.478 209.365 133.237 209.512C132.997 209.658 132.801 209.863 132.648 210.127C132.502 210.391 132.391 210.701 132.314 211.059C132.244 211.41 132.209 211.797 132.209 212.219V212.57C132.209 212.951 132.262 213.303 132.367 213.625C132.479 213.947 132.634 214.226 132.833 214.46C133.038 214.694 133.284 214.876 133.571 215.005C133.864 215.134 134.195 215.198 134.564 215.198C135.021 215.198 135.446 215.11 135.839 214.935C136.237 214.753 136.58 214.48 136.867 214.117L138.098 215.453C137.898 215.74 137.626 216.016 137.28 216.279C136.94 216.543 136.53 216.76 136.05 216.93C135.569 217.094 135.021 217.176 134.406 217.176ZM145.217 204.203L140.523 218.099H138.643L143.336 204.203H145.217ZM157.1 210.303V210.909C157.1 211.882 156.968 212.755 156.704 213.528C156.44 214.302 156.068 214.961 155.588 215.506C155.107 216.045 154.533 216.458 153.865 216.745C153.203 217.032 152.468 217.176 151.659 217.176C150.856 217.176 150.121 217.032 149.453 216.745C148.791 216.458 148.217 216.045 147.73 215.506C147.244 214.961 146.866 214.302 146.597 213.528C146.333 212.755 146.201 211.882 146.201 210.909V210.303C146.201 209.324 146.333 208.451 146.597 207.684C146.86 206.91 147.232 206.251 147.713 205.706C148.199 205.161 148.773 204.745 149.436 204.458C150.104 204.171 150.839 204.027 151.642 204.027C152.45 204.027 153.186 204.171 153.848 204.458C154.516 204.745 155.09 205.161 155.57 205.706C156.057 206.251 156.432 206.91 156.695 207.684C156.965 208.451 157.1 209.324 157.1 210.303ZM154.437 210.909V210.285C154.437 209.605 154.375 209.008 154.252 208.492C154.129 207.977 153.947 207.543 153.707 207.191C153.467 206.84 153.174 206.576 152.828 206.4C152.482 206.219 152.087 206.128 151.642 206.128C151.196 206.128 150.801 206.219 150.455 206.4C150.115 206.576 149.825 206.84 149.585 207.191C149.351 207.543 149.172 207.977 149.049 208.492C148.926 209.008 148.864 209.605 148.864 210.285V210.909C148.864 211.583 148.926 212.181 149.049 212.702C149.172 213.218 149.354 213.654 149.594 214.012C149.834 214.363 150.127 214.63 150.473 214.812C150.818 214.993 151.214 215.084 151.659 215.084C152.104 215.084 152.5 214.993 152.846 214.812C153.191 214.63 153.481 214.363 153.716 214.012C153.95 213.654 154.129 213.218 154.252 212.702C154.375 212.181 154.437 211.583 154.437 210.909ZM164.465 214.724V207.49H166.996V217H164.614L164.465 214.724ZM164.746 212.772L165.493 212.755C165.493 213.388 165.42 213.977 165.273 214.521C165.127 215.061 164.907 215.529 164.614 215.928C164.321 216.32 163.952 216.628 163.507 216.851C163.062 217.067 162.537 217.176 161.934 217.176C161.471 217.176 161.043 217.111 160.65 216.982C160.264 216.848 159.93 216.64 159.648 216.358C159.373 216.071 159.156 215.705 158.998 215.26C158.846 214.809 158.77 214.267 158.77 213.634V207.49H161.301V213.651C161.301 213.933 161.333 214.17 161.397 214.363C161.468 214.557 161.564 214.715 161.688 214.838C161.811 214.961 161.954 215.049 162.118 215.102C162.288 215.154 162.476 215.181 162.681 215.181C163.202 215.181 163.612 215.075 163.911 214.864C164.216 214.653 164.43 214.366 164.553 214.003C164.682 213.634 164.746 213.224 164.746 212.772ZM173.588 207.49V209.283H168.051V207.49H173.588ZM169.422 205.144H171.953V214.135C171.953 214.41 171.988 214.621 172.059 214.768C172.135 214.914 172.246 215.017 172.393 215.075C172.539 215.128 172.724 215.154 172.946 215.154C173.104 215.154 173.245 215.148 173.368 215.137C173.497 215.119 173.605 215.102 173.693 215.084L173.702 216.947C173.485 217.018 173.251 217.073 172.999 217.114C172.747 217.155 172.469 217.176 172.164 217.176C171.607 217.176 171.121 217.085 170.705 216.903C170.295 216.716 169.979 216.417 169.756 216.007C169.533 215.597 169.422 215.058 169.422 214.39V205.144ZM180.646 214.926V203.5H183.194V217H180.9L180.646 214.926ZM174.634 212.359V212.175C174.634 211.448 174.716 210.789 174.88 210.197C175.044 209.6 175.284 209.087 175.601 208.659C175.917 208.231 176.307 207.9 176.77 207.666C177.232 207.432 177.76 207.314 178.352 207.314C178.908 207.314 179.395 207.432 179.811 207.666C180.232 207.9 180.59 208.234 180.883 208.668C181.182 209.096 181.422 209.603 181.604 210.188C181.785 210.769 181.917 211.404 181.999 212.096V212.5C181.917 213.162 181.785 213.777 181.604 214.346C181.422 214.914 181.182 215.412 180.883 215.84C180.59 216.262 180.232 216.59 179.811 216.824C179.389 217.059 178.896 217.176 178.334 217.176C177.742 217.176 177.215 217.056 176.752 216.815C176.295 216.575 175.908 216.238 175.592 215.805C175.281 215.371 175.044 214.861 174.88 214.275C174.716 213.689 174.634 213.051 174.634 212.359ZM177.165 212.175V212.359C177.165 212.752 177.194 213.118 177.253 213.458C177.317 213.798 177.42 214.1 177.561 214.363C177.707 214.621 177.895 214.823 178.123 214.97C178.357 215.11 178.642 215.181 178.976 215.181C179.409 215.181 179.767 215.084 180.048 214.891C180.329 214.691 180.543 214.419 180.689 214.073C180.842 213.728 180.93 213.329 180.953 212.878V211.727C180.936 211.357 180.883 211.026 180.795 210.733C180.713 210.435 180.59 210.18 180.426 209.969C180.268 209.758 180.068 209.594 179.828 209.477C179.594 209.359 179.315 209.301 178.993 209.301C178.665 209.301 178.384 209.377 178.149 209.529C177.915 209.676 177.725 209.878 177.578 210.136C177.438 210.394 177.332 210.698 177.262 211.05C177.197 211.396 177.165 211.771 177.165 212.175ZM184.768 212.342V212.157C184.768 211.46 184.867 210.818 185.066 210.232C185.266 209.641 185.556 209.128 185.937 208.694C186.317 208.261 186.786 207.924 187.343 207.684C187.899 207.438 188.538 207.314 189.259 207.314C189.979 207.314 190.621 207.438 191.184 207.684C191.746 207.924 192.218 208.261 192.599 208.694C192.985 209.128 193.278 209.641 193.478 210.232C193.677 210.818 193.776 211.46 193.776 212.157V212.342C193.776 213.033 193.677 213.675 193.478 214.267C193.278 214.853 192.985 215.365 192.599 215.805C192.218 216.238 191.749 216.575 191.192 216.815C190.636 217.056 189.997 217.176 189.276 217.176C188.556 217.176 187.914 217.056 187.352 216.815C186.795 216.575 186.323 216.238 185.937 215.805C185.556 215.365 185.266 214.853 185.066 214.267C184.867 213.675 184.768 213.033 184.768 212.342ZM187.299 212.157V212.342C187.299 212.74 187.334 213.112 187.404 213.458C187.475 213.804 187.586 214.108 187.738 214.372C187.896 214.63 188.102 214.832 188.354 214.979C188.605 215.125 188.913 215.198 189.276 215.198C189.628 215.198 189.93 215.125 190.182 214.979C190.434 214.832 190.636 214.63 190.788 214.372C190.94 214.108 191.052 213.804 191.122 213.458C191.198 213.112 191.236 212.74 191.236 212.342V212.157C191.236 211.771 191.198 211.407 191.122 211.067C191.052 210.722 190.938 210.417 190.779 210.153C190.627 209.884 190.425 209.673 190.173 209.521C189.921 209.368 189.616 209.292 189.259 209.292C188.901 209.292 188.597 209.368 188.345 209.521C188.099 209.673 187.896 209.884 187.738 210.153C187.586 210.417 187.475 210.722 187.404 211.067C187.334 211.407 187.299 211.771 187.299 212.157ZM194.928 212.342V212.157C194.928 211.46 195.027 210.818 195.227 210.232C195.426 209.641 195.716 209.128 196.097 208.694C196.478 208.261 196.946 207.924 197.503 207.684C198.06 207.438 198.698 207.314 199.419 207.314C200.14 207.314 200.781 207.438 201.344 207.684C201.906 207.924 202.378 208.261 202.759 208.694C203.146 209.128 203.438 209.641 203.638 210.232C203.837 210.818 203.937 211.46 203.937 212.157V212.342C203.937 213.033 203.837 213.675 203.638 214.267C203.438 214.853 203.146 215.365 202.759 215.805C202.378 216.238 201.909 216.575 201.353 216.815C200.796 217.056 200.157 217.176 199.437 217.176C198.716 217.176 198.074 217.056 197.512 216.815C196.955 216.575 196.483 216.238 196.097 215.805C195.716 215.365 195.426 214.853 195.227 214.267C195.027 213.675 194.928 213.033 194.928 212.342ZM197.459 212.157V212.342C197.459 212.74 197.494 213.112 197.564 213.458C197.635 213.804 197.746 214.108 197.898 214.372C198.057 214.63 198.262 214.832 198.514 214.979C198.766 215.125 199.073 215.198 199.437 215.198C199.788 215.198 200.09 215.125 200.342 214.979C200.594 214.832 200.796 214.63 200.948 214.372C201.101 214.108 201.212 213.804 201.282 213.458C201.358 213.112 201.396 212.74 201.396 212.342V212.157C201.396 211.771 201.358 211.407 201.282 211.067C201.212 210.722 201.098 210.417 200.939 210.153C200.787 209.884 200.585 209.673 200.333 209.521C200.081 209.368 199.776 209.292 199.419 209.292C199.062 209.292 198.757 209.368 198.505 209.521C198.259 209.673 198.057 209.884 197.898 210.153C197.746 210.417 197.635 210.722 197.564 211.067C197.494 211.407 197.459 211.771 197.459 212.157ZM208.023 209.564V217H205.492V207.49H207.874L208.023 209.564ZM210.889 207.429L210.845 209.775C210.722 209.758 210.572 209.743 210.396 209.731C210.227 209.714 210.071 209.705 209.931 209.705C209.573 209.705 209.263 209.752 208.999 209.846C208.741 209.934 208.524 210.065 208.349 210.241C208.179 210.417 208.05 210.631 207.962 210.883C207.88 211.135 207.833 211.422 207.821 211.744L207.312 211.586C207.312 210.971 207.373 210.405 207.496 209.89C207.619 209.368 207.798 208.914 208.032 208.527C208.272 208.141 208.565 207.842 208.911 207.631C209.257 207.42 209.652 207.314 210.098 207.314C210.238 207.314 210.382 207.326 210.528 207.35C210.675 207.367 210.795 207.394 210.889 207.429ZM66.7744 232.392L63.2939 243H60.4902L65.2451 230.203H67.0293L66.7744 232.392ZM69.666 243L66.1768 232.392L65.8955 230.203H67.6973L72.4785 243H69.666ZM69.5078 238.236V240.302H62.749V238.236H69.5078ZM79.123 240.926V229.5H81.6719V243H79.3779L79.123 240.926ZM73.1113 238.359V238.175C73.1113 237.448 73.1934 236.789 73.3574 236.197C73.5215 235.6 73.7617 235.087 74.0781 234.659C74.3945 234.231 74.7842 233.9 75.2471 233.666C75.71 233.432 76.2373 233.314 76.8291 233.314C77.3857 233.314 77.8721 233.432 78.2881 233.666C78.71 233.9 79.0674 234.234 79.3604 234.668C79.6592 235.096 79.8994 235.603 80.0811 236.188C80.2627 236.769 80.3945 237.404 80.4766 238.096V238.5C80.3945 239.162 80.2627 239.777 80.0811 240.346C79.8994 240.914 79.6592 241.412 79.3604 241.84C79.0674 242.262 78.71 242.59 78.2881 242.824C77.8662 243.059 77.374 243.176 76.8115 243.176C76.2197 243.176 75.6924 243.056 75.2295 242.815C74.7725 242.575 74.3857 242.238 74.0693 241.805C73.7588 241.371 73.5215 240.861 73.3574 240.275C73.1934 239.689 73.1113 239.051 73.1113 238.359ZM75.6426 238.175V238.359C75.6426 238.752 75.6719 239.118 75.7305 239.458C75.7949 239.798 75.8975 240.1 76.0381 240.363C76.1846 240.621 76.3721 240.823 76.6006 240.97C76.835 241.11 77.1191 241.181 77.4531 241.181C77.8867 241.181 78.2441 241.084 78.5254 240.891C78.8066 240.691 79.0205 240.419 79.167 240.073C79.3193 239.728 79.4072 239.329 79.4307 238.878V237.727C79.4131 237.357 79.3604 237.026 79.2725 236.733C79.1904 236.435 79.0674 236.18 78.9033 235.969C78.7451 235.758 78.5459 235.594 78.3057 235.477C78.0713 235.359 77.793 235.301 77.4707 235.301C77.1426 235.301 76.8613 235.377 76.627 235.529C76.3926 235.676 76.2021 235.878 76.0557 236.136C75.915 236.394 75.8096 236.698 75.7393 237.05C75.6748 237.396 75.6426 237.771 75.6426 238.175ZM86.8838 241.154L88.9932 233.49H91.6387L88.4307 243H86.8311L86.8838 241.154ZM85.4336 233.49L87.5518 241.163L87.5957 243H85.9873L82.7793 233.49H85.4336ZM97.0264 243.176C96.2881 243.176 95.626 243.059 95.04 242.824C94.4541 242.584 93.9561 242.253 93.5459 241.831C93.1416 241.409 92.8311 240.92 92.6143 240.363C92.3975 239.801 92.2891 239.203 92.2891 238.57V238.219C92.2891 237.498 92.3916 236.839 92.5967 236.241C92.8018 235.644 93.0947 235.125 93.4756 234.686C93.8623 234.246 94.3311 233.909 94.8818 233.675C95.4326 233.435 96.0537 233.314 96.7451 233.314C97.4189 233.314 98.0166 233.426 98.5381 233.648C99.0596 233.871 99.4961 234.188 99.8477 234.598C100.205 235.008 100.475 235.5 100.656 236.074C100.838 236.643 100.929 237.275 100.929 237.973V239.027H93.3701V237.34H98.4414V237.146C98.4414 236.795 98.377 236.481 98.248 236.206C98.125 235.925 97.9375 235.702 97.6855 235.538C97.4336 235.374 97.1113 235.292 96.7188 235.292C96.3848 235.292 96.0977 235.365 95.8574 235.512C95.6172 235.658 95.4209 235.863 95.2686 236.127C95.1221 236.391 95.0107 236.701 94.9346 237.059C94.8643 237.41 94.8291 237.797 94.8291 238.219V238.57C94.8291 238.951 94.8818 239.303 94.9873 239.625C95.0986 239.947 95.2539 240.226 95.4531 240.46C95.6582 240.694 95.9043 240.876 96.1914 241.005C96.4844 241.134 96.8154 241.198 97.1846 241.198C97.6416 241.198 98.0664 241.11 98.459 240.935C98.8574 240.753 99.2002 240.48 99.4873 240.117L100.718 241.453C100.519 241.74 100.246 242.016 99.9004 242.279C99.5605 242.543 99.1504 242.76 98.6699 242.93C98.1895 243.094 97.6416 243.176 97.0264 243.176ZM104.901 235.564V243H102.37V233.49H104.752L104.901 235.564ZM107.767 233.429L107.723 235.775C107.6 235.758 107.45 235.743 107.274 235.731C107.104 235.714 106.949 235.705 106.809 235.705C106.451 235.705 106.141 235.752 105.877 235.846C105.619 235.934 105.402 236.065 105.227 236.241C105.057 236.417 104.928 236.631 104.84 236.883C104.758 237.135 104.711 237.422 104.699 237.744L104.189 237.586C104.189 236.971 104.251 236.405 104.374 235.89C104.497 235.368 104.676 234.914 104.91 234.527C105.15 234.141 105.443 233.842 105.789 233.631C106.135 233.42 106.53 233.314 106.976 233.314C107.116 233.314 107.26 233.326 107.406 233.35C107.553 233.367 107.673 233.394 107.767 233.429ZM114.06 233.49V235.283H108.522V233.49H114.06ZM109.894 231.144H112.425V240.135C112.425 240.41 112.46 240.621 112.53 240.768C112.606 240.914 112.718 241.017 112.864 241.075C113.011 241.128 113.195 241.154 113.418 241.154C113.576 241.154 113.717 241.148 113.84 241.137C113.969 241.119 114.077 241.102 114.165 241.084L114.174 242.947C113.957 243.018 113.723 243.073 113.471 243.114C113.219 243.155 112.94 243.176 112.636 243.176C112.079 243.176 111.593 243.085 111.177 242.903C110.767 242.716 110.45 242.417 110.228 242.007C110.005 241.597 109.894 241.058 109.894 240.39V231.144ZM118.173 233.49V243H115.633V233.49H118.173ZM115.475 231.012C115.475 230.643 115.604 230.338 115.861 230.098C116.119 229.857 116.465 229.737 116.898 229.737C117.326 229.737 117.669 229.857 117.927 230.098C118.19 230.338 118.322 230.643 118.322 231.012C118.322 231.381 118.19 231.686 117.927 231.926C117.669 232.166 117.326 232.286 116.898 232.286C116.465 232.286 116.119 232.166 115.861 231.926C115.604 231.686 115.475 231.381 115.475 231.012ZM125.406 240.372C125.406 240.19 125.354 240.026 125.248 239.88C125.143 239.733 124.946 239.599 124.659 239.476C124.378 239.347 123.971 239.229 123.438 239.124C122.957 239.019 122.509 238.887 122.093 238.729C121.683 238.564 121.325 238.368 121.021 238.14C120.722 237.911 120.487 237.642 120.317 237.331C120.147 237.015 120.062 236.654 120.062 236.25C120.062 235.852 120.147 235.477 120.317 235.125C120.493 234.773 120.742 234.463 121.064 234.193C121.393 233.918 121.791 233.704 122.26 233.552C122.734 233.394 123.268 233.314 123.859 233.314C124.686 233.314 125.395 233.446 125.986 233.71C126.584 233.974 127.041 234.337 127.357 234.8C127.68 235.257 127.841 235.778 127.841 236.364H125.31C125.31 236.118 125.257 235.898 125.151 235.705C125.052 235.506 124.894 235.351 124.677 235.239C124.466 235.122 124.19 235.063 123.851 235.063C123.569 235.063 123.326 235.113 123.121 235.213C122.916 235.307 122.758 235.436 122.646 235.6C122.541 235.758 122.488 235.934 122.488 236.127C122.488 236.273 122.518 236.405 122.576 236.522C122.641 236.634 122.743 236.736 122.884 236.83C123.024 236.924 123.206 237.012 123.429 237.094C123.657 237.17 123.938 237.24 124.272 237.305C124.958 237.445 125.57 237.63 126.109 237.858C126.648 238.081 127.076 238.386 127.393 238.772C127.709 239.153 127.867 239.654 127.867 240.275C127.867 240.697 127.773 241.084 127.586 241.436C127.398 241.787 127.129 242.095 126.777 242.358C126.426 242.616 126.004 242.818 125.512 242.965C125.025 243.105 124.478 243.176 123.868 243.176C122.983 243.176 122.233 243.018 121.618 242.701C121.009 242.385 120.546 241.983 120.229 241.497C119.919 241.005 119.764 240.501 119.764 239.985H122.163C122.175 240.331 122.263 240.609 122.427 240.82C122.597 241.031 122.811 241.184 123.068 241.277C123.332 241.371 123.616 241.418 123.921 241.418C124.249 241.418 124.521 241.374 124.738 241.286C124.955 241.192 125.119 241.069 125.23 240.917C125.348 240.759 125.406 240.577 125.406 240.372ZM132.183 233.49V243H129.643V233.49H132.183ZM129.484 231.012C129.484 230.643 129.613 230.338 129.871 230.098C130.129 229.857 130.475 229.737 130.908 229.737C131.336 229.737 131.679 229.857 131.937 230.098C132.2 230.338 132.332 230.643 132.332 231.012C132.332 231.381 132.2 231.686 131.937 231.926C131.679 232.166 131.336 232.286 130.908 232.286C130.475 232.286 130.129 232.166 129.871 231.926C129.613 231.686 129.484 231.381 129.484 231.012ZM136.753 235.521V243H134.222V233.49H136.595L136.753 235.521ZM136.384 237.911H135.698C135.698 237.208 135.789 236.575 135.971 236.013C136.152 235.444 136.407 234.961 136.735 234.562C137.063 234.158 137.453 233.851 137.904 233.64C138.361 233.423 138.871 233.314 139.434 233.314C139.879 233.314 140.286 233.379 140.655 233.508C141.024 233.637 141.341 233.842 141.604 234.123C141.874 234.404 142.079 234.776 142.22 235.239C142.366 235.702 142.439 236.268 142.439 236.936V243H139.891V236.927C139.891 236.505 139.832 236.177 139.715 235.942C139.598 235.708 139.425 235.544 139.196 235.45C138.974 235.351 138.698 235.301 138.37 235.301C138.03 235.301 137.734 235.368 137.482 235.503C137.236 235.638 137.031 235.825 136.867 236.065C136.709 236.3 136.589 236.575 136.507 236.892C136.425 237.208 136.384 237.548 136.384 237.911ZM150.385 233.49H152.679V242.684C152.679 243.551 152.485 244.286 152.099 244.89C151.718 245.499 151.185 245.959 150.499 246.27C149.813 246.586 149.017 246.744 148.108 246.744C147.71 246.744 147.288 246.691 146.843 246.586C146.403 246.48 145.981 246.316 145.577 246.094C145.179 245.871 144.845 245.59 144.575 245.25L145.691 243.756C145.984 244.096 146.324 244.359 146.711 244.547C147.098 244.74 147.525 244.837 147.994 244.837C148.451 244.837 148.838 244.752 149.154 244.582C149.471 244.418 149.714 244.175 149.884 243.853C150.054 243.536 150.139 243.152 150.139 242.701V235.688L150.385 233.49ZM143.986 238.359V238.175C143.986 237.448 144.074 236.789 144.25 236.197C144.432 235.6 144.687 235.087 145.015 234.659C145.349 234.231 145.753 233.9 146.228 233.666C146.702 233.432 147.238 233.314 147.836 233.314C148.469 233.314 148.999 233.432 149.427 233.666C149.854 233.9 150.206 234.234 150.481 234.668C150.757 235.096 150.971 235.603 151.123 236.188C151.281 236.769 151.404 237.404 151.492 238.096V238.5C151.404 239.162 151.272 239.777 151.097 240.346C150.921 240.914 150.689 241.412 150.402 241.84C150.115 242.262 149.758 242.59 149.33 242.824C148.908 243.059 148.404 243.176 147.818 243.176C147.232 243.176 146.702 243.056 146.228 242.815C145.759 242.575 145.357 242.238 145.023 241.805C144.689 241.371 144.432 240.861 144.25 240.275C144.074 239.689 143.986 239.051 143.986 238.359ZM146.518 238.175V238.359C146.518 238.752 146.556 239.118 146.632 239.458C146.708 239.798 146.825 240.1 146.983 240.363C147.147 240.621 147.35 240.823 147.59 240.97C147.836 241.11 148.126 241.181 148.46 241.181C148.923 241.181 149.301 241.084 149.594 240.891C149.887 240.691 150.106 240.419 150.253 240.073C150.399 239.728 150.484 239.329 150.508 238.878V237.727C150.496 237.357 150.446 237.026 150.358 236.733C150.271 236.435 150.147 236.18 149.989 235.969C149.831 235.758 149.626 235.594 149.374 235.477C149.122 235.359 148.823 235.301 148.478 235.301C148.144 235.301 147.854 235.377 147.607 235.529C147.367 235.676 147.165 235.878 147.001 236.136C146.843 236.394 146.723 236.698 146.641 237.05C146.559 237.396 146.518 237.771 146.518 238.175ZM154.762 237.99V237.797C154.762 236.561 154.891 235.438 155.148 234.431C155.412 233.423 155.758 232.538 156.186 231.776C156.619 231.009 157.091 230.373 157.601 229.869C158.11 229.365 158.617 229.002 159.121 228.779L159.604 230.115C159.271 230.361 158.942 230.701 158.62 231.135C158.298 231.562 158.005 232.09 157.741 232.717C157.483 233.338 157.275 234.07 157.117 234.914C156.959 235.752 156.88 236.707 156.88 237.779V238.008C156.88 239.08 156.959 240.038 157.117 240.882C157.275 241.72 157.483 242.452 157.741 243.079C158.005 243.712 158.298 244.245 158.62 244.679C158.942 245.112 159.271 245.455 159.604 245.707L159.121 247.008C158.617 246.785 158.11 246.422 157.601 245.918C157.091 245.42 156.619 244.787 156.186 244.02C155.758 243.258 155.412 242.373 155.148 241.365C154.891 240.352 154.762 239.227 154.762 237.99ZM169.325 240.943V243H162.883V240.943H169.325ZM163.735 230.203V243H161.099V230.203H163.735ZM176.216 232.392L172.735 243H169.932L174.687 230.203H176.471L176.216 232.392ZM179.107 243L175.618 232.392L175.337 230.203H177.139L181.92 243H179.107ZM178.949 238.236V240.302H172.19V238.236H178.949ZM189.769 239.651C189.769 239.423 189.733 239.218 189.663 239.036C189.599 238.849 189.476 238.679 189.294 238.526C189.112 238.368 188.857 238.213 188.529 238.061C188.201 237.908 187.776 237.75 187.255 237.586C186.675 237.398 186.124 237.188 185.603 236.953C185.087 236.719 184.63 236.446 184.231 236.136C183.839 235.819 183.528 235.453 183.3 235.037C183.077 234.621 182.966 234.138 182.966 233.587C182.966 233.054 183.083 232.57 183.317 232.137C183.552 231.697 183.88 231.322 184.302 231.012C184.724 230.695 185.222 230.452 185.796 230.282C186.376 230.112 187.012 230.027 187.703 230.027C188.646 230.027 189.47 230.197 190.173 230.537C190.876 230.877 191.421 231.343 191.808 231.935C192.2 232.526 192.396 233.203 192.396 233.965H189.777C189.777 233.59 189.698 233.262 189.54 232.98C189.388 232.693 189.153 232.468 188.837 232.304C188.526 232.14 188.134 232.058 187.659 232.058C187.202 232.058 186.821 232.128 186.517 232.269C186.212 232.403 185.983 232.588 185.831 232.822C185.679 233.051 185.603 233.309 185.603 233.596C185.603 233.812 185.655 234.009 185.761 234.185C185.872 234.36 186.036 234.524 186.253 234.677C186.47 234.829 186.736 234.973 187.053 235.107C187.369 235.242 187.735 235.374 188.151 235.503C188.849 235.714 189.461 235.951 189.988 236.215C190.521 236.479 190.967 236.774 191.324 237.103C191.682 237.431 191.951 237.803 192.133 238.219C192.314 238.635 192.405 239.106 192.405 239.634C192.405 240.19 192.297 240.688 192.08 241.128C191.863 241.567 191.55 241.939 191.14 242.244C190.729 242.549 190.24 242.78 189.672 242.938C189.104 243.097 188.468 243.176 187.765 243.176C187.132 243.176 186.508 243.094 185.893 242.93C185.277 242.76 184.718 242.505 184.214 242.165C183.716 241.825 183.317 241.392 183.019 240.864C182.72 240.337 182.57 239.713 182.57 238.992H185.216C185.216 239.391 185.277 239.728 185.4 240.003C185.523 240.278 185.696 240.501 185.919 240.671C186.147 240.841 186.417 240.964 186.728 241.04C187.044 241.116 187.39 241.154 187.765 241.154C188.222 241.154 188.597 241.09 188.89 240.961C189.188 240.832 189.408 240.653 189.549 240.425C189.695 240.196 189.769 239.938 189.769 239.651ZM199.401 232.392L195.921 243H193.117L197.872 230.203H199.656L199.401 232.392ZM202.293 243L198.804 232.392L198.522 230.203H200.324L205.105 243H202.293ZM202.135 238.236V240.302H195.376V238.236H202.135ZM211.495 232.392L208.015 243H205.211L209.966 230.203H211.75L211.495 232.392ZM214.387 243L210.897 232.392L210.616 230.203H212.418L217.199 243H214.387ZM214.229 238.236V240.302H207.47V238.236H214.229ZM222.578 237.797V237.99C222.578 239.186 222.443 240.287 222.174 241.295C221.904 242.297 221.547 243.185 221.102 243.958C220.662 244.737 220.179 245.385 219.651 245.9C219.13 246.416 218.608 246.785 218.087 247.008L217.595 245.707C217.929 245.461 218.254 245.121 218.57 244.688C218.893 244.254 219.186 243.721 219.449 243.088C219.713 242.461 219.921 241.726 220.073 240.882C220.231 240.038 220.311 239.08 220.311 238.008V237.779C220.311 236.707 220.231 235.749 220.073 234.905C219.915 234.062 219.701 233.326 219.432 232.699C219.168 232.066 218.875 231.536 218.553 231.108C218.236 230.675 217.917 230.335 217.595 230.089L218.087 228.779C218.608 229.002 219.13 229.374 219.651 229.896C220.179 230.411 220.662 231.056 221.102 231.829C221.547 232.603 221.904 233.493 222.174 234.501C222.443 235.503 222.578 236.602 222.578 237.797Z" fill="#0066CC"/>
<path d="M116.951 266.203V267.117L111.651 279H109.938L115.229 267.539H108.303V266.203H116.951ZM125.046 266.186H125.187V267.565H125.046C124.185 267.565 123.464 267.706 122.884 267.987C122.304 268.263 121.844 268.635 121.504 269.104C121.164 269.566 120.918 270.088 120.766 270.668C120.619 271.248 120.546 271.837 120.546 272.435V274.315C120.546 274.884 120.613 275.388 120.748 275.827C120.883 276.261 121.067 276.627 121.302 276.926C121.536 277.225 121.8 277.45 122.093 277.603C122.392 277.755 122.702 277.831 123.024 277.831C123.399 277.831 123.733 277.761 124.026 277.62C124.319 277.474 124.565 277.271 124.765 277.014C124.97 276.75 125.125 276.439 125.23 276.082C125.336 275.725 125.389 275.332 125.389 274.904C125.389 274.523 125.342 274.157 125.248 273.806C125.154 273.448 125.011 273.132 124.817 272.856C124.624 272.575 124.381 272.355 124.088 272.197C123.801 272.033 123.458 271.951 123.06 271.951C122.608 271.951 122.187 272.062 121.794 272.285C121.407 272.502 121.088 272.789 120.836 273.146C120.59 273.498 120.449 273.882 120.414 274.298L119.553 274.289C119.635 273.633 119.787 273.073 120.01 272.61C120.238 272.142 120.52 271.761 120.854 271.468C121.193 271.169 121.571 270.952 121.987 270.817C122.409 270.677 122.854 270.606 123.323 270.606C123.962 270.606 124.513 270.727 124.976 270.967C125.438 271.207 125.819 271.529 126.118 271.934C126.417 272.332 126.637 272.783 126.777 273.287C126.924 273.785 126.997 274.298 126.997 274.825C126.997 275.429 126.912 275.994 126.742 276.521C126.572 277.049 126.317 277.512 125.978 277.91C125.644 278.309 125.23 278.619 124.738 278.842C124.246 279.064 123.675 279.176 123.024 279.176C122.333 279.176 121.729 279.035 121.214 278.754C120.698 278.467 120.271 278.086 119.931 277.611C119.591 277.137 119.336 276.609 119.166 276.029C118.996 275.449 118.911 274.86 118.911 274.263V273.498C118.911 272.596 119.002 271.711 119.184 270.844C119.365 269.977 119.679 269.191 120.124 268.488C120.575 267.785 121.199 267.226 121.996 266.81C122.793 266.394 123.81 266.186 125.046 266.186ZM137.201 266.203V267.117L131.901 279H130.188L135.479 267.539H128.553V266.203H137.201ZM140.708 277.066V278.376C140.708 278.909 140.573 279.472 140.304 280.063C140.034 280.661 139.656 281.159 139.17 281.558L138.247 280.916C138.435 280.658 138.593 280.395 138.722 280.125C138.851 279.861 138.947 279.586 139.012 279.299C139.082 279.018 139.117 278.719 139.117 278.402V277.066H140.708ZM152.415 266.133V279H150.789V268.163L147.511 269.358V267.891L152.16 266.133H152.415ZM162.54 266.133V279H160.914V268.163L157.636 269.358V267.891L162.285 266.133H162.54ZM175.706 277.664V279H167.33V277.831L171.522 273.164C172.038 272.59 172.437 272.104 172.718 271.705C173.005 271.301 173.204 270.94 173.315 270.624C173.433 270.302 173.491 269.974 173.491 269.64C173.491 269.218 173.403 268.837 173.228 268.497C173.058 268.151 172.806 267.876 172.472 267.671C172.138 267.466 171.733 267.363 171.259 267.363C170.69 267.363 170.216 267.475 169.835 267.697C169.46 267.914 169.179 268.219 168.991 268.611C168.804 269.004 168.71 269.455 168.71 269.965H167.084C167.084 269.244 167.242 268.585 167.559 267.987C167.875 267.39 168.344 266.915 168.965 266.563C169.586 266.206 170.351 266.027 171.259 266.027C172.067 266.027 172.759 266.171 173.333 266.458C173.907 266.739 174.347 267.138 174.651 267.653C174.962 268.163 175.117 268.761 175.117 269.446C175.117 269.821 175.053 270.202 174.924 270.589C174.801 270.97 174.628 271.351 174.405 271.731C174.188 272.112 173.934 272.487 173.641 272.856C173.354 273.226 173.046 273.589 172.718 273.946L169.29 277.664H175.706Z" fill="black"/>
<path d="M113.682 130V121.882H120.155L128.144 95.1956C128.684 93.4368 129.679 92.0324 131.13 90.9825C132.581 89.9326 134.181 89.4091 135.932 89.4118H148.068C149.821 89.4118 151.423 89.9367 152.874 90.9866C154.325 92.0365 155.319 93.4395 155.856 95.1956L163.845 121.882H170.318V130H113.682ZM137.955 81.2941V61H146.045V81.2941H137.955ZM162.025 91.3397L156.26 85.5559L170.622 71.2485L176.285 76.9309L162.025 91.3397ZM166.273 109.706V101.588H186.5V109.706H166.273ZM121.975 91.3397L107.715 76.9309L113.378 71.2485L127.74 85.5559L121.975 91.3397ZM97.5 109.706V101.588H117.727V109.706H97.5Z" fill="#FF0000"/>
</g>
<defs>
<filter id="filter0_d_38_2651" x="0.5" y="0" width="284" height="365" filterUnits="userSpaceOnUse" color-interpolation-filters="sRGB">
<feFlood flood-opacity="0" result="BackgroundImageFix"/>
<feColorMatrix in="SourceAlpha" type="matrix" values="0 0 0 0 0 0 0 0 0 0 0 0 0 0 0 0 0 0 127 0" result="hardAlpha"/>
<feOffset dy="4"/>
<feGaussianBlur stdDeviation="2"/>
<feComposite in2="hardAlpha" operator="out"/>
<feColorMatrix type="matrix" values="0 0 0 0 0 0 0 0 0 0 0 0 0 0 0 0 0 0 0.25 0"/>
<feBlend mode="normal" in2="BackgroundImageFix" result="effect1_dropShadow_38_2651"/>
<feBlend mode="normal" in="SourceGraphic" in2="effect1_dropShadow_38_2651" result="shape"/>
</filter>
</defs>
</svg>
