<svg width="285" height="365" viewBox="0 0 285 365" fill="none" xmlns="http://www.w3.org/2000/svg">
<g filter="url(#filter0_d_38_2582)">
<rect x="4.5" y="95" width="276" height="262" rx="8" fill="white"/>
<circle cx="142.5" cy="95" r="95" fill="white"/>
<path d="M96.1387 217H93.3525L93.3701 214.943H96.1387C96.8301 214.943 97.4131 214.788 97.8877 214.478C98.3623 214.161 98.7197 213.701 98.96 213.098C99.2061 212.494 99.3291 211.765 99.3291 210.909V210.285C99.3291 209.629 99.2588 209.052 99.1182 208.554C98.9834 208.056 98.7812 207.637 98.5117 207.297C98.2422 206.957 97.9111 206.702 97.5186 206.532C97.126 206.356 96.6748 206.269 96.165 206.269H93.2998V204.203H96.165C97.0205 204.203 97.8027 204.35 98.5117 204.643C99.2266 204.93 99.8447 205.343 100.366 205.882C100.888 206.421 101.289 207.065 101.57 207.815C101.857 208.56 102.001 209.389 102.001 210.303V210.909C102.001 211.817 101.857 212.646 101.57 213.396C101.289 214.146 100.888 214.791 100.366 215.33C99.8506 215.863 99.2324 216.276 98.5117 216.569C97.7969 216.856 97.0059 217 96.1387 217ZM94.8467 204.203V217H92.21V204.203H94.8467ZM106.431 207.49V217H103.891V207.49H106.431ZM103.732 205.012C103.732 204.643 103.861 204.338 104.119 204.098C104.377 203.857 104.723 203.737 105.156 203.737C105.584 203.737 105.927 203.857 106.185 204.098C106.448 204.338 106.58 204.643 106.58 205.012C106.58 205.381 106.448 205.686 106.185 205.926C105.927 206.166 105.584 206.286 105.156 206.286C104.723 206.286 104.377 206.166 104.119 205.926C103.861 205.686 103.732 205.381 103.732 205.012ZM113.664 214.372C113.664 214.19 113.611 214.026 113.506 213.88C113.4 213.733 113.204 213.599 112.917 213.476C112.636 213.347 112.229 213.229 111.695 213.124C111.215 213.019 110.767 212.887 110.351 212.729C109.94 212.564 109.583 212.368 109.278 212.14C108.979 211.911 108.745 211.642 108.575 211.331C108.405 211.015 108.32 210.654 108.32 210.25C108.32 209.852 108.405 209.477 108.575 209.125C108.751 208.773 109 208.463 109.322 208.193C109.65 207.918 110.049 207.704 110.518 207.552C110.992 207.394 111.525 207.314 112.117 207.314C112.943 207.314 113.652 207.446 114.244 207.71C114.842 207.974 115.299 208.337 115.615 208.8C115.938 209.257 116.099 209.778 116.099 210.364H113.567C113.567 210.118 113.515 209.898 113.409 209.705C113.31 209.506 113.151 209.351 112.935 209.239C112.724 209.122 112.448 209.063 112.108 209.063C111.827 209.063 111.584 209.113 111.379 209.213C111.174 209.307 111.016 209.436 110.904 209.6C110.799 209.758 110.746 209.934 110.746 210.127C110.746 210.273 110.775 210.405 110.834 210.522C110.898 210.634 111.001 210.736 111.142 210.83C111.282 210.924 111.464 211.012 111.687 211.094C111.915 211.17 112.196 211.24 112.53 211.305C113.216 211.445 113.828 211.63 114.367 211.858C114.906 212.081 115.334 212.386 115.65 212.772C115.967 213.153 116.125 213.654 116.125 214.275C116.125 214.697 116.031 215.084 115.844 215.436C115.656 215.787 115.387 216.095 115.035 216.358C114.684 216.616 114.262 216.818 113.77 216.965C113.283 217.105 112.735 217.176 112.126 217.176C111.241 217.176 110.491 217.018 109.876 216.701C109.267 216.385 108.804 215.983 108.487 215.497C108.177 215.005 108.021 214.501 108.021 213.985H110.421C110.433 214.331 110.521 214.609 110.685 214.82C110.854 215.031 111.068 215.184 111.326 215.277C111.59 215.371 111.874 215.418 112.179 215.418C112.507 215.418 112.779 215.374 112.996 215.286C113.213 215.192 113.377 215.069 113.488 214.917C113.605 214.759 113.664 214.577 113.664 214.372ZM122.427 207.49V209.283H116.89V207.49H122.427ZM118.261 205.144H120.792V214.135C120.792 214.41 120.827 214.621 120.897 214.768C120.974 214.914 121.085 215.017 121.231 215.075C121.378 215.128 121.562 215.154 121.785 215.154C121.943 215.154 122.084 215.148 122.207 215.137C122.336 215.119 122.444 215.102 122.532 215.084L122.541 216.947C122.324 217.018 122.09 217.073 121.838 217.114C121.586 217.155 121.308 217.176 121.003 217.176C120.446 217.176 119.96 217.085 119.544 216.903C119.134 216.716 118.817 216.417 118.595 216.007C118.372 215.597 118.261 215.058 118.261 214.39V205.144ZM126.399 209.564V217H123.868V207.49H126.25L126.399 209.564ZM129.265 207.429L129.221 209.775C129.098 209.758 128.948 209.743 128.772 209.731C128.603 209.714 128.447 209.705 128.307 209.705C127.949 209.705 127.639 209.752 127.375 209.846C127.117 209.934 126.9 210.065 126.725 210.241C126.555 210.417 126.426 210.631 126.338 210.883C126.256 211.135 126.209 211.422 126.197 211.744L125.688 211.586C125.688 210.971 125.749 210.405 125.872 209.89C125.995 209.368 126.174 208.914 126.408 208.527C126.648 208.141 126.941 207.842 127.287 207.631C127.633 207.42 128.028 207.314 128.474 207.314C128.614 207.314 128.758 207.326 128.904 207.35C129.051 207.367 129.171 207.394 129.265 207.429ZM134.661 217.176C133.923 217.176 133.261 217.059 132.675 216.824C132.089 216.584 131.591 216.253 131.181 215.831C130.776 215.409 130.466 214.92 130.249 214.363C130.032 213.801 129.924 213.203 129.924 212.57V212.219C129.924 211.498 130.026 210.839 130.231 210.241C130.437 209.644 130.729 209.125 131.11 208.686C131.497 208.246 131.966 207.909 132.517 207.675C133.067 207.435 133.688 207.314 134.38 207.314C135.054 207.314 135.651 207.426 136.173 207.648C136.694 207.871 137.131 208.188 137.482 208.598C137.84 209.008 138.109 209.5 138.291 210.074C138.473 210.643 138.563 211.275 138.563 211.973V213.027H131.005V211.34H136.076V211.146C136.076 210.795 136.012 210.481 135.883 210.206C135.76 209.925 135.572 209.702 135.32 209.538C135.068 209.374 134.746 209.292 134.354 209.292C134.02 209.292 133.732 209.365 133.492 209.512C133.252 209.658 133.056 209.863 132.903 210.127C132.757 210.391 132.646 210.701 132.569 211.059C132.499 211.41 132.464 211.797 132.464 212.219V212.57C132.464 212.951 132.517 213.303 132.622 213.625C132.733 213.947 132.889 214.226 133.088 214.46C133.293 214.694 133.539 214.876 133.826 215.005C134.119 215.134 134.45 215.198 134.819 215.198C135.276 215.198 135.701 215.11 136.094 214.935C136.492 214.753 136.835 214.48 137.122 214.117L138.353 215.453C138.153 215.74 137.881 216.016 137.535 216.279C137.195 216.543 136.785 216.76 136.305 216.93C135.824 217.094 135.276 217.176 134.661 217.176ZM145.146 214.372C145.146 214.19 145.094 214.026 144.988 213.88C144.883 213.733 144.687 213.599 144.399 213.476C144.118 213.347 143.711 213.229 143.178 213.124C142.697 213.019 142.249 212.887 141.833 212.729C141.423 212.564 141.065 212.368 140.761 212.14C140.462 211.911 140.228 211.642 140.058 211.331C139.888 211.015 139.803 210.654 139.803 210.25C139.803 209.852 139.888 209.477 140.058 209.125C140.233 208.773 140.482 208.463 140.805 208.193C141.133 207.918 141.531 207.704 142 207.552C142.475 207.394 143.008 207.314 143.6 207.314C144.426 207.314 145.135 207.446 145.727 207.71C146.324 207.974 146.781 208.337 147.098 208.8C147.42 209.257 147.581 209.778 147.581 210.364H145.05C145.05 210.118 144.997 209.898 144.892 209.705C144.792 209.506 144.634 209.351 144.417 209.239C144.206 209.122 143.931 209.063 143.591 209.063C143.31 209.063 143.066 209.113 142.861 209.213C142.656 209.307 142.498 209.436 142.387 209.6C142.281 209.758 142.229 209.934 142.229 210.127C142.229 210.273 142.258 210.405 142.316 210.522C142.381 210.634 142.483 210.736 142.624 210.83C142.765 210.924 142.946 211.012 143.169 211.094C143.397 211.17 143.679 211.24 144.013 211.305C144.698 211.445 145.311 211.63 145.85 211.858C146.389 212.081 146.816 212.386 147.133 212.772C147.449 213.153 147.607 213.654 147.607 214.275C147.607 214.697 147.514 215.084 147.326 215.436C147.139 215.787 146.869 216.095 146.518 216.358C146.166 216.616 145.744 216.818 145.252 216.965C144.766 217.105 144.218 217.176 143.608 217.176C142.724 217.176 141.974 217.018 141.358 216.701C140.749 216.385 140.286 215.983 139.97 215.497C139.659 215.005 139.504 214.501 139.504 213.985H141.903C141.915 214.331 142.003 214.609 142.167 214.82C142.337 215.031 142.551 215.184 142.809 215.277C143.072 215.371 143.356 215.418 143.661 215.418C143.989 215.418 144.262 215.374 144.479 215.286C144.695 215.192 144.859 215.069 144.971 214.917C145.088 214.759 145.146 214.577 145.146 214.372ZM154.393 214.372C154.393 214.19 154.34 214.026 154.234 213.88C154.129 213.733 153.933 213.599 153.646 213.476C153.364 213.347 152.957 213.229 152.424 213.124C151.943 213.019 151.495 212.887 151.079 212.729C150.669 212.564 150.312 212.368 150.007 212.14C149.708 211.911 149.474 211.642 149.304 211.331C149.134 211.015 149.049 210.654 149.049 210.25C149.049 209.852 149.134 209.477 149.304 209.125C149.479 208.773 149.729 208.463 150.051 208.193C150.379 207.918 150.777 207.704 151.246 207.552C151.721 207.394 152.254 207.314 152.846 207.314C153.672 207.314 154.381 207.446 154.973 207.71C155.57 207.974 156.027 208.337 156.344 208.8C156.666 209.257 156.827 209.778 156.827 210.364H154.296C154.296 210.118 154.243 209.898 154.138 209.705C154.038 209.506 153.88 209.351 153.663 209.239C153.452 209.122 153.177 209.063 152.837 209.063C152.556 209.063 152.312 209.113 152.107 209.213C151.902 209.307 151.744 209.436 151.633 209.6C151.527 209.758 151.475 209.934 151.475 210.127C151.475 210.273 151.504 210.405 151.562 210.522C151.627 210.634 151.729 210.736 151.87 210.83C152.011 210.924 152.192 211.012 152.415 211.094C152.644 211.17 152.925 211.24 153.259 211.305C153.944 211.445 154.557 211.63 155.096 211.858C155.635 212.081 156.062 212.386 156.379 212.772C156.695 213.153 156.854 213.654 156.854 214.275C156.854 214.697 156.76 215.084 156.572 215.436C156.385 215.787 156.115 216.095 155.764 216.358C155.412 216.616 154.99 216.818 154.498 216.965C154.012 217.105 153.464 217.176 152.854 217.176C151.97 217.176 151.22 217.018 150.604 216.701C149.995 216.385 149.532 215.983 149.216 215.497C148.905 215.005 148.75 214.501 148.75 213.985H151.149C151.161 214.331 151.249 214.609 151.413 214.82C151.583 215.031 151.797 215.184 152.055 215.277C152.318 215.371 152.603 215.418 152.907 215.418C153.235 215.418 153.508 215.374 153.725 215.286C153.941 215.192 154.105 215.069 154.217 214.917C154.334 214.759 154.393 214.577 154.393 214.372ZM170.556 212.755H173.184C173.131 213.616 172.894 214.381 172.472 215.049C172.056 215.717 171.473 216.238 170.723 216.613C169.979 216.988 169.082 217.176 168.033 217.176C167.213 217.176 166.478 217.035 165.827 216.754C165.177 216.467 164.62 216.057 164.157 215.523C163.7 214.99 163.352 214.346 163.111 213.59C162.871 212.834 162.751 211.987 162.751 211.05V210.162C162.751 209.225 162.874 208.378 163.12 207.622C163.372 206.86 163.729 206.213 164.192 205.68C164.661 205.146 165.221 204.736 165.871 204.449C166.521 204.162 167.248 204.019 168.051 204.019C169.117 204.019 170.017 204.212 170.749 204.599C171.487 204.985 172.059 205.519 172.463 206.198C172.873 206.878 173.119 207.651 173.201 208.519H170.564C170.535 208.003 170.433 207.566 170.257 207.209C170.081 206.846 169.814 206.573 169.457 206.392C169.105 206.204 168.637 206.11 168.051 206.11C167.611 206.11 167.228 206.192 166.899 206.356C166.571 206.521 166.296 206.77 166.073 207.104C165.851 207.438 165.684 207.859 165.572 208.369C165.467 208.873 165.414 209.465 165.414 210.145V211.05C165.414 211.712 165.464 212.295 165.563 212.799C165.663 213.297 165.815 213.719 166.021 214.064C166.231 214.404 166.501 214.662 166.829 214.838C167.163 215.008 167.564 215.093 168.033 215.093C168.584 215.093 169.038 215.005 169.396 214.829C169.753 214.653 170.025 214.393 170.213 214.047C170.406 213.701 170.521 213.271 170.556 212.755ZM179.89 214.855V210.619C179.89 210.314 179.84 210.054 179.74 209.837C179.641 209.614 179.485 209.441 179.274 209.318C179.069 209.195 178.803 209.134 178.475 209.134C178.193 209.134 177.95 209.184 177.745 209.283C177.54 209.377 177.382 209.515 177.271 209.696C177.159 209.872 177.104 210.08 177.104 210.32H174.572C174.572 209.916 174.666 209.532 174.854 209.169C175.041 208.806 175.313 208.486 175.671 208.211C176.028 207.93 176.453 207.71 176.945 207.552C177.443 207.394 178 207.314 178.615 207.314C179.354 207.314 180.01 207.438 180.584 207.684C181.158 207.93 181.609 208.299 181.938 208.791C182.271 209.283 182.438 209.898 182.438 210.637V214.706C182.438 215.228 182.471 215.655 182.535 215.989C182.6 216.317 182.693 216.604 182.816 216.851V217H180.259C180.136 216.742 180.042 216.42 179.978 216.033C179.919 215.641 179.89 215.248 179.89 214.855ZM180.224 211.208L180.241 212.641H178.826C178.492 212.641 178.202 212.679 177.956 212.755C177.71 212.831 177.508 212.939 177.35 213.08C177.191 213.215 177.074 213.373 176.998 213.555C176.928 213.736 176.893 213.936 176.893 214.152C176.893 214.369 176.942 214.565 177.042 214.741C177.142 214.911 177.285 215.046 177.473 215.146C177.66 215.239 177.88 215.286 178.132 215.286C178.513 215.286 178.844 215.21 179.125 215.058C179.406 214.905 179.623 214.718 179.775 214.495C179.934 214.272 180.016 214.062 180.021 213.862L180.689 214.935C180.596 215.175 180.467 215.424 180.303 215.682C180.145 215.939 179.942 216.183 179.696 216.411C179.45 216.634 179.154 216.818 178.809 216.965C178.463 217.105 178.053 217.176 177.578 217.176C176.975 217.176 176.427 217.056 175.935 216.815C175.448 216.569 175.062 216.232 174.774 215.805C174.493 215.371 174.353 214.879 174.353 214.328C174.353 213.83 174.446 213.388 174.634 213.001C174.821 212.614 175.097 212.289 175.46 212.025C175.829 211.756 176.289 211.554 176.84 211.419C177.391 211.278 178.029 211.208 178.756 211.208H180.224ZM187.062 203.5V217H184.521V203.5H187.062ZM191.825 203.5V217H189.285V203.5H191.825Z" fill="#0066CC"/>
<path d="M116.951 240.203V241.117L111.651 253H109.938L115.229 241.539H108.303V240.203H116.951ZM125.046 240.186H125.187V241.565H125.046C124.185 241.565 123.464 241.706 122.884 241.987C122.304 242.263 121.844 242.635 121.504 243.104C121.164 243.566 120.918 244.088 120.766 244.668C120.619 245.248 120.546 245.837 120.546 246.435V248.315C120.546 248.884 120.613 249.388 120.748 249.827C120.883 250.261 121.067 250.627 121.302 250.926C121.536 251.225 121.8 251.45 122.093 251.603C122.392 251.755 122.702 251.831 123.024 251.831C123.399 251.831 123.733 251.761 124.026 251.62C124.319 251.474 124.565 251.271 124.765 251.014C124.97 250.75 125.125 250.439 125.23 250.082C125.336 249.725 125.389 249.332 125.389 248.904C125.389 248.523 125.342 248.157 125.248 247.806C125.154 247.448 125.011 247.132 124.817 246.856C124.624 246.575 124.381 246.355 124.088 246.197C123.801 246.033 123.458 245.951 123.06 245.951C122.608 245.951 122.187 246.062 121.794 246.285C121.407 246.502 121.088 246.789 120.836 247.146C120.59 247.498 120.449 247.882 120.414 248.298L119.553 248.289C119.635 247.633 119.787 247.073 120.01 246.61C120.238 246.142 120.52 245.761 120.854 245.468C121.193 245.169 121.571 244.952 121.987 244.817C122.409 244.677 122.854 244.606 123.323 244.606C123.962 244.606 124.513 244.727 124.976 244.967C125.438 245.207 125.819 245.529 126.118 245.934C126.417 246.332 126.637 246.783 126.777 247.287C126.924 247.785 126.997 248.298 126.997 248.825C126.997 249.429 126.912 249.994 126.742 250.521C126.572 251.049 126.317 251.512 125.978 251.91C125.644 252.309 125.23 252.619 124.738 252.842C124.246 253.064 123.675 253.176 123.024 253.176C122.333 253.176 121.729 253.035 121.214 252.754C120.698 252.467 120.271 252.086 119.931 251.611C119.591 251.137 119.336 250.609 119.166 250.029C118.996 249.449 118.911 248.86 118.911 248.263V247.498C118.911 246.596 119.002 245.711 119.184 244.844C119.365 243.977 119.679 243.191 120.124 242.488C120.575 241.785 121.199 241.226 121.996 240.81C122.793 240.394 123.81 240.186 125.046 240.186ZM137.201 240.203V241.117L131.901 253H130.188L135.479 241.539H128.553V240.203H137.201ZM140.708 251.066V252.376C140.708 252.909 140.573 253.472 140.304 254.063C140.034 254.661 139.656 255.159 139.17 255.558L138.247 254.916C138.435 254.658 138.593 254.395 138.722 254.125C138.851 253.861 138.947 253.586 139.012 253.299C139.082 253.018 139.117 252.719 139.117 252.402V251.066H140.708ZM152.415 240.133V253H150.789V242.163L147.511 243.358V241.891L152.16 240.133H152.415ZM162.54 240.133V253H160.914V242.163L157.636 243.358V241.891L162.285 240.133H162.54ZM175.706 251.664V253H167.33V251.831L171.522 247.164C172.038 246.59 172.437 246.104 172.718 245.705C173.005 245.301 173.204 244.94 173.315 244.624C173.433 244.302 173.491 243.974 173.491 243.64C173.491 243.218 173.403 242.837 173.228 242.497C173.058 242.151 172.806 241.876 172.472 241.671C172.138 241.466 171.733 241.363 171.259 241.363C170.69 241.363 170.216 241.475 169.835 241.697C169.46 241.914 169.179 242.219 168.991 242.611C168.804 243.004 168.71 243.455 168.71 243.965H167.084C167.084 243.244 167.242 242.585 167.559 241.987C167.875 241.39 168.344 240.915 168.965 240.563C169.586 240.206 170.351 240.027 171.259 240.027C172.067 240.027 172.759 240.171 173.333 240.458C173.907 240.739 174.347 241.138 174.651 241.653C174.962 242.163 175.117 242.761 175.117 243.446C175.117 243.821 175.053 244.202 174.924 244.589C174.801 244.97 174.628 245.351 174.405 245.731C174.188 246.112 173.934 246.487 173.641 246.856C173.354 247.226 173.046 247.589 172.718 247.946L169.29 251.664H175.706Z" fill="black"/>
<path d="M113.682 130V121.882H120.155L128.144 95.1956C128.684 93.4368 129.679 92.0324 131.13 90.9825C132.581 89.9326 134.181 89.4091 135.932 89.4118H148.068C149.821 89.4118 151.423 89.9367 152.874 90.9866C154.325 92.0365 155.319 93.4395 155.856 95.1956L163.845 121.882H170.318V130H113.682ZM137.955 81.2941V61H146.045V81.2941H137.955ZM162.025 91.3397L156.26 85.5559L170.622 71.2485L176.285 76.9309L162.025 91.3397ZM166.273 109.706V101.588H186.5V109.706H166.273ZM121.975 91.3397L107.715 76.9309L113.378 71.2485L127.74 85.5559L121.975 91.3397ZM97.5 109.706V101.588H117.727V109.706H97.5Z" fill="#FF0000"/>
</g>
<defs>
<filter id="filter0_d_38_2582" x="0.5" y="0" width="284" height="365" filterUnits="userSpaceOnUse" color-interpolation-filters="sRGB">
<feFlood flood-opacity="0" result="BackgroundImageFix"/>
<feColorMatrix in="SourceAlpha" type="matrix" values="0 0 0 0 0 0 0 0 0 0 0 0 0 0 0 0 0 0 127 0" result="hardAlpha"/>
<feOffset dy="4"/>
<feGaussianBlur stdDeviation="2"/>
<feComposite in2="hardAlpha" operator="out"/>
<feColorMatrix type="matrix" values="0 0 0 0 0 0 0 0 0 0 0 0 0 0 0 0 0 0 0.25 0"/>
<feBlend mode="normal" in2="BackgroundImageFix" result="effect1_dropShadow_38_2582"/>
<feBlend mode="normal" in="SourceGraphic" in2="effect1_dropShadow_38_2582" result="shape"/>
</filter>
</defs>
</svg>
