<svg width="285" height="365" viewBox="0 0 285 365" fill="none" xmlns="http://www.w3.org/2000/svg">
<g filter="url(#filter0_d_38_2708)">
<rect x="4.5" y="95" width="276" height="262" rx="8" fill="white"/>
<path d="M49.335 212H46.5488L46.5664 209.943H49.335C50.0264 209.943 50.6094 209.788 51.084 209.478C51.5586 209.161 51.916 208.701 52.1562 208.098C52.4023 207.494 52.5254 206.765 52.5254 205.909V205.285C52.5254 204.629 52.4551 204.052 52.3145 203.554C52.1797 203.056 51.9775 202.637 51.708 202.297C51.4385 201.957 51.1074 201.702 50.7148 201.532C50.3223 201.356 49.8711 201.269 49.3613 201.269H46.4961V199.203H49.3613C50.2168 199.203 50.999 199.35 51.708 199.643C52.4229 199.93 53.041 200.343 53.5625 200.882C54.084 201.421 54.4854 202.065 54.7666 202.815C55.0537 203.56 55.1973 204.389 55.1973 205.303V205.909C55.1973 206.817 55.0537 207.646 54.7666 208.396C54.4854 209.146 54.084 209.791 53.5625 210.33C53.0469 210.863 52.4287 211.276 51.708 211.569C50.9932 211.856 50.2021 212 49.335 212ZM48.043 199.203V212H45.4062V199.203H48.043ZM63.7754 208.651C63.7754 208.423 63.7402 208.218 63.6699 208.036C63.6055 207.849 63.4824 207.679 63.3008 207.526C63.1191 207.368 62.8643 207.213 62.5361 207.061C62.208 206.908 61.7832 206.75 61.2617 206.586C60.6816 206.398 60.1309 206.188 59.6094 205.953C59.0938 205.719 58.6367 205.446 58.2383 205.136C57.8457 204.819 57.5352 204.453 57.3066 204.037C57.084 203.621 56.9727 203.138 56.9727 202.587C56.9727 202.054 57.0898 201.57 57.3242 201.137C57.5586 200.697 57.8867 200.322 58.3086 200.012C58.7305 199.695 59.2285 199.452 59.8027 199.282C60.3828 199.112 61.0186 199.027 61.71 199.027C62.6533 199.027 63.4766 199.197 64.1797 199.537C64.8828 199.877 65.4277 200.343 65.8145 200.935C66.207 201.526 66.4033 202.203 66.4033 202.965H63.7842C63.7842 202.59 63.7051 202.262 63.5469 201.98C63.3945 201.693 63.1602 201.468 62.8438 201.304C62.5332 201.14 62.1406 201.058 61.666 201.058C61.209 201.058 60.8281 201.128 60.5234 201.269C60.2188 201.403 59.9902 201.588 59.8379 201.822C59.6855 202.051 59.6094 202.309 59.6094 202.596C59.6094 202.812 59.6621 203.009 59.7676 203.185C59.8789 203.36 60.043 203.524 60.2598 203.677C60.4766 203.829 60.7432 203.973 61.0596 204.107C61.376 204.242 61.7422 204.374 62.1582 204.503C62.8555 204.714 63.4678 204.951 63.9951 205.215C64.5283 205.479 64.9736 205.774 65.3311 206.103C65.6885 206.431 65.958 206.803 66.1396 207.219C66.3213 207.635 66.4121 208.106 66.4121 208.634C66.4121 209.19 66.3037 209.688 66.0869 210.128C65.8701 210.567 65.5566 210.939 65.1465 211.244C64.7363 211.549 64.2471 211.78 63.6787 211.938C63.1104 212.097 62.4746 212.176 61.7715 212.176C61.1387 212.176 60.5146 212.094 59.8994 211.93C59.2842 211.76 58.7246 211.505 58.2207 211.165C57.7227 210.825 57.3242 210.392 57.0254 209.864C56.7266 209.337 56.5771 208.713 56.5771 207.992H59.2227C59.2227 208.391 59.2842 208.728 59.4072 209.003C59.5303 209.278 59.7031 209.501 59.9258 209.671C60.1543 209.841 60.4238 209.964 60.7344 210.04C61.0508 210.116 61.3965 210.154 61.7715 210.154C62.2285 210.154 62.6035 210.09 62.8965 209.961C63.1953 209.832 63.415 209.653 63.5557 209.425C63.7021 209.196 63.7754 208.938 63.7754 208.651ZM74.8672 208.651C74.8672 208.423 74.832 208.218 74.7617 208.036C74.6973 207.849 74.5742 207.679 74.3926 207.526C74.2109 207.368 73.9561 207.213 73.6279 207.061C73.2998 206.908 72.875 206.75 72.3535 206.586C71.7734 206.398 71.2227 206.188 70.7012 205.953C70.1855 205.719 69.7285 205.446 69.3301 205.136C68.9375 204.819 68.627 204.453 68.3984 204.037C68.1758 203.621 68.0645 203.138 68.0645 202.587C68.0645 202.054 68.1816 201.57 68.416 201.137C68.6504 200.697 68.9785 200.322 69.4004 200.012C69.8223 199.695 70.3203 199.452 70.8945 199.282C71.4746 199.112 72.1104 199.027 72.8018 199.027C73.7451 199.027 74.5684 199.197 75.2715 199.537C75.9746 199.877 76.5195 200.343 76.9062 200.935C77.2988 201.526 77.4951 202.203 77.4951 202.965H74.876C74.876 202.59 74.7969 202.262 74.6387 201.98C74.4863 201.693 74.252 201.468 73.9355 201.304C73.625 201.14 73.2324 201.058 72.7578 201.058C72.3008 201.058 71.9199 201.128 71.6152 201.269C71.3105 201.403 71.082 201.588 70.9297 201.822C70.7773 202.051 70.7012 202.309 70.7012 202.596C70.7012 202.812 70.7539 203.009 70.8594 203.185C70.9707 203.36 71.1348 203.524 71.3516 203.677C71.5684 203.829 71.835 203.973 72.1514 204.107C72.4678 204.242 72.834 204.374 73.25 204.503C73.9473 204.714 74.5596 204.951 75.0869 205.215C75.6201 205.479 76.0654 205.774 76.4229 206.103C76.7803 206.431 77.0498 206.803 77.2314 207.219C77.4131 207.635 77.5039 208.106 77.5039 208.634C77.5039 209.19 77.3955 209.688 77.1787 210.128C76.9619 210.567 76.6484 210.939 76.2383 211.244C75.8281 211.549 75.3389 211.78 74.7705 211.938C74.2021 212.097 73.5664 212.176 72.8633 212.176C72.2305 212.176 71.6064 212.094 70.9912 211.93C70.376 211.76 69.8164 211.505 69.3125 211.165C68.8145 210.825 68.416 210.392 68.1172 209.864C67.8184 209.337 67.6689 208.713 67.6689 207.992H70.3145C70.3145 208.391 70.376 208.728 70.499 209.003C70.6221 209.278 70.7949 209.501 71.0176 209.671C71.2461 209.841 71.5156 209.964 71.8262 210.04C72.1426 210.116 72.4883 210.154 72.8633 210.154C73.3203 210.154 73.6953 210.09 73.9883 209.961C74.2871 209.832 74.5068 209.653 74.6475 209.425C74.7939 209.196 74.8672 208.938 74.8672 208.651ZM88.9824 201.392L85.502 212H82.6982L87.4531 199.203H89.2373L88.9824 201.392ZM91.874 212L88.3848 201.392L88.1035 199.203H89.9053L94.6865 212H91.874ZM91.7158 207.236V209.302H84.957V207.236H91.7158ZM106.288 199.203V212H103.651L98.5098 203.422V212H95.873V199.203H98.5098L103.66 207.79V199.203H106.288ZM114.04 199.203V212H111.412V199.203H114.04ZM117.978 199.203V201.269H107.536V199.203H117.978ZM122.284 199.203V212H119.656V199.203H122.284ZM131.873 199.203V212H129.236V199.203H131.873ZM139.537 199.203L134.466 205.522L131.539 208.669L131.064 206.173L133.042 203.466L136.303 199.203H139.537ZM136.54 212L132.77 206.085L134.721 204.45L139.66 212H136.54ZM143.483 199.203V212H140.855V199.203H143.483ZM149.882 212H147.096L147.113 209.943H149.882C150.573 209.943 151.156 209.788 151.631 209.478C152.105 209.161 152.463 208.701 152.703 208.098C152.949 207.494 153.072 206.765 153.072 205.909V205.285C153.072 204.629 153.002 204.052 152.861 203.554C152.727 203.056 152.524 202.637 152.255 202.297C151.985 201.957 151.654 201.702 151.262 201.532C150.869 201.356 150.418 201.269 149.908 201.269H147.043V199.203H149.908C150.764 199.203 151.546 199.35 152.255 199.643C152.97 199.93 153.588 200.343 154.109 200.882C154.631 201.421 155.032 202.065 155.313 202.815C155.601 203.56 155.744 204.389 155.744 205.303V205.909C155.744 206.817 155.601 207.646 155.313 208.396C155.032 209.146 154.631 209.791 154.109 210.33C153.594 210.863 152.976 211.276 152.255 211.569C151.54 211.856 150.749 212 149.882 212ZM148.59 199.203V212H145.953V199.203H148.59ZM168.075 199.203V212H165.438L160.297 203.422V212H157.66V199.203H160.297L165.447 207.79V199.203H168.075ZM175.73 201.392L172.25 212H169.446L174.201 199.203H175.985L175.73 201.392ZM178.622 212L175.133 201.392L174.852 199.203H176.653L181.435 212H178.622ZM178.464 207.236V209.302H171.705V207.236H178.464ZM187.604 207.438H184.344V205.382H187.604C188.108 205.382 188.519 205.3 188.835 205.136C189.151 204.966 189.383 204.731 189.529 204.433C189.676 204.134 189.749 203.797 189.749 203.422C189.749 203.041 189.676 202.687 189.529 202.358C189.383 202.03 189.151 201.767 188.835 201.567C188.519 201.368 188.108 201.269 187.604 201.269H185.258V212H182.621V199.203H187.604C188.606 199.203 189.465 199.385 190.18 199.748C190.9 200.105 191.451 200.601 191.832 201.233C192.213 201.866 192.403 202.59 192.403 203.404C192.403 204.23 192.213 204.945 191.832 205.549C191.451 206.152 190.9 206.618 190.18 206.946C189.465 207.274 188.606 207.438 187.604 207.438ZM207.239 204.415V206.472H200.56V204.415H207.239ZM201.342 199.203V212H198.705V199.203H201.342ZM209.12 199.203V212H206.492V199.203H209.12ZM220.001 209.943V212H213.189V209.943H220.001ZM214.051 199.203V212H211.414V199.203H214.051ZM219.113 204.415V206.419H213.189V204.415H219.113ZM219.992 199.203V201.269H213.189V199.203H219.992ZM229.766 209.943V212H223.323V209.943H229.766ZM224.176 199.203V212H221.539V199.203H224.176ZM236.261 207.438H233V205.382H236.261C236.765 205.382 237.175 205.3 237.491 205.136C237.808 204.966 238.039 204.731 238.186 204.433C238.332 204.134 238.405 203.797 238.405 203.422C238.405 203.041 238.332 202.687 238.186 202.358C238.039 202.03 237.808 201.767 237.491 201.567C237.175 201.368 236.765 201.269 236.261 201.269H233.914V212H231.277V199.203H236.261C237.263 199.203 238.121 199.385 238.836 199.748C239.557 200.105 240.107 200.601 240.488 201.233C240.869 201.866 241.06 202.59 241.06 203.404C241.06 204.23 240.869 204.945 240.488 205.549C240.107 206.152 239.557 206.618 238.836 206.946C238.121 207.274 237.263 207.438 236.261 207.438ZM127.9 235.943V238H121.458V235.943H127.9ZM122.311 225.203V238H119.674V225.203H122.311ZM132.216 225.203V238H129.588V225.203H132.216ZM145.101 225.203V238H142.464L137.322 229.422V238H134.686V225.203H137.322L142.473 233.79V225.203H145.101ZM155.981 235.943V238H149.17V235.943H155.981ZM150.031 225.203V238H147.395V225.203H150.031ZM155.094 230.415V232.419H149.17V230.415H155.094ZM155.973 225.203V227.269H149.17V225.203H155.973ZM164.182 234.651C164.182 234.423 164.146 234.218 164.076 234.036C164.012 233.849 163.889 233.679 163.707 233.526C163.525 233.368 163.271 233.213 162.942 233.061C162.614 232.908 162.189 232.75 161.668 232.586C161.088 232.398 160.537 232.188 160.016 231.953C159.5 231.719 159.043 231.446 158.645 231.136C158.252 230.819 157.941 230.453 157.713 230.037C157.49 229.621 157.379 229.138 157.379 228.587C157.379 228.054 157.496 227.57 157.73 227.137C157.965 226.697 158.293 226.322 158.715 226.012C159.137 225.695 159.635 225.452 160.209 225.282C160.789 225.112 161.425 225.027 162.116 225.027C163.06 225.027 163.883 225.197 164.586 225.537C165.289 225.877 165.834 226.343 166.221 226.935C166.613 227.526 166.81 228.203 166.81 228.965H164.19C164.19 228.59 164.111 228.262 163.953 227.98C163.801 227.693 163.566 227.468 163.25 227.304C162.939 227.14 162.547 227.058 162.072 227.058C161.615 227.058 161.234 227.128 160.93 227.269C160.625 227.403 160.396 227.588 160.244 227.822C160.092 228.051 160.016 228.309 160.016 228.596C160.016 228.812 160.068 229.009 160.174 229.185C160.285 229.36 160.449 229.524 160.666 229.677C160.883 229.829 161.149 229.973 161.466 230.107C161.782 230.242 162.148 230.374 162.564 230.503C163.262 230.714 163.874 230.951 164.401 231.215C164.935 231.479 165.38 231.774 165.737 232.103C166.095 232.431 166.364 232.803 166.546 233.219C166.728 233.635 166.818 234.106 166.818 234.634C166.818 235.19 166.71 235.688 166.493 236.128C166.276 236.567 165.963 236.939 165.553 237.244C165.143 237.549 164.653 237.78 164.085 237.938C163.517 238.097 162.881 238.176 162.178 238.176C161.545 238.176 160.921 238.094 160.306 237.93C159.69 237.76 159.131 237.505 158.627 237.165C158.129 236.825 157.73 236.392 157.432 235.864C157.133 235.337 156.983 234.713 156.983 233.992H159.629C159.629 234.391 159.69 234.728 159.813 235.003C159.937 235.278 160.109 235.501 160.332 235.671C160.561 235.841 160.83 235.964 161.141 236.04C161.457 236.116 161.803 236.154 162.178 236.154C162.635 236.154 163.01 236.09 163.303 235.961C163.602 235.832 163.821 235.653 163.962 235.425C164.108 235.196 164.182 234.938 164.182 234.651Z" fill="#0066CC"/>
<path d="M29.876 266.582V268.533C29.876 269.582 29.7822 270.467 29.5947 271.188C29.4072 271.908 29.1377 272.488 28.7861 272.928C28.4346 273.367 28.0098 273.687 27.5117 273.886C27.0195 274.079 26.4629 274.176 25.8418 274.176C25.3496 274.176 24.8955 274.114 24.4795 273.991C24.0635 273.868 23.6885 273.672 23.3545 273.402C23.0264 273.127 22.7451 272.77 22.5107 272.33C22.2764 271.891 22.0977 271.357 21.9746 270.73C21.8516 270.104 21.79 269.371 21.79 268.533V266.582C21.79 265.533 21.8838 264.654 22.0713 263.945C22.2646 263.236 22.5371 262.668 22.8887 262.24C23.2402 261.807 23.6621 261.496 24.1543 261.309C24.6523 261.121 25.209 261.027 25.8242 261.027C26.3223 261.027 26.7793 261.089 27.1953 261.212C27.6172 261.329 27.9922 261.52 28.3203 261.783C28.6484 262.041 28.9268 262.387 29.1553 262.82C29.3896 263.248 29.5684 263.772 29.6914 264.394C29.8145 265.015 29.876 265.744 29.876 266.582ZM28.2412 268.797V266.31C28.2412 265.735 28.2061 265.231 28.1357 264.798C28.0713 264.358 27.9746 263.983 27.8457 263.673C27.7168 263.362 27.5527 263.11 27.3535 262.917C27.1602 262.724 26.9346 262.583 26.6768 262.495C26.4248 262.401 26.1406 262.354 25.8242 262.354C25.4375 262.354 25.0947 262.428 24.7959 262.574C24.4971 262.715 24.2451 262.94 24.04 263.251C23.8408 263.562 23.6885 263.969 23.583 264.473C23.4775 264.977 23.4248 265.589 23.4248 266.31V268.797C23.4248 269.371 23.457 269.878 23.5215 270.317C23.5918 270.757 23.6943 271.138 23.8291 271.46C23.9639 271.776 24.1279 272.037 24.3213 272.242C24.5146 272.447 24.7373 272.6 24.9893 272.699C25.2471 272.793 25.5312 272.84 25.8418 272.84C26.2402 272.84 26.5889 272.764 26.8877 272.611C27.1865 272.459 27.4355 272.222 27.6348 271.899C27.8398 271.571 27.9922 271.152 28.0918 270.643C28.1914 270.127 28.2412 269.512 28.2412 268.797ZM40.0361 270.537C40.0361 271.316 39.8545 271.979 39.4912 272.523C39.1338 273.062 38.6475 273.473 38.0322 273.754C37.4229 274.035 36.7344 274.176 35.9668 274.176C35.1992 274.176 34.5078 274.035 33.8926 273.754C33.2773 273.473 32.791 273.062 32.4336 272.523C32.0762 271.979 31.8975 271.316 31.8975 270.537C31.8975 270.027 31.9941 269.562 32.1875 269.14C32.3867 268.712 32.665 268.34 33.0225 268.023C33.3857 267.707 33.8135 267.464 34.3057 267.294C34.8037 267.118 35.3516 267.03 35.9492 267.03C36.7344 267.03 37.4346 267.183 38.0498 267.487C38.665 267.786 39.1484 268.199 39.5 268.727C39.8574 269.254 40.0361 269.857 40.0361 270.537ZM38.4014 270.502C38.4014 270.027 38.2988 269.608 38.0938 269.245C37.8887 268.876 37.6016 268.589 37.2324 268.384C36.8633 268.179 36.4355 268.076 35.9492 268.076C35.4512 268.076 35.0205 268.179 34.6572 268.384C34.2998 268.589 34.0215 268.876 33.8223 269.245C33.623 269.608 33.5234 270.027 33.5234 270.502C33.5234 270.994 33.6201 271.416 33.8135 271.768C34.0127 272.113 34.2939 272.38 34.6572 272.567C35.0264 272.749 35.4629 272.84 35.9668 272.84C36.4707 272.84 36.9043 272.749 37.2676 272.567C37.6309 272.38 37.9092 272.113 38.1025 271.768C38.3018 271.416 38.4014 270.994 38.4014 270.502ZM39.7373 264.534C39.7373 265.155 39.5732 265.715 39.2451 266.213C38.917 266.711 38.4688 267.104 37.9004 267.391C37.332 267.678 36.6875 267.821 35.9668 267.821C35.2344 267.821 34.5811 267.678 34.0068 267.391C33.4385 267.104 32.9932 266.711 32.6709 266.213C32.3486 265.715 32.1875 265.155 32.1875 264.534C32.1875 263.79 32.3486 263.157 32.6709 262.636C32.999 262.114 33.4473 261.716 34.0156 261.44C34.584 261.165 35.2314 261.027 35.958 261.027C36.6904 261.027 37.3408 261.165 37.9092 261.44C38.4775 261.716 38.9229 262.114 39.2451 262.636C39.5732 263.157 39.7373 263.79 39.7373 264.534ZM38.1113 264.561C38.1113 264.133 38.0205 263.755 37.8389 263.427C37.6572 263.099 37.4053 262.841 37.083 262.653C36.7607 262.46 36.3857 262.363 35.958 262.363C35.5303 262.363 35.1553 262.454 34.833 262.636C34.5166 262.812 34.2676 263.063 34.0859 263.392C33.9102 263.72 33.8223 264.109 33.8223 264.561C33.8223 265 33.9102 265.384 34.0859 265.712C34.2676 266.04 34.5195 266.295 34.8418 266.477C35.1641 266.658 35.5391 266.749 35.9668 266.749C36.3945 266.749 36.7666 266.658 37.083 266.477C37.4053 266.295 37.6572 266.04 37.8389 265.712C38.0205 265.384 38.1113 265 38.1113 264.561ZM47.4365 261.133V274H45.8105V263.163L42.5322 264.358V262.891L47.1816 261.133H47.4365ZM60.251 266.582V268.533C60.251 269.582 60.1572 270.467 59.9697 271.188C59.7822 271.908 59.5127 272.488 59.1611 272.928C58.8096 273.367 58.3848 273.687 57.8867 273.886C57.3945 274.079 56.8379 274.176 56.2168 274.176C55.7246 274.176 55.2705 274.114 54.8545 273.991C54.4385 273.868 54.0635 273.672 53.7295 273.402C53.4014 273.127 53.1201 272.77 52.8857 272.33C52.6514 271.891 52.4727 271.357 52.3496 270.73C52.2266 270.104 52.165 269.371 52.165 268.533V266.582C52.165 265.533 52.2588 264.654 52.4463 263.945C52.6396 263.236 52.9121 262.668 53.2637 262.24C53.6152 261.807 54.0371 261.496 54.5293 261.309C55.0273 261.121 55.584 261.027 56.1992 261.027C56.6973 261.027 57.1543 261.089 57.5703 261.212C57.9922 261.329 58.3672 261.52 58.6953 261.783C59.0234 262.041 59.3018 262.387 59.5303 262.82C59.7646 263.248 59.9434 263.772 60.0664 264.394C60.1895 265.015 60.251 265.744 60.251 266.582ZM58.6162 268.797V266.31C58.6162 265.735 58.5811 265.231 58.5107 264.798C58.4463 264.358 58.3496 263.983 58.2207 263.673C58.0918 263.362 57.9277 263.11 57.7285 262.917C57.5352 262.724 57.3096 262.583 57.0518 262.495C56.7998 262.401 56.5156 262.354 56.1992 262.354C55.8125 262.354 55.4697 262.428 55.1709 262.574C54.8721 262.715 54.6201 262.94 54.415 263.251C54.2158 263.562 54.0635 263.969 53.958 264.473C53.8525 264.977 53.7998 265.589 53.7998 266.31V268.797C53.7998 269.371 53.832 269.878 53.8965 270.317C53.9668 270.757 54.0693 271.138 54.2041 271.46C54.3389 271.776 54.5029 272.037 54.6963 272.242C54.8896 272.447 55.1123 272.6 55.3643 272.699C55.6221 272.793 55.9062 272.84 56.2168 272.84C56.6152 272.84 56.9639 272.764 57.2627 272.611C57.5615 272.459 57.8105 272.222 58.0098 271.899C58.2148 271.571 58.3672 271.152 58.4668 270.643C58.5664 270.127 58.6162 269.512 58.6162 268.797ZM67.6865 261.133V274H66.0605V263.163L62.7822 264.358V262.891L67.4316 261.133H67.6865ZM80.8525 272.664V274H72.4766V272.831L76.6689 268.164C77.1846 267.59 77.583 267.104 77.8643 266.705C78.1514 266.301 78.3506 265.94 78.4619 265.624C78.5791 265.302 78.6377 264.974 78.6377 264.64C78.6377 264.218 78.5498 263.837 78.374 263.497C78.2041 263.151 77.9521 262.876 77.6182 262.671C77.2842 262.466 76.8799 262.363 76.4053 262.363C75.8369 262.363 75.3623 262.475 74.9814 262.697C74.6064 262.914 74.3252 263.219 74.1377 263.611C73.9502 264.004 73.8564 264.455 73.8564 264.965H72.2305C72.2305 264.244 72.3887 263.585 72.7051 262.987C73.0215 262.39 73.4902 261.915 74.1113 261.563C74.7324 261.206 75.4971 261.027 76.4053 261.027C77.2139 261.027 77.9053 261.171 78.4795 261.458C79.0537 261.739 79.4932 262.138 79.7979 262.653C80.1084 263.163 80.2637 263.761 80.2637 264.446C80.2637 264.821 80.1992 265.202 80.0703 265.589C79.9473 265.97 79.7744 266.351 79.5518 266.731C79.335 267.112 79.0801 267.487 78.7871 267.856C78.5 268.226 78.1924 268.589 77.8643 268.946L74.4365 272.664H80.8525ZM90.8633 261.203V262.117L85.5635 274H83.8496L89.1406 262.539H82.2148V261.203H90.8633ZM101.103 272.664V274H92.7266V272.831L96.9189 268.164C97.4346 267.59 97.833 267.104 98.1143 266.705C98.4014 266.301 98.6006 265.94 98.7119 265.624C98.8291 265.302 98.8877 264.974 98.8877 264.64C98.8877 264.218 98.7998 263.837 98.624 263.497C98.4541 263.151 98.2021 262.876 97.8682 262.671C97.5342 262.466 97.1299 262.363 96.6553 262.363C96.0869 262.363 95.6123 262.475 95.2314 262.697C94.8564 262.914 94.5752 263.219 94.3877 263.611C94.2002 264.004 94.1064 264.455 94.1064 264.965H92.4805C92.4805 264.244 92.6387 263.585 92.9551 262.987C93.2715 262.39 93.7402 261.915 94.3613 261.563C94.9824 261.206 95.7471 261.027 96.6553 261.027C97.4639 261.027 98.1553 261.171 98.7295 261.458C99.3037 261.739 99.7432 262.138 100.048 262.653C100.358 263.163 100.514 263.761 100.514 264.446C100.514 264.821 100.449 265.202 100.32 265.589C100.197 265.97 100.024 266.351 99.8018 266.731C99.585 267.112 99.3301 267.487 99.0371 267.856C98.75 268.226 98.4424 268.589 98.1143 268.946L94.6865 272.664H101.103ZM105.216 266.802H106.376C106.944 266.802 107.413 266.708 107.782 266.521C108.157 266.327 108.436 266.066 108.617 265.738C108.805 265.404 108.898 265.029 108.898 264.613C108.898 264.121 108.816 263.708 108.652 263.374C108.488 263.04 108.242 262.788 107.914 262.618C107.586 262.448 107.17 262.363 106.666 262.363C106.209 262.363 105.805 262.454 105.453 262.636C105.107 262.812 104.835 263.063 104.636 263.392C104.442 263.72 104.346 264.106 104.346 264.552H102.72C102.72 263.901 102.884 263.31 103.212 262.776C103.54 262.243 104 261.818 104.592 261.502C105.189 261.186 105.881 261.027 106.666 261.027C107.439 261.027 108.116 261.165 108.696 261.44C109.276 261.71 109.728 262.114 110.05 262.653C110.372 263.187 110.533 263.852 110.533 264.648C110.533 264.971 110.457 265.316 110.305 265.686C110.158 266.049 109.927 266.389 109.61 266.705C109.3 267.021 108.896 267.282 108.397 267.487C107.899 267.687 107.302 267.786 106.604 267.786H105.216V266.802ZM105.216 268.138V267.162H106.604C107.419 267.162 108.093 267.259 108.626 267.452C109.159 267.646 109.578 267.903 109.883 268.226C110.193 268.548 110.41 268.902 110.533 269.289C110.662 269.67 110.727 270.051 110.727 270.432C110.727 271.029 110.624 271.56 110.419 272.022C110.22 272.485 109.936 272.878 109.566 273.2C109.203 273.522 108.775 273.766 108.283 273.93C107.791 274.094 107.255 274.176 106.675 274.176C106.118 274.176 105.594 274.097 105.102 273.938C104.615 273.78 104.185 273.552 103.81 273.253C103.435 272.948 103.142 272.576 102.931 272.137C102.72 271.691 102.614 271.185 102.614 270.616H104.24C104.24 271.062 104.337 271.451 104.53 271.785C104.729 272.119 105.011 272.38 105.374 272.567C105.743 272.749 106.177 272.84 106.675 272.84C107.173 272.84 107.601 272.755 107.958 272.585C108.321 272.409 108.6 272.146 108.793 271.794C108.992 271.442 109.092 271 109.092 270.467C109.092 269.934 108.98 269.497 108.758 269.157C108.535 268.812 108.219 268.557 107.809 268.393C107.404 268.223 106.927 268.138 106.376 268.138H105.216ZM121.001 266.582V268.533C121.001 269.582 120.907 270.467 120.72 271.188C120.532 271.908 120.263 272.488 119.911 272.928C119.56 273.367 119.135 273.687 118.637 273.886C118.145 274.079 117.588 274.176 116.967 274.176C116.475 274.176 116.021 274.114 115.604 273.991C115.188 273.868 114.813 273.672 114.479 273.402C114.151 273.127 113.87 272.77 113.636 272.33C113.401 271.891 113.223 271.357 113.1 270.73C112.977 270.104 112.915 269.371 112.915 268.533V266.582C112.915 265.533 113.009 264.654 113.196 263.945C113.39 263.236 113.662 262.668 114.014 262.24C114.365 261.807 114.787 261.496 115.279 261.309C115.777 261.121 116.334 261.027 116.949 261.027C117.447 261.027 117.904 261.089 118.32 261.212C118.742 261.329 119.117 261.52 119.445 261.783C119.773 262.041 120.052 262.387 120.28 262.82C120.515 263.248 120.693 263.772 120.816 264.394C120.939 265.015 121.001 265.744 121.001 266.582ZM119.366 268.797V266.31C119.366 265.735 119.331 265.231 119.261 264.798C119.196 264.358 119.1 263.983 118.971 263.673C118.842 263.362 118.678 263.11 118.479 262.917C118.285 262.724 118.06 262.583 117.802 262.495C117.55 262.401 117.266 262.354 116.949 262.354C116.562 262.354 116.22 262.428 115.921 262.574C115.622 262.715 115.37 262.94 115.165 263.251C114.966 263.562 114.813 263.969 114.708 264.473C114.603 264.977 114.55 265.589 114.55 266.31V268.797C114.55 269.371 114.582 269.878 114.646 270.317C114.717 270.757 114.819 271.138 114.954 271.46C115.089 271.776 115.253 272.037 115.446 272.242C115.64 272.447 115.862 272.6 116.114 272.699C116.372 272.793 116.656 272.84 116.967 272.84C117.365 272.84 117.714 272.764 118.013 272.611C118.312 272.459 118.561 272.222 118.76 271.899C118.965 271.571 119.117 271.152 119.217 270.643C119.316 270.127 119.366 269.512 119.366 268.797ZM131.478 272.664V274H123.102V272.831L127.294 268.164C127.81 267.59 128.208 267.104 128.489 266.705C128.776 266.301 128.976 265.94 129.087 265.624C129.204 265.302 129.263 264.974 129.263 264.64C129.263 264.218 129.175 263.837 128.999 263.497C128.829 263.151 128.577 262.876 128.243 262.671C127.909 262.466 127.505 262.363 127.03 262.363C126.462 262.363 125.987 262.475 125.606 262.697C125.231 262.914 124.95 263.219 124.763 263.611C124.575 264.004 124.481 264.455 124.481 264.965H122.855C122.855 264.244 123.014 263.585 123.33 262.987C123.646 262.39 124.115 261.915 124.736 261.563C125.357 261.206 126.122 261.027 127.03 261.027C127.839 261.027 128.53 261.171 129.104 261.458C129.679 261.739 130.118 262.138 130.423 262.653C130.733 263.163 130.889 263.761 130.889 264.446C130.889 264.821 130.824 265.202 130.695 265.589C130.572 265.97 130.399 266.351 130.177 266.731C129.96 267.112 129.705 267.487 129.412 267.856C129.125 268.226 128.817 268.589 128.489 268.946L125.062 272.664H131.478ZM141.603 272.664V274H133.227V272.831L137.419 268.164C137.935 267.59 138.333 267.104 138.614 266.705C138.901 266.301 139.101 265.94 139.212 265.624C139.329 265.302 139.388 264.974 139.388 264.64C139.388 264.218 139.3 263.837 139.124 263.497C138.954 263.151 138.702 262.876 138.368 262.671C138.034 262.466 137.63 262.363 137.155 262.363C136.587 262.363 136.112 262.475 135.731 262.697C135.356 262.914 135.075 263.219 134.888 263.611C134.7 264.004 134.606 264.455 134.606 264.965H132.98C132.98 264.244 133.139 263.585 133.455 262.987C133.771 262.39 134.24 261.915 134.861 261.563C135.482 261.206 136.247 261.027 137.155 261.027C137.964 261.027 138.655 261.171 139.229 261.458C139.804 261.739 140.243 262.138 140.548 262.653C140.858 263.163 141.014 263.761 141.014 264.446C141.014 264.821 140.949 265.202 140.82 265.589C140.697 265.97 140.524 266.351 140.302 266.731C140.085 267.112 139.83 267.487 139.537 267.856C139.25 268.226 138.942 268.589 138.614 268.946L135.187 272.664H141.603ZM144.995 272.066V273.376C144.995 273.909 144.86 274.472 144.591 275.063C144.321 275.661 143.943 276.159 143.457 276.558L142.534 275.916C142.722 275.658 142.88 275.395 143.009 275.125C143.138 274.861 143.234 274.586 143.299 274.299C143.369 274.018 143.404 273.719 143.404 273.402V272.066H144.995ZM159.392 266.582V268.533C159.392 269.582 159.298 270.467 159.11 271.188C158.923 271.908 158.653 272.488 158.302 272.928C157.95 273.367 157.525 273.687 157.027 273.886C156.535 274.079 155.979 274.176 155.357 274.176C154.865 274.176 154.411 274.114 153.995 273.991C153.579 273.868 153.204 273.672 152.87 273.402C152.542 273.127 152.261 272.77 152.026 272.33C151.792 271.891 151.613 271.357 151.49 270.73C151.367 270.104 151.306 269.371 151.306 268.533V266.582C151.306 265.533 151.399 264.654 151.587 263.945C151.78 263.236 152.053 262.668 152.404 262.24C152.756 261.807 153.178 261.496 153.67 261.309C154.168 261.121 154.725 261.027 155.34 261.027C155.838 261.027 156.295 261.089 156.711 261.212C157.133 261.329 157.508 261.52 157.836 261.783C158.164 262.041 158.442 262.387 158.671 262.82C158.905 263.248 159.084 263.772 159.207 264.394C159.33 265.015 159.392 265.744 159.392 266.582ZM157.757 268.797V266.31C157.757 265.735 157.722 265.231 157.651 264.798C157.587 264.358 157.49 263.983 157.361 263.673C157.232 263.362 157.068 263.11 156.869 262.917C156.676 262.724 156.45 262.583 156.192 262.495C155.94 262.401 155.656 262.354 155.34 262.354C154.953 262.354 154.61 262.428 154.312 262.574C154.013 262.715 153.761 262.94 153.556 263.251C153.356 263.562 153.204 263.969 153.099 264.473C152.993 264.977 152.94 265.589 152.94 266.31V268.797C152.94 269.371 152.973 269.878 153.037 270.317C153.107 270.757 153.21 271.138 153.345 271.46C153.479 271.776 153.644 272.037 153.837 272.242C154.03 272.447 154.253 272.6 154.505 272.699C154.763 272.793 155.047 272.84 155.357 272.84C155.756 272.84 156.104 272.764 156.403 272.611C156.702 272.459 156.951 272.222 157.15 271.899C157.355 271.571 157.508 271.152 157.607 270.643C157.707 270.127 157.757 269.512 157.757 268.797ZM169.552 270.537C169.552 271.316 169.37 271.979 169.007 272.523C168.649 273.062 168.163 273.473 167.548 273.754C166.938 274.035 166.25 274.176 165.482 274.176C164.715 274.176 164.023 274.035 163.408 273.754C162.793 273.473 162.307 273.062 161.949 272.523C161.592 271.979 161.413 271.316 161.413 270.537C161.413 270.027 161.51 269.562 161.703 269.14C161.902 268.712 162.181 268.34 162.538 268.023C162.901 267.707 163.329 267.464 163.821 267.294C164.319 267.118 164.867 267.03 165.465 267.03C166.25 267.03 166.95 267.183 167.565 267.487C168.181 267.786 168.664 268.199 169.016 268.727C169.373 269.254 169.552 269.857 169.552 270.537ZM167.917 270.502C167.917 270.027 167.814 269.608 167.609 269.245C167.404 268.876 167.117 268.589 166.748 268.384C166.379 268.179 165.951 268.076 165.465 268.076C164.967 268.076 164.536 268.179 164.173 268.384C163.815 268.589 163.537 268.876 163.338 269.245C163.139 269.608 163.039 270.027 163.039 270.502C163.039 270.994 163.136 271.416 163.329 271.768C163.528 272.113 163.81 272.38 164.173 272.567C164.542 272.749 164.979 272.84 165.482 272.84C165.986 272.84 166.42 272.749 166.783 272.567C167.146 272.38 167.425 272.113 167.618 271.768C167.817 271.416 167.917 270.994 167.917 270.502ZM169.253 264.534C169.253 265.155 169.089 265.715 168.761 266.213C168.433 266.711 167.984 267.104 167.416 267.391C166.848 267.678 166.203 267.821 165.482 267.821C164.75 267.821 164.097 267.678 163.522 267.391C162.954 267.104 162.509 266.711 162.187 266.213C161.864 265.715 161.703 265.155 161.703 264.534C161.703 263.79 161.864 263.157 162.187 262.636C162.515 262.114 162.963 261.716 163.531 261.44C164.1 261.165 164.747 261.027 165.474 261.027C166.206 261.027 166.856 261.165 167.425 261.44C167.993 261.716 168.438 262.114 168.761 262.636C169.089 263.157 169.253 263.79 169.253 264.534ZM167.627 264.561C167.627 264.133 167.536 263.755 167.354 263.427C167.173 263.099 166.921 262.841 166.599 262.653C166.276 262.46 165.901 262.363 165.474 262.363C165.046 262.363 164.671 262.454 164.349 262.636C164.032 262.812 163.783 263.063 163.602 263.392C163.426 263.72 163.338 264.109 163.338 264.561C163.338 265 163.426 265.384 163.602 265.712C163.783 266.04 164.035 266.295 164.357 266.477C164.68 266.658 165.055 266.749 165.482 266.749C165.91 266.749 166.282 266.658 166.599 266.477C166.921 266.295 167.173 266.04 167.354 265.712C167.536 265.384 167.627 265 167.627 264.561ZM179.642 266.582V268.533C179.642 269.582 179.548 270.467 179.36 271.188C179.173 271.908 178.903 272.488 178.552 272.928C178.2 273.367 177.775 273.687 177.277 273.886C176.785 274.079 176.229 274.176 175.607 274.176C175.115 274.176 174.661 274.114 174.245 273.991C173.829 273.868 173.454 273.672 173.12 273.402C172.792 273.127 172.511 272.77 172.276 272.33C172.042 271.891 171.863 271.357 171.74 270.73C171.617 270.104 171.556 269.371 171.556 268.533V266.582C171.556 265.533 171.649 264.654 171.837 263.945C172.03 263.236 172.303 262.668 172.654 262.24C173.006 261.807 173.428 261.496 173.92 261.309C174.418 261.121 174.975 261.027 175.59 261.027C176.088 261.027 176.545 261.089 176.961 261.212C177.383 261.329 177.758 261.52 178.086 261.783C178.414 262.041 178.692 262.387 178.921 262.82C179.155 263.248 179.334 263.772 179.457 264.394C179.58 265.015 179.642 265.744 179.642 266.582ZM178.007 268.797V266.31C178.007 265.735 177.972 265.231 177.901 264.798C177.837 264.358 177.74 263.983 177.611 263.673C177.482 263.362 177.318 263.11 177.119 262.917C176.926 262.724 176.7 262.583 176.442 262.495C176.19 262.401 175.906 262.354 175.59 262.354C175.203 262.354 174.86 262.428 174.562 262.574C174.263 262.715 174.011 262.94 173.806 263.251C173.606 263.562 173.454 263.969 173.349 264.473C173.243 264.977 173.19 265.589 173.19 266.31V268.797C173.19 269.371 173.223 269.878 173.287 270.317C173.357 270.757 173.46 271.138 173.595 271.46C173.729 271.776 173.894 272.037 174.087 272.242C174.28 272.447 174.503 272.6 174.755 272.699C175.013 272.793 175.297 272.84 175.607 272.84C176.006 272.84 176.354 272.764 176.653 272.611C176.952 272.459 177.201 272.222 177.4 271.899C177.605 271.571 177.758 271.152 177.857 270.643C177.957 270.127 178.007 269.512 178.007 268.797ZM190.118 272.664V274H181.742V272.831L185.935 268.164C186.45 267.59 186.849 267.104 187.13 266.705C187.417 266.301 187.616 265.94 187.728 265.624C187.845 265.302 187.903 264.974 187.903 264.64C187.903 264.218 187.815 263.837 187.64 263.497C187.47 263.151 187.218 262.876 186.884 262.671C186.55 262.466 186.146 262.363 185.671 262.363C185.103 262.363 184.628 262.475 184.247 262.697C183.872 262.914 183.591 263.219 183.403 263.611C183.216 264.004 183.122 264.455 183.122 264.965H181.496C181.496 264.244 181.654 263.585 181.971 262.987C182.287 262.39 182.756 261.915 183.377 261.563C183.998 261.206 184.763 261.027 185.671 261.027C186.479 261.027 187.171 261.171 187.745 261.458C188.319 261.739 188.759 262.138 189.063 262.653C189.374 263.163 189.529 263.761 189.529 264.446C189.529 264.821 189.465 265.202 189.336 265.589C189.213 265.97 189.04 266.351 188.817 266.731C188.601 267.112 188.346 267.487 188.053 267.856C187.766 268.226 187.458 268.589 187.13 268.946L183.702 272.664H190.118ZM193.915 267.909L192.614 267.575L193.256 261.203H199.821V262.706H194.636L194.249 266.187C194.483 266.052 194.779 265.926 195.137 265.809C195.5 265.691 195.916 265.633 196.385 265.633C196.977 265.633 197.507 265.735 197.976 265.94C198.444 266.14 198.843 266.427 199.171 266.802C199.505 267.177 199.76 267.628 199.936 268.155C200.111 268.683 200.199 269.271 200.199 269.922C200.199 270.537 200.114 271.103 199.944 271.618C199.78 272.134 199.531 272.585 199.197 272.972C198.863 273.353 198.441 273.648 197.932 273.859C197.428 274.07 196.833 274.176 196.147 274.176C195.632 274.176 195.143 274.105 194.68 273.965C194.223 273.818 193.812 273.599 193.449 273.306C193.092 273.007 192.799 272.638 192.57 272.198C192.348 271.753 192.207 271.231 192.148 270.634H193.695C193.766 271.114 193.906 271.519 194.117 271.847C194.328 272.175 194.604 272.424 194.943 272.594C195.289 272.758 195.69 272.84 196.147 272.84C196.534 272.84 196.877 272.772 197.176 272.638C197.475 272.503 197.727 272.31 197.932 272.058C198.137 271.806 198.292 271.501 198.397 271.144C198.509 270.786 198.564 270.385 198.564 269.939C198.564 269.535 198.509 269.16 198.397 268.814C198.286 268.469 198.119 268.167 197.896 267.909C197.68 267.651 197.413 267.452 197.097 267.312C196.78 267.165 196.417 267.092 196.007 267.092C195.462 267.092 195.049 267.165 194.768 267.312C194.492 267.458 194.208 267.657 193.915 267.909ZM210.254 261.203V262.117L204.954 274H203.24L208.531 262.539H201.605V261.203H210.254ZM217.452 261.133V274H215.826V263.163L212.548 264.358V262.891L217.197 261.133H217.452ZM224.606 266.802H225.767C226.335 266.802 226.804 266.708 227.173 266.521C227.548 266.327 227.826 266.066 228.008 265.738C228.195 265.404 228.289 265.029 228.289 264.613C228.289 264.121 228.207 263.708 228.043 263.374C227.879 263.04 227.633 262.788 227.305 262.618C226.977 262.448 226.561 262.363 226.057 262.363C225.6 262.363 225.195 262.454 224.844 262.636C224.498 262.812 224.226 263.063 224.026 263.392C223.833 263.72 223.736 264.106 223.736 264.552H222.11C222.11 263.901 222.274 263.31 222.603 262.776C222.931 262.243 223.391 261.818 223.982 261.502C224.58 261.186 225.271 261.027 226.057 261.027C226.83 261.027 227.507 261.165 228.087 261.44C228.667 261.71 229.118 262.114 229.44 262.653C229.763 263.187 229.924 263.852 229.924 264.648C229.924 264.971 229.848 265.316 229.695 265.686C229.549 266.049 229.317 266.389 229.001 266.705C228.69 267.021 228.286 267.282 227.788 267.487C227.29 267.687 226.692 267.786 225.995 267.786H224.606V266.802ZM224.606 268.138V267.162H225.995C226.81 267.162 227.483 267.259 228.017 267.452C228.55 267.646 228.969 267.903 229.273 268.226C229.584 268.548 229.801 268.902 229.924 269.289C230.053 269.67 230.117 270.051 230.117 270.432C230.117 271.029 230.015 271.56 229.81 272.022C229.61 272.485 229.326 272.878 228.957 273.2C228.594 273.522 228.166 273.766 227.674 273.93C227.182 274.094 226.646 274.176 226.065 274.176C225.509 274.176 224.984 274.097 224.492 273.938C224.006 273.78 223.575 273.552 223.2 273.253C222.825 272.948 222.532 272.576 222.321 272.137C222.11 271.691 222.005 271.185 222.005 270.616H223.631C223.631 271.062 223.728 271.451 223.921 271.785C224.12 272.119 224.401 272.38 224.765 272.567C225.134 272.749 225.567 272.84 226.065 272.84C226.563 272.84 226.991 272.755 227.349 272.585C227.712 272.409 227.99 272.146 228.184 271.794C228.383 271.442 228.482 271 228.482 270.467C228.482 269.934 228.371 269.497 228.148 269.157C227.926 268.812 227.609 268.557 227.199 268.393C226.795 268.223 226.317 268.138 225.767 268.138H224.606ZM237.702 261.133V274H236.076V263.163L232.798 264.358V262.891L237.447 261.133H237.702ZM244.101 272.638H244.268C245.205 272.638 245.967 272.506 246.553 272.242C247.139 271.979 247.59 271.624 247.906 271.179C248.223 270.733 248.439 270.232 248.557 269.676C248.674 269.113 248.732 268.536 248.732 267.944V265.984C248.732 265.404 248.665 264.889 248.53 264.438C248.401 263.986 248.22 263.608 247.985 263.304C247.757 262.999 247.496 262.768 247.203 262.609C246.91 262.451 246.6 262.372 246.271 262.372C245.896 262.372 245.56 262.448 245.261 262.601C244.968 262.747 244.719 262.955 244.514 263.225C244.314 263.494 244.162 263.811 244.057 264.174C243.951 264.537 243.898 264.933 243.898 265.36C243.898 265.741 243.945 266.11 244.039 266.468C244.133 266.825 244.276 267.147 244.47 267.435C244.663 267.722 244.903 267.95 245.19 268.12C245.483 268.284 245.826 268.366 246.219 268.366C246.582 268.366 246.922 268.296 247.238 268.155C247.561 268.009 247.845 267.812 248.091 267.566C248.343 267.314 248.542 267.03 248.688 266.714C248.841 266.397 248.929 266.066 248.952 265.721H249.726C249.726 266.207 249.629 266.688 249.436 267.162C249.248 267.631 248.984 268.059 248.645 268.445C248.305 268.832 247.906 269.143 247.449 269.377C246.992 269.605 246.494 269.72 245.955 269.72C245.322 269.72 244.774 269.597 244.312 269.351C243.849 269.104 243.468 268.776 243.169 268.366C242.876 267.956 242.656 267.499 242.51 266.995C242.369 266.485 242.299 265.97 242.299 265.448C242.299 264.839 242.384 264.268 242.554 263.734C242.724 263.201 242.976 262.732 243.31 262.328C243.644 261.918 244.057 261.599 244.549 261.37C245.047 261.142 245.621 261.027 246.271 261.027C247.004 261.027 247.628 261.174 248.144 261.467C248.659 261.76 249.078 262.152 249.4 262.645C249.729 263.137 249.969 263.69 250.121 264.306C250.273 264.921 250.35 265.554 250.35 266.204V266.793C250.35 267.455 250.306 268.129 250.218 268.814C250.136 269.494 249.975 270.145 249.734 270.766C249.5 271.387 249.157 271.943 248.706 272.436C248.255 272.922 247.666 273.309 246.939 273.596C246.219 273.877 245.328 274.018 244.268 274.018H244.101V272.638ZM260.642 266.582V268.533C260.642 269.582 260.548 270.467 260.36 271.188C260.173 271.908 259.903 272.488 259.552 272.928C259.2 273.367 258.775 273.687 258.277 273.886C257.785 274.079 257.229 274.176 256.607 274.176C256.115 274.176 255.661 274.114 255.245 273.991C254.829 273.868 254.454 273.672 254.12 273.402C253.792 273.127 253.511 272.77 253.276 272.33C253.042 271.891 252.863 271.357 252.74 270.73C252.617 270.104 252.556 269.371 252.556 268.533V266.582C252.556 265.533 252.649 264.654 252.837 263.945C253.03 263.236 253.303 262.668 253.654 262.24C254.006 261.807 254.428 261.496 254.92 261.309C255.418 261.121 255.975 261.027 256.59 261.027C257.088 261.027 257.545 261.089 257.961 261.212C258.383 261.329 258.758 261.52 259.086 261.783C259.414 262.041 259.692 262.387 259.921 262.82C260.155 263.248 260.334 263.772 260.457 264.394C260.58 265.015 260.642 265.744 260.642 266.582ZM259.007 268.797V266.31C259.007 265.735 258.972 265.231 258.901 264.798C258.837 264.358 258.74 263.983 258.611 263.673C258.482 263.362 258.318 263.11 258.119 262.917C257.926 262.724 257.7 262.583 257.442 262.495C257.19 262.401 256.906 262.354 256.59 262.354C256.203 262.354 255.86 262.428 255.562 262.574C255.263 262.715 255.011 262.94 254.806 263.251C254.606 263.562 254.454 263.969 254.349 264.473C254.243 264.977 254.19 265.589 254.19 266.31V268.797C254.19 269.371 254.223 269.878 254.287 270.317C254.357 270.757 254.46 271.138 254.595 271.46C254.729 271.776 254.894 272.037 255.087 272.242C255.28 272.447 255.503 272.6 255.755 272.699C256.013 272.793 256.297 272.84 256.607 272.84C257.006 272.84 257.354 272.764 257.653 272.611C257.952 272.459 258.201 272.222 258.4 271.899C258.605 271.571 258.758 271.152 258.857 270.643C258.957 270.127 259.007 269.512 259.007 268.797ZM264.386 272.066V273.376C264.386 273.909 264.251 274.472 263.981 275.063C263.712 275.661 263.334 276.159 262.848 276.558L261.925 275.916C262.112 275.658 262.271 275.395 262.399 275.125C262.528 274.861 262.625 274.586 262.689 274.299C262.76 274.018 262.795 273.719 262.795 273.402V272.066H264.386ZM36.7139 292.582V294.533C36.7139 295.582 36.6201 296.467 36.4326 297.188C36.2451 297.908 35.9756 298.488 35.624 298.928C35.2725 299.367 34.8477 299.687 34.3496 299.886C33.8574 300.079 33.3008 300.176 32.6797 300.176C32.1875 300.176 31.7334 300.114 31.3174 299.991C30.9014 299.868 30.5264 299.672 30.1924 299.402C29.8643 299.127 29.583 298.77 29.3486 298.33C29.1143 297.891 28.9355 297.357 28.8125 296.73C28.6895 296.104 28.6279 295.371 28.6279 294.533V292.582C28.6279 291.533 28.7217 290.654 28.9092 289.945C29.1025 289.236 29.375 288.668 29.7266 288.24C30.0781 287.807 30.5 287.496 30.9922 287.309C31.4902 287.121 32.0469 287.027 32.6621 287.027C33.1602 287.027 33.6172 287.089 34.0332 287.212C34.4551 287.329 34.8301 287.52 35.1582 287.783C35.4863 288.041 35.7646 288.387 35.9932 288.82C36.2275 289.248 36.4062 289.772 36.5293 290.394C36.6523 291.015 36.7139 291.744 36.7139 292.582ZM35.0791 294.797V292.31C35.0791 291.735 35.0439 291.231 34.9736 290.798C34.9092 290.358 34.8125 289.983 34.6836 289.673C34.5547 289.362 34.3906 289.11 34.1914 288.917C33.998 288.724 33.7725 288.583 33.5146 288.495C33.2627 288.401 32.9785 288.354 32.6621 288.354C32.2754 288.354 31.9326 288.428 31.6338 288.574C31.335 288.715 31.083 288.94 30.8779 289.251C30.6787 289.562 30.5264 289.969 30.4209 290.473C30.3154 290.977 30.2627 291.589 30.2627 292.31V294.797C30.2627 295.371 30.2949 295.878 30.3594 296.317C30.4297 296.757 30.5322 297.138 30.667 297.46C30.8018 297.776 30.9658 298.037 31.1592 298.242C31.3525 298.447 31.5752 298.6 31.8271 298.699C32.085 298.793 32.3691 298.84 32.6797 298.84C33.0781 298.84 33.4268 298.764 33.7256 298.611C34.0244 298.459 34.2734 298.222 34.4727 297.899C34.6777 297.571 34.8301 297.152 34.9297 296.643C35.0293 296.127 35.0791 295.512 35.0791 294.797ZM46.874 296.537C46.874 297.316 46.6924 297.979 46.3291 298.523C45.9717 299.062 45.4854 299.473 44.8701 299.754C44.2607 300.035 43.5723 300.176 42.8047 300.176C42.0371 300.176 41.3457 300.035 40.7305 299.754C40.1152 299.473 39.6289 299.062 39.2715 298.523C38.9141 297.979 38.7354 297.316 38.7354 296.537C38.7354 296.027 38.832 295.562 39.0254 295.14C39.2246 294.712 39.5029 294.34 39.8604 294.023C40.2236 293.707 40.6514 293.464 41.1436 293.294C41.6416 293.118 42.1895 293.03 42.7871 293.03C43.5723 293.03 44.2725 293.183 44.8877 293.487C45.5029 293.786 45.9863 294.199 46.3379 294.727C46.6953 295.254 46.874 295.857 46.874 296.537ZM45.2393 296.502C45.2393 296.027 45.1367 295.608 44.9316 295.245C44.7266 294.876 44.4395 294.589 44.0703 294.384C43.7012 294.179 43.2734 294.076 42.7871 294.076C42.2891 294.076 41.8584 294.179 41.4951 294.384C41.1377 294.589 40.8594 294.876 40.6602 295.245C40.4609 295.608 40.3613 296.027 40.3613 296.502C40.3613 296.994 40.458 297.416 40.6514 297.768C40.8506 298.113 41.1318 298.38 41.4951 298.567C41.8643 298.749 42.3008 298.84 42.8047 298.84C43.3086 298.84 43.7422 298.749 44.1055 298.567C44.4688 298.38 44.7471 298.113 44.9404 297.768C45.1396 297.416 45.2393 296.994 45.2393 296.502ZM46.5752 290.534C46.5752 291.155 46.4111 291.715 46.083 292.213C45.7549 292.711 45.3066 293.104 44.7383 293.391C44.1699 293.678 43.5254 293.821 42.8047 293.821C42.0723 293.821 41.4189 293.678 40.8447 293.391C40.2764 293.104 39.8311 292.711 39.5088 292.213C39.1865 291.715 39.0254 291.155 39.0254 290.534C39.0254 289.79 39.1865 289.157 39.5088 288.636C39.8369 288.114 40.2852 287.716 40.8535 287.44C41.4219 287.165 42.0693 287.027 42.7959 287.027C43.5283 287.027 44.1787 287.165 44.7471 287.44C45.3154 287.716 45.7607 288.114 46.083 288.636C46.4111 289.157 46.5752 289.79 46.5752 290.534ZM44.9492 290.561C44.9492 290.133 44.8584 289.755 44.6768 289.427C44.4951 289.099 44.2432 288.841 43.9209 288.653C43.5986 288.46 43.2236 288.363 42.7959 288.363C42.3682 288.363 41.9932 288.454 41.6709 288.636C41.3545 288.812 41.1055 289.063 40.9238 289.392C40.748 289.72 40.6602 290.109 40.6602 290.561C40.6602 291 40.748 291.384 40.9238 291.712C41.1055 292.04 41.3574 292.295 41.6797 292.477C42.002 292.658 42.377 292.749 42.8047 292.749C43.2324 292.749 43.6045 292.658 43.9209 292.477C44.2432 292.295 44.4951 292.04 44.6768 291.712C44.8584 291.384 44.9492 291 44.9492 290.561ZM54.2744 287.133V300H52.6484V289.163L49.3701 290.358V288.891L54.0195 287.133H54.2744ZM67.3262 287.203V288.117L62.0264 300H60.3125L65.6035 288.539H58.6777V287.203H67.3262ZM75.4209 287.186H75.5615V288.565H75.4209C74.5596 288.565 73.8389 288.706 73.2588 288.987C72.6787 289.263 72.2188 289.635 71.8789 290.104C71.5391 290.566 71.293 291.088 71.1406 291.668C70.9941 292.248 70.9209 292.837 70.9209 293.435V295.315C70.9209 295.884 70.9883 296.388 71.123 296.827C71.2578 297.261 71.4424 297.627 71.6768 297.926C71.9111 298.225 72.1748 298.45 72.4678 298.603C72.7666 298.755 73.0771 298.831 73.3994 298.831C73.7744 298.831 74.1084 298.761 74.4014 298.62C74.6943 298.474 74.9404 298.271 75.1396 298.014C75.3447 297.75 75.5 297.439 75.6055 297.082C75.7109 296.725 75.7637 296.332 75.7637 295.904C75.7637 295.523 75.7168 295.157 75.623 294.806C75.5293 294.448 75.3857 294.132 75.1924 293.856C74.999 293.575 74.7559 293.355 74.4629 293.197C74.1758 293.033 73.833 292.951 73.4346 292.951C72.9834 292.951 72.5615 293.062 72.1689 293.285C71.7822 293.502 71.4629 293.789 71.2109 294.146C70.9648 294.498 70.8242 294.882 70.7891 295.298L69.9277 295.289C70.0098 294.633 70.1621 294.073 70.3848 293.61C70.6133 293.142 70.8945 292.761 71.2285 292.468C71.5684 292.169 71.9463 291.952 72.3623 291.817C72.7842 291.677 73.2295 291.606 73.6982 291.606C74.3369 291.606 74.8877 291.727 75.3506 291.967C75.8135 292.207 76.1943 292.529 76.4932 292.934C76.792 293.332 77.0117 293.783 77.1523 294.287C77.2988 294.785 77.3721 295.298 77.3721 295.825C77.3721 296.429 77.2871 296.994 77.1172 297.521C76.9473 298.049 76.6924 298.512 76.3525 298.91C76.0186 299.309 75.6055 299.619 75.1133 299.842C74.6211 300.064 74.0498 300.176 73.3994 300.176C72.708 300.176 72.1045 300.035 71.5889 299.754C71.0732 299.467 70.6455 299.086 70.3057 298.611C69.9658 298.137 69.7109 297.609 69.541 297.029C69.3711 296.449 69.2861 295.86 69.2861 295.263V294.498C69.2861 293.596 69.377 292.711 69.5586 291.844C69.7402 290.977 70.0537 290.191 70.499 289.488C70.9502 288.785 71.5742 288.226 72.3711 287.81C73.168 287.394 74.1846 287.186 75.4209 287.186ZM87.374 296.537C87.374 297.316 87.1924 297.979 86.8291 298.523C86.4717 299.062 85.9854 299.473 85.3701 299.754C84.7607 300.035 84.0723 300.176 83.3047 300.176C82.5371 300.176 81.8457 300.035 81.2305 299.754C80.6152 299.473 80.1289 299.062 79.7715 298.523C79.4141 297.979 79.2354 297.316 79.2354 296.537C79.2354 296.027 79.332 295.562 79.5254 295.14C79.7246 294.712 80.0029 294.34 80.3604 294.023C80.7236 293.707 81.1514 293.464 81.6436 293.294C82.1416 293.118 82.6895 293.03 83.2871 293.03C84.0723 293.03 84.7725 293.183 85.3877 293.487C86.0029 293.786 86.4863 294.199 86.8379 294.727C87.1953 295.254 87.374 295.857 87.374 296.537ZM85.7393 296.502C85.7393 296.027 85.6367 295.608 85.4316 295.245C85.2266 294.876 84.9395 294.589 84.5703 294.384C84.2012 294.179 83.7734 294.076 83.2871 294.076C82.7891 294.076 82.3584 294.179 81.9951 294.384C81.6377 294.589 81.3594 294.876 81.1602 295.245C80.9609 295.608 80.8613 296.027 80.8613 296.502C80.8613 296.994 80.958 297.416 81.1514 297.768C81.3506 298.113 81.6318 298.38 81.9951 298.567C82.3643 298.749 82.8008 298.84 83.3047 298.84C83.8086 298.84 84.2422 298.749 84.6055 298.567C84.9688 298.38 85.2471 298.113 85.4404 297.768C85.6396 297.416 85.7393 296.994 85.7393 296.502ZM87.0752 290.534C87.0752 291.155 86.9111 291.715 86.583 292.213C86.2549 292.711 85.8066 293.104 85.2383 293.391C84.6699 293.678 84.0254 293.821 83.3047 293.821C82.5723 293.821 81.9189 293.678 81.3447 293.391C80.7764 293.104 80.3311 292.711 80.0088 292.213C79.6865 291.715 79.5254 291.155 79.5254 290.534C79.5254 289.79 79.6865 289.157 80.0088 288.636C80.3369 288.114 80.7852 287.716 81.3535 287.44C81.9219 287.165 82.5693 287.027 83.2959 287.027C84.0283 287.027 84.6787 287.165 85.2471 287.44C85.8154 287.716 86.2607 288.114 86.583 288.636C86.9111 289.157 87.0752 289.79 87.0752 290.534ZM85.4492 290.561C85.4492 290.133 85.3584 289.755 85.1768 289.427C84.9951 289.099 84.7432 288.841 84.4209 288.653C84.0986 288.46 83.7236 288.363 83.2959 288.363C82.8682 288.363 82.4932 288.454 82.1709 288.636C81.8545 288.812 81.6055 289.063 81.4238 289.392C81.248 289.72 81.1602 290.109 81.1602 290.561C81.1602 291 81.248 291.384 81.4238 291.712C81.6055 292.04 81.8574 292.295 82.1797 292.477C82.502 292.658 82.877 292.749 83.3047 292.749C83.7324 292.749 84.1045 292.658 84.4209 292.477C84.7432 292.295 84.9951 292.04 85.1768 291.712C85.3584 291.384 85.4492 291 85.4492 290.561ZM97.7012 287.203V288.117L92.4014 300H90.6875L95.9785 288.539H89.0527V287.203H97.7012ZM107.624 296.537C107.624 297.316 107.442 297.979 107.079 298.523C106.722 299.062 106.235 299.473 105.62 299.754C105.011 300.035 104.322 300.176 103.555 300.176C102.787 300.176 102.096 300.035 101.48 299.754C100.865 299.473 100.379 299.062 100.021 298.523C99.6641 297.979 99.4854 297.316 99.4854 296.537C99.4854 296.027 99.582 295.562 99.7754 295.14C99.9746 294.712 100.253 294.34 100.61 294.023C100.974 293.707 101.401 293.464 101.894 293.294C102.392 293.118 102.939 293.03 103.537 293.03C104.322 293.03 105.022 293.183 105.638 293.487C106.253 293.786 106.736 294.199 107.088 294.727C107.445 295.254 107.624 295.857 107.624 296.537ZM105.989 296.502C105.989 296.027 105.887 295.608 105.682 295.245C105.477 294.876 105.189 294.589 104.82 294.384C104.451 294.179 104.023 294.076 103.537 294.076C103.039 294.076 102.608 294.179 102.245 294.384C101.888 294.589 101.609 294.876 101.41 295.245C101.211 295.608 101.111 296.027 101.111 296.502C101.111 296.994 101.208 297.416 101.401 297.768C101.601 298.113 101.882 298.38 102.245 298.567C102.614 298.749 103.051 298.84 103.555 298.84C104.059 298.84 104.492 298.749 104.855 298.567C105.219 298.38 105.497 298.113 105.69 297.768C105.89 297.416 105.989 296.994 105.989 296.502ZM107.325 290.534C107.325 291.155 107.161 291.715 106.833 292.213C106.505 292.711 106.057 293.104 105.488 293.391C104.92 293.678 104.275 293.821 103.555 293.821C102.822 293.821 102.169 293.678 101.595 293.391C101.026 293.104 100.581 292.711 100.259 292.213C99.9365 291.715 99.7754 291.155 99.7754 290.534C99.7754 289.79 99.9365 289.157 100.259 288.636C100.587 288.114 101.035 287.716 101.604 287.44C102.172 287.165 102.819 287.027 103.546 287.027C104.278 287.027 104.929 287.165 105.497 287.44C106.065 287.716 106.511 288.114 106.833 288.636C107.161 289.157 107.325 289.79 107.325 290.534ZM105.699 290.561C105.699 290.133 105.608 289.755 105.427 289.427C105.245 289.099 104.993 288.841 104.671 288.653C104.349 288.46 103.974 288.363 103.546 288.363C103.118 288.363 102.743 288.454 102.421 288.636C102.104 288.812 101.855 289.063 101.674 289.392C101.498 289.72 101.41 290.109 101.41 290.561C101.41 291 101.498 291.384 101.674 291.712C101.855 292.04 102.107 292.295 102.43 292.477C102.752 292.658 103.127 292.749 103.555 292.749C103.982 292.749 104.354 292.658 104.671 292.477C104.993 292.295 105.245 292.04 105.427 291.712C105.608 291.384 105.699 291 105.699 290.561ZM111.737 293.909L110.437 293.575L111.078 287.203H117.644V288.706H112.458L112.071 292.187C112.306 292.052 112.602 291.926 112.959 291.809C113.322 291.691 113.738 291.633 114.207 291.633C114.799 291.633 115.329 291.735 115.798 291.94C116.267 292.14 116.665 292.427 116.993 292.802C117.327 293.177 117.582 293.628 117.758 294.155C117.934 294.683 118.021 295.271 118.021 295.922C118.021 296.537 117.937 297.103 117.767 297.618C117.603 298.134 117.354 298.585 117.02 298.972C116.686 299.353 116.264 299.648 115.754 299.859C115.25 300.07 114.655 300.176 113.97 300.176C113.454 300.176 112.965 300.105 112.502 299.965C112.045 299.818 111.635 299.599 111.271 299.306C110.914 299.007 110.621 298.638 110.393 298.198C110.17 297.753 110.029 297.231 109.971 296.634H111.518C111.588 297.114 111.729 297.519 111.939 297.847C112.15 298.175 112.426 298.424 112.766 298.594C113.111 298.758 113.513 298.84 113.97 298.84C114.356 298.84 114.699 298.772 114.998 298.638C115.297 298.503 115.549 298.31 115.754 298.058C115.959 297.806 116.114 297.501 116.22 297.144C116.331 296.786 116.387 296.385 116.387 295.939C116.387 295.535 116.331 295.16 116.22 294.814C116.108 294.469 115.941 294.167 115.719 293.909C115.502 293.651 115.235 293.452 114.919 293.312C114.603 293.165 114.239 293.092 113.829 293.092C113.284 293.092 112.871 293.165 112.59 293.312C112.314 293.458 112.03 293.657 111.737 293.909ZM128.076 287.203V288.117L122.776 300H121.062L126.354 288.539H119.428V287.203H128.076ZM131.987 293.909L130.687 293.575L131.328 287.203H137.894V288.706H132.708L132.321 292.187C132.556 292.052 132.852 291.926 133.209 291.809C133.572 291.691 133.988 291.633 134.457 291.633C135.049 291.633 135.579 291.735 136.048 291.94C136.517 292.14 136.915 292.427 137.243 292.802C137.577 293.177 137.832 293.628 138.008 294.155C138.184 294.683 138.271 295.271 138.271 295.922C138.271 296.537 138.187 297.103 138.017 297.618C137.853 298.134 137.604 298.585 137.27 298.972C136.936 299.353 136.514 299.648 136.004 299.859C135.5 300.07 134.905 300.176 134.22 300.176C133.704 300.176 133.215 300.105 132.752 299.965C132.295 299.818 131.885 299.599 131.521 299.306C131.164 299.007 130.871 298.638 130.643 298.198C130.42 297.753 130.279 297.231 130.221 296.634H131.768C131.838 297.114 131.979 297.519 132.189 297.847C132.4 298.175 132.676 298.424 133.016 298.594C133.361 298.758 133.763 298.84 134.22 298.84C134.606 298.84 134.949 298.772 135.248 298.638C135.547 298.503 135.799 298.31 136.004 298.058C136.209 297.806 136.364 297.501 136.47 297.144C136.581 296.786 136.637 296.385 136.637 295.939C136.637 295.535 136.581 295.16 136.47 294.814C136.358 294.469 136.191 294.167 135.969 293.909C135.752 293.651 135.485 293.452 135.169 293.312C134.853 293.165 134.489 293.092 134.079 293.092C133.534 293.092 133.121 293.165 132.84 293.312C132.564 293.458 132.28 293.657 131.987 293.909ZM141.708 298.066V299.376C141.708 299.909 141.573 300.472 141.304 301.063C141.034 301.661 140.656 302.159 140.17 302.558L139.247 301.916C139.435 301.658 139.593 301.395 139.722 301.125C139.851 300.861 139.947 300.586 140.012 300.299C140.082 300.018 140.117 299.719 140.117 299.402V298.066H141.708ZM156.104 292.582V294.533C156.104 295.582 156.011 296.467 155.823 297.188C155.636 297.908 155.366 298.488 155.015 298.928C154.663 299.367 154.238 299.687 153.74 299.886C153.248 300.079 152.691 300.176 152.07 300.176C151.578 300.176 151.124 300.114 150.708 299.991C150.292 299.868 149.917 299.672 149.583 299.402C149.255 299.127 148.974 298.77 148.739 298.33C148.505 297.891 148.326 297.357 148.203 296.73C148.08 296.104 148.019 295.371 148.019 294.533V292.582C148.019 291.533 148.112 290.654 148.3 289.945C148.493 289.236 148.766 288.668 149.117 288.24C149.469 287.807 149.891 287.496 150.383 287.309C150.881 287.121 151.438 287.027 152.053 287.027C152.551 287.027 153.008 287.089 153.424 287.212C153.846 287.329 154.221 287.52 154.549 287.783C154.877 288.041 155.155 288.387 155.384 288.82C155.618 289.248 155.797 289.772 155.92 290.394C156.043 291.015 156.104 291.744 156.104 292.582ZM154.47 294.797V292.31C154.47 291.735 154.435 291.231 154.364 290.798C154.3 290.358 154.203 289.983 154.074 289.673C153.945 289.362 153.781 289.11 153.582 288.917C153.389 288.724 153.163 288.583 152.905 288.495C152.653 288.401 152.369 288.354 152.053 288.354C151.666 288.354 151.323 288.428 151.024 288.574C150.726 288.715 150.474 288.94 150.269 289.251C150.069 289.562 149.917 289.969 149.812 290.473C149.706 290.977 149.653 291.589 149.653 292.31V294.797C149.653 295.371 149.686 295.878 149.75 296.317C149.82 296.757 149.923 297.138 150.058 297.46C150.192 297.776 150.356 298.037 150.55 298.242C150.743 298.447 150.966 298.6 151.218 298.699C151.476 298.793 151.76 298.84 152.07 298.84C152.469 298.84 152.817 298.764 153.116 298.611C153.415 298.459 153.664 298.222 153.863 297.899C154.068 297.571 154.221 297.152 154.32 296.643C154.42 296.127 154.47 295.512 154.47 294.797ZM159.813 298.638H159.98C160.918 298.638 161.68 298.506 162.266 298.242C162.852 297.979 163.303 297.624 163.619 297.179C163.936 296.733 164.152 296.232 164.27 295.676C164.387 295.113 164.445 294.536 164.445 293.944V291.984C164.445 291.404 164.378 290.889 164.243 290.438C164.114 289.986 163.933 289.608 163.698 289.304C163.47 288.999 163.209 288.768 162.916 288.609C162.623 288.451 162.312 288.372 161.984 288.372C161.609 288.372 161.272 288.448 160.974 288.601C160.681 288.747 160.432 288.955 160.227 289.225C160.027 289.494 159.875 289.811 159.77 290.174C159.664 290.537 159.611 290.933 159.611 291.36C159.611 291.741 159.658 292.11 159.752 292.468C159.846 292.825 159.989 293.147 160.183 293.435C160.376 293.722 160.616 293.95 160.903 294.12C161.196 294.284 161.539 294.366 161.932 294.366C162.295 294.366 162.635 294.296 162.951 294.155C163.273 294.009 163.558 293.812 163.804 293.566C164.056 293.314 164.255 293.03 164.401 292.714C164.554 292.397 164.642 292.066 164.665 291.721H165.438C165.438 292.207 165.342 292.688 165.148 293.162C164.961 293.631 164.697 294.059 164.357 294.445C164.018 294.832 163.619 295.143 163.162 295.377C162.705 295.605 162.207 295.72 161.668 295.72C161.035 295.72 160.487 295.597 160.024 295.351C159.562 295.104 159.181 294.776 158.882 294.366C158.589 293.956 158.369 293.499 158.223 292.995C158.082 292.485 158.012 291.97 158.012 291.448C158.012 290.839 158.097 290.268 158.267 289.734C158.437 289.201 158.688 288.732 159.022 288.328C159.356 287.918 159.77 287.599 160.262 287.37C160.76 287.142 161.334 287.027 161.984 287.027C162.717 287.027 163.341 287.174 163.856 287.467C164.372 287.76 164.791 288.152 165.113 288.645C165.441 289.137 165.682 289.69 165.834 290.306C165.986 290.921 166.062 291.554 166.062 292.204V292.793C166.062 293.455 166.019 294.129 165.931 294.814C165.849 295.494 165.688 296.145 165.447 296.766C165.213 297.387 164.87 297.943 164.419 298.436C163.968 298.922 163.379 299.309 162.652 299.596C161.932 299.877 161.041 300.018 159.98 300.018H159.813V298.638ZM176.354 292.582V294.533C176.354 295.582 176.261 296.467 176.073 297.188C175.886 297.908 175.616 298.488 175.265 298.928C174.913 299.367 174.488 299.687 173.99 299.886C173.498 300.079 172.941 300.176 172.32 300.176C171.828 300.176 171.374 300.114 170.958 299.991C170.542 299.868 170.167 299.672 169.833 299.402C169.505 299.127 169.224 298.77 168.989 298.33C168.755 297.891 168.576 297.357 168.453 296.73C168.33 296.104 168.269 295.371 168.269 294.533V292.582C168.269 291.533 168.362 290.654 168.55 289.945C168.743 289.236 169.016 288.668 169.367 288.24C169.719 287.807 170.141 287.496 170.633 287.309C171.131 287.121 171.688 287.027 172.303 287.027C172.801 287.027 173.258 287.089 173.674 287.212C174.096 287.329 174.471 287.52 174.799 287.783C175.127 288.041 175.405 288.387 175.634 288.82C175.868 289.248 176.047 289.772 176.17 290.394C176.293 291.015 176.354 291.744 176.354 292.582ZM174.72 294.797V292.31C174.72 291.735 174.685 291.231 174.614 290.798C174.55 290.358 174.453 289.983 174.324 289.673C174.195 289.362 174.031 289.11 173.832 288.917C173.639 288.724 173.413 288.583 173.155 288.495C172.903 288.401 172.619 288.354 172.303 288.354C171.916 288.354 171.573 288.428 171.274 288.574C170.976 288.715 170.724 288.94 170.519 289.251C170.319 289.562 170.167 289.969 170.062 290.473C169.956 290.977 169.903 291.589 169.903 292.31V294.797C169.903 295.371 169.936 295.878 170 296.317C170.07 296.757 170.173 297.138 170.308 297.46C170.442 297.776 170.606 298.037 170.8 298.242C170.993 298.447 171.216 298.6 171.468 298.699C171.726 298.793 172.01 298.84 172.32 298.84C172.719 298.84 173.067 298.764 173.366 298.611C173.665 298.459 173.914 298.222 174.113 297.899C174.318 297.571 174.471 297.152 174.57 296.643C174.67 296.127 174.72 295.512 174.72 294.797ZM180.503 293.909L179.202 293.575L179.844 287.203H186.409V288.706H181.224L180.837 292.187C181.071 292.052 181.367 291.926 181.725 291.809C182.088 291.691 182.504 291.633 182.973 291.633C183.564 291.633 184.095 291.735 184.563 291.94C185.032 292.14 185.431 292.427 185.759 292.802C186.093 293.177 186.348 293.628 186.523 294.155C186.699 294.683 186.787 295.271 186.787 295.922C186.787 296.537 186.702 297.103 186.532 297.618C186.368 298.134 186.119 298.585 185.785 298.972C185.451 299.353 185.029 299.648 184.52 299.859C184.016 300.07 183.421 300.176 182.735 300.176C182.22 300.176 181.73 300.105 181.268 299.965C180.811 299.818 180.4 299.599 180.037 299.306C179.68 299.007 179.387 298.638 179.158 298.198C178.936 297.753 178.795 297.231 178.736 296.634H180.283C180.354 297.114 180.494 297.519 180.705 297.847C180.916 298.175 181.191 298.424 181.531 298.594C181.877 298.758 182.278 298.84 182.735 298.84C183.122 298.84 183.465 298.772 183.764 298.638C184.062 298.503 184.314 298.31 184.52 298.058C184.725 297.806 184.88 297.501 184.985 297.144C185.097 296.786 185.152 296.385 185.152 295.939C185.152 295.535 185.097 295.16 184.985 294.814C184.874 294.469 184.707 294.167 184.484 293.909C184.268 293.651 184.001 293.452 183.685 293.312C183.368 293.165 183.005 293.092 182.595 293.092C182.05 293.092 181.637 293.165 181.355 293.312C181.08 293.458 180.796 293.657 180.503 293.909ZM196.64 296.537C196.64 297.316 196.458 297.979 196.095 298.523C195.737 299.062 195.251 299.473 194.636 299.754C194.026 300.035 193.338 300.176 192.57 300.176C191.803 300.176 191.111 300.035 190.496 299.754C189.881 299.473 189.395 299.062 189.037 298.523C188.68 297.979 188.501 297.316 188.501 296.537C188.501 296.027 188.598 295.562 188.791 295.14C188.99 294.712 189.269 294.34 189.626 294.023C189.989 293.707 190.417 293.464 190.909 293.294C191.407 293.118 191.955 293.03 192.553 293.03C193.338 293.03 194.038 293.183 194.653 293.487C195.269 293.786 195.752 294.199 196.104 294.727C196.461 295.254 196.64 295.857 196.64 296.537ZM195.005 296.502C195.005 296.027 194.902 295.608 194.697 295.245C194.492 294.876 194.205 294.589 193.836 294.384C193.467 294.179 193.039 294.076 192.553 294.076C192.055 294.076 191.624 294.179 191.261 294.384C190.903 294.589 190.625 294.876 190.426 295.245C190.227 295.608 190.127 296.027 190.127 296.502C190.127 296.994 190.224 297.416 190.417 297.768C190.616 298.113 190.897 298.38 191.261 298.567C191.63 298.749 192.066 298.84 192.57 298.84C193.074 298.84 193.508 298.749 193.871 298.567C194.234 298.38 194.513 298.113 194.706 297.768C194.905 297.416 195.005 296.994 195.005 296.502ZM196.341 290.534C196.341 291.155 196.177 291.715 195.849 292.213C195.521 292.711 195.072 293.104 194.504 293.391C193.936 293.678 193.291 293.821 192.57 293.821C191.838 293.821 191.185 293.678 190.61 293.391C190.042 293.104 189.597 292.711 189.274 292.213C188.952 291.715 188.791 291.155 188.791 290.534C188.791 289.79 188.952 289.157 189.274 288.636C189.603 288.114 190.051 287.716 190.619 287.44C191.188 287.165 191.835 287.027 192.562 287.027C193.294 287.027 193.944 287.165 194.513 287.44C195.081 287.716 195.526 288.114 195.849 288.636C196.177 289.157 196.341 289.79 196.341 290.534ZM194.715 290.561C194.715 290.133 194.624 289.755 194.442 289.427C194.261 289.099 194.009 288.841 193.687 288.653C193.364 288.46 192.989 288.363 192.562 288.363C192.134 288.363 191.759 288.454 191.437 288.636C191.12 288.812 190.871 289.063 190.689 289.392C190.514 289.72 190.426 290.109 190.426 290.561C190.426 291 190.514 291.384 190.689 291.712C190.871 292.04 191.123 292.295 191.445 292.477C191.768 292.658 192.143 292.749 192.57 292.749C192.998 292.749 193.37 292.658 193.687 292.477C194.009 292.295 194.261 292.04 194.442 291.712C194.624 291.384 194.715 291 194.715 290.561ZM200.753 293.909L199.452 293.575L200.094 287.203H206.659V288.706H201.474L201.087 292.187C201.321 292.052 201.617 291.926 201.975 291.809C202.338 291.691 202.754 291.633 203.223 291.633C203.814 291.633 204.345 291.735 204.813 291.94C205.282 292.14 205.681 292.427 206.009 292.802C206.343 293.177 206.598 293.628 206.773 294.155C206.949 294.683 207.037 295.271 207.037 295.922C207.037 296.537 206.952 297.103 206.782 297.618C206.618 298.134 206.369 298.585 206.035 298.972C205.701 299.353 205.279 299.648 204.77 299.859C204.266 300.07 203.671 300.176 202.985 300.176C202.47 300.176 201.98 300.105 201.518 299.965C201.061 299.818 200.65 299.599 200.287 299.306C199.93 299.007 199.637 298.638 199.408 298.198C199.186 297.753 199.045 297.231 198.986 296.634H200.533C200.604 297.114 200.744 297.519 200.955 297.847C201.166 298.175 201.441 298.424 201.781 298.594C202.127 298.758 202.528 298.84 202.985 298.84C203.372 298.84 203.715 298.772 204.014 298.638C204.312 298.503 204.564 298.31 204.77 298.058C204.975 297.806 205.13 297.501 205.235 297.144C205.347 296.786 205.402 296.385 205.402 295.939C205.402 295.535 205.347 295.16 205.235 294.814C205.124 294.469 204.957 294.167 204.734 293.909C204.518 293.651 204.251 293.452 203.935 293.312C203.618 293.165 203.255 293.092 202.845 293.092C202.3 293.092 201.887 293.165 201.605 293.312C201.33 293.458 201.046 293.657 200.753 293.909ZM211.194 292.802H212.354C212.923 292.802 213.392 292.708 213.761 292.521C214.136 292.327 214.414 292.066 214.596 291.738C214.783 291.404 214.877 291.029 214.877 290.613C214.877 290.121 214.795 289.708 214.631 289.374C214.467 289.04 214.221 288.788 213.893 288.618C213.564 288.448 213.148 288.363 212.645 288.363C212.188 288.363 211.783 288.454 211.432 288.636C211.086 288.812 210.813 289.063 210.614 289.392C210.421 289.72 210.324 290.106 210.324 290.552H208.698C208.698 289.901 208.862 289.31 209.19 288.776C209.519 288.243 209.979 287.818 210.57 287.502C211.168 287.186 211.859 287.027 212.645 287.027C213.418 287.027 214.095 287.165 214.675 287.44C215.255 287.71 215.706 288.114 216.028 288.653C216.351 289.187 216.512 289.852 216.512 290.648C216.512 290.971 216.436 291.316 216.283 291.686C216.137 292.049 215.905 292.389 215.589 292.705C215.278 293.021 214.874 293.282 214.376 293.487C213.878 293.687 213.28 293.786 212.583 293.786H211.194V292.802ZM211.194 294.138V293.162H212.583C213.397 293.162 214.071 293.259 214.604 293.452C215.138 293.646 215.557 293.903 215.861 294.226C216.172 294.548 216.389 294.902 216.512 295.289C216.641 295.67 216.705 296.051 216.705 296.432C216.705 297.029 216.603 297.56 216.397 298.022C216.198 298.485 215.914 298.878 215.545 299.2C215.182 299.522 214.754 299.766 214.262 299.93C213.77 300.094 213.233 300.176 212.653 300.176C212.097 300.176 211.572 300.097 211.08 299.938C210.594 299.78 210.163 299.552 209.788 299.253C209.413 298.948 209.12 298.576 208.909 298.137C208.698 297.691 208.593 297.185 208.593 296.616H210.219C210.219 297.062 210.315 297.451 210.509 297.785C210.708 298.119 210.989 298.38 211.353 298.567C211.722 298.749 212.155 298.84 212.653 298.84C213.151 298.84 213.579 298.755 213.937 298.585C214.3 298.409 214.578 298.146 214.771 297.794C214.971 297.442 215.07 297 215.07 296.467C215.07 295.934 214.959 295.497 214.736 295.157C214.514 294.812 214.197 294.557 213.787 294.393C213.383 294.223 212.905 294.138 212.354 294.138H211.194ZM226.979 292.582V294.533C226.979 295.582 226.886 296.467 226.698 297.188C226.511 297.908 226.241 298.488 225.89 298.928C225.538 299.367 225.113 299.687 224.615 299.886C224.123 300.079 223.566 300.176 222.945 300.176C222.453 300.176 221.999 300.114 221.583 299.991C221.167 299.868 220.792 299.672 220.458 299.402C220.13 299.127 219.849 298.77 219.614 298.33C219.38 297.891 219.201 297.357 219.078 296.73C218.955 296.104 218.894 295.371 218.894 294.533V292.582C218.894 291.533 218.987 290.654 219.175 289.945C219.368 289.236 219.641 288.668 219.992 288.24C220.344 287.807 220.766 287.496 221.258 287.309C221.756 287.121 222.312 287.027 222.928 287.027C223.426 287.027 223.883 287.089 224.299 287.212C224.721 287.329 225.096 287.52 225.424 287.783C225.752 288.041 226.03 288.387 226.259 288.82C226.493 289.248 226.672 289.772 226.795 290.394C226.918 291.015 226.979 291.744 226.979 292.582ZM225.345 294.797V292.31C225.345 291.735 225.31 291.231 225.239 290.798C225.175 290.358 225.078 289.983 224.949 289.673C224.82 289.362 224.656 289.11 224.457 288.917C224.264 288.724 224.038 288.583 223.78 288.495C223.528 288.401 223.244 288.354 222.928 288.354C222.541 288.354 222.198 288.428 221.899 288.574C221.601 288.715 221.349 288.94 221.144 289.251C220.944 289.562 220.792 289.969 220.687 290.473C220.581 290.977 220.528 291.589 220.528 292.31V294.797C220.528 295.371 220.561 295.878 220.625 296.317C220.695 296.757 220.798 297.138 220.933 297.46C221.067 297.776 221.231 298.037 221.425 298.242C221.618 298.447 221.841 298.6 222.093 298.699C222.351 298.793 222.635 298.84 222.945 298.84C223.344 298.84 223.692 298.764 223.991 298.611C224.29 298.459 224.539 298.222 224.738 297.899C224.943 297.571 225.096 297.152 225.195 296.643C225.295 296.127 225.345 295.512 225.345 294.797ZM231.444 292.802H232.604C233.173 292.802 233.642 292.708 234.011 292.521C234.386 292.327 234.664 292.066 234.846 291.738C235.033 291.404 235.127 291.029 235.127 290.613C235.127 290.121 235.045 289.708 234.881 289.374C234.717 289.04 234.471 288.788 234.143 288.618C233.814 288.448 233.398 288.363 232.895 288.363C232.438 288.363 232.033 288.454 231.682 288.636C231.336 288.812 231.063 289.063 230.864 289.392C230.671 289.72 230.574 290.106 230.574 290.552H228.948C228.948 289.901 229.112 289.31 229.44 288.776C229.769 288.243 230.229 287.818 230.82 287.502C231.418 287.186 232.109 287.027 232.895 287.027C233.668 287.027 234.345 287.165 234.925 287.44C235.505 287.71 235.956 288.114 236.278 288.653C236.601 289.187 236.762 289.852 236.762 290.648C236.762 290.971 236.686 291.316 236.533 291.686C236.387 292.049 236.155 292.389 235.839 292.705C235.528 293.021 235.124 293.282 234.626 293.487C234.128 293.687 233.53 293.786 232.833 293.786H231.444V292.802ZM231.444 294.138V293.162H232.833C233.647 293.162 234.321 293.259 234.854 293.452C235.388 293.646 235.807 293.903 236.111 294.226C236.422 294.548 236.639 294.902 236.762 295.289C236.891 295.67 236.955 296.051 236.955 296.432C236.955 297.029 236.853 297.56 236.647 298.022C236.448 298.485 236.164 298.878 235.795 299.2C235.432 299.522 235.004 299.766 234.512 299.93C234.02 300.094 233.483 300.176 232.903 300.176C232.347 300.176 231.822 300.097 231.33 299.938C230.844 299.78 230.413 299.552 230.038 299.253C229.663 298.948 229.37 298.576 229.159 298.137C228.948 297.691 228.843 297.185 228.843 296.616H230.469C230.469 297.062 230.565 297.451 230.759 297.785C230.958 298.119 231.239 298.38 231.603 298.567C231.972 298.749 232.405 298.84 232.903 298.84C233.401 298.84 233.829 298.755 234.187 298.585C234.55 298.409 234.828 298.146 235.021 297.794C235.221 297.442 235.32 297 235.32 296.467C235.32 295.934 235.209 295.497 234.986 295.157C234.764 294.812 234.447 294.557 234.037 294.393C233.633 294.223 233.155 294.138 232.604 294.138H231.444ZM241.253 293.909L239.952 293.575L240.594 287.203H247.159V288.706H241.974L241.587 292.187C241.821 292.052 242.117 291.926 242.475 291.809C242.838 291.691 243.254 291.633 243.723 291.633C244.314 291.633 244.845 291.735 245.313 291.94C245.782 292.14 246.181 292.427 246.509 292.802C246.843 293.177 247.098 293.628 247.273 294.155C247.449 294.683 247.537 295.271 247.537 295.922C247.537 296.537 247.452 297.103 247.282 297.618C247.118 298.134 246.869 298.585 246.535 298.972C246.201 299.353 245.779 299.648 245.27 299.859C244.766 300.07 244.171 300.176 243.485 300.176C242.97 300.176 242.48 300.105 242.018 299.965C241.561 299.818 241.15 299.599 240.787 299.306C240.43 299.007 240.137 298.638 239.908 298.198C239.686 297.753 239.545 297.231 239.486 296.634H241.033C241.104 297.114 241.244 297.519 241.455 297.847C241.666 298.175 241.941 298.424 242.281 298.594C242.627 298.758 243.028 298.84 243.485 298.84C243.872 298.84 244.215 298.772 244.514 298.638C244.812 298.503 245.064 298.31 245.27 298.058C245.475 297.806 245.63 297.501 245.735 297.144C245.847 296.786 245.902 296.385 245.902 295.939C245.902 295.535 245.847 295.16 245.735 294.814C245.624 294.469 245.457 294.167 245.234 293.909C245.018 293.651 244.751 293.452 244.435 293.312C244.118 293.165 243.755 293.092 243.345 293.092C242.8 293.092 242.387 293.165 242.105 293.312C241.83 293.458 241.546 293.657 241.253 293.909ZM254.665 287.133V300H253.039V289.163L249.761 290.358V288.891L254.41 287.133H254.665Z" fill="black"/>
<circle cx="142.5" cy="95" r="95" fill="white"/>
<path d="M114.682 130V121.882H121.155L129.144 95.1956C129.684 93.4368 130.679 92.0324 132.13 90.9825C133.581 89.9326 135.181 89.4091 136.932 89.4118H149.068C150.821 89.4118 152.423 89.9367 153.874 90.9866C155.325 92.0365 156.319 93.4395 156.856 95.1956L164.845 121.882H171.318V130H114.682ZM138.955 81.2941V61H147.045V81.2941H138.955ZM163.025 91.3397L157.26 85.5559L171.622 71.2485L177.285 76.9309L163.025 91.3397ZM167.273 109.706V101.588H187.5V109.706H167.273ZM122.975 91.3397L108.715 76.9309L114.378 71.2485L128.74 85.5559L122.975 91.3397ZM98.5 109.706V101.588H118.727V109.706H98.5Z" fill="#FF0000"/>
</g>
<defs>
<filter id="filter0_d_38_2708" x="0.5" y="0" width="284" height="365" filterUnits="userSpaceOnUse" color-interpolation-filters="sRGB">
<feFlood flood-opacity="0" result="BackgroundImageFix"/>
<feColorMatrix in="SourceAlpha" type="matrix" values="0 0 0 0 0 0 0 0 0 0 0 0 0 0 0 0 0 0 127 0" result="hardAlpha"/>
<feOffset dy="4"/>
<feGaussianBlur stdDeviation="2"/>
<feComposite in2="hardAlpha" operator="out"/>
<feColorMatrix type="matrix" values="0 0 0 0 0 0 0 0 0 0 0 0 0 0 0 0 0 0 0.25 0"/>
<feBlend mode="normal" in2="BackgroundImageFix" result="effect1_dropShadow_38_2708"/>
<feBlend mode="normal" in="SourceGraphic" in2="effect1_dropShadow_38_2708" result="shape"/>
</filter>
</defs>
</svg>
