<svg width="285" height="365" viewBox="0 0 285 365" fill="none" xmlns="http://www.w3.org/2000/svg">
<g filter="url(#filter0_d_38_2675)">
<rect x="4.5" y="95" width="276" height="262" rx="8" fill="white"/>
<path d="M36.6875 206.384H33.4004L33.3828 204.573H36.1426C36.6289 204.573 37.0273 204.512 37.3379 204.389C37.6484 204.26 37.8799 204.075 38.0322 203.835C38.1904 203.589 38.2695 203.29 38.2695 202.938C38.2695 202.54 38.1934 202.218 38.041 201.972C37.8945 201.726 37.6631 201.547 37.3467 201.436C37.0361 201.324 36.6348 201.269 36.1426 201.269H34.3145V212H31.6777V199.203H36.1426C36.8867 199.203 37.5518 199.273 38.1377 199.414C38.7295 199.555 39.2305 199.769 39.6406 200.056C40.0508 200.343 40.3643 200.706 40.5811 201.146C40.7979 201.579 40.9062 202.095 40.9062 202.692C40.9062 203.22 40.7861 203.706 40.5459 204.151C40.3115 204.597 39.9395 204.96 39.4297 205.241C38.9258 205.522 38.2666 205.678 37.4521 205.707L36.6875 206.384ZM36.5732 212H32.6797L33.708 209.943H36.5732C37.0361 209.943 37.4141 209.87 37.707 209.724C38 209.571 38.2168 209.366 38.3574 209.108C38.498 208.851 38.5684 208.555 38.5684 208.221C38.5684 207.846 38.5039 207.521 38.375 207.245C38.252 206.97 38.0527 206.759 37.7773 206.612C37.502 206.46 37.1387 206.384 36.6875 206.384H34.1475L34.165 204.573H37.3291L37.9355 205.285C38.7148 205.273 39.3418 205.411 39.8164 205.698C40.2969 205.979 40.6455 206.346 40.8623 206.797C41.085 207.248 41.1963 207.731 41.1963 208.247C41.1963 209.067 41.0176 209.759 40.6602 210.321C40.3027 210.878 39.7783 211.297 39.0869 211.578C38.4014 211.859 37.5635 212 36.5732 212ZM45.5469 204.564V212H43.0156V202.49H45.3975L45.5469 204.564ZM48.4121 202.429L48.3682 204.775C48.2451 204.758 48.0957 204.743 47.9199 204.731C47.75 204.714 47.5947 204.705 47.4541 204.705C47.0967 204.705 46.7861 204.752 46.5225 204.846C46.2646 204.934 46.0479 205.065 45.8721 205.241C45.7021 205.417 45.5732 205.631 45.4854 205.883C45.4033 206.135 45.3564 206.422 45.3447 206.744L44.835 206.586C44.835 205.971 44.8965 205.405 45.0195 204.89C45.1426 204.368 45.3213 203.914 45.5557 203.527C45.7959 203.141 46.0889 202.842 46.4346 202.631C46.7803 202.42 47.1758 202.314 47.6211 202.314C47.7617 202.314 47.9053 202.326 48.0518 202.35C48.1982 202.367 48.3184 202.394 48.4121 202.429ZM48.9395 207.342V207.157C48.9395 206.46 49.0391 205.818 49.2383 205.232C49.4375 204.641 49.7275 204.128 50.1084 203.694C50.4893 203.261 50.958 202.924 51.5146 202.684C52.0713 202.438 52.71 202.314 53.4307 202.314C54.1514 202.314 54.793 202.438 55.3555 202.684C55.918 202.924 56.3896 203.261 56.7705 203.694C57.1572 204.128 57.4502 204.641 57.6494 205.232C57.8486 205.818 57.9482 206.46 57.9482 207.157V207.342C57.9482 208.033 57.8486 208.675 57.6494 209.267C57.4502 209.853 57.1572 210.365 56.7705 210.805C56.3896 211.238 55.9209 211.575 55.3643 211.815C54.8076 212.056 54.1689 212.176 53.4482 212.176C52.7275 212.176 52.0859 212.056 51.5234 211.815C50.9668 211.575 50.4951 211.238 50.1084 210.805C49.7275 210.365 49.4375 209.853 49.2383 209.267C49.0391 208.675 48.9395 208.033 48.9395 207.342ZM51.4707 207.157V207.342C51.4707 207.74 51.5059 208.112 51.5762 208.458C51.6465 208.804 51.7578 209.108 51.9102 209.372C52.0684 209.63 52.2734 209.832 52.5254 209.979C52.7773 210.125 53.085 210.198 53.4482 210.198C53.7998 210.198 54.1016 210.125 54.3535 209.979C54.6055 209.832 54.8076 209.63 54.96 209.372C55.1123 209.108 55.2236 208.804 55.2939 208.458C55.3701 208.112 55.4082 207.74 55.4082 207.342V207.157C55.4082 206.771 55.3701 206.407 55.2939 206.067C55.2236 205.722 55.1094 205.417 54.9512 205.153C54.7988 204.884 54.5967 204.673 54.3447 204.521C54.0928 204.368 53.7881 204.292 53.4307 204.292C53.0732 204.292 52.7686 204.368 52.5166 204.521C52.2705 204.673 52.0684 204.884 51.9102 205.153C51.7578 205.417 51.6465 205.722 51.5762 206.067C51.5059 206.407 51.4707 206.771 51.4707 207.157ZM62.0352 198.491V212H59.5039V198.491H62.0352ZM68.0293 202.49L63.8984 207.201L61.6836 209.442L60.7607 207.614L62.5186 205.382L64.9883 202.49H68.0293ZM65.4014 212L62.5889 207.605L64.3379 206.076L68.3193 212H65.4014ZM73.3203 212.176C72.582 212.176 71.9199 212.059 71.334 211.824C70.748 211.584 70.25 211.253 69.8398 210.831C69.4355 210.409 69.125 209.92 68.9082 209.363C68.6914 208.801 68.583 208.203 68.583 207.57V207.219C68.583 206.498 68.6855 205.839 68.8906 205.241C69.0957 204.644 69.3887 204.125 69.7695 203.686C70.1562 203.246 70.625 202.909 71.1758 202.675C71.7266 202.435 72.3477 202.314 73.0391 202.314C73.7129 202.314 74.3105 202.426 74.832 202.648C75.3535 202.871 75.79 203.188 76.1416 203.598C76.499 204.008 76.7686 204.5 76.9502 205.074C77.1318 205.643 77.2227 206.275 77.2227 206.973V208.027H69.6641V206.34H74.7354V206.146C74.7354 205.795 74.6709 205.481 74.542 205.206C74.4189 204.925 74.2314 204.702 73.9795 204.538C73.7275 204.374 73.4053 204.292 73.0127 204.292C72.6787 204.292 72.3916 204.365 72.1514 204.512C71.9111 204.658 71.7148 204.863 71.5625 205.127C71.416 205.391 71.3047 205.701 71.2285 206.059C71.1582 206.41 71.123 206.797 71.123 207.219V207.57C71.123 207.951 71.1758 208.303 71.2812 208.625C71.3926 208.947 71.5479 209.226 71.7471 209.46C71.9521 209.694 72.1982 209.876 72.4854 210.005C72.7783 210.134 73.1094 210.198 73.4785 210.198C73.9355 210.198 74.3604 210.11 74.7529 209.935C75.1514 209.753 75.4941 209.48 75.7812 209.117L77.0117 210.453C76.8125 210.74 76.54 211.016 76.1943 211.279C75.8545 211.543 75.4443 211.76 74.9639 211.93C74.4834 212.094 73.9355 212.176 73.3203 212.176ZM81.1426 204.521V212H78.6113V202.49H80.9844L81.1426 204.521ZM80.7734 206.911H80.0879C80.0879 206.208 80.1787 205.575 80.3604 205.013C80.542 204.444 80.7969 203.961 81.125 203.562C81.4531 203.158 81.8428 202.851 82.2939 202.64C82.751 202.423 83.2607 202.314 83.8232 202.314C84.2686 202.314 84.6758 202.379 85.0449 202.508C85.4141 202.637 85.7305 202.842 85.9941 203.123C86.2637 203.404 86.4688 203.776 86.6094 204.239C86.7559 204.702 86.8291 205.268 86.8291 205.936V212H84.2803V205.927C84.2803 205.505 84.2217 205.177 84.1045 204.942C83.9873 204.708 83.8145 204.544 83.5859 204.45C83.3633 204.351 83.0879 204.301 82.7598 204.301C82.4199 204.301 82.124 204.368 81.8721 204.503C81.626 204.638 81.4209 204.825 81.2568 205.065C81.0986 205.3 80.9785 205.575 80.8965 205.892C80.8145 206.208 80.7734 206.548 80.7734 206.911ZM98.3779 207.438H95.1172V205.382H98.3779C98.8818 205.382 99.292 205.3 99.6084 205.136C99.9248 204.966 100.156 204.731 100.303 204.433C100.449 204.134 100.522 203.797 100.522 203.422C100.522 203.041 100.449 202.687 100.303 202.358C100.156 202.03 99.9248 201.767 99.6084 201.567C99.292 201.368 98.8818 201.269 98.3779 201.269H96.0312V212H93.3945V199.203H98.3779C99.3799 199.203 100.238 199.385 100.953 199.748C101.674 200.105 102.225 200.601 102.605 201.233C102.986 201.866 103.177 202.59 103.177 203.404C103.177 204.23 102.986 204.945 102.605 205.549C102.225 206.152 101.674 206.618 100.953 206.946C100.238 207.274 99.3799 207.438 98.3779 207.438ZM107.51 202.49V212H104.97V202.49H107.51ZM104.812 200.012C104.812 199.643 104.94 199.338 105.198 199.098C105.456 198.857 105.802 198.737 106.235 198.737C106.663 198.737 107.006 198.857 107.264 199.098C107.527 199.338 107.659 199.643 107.659 200.012C107.659 200.381 107.527 200.686 107.264 200.926C107.006 201.166 106.663 201.286 106.235 201.286C105.802 201.286 105.456 201.166 105.198 200.926C104.94 200.686 104.812 200.381 104.812 200.012ZM112.133 204.318V215.656H109.602V202.49H111.948L112.133 204.318ZM118.153 207.14V207.324C118.153 208.016 118.071 208.657 117.907 209.249C117.749 209.841 117.515 210.356 117.204 210.796C116.894 211.229 116.507 211.569 116.044 211.815C115.587 212.056 115.06 212.176 114.462 212.176C113.882 212.176 113.378 212.059 112.95 211.824C112.522 211.59 112.162 211.262 111.869 210.84C111.582 210.412 111.351 209.917 111.175 209.354C110.999 208.792 110.864 208.188 110.771 207.544V207.061C110.864 206.369 110.999 205.736 111.175 205.162C111.351 204.582 111.582 204.081 111.869 203.659C112.162 203.231 112.52 202.9 112.941 202.666C113.369 202.432 113.87 202.314 114.444 202.314C115.048 202.314 115.578 202.429 116.035 202.657C116.498 202.886 116.885 203.214 117.195 203.642C117.512 204.069 117.749 204.579 117.907 205.171C118.071 205.763 118.153 206.419 118.153 207.14ZM115.613 207.324V207.14C115.613 206.735 115.578 206.363 115.508 206.023C115.443 205.678 115.338 205.376 115.191 205.118C115.051 204.86 114.863 204.661 114.629 204.521C114.4 204.374 114.122 204.301 113.794 204.301C113.448 204.301 113.152 204.356 112.906 204.468C112.666 204.579 112.47 204.74 112.317 204.951C112.165 205.162 112.051 205.414 111.975 205.707C111.898 206 111.852 206.331 111.834 206.7V207.922C111.863 208.355 111.945 208.745 112.08 209.091C112.215 209.431 112.423 209.7 112.704 209.899C112.985 210.099 113.354 210.198 113.812 210.198C114.146 210.198 114.427 210.125 114.655 209.979C114.884 209.826 115.068 209.618 115.209 209.354C115.355 209.091 115.458 208.786 115.517 208.44C115.581 208.095 115.613 207.723 115.613 207.324ZM124.104 212.176C123.365 212.176 122.703 212.059 122.117 211.824C121.531 211.584 121.033 211.253 120.623 210.831C120.219 210.409 119.908 209.92 119.691 209.363C119.475 208.801 119.366 208.203 119.366 207.57V207.219C119.366 206.498 119.469 205.839 119.674 205.241C119.879 204.644 120.172 204.125 120.553 203.686C120.939 203.246 121.408 202.909 121.959 202.675C122.51 202.435 123.131 202.314 123.822 202.314C124.496 202.314 125.094 202.426 125.615 202.648C126.137 202.871 126.573 203.188 126.925 203.598C127.282 204.008 127.552 204.5 127.733 205.074C127.915 205.643 128.006 206.275 128.006 206.973V208.027H120.447V206.34H125.519V206.146C125.519 205.795 125.454 205.481 125.325 205.206C125.202 204.925 125.015 204.702 124.763 204.538C124.511 204.374 124.188 204.292 123.796 204.292C123.462 204.292 123.175 204.365 122.935 204.512C122.694 204.658 122.498 204.863 122.346 205.127C122.199 205.391 122.088 205.701 122.012 206.059C121.941 206.41 121.906 206.797 121.906 207.219V207.57C121.906 207.951 121.959 208.303 122.064 208.625C122.176 208.947 122.331 209.226 122.53 209.46C122.735 209.694 122.981 209.876 123.269 210.005C123.562 210.134 123.893 210.198 124.262 210.198C124.719 210.198 125.144 210.11 125.536 209.935C125.935 209.753 126.277 209.48 126.564 209.117L127.795 210.453C127.596 210.74 127.323 211.016 126.978 211.279C126.638 211.543 126.228 211.76 125.747 211.93C125.267 212.094 124.719 212.176 124.104 212.176ZM134.914 199.203L130.221 213.099H128.34L133.033 199.203H134.914ZM139.37 209.97L141.919 199.203H143.343L143.668 200.996L140.952 212H139.423L139.37 209.97ZM138.061 199.203L140.17 209.97L139.994 212H138.289L135.45 199.203H138.061ZM145.909 209.926L147.992 199.203H150.603L147.772 212H146.067L145.909 209.926ZM144.143 199.203L146.709 210.014L146.639 212H145.109L142.376 200.987L142.728 199.203H144.143ZM156.711 209.855V205.619C156.711 205.314 156.661 205.054 156.562 204.837C156.462 204.614 156.307 204.441 156.096 204.318C155.891 204.195 155.624 204.134 155.296 204.134C155.015 204.134 154.771 204.184 154.566 204.283C154.361 204.377 154.203 204.515 154.092 204.696C153.98 204.872 153.925 205.08 153.925 205.32H151.394C151.394 204.916 151.487 204.532 151.675 204.169C151.862 203.806 152.135 203.486 152.492 203.211C152.85 202.93 153.274 202.71 153.767 202.552C154.265 202.394 154.821 202.314 155.437 202.314C156.175 202.314 156.831 202.438 157.405 202.684C157.979 202.93 158.431 203.299 158.759 203.791C159.093 204.283 159.26 204.898 159.26 205.637V209.706C159.26 210.228 159.292 210.655 159.356 210.989C159.421 211.317 159.515 211.604 159.638 211.851V212H157.08C156.957 211.742 156.863 211.42 156.799 211.033C156.74 210.641 156.711 210.248 156.711 209.855ZM157.045 206.208L157.062 207.641H155.647C155.313 207.641 155.023 207.679 154.777 207.755C154.531 207.831 154.329 207.939 154.171 208.08C154.013 208.215 153.896 208.373 153.819 208.555C153.749 208.736 153.714 208.936 153.714 209.152C153.714 209.369 153.764 209.565 153.863 209.741C153.963 209.911 154.106 210.046 154.294 210.146C154.481 210.239 154.701 210.286 154.953 210.286C155.334 210.286 155.665 210.21 155.946 210.058C156.228 209.905 156.444 209.718 156.597 209.495C156.755 209.272 156.837 209.062 156.843 208.862L157.511 209.935C157.417 210.175 157.288 210.424 157.124 210.682C156.966 210.939 156.764 211.183 156.518 211.411C156.271 211.634 155.976 211.818 155.63 211.965C155.284 212.105 154.874 212.176 154.399 212.176C153.796 212.176 153.248 212.056 152.756 211.815C152.27 211.569 151.883 211.232 151.596 210.805C151.314 210.371 151.174 209.879 151.174 209.328C151.174 208.83 151.268 208.388 151.455 208.001C151.643 207.614 151.918 207.289 152.281 207.025C152.65 206.756 153.11 206.554 153.661 206.419C154.212 206.278 154.851 206.208 155.577 206.208H157.045ZM165.869 202.49V204.283H160.332V202.49H165.869ZM161.703 200.144H164.234V209.135C164.234 209.41 164.27 209.621 164.34 209.768C164.416 209.914 164.527 210.017 164.674 210.075C164.82 210.128 165.005 210.154 165.228 210.154C165.386 210.154 165.526 210.148 165.649 210.137C165.778 210.119 165.887 210.102 165.975 210.084L165.983 211.947C165.767 212.018 165.532 212.073 165.28 212.114C165.028 212.155 164.75 212.176 164.445 212.176C163.889 212.176 163.402 212.085 162.986 211.903C162.576 211.716 162.26 211.417 162.037 211.007C161.814 210.597 161.703 210.058 161.703 209.39V200.144ZM171.688 212.176C170.949 212.176 170.287 212.059 169.701 211.824C169.115 211.584 168.617 211.253 168.207 210.831C167.803 210.409 167.492 209.92 167.275 209.363C167.059 208.801 166.95 208.203 166.95 207.57V207.219C166.95 206.498 167.053 205.839 167.258 205.241C167.463 204.644 167.756 204.125 168.137 203.686C168.523 203.246 168.992 202.909 169.543 202.675C170.094 202.435 170.715 202.314 171.406 202.314C172.08 202.314 172.678 202.426 173.199 202.648C173.721 202.871 174.157 203.188 174.509 203.598C174.866 204.008 175.136 204.5 175.317 205.074C175.499 205.643 175.59 206.275 175.59 206.973V208.027H168.031V206.34H173.103V206.146C173.103 205.795 173.038 205.481 172.909 205.206C172.786 204.925 172.599 204.702 172.347 204.538C172.095 204.374 171.772 204.292 171.38 204.292C171.046 204.292 170.759 204.365 170.519 204.512C170.278 204.658 170.082 204.863 169.93 205.127C169.783 205.391 169.672 205.701 169.596 206.059C169.525 206.41 169.49 206.797 169.49 207.219V207.57C169.49 207.951 169.543 208.303 169.648 208.625C169.76 208.947 169.915 209.226 170.114 209.46C170.319 209.694 170.565 209.876 170.853 210.005C171.146 210.134 171.477 210.198 171.846 210.198C172.303 210.198 172.728 210.11 173.12 209.935C173.519 209.753 173.861 209.48 174.148 209.117L175.379 210.453C175.18 210.74 174.907 211.016 174.562 211.279C174.222 211.543 173.812 211.76 173.331 211.93C172.851 212.094 172.303 212.176 171.688 212.176ZM179.562 204.564V212H177.031V202.49H179.413L179.562 204.564ZM182.428 202.429L182.384 204.775C182.261 204.758 182.111 204.743 181.936 204.731C181.766 204.714 181.61 204.705 181.47 204.705C181.112 204.705 180.802 204.752 180.538 204.846C180.28 204.934 180.063 205.065 179.888 205.241C179.718 205.417 179.589 205.631 179.501 205.883C179.419 206.135 179.372 206.422 179.36 206.744L178.851 206.586C178.851 205.971 178.912 205.405 179.035 204.89C179.158 204.368 179.337 203.914 179.571 203.527C179.812 203.141 180.104 202.842 180.45 202.631C180.796 202.42 181.191 202.314 181.637 202.314C181.777 202.314 181.921 202.326 182.067 202.35C182.214 202.367 182.334 202.394 182.428 202.429ZM196.49 209.943V212H190.048V209.943H196.49ZM190.9 199.203V212H188.264V199.203H190.9ZM202.221 212.176C201.482 212.176 200.82 212.059 200.234 211.824C199.648 211.584 199.15 211.253 198.74 210.831C198.336 210.409 198.025 209.92 197.809 209.363C197.592 208.801 197.483 208.203 197.483 207.57V207.219C197.483 206.498 197.586 205.839 197.791 205.241C197.996 204.644 198.289 204.125 198.67 203.686C199.057 203.246 199.525 202.909 200.076 202.675C200.627 202.435 201.248 202.314 201.939 202.314C202.613 202.314 203.211 202.426 203.732 202.648C204.254 202.871 204.69 203.188 205.042 203.598C205.399 204.008 205.669 204.5 205.851 205.074C206.032 205.643 206.123 206.275 206.123 206.973V208.027H198.564V206.34H203.636V206.146C203.636 205.795 203.571 205.481 203.442 205.206C203.319 204.925 203.132 204.702 202.88 204.538C202.628 204.374 202.306 204.292 201.913 204.292C201.579 204.292 201.292 204.365 201.052 204.512C200.812 204.658 200.615 204.863 200.463 205.127C200.316 205.391 200.205 205.701 200.129 206.059C200.059 206.41 200.023 206.797 200.023 207.219V207.57C200.023 207.951 200.076 208.303 200.182 208.625C200.293 208.947 200.448 209.226 200.647 209.46C200.853 209.694 201.099 209.876 201.386 210.005C201.679 210.134 202.01 210.198 202.379 210.198C202.836 210.198 203.261 210.11 203.653 209.935C204.052 209.753 204.395 209.48 204.682 209.117L205.912 210.453C205.713 210.74 205.44 211.016 205.095 211.279C204.755 211.543 204.345 211.76 203.864 211.93C203.384 212.094 202.836 212.176 202.221 212.176ZM212.697 209.855V205.619C212.697 205.314 212.647 205.054 212.548 204.837C212.448 204.614 212.293 204.441 212.082 204.318C211.877 204.195 211.61 204.134 211.282 204.134C211.001 204.134 210.758 204.184 210.553 204.283C210.348 204.377 210.189 204.515 210.078 204.696C209.967 204.872 209.911 205.08 209.911 205.32H207.38C207.38 204.916 207.474 204.532 207.661 204.169C207.849 203.806 208.121 203.486 208.479 203.211C208.836 202.93 209.261 202.71 209.753 202.552C210.251 202.394 210.808 202.314 211.423 202.314C212.161 202.314 212.817 202.438 213.392 202.684C213.966 202.93 214.417 203.299 214.745 203.791C215.079 204.283 215.246 204.898 215.246 205.637V209.706C215.246 210.228 215.278 210.655 215.343 210.989C215.407 211.317 215.501 211.604 215.624 211.851V212H213.066C212.943 211.742 212.85 211.42 212.785 211.033C212.727 210.641 212.697 210.248 212.697 209.855ZM213.031 206.208L213.049 207.641H211.634C211.3 207.641 211.01 207.679 210.764 207.755C210.518 207.831 210.315 207.939 210.157 208.08C209.999 208.215 209.882 208.373 209.806 208.555C209.735 208.736 209.7 208.936 209.7 209.152C209.7 209.369 209.75 209.565 209.85 209.741C209.949 209.911 210.093 210.046 210.28 210.146C210.468 210.239 210.688 210.286 210.939 210.286C211.32 210.286 211.651 210.21 211.933 210.058C212.214 209.905 212.431 209.718 212.583 209.495C212.741 209.272 212.823 209.062 212.829 208.862L213.497 209.935C213.403 210.175 213.274 210.424 213.11 210.682C212.952 210.939 212.75 211.183 212.504 211.411C212.258 211.634 211.962 211.818 211.616 211.965C211.271 212.105 210.86 212.176 210.386 212.176C209.782 212.176 209.234 212.056 208.742 211.815C208.256 211.569 207.869 211.232 207.582 210.805C207.301 210.371 207.16 209.879 207.16 209.328C207.16 208.83 207.254 208.388 207.441 208.001C207.629 207.614 207.904 207.289 208.268 207.025C208.637 206.756 209.097 206.554 209.647 206.419C210.198 206.278 210.837 206.208 211.563 206.208H213.031ZM219.729 198.491V212H217.197V198.491H219.729ZM225.723 202.49L221.592 207.201L219.377 209.442L218.454 207.614L220.212 205.382L222.682 202.49H225.723ZM223.095 212L220.282 207.605L222.031 206.076L226.013 212H223.095ZM231.945 209.855V205.619C231.945 205.314 231.896 205.054 231.796 204.837C231.696 204.614 231.541 204.441 231.33 204.318C231.125 204.195 230.858 204.134 230.53 204.134C230.249 204.134 230.006 204.184 229.801 204.283C229.596 204.377 229.438 204.515 229.326 204.696C229.215 204.872 229.159 205.08 229.159 205.32H226.628C226.628 204.916 226.722 204.532 226.909 204.169C227.097 203.806 227.369 203.486 227.727 203.211C228.084 202.93 228.509 202.71 229.001 202.552C229.499 202.394 230.056 202.314 230.671 202.314C231.409 202.314 232.065 202.438 232.64 202.684C233.214 202.93 233.665 203.299 233.993 203.791C234.327 204.283 234.494 204.898 234.494 205.637V209.706C234.494 210.228 234.526 210.655 234.591 210.989C234.655 211.317 234.749 211.604 234.872 211.851V212H232.314C232.191 211.742 232.098 211.42 232.033 211.033C231.975 210.641 231.945 210.248 231.945 209.855ZM232.279 206.208L232.297 207.641H230.882C230.548 207.641 230.258 207.679 230.012 207.755C229.766 207.831 229.563 207.939 229.405 208.08C229.247 208.215 229.13 208.373 229.054 208.555C228.983 208.736 228.948 208.936 228.948 209.152C228.948 209.369 228.998 209.565 229.098 209.741C229.197 209.911 229.341 210.046 229.528 210.146C229.716 210.239 229.936 210.286 230.188 210.286C230.568 210.286 230.899 210.21 231.181 210.058C231.462 209.905 231.679 209.718 231.831 209.495C231.989 209.272 232.071 209.062 232.077 208.862L232.745 209.935C232.651 210.175 232.522 210.424 232.358 210.682C232.2 210.939 231.998 211.183 231.752 211.411C231.506 211.634 231.21 211.818 230.864 211.965C230.519 212.105 230.108 212.176 229.634 212.176C229.03 212.176 228.482 212.056 227.99 211.815C227.504 211.569 227.117 211.232 226.83 210.805C226.549 210.371 226.408 209.879 226.408 209.328C226.408 208.83 226.502 208.388 226.689 208.001C226.877 207.614 227.152 207.289 227.516 207.025C227.885 206.756 228.345 206.554 228.896 206.419C229.446 206.278 230.085 206.208 230.812 206.208H232.279ZM242.466 202.49H244.76V211.684C244.76 212.551 244.566 213.286 244.18 213.89C243.799 214.499 243.266 214.959 242.58 215.27C241.895 215.586 241.098 215.744 240.189 215.744C239.791 215.744 239.369 215.691 238.924 215.586C238.484 215.48 238.062 215.316 237.658 215.094C237.26 214.871 236.926 214.59 236.656 214.25L237.772 212.756C238.065 213.096 238.405 213.359 238.792 213.547C239.179 213.74 239.606 213.837 240.075 213.837C240.532 213.837 240.919 213.752 241.235 213.582C241.552 213.418 241.795 213.175 241.965 212.853C242.135 212.536 242.22 212.152 242.22 211.701V204.688L242.466 202.49ZM236.067 207.359V207.175C236.067 206.448 236.155 205.789 236.331 205.197C236.513 204.6 236.768 204.087 237.096 203.659C237.43 203.231 237.834 202.9 238.309 202.666C238.783 202.432 239.319 202.314 239.917 202.314C240.55 202.314 241.08 202.432 241.508 202.666C241.936 202.9 242.287 203.234 242.562 203.668C242.838 204.096 243.052 204.603 243.204 205.188C243.362 205.769 243.485 206.404 243.573 207.096V207.5C243.485 208.162 243.354 208.777 243.178 209.346C243.002 209.914 242.771 210.412 242.483 210.84C242.196 211.262 241.839 211.59 241.411 211.824C240.989 212.059 240.485 212.176 239.899 212.176C239.313 212.176 238.783 212.056 238.309 211.815C237.84 211.575 237.438 211.238 237.104 210.805C236.771 210.371 236.513 209.861 236.331 209.275C236.155 208.689 236.067 208.051 236.067 207.359ZM238.599 207.175V207.359C238.599 207.752 238.637 208.118 238.713 208.458C238.789 208.798 238.906 209.1 239.064 209.363C239.229 209.621 239.431 209.823 239.671 209.97C239.917 210.11 240.207 210.181 240.541 210.181C241.004 210.181 241.382 210.084 241.675 209.891C241.968 209.691 242.188 209.419 242.334 209.073C242.48 208.728 242.565 208.329 242.589 207.878V206.727C242.577 206.357 242.527 206.026 242.439 205.733C242.352 205.435 242.229 205.18 242.07 204.969C241.912 204.758 241.707 204.594 241.455 204.477C241.203 204.359 240.904 204.301 240.559 204.301C240.225 204.301 239.935 204.377 239.688 204.529C239.448 204.676 239.246 204.878 239.082 205.136C238.924 205.394 238.804 205.698 238.722 206.05C238.64 206.396 238.599 206.771 238.599 207.175ZM251.105 212.176C250.367 212.176 249.705 212.059 249.119 211.824C248.533 211.584 248.035 211.253 247.625 210.831C247.221 210.409 246.91 209.92 246.693 209.363C246.477 208.801 246.368 208.203 246.368 207.57V207.219C246.368 206.498 246.471 205.839 246.676 205.241C246.881 204.644 247.174 204.125 247.555 203.686C247.941 203.246 248.41 202.909 248.961 202.675C249.512 202.435 250.133 202.314 250.824 202.314C251.498 202.314 252.096 202.426 252.617 202.648C253.139 202.871 253.575 203.188 253.927 203.598C254.284 204.008 254.554 204.5 254.735 205.074C254.917 205.643 255.008 206.275 255.008 206.973V208.027H247.449V206.34H252.521V206.146C252.521 205.795 252.456 205.481 252.327 205.206C252.204 204.925 252.017 204.702 251.765 204.538C251.513 204.374 251.19 204.292 250.798 204.292C250.464 204.292 250.177 204.365 249.937 204.512C249.696 204.658 249.5 204.863 249.348 205.127C249.201 205.391 249.09 205.701 249.014 206.059C248.943 206.41 248.908 206.797 248.908 207.219V207.57C248.908 207.951 248.961 208.303 249.066 208.625C249.178 208.947 249.333 209.226 249.532 209.46C249.737 209.694 249.983 209.876 250.271 210.005C250.563 210.134 250.895 210.198 251.264 210.198C251.721 210.198 252.146 210.11 252.538 209.935C252.937 209.753 253.279 209.48 253.566 209.117L254.797 210.453C254.598 210.74 254.325 211.016 253.979 211.279C253.64 211.543 253.229 211.76 252.749 211.93C252.269 212.094 251.721 212.176 251.105 212.176Z" fill="#0066CC"/>
<path d="M96.4092 240.582V242.533C96.4092 243.582 96.3154 244.467 96.1279 245.188C95.9404 245.908 95.6709 246.488 95.3193 246.928C94.9678 247.367 94.543 247.687 94.0449 247.886C93.5527 248.079 92.9961 248.176 92.375 248.176C91.8828 248.176 91.4287 248.114 91.0127 247.991C90.5967 247.868 90.2217 247.672 89.8877 247.402C89.5596 247.127 89.2783 246.77 89.0439 246.33C88.8096 245.891 88.6309 245.357 88.5078 244.73C88.3848 244.104 88.3232 243.371 88.3232 242.533V240.582C88.3232 239.533 88.417 238.654 88.6045 237.945C88.7979 237.236 89.0703 236.668 89.4219 236.24C89.7734 235.807 90.1953 235.496 90.6875 235.309C91.1855 235.121 91.7422 235.027 92.3574 235.027C92.8555 235.027 93.3125 235.089 93.7285 235.212C94.1504 235.329 94.5254 235.52 94.8535 235.783C95.1816 236.041 95.46 236.387 95.6885 236.82C95.9229 237.248 96.1016 237.772 96.2246 238.394C96.3477 239.015 96.4092 239.744 96.4092 240.582ZM94.7744 242.797V240.31C94.7744 239.735 94.7393 239.231 94.6689 238.798C94.6045 238.358 94.5078 237.983 94.3789 237.673C94.25 237.362 94.0859 237.11 93.8867 236.917C93.6934 236.724 93.4678 236.583 93.21 236.495C92.958 236.401 92.6738 236.354 92.3574 236.354C91.9707 236.354 91.6279 236.428 91.3291 236.574C91.0303 236.715 90.7783 236.94 90.5732 237.251C90.374 237.562 90.2217 237.969 90.1162 238.473C90.0107 238.977 89.958 239.589 89.958 240.31V242.797C89.958 243.371 89.9902 243.878 90.0547 244.317C90.125 244.757 90.2275 245.138 90.3623 245.46C90.4971 245.776 90.6611 246.037 90.8545 246.242C91.0479 246.447 91.2705 246.6 91.5225 246.699C91.7803 246.793 92.0645 246.84 92.375 246.84C92.7734 246.84 93.1221 246.764 93.4209 246.611C93.7197 246.459 93.9688 246.222 94.168 245.899C94.373 245.571 94.5254 245.152 94.625 244.643C94.7246 244.127 94.7744 243.512 94.7744 242.797ZM106.569 244.537C106.569 245.316 106.388 245.979 106.024 246.523C105.667 247.062 105.181 247.473 104.565 247.754C103.956 248.035 103.268 248.176 102.5 248.176C101.732 248.176 101.041 248.035 100.426 247.754C99.8105 247.473 99.3242 247.062 98.9668 246.523C98.6094 245.979 98.4307 245.316 98.4307 244.537C98.4307 244.027 98.5273 243.562 98.7207 243.14C98.9199 242.712 99.1982 242.34 99.5557 242.023C99.9189 241.707 100.347 241.464 100.839 241.294C101.337 241.118 101.885 241.03 102.482 241.03C103.268 241.03 103.968 241.183 104.583 241.487C105.198 241.786 105.682 242.199 106.033 242.727C106.391 243.254 106.569 243.857 106.569 244.537ZM104.935 244.502C104.935 244.027 104.832 243.608 104.627 243.245C104.422 242.876 104.135 242.589 103.766 242.384C103.396 242.179 102.969 242.076 102.482 242.076C101.984 242.076 101.554 242.179 101.19 242.384C100.833 242.589 100.555 242.876 100.355 243.245C100.156 243.608 100.057 244.027 100.057 244.502C100.057 244.994 100.153 245.416 100.347 245.768C100.546 246.113 100.827 246.38 101.19 246.567C101.56 246.749 101.996 246.84 102.5 246.84C103.004 246.84 103.438 246.749 103.801 246.567C104.164 246.38 104.442 246.113 104.636 245.768C104.835 245.416 104.935 244.994 104.935 244.502ZM106.271 238.534C106.271 239.155 106.106 239.715 105.778 240.213C105.45 240.711 105.002 241.104 104.434 241.391C103.865 241.678 103.221 241.821 102.5 241.821C101.768 241.821 101.114 241.678 100.54 241.391C99.9717 241.104 99.5264 240.711 99.2041 240.213C98.8818 239.715 98.7207 239.155 98.7207 238.534C98.7207 237.79 98.8818 237.157 99.2041 236.636C99.5322 236.114 99.9805 235.716 100.549 235.44C101.117 235.165 101.765 235.027 102.491 235.027C103.224 235.027 103.874 235.165 104.442 235.44C105.011 235.716 105.456 236.114 105.778 236.636C106.106 237.157 106.271 237.79 106.271 238.534ZM104.645 238.561C104.645 238.133 104.554 237.755 104.372 237.427C104.19 237.099 103.938 236.841 103.616 236.653C103.294 236.46 102.919 236.363 102.491 236.363C102.063 236.363 101.688 236.454 101.366 236.636C101.05 236.812 100.801 237.063 100.619 237.392C100.443 237.72 100.355 238.109 100.355 238.561C100.355 239 100.443 239.384 100.619 239.712C100.801 240.04 101.053 240.295 101.375 240.477C101.697 240.658 102.072 240.749 102.5 240.749C102.928 240.749 103.3 240.658 103.616 240.477C103.938 240.295 104.19 240.04 104.372 239.712C104.554 239.384 104.645 239 104.645 238.561ZM116.659 240.582V242.533C116.659 243.582 116.565 244.467 116.378 245.188C116.19 245.908 115.921 246.488 115.569 246.928C115.218 247.367 114.793 247.687 114.295 247.886C113.803 248.079 113.246 248.176 112.625 248.176C112.133 248.176 111.679 248.114 111.263 247.991C110.847 247.868 110.472 247.672 110.138 247.402C109.81 247.127 109.528 246.77 109.294 246.33C109.06 245.891 108.881 245.357 108.758 244.73C108.635 244.104 108.573 243.371 108.573 242.533V240.582C108.573 239.533 108.667 238.654 108.854 237.945C109.048 237.236 109.32 236.668 109.672 236.24C110.023 235.807 110.445 235.496 110.938 235.309C111.436 235.121 111.992 235.027 112.607 235.027C113.105 235.027 113.562 235.089 113.979 235.212C114.4 235.329 114.775 235.52 115.104 235.783C115.432 236.041 115.71 236.387 115.938 236.82C116.173 237.248 116.352 237.772 116.475 238.394C116.598 239.015 116.659 239.744 116.659 240.582ZM115.024 242.797V240.31C115.024 239.735 114.989 239.231 114.919 238.798C114.854 238.358 114.758 237.983 114.629 237.673C114.5 237.362 114.336 237.11 114.137 236.917C113.943 236.724 113.718 236.583 113.46 236.495C113.208 236.401 112.924 236.354 112.607 236.354C112.221 236.354 111.878 236.428 111.579 236.574C111.28 236.715 111.028 236.94 110.823 237.251C110.624 237.562 110.472 237.969 110.366 238.473C110.261 238.977 110.208 239.589 110.208 240.31V242.797C110.208 243.371 110.24 243.878 110.305 244.317C110.375 244.757 110.478 245.138 110.612 245.46C110.747 245.776 110.911 246.037 111.104 246.242C111.298 246.447 111.521 246.6 111.772 246.699C112.03 246.793 112.314 246.84 112.625 246.84C113.023 246.84 113.372 246.764 113.671 246.611C113.97 246.459 114.219 246.222 114.418 245.899C114.623 245.571 114.775 245.152 114.875 244.643C114.975 244.127 115.024 243.512 115.024 242.797ZM121.124 240.802H122.284C122.853 240.802 123.321 240.708 123.69 240.521C124.065 240.327 124.344 240.066 124.525 239.738C124.713 239.404 124.807 239.029 124.807 238.613C124.807 238.121 124.725 237.708 124.561 237.374C124.396 237.04 124.15 236.788 123.822 236.618C123.494 236.448 123.078 236.363 122.574 236.363C122.117 236.363 121.713 236.454 121.361 236.636C121.016 236.812 120.743 237.063 120.544 237.392C120.351 237.72 120.254 238.106 120.254 238.552H118.628C118.628 237.901 118.792 237.31 119.12 236.776C119.448 236.243 119.908 235.818 120.5 235.502C121.098 235.186 121.789 235.027 122.574 235.027C123.348 235.027 124.024 235.165 124.604 235.44C125.185 235.71 125.636 236.114 125.958 236.653C126.28 237.187 126.441 237.852 126.441 238.648C126.441 238.971 126.365 239.316 126.213 239.686C126.066 240.049 125.835 240.389 125.519 240.705C125.208 241.021 124.804 241.282 124.306 241.487C123.808 241.687 123.21 241.786 122.513 241.786H121.124V240.802ZM121.124 242.138V241.162H122.513C123.327 241.162 124.001 241.259 124.534 241.452C125.067 241.646 125.486 241.903 125.791 242.226C126.102 242.548 126.318 242.902 126.441 243.289C126.57 243.67 126.635 244.051 126.635 244.432C126.635 245.029 126.532 245.56 126.327 246.022C126.128 246.485 125.844 246.878 125.475 247.2C125.111 247.522 124.684 247.766 124.191 247.93C123.699 248.094 123.163 248.176 122.583 248.176C122.026 248.176 121.502 248.097 121.01 247.938C120.523 247.78 120.093 247.552 119.718 247.253C119.343 246.948 119.05 246.576 118.839 246.137C118.628 245.691 118.522 245.185 118.522 244.616H120.148C120.148 245.062 120.245 245.451 120.438 245.785C120.638 246.119 120.919 246.38 121.282 246.567C121.651 246.749 122.085 246.84 122.583 246.84C123.081 246.84 123.509 246.755 123.866 246.585C124.229 246.409 124.508 246.146 124.701 245.794C124.9 245.442 125 245 125 244.467C125 243.934 124.889 243.497 124.666 243.157C124.443 242.812 124.127 242.557 123.717 242.393C123.312 242.223 122.835 242.138 122.284 242.138H121.124ZM137.524 243.693V245.029H128.278V244.071L134.009 235.203H135.336L133.912 237.77L130.124 243.693H137.524ZM135.74 235.203V248H134.114V235.203H135.74ZM147.034 240.582V242.533C147.034 243.582 146.94 244.467 146.753 245.188C146.565 245.908 146.296 246.488 145.944 246.928C145.593 247.367 145.168 247.687 144.67 247.886C144.178 248.079 143.621 248.176 143 248.176C142.508 248.176 142.054 248.114 141.638 247.991C141.222 247.868 140.847 247.672 140.513 247.402C140.185 247.127 139.903 246.77 139.669 246.33C139.435 245.891 139.256 245.357 139.133 244.73C139.01 244.104 138.948 243.371 138.948 242.533V240.582C138.948 239.533 139.042 238.654 139.229 237.945C139.423 237.236 139.695 236.668 140.047 236.24C140.398 235.807 140.82 235.496 141.312 235.309C141.811 235.121 142.367 235.027 142.982 235.027C143.48 235.027 143.938 235.089 144.354 235.212C144.775 235.329 145.15 235.52 145.479 235.783C145.807 236.041 146.085 236.387 146.313 236.82C146.548 237.248 146.727 237.772 146.85 238.394C146.973 239.015 147.034 239.744 147.034 240.582ZM145.399 242.797V240.31C145.399 239.735 145.364 239.231 145.294 238.798C145.229 238.358 145.133 237.983 145.004 237.673C144.875 237.362 144.711 237.11 144.512 236.917C144.318 236.724 144.093 236.583 143.835 236.495C143.583 236.401 143.299 236.354 142.982 236.354C142.596 236.354 142.253 236.428 141.954 236.574C141.655 236.715 141.403 236.94 141.198 237.251C140.999 237.562 140.847 237.969 140.741 238.473C140.636 238.977 140.583 239.589 140.583 240.31V242.797C140.583 243.371 140.615 243.878 140.68 244.317C140.75 244.757 140.853 245.138 140.987 245.46C141.122 245.776 141.286 246.037 141.479 246.242C141.673 246.447 141.896 246.6 142.147 246.699C142.405 246.793 142.689 246.84 143 246.84C143.398 246.84 143.747 246.764 144.046 246.611C144.345 246.459 144.594 246.222 144.793 245.899C144.998 245.571 145.15 245.152 145.25 244.643C145.35 244.127 145.399 243.512 145.399 242.797ZM155.366 235.186H155.507V236.565H155.366C154.505 236.565 153.784 236.706 153.204 236.987C152.624 237.263 152.164 237.635 151.824 238.104C151.484 238.566 151.238 239.088 151.086 239.668C150.939 240.248 150.866 240.837 150.866 241.435V243.315C150.866 243.884 150.934 244.388 151.068 244.827C151.203 245.261 151.388 245.627 151.622 245.926C151.856 246.225 152.12 246.45 152.413 246.603C152.712 246.755 153.022 246.831 153.345 246.831C153.72 246.831 154.054 246.761 154.347 246.62C154.64 246.474 154.886 246.271 155.085 246.014C155.29 245.75 155.445 245.439 155.551 245.082C155.656 244.725 155.709 244.332 155.709 243.904C155.709 243.523 155.662 243.157 155.568 242.806C155.475 242.448 155.331 242.132 155.138 241.856C154.944 241.575 154.701 241.355 154.408 241.197C154.121 241.033 153.778 240.951 153.38 240.951C152.929 240.951 152.507 241.062 152.114 241.285C151.728 241.502 151.408 241.789 151.156 242.146C150.91 242.498 150.77 242.882 150.734 243.298L149.873 243.289C149.955 242.633 150.107 242.073 150.33 241.61C150.559 241.142 150.84 240.761 151.174 240.468C151.514 240.169 151.892 239.952 152.308 239.817C152.729 239.677 153.175 239.606 153.644 239.606C154.282 239.606 154.833 239.727 155.296 239.967C155.759 240.207 156.14 240.529 156.438 240.934C156.737 241.332 156.957 241.783 157.098 242.287C157.244 242.785 157.317 243.298 157.317 243.825C157.317 244.429 157.232 244.994 157.062 245.521C156.893 246.049 156.638 246.512 156.298 246.91C155.964 247.309 155.551 247.619 155.059 247.842C154.566 248.064 153.995 248.176 153.345 248.176C152.653 248.176 152.05 248.035 151.534 247.754C151.019 247.467 150.591 247.086 150.251 246.611C149.911 246.137 149.656 245.609 149.486 245.029C149.316 244.449 149.231 243.86 149.231 243.263V242.498C149.231 241.596 149.322 240.711 149.504 239.844C149.686 238.977 149.999 238.191 150.444 237.488C150.896 236.785 151.52 236.226 152.316 235.81C153.113 235.394 154.13 235.186 155.366 235.186ZM167.319 244.537C167.319 245.316 167.138 245.979 166.774 246.523C166.417 247.062 165.931 247.473 165.315 247.754C164.706 248.035 164.018 248.176 163.25 248.176C162.482 248.176 161.791 248.035 161.176 247.754C160.561 247.473 160.074 247.062 159.717 246.523C159.359 245.979 159.181 245.316 159.181 244.537C159.181 244.027 159.277 243.562 159.471 243.14C159.67 242.712 159.948 242.34 160.306 242.023C160.669 241.707 161.097 241.464 161.589 241.294C162.087 241.118 162.635 241.03 163.232 241.03C164.018 241.03 164.718 241.183 165.333 241.487C165.948 241.786 166.432 242.199 166.783 242.727C167.141 243.254 167.319 243.857 167.319 244.537ZM165.685 244.502C165.685 244.027 165.582 243.608 165.377 243.245C165.172 242.876 164.885 242.589 164.516 242.384C164.146 242.179 163.719 242.076 163.232 242.076C162.734 242.076 162.304 242.179 161.94 242.384C161.583 242.589 161.305 242.876 161.105 243.245C160.906 243.608 160.807 244.027 160.807 244.502C160.807 244.994 160.903 245.416 161.097 245.768C161.296 246.113 161.577 246.38 161.94 246.567C162.31 246.749 162.746 246.84 163.25 246.84C163.754 246.84 164.188 246.749 164.551 246.567C164.914 246.38 165.192 246.113 165.386 245.768C165.585 245.416 165.685 244.994 165.685 244.502ZM167.021 238.534C167.021 239.155 166.856 239.715 166.528 240.213C166.2 240.711 165.752 241.104 165.184 241.391C164.615 241.678 163.971 241.821 163.25 241.821C162.518 241.821 161.864 241.678 161.29 241.391C160.722 241.104 160.276 240.711 159.954 240.213C159.632 239.715 159.471 239.155 159.471 238.534C159.471 237.79 159.632 237.157 159.954 236.636C160.282 236.114 160.73 235.716 161.299 235.44C161.867 235.165 162.515 235.027 163.241 235.027C163.974 235.027 164.624 235.165 165.192 235.44C165.761 235.716 166.206 236.114 166.528 236.636C166.856 237.157 167.021 237.79 167.021 238.534ZM165.395 238.561C165.395 238.133 165.304 237.755 165.122 237.427C164.94 237.099 164.688 236.841 164.366 236.653C164.044 236.46 163.669 236.363 163.241 236.363C162.813 236.363 162.438 236.454 162.116 236.636C161.8 236.812 161.551 237.063 161.369 237.392C161.193 237.72 161.105 238.109 161.105 238.561C161.105 239 161.193 239.384 161.369 239.712C161.551 240.04 161.803 240.295 162.125 240.477C162.447 240.658 162.822 240.749 163.25 240.749C163.678 240.749 164.05 240.658 164.366 240.477C164.688 240.295 164.94 240.04 165.122 239.712C165.304 239.384 165.395 239 165.395 238.561ZM177.761 246.664V248H169.385V246.831L173.577 242.164C174.093 241.59 174.491 241.104 174.772 240.705C175.06 240.301 175.259 239.94 175.37 239.624C175.487 239.302 175.546 238.974 175.546 238.64C175.546 238.218 175.458 237.837 175.282 237.497C175.112 237.151 174.86 236.876 174.526 236.671C174.192 236.466 173.788 236.363 173.313 236.363C172.745 236.363 172.271 236.475 171.89 236.697C171.515 236.914 171.233 237.219 171.046 237.611C170.858 238.004 170.765 238.455 170.765 238.965H169.139C169.139 238.244 169.297 237.585 169.613 236.987C169.93 236.39 170.398 235.915 171.02 235.563C171.641 235.206 172.405 235.027 173.313 235.027C174.122 235.027 174.813 235.171 175.388 235.458C175.962 235.739 176.401 236.138 176.706 236.653C177.017 237.163 177.172 237.761 177.172 238.446C177.172 238.821 177.107 239.202 176.979 239.589C176.855 239.97 176.683 240.351 176.46 240.731C176.243 241.112 175.988 241.487 175.695 241.856C175.408 242.226 175.101 242.589 174.772 242.946L171.345 246.664H177.761ZM185.741 235.186H185.882V236.565H185.741C184.88 236.565 184.159 236.706 183.579 236.987C182.999 237.263 182.539 237.635 182.199 238.104C181.859 238.566 181.613 239.088 181.461 239.668C181.314 240.248 181.241 240.837 181.241 241.435V243.315C181.241 243.884 181.309 244.388 181.443 244.827C181.578 245.261 181.763 245.627 181.997 245.926C182.231 246.225 182.495 246.45 182.788 246.603C183.087 246.755 183.397 246.831 183.72 246.831C184.095 246.831 184.429 246.761 184.722 246.62C185.015 246.474 185.261 246.271 185.46 246.014C185.665 245.75 185.82 245.439 185.926 245.082C186.031 244.725 186.084 244.332 186.084 243.904C186.084 243.523 186.037 243.157 185.943 242.806C185.85 242.448 185.706 242.132 185.513 241.856C185.319 241.575 185.076 241.355 184.783 241.197C184.496 241.033 184.153 240.951 183.755 240.951C183.304 240.951 182.882 241.062 182.489 241.285C182.103 241.502 181.783 241.789 181.531 242.146C181.285 242.498 181.145 242.882 181.109 243.298L180.248 243.289C180.33 242.633 180.482 242.073 180.705 241.61C180.934 241.142 181.215 240.761 181.549 240.468C181.889 240.169 182.267 239.952 182.683 239.817C183.104 239.677 183.55 239.606 184.019 239.606C184.657 239.606 185.208 239.727 185.671 239.967C186.134 240.207 186.515 240.529 186.813 240.934C187.112 241.332 187.332 241.783 187.473 242.287C187.619 242.785 187.692 243.298 187.692 243.825C187.692 244.429 187.607 244.994 187.438 245.521C187.268 246.049 187.013 246.512 186.673 246.91C186.339 247.309 185.926 247.619 185.434 247.842C184.941 248.064 184.37 248.176 183.72 248.176C183.028 248.176 182.425 248.035 181.909 247.754C181.394 247.467 180.966 247.086 180.626 246.611C180.286 246.137 180.031 245.609 179.861 245.029C179.691 244.449 179.606 243.86 179.606 243.263V242.498C179.606 241.596 179.697 240.711 179.879 239.844C180.061 238.977 180.374 238.191 180.819 237.488C181.271 236.785 181.895 236.226 182.691 235.81C183.488 235.394 184.505 235.186 185.741 235.186ZM191.683 241.909L190.382 241.575L191.023 235.203H197.589V236.706H192.403L192.017 240.187C192.251 240.052 192.547 239.926 192.904 239.809C193.268 239.691 193.684 239.633 194.152 239.633C194.744 239.633 195.274 239.735 195.743 239.94C196.212 240.14 196.61 240.427 196.938 240.802C197.272 241.177 197.527 241.628 197.703 242.155C197.879 242.683 197.967 243.271 197.967 243.922C197.967 244.537 197.882 245.103 197.712 245.618C197.548 246.134 197.299 246.585 196.965 246.972C196.631 247.353 196.209 247.648 195.699 247.859C195.195 248.07 194.601 248.176 193.915 248.176C193.399 248.176 192.91 248.105 192.447 247.965C191.99 247.818 191.58 247.599 191.217 247.306C190.859 247.007 190.566 246.638 190.338 246.198C190.115 245.753 189.975 245.231 189.916 244.634H191.463C191.533 245.114 191.674 245.519 191.885 245.847C192.096 246.175 192.371 246.424 192.711 246.594C193.057 246.758 193.458 246.84 193.915 246.84C194.302 246.84 194.645 246.772 194.943 246.638C195.242 246.503 195.494 246.31 195.699 246.058C195.904 245.806 196.06 245.501 196.165 245.144C196.276 244.786 196.332 244.385 196.332 243.939C196.332 243.535 196.276 243.16 196.165 242.814C196.054 242.469 195.887 242.167 195.664 241.909C195.447 241.651 195.181 241.452 194.864 241.312C194.548 241.165 194.185 241.092 193.774 241.092C193.229 241.092 192.816 241.165 192.535 241.312C192.26 241.458 191.976 241.657 191.683 241.909Z" fill="black"/>
<circle cx="142.5" cy="95" r="95" fill="white"/>
<path d="M114.682 130V121.882H121.155L129.144 95.1956C129.684 93.4368 130.679 92.0324 132.13 90.9825C133.581 89.9326 135.181 89.4091 136.932 89.4118H149.068C150.821 89.4118 152.423 89.9367 153.874 90.9866C155.325 92.0365 156.319 93.4395 156.856 95.1956L164.845 121.882H171.318V130H114.682ZM138.955 81.2941V61H147.045V81.2941H138.955ZM163.025 91.3397L157.26 85.5559L171.622 71.2485L177.285 76.9309L163.025 91.3397ZM167.273 109.706V101.588H187.5V109.706H167.273ZM122.975 91.3397L108.715 76.9309L114.378 71.2485L128.74 85.5559L122.975 91.3397ZM98.5 109.706V101.588H118.727V109.706H98.5Z" fill="#FF0000"/>
</g>
<defs>
<filter id="filter0_d_38_2675" x="0.5" y="0" width="284" height="365" filterUnits="userSpaceOnUse" color-interpolation-filters="sRGB">
<feFlood flood-opacity="0" result="BackgroundImageFix"/>
<feColorMatrix in="SourceAlpha" type="matrix" values="0 0 0 0 0 0 0 0 0 0 0 0 0 0 0 0 0 0 127 0" result="hardAlpha"/>
<feOffset dy="4"/>
<feGaussianBlur stdDeviation="2"/>
<feComposite in2="hardAlpha" operator="out"/>
<feColorMatrix type="matrix" values="0 0 0 0 0 0 0 0 0 0 0 0 0 0 0 0 0 0 0.25 0"/>
<feBlend mode="normal" in2="BackgroundImageFix" result="effect1_dropShadow_38_2675"/>
<feBlend mode="normal" in="SourceGraphic" in2="effect1_dropShadow_38_2675" result="shape"/>
</filter>
</defs>
</svg>
