<svg width="285" height="365" viewBox="0 0 285 365" fill="none" xmlns="http://www.w3.org/2000/svg">
<g filter="url(#filter0_d_38_2606)">
<rect x="4.5" y="95" width="276" height="262" rx="8" fill="white"/>
<path d="M103.915 209.943V212H97.4727V209.943H103.915ZM98.3252 199.203V212H95.6885V199.203H98.3252ZM110.401 209.855V205.619C110.401 205.314 110.352 205.054 110.252 204.837C110.152 204.614 109.997 204.441 109.786 204.318C109.581 204.195 109.314 204.134 108.986 204.134C108.705 204.134 108.462 204.184 108.257 204.283C108.052 204.377 107.894 204.515 107.782 204.696C107.671 204.872 107.615 205.08 107.615 205.32H105.084C105.084 204.916 105.178 204.532 105.365 204.169C105.553 203.806 105.825 203.486 106.183 203.211C106.54 202.93 106.965 202.71 107.457 202.552C107.955 202.394 108.512 202.314 109.127 202.314C109.865 202.314 110.521 202.438 111.096 202.684C111.67 202.93 112.121 203.299 112.449 203.791C112.783 204.283 112.95 204.898 112.95 205.637V209.706C112.95 210.228 112.982 210.655 113.047 210.989C113.111 211.317 113.205 211.604 113.328 211.851V212H110.771C110.647 211.742 110.554 211.42 110.489 211.033C110.431 210.641 110.401 210.248 110.401 209.855ZM110.735 206.208L110.753 207.641H109.338C109.004 207.641 108.714 207.679 108.468 207.755C108.222 207.831 108.02 207.939 107.861 208.08C107.703 208.215 107.586 208.373 107.51 208.555C107.439 208.736 107.404 208.936 107.404 209.152C107.404 209.369 107.454 209.565 107.554 209.741C107.653 209.911 107.797 210.046 107.984 210.146C108.172 210.239 108.392 210.286 108.644 210.286C109.024 210.286 109.355 210.21 109.637 210.058C109.918 209.905 110.135 209.718 110.287 209.495C110.445 209.272 110.527 209.062 110.533 208.862L111.201 209.935C111.107 210.175 110.979 210.424 110.814 210.682C110.656 210.939 110.454 211.183 110.208 211.411C109.962 211.634 109.666 211.818 109.32 211.965C108.975 212.105 108.564 212.176 108.09 212.176C107.486 212.176 106.938 212.056 106.446 211.815C105.96 211.569 105.573 211.232 105.286 210.805C105.005 210.371 104.864 209.879 104.864 209.328C104.864 208.83 104.958 208.388 105.146 208.001C105.333 207.614 105.608 207.289 105.972 207.025C106.341 206.756 106.801 206.554 107.352 206.419C107.902 206.278 108.541 206.208 109.268 206.208H110.735ZM117.38 204.521V212H114.849V202.49H117.222L117.38 204.521ZM117.011 206.911H116.325C116.325 206.208 116.416 205.575 116.598 205.013C116.779 204.444 117.034 203.961 117.362 203.562C117.69 203.158 118.08 202.851 118.531 202.64C118.988 202.423 119.498 202.314 120.061 202.314C120.506 202.314 120.913 202.379 121.282 202.508C121.651 202.637 121.968 202.842 122.231 203.123C122.501 203.404 122.706 203.776 122.847 204.239C122.993 204.702 123.066 205.268 123.066 205.936V212H120.518V205.927C120.518 205.505 120.459 205.177 120.342 204.942C120.225 204.708 120.052 204.544 119.823 204.45C119.601 204.351 119.325 204.301 118.997 204.301C118.657 204.301 118.361 204.368 118.109 204.503C117.863 204.638 117.658 204.825 117.494 205.065C117.336 205.3 117.216 205.575 117.134 205.892C117.052 206.208 117.011 206.548 117.011 206.911ZM130.607 209.926V198.5H133.156V212H130.862L130.607 209.926ZM124.596 207.359V207.175C124.596 206.448 124.678 205.789 124.842 205.197C125.006 204.6 125.246 204.087 125.562 203.659C125.879 203.231 126.269 202.9 126.731 202.666C127.194 202.432 127.722 202.314 128.313 202.314C128.87 202.314 129.356 202.432 129.772 202.666C130.194 202.9 130.552 203.234 130.845 203.668C131.144 204.096 131.384 204.603 131.565 205.188C131.747 205.769 131.879 206.404 131.961 207.096V207.5C131.879 208.162 131.747 208.777 131.565 209.346C131.384 209.914 131.144 210.412 130.845 210.84C130.552 211.262 130.194 211.59 129.772 211.824C129.351 212.059 128.858 212.176 128.296 212.176C127.704 212.176 127.177 212.056 126.714 211.815C126.257 211.575 125.87 211.238 125.554 210.805C125.243 210.371 125.006 209.861 124.842 209.275C124.678 208.689 124.596 208.051 124.596 207.359ZM127.127 207.175V207.359C127.127 207.752 127.156 208.118 127.215 208.458C127.279 208.798 127.382 209.1 127.522 209.363C127.669 209.621 127.856 209.823 128.085 209.97C128.319 210.11 128.604 210.181 128.938 210.181C129.371 210.181 129.729 210.084 130.01 209.891C130.291 209.691 130.505 209.419 130.651 209.073C130.804 208.728 130.892 208.329 130.915 207.878V206.727C130.897 206.357 130.845 206.026 130.757 205.733C130.675 205.435 130.552 205.18 130.388 204.969C130.229 204.758 130.03 204.594 129.79 204.477C129.556 204.359 129.277 204.301 128.955 204.301C128.627 204.301 128.346 204.377 128.111 204.529C127.877 204.676 127.687 204.878 127.54 205.136C127.399 205.394 127.294 205.698 127.224 206.05C127.159 206.396 127.127 206.771 127.127 207.175ZM142.578 199.203V212H139.95V199.203H142.578ZM150.031 209.372C150.031 209.19 149.979 209.026 149.873 208.88C149.768 208.733 149.571 208.599 149.284 208.476C149.003 208.347 148.596 208.229 148.062 208.124C147.582 208.019 147.134 207.887 146.718 207.729C146.308 207.564 145.95 207.368 145.646 207.14C145.347 206.911 145.112 206.642 144.942 206.331C144.772 206.015 144.688 205.654 144.688 205.25C144.688 204.852 144.772 204.477 144.942 204.125C145.118 203.773 145.367 203.463 145.689 203.193C146.018 202.918 146.416 202.704 146.885 202.552C147.359 202.394 147.893 202.314 148.484 202.314C149.311 202.314 150.02 202.446 150.611 202.71C151.209 202.974 151.666 203.337 151.982 203.8C152.305 204.257 152.466 204.778 152.466 205.364H149.935C149.935 205.118 149.882 204.898 149.776 204.705C149.677 204.506 149.519 204.351 149.302 204.239C149.091 204.122 148.815 204.063 148.476 204.063C148.194 204.063 147.951 204.113 147.746 204.213C147.541 204.307 147.383 204.436 147.271 204.6C147.166 204.758 147.113 204.934 147.113 205.127C147.113 205.273 147.143 205.405 147.201 205.522C147.266 205.634 147.368 205.736 147.509 205.83C147.649 205.924 147.831 206.012 148.054 206.094C148.282 206.17 148.563 206.24 148.897 206.305C149.583 206.445 150.195 206.63 150.734 206.858C151.273 207.081 151.701 207.386 152.018 207.772C152.334 208.153 152.492 208.654 152.492 209.275C152.492 209.697 152.398 210.084 152.211 210.436C152.023 210.787 151.754 211.095 151.402 211.358C151.051 211.616 150.629 211.818 150.137 211.965C149.65 212.105 149.103 212.176 148.493 212.176C147.608 212.176 146.858 212.018 146.243 211.701C145.634 211.385 145.171 210.983 144.854 210.497C144.544 210.005 144.389 209.501 144.389 208.985H146.788C146.8 209.331 146.888 209.609 147.052 209.82C147.222 210.031 147.436 210.184 147.693 210.277C147.957 210.371 148.241 210.418 148.546 210.418C148.874 210.418 149.146 210.374 149.363 210.286C149.58 210.192 149.744 210.069 149.855 209.917C149.973 209.759 150.031 209.577 150.031 209.372ZM159.277 209.372C159.277 209.19 159.225 209.026 159.119 208.88C159.014 208.733 158.817 208.599 158.53 208.476C158.249 208.347 157.842 208.229 157.309 208.124C156.828 208.019 156.38 207.887 155.964 207.729C155.554 207.564 155.196 207.368 154.892 207.14C154.593 206.911 154.358 206.642 154.188 206.331C154.019 206.015 153.934 205.654 153.934 205.25C153.934 204.852 154.019 204.477 154.188 204.125C154.364 203.773 154.613 203.463 154.936 203.193C155.264 202.918 155.662 202.704 156.131 202.552C156.605 202.394 157.139 202.314 157.73 202.314C158.557 202.314 159.266 202.446 159.857 202.71C160.455 202.974 160.912 203.337 161.229 203.8C161.551 204.257 161.712 204.778 161.712 205.364H159.181C159.181 205.118 159.128 204.898 159.022 204.705C158.923 204.506 158.765 204.351 158.548 204.239C158.337 204.122 158.062 204.063 157.722 204.063C157.44 204.063 157.197 204.113 156.992 204.213C156.787 204.307 156.629 204.436 156.518 204.6C156.412 204.758 156.359 204.934 156.359 205.127C156.359 205.273 156.389 205.405 156.447 205.522C156.512 205.634 156.614 205.736 156.755 205.83C156.896 205.924 157.077 206.012 157.3 206.094C157.528 206.17 157.81 206.24 158.144 206.305C158.829 206.445 159.441 206.63 159.98 206.858C160.52 207.081 160.947 207.386 161.264 207.772C161.58 208.153 161.738 208.654 161.738 209.275C161.738 209.697 161.645 210.084 161.457 210.436C161.27 210.787 161 211.095 160.648 211.358C160.297 211.616 159.875 211.818 159.383 211.965C158.896 212.105 158.349 212.176 157.739 212.176C156.854 212.176 156.104 212.018 155.489 211.701C154.88 211.385 154.417 210.983 154.101 210.497C153.79 210.005 153.635 209.501 153.635 208.985H156.034C156.046 209.331 156.134 209.609 156.298 209.82C156.468 210.031 156.682 210.184 156.939 210.277C157.203 210.371 157.487 210.418 157.792 210.418C158.12 210.418 158.393 210.374 158.609 210.286C158.826 210.192 158.99 210.069 159.102 209.917C159.219 209.759 159.277 209.577 159.277 209.372ZM169.007 209.724V202.49H171.538V212H169.156L169.007 209.724ZM169.288 207.772L170.035 207.755C170.035 208.388 169.962 208.977 169.815 209.521C169.669 210.061 169.449 210.529 169.156 210.928C168.863 211.32 168.494 211.628 168.049 211.851C167.604 212.067 167.079 212.176 166.476 212.176C166.013 212.176 165.585 212.111 165.192 211.982C164.806 211.848 164.472 211.64 164.19 211.358C163.915 211.071 163.698 210.705 163.54 210.26C163.388 209.809 163.312 209.267 163.312 208.634V202.49H165.843V208.651C165.843 208.933 165.875 209.17 165.939 209.363C166.01 209.557 166.106 209.715 166.229 209.838C166.353 209.961 166.496 210.049 166.66 210.102C166.83 210.154 167.018 210.181 167.223 210.181C167.744 210.181 168.154 210.075 168.453 209.864C168.758 209.653 168.972 209.366 169.095 209.003C169.224 208.634 169.288 208.224 169.288 207.772ZM177.849 212.176C177.11 212.176 176.448 212.059 175.862 211.824C175.276 211.584 174.778 211.253 174.368 210.831C173.964 210.409 173.653 209.92 173.437 209.363C173.22 208.801 173.111 208.203 173.111 207.57V207.219C173.111 206.498 173.214 205.839 173.419 205.241C173.624 204.644 173.917 204.125 174.298 203.686C174.685 203.246 175.153 202.909 175.704 202.675C176.255 202.435 176.876 202.314 177.567 202.314C178.241 202.314 178.839 202.426 179.36 202.648C179.882 202.871 180.318 203.188 180.67 203.598C181.027 204.008 181.297 204.5 181.479 205.074C181.66 205.643 181.751 206.275 181.751 206.973V208.027H174.192V206.34H179.264V206.146C179.264 205.795 179.199 205.481 179.07 205.206C178.947 204.925 178.76 204.702 178.508 204.538C178.256 204.374 177.934 204.292 177.541 204.292C177.207 204.292 176.92 204.365 176.68 204.512C176.439 204.658 176.243 204.863 176.091 205.127C175.944 205.391 175.833 205.701 175.757 206.059C175.687 206.41 175.651 206.797 175.651 207.219V207.57C175.651 207.951 175.704 208.303 175.81 208.625C175.921 208.947 176.076 209.226 176.275 209.46C176.48 209.694 176.727 209.876 177.014 210.005C177.307 210.134 177.638 210.198 178.007 210.198C178.464 210.198 178.889 210.11 179.281 209.935C179.68 209.753 180.022 209.48 180.31 209.117L181.54 210.453C181.341 210.74 181.068 211.016 180.723 211.279C180.383 211.543 179.973 211.76 179.492 211.93C179.012 212.094 178.464 212.176 177.849 212.176ZM188.334 209.372C188.334 209.19 188.281 209.026 188.176 208.88C188.07 208.733 187.874 208.599 187.587 208.476C187.306 208.347 186.898 208.229 186.365 208.124C185.885 208.019 185.437 207.887 185.021 207.729C184.61 207.564 184.253 207.368 183.948 207.14C183.649 206.911 183.415 206.642 183.245 206.331C183.075 206.015 182.99 205.654 182.99 205.25C182.99 204.852 183.075 204.477 183.245 204.125C183.421 203.773 183.67 203.463 183.992 203.193C184.32 202.918 184.719 202.704 185.188 202.552C185.662 202.394 186.195 202.314 186.787 202.314C187.613 202.314 188.322 202.446 188.914 202.71C189.512 202.974 189.969 203.337 190.285 203.8C190.607 204.257 190.769 204.778 190.769 205.364H188.237C188.237 205.118 188.185 204.898 188.079 204.705C187.979 204.506 187.821 204.351 187.604 204.239C187.394 204.122 187.118 204.063 186.778 204.063C186.497 204.063 186.254 204.113 186.049 204.213C185.844 204.307 185.686 204.436 185.574 204.6C185.469 204.758 185.416 204.934 185.416 205.127C185.416 205.273 185.445 205.405 185.504 205.522C185.568 205.634 185.671 205.736 185.812 205.83C185.952 205.924 186.134 206.012 186.356 206.094C186.585 206.17 186.866 206.24 187.2 206.305C187.886 206.445 188.498 206.63 189.037 206.858C189.576 207.081 190.004 207.386 190.32 207.772C190.637 208.153 190.795 208.654 190.795 209.275C190.795 209.697 190.701 210.084 190.514 210.436C190.326 210.787 190.057 211.095 189.705 211.358C189.354 211.616 188.932 211.818 188.439 211.965C187.953 212.105 187.405 212.176 186.796 212.176C185.911 212.176 185.161 212.018 184.546 211.701C183.937 211.385 183.474 210.983 183.157 210.497C182.847 210.005 182.691 209.501 182.691 208.985H185.091C185.103 209.331 185.19 209.609 185.354 209.82C185.524 210.031 185.738 210.184 185.996 210.277C186.26 210.371 186.544 210.418 186.849 210.418C187.177 210.418 187.449 210.374 187.666 210.286C187.883 210.192 188.047 210.069 188.158 209.917C188.275 209.759 188.334 209.577 188.334 209.372Z" fill="#0066CC"/>
<path d="M96.4092 240.582V242.533C96.4092 243.582 96.3154 244.467 96.1279 245.188C95.9404 245.908 95.6709 246.488 95.3193 246.928C94.9678 247.367 94.543 247.687 94.0449 247.886C93.5527 248.079 92.9961 248.176 92.375 248.176C91.8828 248.176 91.4287 248.114 91.0127 247.991C90.5967 247.868 90.2217 247.672 89.8877 247.402C89.5596 247.127 89.2783 246.77 89.0439 246.33C88.8096 245.891 88.6309 245.357 88.5078 244.73C88.3848 244.104 88.3232 243.371 88.3232 242.533V240.582C88.3232 239.533 88.417 238.654 88.6045 237.945C88.7979 237.236 89.0703 236.668 89.4219 236.24C89.7734 235.807 90.1953 235.496 90.6875 235.309C91.1855 235.121 91.7422 235.027 92.3574 235.027C92.8555 235.027 93.3125 235.089 93.7285 235.212C94.1504 235.329 94.5254 235.52 94.8535 235.783C95.1816 236.041 95.46 236.387 95.6885 236.82C95.9229 237.248 96.1016 237.772 96.2246 238.394C96.3477 239.015 96.4092 239.744 96.4092 240.582ZM94.7744 242.797V240.31C94.7744 239.735 94.7393 239.231 94.6689 238.798C94.6045 238.358 94.5078 237.983 94.3789 237.673C94.25 237.362 94.0859 237.11 93.8867 236.917C93.6934 236.724 93.4678 236.583 93.21 236.495C92.958 236.401 92.6738 236.354 92.3574 236.354C91.9707 236.354 91.6279 236.428 91.3291 236.574C91.0303 236.715 90.7783 236.94 90.5732 237.251C90.374 237.562 90.2217 237.969 90.1162 238.473C90.0107 238.977 89.958 239.589 89.958 240.31V242.797C89.958 243.371 89.9902 243.878 90.0547 244.317C90.125 244.757 90.2275 245.138 90.3623 245.46C90.4971 245.776 90.6611 246.037 90.8545 246.242C91.0479 246.447 91.2705 246.6 91.5225 246.699C91.7803 246.793 92.0645 246.84 92.375 246.84C92.7734 246.84 93.1221 246.764 93.4209 246.611C93.7197 246.459 93.9688 246.222 94.168 245.899C94.373 245.571 94.5254 245.152 94.625 244.643C94.7246 244.127 94.7744 243.512 94.7744 242.797ZM106.569 244.537C106.569 245.316 106.388 245.979 106.024 246.523C105.667 247.062 105.181 247.473 104.565 247.754C103.956 248.035 103.268 248.176 102.5 248.176C101.732 248.176 101.041 248.035 100.426 247.754C99.8105 247.473 99.3242 247.062 98.9668 246.523C98.6094 245.979 98.4307 245.316 98.4307 244.537C98.4307 244.027 98.5273 243.562 98.7207 243.14C98.9199 242.712 99.1982 242.34 99.5557 242.023C99.9189 241.707 100.347 241.464 100.839 241.294C101.337 241.118 101.885 241.03 102.482 241.03C103.268 241.03 103.968 241.183 104.583 241.487C105.198 241.786 105.682 242.199 106.033 242.727C106.391 243.254 106.569 243.857 106.569 244.537ZM104.935 244.502C104.935 244.027 104.832 243.608 104.627 243.245C104.422 242.876 104.135 242.589 103.766 242.384C103.396 242.179 102.969 242.076 102.482 242.076C101.984 242.076 101.554 242.179 101.19 242.384C100.833 242.589 100.555 242.876 100.355 243.245C100.156 243.608 100.057 244.027 100.057 244.502C100.057 244.994 100.153 245.416 100.347 245.768C100.546 246.113 100.827 246.38 101.19 246.567C101.56 246.749 101.996 246.84 102.5 246.84C103.004 246.84 103.438 246.749 103.801 246.567C104.164 246.38 104.442 246.113 104.636 245.768C104.835 245.416 104.935 244.994 104.935 244.502ZM106.271 238.534C106.271 239.155 106.106 239.715 105.778 240.213C105.45 240.711 105.002 241.104 104.434 241.391C103.865 241.678 103.221 241.821 102.5 241.821C101.768 241.821 101.114 241.678 100.54 241.391C99.9717 241.104 99.5264 240.711 99.2041 240.213C98.8818 239.715 98.7207 239.155 98.7207 238.534C98.7207 237.79 98.8818 237.157 99.2041 236.636C99.5322 236.114 99.9805 235.716 100.549 235.44C101.117 235.165 101.765 235.027 102.491 235.027C103.224 235.027 103.874 235.165 104.442 235.44C105.011 235.716 105.456 236.114 105.778 236.636C106.106 237.157 106.271 237.79 106.271 238.534ZM104.645 238.561C104.645 238.133 104.554 237.755 104.372 237.427C104.19 237.099 103.938 236.841 103.616 236.653C103.294 236.46 102.919 236.363 102.491 236.363C102.063 236.363 101.688 236.454 101.366 236.636C101.05 236.812 100.801 237.063 100.619 237.392C100.443 237.72 100.355 238.109 100.355 238.561C100.355 239 100.443 239.384 100.619 239.712C100.801 240.04 101.053 240.295 101.375 240.477C101.697 240.658 102.072 240.749 102.5 240.749C102.928 240.749 103.3 240.658 103.616 240.477C103.938 240.295 104.19 240.04 104.372 239.712C104.554 239.384 104.645 239 104.645 238.561ZM116.659 240.582V242.533C116.659 243.582 116.565 244.467 116.378 245.188C116.19 245.908 115.921 246.488 115.569 246.928C115.218 247.367 114.793 247.687 114.295 247.886C113.803 248.079 113.246 248.176 112.625 248.176C112.133 248.176 111.679 248.114 111.263 247.991C110.847 247.868 110.472 247.672 110.138 247.402C109.81 247.127 109.528 246.77 109.294 246.33C109.06 245.891 108.881 245.357 108.758 244.73C108.635 244.104 108.573 243.371 108.573 242.533V240.582C108.573 239.533 108.667 238.654 108.854 237.945C109.048 237.236 109.32 236.668 109.672 236.24C110.023 235.807 110.445 235.496 110.938 235.309C111.436 235.121 111.992 235.027 112.607 235.027C113.105 235.027 113.562 235.089 113.979 235.212C114.4 235.329 114.775 235.52 115.104 235.783C115.432 236.041 115.71 236.387 115.938 236.82C116.173 237.248 116.352 237.772 116.475 238.394C116.598 239.015 116.659 239.744 116.659 240.582ZM115.024 242.797V240.31C115.024 239.735 114.989 239.231 114.919 238.798C114.854 238.358 114.758 237.983 114.629 237.673C114.5 237.362 114.336 237.11 114.137 236.917C113.943 236.724 113.718 236.583 113.46 236.495C113.208 236.401 112.924 236.354 112.607 236.354C112.221 236.354 111.878 236.428 111.579 236.574C111.28 236.715 111.028 236.94 110.823 237.251C110.624 237.562 110.472 237.969 110.366 238.473C110.261 238.977 110.208 239.589 110.208 240.31V242.797C110.208 243.371 110.24 243.878 110.305 244.317C110.375 244.757 110.478 245.138 110.612 245.46C110.747 245.776 110.911 246.037 111.104 246.242C111.298 246.447 111.521 246.6 111.772 246.699C112.03 246.793 112.314 246.84 112.625 246.84C113.023 246.84 113.372 246.764 113.671 246.611C113.97 246.459 114.219 246.222 114.418 245.899C114.623 245.571 114.775 245.152 114.875 244.643C114.975 244.127 115.024 243.512 115.024 242.797ZM121.124 240.802H122.284C122.853 240.802 123.321 240.708 123.69 240.521C124.065 240.327 124.344 240.066 124.525 239.738C124.713 239.404 124.807 239.029 124.807 238.613C124.807 238.121 124.725 237.708 124.561 237.374C124.396 237.04 124.15 236.788 123.822 236.618C123.494 236.448 123.078 236.363 122.574 236.363C122.117 236.363 121.713 236.454 121.361 236.636C121.016 236.812 120.743 237.063 120.544 237.392C120.351 237.72 120.254 238.106 120.254 238.552H118.628C118.628 237.901 118.792 237.31 119.12 236.776C119.448 236.243 119.908 235.818 120.5 235.502C121.098 235.186 121.789 235.027 122.574 235.027C123.348 235.027 124.024 235.165 124.604 235.44C125.185 235.71 125.636 236.114 125.958 236.653C126.28 237.187 126.441 237.852 126.441 238.648C126.441 238.971 126.365 239.316 126.213 239.686C126.066 240.049 125.835 240.389 125.519 240.705C125.208 241.021 124.804 241.282 124.306 241.487C123.808 241.687 123.21 241.786 122.513 241.786H121.124V240.802ZM121.124 242.138V241.162H122.513C123.327 241.162 124.001 241.259 124.534 241.452C125.067 241.646 125.486 241.903 125.791 242.226C126.102 242.548 126.318 242.902 126.441 243.289C126.57 243.67 126.635 244.051 126.635 244.432C126.635 245.029 126.532 245.56 126.327 246.022C126.128 246.485 125.844 246.878 125.475 247.2C125.111 247.522 124.684 247.766 124.191 247.93C123.699 248.094 123.163 248.176 122.583 248.176C122.026 248.176 121.502 248.097 121.01 247.938C120.523 247.78 120.093 247.552 119.718 247.253C119.343 246.948 119.05 246.576 118.839 246.137C118.628 245.691 118.522 245.185 118.522 244.616H120.148C120.148 245.062 120.245 245.451 120.438 245.785C120.638 246.119 120.919 246.38 121.282 246.567C121.651 246.749 122.085 246.84 122.583 246.84C123.081 246.84 123.509 246.755 123.866 246.585C124.229 246.409 124.508 246.146 124.701 245.794C124.9 245.442 125 245 125 244.467C125 243.934 124.889 243.497 124.666 243.157C124.443 242.812 124.127 242.557 123.717 242.393C123.312 242.223 122.835 242.138 122.284 242.138H121.124ZM137.524 243.693V245.029H128.278V244.071L134.009 235.203H135.336L133.912 237.77L130.124 243.693H137.524ZM135.74 235.203V248H134.114V235.203H135.74ZM147.034 240.582V242.533C147.034 243.582 146.94 244.467 146.753 245.188C146.565 245.908 146.296 246.488 145.944 246.928C145.593 247.367 145.168 247.687 144.67 247.886C144.178 248.079 143.621 248.176 143 248.176C142.508 248.176 142.054 248.114 141.638 247.991C141.222 247.868 140.847 247.672 140.513 247.402C140.185 247.127 139.903 246.77 139.669 246.33C139.435 245.891 139.256 245.357 139.133 244.73C139.01 244.104 138.948 243.371 138.948 242.533V240.582C138.948 239.533 139.042 238.654 139.229 237.945C139.423 237.236 139.695 236.668 140.047 236.24C140.398 235.807 140.82 235.496 141.312 235.309C141.811 235.121 142.367 235.027 142.982 235.027C143.48 235.027 143.938 235.089 144.354 235.212C144.775 235.329 145.15 235.52 145.479 235.783C145.807 236.041 146.085 236.387 146.313 236.82C146.548 237.248 146.727 237.772 146.85 238.394C146.973 239.015 147.034 239.744 147.034 240.582ZM145.399 242.797V240.31C145.399 239.735 145.364 239.231 145.294 238.798C145.229 238.358 145.133 237.983 145.004 237.673C144.875 237.362 144.711 237.11 144.512 236.917C144.318 236.724 144.093 236.583 143.835 236.495C143.583 236.401 143.299 236.354 142.982 236.354C142.596 236.354 142.253 236.428 141.954 236.574C141.655 236.715 141.403 236.94 141.198 237.251C140.999 237.562 140.847 237.969 140.741 238.473C140.636 238.977 140.583 239.589 140.583 240.31V242.797C140.583 243.371 140.615 243.878 140.68 244.317C140.75 244.757 140.853 245.138 140.987 245.46C141.122 245.776 141.286 246.037 141.479 246.242C141.673 246.447 141.896 246.6 142.147 246.699C142.405 246.793 142.689 246.84 143 246.84C143.398 246.84 143.747 246.764 144.046 246.611C144.345 246.459 144.594 246.222 144.793 245.899C144.998 245.571 145.15 245.152 145.25 244.643C145.35 244.127 145.399 243.512 145.399 242.797ZM151.499 240.802H152.659C153.228 240.802 153.696 240.708 154.065 240.521C154.44 240.327 154.719 240.066 154.9 239.738C155.088 239.404 155.182 239.029 155.182 238.613C155.182 238.121 155.1 237.708 154.936 237.374C154.771 237.04 154.525 236.788 154.197 236.618C153.869 236.448 153.453 236.363 152.949 236.363C152.492 236.363 152.088 236.454 151.736 236.636C151.391 236.812 151.118 237.063 150.919 237.392C150.726 237.72 150.629 238.106 150.629 238.552H149.003C149.003 237.901 149.167 237.31 149.495 236.776C149.823 236.243 150.283 235.818 150.875 235.502C151.473 235.186 152.164 235.027 152.949 235.027C153.723 235.027 154.399 235.165 154.979 235.44C155.56 235.71 156.011 236.114 156.333 236.653C156.655 237.187 156.816 237.852 156.816 238.648C156.816 238.971 156.74 239.316 156.588 239.686C156.441 240.049 156.21 240.389 155.894 240.705C155.583 241.021 155.179 241.282 154.681 241.487C154.183 241.687 153.585 241.786 152.888 241.786H151.499V240.802ZM151.499 242.138V241.162H152.888C153.702 241.162 154.376 241.259 154.909 241.452C155.442 241.646 155.861 241.903 156.166 242.226C156.477 242.548 156.693 242.902 156.816 243.289C156.945 243.67 157.01 244.051 157.01 244.432C157.01 245.029 156.907 245.56 156.702 246.022C156.503 246.485 156.219 246.878 155.85 247.2C155.486 247.522 155.059 247.766 154.566 247.93C154.074 248.094 153.538 248.176 152.958 248.176C152.401 248.176 151.877 248.097 151.385 247.938C150.898 247.78 150.468 247.552 150.093 247.253C149.718 246.948 149.425 246.576 149.214 246.137C149.003 245.691 148.897 245.185 148.897 244.616H150.523C150.523 245.062 150.62 245.451 150.813 245.785C151.013 246.119 151.294 246.38 151.657 246.567C152.026 246.749 152.46 246.84 152.958 246.84C153.456 246.84 153.884 246.755 154.241 246.585C154.604 246.409 154.883 246.146 155.076 245.794C155.275 245.442 155.375 245 155.375 244.467C155.375 243.934 155.264 243.497 155.041 243.157C154.818 242.812 154.502 242.557 154.092 242.393C153.688 242.223 153.21 242.138 152.659 242.138H151.499ZM167.284 240.582V242.533C167.284 243.582 167.19 244.467 167.003 245.188C166.815 245.908 166.546 246.488 166.194 246.928C165.843 247.367 165.418 247.687 164.92 247.886C164.428 248.079 163.871 248.176 163.25 248.176C162.758 248.176 162.304 248.114 161.888 247.991C161.472 247.868 161.097 247.672 160.763 247.402C160.435 247.127 160.153 246.77 159.919 246.33C159.685 245.891 159.506 245.357 159.383 244.73C159.26 244.104 159.198 243.371 159.198 242.533V240.582C159.198 239.533 159.292 238.654 159.479 237.945C159.673 237.236 159.945 236.668 160.297 236.24C160.648 235.807 161.07 235.496 161.562 235.309C162.061 235.121 162.617 235.027 163.232 235.027C163.73 235.027 164.188 235.089 164.604 235.212C165.025 235.329 165.4 235.52 165.729 235.783C166.057 236.041 166.335 236.387 166.563 236.82C166.798 237.248 166.977 237.772 167.1 238.394C167.223 239.015 167.284 239.744 167.284 240.582ZM165.649 242.797V240.31C165.649 239.735 165.614 239.231 165.544 238.798C165.479 238.358 165.383 237.983 165.254 237.673C165.125 237.362 164.961 237.11 164.762 236.917C164.568 236.724 164.343 236.583 164.085 236.495C163.833 236.401 163.549 236.354 163.232 236.354C162.846 236.354 162.503 236.428 162.204 236.574C161.905 236.715 161.653 236.94 161.448 237.251C161.249 237.562 161.097 237.969 160.991 238.473C160.886 238.977 160.833 239.589 160.833 240.31V242.797C160.833 243.371 160.865 243.878 160.93 244.317C161 244.757 161.103 245.138 161.237 245.46C161.372 245.776 161.536 246.037 161.729 246.242C161.923 246.447 162.146 246.6 162.397 246.699C162.655 246.793 162.939 246.84 163.25 246.84C163.648 246.84 163.997 246.764 164.296 246.611C164.595 246.459 164.844 246.222 165.043 245.899C165.248 245.571 165.4 245.152 165.5 244.643C165.6 244.127 165.649 243.512 165.649 242.797ZM177.761 246.664V248H169.385V246.831L173.577 242.164C174.093 241.59 174.491 241.104 174.772 240.705C175.06 240.301 175.259 239.94 175.37 239.624C175.487 239.302 175.546 238.974 175.546 238.64C175.546 238.218 175.458 237.837 175.282 237.497C175.112 237.151 174.86 236.876 174.526 236.671C174.192 236.466 173.788 236.363 173.313 236.363C172.745 236.363 172.271 236.475 171.89 236.697C171.515 236.914 171.233 237.219 171.046 237.611C170.858 238.004 170.765 238.455 170.765 238.965H169.139C169.139 238.244 169.297 237.585 169.613 236.987C169.93 236.39 170.398 235.915 171.02 235.563C171.641 235.206 172.405 235.027 173.313 235.027C174.122 235.027 174.813 235.171 175.388 235.458C175.962 235.739 176.401 236.138 176.706 236.653C177.017 237.163 177.172 237.761 177.172 238.446C177.172 238.821 177.107 239.202 176.979 239.589C176.855 239.97 176.683 240.351 176.46 240.731C176.243 241.112 175.988 241.487 175.695 241.856C175.408 242.226 175.101 242.589 174.772 242.946L171.345 246.664H177.761ZM185.741 235.186H185.882V236.565H185.741C184.88 236.565 184.159 236.706 183.579 236.987C182.999 237.263 182.539 237.635 182.199 238.104C181.859 238.566 181.613 239.088 181.461 239.668C181.314 240.248 181.241 240.837 181.241 241.435V243.315C181.241 243.884 181.309 244.388 181.443 244.827C181.578 245.261 181.763 245.627 181.997 245.926C182.231 246.225 182.495 246.45 182.788 246.603C183.087 246.755 183.397 246.831 183.72 246.831C184.095 246.831 184.429 246.761 184.722 246.62C185.015 246.474 185.261 246.271 185.46 246.014C185.665 245.75 185.82 245.439 185.926 245.082C186.031 244.725 186.084 244.332 186.084 243.904C186.084 243.523 186.037 243.157 185.943 242.806C185.85 242.448 185.706 242.132 185.513 241.856C185.319 241.575 185.076 241.355 184.783 241.197C184.496 241.033 184.153 240.951 183.755 240.951C183.304 240.951 182.882 241.062 182.489 241.285C182.103 241.502 181.783 241.789 181.531 242.146C181.285 242.498 181.145 242.882 181.109 243.298L180.248 243.289C180.33 242.633 180.482 242.073 180.705 241.61C180.934 241.142 181.215 240.761 181.549 240.468C181.889 240.169 182.267 239.952 182.683 239.817C183.104 239.677 183.55 239.606 184.019 239.606C184.657 239.606 185.208 239.727 185.671 239.967C186.134 240.207 186.515 240.529 186.813 240.934C187.112 241.332 187.332 241.783 187.473 242.287C187.619 242.785 187.692 243.298 187.692 243.825C187.692 244.429 187.607 244.994 187.438 245.521C187.268 246.049 187.013 246.512 186.673 246.91C186.339 247.309 185.926 247.619 185.434 247.842C184.941 248.064 184.37 248.176 183.72 248.176C183.028 248.176 182.425 248.035 181.909 247.754C181.394 247.467 180.966 247.086 180.626 246.611C180.286 246.137 180.031 245.609 179.861 245.029C179.691 244.449 179.606 243.86 179.606 243.263V242.498C179.606 241.596 179.697 240.711 179.879 239.844C180.061 238.977 180.374 238.191 180.819 237.488C181.271 236.785 181.895 236.226 182.691 235.81C183.488 235.394 184.505 235.186 185.741 235.186ZM191.999 240.802H193.159C193.728 240.802 194.196 240.708 194.565 240.521C194.94 240.327 195.219 240.066 195.4 239.738C195.588 239.404 195.682 239.029 195.682 238.613C195.682 238.121 195.6 237.708 195.436 237.374C195.271 237.04 195.025 236.788 194.697 236.618C194.369 236.448 193.953 236.363 193.449 236.363C192.992 236.363 192.588 236.454 192.236 236.636C191.891 236.812 191.618 237.063 191.419 237.392C191.226 237.72 191.129 238.106 191.129 238.552H189.503C189.503 237.901 189.667 237.31 189.995 236.776C190.323 236.243 190.783 235.818 191.375 235.502C191.973 235.186 192.664 235.027 193.449 235.027C194.223 235.027 194.899 235.165 195.479 235.44C196.06 235.71 196.511 236.114 196.833 236.653C197.155 237.187 197.316 237.852 197.316 238.648C197.316 238.971 197.24 239.316 197.088 239.686C196.941 240.049 196.71 240.389 196.394 240.705C196.083 241.021 195.679 241.282 195.181 241.487C194.683 241.687 194.085 241.786 193.388 241.786H191.999V240.802ZM191.999 242.138V241.162H193.388C194.202 241.162 194.876 241.259 195.409 241.452C195.942 241.646 196.361 241.903 196.666 242.226C196.977 242.548 197.193 242.902 197.316 243.289C197.445 243.67 197.51 244.051 197.51 244.432C197.51 245.029 197.407 245.56 197.202 246.022C197.003 246.485 196.719 246.878 196.35 247.2C195.986 247.522 195.559 247.766 195.066 247.93C194.574 248.094 194.038 248.176 193.458 248.176C192.901 248.176 192.377 248.097 191.885 247.938C191.398 247.78 190.968 247.552 190.593 247.253C190.218 246.948 189.925 246.576 189.714 246.137C189.503 245.691 189.397 245.185 189.397 244.616H191.023C191.023 245.062 191.12 245.451 191.313 245.785C191.513 246.119 191.794 246.38 192.157 246.567C192.526 246.749 192.96 246.84 193.458 246.84C193.956 246.84 194.384 246.755 194.741 246.585C195.104 246.409 195.383 246.146 195.576 245.794C195.775 245.442 195.875 245 195.875 244.467C195.875 243.934 195.764 243.497 195.541 243.157C195.318 242.812 195.002 242.557 194.592 242.393C194.188 242.223 193.71 242.138 193.159 242.138H191.999Z" fill="black"/>
<circle cx="142.5" cy="95" r="95" fill="white"/>
<path d="M114.682 130V121.882H121.155L129.144 95.1956C129.684 93.4368 130.679 92.0324 132.13 90.9825C133.581 89.9326 135.181 89.4091 136.932 89.4118H149.068C150.821 89.4118 152.423 89.9367 153.874 90.9866C155.325 92.0365 156.319 93.4395 156.856 95.1956L164.845 121.882H171.318V130H114.682ZM138.955 81.2941V61H147.045V81.2941H138.955ZM163.025 91.3397L157.26 85.5559L171.622 71.2485L177.285 76.9309L163.025 91.3397ZM167.273 109.706V101.588H187.5V109.706H167.273ZM122.975 91.3397L108.715 76.9309L114.378 71.2485L128.74 85.5559L122.975 91.3397ZM98.5 109.706V101.588H118.727V109.706H98.5Z" fill="#FF0000"/>
</g>
<defs>
<filter id="filter0_d_38_2606" x="0.5" y="0" width="284" height="365" filterUnits="userSpaceOnUse" color-interpolation-filters="sRGB">
<feFlood flood-opacity="0" result="BackgroundImageFix"/>
<feColorMatrix in="SourceAlpha" type="matrix" values="0 0 0 0 0 0 0 0 0 0 0 0 0 0 0 0 0 0 127 0" result="hardAlpha"/>
<feOffset dy="4"/>
<feGaussianBlur stdDeviation="2"/>
<feComposite in2="hardAlpha" operator="out"/>
<feColorMatrix type="matrix" values="0 0 0 0 0 0 0 0 0 0 0 0 0 0 0 0 0 0 0.25 0"/>
<feBlend mode="normal" in2="BackgroundImageFix" result="effect1_dropShadow_38_2606"/>
<feBlend mode="normal" in="SourceGraphic" in2="effect1_dropShadow_38_2606" result="shape"/>
</filter>
</defs>
</svg>
