<svg width="285" height="365" viewBox="0 0 285 365" fill="none" xmlns="http://www.w3.org/2000/svg">
<g filter="url(#filter0_d_38_2684)">
<rect x="4.5" y="95" width="276" height="262" rx="8" fill="white"/>
<circle cx="142.5" cy="95" r="95" fill="white"/>
<path d="M50.4092 212.438H47.1484V210.382H50.4092C50.9131 210.382 51.3232 210.3 51.6396 210.136C51.9561 209.966 52.1875 209.731 52.334 209.433C52.4805 209.134 52.5537 208.797 52.5537 208.422C52.5537 208.041 52.4805 207.687 52.334 207.358C52.1875 207.03 51.9561 206.767 51.6396 206.567C51.3232 206.368 50.9131 206.269 50.4092 206.269H48.0625V217H45.4258V204.203H50.4092C51.4111 204.203 52.2695 204.385 52.9844 204.748C53.7051 205.105 54.2559 205.601 54.6367 206.233C55.0176 206.866 55.208 207.59 55.208 208.404C55.208 209.23 55.0176 209.945 54.6367 210.549C54.2559 211.152 53.7051 211.618 52.9844 211.946C52.2695 212.274 51.4111 212.438 50.4092 212.438ZM56.3418 212.342V212.157C56.3418 211.46 56.4414 210.818 56.6406 210.232C56.8398 209.641 57.1299 209.128 57.5107 208.694C57.8916 208.261 58.3604 207.924 58.917 207.684C59.4736 207.438 60.1123 207.314 60.833 207.314C61.5537 207.314 62.1953 207.438 62.7578 207.684C63.3203 207.924 63.792 208.261 64.1729 208.694C64.5596 209.128 64.8525 209.641 65.0518 210.232C65.251 210.818 65.3506 211.46 65.3506 212.157V212.342C65.3506 213.033 65.251 213.675 65.0518 214.267C64.8525 214.853 64.5596 215.365 64.1729 215.805C63.792 216.238 63.3232 216.575 62.7666 216.815C62.21 217.056 61.5713 217.176 60.8506 217.176C60.1299 217.176 59.4883 217.056 58.9258 216.815C58.3691 216.575 57.8975 216.238 57.5107 215.805C57.1299 215.365 56.8398 214.853 56.6406 214.267C56.4414 213.675 56.3418 213.033 56.3418 212.342ZM58.873 212.157V212.342C58.873 212.74 58.9082 213.112 58.9785 213.458C59.0488 213.804 59.1602 214.108 59.3125 214.372C59.4707 214.63 59.6758 214.832 59.9277 214.979C60.1797 215.125 60.4873 215.198 60.8506 215.198C61.2021 215.198 61.5039 215.125 61.7559 214.979C62.0078 214.832 62.21 214.63 62.3623 214.372C62.5146 214.108 62.626 213.804 62.6963 213.458C62.7725 213.112 62.8105 212.74 62.8105 212.342V212.157C62.8105 211.771 62.7725 211.407 62.6963 211.067C62.626 210.722 62.5117 210.417 62.3535 210.153C62.2012 209.884 61.999 209.673 61.7471 209.521C61.4951 209.368 61.1904 209.292 60.833 209.292C60.4756 209.292 60.1709 209.368 59.9189 209.521C59.6729 209.673 59.4707 209.884 59.3125 210.153C59.1602 210.417 59.0488 210.722 58.9785 211.067C58.9082 211.407 58.873 211.771 58.873 212.157ZM71.5645 207.49V209.283H66.0273V207.49H71.5645ZM67.3984 205.144H69.9297V214.135C69.9297 214.41 69.9648 214.621 70.0352 214.768C70.1113 214.914 70.2227 215.017 70.3691 215.075C70.5156 215.128 70.7002 215.154 70.9229 215.154C71.0811 215.154 71.2217 215.148 71.3447 215.137C71.4736 215.119 71.582 215.102 71.6699 215.084L71.6787 216.947C71.4619 217.018 71.2275 217.073 70.9756 217.114C70.7236 217.155 70.4453 217.176 70.1406 217.176C69.584 217.176 69.0977 217.085 68.6816 216.903C68.2715 216.716 67.9551 216.417 67.7324 216.007C67.5098 215.597 67.3984 215.058 67.3984 214.39V205.144ZM75.4756 203.5V217H72.9443V203.5H75.4756ZM75.1152 211.911H74.4209C74.4268 211.249 74.5146 210.64 74.6846 210.083C74.8545 209.521 75.0977 209.034 75.4141 208.624C75.7305 208.208 76.1084 207.886 76.5479 207.657C76.9932 207.429 77.4854 207.314 78.0244 207.314C78.4932 207.314 78.918 207.382 79.2988 207.517C79.6855 207.646 80.0166 207.856 80.292 208.149C80.5732 208.437 80.79 208.814 80.9424 209.283C81.0947 209.752 81.1709 210.32 81.1709 210.988V217H78.6221V210.971C78.6221 210.549 78.5605 210.218 78.4375 209.978C78.3203 209.731 78.1475 209.559 77.9189 209.459C77.6963 209.354 77.4209 209.301 77.0928 209.301C76.7295 209.301 76.4189 209.368 76.1611 209.503C75.9092 209.638 75.707 209.825 75.5547 210.065C75.4023 210.3 75.291 210.575 75.2207 210.892C75.1504 211.208 75.1152 211.548 75.1152 211.911ZM82.6914 212.342V212.157C82.6914 211.46 82.791 210.818 82.9902 210.232C83.1895 209.641 83.4795 209.128 83.8604 208.694C84.2412 208.261 84.71 207.924 85.2666 207.684C85.8232 207.438 86.4619 207.314 87.1826 207.314C87.9033 207.314 88.5449 207.438 89.1074 207.684C89.6699 207.924 90.1416 208.261 90.5225 208.694C90.9092 209.128 91.2021 209.641 91.4014 210.232C91.6006 210.818 91.7002 211.46 91.7002 212.157V212.342C91.7002 213.033 91.6006 213.675 91.4014 214.267C91.2021 214.853 90.9092 215.365 90.5225 215.805C90.1416 216.238 89.6729 216.575 89.1162 216.815C88.5596 217.056 87.9209 217.176 87.2002 217.176C86.4795 217.176 85.8379 217.056 85.2754 216.815C84.7188 216.575 84.2471 216.238 83.8604 215.805C83.4795 215.365 83.1895 214.853 82.9902 214.267C82.791 213.675 82.6914 213.033 82.6914 212.342ZM85.2227 212.157V212.342C85.2227 212.74 85.2578 213.112 85.3281 213.458C85.3984 213.804 85.5098 214.108 85.6621 214.372C85.8203 214.63 86.0254 214.832 86.2773 214.979C86.5293 215.125 86.8369 215.198 87.2002 215.198C87.5518 215.198 87.8535 215.125 88.1055 214.979C88.3574 214.832 88.5596 214.63 88.7119 214.372C88.8643 214.108 88.9756 213.804 89.0459 213.458C89.1221 213.112 89.1602 212.74 89.1602 212.342V212.157C89.1602 211.771 89.1221 211.407 89.0459 211.067C88.9756 210.722 88.8613 210.417 88.7031 210.153C88.5508 209.884 88.3486 209.673 88.0967 209.521C87.8447 209.368 87.54 209.292 87.1826 209.292C86.8252 209.292 86.5205 209.368 86.2686 209.521C86.0225 209.673 85.8203 209.884 85.6621 210.153C85.5098 210.417 85.3984 210.722 85.3281 211.067C85.2578 211.407 85.2227 211.771 85.2227 212.157ZM95.9277 203.5V217H93.3877V203.5H95.9277ZM102.396 217.176C101.658 217.176 100.996 217.059 100.41 216.824C99.8242 216.584 99.3262 216.253 98.916 215.831C98.5117 215.409 98.2012 214.92 97.9844 214.363C97.7676 213.801 97.6592 213.203 97.6592 212.57V212.219C97.6592 211.498 97.7617 210.839 97.9668 210.241C98.1719 209.644 98.4648 209.125 98.8457 208.686C99.2324 208.246 99.7012 207.909 100.252 207.675C100.803 207.435 101.424 207.314 102.115 207.314C102.789 207.314 103.387 207.426 103.908 207.648C104.43 207.871 104.866 208.188 105.218 208.598C105.575 209.008 105.845 209.5 106.026 210.074C106.208 210.643 106.299 211.275 106.299 211.973V213.027H98.7402V211.34H103.812V211.146C103.812 210.795 103.747 210.481 103.618 210.206C103.495 209.925 103.308 209.702 103.056 209.538C102.804 209.374 102.481 209.292 102.089 209.292C101.755 209.292 101.468 209.365 101.228 209.512C100.987 209.658 100.791 209.863 100.639 210.127C100.492 210.391 100.381 210.701 100.305 211.059C100.234 211.41 100.199 211.797 100.199 212.219V212.57C100.199 212.951 100.252 213.303 100.357 213.625C100.469 213.947 100.624 214.226 100.823 214.46C101.028 214.694 101.274 214.876 101.562 215.005C101.854 215.134 102.186 215.198 102.555 215.198C103.012 215.198 103.437 215.11 103.829 214.935C104.228 214.753 104.57 214.48 104.857 214.117L106.088 215.453C105.889 215.74 105.616 216.016 105.271 216.279C104.931 216.543 104.521 216.76 104.04 216.93C103.56 217.094 103.012 217.176 102.396 217.176ZM113.207 204.203L108.514 218.099H106.633L111.326 204.203H113.207ZM121.996 212.755H124.624C124.571 213.616 124.334 214.381 123.912 215.049C123.496 215.717 122.913 216.238 122.163 216.613C121.419 216.988 120.522 217.176 119.474 217.176C118.653 217.176 117.918 217.035 117.268 216.754C116.617 216.467 116.061 216.057 115.598 215.523C115.141 214.99 114.792 214.346 114.552 213.59C114.312 212.834 114.191 211.987 114.191 211.05V210.162C114.191 209.225 114.314 208.378 114.561 207.622C114.812 206.86 115.17 206.213 115.633 205.68C116.102 205.146 116.661 204.736 117.312 204.449C117.962 204.162 118.688 204.019 119.491 204.019C120.558 204.019 121.457 204.212 122.189 204.599C122.928 204.985 123.499 205.519 123.903 206.198C124.313 206.878 124.56 207.651 124.642 208.519H122.005C121.976 208.003 121.873 207.566 121.697 207.209C121.521 206.846 121.255 206.573 120.897 206.392C120.546 206.204 120.077 206.11 119.491 206.11C119.052 206.11 118.668 206.192 118.34 206.356C118.012 206.521 117.736 206.77 117.514 207.104C117.291 207.438 117.124 207.859 117.013 208.369C116.907 208.873 116.854 209.465 116.854 210.145V211.05C116.854 211.712 116.904 212.295 117.004 212.799C117.104 213.297 117.256 213.719 117.461 214.064C117.672 214.404 117.941 214.662 118.27 214.838C118.604 215.008 119.005 215.093 119.474 215.093C120.024 215.093 120.479 215.005 120.836 214.829C121.193 214.653 121.466 214.393 121.653 214.047C121.847 213.701 121.961 213.271 121.996 212.755ZM125.793 212.342V212.157C125.793 211.46 125.893 210.818 126.092 210.232C126.291 209.641 126.581 209.128 126.962 208.694C127.343 208.261 127.812 207.924 128.368 207.684C128.925 207.438 129.563 207.314 130.284 207.314C131.005 207.314 131.646 207.438 132.209 207.684C132.771 207.924 133.243 208.261 133.624 208.694C134.011 209.128 134.304 209.641 134.503 210.232C134.702 210.818 134.802 211.46 134.802 212.157V212.342C134.802 213.033 134.702 213.675 134.503 214.267C134.304 214.853 134.011 215.365 133.624 215.805C133.243 216.238 132.774 216.575 132.218 216.815C131.661 217.056 131.022 217.176 130.302 217.176C129.581 217.176 128.939 217.056 128.377 216.815C127.82 216.575 127.349 216.238 126.962 215.805C126.581 215.365 126.291 214.853 126.092 214.267C125.893 213.675 125.793 213.033 125.793 212.342ZM128.324 212.157V212.342C128.324 212.74 128.359 213.112 128.43 213.458C128.5 213.804 128.611 214.108 128.764 214.372C128.922 214.63 129.127 214.832 129.379 214.979C129.631 215.125 129.938 215.198 130.302 215.198C130.653 215.198 130.955 215.125 131.207 214.979C131.459 214.832 131.661 214.63 131.813 214.372C131.966 214.108 132.077 213.804 132.147 213.458C132.224 213.112 132.262 212.74 132.262 212.342V212.157C132.262 211.771 132.224 211.407 132.147 211.067C132.077 210.722 131.963 210.417 131.805 210.153C131.652 209.884 131.45 209.673 131.198 209.521C130.946 209.368 130.642 209.292 130.284 209.292C129.927 209.292 129.622 209.368 129.37 209.521C129.124 209.673 128.922 209.884 128.764 210.153C128.611 210.417 128.5 210.722 128.43 211.067C128.359 211.407 128.324 211.771 128.324 212.157ZM139.029 203.5V217H136.489V203.5H139.029ZM143.793 203.5V217H141.253V203.5H143.793ZM151.018 214.855V210.619C151.018 210.314 150.968 210.054 150.868 209.837C150.769 209.614 150.613 209.441 150.402 209.318C150.197 209.195 149.931 209.134 149.603 209.134C149.321 209.134 149.078 209.184 148.873 209.283C148.668 209.377 148.51 209.515 148.398 209.696C148.287 209.872 148.231 210.08 148.231 210.32H145.7C145.7 209.916 145.794 209.532 145.981 209.169C146.169 208.806 146.441 208.486 146.799 208.211C147.156 207.93 147.581 207.71 148.073 207.552C148.571 207.394 149.128 207.314 149.743 207.314C150.481 207.314 151.138 207.438 151.712 207.684C152.286 207.93 152.737 208.299 153.065 208.791C153.399 209.283 153.566 209.898 153.566 210.637V214.706C153.566 215.228 153.599 215.655 153.663 215.989C153.728 216.317 153.821 216.604 153.944 216.851V217H151.387C151.264 216.742 151.17 216.42 151.105 216.033C151.047 215.641 151.018 215.248 151.018 214.855ZM151.352 211.208L151.369 212.641H149.954C149.62 212.641 149.33 212.679 149.084 212.755C148.838 212.831 148.636 212.939 148.478 213.08C148.319 213.215 148.202 213.373 148.126 213.555C148.056 213.736 148.021 213.936 148.021 214.152C148.021 214.369 148.07 214.565 148.17 214.741C148.27 214.911 148.413 215.046 148.601 215.146C148.788 215.239 149.008 215.286 149.26 215.286C149.641 215.286 149.972 215.21 150.253 215.058C150.534 214.905 150.751 214.718 150.903 214.495C151.062 214.272 151.144 214.062 151.149 213.862L151.817 214.935C151.724 215.175 151.595 215.424 151.431 215.682C151.272 215.939 151.07 216.183 150.824 216.411C150.578 216.634 150.282 216.818 149.937 216.965C149.591 217.105 149.181 217.176 148.706 217.176C148.103 217.176 147.555 217.056 147.062 216.815C146.576 216.569 146.189 216.232 145.902 215.805C145.621 215.371 145.48 214.879 145.48 214.328C145.48 213.83 145.574 213.388 145.762 213.001C145.949 212.614 146.225 212.289 146.588 212.025C146.957 211.756 147.417 211.554 147.968 211.419C148.519 211.278 149.157 211.208 149.884 211.208H151.352ZM158.049 209.318V220.656H155.518V207.49H157.864L158.049 209.318ZM164.069 212.14V212.324C164.069 213.016 163.987 213.657 163.823 214.249C163.665 214.841 163.431 215.356 163.12 215.796C162.81 216.229 162.423 216.569 161.96 216.815C161.503 217.056 160.976 217.176 160.378 217.176C159.798 217.176 159.294 217.059 158.866 216.824C158.438 216.59 158.078 216.262 157.785 215.84C157.498 215.412 157.267 214.917 157.091 214.354C156.915 213.792 156.78 213.188 156.687 212.544V212.061C156.78 211.369 156.915 210.736 157.091 210.162C157.267 209.582 157.498 209.081 157.785 208.659C158.078 208.231 158.436 207.9 158.857 207.666C159.285 207.432 159.786 207.314 160.36 207.314C160.964 207.314 161.494 207.429 161.951 207.657C162.414 207.886 162.801 208.214 163.111 208.642C163.428 209.069 163.665 209.579 163.823 210.171C163.987 210.763 164.069 211.419 164.069 212.14ZM161.529 212.324V212.14C161.529 211.735 161.494 211.363 161.424 211.023C161.359 210.678 161.254 210.376 161.107 210.118C160.967 209.86 160.779 209.661 160.545 209.521C160.316 209.374 160.038 209.301 159.71 209.301C159.364 209.301 159.068 209.356 158.822 209.468C158.582 209.579 158.386 209.74 158.233 209.951C158.081 210.162 157.967 210.414 157.891 210.707C157.814 211 157.768 211.331 157.75 211.7V212.922C157.779 213.355 157.861 213.745 157.996 214.091C158.131 214.431 158.339 214.7 158.62 214.899C158.901 215.099 159.271 215.198 159.728 215.198C160.062 215.198 160.343 215.125 160.571 214.979C160.8 214.826 160.984 214.618 161.125 214.354C161.271 214.091 161.374 213.786 161.433 213.44C161.497 213.095 161.529 212.723 161.529 212.324ZM170.784 214.372C170.784 214.19 170.731 214.026 170.626 213.88C170.521 213.733 170.324 213.599 170.037 213.476C169.756 213.347 169.349 213.229 168.815 213.124C168.335 213.019 167.887 212.887 167.471 212.729C167.061 212.564 166.703 212.368 166.398 212.14C166.1 211.911 165.865 211.642 165.695 211.331C165.525 211.015 165.44 210.654 165.44 210.25C165.44 209.852 165.525 209.477 165.695 209.125C165.871 208.773 166.12 208.463 166.442 208.193C166.771 207.918 167.169 207.704 167.638 207.552C168.112 207.394 168.646 207.314 169.237 207.314C170.063 207.314 170.772 207.446 171.364 207.71C171.962 207.974 172.419 208.337 172.735 208.8C173.058 209.257 173.219 209.778 173.219 210.364H170.688C170.688 210.118 170.635 209.898 170.529 209.705C170.43 209.506 170.271 209.351 170.055 209.239C169.844 209.122 169.568 209.063 169.229 209.063C168.947 209.063 168.704 209.113 168.499 209.213C168.294 209.307 168.136 209.436 168.024 209.6C167.919 209.758 167.866 209.934 167.866 210.127C167.866 210.273 167.896 210.405 167.954 210.522C168.019 210.634 168.121 210.736 168.262 210.83C168.402 210.924 168.584 211.012 168.807 211.094C169.035 211.17 169.316 211.24 169.65 211.305C170.336 211.445 170.948 211.63 171.487 211.858C172.026 212.081 172.454 212.386 172.771 212.772C173.087 213.153 173.245 213.654 173.245 214.275C173.245 214.697 173.151 215.084 172.964 215.436C172.776 215.787 172.507 216.095 172.155 216.358C171.804 216.616 171.382 216.818 170.89 216.965C170.403 217.105 169.855 217.176 169.246 217.176C168.361 217.176 167.611 217.018 166.996 216.701C166.387 216.385 165.924 215.983 165.607 215.497C165.297 215.005 165.142 214.501 165.142 213.985H167.541C167.553 214.331 167.641 214.609 167.805 214.82C167.975 215.031 168.188 215.184 168.446 215.277C168.71 215.371 168.994 215.418 169.299 215.418C169.627 215.418 169.899 215.374 170.116 215.286C170.333 215.192 170.497 215.069 170.608 214.917C170.726 214.759 170.784 214.577 170.784 214.372ZM179.266 217.176C178.527 217.176 177.865 217.059 177.279 216.824C176.693 216.584 176.195 216.253 175.785 215.831C175.381 215.409 175.07 214.92 174.854 214.363C174.637 213.801 174.528 213.203 174.528 212.57V212.219C174.528 211.498 174.631 210.839 174.836 210.241C175.041 209.644 175.334 209.125 175.715 208.686C176.102 208.246 176.57 207.909 177.121 207.675C177.672 207.435 178.293 207.314 178.984 207.314C179.658 207.314 180.256 207.426 180.777 207.648C181.299 207.871 181.735 208.188 182.087 208.598C182.444 209.008 182.714 209.5 182.896 210.074C183.077 210.643 183.168 211.275 183.168 211.973V213.027H175.609V211.34H180.681V211.146C180.681 210.795 180.616 210.481 180.487 210.206C180.364 209.925 180.177 209.702 179.925 209.538C179.673 209.374 179.351 209.292 178.958 209.292C178.624 209.292 178.337 209.365 178.097 209.512C177.856 209.658 177.66 209.863 177.508 210.127C177.361 210.391 177.25 210.701 177.174 211.059C177.104 211.41 177.068 211.797 177.068 212.219V212.57C177.068 212.951 177.121 213.303 177.227 213.625C177.338 213.947 177.493 214.226 177.692 214.46C177.897 214.694 178.144 214.876 178.431 215.005C178.724 215.134 179.055 215.198 179.424 215.198C179.881 215.198 180.306 215.11 180.698 214.935C181.097 214.753 181.439 214.48 181.727 214.117L182.957 215.453C182.758 215.74 182.485 216.016 182.14 216.279C181.8 216.543 181.39 216.76 180.909 216.93C180.429 217.094 179.881 217.176 179.266 217.176ZM190.226 214.926V203.5H192.774V217H190.48L190.226 214.926ZM184.214 212.359V212.175C184.214 211.448 184.296 210.789 184.46 210.197C184.624 209.6 184.864 209.087 185.181 208.659C185.497 208.231 185.887 207.9 186.35 207.666C186.812 207.432 187.34 207.314 187.932 207.314C188.488 207.314 188.975 207.432 189.391 207.666C189.812 207.9 190.17 208.234 190.463 208.668C190.762 209.096 191.002 209.603 191.184 210.188C191.365 210.769 191.497 211.404 191.579 212.096V212.5C191.497 213.162 191.365 213.777 191.184 214.346C191.002 214.914 190.762 215.412 190.463 215.84C190.17 216.262 189.812 216.59 189.391 216.824C188.969 217.059 188.477 217.176 187.914 217.176C187.322 217.176 186.795 217.056 186.332 216.815C185.875 216.575 185.488 216.238 185.172 215.805C184.861 215.371 184.624 214.861 184.46 214.275C184.296 213.689 184.214 213.051 184.214 212.359ZM186.745 212.175V212.359C186.745 212.752 186.774 213.118 186.833 213.458C186.897 213.798 187 214.1 187.141 214.363C187.287 214.621 187.475 214.823 187.703 214.97C187.938 215.11 188.222 215.181 188.556 215.181C188.989 215.181 189.347 215.084 189.628 214.891C189.909 214.691 190.123 214.419 190.27 214.073C190.422 213.728 190.51 213.329 190.533 212.878V211.727C190.516 211.357 190.463 211.026 190.375 210.733C190.293 210.435 190.17 210.18 190.006 209.969C189.848 209.758 189.648 209.594 189.408 209.477C189.174 209.359 188.896 209.301 188.573 209.301C188.245 209.301 187.964 209.377 187.729 209.529C187.495 209.676 187.305 209.878 187.158 210.136C187.018 210.394 186.912 210.698 186.842 211.05C186.777 211.396 186.745 211.771 186.745 212.175ZM199.393 204.203H204.165C205.144 204.203 205.984 204.35 206.688 204.643C207.396 204.936 207.941 205.369 208.322 205.943C208.703 206.518 208.894 207.224 208.894 208.062C208.894 208.747 208.776 209.336 208.542 209.828C208.313 210.314 207.988 210.722 207.566 211.05C207.15 211.372 206.661 211.63 206.099 211.823L205.264 212.263H201.115L201.098 210.206H204.183C204.646 210.206 205.029 210.124 205.334 209.96C205.639 209.796 205.867 209.567 206.02 209.274C206.178 208.981 206.257 208.642 206.257 208.255C206.257 207.845 206.181 207.49 206.028 207.191C205.876 206.893 205.645 206.664 205.334 206.506C205.023 206.348 204.634 206.269 204.165 206.269H202.029V217H199.393V204.203ZM206.547 217L203.629 211.296L206.415 211.278L209.368 216.877V217H206.547ZM210.361 212.342V212.157C210.361 211.46 210.461 210.818 210.66 210.232C210.859 209.641 211.149 209.128 211.53 208.694C211.911 208.261 212.38 207.924 212.937 207.684C213.493 207.438 214.132 207.314 214.853 207.314C215.573 207.314 216.215 207.438 216.777 207.684C217.34 207.924 217.812 208.261 218.192 208.694C218.579 209.128 218.872 209.641 219.071 210.232C219.271 210.818 219.37 211.46 219.37 212.157V212.342C219.37 213.033 219.271 213.675 219.071 214.267C218.872 214.853 218.579 215.365 218.192 215.805C217.812 216.238 217.343 216.575 216.786 216.815C216.229 217.056 215.591 217.176 214.87 217.176C214.149 217.176 213.508 217.056 212.945 216.815C212.389 216.575 211.917 216.238 211.53 215.805C211.149 215.365 210.859 214.853 210.66 214.267C210.461 213.675 210.361 213.033 210.361 212.342ZM212.893 212.157V212.342C212.893 212.74 212.928 213.112 212.998 213.458C213.068 213.804 213.18 214.108 213.332 214.372C213.49 214.63 213.695 214.832 213.947 214.979C214.199 215.125 214.507 215.198 214.87 215.198C215.222 215.198 215.523 215.125 215.775 214.979C216.027 214.832 216.229 214.63 216.382 214.372C216.534 214.108 216.646 213.804 216.716 213.458C216.792 213.112 216.83 212.74 216.83 212.342V212.157C216.83 211.771 216.792 211.407 216.716 211.067C216.646 210.722 216.531 210.417 216.373 210.153C216.221 209.884 216.019 209.673 215.767 209.521C215.515 209.368 215.21 209.292 214.853 209.292C214.495 209.292 214.19 209.368 213.938 209.521C213.692 209.673 213.49 209.884 213.332 210.153C213.18 210.417 213.068 210.722 212.998 211.067C212.928 211.407 212.893 211.771 212.893 212.157ZM226.059 214.855V210.619C226.059 210.314 226.009 210.054 225.909 209.837C225.81 209.614 225.654 209.441 225.443 209.318C225.238 209.195 224.972 209.134 224.644 209.134C224.362 209.134 224.119 209.184 223.914 209.283C223.709 209.377 223.551 209.515 223.439 209.696C223.328 209.872 223.272 210.08 223.272 210.32H220.741C220.741 209.916 220.835 209.532 221.022 209.169C221.21 208.806 221.482 208.486 221.84 208.211C222.197 207.93 222.622 207.71 223.114 207.552C223.612 207.394 224.169 207.314 224.784 207.314C225.522 207.314 226.179 207.438 226.753 207.684C227.327 207.93 227.778 208.299 228.106 208.791C228.44 209.283 228.607 209.898 228.607 210.637V214.706C228.607 215.228 228.64 215.655 228.704 215.989C228.769 216.317 228.862 216.604 228.985 216.851V217H226.428C226.305 216.742 226.211 216.42 226.146 216.033C226.088 215.641 226.059 215.248 226.059 214.855ZM226.393 211.208L226.41 212.641H224.995C224.661 212.641 224.371 212.679 224.125 212.755C223.879 212.831 223.677 212.939 223.519 213.08C223.36 213.215 223.243 213.373 223.167 213.555C223.097 213.736 223.062 213.936 223.062 214.152C223.062 214.369 223.111 214.565 223.211 214.741C223.311 214.911 223.454 215.046 223.642 215.146C223.829 215.239 224.049 215.286 224.301 215.286C224.682 215.286 225.013 215.21 225.294 215.058C225.575 214.905 225.792 214.718 225.944 214.495C226.103 214.272 226.185 214.062 226.19 213.862L226.858 214.935C226.765 215.175 226.636 215.424 226.472 215.682C226.313 215.939 226.111 216.183 225.865 216.411C225.619 216.634 225.323 216.818 224.978 216.965C224.632 217.105 224.222 217.176 223.747 217.176C223.144 217.176 222.596 217.056 222.104 216.815C221.617 216.569 221.23 216.232 220.943 215.805C220.662 215.371 220.521 214.879 220.521 214.328C220.521 213.83 220.615 213.388 220.803 213.001C220.99 212.614 221.266 212.289 221.629 212.025C221.998 211.756 222.458 211.554 223.009 211.419C223.56 211.278 224.198 211.208 224.925 211.208H226.393ZM236.175 214.926V203.5H238.724V217H236.43L236.175 214.926ZM230.163 212.359V212.175C230.163 211.448 230.245 210.789 230.409 210.197C230.573 209.6 230.813 209.087 231.13 208.659C231.446 208.231 231.836 207.9 232.299 207.666C232.762 207.432 233.289 207.314 233.881 207.314C234.438 207.314 234.924 207.432 235.34 207.666C235.762 207.9 236.119 208.234 236.412 208.668C236.711 209.096 236.951 209.603 237.133 210.188C237.314 210.769 237.446 211.404 237.528 212.096V212.5C237.446 213.162 237.314 213.777 237.133 214.346C236.951 214.914 236.711 215.412 236.412 215.84C236.119 216.262 235.762 216.59 235.34 216.824C234.918 217.059 234.426 217.176 233.863 217.176C233.271 217.176 232.744 217.056 232.281 216.815C231.824 216.575 231.438 216.238 231.121 215.805C230.811 215.371 230.573 214.861 230.409 214.275C230.245 213.689 230.163 213.051 230.163 212.359ZM232.694 212.175V212.359C232.694 212.752 232.724 213.118 232.782 213.458C232.847 213.798 232.949 214.1 233.09 214.363C233.236 214.621 233.424 214.823 233.652 214.97C233.887 215.11 234.171 215.181 234.505 215.181C234.938 215.181 235.296 215.084 235.577 214.891C235.858 214.691 236.072 214.419 236.219 214.073C236.371 213.728 236.459 213.329 236.482 212.878V211.727C236.465 211.357 236.412 211.026 236.324 210.733C236.242 210.435 236.119 210.18 235.955 209.969C235.797 209.758 235.598 209.594 235.357 209.477C235.123 209.359 234.845 209.301 234.522 209.301C234.194 209.301 233.913 209.377 233.679 209.529C233.444 209.676 233.254 209.878 233.107 210.136C232.967 210.394 232.861 210.698 232.791 211.05C232.727 211.396 232.694 211.771 232.694 212.175Z" fill="#0066CC"/>
<path d="M19.2695 245.582V247.533C19.2695 248.582 19.1758 249.467 18.9883 250.188C18.8008 250.908 18.5312 251.488 18.1797 251.928C17.8281 252.367 17.4033 252.687 16.9053 252.886C16.4131 253.079 15.8564 253.176 15.2354 253.176C14.7432 253.176 14.2891 253.114 13.873 252.991C13.457 252.868 13.082 252.672 12.748 252.402C12.4199 252.127 12.1387 251.77 11.9043 251.33C11.6699 250.891 11.4912 250.357 11.3682 249.73C11.2451 249.104 11.1836 248.371 11.1836 247.533V245.582C11.1836 244.533 11.2773 243.654 11.4648 242.945C11.6582 242.236 11.9307 241.668 12.2822 241.24C12.6338 240.807 13.0557 240.496 13.5479 240.309C14.0459 240.121 14.6025 240.027 15.2178 240.027C15.7158 240.027 16.1729 240.089 16.5889 240.212C17.0107 240.329 17.3857 240.52 17.7139 240.783C18.042 241.041 18.3203 241.387 18.5488 241.82C18.7832 242.248 18.9619 242.772 19.085 243.394C19.208 244.015 19.2695 244.744 19.2695 245.582ZM17.6348 247.797V245.31C17.6348 244.735 17.5996 244.231 17.5293 243.798C17.4648 243.358 17.3682 242.983 17.2393 242.673C17.1104 242.362 16.9463 242.11 16.7471 241.917C16.5537 241.724 16.3281 241.583 16.0703 241.495C15.8184 241.401 15.5342 241.354 15.2178 241.354C14.8311 241.354 14.4883 241.428 14.1895 241.574C13.8906 241.715 13.6387 241.94 13.4336 242.251C13.2344 242.562 13.082 242.969 12.9766 243.473C12.8711 243.977 12.8184 244.589 12.8184 245.31V247.797C12.8184 248.371 12.8506 248.878 12.915 249.317C12.9854 249.757 13.0879 250.138 13.2227 250.46C13.3574 250.776 13.5215 251.037 13.7148 251.242C13.9082 251.447 14.1309 251.6 14.3828 251.699C14.6406 251.793 14.9248 251.84 15.2354 251.84C15.6338 251.84 15.9824 251.764 16.2812 251.611C16.5801 251.459 16.8291 251.222 17.0283 250.899C17.2334 250.571 17.3857 250.152 17.4854 249.643C17.585 249.127 17.6348 248.512 17.6348 247.797ZM22.9785 251.638H23.1455C24.083 251.638 24.8447 251.506 25.4307 251.242C26.0166 250.979 26.4678 250.624 26.7842 250.179C27.1006 249.733 27.3174 249.232 27.4346 248.676C27.5518 248.113 27.6104 247.536 27.6104 246.944V244.984C27.6104 244.404 27.543 243.889 27.4082 243.438C27.2793 242.986 27.0977 242.608 26.8633 242.304C26.6348 241.999 26.374 241.768 26.0811 241.609C25.7881 241.451 25.4775 241.372 25.1494 241.372C24.7744 241.372 24.4375 241.448 24.1387 241.601C23.8457 241.747 23.5967 241.955 23.3916 242.225C23.1924 242.494 23.04 242.811 22.9346 243.174C22.8291 243.537 22.7764 243.933 22.7764 244.36C22.7764 244.741 22.8232 245.11 22.917 245.468C23.0107 245.825 23.1543 246.147 23.3477 246.435C23.541 246.722 23.7812 246.95 24.0684 247.12C24.3613 247.284 24.7041 247.366 25.0967 247.366C25.46 247.366 25.7998 247.296 26.1162 247.155C26.4385 247.009 26.7227 246.812 26.9688 246.566C27.2207 246.314 27.4199 246.03 27.5664 245.714C27.7188 245.397 27.8066 245.066 27.8301 244.721H28.6035C28.6035 245.207 28.5068 245.688 28.3135 246.162C28.126 246.631 27.8623 247.059 27.5225 247.445C27.1826 247.832 26.7842 248.143 26.3271 248.377C25.8701 248.605 25.3721 248.72 24.833 248.72C24.2002 248.72 23.6523 248.597 23.1895 248.351C22.7266 248.104 22.3457 247.776 22.0469 247.366C21.7539 246.956 21.5342 246.499 21.3877 245.995C21.2471 245.485 21.1768 244.97 21.1768 244.448C21.1768 243.839 21.2617 243.268 21.4316 242.734C21.6016 242.201 21.8535 241.732 22.1875 241.328C22.5215 240.918 22.9346 240.599 23.4268 240.37C23.9248 240.142 24.499 240.027 25.1494 240.027C25.8818 240.027 26.5059 240.174 27.0215 240.467C27.5371 240.76 27.9561 241.152 28.2783 241.645C28.6064 242.137 28.8467 242.69 28.999 243.306C29.1514 243.921 29.2275 244.554 29.2275 245.204V245.793C29.2275 246.455 29.1836 247.129 29.0957 247.814C29.0137 248.494 28.8525 249.145 28.6123 249.766C28.3779 250.387 28.0352 250.943 27.584 251.436C27.1328 251.922 26.5439 252.309 25.8174 252.596C25.0967 252.877 24.2061 253.018 23.1455 253.018H22.9785V251.638ZM39.5195 245.582V247.533C39.5195 248.582 39.4258 249.467 39.2383 250.188C39.0508 250.908 38.7812 251.488 38.4297 251.928C38.0781 252.367 37.6533 252.687 37.1553 252.886C36.6631 253.079 36.1064 253.176 35.4854 253.176C34.9932 253.176 34.5391 253.114 34.123 252.991C33.707 252.868 33.332 252.672 32.998 252.402C32.6699 252.127 32.3887 251.77 32.1543 251.33C31.9199 250.891 31.7412 250.357 31.6182 249.73C31.4951 249.104 31.4336 248.371 31.4336 247.533V245.582C31.4336 244.533 31.5273 243.654 31.7148 242.945C31.9082 242.236 32.1807 241.668 32.5322 241.24C32.8838 240.807 33.3057 240.496 33.7979 240.309C34.2959 240.121 34.8525 240.027 35.4678 240.027C35.9658 240.027 36.4229 240.089 36.8389 240.212C37.2607 240.329 37.6357 240.52 37.9639 240.783C38.292 241.041 38.5703 241.387 38.7988 241.82C39.0332 242.248 39.2119 242.772 39.335 243.394C39.458 244.015 39.5195 244.744 39.5195 245.582ZM37.8848 247.797V245.31C37.8848 244.735 37.8496 244.231 37.7793 243.798C37.7148 243.358 37.6182 242.983 37.4893 242.673C37.3604 242.362 37.1963 242.11 36.9971 241.917C36.8037 241.724 36.5781 241.583 36.3203 241.495C36.0684 241.401 35.7842 241.354 35.4678 241.354C35.0811 241.354 34.7383 241.428 34.4395 241.574C34.1406 241.715 33.8887 241.94 33.6836 242.251C33.4844 242.562 33.332 242.969 33.2266 243.473C33.1211 243.977 33.0684 244.589 33.0684 245.31V247.797C33.0684 248.371 33.1006 248.878 33.165 249.317C33.2354 249.757 33.3379 250.138 33.4727 250.46C33.6074 250.776 33.7715 251.037 33.9648 251.242C34.1582 251.447 34.3809 251.6 34.6328 251.699C34.8906 251.793 35.1748 251.84 35.4854 251.84C35.8838 251.84 36.2324 251.764 36.5312 251.611C36.8301 251.459 37.0791 251.222 37.2783 250.899C37.4834 250.571 37.6357 250.152 37.7354 249.643C37.835 249.127 37.8848 248.512 37.8848 247.797ZM52.3164 240.186H52.457V241.565H52.3164C51.4551 241.565 50.7344 241.706 50.1543 241.987C49.5742 242.263 49.1143 242.635 48.7744 243.104C48.4346 243.566 48.1885 244.088 48.0361 244.668C47.8896 245.248 47.8164 245.837 47.8164 246.435V248.315C47.8164 248.884 47.8838 249.388 48.0186 249.827C48.1533 250.261 48.3379 250.627 48.5723 250.926C48.8066 251.225 49.0703 251.45 49.3633 251.603C49.6621 251.755 49.9727 251.831 50.2949 251.831C50.6699 251.831 51.0039 251.761 51.2969 251.62C51.5898 251.474 51.8359 251.271 52.0352 251.014C52.2402 250.75 52.3955 250.439 52.501 250.082C52.6064 249.725 52.6592 249.332 52.6592 248.904C52.6592 248.523 52.6123 248.157 52.5186 247.806C52.4248 247.448 52.2812 247.132 52.0879 246.856C51.8945 246.575 51.6514 246.355 51.3584 246.197C51.0713 246.033 50.7285 245.951 50.3301 245.951C49.8789 245.951 49.457 246.062 49.0645 246.285C48.6777 246.502 48.3584 246.789 48.1064 247.146C47.8604 247.498 47.7197 247.882 47.6846 248.298L46.8232 248.289C46.9053 247.633 47.0576 247.073 47.2803 246.61C47.5088 246.142 47.79 245.761 48.124 245.468C48.4639 245.169 48.8418 244.952 49.2578 244.817C49.6797 244.677 50.125 244.606 50.5938 244.606C51.2324 244.606 51.7832 244.727 52.2461 244.967C52.709 245.207 53.0898 245.529 53.3887 245.934C53.6875 246.332 53.9072 246.783 54.0479 247.287C54.1943 247.785 54.2676 248.298 54.2676 248.825C54.2676 249.429 54.1826 249.994 54.0127 250.521C53.8428 251.049 53.5879 251.512 53.248 251.91C52.9141 252.309 52.501 252.619 52.0088 252.842C51.5166 253.064 50.9453 253.176 50.2949 253.176C49.6035 253.176 49 253.035 48.4844 252.754C47.9688 252.467 47.541 252.086 47.2012 251.611C46.8613 251.137 46.6064 250.609 46.4365 250.029C46.2666 249.449 46.1816 248.86 46.1816 248.263V247.498C46.1816 246.596 46.2725 245.711 46.4541 244.844C46.6357 243.977 46.9492 243.191 47.3945 242.488C47.8457 241.785 48.4697 241.226 49.2666 240.81C50.0635 240.394 51.0801 240.186 52.3164 240.186ZM64.4717 240.203V241.117L59.1719 253H57.458L62.749 241.539H55.8232V240.203H64.4717ZM74.3594 245.582V247.533C74.3594 248.582 74.2656 249.467 74.0781 250.188C73.8906 250.908 73.6211 251.488 73.2695 251.928C72.918 252.367 72.4932 252.687 71.9951 252.886C71.5029 253.079 70.9463 253.176 70.3252 253.176C69.833 253.176 69.3789 253.114 68.9629 252.991C68.5469 252.868 68.1719 252.672 67.8379 252.402C67.5098 252.127 67.2285 251.77 66.9941 251.33C66.7598 250.891 66.5811 250.357 66.458 249.73C66.335 249.104 66.2734 248.371 66.2734 247.533V245.582C66.2734 244.533 66.3672 243.654 66.5547 242.945C66.748 242.236 67.0205 241.668 67.3721 241.24C67.7236 240.807 68.1455 240.496 68.6377 240.309C69.1357 240.121 69.6924 240.027 70.3076 240.027C70.8057 240.027 71.2627 240.089 71.6787 240.212C72.1006 240.329 72.4756 240.52 72.8037 240.783C73.1318 241.041 73.4102 241.387 73.6387 241.82C73.873 242.248 74.0518 242.772 74.1748 243.394C74.2979 244.015 74.3594 244.744 74.3594 245.582ZM72.7246 247.797V245.31C72.7246 244.735 72.6895 244.231 72.6191 243.798C72.5547 243.358 72.458 242.983 72.3291 242.673C72.2002 242.362 72.0361 242.11 71.8369 241.917C71.6436 241.724 71.418 241.583 71.1602 241.495C70.9082 241.401 70.624 241.354 70.3076 241.354C69.9209 241.354 69.5781 241.428 69.2793 241.574C68.9805 241.715 68.7285 241.94 68.5234 242.251C68.3242 242.562 68.1719 242.969 68.0664 243.473C67.9609 243.977 67.9082 244.589 67.9082 245.31V247.797C67.9082 248.371 67.9404 248.878 68.0049 249.317C68.0752 249.757 68.1777 250.138 68.3125 250.46C68.4473 250.776 68.6113 251.037 68.8047 251.242C68.998 251.447 69.2207 251.6 69.4727 251.699C69.7305 251.793 70.0146 251.84 70.3252 251.84C70.7236 251.84 71.0723 251.764 71.3711 251.611C71.6699 251.459 71.9189 251.222 72.1182 250.899C72.3232 250.571 72.4756 250.152 72.5752 249.643C72.6748 249.127 72.7246 248.512 72.7246 247.797ZM85.0996 248.693V250.029H75.8535V249.071L81.584 240.203H82.9111L81.4873 242.77L77.6992 248.693H85.0996ZM83.3154 240.203V253H81.6895V240.203H83.3154ZM99.6895 248.693V250.029H90.4434V249.071L96.1738 240.203H97.501L96.0771 242.77L92.2891 248.693H99.6895ZM97.9053 240.203V253H96.2793V240.203H97.9053ZM109.814 248.693V250.029H100.568V249.071L106.299 240.203H107.626L106.202 242.77L102.414 248.693H109.814ZM108.03 240.203V253H106.404V240.203H108.03ZM119.939 248.693V250.029H110.693V249.071L116.424 240.203H117.751L116.327 242.77L112.539 248.693H119.939ZM118.155 240.203V253H116.529V240.203H118.155ZM130.064 248.693V250.029H120.818V249.071L126.549 240.203H127.876L126.452 242.77L122.664 248.693H130.064ZM128.28 240.203V253H126.654V240.203H128.28ZM131.655 247.885V247.797C131.655 246.52 131.799 245.365 132.086 244.334C132.373 243.297 132.739 242.389 133.185 241.609C133.63 240.83 134.099 240.186 134.591 239.676C135.083 239.16 135.537 238.788 135.953 238.56L136.296 239.632C135.95 239.896 135.599 240.259 135.241 240.722C134.89 241.185 134.564 241.753 134.266 242.427C133.973 243.101 133.735 243.883 133.554 244.773C133.372 245.664 133.281 246.666 133.281 247.779V247.902C133.281 249.016 133.372 250.021 133.554 250.917C133.735 251.808 133.973 252.593 134.266 253.272C134.564 253.952 134.89 254.529 135.241 255.004C135.599 255.484 135.95 255.865 136.296 256.146L135.953 257.131C135.537 256.902 135.083 256.53 134.591 256.015C134.099 255.505 133.63 254.86 133.185 254.081C132.739 253.308 132.373 252.402 132.086 251.365C131.799 250.328 131.655 249.168 131.655 247.885ZM142.861 240.203V253H141.191V240.203H142.861ZM146.975 240.203V241.592H137.087V240.203H146.975ZM151.694 253.176C151.032 253.176 150.432 253.064 149.893 252.842C149.359 252.613 148.899 252.294 148.513 251.884C148.132 251.474 147.839 250.987 147.634 250.425C147.429 249.862 147.326 249.247 147.326 248.579V248.21C147.326 247.437 147.44 246.748 147.669 246.145C147.897 245.535 148.208 245.02 148.601 244.598C148.993 244.176 149.438 243.856 149.937 243.64C150.435 243.423 150.95 243.314 151.483 243.314C152.163 243.314 152.749 243.432 153.241 243.666C153.739 243.9 154.146 244.229 154.463 244.65C154.779 245.066 155.014 245.559 155.166 246.127C155.318 246.689 155.395 247.305 155.395 247.973V248.702H148.293V247.375H153.769V247.252C153.745 246.83 153.657 246.42 153.505 246.021C153.358 245.623 153.124 245.295 152.802 245.037C152.479 244.779 152.04 244.65 151.483 244.65C151.114 244.65 150.774 244.729 150.464 244.888C150.153 245.04 149.887 245.269 149.664 245.573C149.441 245.878 149.269 246.25 149.146 246.689C149.022 247.129 148.961 247.636 148.961 248.21V248.579C148.961 249.03 149.022 249.455 149.146 249.854C149.274 250.246 149.459 250.592 149.699 250.891C149.945 251.189 150.241 251.424 150.587 251.594C150.938 251.764 151.337 251.849 151.782 251.849C152.356 251.849 152.843 251.731 153.241 251.497C153.64 251.263 153.988 250.949 154.287 250.557L155.271 251.339C155.066 251.649 154.806 251.945 154.489 252.227C154.173 252.508 153.783 252.736 153.32 252.912C152.863 253.088 152.321 253.176 151.694 253.176ZM158.392 243.49L160.475 246.953L162.584 243.49H164.491L161.38 248.184L164.588 253H162.707L160.51 249.432L158.312 253H156.423L159.622 248.184L156.52 243.49H158.392ZM170.204 243.49V244.738H165.062V243.49H170.204ZM166.803 241.179H168.429V250.645C168.429 250.967 168.479 251.21 168.578 251.374C168.678 251.538 168.807 251.646 168.965 251.699C169.123 251.752 169.293 251.778 169.475 251.778C169.609 251.778 169.75 251.767 169.896 251.743C170.049 251.714 170.163 251.69 170.239 251.673L170.248 253C170.119 253.041 169.949 253.079 169.738 253.114C169.533 253.155 169.284 253.176 168.991 253.176C168.593 253.176 168.227 253.097 167.893 252.938C167.559 252.78 167.292 252.517 167.093 252.147C166.899 251.772 166.803 251.269 166.803 250.636V241.179ZM178.94 245.898L180.856 244.536C181.226 244.284 181.51 244.032 181.709 243.78C181.914 243.522 182.017 243.171 182.017 242.726C182.017 242.38 181.882 242.066 181.612 241.785C181.343 241.498 180.962 241.354 180.47 241.354C180.13 241.354 179.843 241.434 179.608 241.592C179.374 241.75 179.198 241.961 179.081 242.225C178.964 242.482 178.905 242.767 178.905 243.077C178.905 243.341 178.97 243.613 179.099 243.895C179.228 244.176 179.406 244.469 179.635 244.773C179.863 245.078 180.124 245.4 180.417 245.74L186.473 253H184.521L179.556 247.059C179.116 246.543 178.724 246.071 178.378 245.644C178.032 245.21 177.76 244.791 177.561 244.387C177.367 243.982 177.271 243.563 177.271 243.13C177.271 242.462 177.402 241.899 177.666 241.442C177.936 240.979 178.311 240.628 178.791 240.388C179.271 240.147 179.834 240.027 180.479 240.027C181.105 240.027 181.645 240.153 182.096 240.405C182.553 240.651 182.904 240.979 183.15 241.39C183.396 241.794 183.52 242.239 183.52 242.726C183.52 243.136 183.446 243.505 183.3 243.833C183.153 244.155 182.948 244.451 182.685 244.721C182.427 244.99 182.125 245.254 181.779 245.512L179.239 247.401C178.817 247.712 178.51 248.008 178.316 248.289C178.123 248.57 177.997 248.819 177.938 249.036C177.886 249.253 177.859 249.426 177.859 249.555C177.859 249.971 177.95 250.352 178.132 250.697C178.313 251.043 178.589 251.321 178.958 251.532C179.333 251.737 179.802 251.84 180.364 251.84C180.856 251.84 181.334 251.729 181.797 251.506C182.266 251.277 182.685 250.955 183.054 250.539C183.423 250.117 183.716 249.616 183.933 249.036C184.155 248.45 184.267 247.803 184.267 247.094H185.726C185.726 247.674 185.67 248.222 185.559 248.737C185.447 249.253 185.274 249.733 185.04 250.179C184.812 250.618 184.519 251.02 184.161 251.383C184.108 251.436 184.067 251.497 184.038 251.567C184.009 251.638 183.968 251.699 183.915 251.752C183.476 252.227 182.934 252.584 182.289 252.824C181.65 253.059 181.009 253.176 180.364 253.176C179.515 253.176 178.779 253.021 178.158 252.71C177.543 252.399 177.068 251.972 176.734 251.427C176.4 250.882 176.233 250.258 176.233 249.555C176.233 249.016 176.348 248.541 176.576 248.131C176.811 247.721 177.13 247.337 177.534 246.979C177.944 246.622 178.413 246.262 178.94 245.898ZM195.851 249.133L198.391 240.203H199.621L198.909 243.675L196.176 253H194.954L195.851 249.133ZM193.223 240.203L195.244 248.957L195.851 253H194.638L191.535 240.203H193.223ZM202.908 248.948L204.886 240.203H206.582L203.488 253H202.275L202.908 248.948ZM199.806 240.203L202.275 249.133L203.172 253H201.95L199.313 243.675L198.593 240.203H199.806ZM209.843 239.5V253H208.217V239.5H209.843ZM209.456 247.885L208.779 247.858C208.785 247.208 208.882 246.607 209.069 246.057C209.257 245.5 209.521 245.017 209.86 244.606C210.2 244.196 210.604 243.88 211.073 243.657C211.548 243.429 212.072 243.314 212.646 243.314C213.115 243.314 213.537 243.379 213.912 243.508C214.287 243.631 214.606 243.83 214.87 244.105C215.14 244.381 215.345 244.738 215.485 245.178C215.626 245.611 215.696 246.142 215.696 246.769V253H214.062V246.751C214.062 246.253 213.988 245.854 213.842 245.556C213.695 245.251 213.481 245.031 213.2 244.896C212.919 244.756 212.573 244.686 212.163 244.686C211.759 244.686 211.39 244.771 211.056 244.94C210.728 245.11 210.443 245.345 210.203 245.644C209.969 245.942 209.784 246.285 209.649 246.672C209.521 247.053 209.456 247.457 209.456 247.885ZM223.738 251.374V246.479C223.738 246.104 223.662 245.778 223.51 245.503C223.363 245.222 223.141 245.005 222.842 244.853C222.543 244.7 222.174 244.624 221.734 244.624C221.324 244.624 220.964 244.694 220.653 244.835C220.349 244.976 220.108 245.16 219.933 245.389C219.763 245.617 219.678 245.863 219.678 246.127H218.052C218.052 245.787 218.14 245.45 218.315 245.116C218.491 244.782 218.743 244.48 219.071 244.211C219.405 243.936 219.804 243.719 220.267 243.561C220.735 243.396 221.257 243.314 221.831 243.314C222.522 243.314 223.132 243.432 223.659 243.666C224.192 243.9 224.608 244.255 224.907 244.729C225.212 245.198 225.364 245.787 225.364 246.496V250.926C225.364 251.242 225.391 251.579 225.443 251.937C225.502 252.294 225.587 252.602 225.698 252.859V253H224.002C223.92 252.812 223.855 252.563 223.809 252.253C223.762 251.937 223.738 251.644 223.738 251.374ZM224.02 247.234L224.037 248.377H222.394C221.931 248.377 221.518 248.415 221.154 248.491C220.791 248.562 220.486 248.67 220.24 248.816C219.994 248.963 219.807 249.147 219.678 249.37C219.549 249.587 219.484 249.842 219.484 250.135C219.484 250.434 219.552 250.706 219.687 250.952C219.821 251.198 220.023 251.395 220.293 251.541C220.568 251.682 220.905 251.752 221.304 251.752C221.802 251.752 222.241 251.646 222.622 251.436C223.003 251.225 223.305 250.967 223.527 250.662C223.756 250.357 223.879 250.062 223.896 249.774L224.591 250.557C224.55 250.803 224.438 251.075 224.257 251.374C224.075 251.673 223.832 251.96 223.527 252.235C223.229 252.505 222.871 252.73 222.455 252.912C222.045 253.088 221.582 253.176 221.066 253.176C220.422 253.176 219.856 253.05 219.37 252.798C218.89 252.546 218.515 252.209 218.245 251.787C217.981 251.359 217.85 250.882 217.85 250.354C217.85 249.845 217.949 249.396 218.148 249.01C218.348 248.617 218.635 248.292 219.01 248.034C219.385 247.771 219.836 247.571 220.363 247.437C220.891 247.302 221.479 247.234 222.13 247.234H224.02ZM231.903 243.49V244.738H226.762V243.49H231.903ZM228.502 241.179H230.128V250.645C230.128 250.967 230.178 251.21 230.277 251.374C230.377 251.538 230.506 251.646 230.664 251.699C230.822 251.752 230.992 251.778 231.174 251.778C231.309 251.778 231.449 251.767 231.596 251.743C231.748 251.714 231.862 251.69 231.938 251.673L231.947 253C231.818 253.041 231.648 253.079 231.438 253.114C231.232 253.155 230.983 253.176 230.69 253.176C230.292 253.176 229.926 253.097 229.592 252.938C229.258 252.78 228.991 252.517 228.792 252.147C228.599 251.772 228.502 251.269 228.502 250.636V241.179ZM239.348 250.478C239.348 250.243 239.295 250.026 239.189 249.827C239.09 249.622 238.882 249.438 238.565 249.273C238.255 249.104 237.786 248.957 237.159 248.834C236.632 248.723 236.154 248.591 235.727 248.438C235.305 248.286 234.944 248.102 234.646 247.885C234.353 247.668 234.127 247.413 233.969 247.12C233.811 246.827 233.731 246.484 233.731 246.092C233.731 245.717 233.813 245.362 233.978 245.028C234.147 244.694 234.385 244.398 234.689 244.141C235 243.883 235.372 243.681 235.806 243.534C236.239 243.388 236.723 243.314 237.256 243.314C238.018 243.314 238.668 243.449 239.207 243.719C239.746 243.988 240.159 244.349 240.446 244.8C240.733 245.245 240.877 245.74 240.877 246.285H239.251C239.251 246.021 239.172 245.767 239.014 245.521C238.861 245.269 238.636 245.061 238.337 244.896C238.044 244.732 237.684 244.65 237.256 244.65C236.805 244.65 236.438 244.721 236.157 244.861C235.882 244.996 235.68 245.169 235.551 245.38C235.428 245.591 235.366 245.813 235.366 246.048C235.366 246.224 235.396 246.382 235.454 246.522C235.519 246.657 235.63 246.783 235.788 246.9C235.946 247.012 236.169 247.117 236.456 247.217C236.743 247.316 237.109 247.416 237.555 247.516C238.334 247.691 238.976 247.902 239.479 248.148C239.983 248.395 240.358 248.696 240.604 249.054C240.851 249.411 240.974 249.845 240.974 250.354C240.974 250.771 240.886 251.151 240.71 251.497C240.54 251.843 240.291 252.142 239.963 252.394C239.641 252.64 239.254 252.833 238.803 252.974C238.357 253.108 237.856 253.176 237.3 253.176C236.462 253.176 235.753 253.026 235.173 252.728C234.593 252.429 234.153 252.042 233.854 251.567C233.556 251.093 233.406 250.592 233.406 250.064H235.041C235.064 250.51 235.193 250.864 235.428 251.128C235.662 251.386 235.949 251.57 236.289 251.682C236.629 251.787 236.966 251.84 237.3 251.84C237.745 251.84 238.117 251.781 238.416 251.664C238.721 251.547 238.952 251.386 239.11 251.181C239.269 250.976 239.348 250.741 239.348 250.478ZM248.093 241.337L243.856 253H242.125L247.003 240.203H248.119L248.093 241.337ZM251.644 253L247.398 241.337L247.372 240.203H248.488L253.384 253H251.644ZM251.424 248.263V249.651H244.234V248.263H251.424ZM256.478 245.318V256.656H254.843V243.49H256.337L256.478 245.318ZM262.885 248.166V248.351C262.885 249.042 262.803 249.684 262.639 250.275C262.475 250.861 262.234 251.371 261.918 251.805C261.607 252.238 261.224 252.575 260.767 252.815C260.31 253.056 259.785 253.176 259.193 253.176C258.59 253.176 258.057 253.076 257.594 252.877C257.131 252.678 256.738 252.388 256.416 252.007C256.094 251.626 255.836 251.169 255.643 250.636C255.455 250.103 255.326 249.502 255.256 248.834V247.85C255.326 247.146 255.458 246.517 255.651 245.96C255.845 245.403 256.1 244.929 256.416 244.536C256.738 244.138 257.128 243.836 257.585 243.631C258.042 243.42 258.569 243.314 259.167 243.314C259.765 243.314 260.295 243.432 260.758 243.666C261.221 243.895 261.61 244.223 261.927 244.65C262.243 245.078 262.48 245.591 262.639 246.188C262.803 246.78 262.885 247.439 262.885 248.166ZM261.25 248.351V248.166C261.25 247.691 261.2 247.246 261.101 246.83C261.001 246.408 260.846 246.039 260.635 245.723C260.43 245.4 260.166 245.148 259.844 244.967C259.521 244.779 259.138 244.686 258.692 244.686C258.282 244.686 257.925 244.756 257.62 244.896C257.321 245.037 257.066 245.228 256.855 245.468C256.645 245.702 256.472 245.972 256.337 246.276C256.208 246.575 256.111 246.886 256.047 247.208V249.484C256.164 249.895 256.328 250.281 256.539 250.645C256.75 251.002 257.031 251.292 257.383 251.515C257.734 251.731 258.177 251.84 258.71 251.84C259.149 251.84 259.527 251.749 259.844 251.567C260.166 251.38 260.43 251.125 260.635 250.803C260.846 250.48 261.001 250.111 261.101 249.695C261.2 249.273 261.25 248.825 261.25 248.351ZM266.585 245.318V256.656H264.95V243.49H266.444L266.585 245.318ZM272.992 248.166V248.351C272.992 249.042 272.91 249.684 272.746 250.275C272.582 250.861 272.342 251.371 272.025 251.805C271.715 252.238 271.331 252.575 270.874 252.815C270.417 253.056 269.893 253.176 269.301 253.176C268.697 253.176 268.164 253.076 267.701 252.877C267.238 252.678 266.846 252.388 266.523 252.007C266.201 251.626 265.943 251.169 265.75 250.636C265.562 250.103 265.434 249.502 265.363 248.834V247.85C265.434 247.146 265.565 246.517 265.759 245.96C265.952 245.403 266.207 244.929 266.523 244.536C266.846 244.138 267.235 243.836 267.692 243.631C268.149 243.42 268.677 243.314 269.274 243.314C269.872 243.314 270.402 243.432 270.865 243.666C271.328 243.895 271.718 244.223 272.034 244.65C272.351 245.078 272.588 245.591 272.746 246.188C272.91 246.78 272.992 247.439 272.992 248.166ZM271.357 248.351V248.166C271.357 247.691 271.308 247.246 271.208 246.83C271.108 246.408 270.953 246.039 270.742 245.723C270.537 245.4 270.273 245.148 269.951 244.967C269.629 244.779 269.245 244.686 268.8 244.686C268.39 244.686 268.032 244.756 267.728 244.896C267.429 245.037 267.174 245.228 266.963 245.468C266.752 245.702 266.579 245.972 266.444 246.276C266.315 246.575 266.219 246.886 266.154 247.208V249.484C266.271 249.895 266.436 250.281 266.646 250.645C266.857 251.002 267.139 251.292 267.49 251.515C267.842 251.731 268.284 251.84 268.817 251.84C269.257 251.84 269.635 251.749 269.951 251.567C270.273 251.38 270.537 251.125 270.742 250.803C270.953 250.48 271.108 250.111 271.208 249.695C271.308 249.273 271.357 248.825 271.357 248.351ZM32.3477 274.351V274.148C32.3477 273.463 32.4473 272.827 32.6465 272.241C32.8457 271.649 33.1328 271.137 33.5078 270.703C33.8828 270.264 34.3369 269.924 34.8701 269.684C35.4033 269.438 36.001 269.314 36.6631 269.314C37.3311 269.314 37.9316 269.438 38.4648 269.684C39.0039 269.924 39.4609 270.264 39.8359 270.703C40.2168 271.137 40.5068 271.649 40.7061 272.241C40.9053 272.827 41.0049 273.463 41.0049 274.148V274.351C41.0049 275.036 40.9053 275.672 40.7061 276.258C40.5068 276.844 40.2168 277.356 39.8359 277.796C39.4609 278.229 39.0068 278.569 38.4736 278.815C37.9463 279.056 37.3486 279.176 36.6807 279.176C36.0127 279.176 35.4121 279.056 34.8789 278.815C34.3457 278.569 33.8887 278.229 33.5078 277.796C33.1328 277.356 32.8457 276.844 32.6465 276.258C32.4473 275.672 32.3477 275.036 32.3477 274.351ZM33.9736 274.148V274.351C33.9736 274.825 34.0293 275.273 34.1406 275.695C34.252 276.111 34.4189 276.48 34.6416 276.803C34.8701 277.125 35.1543 277.38 35.4941 277.567C35.834 277.749 36.2295 277.84 36.6807 277.84C37.126 277.84 37.5156 277.749 37.8496 277.567C38.1895 277.38 38.4707 277.125 38.6934 276.803C38.916 276.48 39.083 276.111 39.1943 275.695C39.3115 275.273 39.3701 274.825 39.3701 274.351V274.148C39.3701 273.68 39.3115 273.237 39.1943 272.821C39.083 272.399 38.9131 272.027 38.6846 271.705C38.4619 271.377 38.1807 271.119 37.8408 270.932C37.5068 270.744 37.1143 270.65 36.6631 270.65C36.2178 270.65 35.8252 270.744 35.4854 270.932C35.1514 271.119 34.8701 271.377 34.6416 271.705C34.4189 272.027 34.252 272.399 34.1406 272.821C34.0293 273.237 33.9736 273.68 33.9736 274.148ZM44.6699 271.521V279H43.0439V269.49H44.582L44.6699 271.521ZM44.2832 273.885L43.6064 273.858C43.6123 273.208 43.709 272.607 43.8965 272.057C44.084 271.5 44.3477 271.017 44.6875 270.606C45.0273 270.196 45.4316 269.88 45.9004 269.657C46.375 269.429 46.8994 269.314 47.4736 269.314C47.9424 269.314 48.3643 269.379 48.7393 269.508C49.1143 269.631 49.4336 269.83 49.6973 270.105C49.9668 270.381 50.1719 270.738 50.3125 271.178C50.4531 271.611 50.5234 272.142 50.5234 272.769V279H48.8887V272.751C48.8887 272.253 48.8154 271.854 48.6689 271.556C48.5225 271.251 48.3086 271.031 48.0273 270.896C47.7461 270.756 47.4004 270.686 46.9902 270.686C46.5859 270.686 46.2168 270.771 45.8828 270.94C45.5547 271.11 45.2705 271.345 45.0303 271.644C44.7959 271.942 44.6113 272.285 44.4766 272.672C44.3477 273.053 44.2832 273.457 44.2832 273.885ZM54.7598 265.5V279H53.125V265.5H54.7598ZM60.042 278.016L62.6875 269.49H64.4277L60.6133 280.468C60.5254 280.702 60.4082 280.954 60.2617 281.224C60.1211 281.499 59.9395 281.76 59.7168 282.006C59.4941 282.252 59.2246 282.451 58.9082 282.604C58.5977 282.762 58.2256 282.841 57.792 282.841C57.6631 282.841 57.499 282.823 57.2998 282.788C57.1006 282.753 56.96 282.724 56.8779 282.7L56.8691 281.382C56.916 281.388 56.9893 281.394 57.0889 281.399C57.1943 281.411 57.2676 281.417 57.3086 281.417C57.6777 281.417 57.9912 281.367 58.249 281.268C58.5068 281.174 58.7236 281.013 58.8994 280.784C59.0811 280.562 59.2363 280.254 59.3652 279.861L60.042 278.016ZM58.0996 269.49L60.5693 276.873L60.9912 278.587L59.8223 279.185L56.3242 269.49H58.0996ZM69.6396 273.797V273.885C69.6396 275.168 69.4961 276.328 69.209 277.365C68.9219 278.402 68.5557 279.308 68.1104 280.081C67.665 280.86 67.1963 281.505 66.7041 282.015C66.2119 282.53 65.7578 282.902 65.3418 283.131L64.999 282.146C65.3447 281.883 65.6934 281.514 66.0449 281.039C66.3965 280.57 66.7217 279.99 67.0205 279.299C67.3193 278.613 67.5596 277.822 67.7412 276.926C67.9229 276.023 68.0137 275.016 68.0137 273.902V273.779C68.0137 272.666 67.917 271.661 67.7236 270.765C67.5303 269.862 67.2783 269.068 66.9678 268.383C66.6631 267.697 66.335 267.12 65.9834 266.651C65.6377 266.177 65.3096 265.811 64.999 265.553L65.3418 264.56C65.7578 264.788 66.2119 265.16 66.7041 265.676C67.1963 266.186 67.665 266.83 68.1104 267.609C68.5557 268.389 68.9219 269.297 69.209 270.334C69.4961 271.365 69.6396 272.52 69.6396 273.797ZM72.1973 278.139C72.1973 277.863 72.2822 277.632 72.4521 277.444C72.6279 277.251 72.8799 277.154 73.208 277.154C73.5361 277.154 73.7852 277.251 73.9551 277.444C74.1309 277.632 74.2188 277.863 74.2188 278.139C74.2188 278.408 74.1309 278.637 73.9551 278.824C73.7852 279.012 73.5361 279.105 73.208 279.105C72.8799 279.105 72.6279 279.012 72.4521 278.824C72.2822 278.637 72.1973 278.408 72.1973 278.139ZM89.2393 271.582V273.533C89.2393 274.582 89.1455 275.467 88.958 276.188C88.7705 276.908 88.501 277.488 88.1494 277.928C87.7979 278.367 87.373 278.687 86.875 278.886C86.3828 279.079 85.8262 279.176 85.2051 279.176C84.7129 279.176 84.2588 279.114 83.8428 278.991C83.4268 278.868 83.0518 278.672 82.7178 278.402C82.3896 278.127 82.1084 277.77 81.874 277.33C81.6396 276.891 81.4609 276.357 81.3379 275.73C81.2148 275.104 81.1533 274.371 81.1533 273.533V271.582C81.1533 270.533 81.2471 269.654 81.4346 268.945C81.6279 268.236 81.9004 267.668 82.252 267.24C82.6035 266.807 83.0254 266.496 83.5176 266.309C84.0156 266.121 84.5723 266.027 85.1875 266.027C85.6855 266.027 86.1426 266.089 86.5586 266.212C86.9805 266.329 87.3555 266.52 87.6836 266.783C88.0117 267.041 88.29 267.387 88.5186 267.82C88.7529 268.248 88.9316 268.772 89.0547 269.394C89.1777 270.015 89.2393 270.744 89.2393 271.582ZM87.6045 273.797V271.31C87.6045 270.735 87.5693 270.231 87.499 269.798C87.4346 269.358 87.3379 268.983 87.209 268.673C87.0801 268.362 86.916 268.11 86.7168 267.917C86.5234 267.724 86.2979 267.583 86.04 267.495C85.7881 267.401 85.5039 267.354 85.1875 267.354C84.8008 267.354 84.458 267.428 84.1592 267.574C83.8604 267.715 83.6084 267.94 83.4033 268.251C83.2041 268.562 83.0518 268.969 82.9463 269.473C82.8408 269.977 82.7881 270.589 82.7881 271.31V273.797C82.7881 274.371 82.8203 274.878 82.8848 275.317C82.9551 275.757 83.0576 276.138 83.1924 276.46C83.3271 276.776 83.4912 277.037 83.6846 277.242C83.8779 277.447 84.1006 277.6 84.3525 277.699C84.6104 277.793 84.8945 277.84 85.2051 277.84C85.6035 277.84 85.9521 277.764 86.251 277.611C86.5498 277.459 86.7988 277.222 86.998 276.899C87.2031 276.571 87.3555 276.152 87.4551 275.643C87.5547 275.127 87.6045 274.512 87.6045 273.797ZM99.6016 266.203V267.117L94.3018 279H92.5879L97.8789 267.539H90.9531V266.203H99.6016ZM109.489 271.582V273.533C109.489 274.582 109.396 275.467 109.208 276.188C109.021 276.908 108.751 277.488 108.399 277.928C108.048 278.367 107.623 278.687 107.125 278.886C106.633 279.079 106.076 279.176 105.455 279.176C104.963 279.176 104.509 279.114 104.093 278.991C103.677 278.868 103.302 278.672 102.968 278.402C102.64 278.127 102.358 277.77 102.124 277.33C101.89 276.891 101.711 276.357 101.588 275.73C101.465 275.104 101.403 274.371 101.403 273.533V271.582C101.403 270.533 101.497 269.654 101.685 268.945C101.878 268.236 102.15 267.668 102.502 267.24C102.854 266.807 103.275 266.496 103.768 266.309C104.266 266.121 104.822 266.027 105.438 266.027C105.936 266.027 106.393 266.089 106.809 266.212C107.23 266.329 107.605 266.52 107.934 266.783C108.262 267.041 108.54 267.387 108.769 267.82C109.003 268.248 109.182 268.772 109.305 269.394C109.428 270.015 109.489 270.744 109.489 271.582ZM107.854 273.797V271.31C107.854 270.735 107.819 270.231 107.749 269.798C107.685 269.358 107.588 268.983 107.459 268.673C107.33 268.362 107.166 268.11 106.967 267.917C106.773 267.724 106.548 267.583 106.29 267.495C106.038 267.401 105.754 267.354 105.438 267.354C105.051 267.354 104.708 267.428 104.409 267.574C104.11 267.715 103.858 267.94 103.653 268.251C103.454 268.562 103.302 268.969 103.196 269.473C103.091 269.977 103.038 270.589 103.038 271.31V273.797C103.038 274.371 103.07 274.878 103.135 275.317C103.205 275.757 103.308 276.138 103.442 276.46C103.577 276.776 103.741 277.037 103.935 277.242C104.128 277.447 104.351 277.6 104.603 277.699C104.86 277.793 105.145 277.84 105.455 277.84C105.854 277.84 106.202 277.764 106.501 277.611C106.8 277.459 107.049 277.222 107.248 276.899C107.453 276.571 107.605 276.152 107.705 275.643C107.805 275.127 107.854 274.512 107.854 273.797ZM124.114 275.537C124.114 276.316 123.933 276.979 123.569 277.523C123.212 278.062 122.726 278.473 122.11 278.754C121.501 279.035 120.812 279.176 120.045 279.176C119.277 279.176 118.586 279.035 117.971 278.754C117.355 278.473 116.869 278.062 116.512 277.523C116.154 276.979 115.976 276.316 115.976 275.537C115.976 275.027 116.072 274.562 116.266 274.14C116.465 273.712 116.743 273.34 117.101 273.023C117.464 272.707 117.892 272.464 118.384 272.294C118.882 272.118 119.43 272.03 120.027 272.03C120.812 272.03 121.513 272.183 122.128 272.487C122.743 272.786 123.227 273.199 123.578 273.727C123.936 274.254 124.114 274.857 124.114 275.537ZM122.479 275.502C122.479 275.027 122.377 274.608 122.172 274.245C121.967 273.876 121.68 273.589 121.311 273.384C120.941 273.179 120.514 273.076 120.027 273.076C119.529 273.076 119.099 273.179 118.735 273.384C118.378 273.589 118.1 273.876 117.9 274.245C117.701 274.608 117.602 275.027 117.602 275.502C117.602 275.994 117.698 276.416 117.892 276.768C118.091 277.113 118.372 277.38 118.735 277.567C119.104 277.749 119.541 277.84 120.045 277.84C120.549 277.84 120.982 277.749 121.346 277.567C121.709 277.38 121.987 277.113 122.181 276.768C122.38 276.416 122.479 275.994 122.479 275.502ZM123.815 269.534C123.815 270.155 123.651 270.715 123.323 271.213C122.995 271.711 122.547 272.104 121.979 272.391C121.41 272.678 120.766 272.821 120.045 272.821C119.312 272.821 118.659 272.678 118.085 272.391C117.517 272.104 117.071 271.711 116.749 271.213C116.427 270.715 116.266 270.155 116.266 269.534C116.266 268.79 116.427 268.157 116.749 267.636C117.077 267.114 117.525 266.716 118.094 266.44C118.662 266.165 119.31 266.027 120.036 266.027C120.769 266.027 121.419 266.165 121.987 266.44C122.556 266.716 123.001 267.114 123.323 267.636C123.651 268.157 123.815 268.79 123.815 269.534ZM122.189 269.561C122.189 269.133 122.099 268.755 121.917 268.427C121.735 268.099 121.483 267.841 121.161 267.653C120.839 267.46 120.464 267.363 120.036 267.363C119.608 267.363 119.233 267.454 118.911 267.636C118.595 267.812 118.346 268.063 118.164 268.392C117.988 268.72 117.9 269.109 117.9 269.561C117.9 270 117.988 270.384 118.164 270.712C118.346 271.04 118.598 271.295 118.92 271.477C119.242 271.658 119.617 271.749 120.045 271.749C120.473 271.749 120.845 271.658 121.161 271.477C121.483 271.295 121.735 271.04 121.917 270.712C122.099 270.384 122.189 270 122.189 269.561ZM134.239 275.537C134.239 276.316 134.058 276.979 133.694 277.523C133.337 278.062 132.851 278.473 132.235 278.754C131.626 279.035 130.938 279.176 130.17 279.176C129.402 279.176 128.711 279.035 128.096 278.754C127.48 278.473 126.994 278.062 126.637 277.523C126.279 276.979 126.101 276.316 126.101 275.537C126.101 275.027 126.197 274.562 126.391 274.14C126.59 273.712 126.868 273.34 127.226 273.023C127.589 272.707 128.017 272.464 128.509 272.294C129.007 272.118 129.555 272.03 130.152 272.03C130.938 272.03 131.638 272.183 132.253 272.487C132.868 272.786 133.352 273.199 133.703 273.727C134.061 274.254 134.239 274.857 134.239 275.537ZM132.604 275.502C132.604 275.027 132.502 274.608 132.297 274.245C132.092 273.876 131.805 273.589 131.436 273.384C131.066 273.179 130.639 273.076 130.152 273.076C129.654 273.076 129.224 273.179 128.86 273.384C128.503 273.589 128.225 273.876 128.025 274.245C127.826 274.608 127.727 275.027 127.727 275.502C127.727 275.994 127.823 276.416 128.017 276.768C128.216 277.113 128.497 277.38 128.86 277.567C129.229 277.749 129.666 277.84 130.17 277.84C130.674 277.84 131.107 277.749 131.471 277.567C131.834 277.38 132.112 277.113 132.306 276.768C132.505 276.416 132.604 275.994 132.604 275.502ZM133.94 269.534C133.94 270.155 133.776 270.715 133.448 271.213C133.12 271.711 132.672 272.104 132.104 272.391C131.535 272.678 130.891 272.821 130.17 272.821C129.438 272.821 128.784 272.678 128.21 272.391C127.642 272.104 127.196 271.711 126.874 271.213C126.552 270.715 126.391 270.155 126.391 269.534C126.391 268.79 126.552 268.157 126.874 267.636C127.202 267.114 127.65 266.716 128.219 266.44C128.787 266.165 129.435 266.027 130.161 266.027C130.894 266.027 131.544 266.165 132.112 266.44C132.681 266.716 133.126 267.114 133.448 267.636C133.776 268.157 133.94 268.79 133.94 269.534ZM132.314 269.561C132.314 269.133 132.224 268.755 132.042 268.427C131.86 268.099 131.608 267.841 131.286 267.653C130.964 267.46 130.589 267.363 130.161 267.363C129.733 267.363 129.358 267.454 129.036 267.636C128.72 267.812 128.471 268.063 128.289 268.392C128.113 268.72 128.025 269.109 128.025 269.561C128.025 270 128.113 270.384 128.289 270.712C128.471 271.04 128.723 271.295 129.045 271.477C129.367 271.658 129.742 271.749 130.17 271.749C130.598 271.749 130.97 271.658 131.286 271.477C131.608 271.295 131.86 271.04 132.042 270.712C132.224 270.384 132.314 270 132.314 269.561ZM144.364 275.537C144.364 276.316 144.183 276.979 143.819 277.523C143.462 278.062 142.976 278.473 142.36 278.754C141.751 279.035 141.062 279.176 140.295 279.176C139.527 279.176 138.836 279.035 138.221 278.754C137.605 278.473 137.119 278.062 136.762 277.523C136.404 276.979 136.226 276.316 136.226 275.537C136.226 275.027 136.322 274.562 136.516 274.14C136.715 273.712 136.993 273.34 137.351 273.023C137.714 272.707 138.142 272.464 138.634 272.294C139.132 272.118 139.68 272.03 140.277 272.03C141.062 272.03 141.763 272.183 142.378 272.487C142.993 272.786 143.477 273.199 143.828 273.727C144.186 274.254 144.364 274.857 144.364 275.537ZM142.729 275.502C142.729 275.027 142.627 274.608 142.422 274.245C142.217 273.876 141.93 273.589 141.561 273.384C141.191 273.179 140.764 273.076 140.277 273.076C139.779 273.076 139.349 273.179 138.985 273.384C138.628 273.589 138.35 273.876 138.15 274.245C137.951 274.608 137.852 275.027 137.852 275.502C137.852 275.994 137.948 276.416 138.142 276.768C138.341 277.113 138.622 277.38 138.985 277.567C139.354 277.749 139.791 277.84 140.295 277.84C140.799 277.84 141.232 277.749 141.596 277.567C141.959 277.38 142.237 277.113 142.431 276.768C142.63 276.416 142.729 275.994 142.729 275.502ZM144.065 269.534C144.065 270.155 143.901 270.715 143.573 271.213C143.245 271.711 142.797 272.104 142.229 272.391C141.66 272.678 141.016 272.821 140.295 272.821C139.562 272.821 138.909 272.678 138.335 272.391C137.767 272.104 137.321 271.711 136.999 271.213C136.677 270.715 136.516 270.155 136.516 269.534C136.516 268.79 136.677 268.157 136.999 267.636C137.327 267.114 137.775 266.716 138.344 266.44C138.912 266.165 139.56 266.027 140.286 266.027C141.019 266.027 141.669 266.165 142.237 266.44C142.806 266.716 143.251 267.114 143.573 267.636C143.901 268.157 144.065 268.79 144.065 269.534ZM142.439 269.561C142.439 269.133 142.349 268.755 142.167 268.427C141.985 268.099 141.733 267.841 141.411 267.653C141.089 267.46 140.714 267.363 140.286 267.363C139.858 267.363 139.483 267.454 139.161 267.636C138.845 267.812 138.596 268.063 138.414 268.392C138.238 268.72 138.15 269.109 138.15 269.561C138.15 270 138.238 270.384 138.414 270.712C138.596 271.04 138.848 271.295 139.17 271.477C139.492 271.658 139.867 271.749 140.295 271.749C140.723 271.749 141.095 271.658 141.411 271.477C141.733 271.295 141.985 271.04 142.167 270.712C142.349 270.384 142.439 270 142.439 269.561ZM154.489 275.537C154.489 276.316 154.308 276.979 153.944 277.523C153.587 278.062 153.101 278.473 152.485 278.754C151.876 279.035 151.188 279.176 150.42 279.176C149.652 279.176 148.961 279.035 148.346 278.754C147.73 278.473 147.244 278.062 146.887 277.523C146.529 276.979 146.351 276.316 146.351 275.537C146.351 275.027 146.447 274.562 146.641 274.14C146.84 273.712 147.118 273.34 147.476 273.023C147.839 272.707 148.267 272.464 148.759 272.294C149.257 272.118 149.805 272.03 150.402 272.03C151.188 272.03 151.888 272.183 152.503 272.487C153.118 272.786 153.602 273.199 153.953 273.727C154.311 274.254 154.489 274.857 154.489 275.537ZM152.854 275.502C152.854 275.027 152.752 274.608 152.547 274.245C152.342 273.876 152.055 273.589 151.686 273.384C151.316 273.179 150.889 273.076 150.402 273.076C149.904 273.076 149.474 273.179 149.11 273.384C148.753 273.589 148.475 273.876 148.275 274.245C148.076 274.608 147.977 275.027 147.977 275.502C147.977 275.994 148.073 276.416 148.267 276.768C148.466 277.113 148.747 277.38 149.11 277.567C149.479 277.749 149.916 277.84 150.42 277.84C150.924 277.84 151.357 277.749 151.721 277.567C152.084 277.38 152.362 277.113 152.556 276.768C152.755 276.416 152.854 275.994 152.854 275.502ZM154.19 269.534C154.19 270.155 154.026 270.715 153.698 271.213C153.37 271.711 152.922 272.104 152.354 272.391C151.785 272.678 151.141 272.821 150.42 272.821C149.688 272.821 149.034 272.678 148.46 272.391C147.892 272.104 147.446 271.711 147.124 271.213C146.802 270.715 146.641 270.155 146.641 269.534C146.641 268.79 146.802 268.157 147.124 267.636C147.452 267.114 147.9 266.716 148.469 266.44C149.037 266.165 149.685 266.027 150.411 266.027C151.144 266.027 151.794 266.165 152.362 266.44C152.931 266.716 153.376 267.114 153.698 267.636C154.026 268.157 154.19 268.79 154.19 269.534ZM152.564 269.561C152.564 269.133 152.474 268.755 152.292 268.427C152.11 268.099 151.858 267.841 151.536 267.653C151.214 267.46 150.839 267.363 150.411 267.363C149.983 267.363 149.608 267.454 149.286 267.636C148.97 267.812 148.721 268.063 148.539 268.392C148.363 268.72 148.275 269.109 148.275 269.561C148.275 270 148.363 270.384 148.539 270.712C148.721 271.04 148.973 271.295 149.295 271.477C149.617 271.658 149.992 271.749 150.42 271.749C150.848 271.749 151.22 271.658 151.536 271.477C151.858 271.295 152.11 271.04 152.292 270.712C152.474 270.384 152.564 270 152.564 269.561ZM166.354 266.133V279H164.729V268.163L161.45 269.358V267.891L166.1 266.133H166.354ZM179.204 275.537C179.204 276.316 179.022 276.979 178.659 277.523C178.302 278.062 177.815 278.473 177.2 278.754C176.591 279.035 175.902 279.176 175.135 279.176C174.367 279.176 173.676 279.035 173.061 278.754C172.445 278.473 171.959 278.062 171.602 277.523C171.244 276.979 171.065 276.316 171.065 275.537C171.065 275.027 171.162 274.562 171.355 274.14C171.555 273.712 171.833 273.34 172.19 273.023C172.554 272.707 172.981 272.464 173.474 272.294C173.972 272.118 174.52 272.03 175.117 272.03C175.902 272.03 176.603 272.183 177.218 272.487C177.833 272.786 178.316 273.199 178.668 273.727C179.025 274.254 179.204 274.857 179.204 275.537ZM177.569 275.502C177.569 275.027 177.467 274.608 177.262 274.245C177.057 273.876 176.77 273.589 176.4 273.384C176.031 273.179 175.604 273.076 175.117 273.076C174.619 273.076 174.188 273.179 173.825 273.384C173.468 273.589 173.189 273.876 172.99 274.245C172.791 274.608 172.691 275.027 172.691 275.502C172.691 275.994 172.788 276.416 172.981 276.768C173.181 277.113 173.462 277.38 173.825 277.567C174.194 277.749 174.631 277.84 175.135 277.84C175.639 277.84 176.072 277.749 176.436 277.567C176.799 277.38 177.077 277.113 177.271 276.768C177.47 276.416 177.569 275.994 177.569 275.502ZM178.905 269.534C178.905 270.155 178.741 270.715 178.413 271.213C178.085 271.711 177.637 272.104 177.068 272.391C176.5 272.678 175.855 272.821 175.135 272.821C174.402 272.821 173.749 272.678 173.175 272.391C172.606 272.104 172.161 271.711 171.839 271.213C171.517 270.715 171.355 270.155 171.355 269.534C171.355 268.79 171.517 268.157 171.839 267.636C172.167 267.114 172.615 266.716 173.184 266.44C173.752 266.165 174.399 266.027 175.126 266.027C175.858 266.027 176.509 266.165 177.077 266.44C177.646 266.716 178.091 267.114 178.413 267.636C178.741 268.157 178.905 268.79 178.905 269.534ZM177.279 269.561C177.279 269.133 177.188 268.755 177.007 268.427C176.825 268.099 176.573 267.841 176.251 267.653C175.929 267.46 175.554 267.363 175.126 267.363C174.698 267.363 174.323 267.454 174.001 267.636C173.685 267.812 173.436 268.063 173.254 268.392C173.078 268.72 172.99 269.109 172.99 269.561C172.99 270 173.078 270.384 173.254 270.712C173.436 271.04 173.688 271.295 174.01 271.477C174.332 271.658 174.707 271.749 175.135 271.749C175.562 271.749 175.935 271.658 176.251 271.477C176.573 271.295 176.825 271.04 177.007 270.712C177.188 270.384 177.279 270 177.279 269.561ZM189.909 274.693V276.029H180.663V275.071L186.394 266.203H187.721L186.297 268.77L182.509 274.693H189.909ZM188.125 266.203V279H186.499V266.203H188.125ZM196.729 266.133V279H195.104V268.163L191.825 269.358V267.891L196.475 266.133H196.729ZM201.625 273.885V273.797C201.625 272.52 201.769 271.365 202.056 270.334C202.343 269.297 202.709 268.389 203.154 267.609C203.6 266.83 204.068 266.186 204.561 265.676C205.053 265.16 205.507 264.788 205.923 264.56L206.266 265.632C205.92 265.896 205.568 266.259 205.211 266.722C204.859 267.185 204.534 267.753 204.235 268.427C203.942 269.101 203.705 269.883 203.523 270.773C203.342 271.664 203.251 272.666 203.251 273.779V273.902C203.251 275.016 203.342 276.021 203.523 276.917C203.705 277.808 203.942 278.593 204.235 279.272C204.534 279.952 204.859 280.529 205.211 281.004C205.568 281.484 205.92 281.865 206.266 282.146L205.923 283.131C205.507 282.902 205.053 282.53 204.561 282.015C204.068 281.505 203.6 280.86 203.154 280.081C202.709 279.308 202.343 278.402 202.056 277.365C201.769 276.328 201.625 275.168 201.625 273.885ZM215.828 274.931H217.516C217.428 275.739 217.196 276.463 216.821 277.102C216.446 277.74 215.916 278.247 215.23 278.622C214.545 278.991 213.689 279.176 212.664 279.176C211.914 279.176 211.231 279.035 210.616 278.754C210.007 278.473 209.482 278.074 209.043 277.559C208.604 277.037 208.264 276.413 208.023 275.687C207.789 274.954 207.672 274.14 207.672 273.243V271.969C207.672 271.072 207.789 270.261 208.023 269.534C208.264 268.802 208.606 268.175 209.052 267.653C209.503 267.132 210.045 266.73 210.678 266.449C211.311 266.168 212.022 266.027 212.813 266.027C213.78 266.027 214.598 266.209 215.266 266.572C215.934 266.936 216.452 267.439 216.821 268.084C217.196 268.723 217.428 269.464 217.516 270.308H215.828C215.746 269.71 215.594 269.197 215.371 268.77C215.148 268.336 214.832 268.002 214.422 267.768C214.012 267.533 213.476 267.416 212.813 267.416C212.245 267.416 211.744 267.524 211.311 267.741C210.883 267.958 210.522 268.266 210.229 268.664C209.942 269.062 209.726 269.54 209.579 270.097C209.433 270.653 209.359 271.271 209.359 271.951V273.243C209.359 273.87 209.424 274.459 209.553 275.01C209.688 275.561 209.89 276.044 210.159 276.46C210.429 276.876 210.771 277.204 211.188 277.444C211.604 277.679 212.096 277.796 212.664 277.796C213.385 277.796 213.959 277.682 214.387 277.453C214.814 277.225 215.137 276.896 215.354 276.469C215.576 276.041 215.734 275.528 215.828 274.931ZM225.188 277.374V272.479C225.188 272.104 225.112 271.778 224.96 271.503C224.813 271.222 224.591 271.005 224.292 270.853C223.993 270.7 223.624 270.624 223.185 270.624C222.774 270.624 222.414 270.694 222.104 270.835C221.799 270.976 221.559 271.16 221.383 271.389C221.213 271.617 221.128 271.863 221.128 272.127H219.502C219.502 271.787 219.59 271.45 219.766 271.116C219.941 270.782 220.193 270.48 220.521 270.211C220.855 269.936 221.254 269.719 221.717 269.561C222.186 269.396 222.707 269.314 223.281 269.314C223.973 269.314 224.582 269.432 225.109 269.666C225.643 269.9 226.059 270.255 226.357 270.729C226.662 271.198 226.814 271.787 226.814 272.496V276.926C226.814 277.242 226.841 277.579 226.894 277.937C226.952 278.294 227.037 278.602 227.148 278.859V279H225.452C225.37 278.812 225.306 278.563 225.259 278.253C225.212 277.937 225.188 277.644 225.188 277.374ZM225.47 273.234L225.487 274.377H223.844C223.381 274.377 222.968 274.415 222.604 274.491C222.241 274.562 221.937 274.67 221.69 274.816C221.444 274.963 221.257 275.147 221.128 275.37C220.999 275.587 220.935 275.842 220.935 276.135C220.935 276.434 221.002 276.706 221.137 276.952C221.271 277.198 221.474 277.395 221.743 277.541C222.019 277.682 222.355 277.752 222.754 277.752C223.252 277.752 223.691 277.646 224.072 277.436C224.453 277.225 224.755 276.967 224.978 276.662C225.206 276.357 225.329 276.062 225.347 275.774L226.041 276.557C226 276.803 225.889 277.075 225.707 277.374C225.525 277.673 225.282 277.96 224.978 278.235C224.679 278.505 224.321 278.73 223.905 278.912C223.495 279.088 223.032 279.176 222.517 279.176C221.872 279.176 221.307 279.05 220.82 278.798C220.34 278.546 219.965 278.209 219.695 277.787C219.432 277.359 219.3 276.882 219.3 276.354C219.3 275.845 219.399 275.396 219.599 275.01C219.798 274.617 220.085 274.292 220.46 274.034C220.835 273.771 221.286 273.571 221.813 273.437C222.341 273.302 222.93 273.234 223.58 273.234H225.47ZM231.139 265.5V279H229.504V265.5H231.139ZM235.516 265.5V279H233.881V265.5H235.516ZM243.663 276.478C243.663 276.243 243.61 276.026 243.505 275.827C243.405 275.622 243.197 275.438 242.881 275.273C242.57 275.104 242.102 274.957 241.475 274.834C240.947 274.723 240.47 274.591 240.042 274.438C239.62 274.286 239.26 274.102 238.961 273.885C238.668 273.668 238.442 273.413 238.284 273.12C238.126 272.827 238.047 272.484 238.047 272.092C238.047 271.717 238.129 271.362 238.293 271.028C238.463 270.694 238.7 270.398 239.005 270.141C239.315 269.883 239.688 269.681 240.121 269.534C240.555 269.388 241.038 269.314 241.571 269.314C242.333 269.314 242.983 269.449 243.522 269.719C244.062 269.988 244.475 270.349 244.762 270.8C245.049 271.245 245.192 271.74 245.192 272.285H243.566C243.566 272.021 243.487 271.767 243.329 271.521C243.177 271.269 242.951 271.061 242.652 270.896C242.359 270.732 241.999 270.65 241.571 270.65C241.12 270.65 240.754 270.721 240.473 270.861C240.197 270.996 239.995 271.169 239.866 271.38C239.743 271.591 239.682 271.813 239.682 272.048C239.682 272.224 239.711 272.382 239.77 272.522C239.834 272.657 239.945 272.783 240.104 272.9C240.262 273.012 240.484 273.117 240.771 273.217C241.059 273.316 241.425 273.416 241.87 273.516C242.649 273.691 243.291 273.902 243.795 274.148C244.299 274.395 244.674 274.696 244.92 275.054C245.166 275.411 245.289 275.845 245.289 276.354C245.289 276.771 245.201 277.151 245.025 277.497C244.855 277.843 244.606 278.142 244.278 278.394C243.956 278.64 243.569 278.833 243.118 278.974C242.673 279.108 242.172 279.176 241.615 279.176C240.777 279.176 240.068 279.026 239.488 278.728C238.908 278.429 238.469 278.042 238.17 277.567C237.871 277.093 237.722 276.592 237.722 276.064H239.356C239.38 276.51 239.509 276.864 239.743 277.128C239.978 277.386 240.265 277.57 240.604 277.682C240.944 277.787 241.281 277.84 241.615 277.84C242.061 277.84 242.433 277.781 242.731 277.664C243.036 277.547 243.268 277.386 243.426 277.181C243.584 276.976 243.663 276.741 243.663 276.478ZM251.169 273.797V273.885C251.169 275.168 251.025 276.328 250.738 277.365C250.451 278.402 250.085 279.308 249.64 280.081C249.194 280.86 248.726 281.505 248.233 282.015C247.741 282.53 247.287 282.902 246.871 283.131L246.528 282.146C246.874 281.883 247.223 281.514 247.574 281.039C247.926 280.57 248.251 279.99 248.55 279.299C248.849 278.613 249.089 277.822 249.271 276.926C249.452 276.023 249.543 275.016 249.543 273.902V273.779C249.543 272.666 249.446 271.661 249.253 270.765C249.06 269.862 248.808 269.068 248.497 268.383C248.192 267.697 247.864 267.12 247.513 266.651C247.167 266.177 246.839 265.811 246.528 265.553L246.871 264.56C247.287 264.788 247.741 265.16 248.233 265.676C248.726 266.186 249.194 266.83 249.64 267.609C250.085 268.389 250.451 269.297 250.738 270.334C251.025 271.365 251.169 272.52 251.169 273.797Z" fill="black"/>
<path d="M113.682 130V121.882H120.155L128.144 95.1956C128.684 93.4368 129.679 92.0324 131.13 90.9825C132.581 89.9326 134.181 89.4091 135.932 89.4118H148.068C149.821 89.4118 151.423 89.9367 152.874 90.9866C154.325 92.0365 155.319 93.4395 155.856 95.1956L163.845 121.882H170.318V130H113.682ZM137.955 81.2941V61H146.045V81.2941H137.955ZM162.025 91.3397L156.26 85.5559L170.622 71.2485L176.285 76.9309L162.025 91.3397ZM166.273 109.706V101.588H186.5V109.706H166.273ZM121.975 91.3397L107.715 76.9309L113.378 71.2485L127.74 85.5559L121.975 91.3397ZM97.5 109.706V101.588H117.727V109.706H97.5Z" fill="#FF0000"/>
</g>
<defs>
<filter id="filter0_d_38_2684" x="0.5" y="0" width="284" height="365" filterUnits="userSpaceOnUse" color-interpolation-filters="sRGB">
<feFlood flood-opacity="0" result="BackgroundImageFix"/>
<feColorMatrix in="SourceAlpha" type="matrix" values="0 0 0 0 0 0 0 0 0 0 0 0 0 0 0 0 0 0 127 0" result="hardAlpha"/>
<feOffset dy="4"/>
<feGaussianBlur stdDeviation="2"/>
<feComposite in2="hardAlpha" operator="out"/>
<feColorMatrix type="matrix" values="0 0 0 0 0 0 0 0 0 0 0 0 0 0 0 0 0 0 0.25 0"/>
<feBlend mode="normal" in2="BackgroundImageFix" result="effect1_dropShadow_38_2684"/>
<feBlend mode="normal" in="SourceGraphic" in2="effect1_dropShadow_38_2684" result="shape"/>
</filter>
</defs>
</svg>
