<svg width="285" height="365" viewBox="0 0 285 365" fill="none" xmlns="http://www.w3.org/2000/svg">
<g filter="url(#filter0_d_38_2634)">
<rect x="4.5" y="95" width="276" height="262" rx="8" fill="white"/>
<path d="M64.9795 204.203V217H62.3428V204.203H64.9795ZM70.0771 209.67V211.727H64.2588V209.67H70.0771ZM70.6924 204.203V206.269H64.2588V204.203H70.6924ZM74.7354 207.49V217H72.1953V207.49H74.7354ZM72.0371 205.012C72.0371 204.643 72.166 204.338 72.4238 204.098C72.6816 203.857 73.0273 203.737 73.4609 203.737C73.8887 203.737 74.2314 203.857 74.4893 204.098C74.7529 204.338 74.8848 204.643 74.8848 205.012C74.8848 205.381 74.7529 205.686 74.4893 205.926C74.2314 206.166 73.8887 206.286 73.4609 206.286C73.0273 206.286 72.6816 206.166 72.4238 205.926C72.166 205.686 72.0371 205.381 72.0371 205.012ZM79.3584 209.564V217H76.8271V207.49H79.209L79.3584 209.564ZM82.2236 207.429L82.1797 209.775C82.0566 209.758 81.9072 209.743 81.7314 209.731C81.5615 209.714 81.4062 209.705 81.2656 209.705C80.9082 209.705 80.5977 209.752 80.334 209.846C80.0762 209.934 79.8594 210.065 79.6836 210.241C79.5137 210.417 79.3848 210.631 79.2969 210.883C79.2148 211.135 79.168 211.422 79.1562 211.744L78.6465 211.586C78.6465 210.971 78.708 210.405 78.8311 209.89C78.9541 209.368 79.1328 208.914 79.3672 208.527C79.6074 208.141 79.9004 207.842 80.2461 207.631C80.5918 207.42 80.9873 207.314 81.4326 207.314C81.5732 207.314 81.7168 207.326 81.8633 207.35C82.0098 207.367 82.1299 207.394 82.2236 207.429ZM87.6201 217.176C86.8818 217.176 86.2197 217.059 85.6338 216.824C85.0479 216.584 84.5498 216.253 84.1396 215.831C83.7354 215.409 83.4248 214.92 83.208 214.363C82.9912 213.801 82.8828 213.203 82.8828 212.57V212.219C82.8828 211.498 82.9854 210.839 83.1904 210.241C83.3955 209.644 83.6885 209.125 84.0693 208.686C84.4561 208.246 84.9248 207.909 85.4756 207.675C86.0264 207.435 86.6475 207.314 87.3389 207.314C88.0127 207.314 88.6104 207.426 89.1318 207.648C89.6533 207.871 90.0898 208.188 90.4414 208.598C90.7988 209.008 91.0684 209.5 91.25 210.074C91.4316 210.643 91.5225 211.275 91.5225 211.973V213.027H83.9639V211.34H89.0352V211.146C89.0352 210.795 88.9707 210.481 88.8418 210.206C88.7188 209.925 88.5312 209.702 88.2793 209.538C88.0273 209.374 87.7051 209.292 87.3125 209.292C86.9785 209.292 86.6914 209.365 86.4512 209.512C86.2109 209.658 86.0146 209.863 85.8623 210.127C85.7158 210.391 85.6045 210.701 85.5283 211.059C85.458 211.41 85.4229 211.797 85.4229 212.219V212.57C85.4229 212.951 85.4756 213.303 85.5811 213.625C85.6924 213.947 85.8477 214.226 86.0469 214.46C86.252 214.694 86.498 214.876 86.7852 215.005C87.0781 215.134 87.4092 215.198 87.7783 215.198C88.2354 215.198 88.6602 215.11 89.0527 214.935C89.4512 214.753 89.7939 214.48 90.0811 214.117L91.3115 215.453C91.1123 215.74 90.8398 216.016 90.4941 216.279C90.1543 216.543 89.7441 216.76 89.2637 216.93C88.7832 217.094 88.2354 217.176 87.6201 217.176ZM98.4307 204.203L93.7373 218.099H91.8564L96.5498 204.203H98.4307ZM106.464 213.651C106.464 213.423 106.429 213.218 106.358 213.036C106.294 212.849 106.171 212.679 105.989 212.526C105.808 212.368 105.553 212.213 105.225 212.061C104.896 211.908 104.472 211.75 103.95 211.586C103.37 211.398 102.819 211.188 102.298 210.953C101.782 210.719 101.325 210.446 100.927 210.136C100.534 209.819 100.224 209.453 99.9951 209.037C99.7725 208.621 99.6611 208.138 99.6611 207.587C99.6611 207.054 99.7783 206.57 100.013 206.137C100.247 205.697 100.575 205.322 100.997 205.012C101.419 204.695 101.917 204.452 102.491 204.282C103.071 204.112 103.707 204.027 104.398 204.027C105.342 204.027 106.165 204.197 106.868 204.537C107.571 204.877 108.116 205.343 108.503 205.935C108.896 206.526 109.092 207.203 109.092 207.965H106.473C106.473 207.59 106.394 207.262 106.235 206.98C106.083 206.693 105.849 206.468 105.532 206.304C105.222 206.14 104.829 206.058 104.354 206.058C103.897 206.058 103.517 206.128 103.212 206.269C102.907 206.403 102.679 206.588 102.526 206.822C102.374 207.051 102.298 207.309 102.298 207.596C102.298 207.812 102.351 208.009 102.456 208.185C102.567 208.36 102.731 208.524 102.948 208.677C103.165 208.829 103.432 208.973 103.748 209.107C104.064 209.242 104.431 209.374 104.847 209.503C105.544 209.714 106.156 209.951 106.684 210.215C107.217 210.479 107.662 210.774 108.02 211.103C108.377 211.431 108.646 211.803 108.828 212.219C109.01 212.635 109.101 213.106 109.101 213.634C109.101 214.19 108.992 214.688 108.775 215.128C108.559 215.567 108.245 215.939 107.835 216.244C107.425 216.549 106.936 216.78 106.367 216.938C105.799 217.097 105.163 217.176 104.46 217.176C103.827 217.176 103.203 217.094 102.588 216.93C101.973 216.76 101.413 216.505 100.909 216.165C100.411 215.825 100.013 215.392 99.7139 214.864C99.415 214.337 99.2656 213.713 99.2656 212.992H101.911C101.911 213.391 101.973 213.728 102.096 214.003C102.219 214.278 102.392 214.501 102.614 214.671C102.843 214.841 103.112 214.964 103.423 215.04C103.739 215.116 104.085 215.154 104.46 215.154C104.917 215.154 105.292 215.09 105.585 214.961C105.884 214.832 106.104 214.653 106.244 214.425C106.391 214.196 106.464 213.938 106.464 213.651ZM115.868 214.855V210.619C115.868 210.314 115.818 210.054 115.719 209.837C115.619 209.614 115.464 209.441 115.253 209.318C115.048 209.195 114.781 209.134 114.453 209.134C114.172 209.134 113.929 209.184 113.724 209.283C113.519 209.377 113.36 209.515 113.249 209.696C113.138 209.872 113.082 210.08 113.082 210.32H110.551C110.551 209.916 110.645 209.532 110.832 209.169C111.02 208.806 111.292 208.486 111.649 208.211C112.007 207.93 112.432 207.71 112.924 207.552C113.422 207.394 113.979 207.314 114.594 207.314C115.332 207.314 115.988 207.438 116.562 207.684C117.137 207.93 117.588 208.299 117.916 208.791C118.25 209.283 118.417 209.898 118.417 210.637V214.706C118.417 215.228 118.449 215.655 118.514 215.989C118.578 216.317 118.672 216.604 118.795 216.851V217H116.237C116.114 216.742 116.021 216.42 115.956 216.033C115.897 215.641 115.868 215.248 115.868 214.855ZM116.202 211.208L116.22 212.641H114.805C114.471 212.641 114.181 212.679 113.935 212.755C113.688 212.831 113.486 212.939 113.328 213.08C113.17 213.215 113.053 213.373 112.977 213.555C112.906 213.736 112.871 213.936 112.871 214.152C112.871 214.369 112.921 214.565 113.021 214.741C113.12 214.911 113.264 215.046 113.451 215.146C113.639 215.239 113.858 215.286 114.11 215.286C114.491 215.286 114.822 215.21 115.104 215.058C115.385 214.905 115.602 214.718 115.754 214.495C115.912 214.272 115.994 214.062 116 213.862L116.668 214.935C116.574 215.175 116.445 215.424 116.281 215.682C116.123 215.939 115.921 216.183 115.675 216.411C115.429 216.634 115.133 216.818 114.787 216.965C114.441 217.105 114.031 217.176 113.557 217.176C112.953 217.176 112.405 217.056 111.913 216.815C111.427 216.569 111.04 216.232 110.753 215.805C110.472 215.371 110.331 214.879 110.331 214.328C110.331 213.83 110.425 213.388 110.612 213.001C110.8 212.614 111.075 212.289 111.438 212.025C111.808 211.756 112.268 211.554 112.818 211.419C113.369 211.278 114.008 211.208 114.734 211.208H116.202ZM123.594 217H121.045V206.646C121.045 205.926 121.186 205.319 121.467 204.827C121.754 204.329 122.155 203.954 122.671 203.702C123.192 203.444 123.811 203.315 124.525 203.315C124.76 203.315 124.985 203.333 125.202 203.368C125.419 203.397 125.63 203.436 125.835 203.482L125.809 205.39C125.697 205.36 125.58 205.34 125.457 205.328C125.334 205.316 125.19 205.311 125.026 205.311C124.722 205.311 124.461 205.363 124.244 205.469C124.033 205.568 123.872 205.718 123.761 205.917C123.649 206.116 123.594 206.359 123.594 206.646V217ZM125.492 207.49V209.283H119.63V207.49H125.492ZM130.985 217.176C130.247 217.176 129.585 217.059 128.999 216.824C128.413 216.584 127.915 216.253 127.505 215.831C127.101 215.409 126.79 214.92 126.573 214.363C126.356 213.801 126.248 213.203 126.248 212.57V212.219C126.248 211.498 126.351 210.839 126.556 210.241C126.761 209.644 127.054 209.125 127.435 208.686C127.821 208.246 128.29 207.909 128.841 207.675C129.392 207.435 130.013 207.314 130.704 207.314C131.378 207.314 131.976 207.426 132.497 207.648C133.019 207.871 133.455 208.188 133.807 208.598C134.164 209.008 134.434 209.5 134.615 210.074C134.797 210.643 134.888 211.275 134.888 211.973V213.027H127.329V211.34H132.4V211.146C132.4 210.795 132.336 210.481 132.207 210.206C132.084 209.925 131.896 209.702 131.645 209.538C131.393 209.374 131.07 209.292 130.678 209.292C130.344 209.292 130.057 209.365 129.816 209.512C129.576 209.658 129.38 209.863 129.228 210.127C129.081 210.391 128.97 210.701 128.894 211.059C128.823 211.41 128.788 211.797 128.788 212.219V212.57C128.788 212.951 128.841 213.303 128.946 213.625C129.058 213.947 129.213 214.226 129.412 214.46C129.617 214.694 129.863 214.876 130.15 215.005C130.443 215.134 130.774 215.198 131.144 215.198C131.601 215.198 132.025 215.11 132.418 214.935C132.816 214.753 133.159 214.48 133.446 214.117L134.677 215.453C134.478 215.74 134.205 216.016 133.859 216.279C133.52 216.543 133.109 216.76 132.629 216.93C132.148 217.094 131.601 217.176 130.985 217.176ZM140.987 207.49V209.283H135.45V207.49H140.987ZM136.821 205.144H139.353V214.135C139.353 214.41 139.388 214.621 139.458 214.768C139.534 214.914 139.646 215.017 139.792 215.075C139.938 215.128 140.123 215.154 140.346 215.154C140.504 215.154 140.645 215.148 140.768 215.137C140.896 215.119 141.005 215.102 141.093 215.084L141.102 216.947C140.885 217.018 140.65 217.073 140.398 217.114C140.146 217.155 139.868 217.176 139.563 217.176C139.007 217.176 138.521 217.085 138.104 216.903C137.694 216.716 137.378 216.417 137.155 216.007C136.933 215.597 136.821 215.058 136.821 214.39V205.144ZM145.25 215.928L147.772 207.49H150.488L146.665 218.433C146.583 218.673 146.472 218.931 146.331 219.206C146.196 219.481 146.012 219.742 145.777 219.988C145.549 220.24 145.259 220.445 144.907 220.604C144.562 220.762 144.137 220.841 143.633 220.841C143.393 220.841 143.196 220.826 143.044 220.797C142.892 220.768 142.71 220.727 142.499 220.674V218.819C142.563 218.819 142.631 218.819 142.701 218.819C142.771 218.825 142.839 218.828 142.903 218.828C143.237 218.828 143.51 218.79 143.721 218.714C143.932 218.638 144.102 218.521 144.23 218.362C144.359 218.21 144.462 218.011 144.538 217.765L145.25 215.928ZM144.195 207.49L146.261 214.381L146.621 217.062L144.898 217.246L141.479 207.49H144.195ZM162.802 213.651C162.802 213.423 162.767 213.218 162.696 213.036C162.632 212.849 162.509 212.679 162.327 212.526C162.146 212.368 161.891 212.213 161.562 212.061C161.234 211.908 160.81 211.75 160.288 211.586C159.708 211.398 159.157 211.188 158.636 210.953C158.12 210.719 157.663 210.446 157.265 210.136C156.872 209.819 156.562 209.453 156.333 209.037C156.11 208.621 155.999 208.138 155.999 207.587C155.999 207.054 156.116 206.57 156.351 206.137C156.585 205.697 156.913 205.322 157.335 205.012C157.757 204.695 158.255 204.452 158.829 204.282C159.409 204.112 160.045 204.027 160.736 204.027C161.68 204.027 162.503 204.197 163.206 204.537C163.909 204.877 164.454 205.343 164.841 205.935C165.233 206.526 165.43 207.203 165.43 207.965H162.811C162.811 207.59 162.731 207.262 162.573 206.98C162.421 206.693 162.187 206.468 161.87 206.304C161.56 206.14 161.167 206.058 160.692 206.058C160.235 206.058 159.854 206.128 159.55 206.269C159.245 206.403 159.017 206.588 158.864 206.822C158.712 207.051 158.636 207.309 158.636 207.596C158.636 207.812 158.688 208.009 158.794 208.185C158.905 208.36 159.069 208.524 159.286 208.677C159.503 208.829 159.77 208.973 160.086 209.107C160.402 209.242 160.769 209.374 161.185 209.503C161.882 209.714 162.494 209.951 163.021 210.215C163.555 210.479 164 210.774 164.357 211.103C164.715 211.431 164.984 211.803 165.166 212.219C165.348 212.635 165.438 213.106 165.438 213.634C165.438 214.19 165.33 214.688 165.113 215.128C164.896 215.567 164.583 215.939 164.173 216.244C163.763 216.549 163.273 216.78 162.705 216.938C162.137 217.097 161.501 217.176 160.798 217.176C160.165 217.176 159.541 217.094 158.926 216.93C158.311 216.76 157.751 216.505 157.247 216.165C156.749 215.825 156.351 215.392 156.052 214.864C155.753 214.337 155.604 213.713 155.604 212.992H158.249C158.249 213.391 158.311 213.728 158.434 214.003C158.557 214.278 158.729 214.501 158.952 214.671C159.181 214.841 159.45 214.964 159.761 215.04C160.077 215.116 160.423 215.154 160.798 215.154C161.255 215.154 161.63 215.09 161.923 214.961C162.222 214.832 162.441 214.653 162.582 214.425C162.729 214.196 162.802 213.938 162.802 213.651ZM171.45 217.176C170.712 217.176 170.05 217.059 169.464 216.824C168.878 216.584 168.38 216.253 167.97 215.831C167.565 215.409 167.255 214.92 167.038 214.363C166.821 213.801 166.713 213.203 166.713 212.57V212.219C166.713 211.498 166.815 210.839 167.021 210.241C167.226 209.644 167.519 209.125 167.899 208.686C168.286 208.246 168.755 207.909 169.306 207.675C169.856 207.435 170.478 207.314 171.169 207.314C171.843 207.314 172.44 207.426 172.962 207.648C173.483 207.871 173.92 208.188 174.271 208.598C174.629 209.008 174.898 209.5 175.08 210.074C175.262 210.643 175.353 211.275 175.353 211.973V213.027H167.794V211.34H172.865V211.146C172.865 210.795 172.801 210.481 172.672 210.206C172.549 209.925 172.361 209.702 172.109 209.538C171.857 209.374 171.535 209.292 171.143 209.292C170.809 209.292 170.521 209.365 170.281 209.512C170.041 209.658 169.845 209.863 169.692 210.127C169.546 210.391 169.435 210.701 169.358 211.059C169.288 211.41 169.253 211.797 169.253 212.219V212.57C169.253 212.951 169.306 213.303 169.411 213.625C169.522 213.947 169.678 214.226 169.877 214.46C170.082 214.694 170.328 214.876 170.615 215.005C170.908 215.134 171.239 215.198 171.608 215.198C172.065 215.198 172.49 215.11 172.883 214.935C173.281 214.753 173.624 214.48 173.911 214.117L175.142 215.453C174.942 215.74 174.67 216.016 174.324 216.279C173.984 216.543 173.574 216.76 173.094 216.93C172.613 217.094 172.065 217.176 171.45 217.176ZM179.325 209.564V217H176.794V207.49H179.176L179.325 209.564ZM182.19 207.429L182.146 209.775C182.023 209.758 181.874 209.743 181.698 209.731C181.528 209.714 181.373 209.705 181.232 209.705C180.875 209.705 180.564 209.752 180.301 209.846C180.043 209.934 179.826 210.065 179.65 210.241C179.48 210.417 179.352 210.631 179.264 210.883C179.182 211.135 179.135 211.422 179.123 211.744L178.613 211.586C178.613 210.971 178.675 210.405 178.798 209.89C178.921 209.368 179.1 208.914 179.334 208.527C179.574 208.141 179.867 207.842 180.213 207.631C180.559 207.42 180.954 207.314 181.399 207.314C181.54 207.314 181.684 207.326 181.83 207.35C181.977 207.367 182.097 207.394 182.19 207.429ZM186.778 215.154L188.888 207.49H191.533L188.325 217H186.726L186.778 215.154ZM185.328 207.49L187.446 215.163L187.49 217H185.882L182.674 207.49H185.328ZM195.339 207.49V217H192.799V207.49H195.339ZM192.641 205.012C192.641 204.643 192.77 204.338 193.027 204.098C193.285 203.857 193.631 203.737 194.064 203.737C194.492 203.737 194.835 203.857 195.093 204.098C195.356 204.338 195.488 204.643 195.488 205.012C195.488 205.381 195.356 205.686 195.093 205.926C194.835 206.166 194.492 206.286 194.064 206.286C193.631 206.286 193.285 206.166 193.027 205.926C192.77 205.686 192.641 205.381 192.641 205.012ZM201.359 215.198C201.67 215.198 201.945 215.14 202.186 215.022C202.426 214.899 202.613 214.729 202.748 214.513C202.889 214.29 202.962 214.029 202.968 213.73H205.35C205.344 214.398 205.165 214.993 204.813 215.515C204.462 216.03 203.99 216.438 203.398 216.736C202.807 217.029 202.145 217.176 201.412 217.176C200.674 217.176 200.029 217.053 199.479 216.807C198.934 216.561 198.479 216.221 198.116 215.787C197.753 215.348 197.48 214.838 197.299 214.258C197.117 213.672 197.026 213.045 197.026 212.377V212.122C197.026 211.448 197.117 210.821 197.299 210.241C197.48 209.655 197.753 209.146 198.116 208.712C198.479 208.272 198.934 207.93 199.479 207.684C200.023 207.438 200.662 207.314 201.395 207.314C202.174 207.314 202.856 207.464 203.442 207.763C204.034 208.062 204.497 208.489 204.831 209.046C205.171 209.597 205.344 210.25 205.35 211.006H202.968C202.962 210.689 202.895 210.402 202.766 210.145C202.643 209.887 202.461 209.682 202.221 209.529C201.986 209.371 201.696 209.292 201.351 209.292C200.981 209.292 200.68 209.371 200.445 209.529C200.211 209.682 200.029 209.893 199.9 210.162C199.771 210.426 199.681 210.728 199.628 211.067C199.581 211.401 199.558 211.753 199.558 212.122V212.377C199.558 212.746 199.581 213.101 199.628 213.44C199.675 213.78 199.763 214.082 199.892 214.346C200.026 214.609 200.211 214.817 200.445 214.97C200.68 215.122 200.984 215.198 201.359 215.198ZM211.194 217.176C210.456 217.176 209.794 217.059 209.208 216.824C208.622 216.584 208.124 216.253 207.714 215.831C207.31 215.409 206.999 214.92 206.782 214.363C206.565 213.801 206.457 213.203 206.457 212.57V212.219C206.457 211.498 206.56 210.839 206.765 210.241C206.97 209.644 207.263 209.125 207.644 208.686C208.03 208.246 208.499 207.909 209.05 207.675C209.601 207.435 210.222 207.314 210.913 207.314C211.587 207.314 212.185 207.426 212.706 207.648C213.228 207.871 213.664 208.188 214.016 208.598C214.373 209.008 214.643 209.5 214.824 210.074C215.006 210.643 215.097 211.275 215.097 211.973V213.027H207.538V211.34H212.609V211.146C212.609 210.795 212.545 210.481 212.416 210.206C212.293 209.925 212.105 209.702 211.854 209.538C211.602 209.374 211.279 209.292 210.887 209.292C210.553 209.292 210.266 209.365 210.025 209.512C209.785 209.658 209.589 209.863 209.437 210.127C209.29 210.391 209.179 210.701 209.103 211.059C209.032 211.41 208.997 211.797 208.997 212.219V212.57C208.997 212.951 209.05 213.303 209.155 213.625C209.267 213.947 209.422 214.226 209.621 214.46C209.826 214.694 210.072 214.876 210.359 215.005C210.652 215.134 210.983 215.198 211.353 215.198C211.81 215.198 212.234 215.11 212.627 214.935C213.025 214.753 213.368 214.48 213.655 214.117L214.886 215.453C214.687 215.74 214.414 216.016 214.068 216.279C213.729 216.543 213.318 216.76 212.838 216.93C212.357 217.094 211.81 217.176 211.194 217.176ZM221.68 214.372C221.68 214.19 221.627 214.026 221.521 213.88C221.416 213.733 221.22 213.599 220.933 213.476C220.651 213.347 220.244 213.229 219.711 213.124C219.23 213.019 218.782 212.887 218.366 212.729C217.956 212.564 217.599 212.368 217.294 212.14C216.995 211.911 216.761 211.642 216.591 211.331C216.421 211.015 216.336 210.654 216.336 210.25C216.336 209.852 216.421 209.477 216.591 209.125C216.767 208.773 217.016 208.463 217.338 208.193C217.666 207.918 218.064 207.704 218.533 207.552C219.008 207.394 219.541 207.314 220.133 207.314C220.959 207.314 221.668 207.446 222.26 207.71C222.857 207.974 223.314 208.337 223.631 208.8C223.953 209.257 224.114 209.778 224.114 210.364H221.583C221.583 210.118 221.53 209.898 221.425 209.705C221.325 209.506 221.167 209.351 220.95 209.239C220.739 209.122 220.464 209.063 220.124 209.063C219.843 209.063 219.6 209.113 219.395 209.213C219.189 209.307 219.031 209.436 218.92 209.6C218.814 209.758 218.762 209.934 218.762 210.127C218.762 210.273 218.791 210.405 218.85 210.522C218.914 210.634 219.017 210.736 219.157 210.83C219.298 210.924 219.479 211.012 219.702 211.094C219.931 211.17 220.212 211.24 220.546 211.305C221.231 211.445 221.844 211.63 222.383 211.858C222.922 212.081 223.35 212.386 223.666 212.772C223.982 213.153 224.141 213.654 224.141 214.275C224.141 214.697 224.047 215.084 223.859 215.436C223.672 215.787 223.402 216.095 223.051 216.358C222.699 216.616 222.277 216.818 221.785 216.965C221.299 217.105 220.751 217.176 220.142 217.176C219.257 217.176 218.507 217.018 217.892 216.701C217.282 216.385 216.819 215.983 216.503 215.497C216.192 215.005 216.037 214.501 216.037 213.985H218.437C218.448 214.331 218.536 214.609 218.7 214.82C218.87 215.031 219.084 215.184 219.342 215.277C219.605 215.371 219.89 215.418 220.194 215.418C220.522 215.418 220.795 215.374 221.012 215.286C221.229 215.192 221.393 215.069 221.504 214.917C221.621 214.759 221.68 214.577 221.68 214.372Z" fill="#0066CC"/>
<path d="M36.7139 247.582V249.533C36.7139 250.582 36.6201 251.467 36.4326 252.188C36.2451 252.908 35.9756 253.488 35.624 253.928C35.2725 254.367 34.8477 254.687 34.3496 254.886C33.8574 255.079 33.3008 255.176 32.6797 255.176C32.1875 255.176 31.7334 255.114 31.3174 254.991C30.9014 254.868 30.5264 254.672 30.1924 254.402C29.8643 254.127 29.583 253.77 29.3486 253.33C29.1143 252.891 28.9355 252.357 28.8125 251.73C28.6895 251.104 28.6279 250.371 28.6279 249.533V247.582C28.6279 246.533 28.7217 245.654 28.9092 244.945C29.1025 244.236 29.375 243.668 29.7266 243.24C30.0781 242.807 30.5 242.496 30.9922 242.309C31.4902 242.121 32.0469 242.027 32.6621 242.027C33.1602 242.027 33.6172 242.089 34.0332 242.212C34.4551 242.329 34.8301 242.52 35.1582 242.783C35.4863 243.041 35.7646 243.387 35.9932 243.82C36.2275 244.248 36.4062 244.772 36.5293 245.394C36.6523 246.015 36.7139 246.744 36.7139 247.582ZM35.0791 249.797V247.31C35.0791 246.735 35.0439 246.231 34.9736 245.798C34.9092 245.358 34.8125 244.983 34.6836 244.673C34.5547 244.362 34.3906 244.11 34.1914 243.917C33.998 243.724 33.7725 243.583 33.5146 243.495C33.2627 243.401 32.9785 243.354 32.6621 243.354C32.2754 243.354 31.9326 243.428 31.6338 243.574C31.335 243.715 31.083 243.94 30.8779 244.251C30.6787 244.562 30.5264 244.969 30.4209 245.473C30.3154 245.977 30.2627 246.589 30.2627 247.31V249.797C30.2627 250.371 30.2949 250.878 30.3594 251.317C30.4297 251.757 30.5322 252.138 30.667 252.46C30.8018 252.776 30.9658 253.037 31.1592 253.242C31.3525 253.447 31.5752 253.6 31.8271 253.699C32.085 253.793 32.3691 253.84 32.6797 253.84C33.0781 253.84 33.4268 253.764 33.7256 253.611C34.0244 253.459 34.2734 253.222 34.4727 252.899C34.6777 252.571 34.8301 252.152 34.9297 251.643C35.0293 251.127 35.0791 250.512 35.0791 249.797ZM46.874 251.537C46.874 252.316 46.6924 252.979 46.3291 253.523C45.9717 254.062 45.4854 254.473 44.8701 254.754C44.2607 255.035 43.5723 255.176 42.8047 255.176C42.0371 255.176 41.3457 255.035 40.7305 254.754C40.1152 254.473 39.6289 254.062 39.2715 253.523C38.9141 252.979 38.7354 252.316 38.7354 251.537C38.7354 251.027 38.832 250.562 39.0254 250.14C39.2246 249.712 39.5029 249.34 39.8604 249.023C40.2236 248.707 40.6514 248.464 41.1436 248.294C41.6416 248.118 42.1895 248.03 42.7871 248.03C43.5723 248.03 44.2725 248.183 44.8877 248.487C45.5029 248.786 45.9863 249.199 46.3379 249.727C46.6953 250.254 46.874 250.857 46.874 251.537ZM45.2393 251.502C45.2393 251.027 45.1367 250.608 44.9316 250.245C44.7266 249.876 44.4395 249.589 44.0703 249.384C43.7012 249.179 43.2734 249.076 42.7871 249.076C42.2891 249.076 41.8584 249.179 41.4951 249.384C41.1377 249.589 40.8594 249.876 40.6602 250.245C40.4609 250.608 40.3613 251.027 40.3613 251.502C40.3613 251.994 40.458 252.416 40.6514 252.768C40.8506 253.113 41.1318 253.38 41.4951 253.567C41.8643 253.749 42.3008 253.84 42.8047 253.84C43.3086 253.84 43.7422 253.749 44.1055 253.567C44.4688 253.38 44.7471 253.113 44.9404 252.768C45.1396 252.416 45.2393 251.994 45.2393 251.502ZM46.5752 245.534C46.5752 246.155 46.4111 246.715 46.083 247.213C45.7549 247.711 45.3066 248.104 44.7383 248.391C44.1699 248.678 43.5254 248.821 42.8047 248.821C42.0723 248.821 41.4189 248.678 40.8447 248.391C40.2764 248.104 39.8311 247.711 39.5088 247.213C39.1865 246.715 39.0254 246.155 39.0254 245.534C39.0254 244.79 39.1865 244.157 39.5088 243.636C39.8369 243.114 40.2852 242.716 40.8535 242.44C41.4219 242.165 42.0693 242.027 42.7959 242.027C43.5283 242.027 44.1787 242.165 44.7471 242.44C45.3154 242.716 45.7607 243.114 46.083 243.636C46.4111 244.157 46.5752 244.79 46.5752 245.534ZM44.9492 245.561C44.9492 245.133 44.8584 244.755 44.6768 244.427C44.4951 244.099 44.2432 243.841 43.9209 243.653C43.5986 243.46 43.2236 243.363 42.7959 243.363C42.3682 243.363 41.9932 243.454 41.6709 243.636C41.3545 243.812 41.1055 244.063 40.9238 244.392C40.748 244.72 40.6602 245.109 40.6602 245.561C40.6602 246 40.748 246.384 40.9238 246.712C41.1055 247.04 41.3574 247.295 41.6797 247.477C42.002 247.658 42.377 247.749 42.8047 247.749C43.2324 247.749 43.6045 247.658 43.9209 247.477C44.2432 247.295 44.4951 247.04 44.6768 246.712C44.8584 246.384 44.9492 246 44.9492 245.561ZM56.9639 247.582V249.533C56.9639 250.582 56.8701 251.467 56.6826 252.188C56.4951 252.908 56.2256 253.488 55.874 253.928C55.5225 254.367 55.0977 254.687 54.5996 254.886C54.1074 255.079 53.5508 255.176 52.9297 255.176C52.4375 255.176 51.9834 255.114 51.5674 254.991C51.1514 254.868 50.7764 254.672 50.4424 254.402C50.1143 254.127 49.833 253.77 49.5986 253.33C49.3643 252.891 49.1855 252.357 49.0625 251.73C48.9395 251.104 48.8779 250.371 48.8779 249.533V247.582C48.8779 246.533 48.9717 245.654 49.1592 244.945C49.3525 244.236 49.625 243.668 49.9766 243.24C50.3281 242.807 50.75 242.496 51.2422 242.309C51.7402 242.121 52.2969 242.027 52.9121 242.027C53.4102 242.027 53.8672 242.089 54.2832 242.212C54.7051 242.329 55.0801 242.52 55.4082 242.783C55.7363 243.041 56.0146 243.387 56.2432 243.82C56.4775 244.248 56.6562 244.772 56.7793 245.394C56.9023 246.015 56.9639 246.744 56.9639 247.582ZM55.3291 249.797V247.31C55.3291 246.735 55.2939 246.231 55.2236 245.798C55.1592 245.358 55.0625 244.983 54.9336 244.673C54.8047 244.362 54.6406 244.11 54.4414 243.917C54.248 243.724 54.0225 243.583 53.7646 243.495C53.5127 243.401 53.2285 243.354 52.9121 243.354C52.5254 243.354 52.1826 243.428 51.8838 243.574C51.585 243.715 51.333 243.94 51.1279 244.251C50.9287 244.562 50.7764 244.969 50.6709 245.473C50.5654 245.977 50.5127 246.589 50.5127 247.31V249.797C50.5127 250.371 50.5449 250.878 50.6094 251.317C50.6797 251.757 50.7822 252.138 50.917 252.46C51.0518 252.776 51.2158 253.037 51.4092 253.242C51.6025 253.447 51.8252 253.6 52.0771 253.699C52.335 253.793 52.6191 253.84 52.9297 253.84C53.3281 253.84 53.6768 253.764 53.9756 253.611C54.2744 253.459 54.5234 253.222 54.7227 252.899C54.9277 252.571 55.0801 252.152 55.1797 251.643C55.2793 251.127 55.3291 250.512 55.3291 249.797ZM61.4287 247.802H62.5889C63.1572 247.802 63.626 247.708 63.9951 247.521C64.3701 247.327 64.6484 247.066 64.8301 246.738C65.0176 246.404 65.1113 246.029 65.1113 245.613C65.1113 245.121 65.0293 244.708 64.8652 244.374C64.7012 244.04 64.4551 243.788 64.127 243.618C63.7988 243.448 63.3828 243.363 62.8789 243.363C62.4219 243.363 62.0176 243.454 61.666 243.636C61.3203 243.812 61.0479 244.063 60.8486 244.392C60.6553 244.72 60.5586 245.106 60.5586 245.552H58.9326C58.9326 244.901 59.0967 244.31 59.4248 243.776C59.7529 243.243 60.2129 242.818 60.8047 242.502C61.4023 242.186 62.0938 242.027 62.8789 242.027C63.6523 242.027 64.3291 242.165 64.9092 242.44C65.4893 242.71 65.9404 243.114 66.2627 243.653C66.585 244.187 66.7461 244.852 66.7461 245.648C66.7461 245.971 66.6699 246.316 66.5176 246.686C66.3711 247.049 66.1396 247.389 65.8232 247.705C65.5127 248.021 65.1084 248.282 64.6104 248.487C64.1123 248.687 63.5146 248.786 62.8174 248.786H61.4287V247.802ZM61.4287 249.138V248.162H62.8174C63.6318 248.162 64.3057 248.259 64.8389 248.452C65.3721 248.646 65.791 248.903 66.0957 249.226C66.4062 249.548 66.623 249.902 66.7461 250.289C66.875 250.67 66.9395 251.051 66.9395 251.432C66.9395 252.029 66.8369 252.56 66.6318 253.022C66.4326 253.485 66.1484 253.878 65.7793 254.2C65.416 254.522 64.9883 254.766 64.4961 254.93C64.0039 255.094 63.4678 255.176 62.8877 255.176C62.3311 255.176 61.8066 255.097 61.3145 254.938C60.8281 254.78 60.3975 254.552 60.0225 254.253C59.6475 253.948 59.3545 253.576 59.1436 253.137C58.9326 252.691 58.8271 252.185 58.8271 251.616H60.4531C60.4531 252.062 60.5498 252.451 60.7432 252.785C60.9424 253.119 61.2236 253.38 61.5869 253.567C61.9561 253.749 62.3896 253.84 62.8877 253.84C63.3857 253.84 63.8135 253.755 64.1709 253.585C64.5342 253.409 64.8125 253.146 65.0059 252.794C65.2051 252.442 65.3047 252 65.3047 251.467C65.3047 250.934 65.1934 250.497 64.9707 250.157C64.748 249.812 64.4316 249.557 64.0215 249.393C63.6172 249.223 63.1396 249.138 62.5889 249.138H61.4287ZM71.5537 247.802H72.7139C73.2822 247.802 73.751 247.708 74.1201 247.521C74.4951 247.327 74.7734 247.066 74.9551 246.738C75.1426 246.404 75.2363 246.029 75.2363 245.613C75.2363 245.121 75.1543 244.708 74.9902 244.374C74.8262 244.04 74.5801 243.788 74.252 243.618C73.9238 243.448 73.5078 243.363 73.0039 243.363C72.5469 243.363 72.1426 243.454 71.791 243.636C71.4453 243.812 71.1729 244.063 70.9736 244.392C70.7803 244.72 70.6836 245.106 70.6836 245.552H69.0576C69.0576 244.901 69.2217 244.31 69.5498 243.776C69.8779 243.243 70.3379 242.818 70.9297 242.502C71.5273 242.186 72.2188 242.027 73.0039 242.027C73.7773 242.027 74.4541 242.165 75.0342 242.44C75.6143 242.71 76.0654 243.114 76.3877 243.653C76.71 244.187 76.8711 244.852 76.8711 245.648C76.8711 245.971 76.7949 246.316 76.6426 246.686C76.4961 247.049 76.2646 247.389 75.9482 247.705C75.6377 248.021 75.2334 248.282 74.7354 248.487C74.2373 248.687 73.6396 248.786 72.9424 248.786H71.5537V247.802ZM71.5537 249.138V248.162H72.9424C73.7568 248.162 74.4307 248.259 74.9639 248.452C75.4971 248.646 75.916 248.903 76.2207 249.226C76.5312 249.548 76.748 249.902 76.8711 250.289C77 250.67 77.0645 251.051 77.0645 251.432C77.0645 252.029 76.9619 252.56 76.7568 253.022C76.5576 253.485 76.2734 253.878 75.9043 254.2C75.541 254.522 75.1133 254.766 74.6211 254.93C74.1289 255.094 73.5928 255.176 73.0127 255.176C72.4561 255.176 71.9316 255.097 71.4395 254.938C70.9531 254.78 70.5225 254.552 70.1475 254.253C69.7725 253.948 69.4795 253.576 69.2686 253.137C69.0576 252.691 68.9521 252.185 68.9521 251.616H70.5781C70.5781 252.062 70.6748 252.451 70.8682 252.785C71.0674 253.119 71.3486 253.38 71.7119 253.567C72.0811 253.749 72.5146 253.84 73.0127 253.84C73.5107 253.84 73.9385 253.755 74.2959 253.585C74.6592 253.409 74.9375 253.146 75.1309 252.794C75.3301 252.442 75.4297 252 75.4297 251.467C75.4297 250.934 75.3184 250.497 75.0957 250.157C74.873 249.812 74.5566 249.557 74.1465 249.393C73.7422 249.223 73.2646 249.138 72.7139 249.138H71.5537ZM87.6904 253.664V255H79.3145V253.831L83.5068 249.164C84.0225 248.59 84.4209 248.104 84.7021 247.705C84.9893 247.301 85.1885 246.94 85.2998 246.624C85.417 246.302 85.4756 245.974 85.4756 245.64C85.4756 245.218 85.3877 244.837 85.2119 244.497C85.042 244.151 84.79 243.876 84.4561 243.671C84.1221 243.466 83.7178 243.363 83.2432 243.363C82.6748 243.363 82.2002 243.475 81.8193 243.697C81.4443 243.914 81.1631 244.219 80.9756 244.611C80.7881 245.004 80.6943 245.455 80.6943 245.965H79.0684C79.0684 245.244 79.2266 244.585 79.543 243.987C79.8594 243.39 80.3281 242.915 80.9492 242.563C81.5703 242.206 82.335 242.027 83.2432 242.027C84.0518 242.027 84.7432 242.171 85.3174 242.458C85.8916 242.739 86.3311 243.138 86.6357 243.653C86.9463 244.163 87.1016 244.761 87.1016 245.446C87.1016 245.821 87.0371 246.202 86.9082 246.589C86.7852 246.97 86.6123 247.351 86.3896 247.731C86.1729 248.112 85.918 248.487 85.625 248.856C85.3379 249.226 85.0303 249.589 84.7021 249.946L81.2744 253.664H87.6904ZM91.8037 247.802H92.9639C93.5322 247.802 94.001 247.708 94.3701 247.521C94.7451 247.327 95.0234 247.066 95.2051 246.738C95.3926 246.404 95.4863 246.029 95.4863 245.613C95.4863 245.121 95.4043 244.708 95.2402 244.374C95.0762 244.04 94.8301 243.788 94.502 243.618C94.1738 243.448 93.7578 243.363 93.2539 243.363C92.7969 243.363 92.3926 243.454 92.041 243.636C91.6953 243.812 91.4229 244.063 91.2236 244.392C91.0303 244.72 90.9336 245.106 90.9336 245.552H89.3076C89.3076 244.901 89.4717 244.31 89.7998 243.776C90.1279 243.243 90.5879 242.818 91.1797 242.502C91.7773 242.186 92.4688 242.027 93.2539 242.027C94.0273 242.027 94.7041 242.165 95.2842 242.44C95.8643 242.71 96.3154 243.114 96.6377 243.653C96.96 244.187 97.1211 244.852 97.1211 245.648C97.1211 245.971 97.0449 246.316 96.8926 246.686C96.7461 247.049 96.5146 247.389 96.1982 247.705C95.8877 248.021 95.4834 248.282 94.9854 248.487C94.4873 248.687 93.8896 248.786 93.1924 248.786H91.8037V247.802ZM91.8037 249.138V248.162H93.1924C94.0068 248.162 94.6807 248.259 95.2139 248.452C95.7471 248.646 96.166 248.903 96.4707 249.226C96.7812 249.548 96.998 249.902 97.1211 250.289C97.25 250.67 97.3145 251.051 97.3145 251.432C97.3145 252.029 97.2119 252.56 97.0068 253.022C96.8076 253.485 96.5234 253.878 96.1543 254.2C95.791 254.522 95.3633 254.766 94.8711 254.93C94.3789 255.094 93.8428 255.176 93.2627 255.176C92.7061 255.176 92.1816 255.097 91.6895 254.938C91.2031 254.78 90.7725 254.552 90.3975 254.253C90.0225 253.948 89.7295 253.576 89.5186 253.137C89.3076 252.691 89.2021 252.185 89.2021 251.616H90.8281C90.8281 252.062 90.9248 252.451 91.1182 252.785C91.3174 253.119 91.5986 253.38 91.9619 253.567C92.3311 253.749 92.7646 253.84 93.2627 253.84C93.7607 253.84 94.1885 253.755 94.5459 253.585C94.9092 253.409 95.1875 253.146 95.3809 252.794C95.5801 252.442 95.6797 252 95.6797 251.467C95.6797 250.934 95.5684 250.497 95.3457 250.157C95.123 249.812 94.8066 249.557 94.3965 249.393C93.9922 249.223 93.5146 249.138 92.9639 249.138H91.8037ZM108.204 250.693V252.029H98.958V251.071L104.688 242.203H106.016L104.592 244.77L100.804 250.693H108.204ZM106.42 242.203V255H104.794V242.203H106.42ZM111.298 253.638H111.465C112.402 253.638 113.164 253.506 113.75 253.242C114.336 252.979 114.787 252.624 115.104 252.179C115.42 251.733 115.637 251.232 115.754 250.676C115.871 250.113 115.93 249.536 115.93 248.944V246.984C115.93 246.404 115.862 245.889 115.728 245.438C115.599 244.986 115.417 244.608 115.183 244.304C114.954 243.999 114.693 243.768 114.4 243.609C114.107 243.451 113.797 243.372 113.469 243.372C113.094 243.372 112.757 243.448 112.458 243.601C112.165 243.747 111.916 243.955 111.711 244.225C111.512 244.494 111.359 244.811 111.254 245.174C111.148 245.537 111.096 245.933 111.096 246.36C111.096 246.741 111.143 247.11 111.236 247.468C111.33 247.825 111.474 248.147 111.667 248.435C111.86 248.722 112.101 248.95 112.388 249.12C112.681 249.284 113.023 249.366 113.416 249.366C113.779 249.366 114.119 249.296 114.436 249.155C114.758 249.009 115.042 248.812 115.288 248.566C115.54 248.314 115.739 248.03 115.886 247.714C116.038 247.397 116.126 247.066 116.149 246.721H116.923C116.923 247.207 116.826 247.688 116.633 248.162C116.445 248.631 116.182 249.059 115.842 249.445C115.502 249.832 115.104 250.143 114.646 250.377C114.189 250.605 113.691 250.72 113.152 250.72C112.52 250.72 111.972 250.597 111.509 250.351C111.046 250.104 110.665 249.776 110.366 249.366C110.073 248.956 109.854 248.499 109.707 247.995C109.566 247.485 109.496 246.97 109.496 246.448C109.496 245.839 109.581 245.268 109.751 244.734C109.921 244.201 110.173 243.732 110.507 243.328C110.841 242.918 111.254 242.599 111.746 242.37C112.244 242.142 112.818 242.027 113.469 242.027C114.201 242.027 114.825 242.174 115.341 242.467C115.856 242.76 116.275 243.152 116.598 243.645C116.926 244.137 117.166 244.69 117.318 245.306C117.471 245.921 117.547 246.554 117.547 247.204V247.793C117.547 248.455 117.503 249.129 117.415 249.814C117.333 250.494 117.172 251.145 116.932 251.766C116.697 252.387 116.354 252.943 115.903 253.436C115.452 253.922 114.863 254.309 114.137 254.596C113.416 254.877 112.525 255.018 111.465 255.018H111.298V253.638ZM128.454 250.693V252.029H119.208V251.071L124.938 242.203H126.266L124.842 244.77L121.054 250.693H128.454ZM126.67 242.203V255H125.044V242.203H126.67ZM132.304 247.802H133.464C134.032 247.802 134.501 247.708 134.87 247.521C135.245 247.327 135.523 247.066 135.705 246.738C135.893 246.404 135.986 246.029 135.986 245.613C135.986 245.121 135.904 244.708 135.74 244.374C135.576 244.04 135.33 243.788 135.002 243.618C134.674 243.448 134.258 243.363 133.754 243.363C133.297 243.363 132.893 243.454 132.541 243.636C132.195 243.812 131.923 244.063 131.724 244.392C131.53 244.72 131.434 245.106 131.434 245.552H129.808C129.808 244.901 129.972 244.31 130.3 243.776C130.628 243.243 131.088 242.818 131.68 242.502C132.277 242.186 132.969 242.027 133.754 242.027C134.527 242.027 135.204 242.165 135.784 242.44C136.364 242.71 136.815 243.114 137.138 243.653C137.46 244.187 137.621 244.852 137.621 245.648C137.621 245.971 137.545 246.316 137.393 246.686C137.246 247.049 137.015 247.389 136.698 247.705C136.388 248.021 135.983 248.282 135.485 248.487C134.987 248.687 134.39 248.786 133.692 248.786H132.304V247.802ZM132.304 249.138V248.162H133.692C134.507 248.162 135.181 248.259 135.714 248.452C136.247 248.646 136.666 248.903 136.971 249.226C137.281 249.548 137.498 249.902 137.621 250.289C137.75 250.67 137.814 251.051 137.814 251.432C137.814 252.029 137.712 252.56 137.507 253.022C137.308 253.485 137.023 253.878 136.654 254.2C136.291 254.522 135.863 254.766 135.371 254.93C134.879 255.094 134.343 255.176 133.763 255.176C133.206 255.176 132.682 255.097 132.189 254.938C131.703 254.78 131.272 254.552 130.897 254.253C130.522 253.948 130.229 253.576 130.019 253.137C129.808 252.691 129.702 252.185 129.702 251.616H131.328C131.328 252.062 131.425 252.451 131.618 252.785C131.817 253.119 132.099 253.38 132.462 253.567C132.831 253.749 133.265 253.84 133.763 253.84C134.261 253.84 134.688 253.755 135.046 253.585C135.409 253.409 135.688 253.146 135.881 252.794C136.08 252.442 136.18 252 136.18 251.467C136.18 250.934 136.068 250.497 135.846 250.157C135.623 249.812 135.307 249.557 134.896 249.393C134.492 249.223 134.015 249.138 133.464 249.138H132.304ZM141.708 253.066V254.376C141.708 254.909 141.573 255.472 141.304 256.063C141.034 256.661 140.656 257.159 140.17 257.558L139.247 256.916C139.435 256.658 139.593 256.395 139.722 256.125C139.851 255.861 139.947 255.586 140.012 255.299C140.082 255.018 140.117 254.719 140.117 254.402V253.066H141.708ZM156.104 247.582V249.533C156.104 250.582 156.011 251.467 155.823 252.188C155.636 252.908 155.366 253.488 155.015 253.928C154.663 254.367 154.238 254.687 153.74 254.886C153.248 255.079 152.691 255.176 152.07 255.176C151.578 255.176 151.124 255.114 150.708 254.991C150.292 254.868 149.917 254.672 149.583 254.402C149.255 254.127 148.974 253.77 148.739 253.33C148.505 252.891 148.326 252.357 148.203 251.73C148.08 251.104 148.019 250.371 148.019 249.533V247.582C148.019 246.533 148.112 245.654 148.3 244.945C148.493 244.236 148.766 243.668 149.117 243.24C149.469 242.807 149.891 242.496 150.383 242.309C150.881 242.121 151.438 242.027 152.053 242.027C152.551 242.027 153.008 242.089 153.424 242.212C153.846 242.329 154.221 242.52 154.549 242.783C154.877 243.041 155.155 243.387 155.384 243.82C155.618 244.248 155.797 244.772 155.92 245.394C156.043 246.015 156.104 246.744 156.104 247.582ZM154.47 249.797V247.31C154.47 246.735 154.435 246.231 154.364 245.798C154.3 245.358 154.203 244.983 154.074 244.673C153.945 244.362 153.781 244.11 153.582 243.917C153.389 243.724 153.163 243.583 152.905 243.495C152.653 243.401 152.369 243.354 152.053 243.354C151.666 243.354 151.323 243.428 151.024 243.574C150.726 243.715 150.474 243.94 150.269 244.251C150.069 244.562 149.917 244.969 149.812 245.473C149.706 245.977 149.653 246.589 149.653 247.31V249.797C149.653 250.371 149.686 250.878 149.75 251.317C149.82 251.757 149.923 252.138 150.058 252.46C150.192 252.776 150.356 253.037 150.55 253.242C150.743 253.447 150.966 253.6 151.218 253.699C151.476 253.793 151.76 253.84 152.07 253.84C152.469 253.84 152.817 253.764 153.116 253.611C153.415 253.459 153.664 253.222 153.863 252.899C154.068 252.571 154.221 252.152 154.32 251.643C154.42 251.127 154.47 250.512 154.47 249.797ZM166.265 251.537C166.265 252.316 166.083 252.979 165.72 253.523C165.362 254.062 164.876 254.473 164.261 254.754C163.651 255.035 162.963 255.176 162.195 255.176C161.428 255.176 160.736 255.035 160.121 254.754C159.506 254.473 159.02 254.062 158.662 253.523C158.305 252.979 158.126 252.316 158.126 251.537C158.126 251.027 158.223 250.562 158.416 250.14C158.615 249.712 158.894 249.34 159.251 249.023C159.614 248.707 160.042 248.464 160.534 248.294C161.032 248.118 161.58 248.03 162.178 248.03C162.963 248.03 163.663 248.183 164.278 248.487C164.894 248.786 165.377 249.199 165.729 249.727C166.086 250.254 166.265 250.857 166.265 251.537ZM164.63 251.502C164.63 251.027 164.527 250.608 164.322 250.245C164.117 249.876 163.83 249.589 163.461 249.384C163.092 249.179 162.664 249.076 162.178 249.076C161.68 249.076 161.249 249.179 160.886 249.384C160.528 249.589 160.25 249.876 160.051 250.245C159.852 250.608 159.752 251.027 159.752 251.502C159.752 251.994 159.849 252.416 160.042 252.768C160.241 253.113 160.522 253.38 160.886 253.567C161.255 253.749 161.691 253.84 162.195 253.84C162.699 253.84 163.133 253.749 163.496 253.567C163.859 253.38 164.138 253.113 164.331 252.768C164.53 252.416 164.63 251.994 164.63 251.502ZM165.966 245.534C165.966 246.155 165.802 246.715 165.474 247.213C165.146 247.711 164.697 248.104 164.129 248.391C163.561 248.678 162.916 248.821 162.195 248.821C161.463 248.821 160.81 248.678 160.235 248.391C159.667 248.104 159.222 247.711 158.899 247.213C158.577 246.715 158.416 246.155 158.416 245.534C158.416 244.79 158.577 244.157 158.899 243.636C159.228 243.114 159.676 242.716 160.244 242.44C160.812 242.165 161.46 242.027 162.187 242.027C162.919 242.027 163.569 242.165 164.138 242.44C164.706 242.716 165.151 243.114 165.474 243.636C165.802 244.157 165.966 244.79 165.966 245.534ZM164.34 245.561C164.34 245.133 164.249 244.755 164.067 244.427C163.886 244.099 163.634 243.841 163.312 243.653C162.989 243.46 162.614 243.363 162.187 243.363C161.759 243.363 161.384 243.454 161.062 243.636C160.745 243.812 160.496 244.063 160.314 244.392C160.139 244.72 160.051 245.109 160.051 245.561C160.051 246 160.139 246.384 160.314 246.712C160.496 247.04 160.748 247.295 161.07 247.477C161.393 247.658 161.768 247.749 162.195 247.749C162.623 247.749 162.995 247.658 163.312 247.477C163.634 247.295 163.886 247.04 164.067 246.712C164.249 246.384 164.34 246 164.34 245.561ZM176.354 247.582V249.533C176.354 250.582 176.261 251.467 176.073 252.188C175.886 252.908 175.616 253.488 175.265 253.928C174.913 254.367 174.488 254.687 173.99 254.886C173.498 255.079 172.941 255.176 172.32 255.176C171.828 255.176 171.374 255.114 170.958 254.991C170.542 254.868 170.167 254.672 169.833 254.402C169.505 254.127 169.224 253.77 168.989 253.33C168.755 252.891 168.576 252.357 168.453 251.73C168.33 251.104 168.269 250.371 168.269 249.533V247.582C168.269 246.533 168.362 245.654 168.55 244.945C168.743 244.236 169.016 243.668 169.367 243.24C169.719 242.807 170.141 242.496 170.633 242.309C171.131 242.121 171.688 242.027 172.303 242.027C172.801 242.027 173.258 242.089 173.674 242.212C174.096 242.329 174.471 242.52 174.799 242.783C175.127 243.041 175.405 243.387 175.634 243.82C175.868 244.248 176.047 244.772 176.17 245.394C176.293 246.015 176.354 246.744 176.354 247.582ZM174.72 249.797V247.31C174.72 246.735 174.685 246.231 174.614 245.798C174.55 245.358 174.453 244.983 174.324 244.673C174.195 244.362 174.031 244.11 173.832 243.917C173.639 243.724 173.413 243.583 173.155 243.495C172.903 243.401 172.619 243.354 172.303 243.354C171.916 243.354 171.573 243.428 171.274 243.574C170.976 243.715 170.724 243.94 170.519 244.251C170.319 244.562 170.167 244.969 170.062 245.473C169.956 245.977 169.903 246.589 169.903 247.31V249.797C169.903 250.371 169.936 250.878 170 251.317C170.07 251.757 170.173 252.138 170.308 252.46C170.442 252.776 170.606 253.037 170.8 253.242C170.993 253.447 171.216 253.6 171.468 253.699C171.726 253.793 172.01 253.84 172.32 253.84C172.719 253.84 173.067 253.764 173.366 253.611C173.665 253.459 173.914 253.222 174.113 252.899C174.318 252.571 174.471 252.152 174.57 251.643C174.67 251.127 174.72 250.512 174.72 249.797ZM186.831 253.664V255H178.455V253.831L182.647 249.164C183.163 248.59 183.562 248.104 183.843 247.705C184.13 247.301 184.329 246.94 184.44 246.624C184.558 246.302 184.616 245.974 184.616 245.64C184.616 245.218 184.528 244.837 184.353 244.497C184.183 244.151 183.931 243.876 183.597 243.671C183.263 243.466 182.858 243.363 182.384 243.363C181.815 243.363 181.341 243.475 180.96 243.697C180.585 243.914 180.304 244.219 180.116 244.611C179.929 245.004 179.835 245.455 179.835 245.965H178.209C178.209 245.244 178.367 244.585 178.684 243.987C179 243.39 179.469 242.915 180.09 242.563C180.711 242.206 181.476 242.027 182.384 242.027C183.192 242.027 183.884 242.171 184.458 242.458C185.032 242.739 185.472 243.138 185.776 243.653C186.087 244.163 186.242 244.761 186.242 245.446C186.242 245.821 186.178 246.202 186.049 246.589C185.926 246.97 185.753 247.351 185.53 247.731C185.313 248.112 185.059 248.487 184.766 248.856C184.479 249.226 184.171 249.589 183.843 249.946L180.415 253.664H186.831ZM190.944 247.802H192.104C192.673 247.802 193.142 247.708 193.511 247.521C193.886 247.327 194.164 247.066 194.346 246.738C194.533 246.404 194.627 246.029 194.627 245.613C194.627 245.121 194.545 244.708 194.381 244.374C194.217 244.04 193.971 243.788 193.643 243.618C193.314 243.448 192.898 243.363 192.395 243.363C191.938 243.363 191.533 243.454 191.182 243.636C190.836 243.812 190.563 244.063 190.364 244.392C190.171 244.72 190.074 245.106 190.074 245.552H188.448C188.448 244.901 188.612 244.31 188.94 243.776C189.269 243.243 189.729 242.818 190.32 242.502C190.918 242.186 191.609 242.027 192.395 242.027C193.168 242.027 193.845 242.165 194.425 242.44C195.005 242.71 195.456 243.114 195.778 243.653C196.101 244.187 196.262 244.852 196.262 245.648C196.262 245.971 196.186 246.316 196.033 246.686C195.887 247.049 195.655 247.389 195.339 247.705C195.028 248.021 194.624 248.282 194.126 248.487C193.628 248.687 193.03 248.786 192.333 248.786H190.944V247.802ZM190.944 249.138V248.162H192.333C193.147 248.162 193.821 248.259 194.354 248.452C194.888 248.646 195.307 248.903 195.611 249.226C195.922 249.548 196.139 249.902 196.262 250.289C196.391 250.67 196.455 251.051 196.455 251.432C196.455 252.029 196.353 252.56 196.147 253.022C195.948 253.485 195.664 253.878 195.295 254.2C194.932 254.522 194.504 254.766 194.012 254.93C193.52 255.094 192.983 255.176 192.403 255.176C191.847 255.176 191.322 255.097 190.83 254.938C190.344 254.78 189.913 254.552 189.538 254.253C189.163 253.948 188.87 253.576 188.659 253.137C188.448 252.691 188.343 252.185 188.343 251.616H189.969C189.969 252.062 190.065 252.451 190.259 252.785C190.458 253.119 190.739 253.38 191.103 253.567C191.472 253.749 191.905 253.84 192.403 253.84C192.901 253.84 193.329 253.755 193.687 253.585C194.05 253.409 194.328 253.146 194.521 252.794C194.721 252.442 194.82 252 194.82 251.467C194.82 250.934 194.709 250.497 194.486 250.157C194.264 249.812 193.947 249.557 193.537 249.393C193.133 249.223 192.655 249.138 192.104 249.138H190.944ZM201.069 247.802H202.229C202.798 247.802 203.267 247.708 203.636 247.521C204.011 247.327 204.289 247.066 204.471 246.738C204.658 246.404 204.752 246.029 204.752 245.613C204.752 245.121 204.67 244.708 204.506 244.374C204.342 244.04 204.096 243.788 203.768 243.618C203.439 243.448 203.023 243.363 202.52 243.363C202.062 243.363 201.658 243.454 201.307 243.636C200.961 243.812 200.688 244.063 200.489 244.392C200.296 244.72 200.199 245.106 200.199 245.552H198.573C198.573 244.901 198.737 244.31 199.065 243.776C199.394 243.243 199.854 242.818 200.445 242.502C201.043 242.186 201.734 242.027 202.52 242.027C203.293 242.027 203.97 242.165 204.55 242.44C205.13 242.71 205.581 243.114 205.903 243.653C206.226 244.187 206.387 244.852 206.387 245.648C206.387 245.971 206.311 246.316 206.158 246.686C206.012 247.049 205.78 247.389 205.464 247.705C205.153 248.021 204.749 248.282 204.251 248.487C203.753 248.687 203.155 248.786 202.458 248.786H201.069V247.802ZM201.069 249.138V248.162H202.458C203.272 248.162 203.946 248.259 204.479 248.452C205.013 248.646 205.432 248.903 205.736 249.226C206.047 249.548 206.264 249.902 206.387 250.289C206.516 250.67 206.58 251.051 206.58 251.432C206.58 252.029 206.478 252.56 206.272 253.022C206.073 253.485 205.789 253.878 205.42 254.2C205.057 254.522 204.629 254.766 204.137 254.93C203.645 255.094 203.108 255.176 202.528 255.176C201.972 255.176 201.447 255.097 200.955 254.938C200.469 254.78 200.038 254.552 199.663 254.253C199.288 253.948 198.995 253.576 198.784 253.137C198.573 252.691 198.468 252.185 198.468 251.616H200.094C200.094 252.062 200.19 252.451 200.384 252.785C200.583 253.119 200.864 253.38 201.228 253.567C201.597 253.749 202.03 253.84 202.528 253.84C203.026 253.84 203.454 253.755 203.812 253.585C204.175 253.409 204.453 253.146 204.646 252.794C204.846 252.442 204.945 252 204.945 251.467C204.945 250.934 204.834 250.497 204.611 250.157C204.389 249.812 204.072 249.557 203.662 249.393C203.258 249.223 202.78 249.138 202.229 249.138H201.069ZM217.206 253.664V255H208.83V253.831L213.022 249.164C213.538 248.59 213.937 248.104 214.218 247.705C214.505 247.301 214.704 246.94 214.815 246.624C214.933 246.302 214.991 245.974 214.991 245.64C214.991 245.218 214.903 244.837 214.728 244.497C214.558 244.151 214.306 243.876 213.972 243.671C213.638 243.466 213.233 243.363 212.759 243.363C212.19 243.363 211.716 243.475 211.335 243.697C210.96 243.914 210.679 244.219 210.491 244.611C210.304 245.004 210.21 245.455 210.21 245.965H208.584C208.584 245.244 208.742 244.585 209.059 243.987C209.375 243.39 209.844 242.915 210.465 242.563C211.086 242.206 211.851 242.027 212.759 242.027C213.567 242.027 214.259 242.171 214.833 242.458C215.407 242.739 215.847 243.138 216.151 243.653C216.462 244.163 216.617 244.761 216.617 245.446C216.617 245.821 216.553 246.202 216.424 246.589C216.301 246.97 216.128 247.351 215.905 247.731C215.688 248.112 215.434 248.487 215.141 248.856C214.854 249.226 214.546 249.589 214.218 249.946L210.79 253.664H217.206ZM224.29 242.133V255H222.664V244.163L219.386 245.358V243.891L224.035 242.133H224.29ZM237.342 242.203V243.117L232.042 255H230.328L235.619 243.539H228.693V242.203H237.342ZM247.467 242.203V243.117L242.167 255H240.453L245.744 243.539H238.818V242.203H247.467ZM257.354 247.582V249.533C257.354 250.582 257.261 251.467 257.073 252.188C256.886 252.908 256.616 253.488 256.265 253.928C255.913 254.367 255.488 254.687 254.99 254.886C254.498 255.079 253.941 255.176 253.32 255.176C252.828 255.176 252.374 255.114 251.958 254.991C251.542 254.868 251.167 254.672 250.833 254.402C250.505 254.127 250.224 253.77 249.989 253.33C249.755 252.891 249.576 252.357 249.453 251.73C249.33 251.104 249.269 250.371 249.269 249.533V247.582C249.269 246.533 249.362 245.654 249.55 244.945C249.743 244.236 250.016 243.668 250.367 243.24C250.719 242.807 251.141 242.496 251.633 242.309C252.131 242.121 252.688 242.027 253.303 242.027C253.801 242.027 254.258 242.089 254.674 242.212C255.096 242.329 255.471 242.52 255.799 242.783C256.127 243.041 256.405 243.387 256.634 243.82C256.868 244.248 257.047 244.772 257.17 245.394C257.293 246.015 257.354 246.744 257.354 247.582ZM255.72 249.797V247.31C255.72 246.735 255.685 246.231 255.614 245.798C255.55 245.358 255.453 244.983 255.324 244.673C255.195 244.362 255.031 244.11 254.832 243.917C254.639 243.724 254.413 243.583 254.155 243.495C253.903 243.401 253.619 243.354 253.303 243.354C252.916 243.354 252.573 243.428 252.274 243.574C251.976 243.715 251.724 243.94 251.519 244.251C251.319 244.562 251.167 244.969 251.062 245.473C250.956 245.977 250.903 246.589 250.903 247.31V249.797C250.903 250.371 250.936 250.878 251 251.317C251.07 251.757 251.173 252.138 251.308 252.46C251.442 252.776 251.606 253.037 251.8 253.242C251.993 253.447 252.216 253.6 252.468 253.699C252.726 253.793 253.01 253.84 253.32 253.84C253.719 253.84 254.067 253.764 254.366 253.611C254.665 253.459 254.914 253.222 255.113 252.899C255.318 252.571 255.471 252.152 255.57 251.643C255.67 251.127 255.72 250.512 255.72 249.797Z" fill="black"/>
<circle cx="142.5" cy="95" r="95" fill="white"/>
<path d="M114.682 130V121.882H121.155L129.144 95.1956C129.684 93.4368 130.679 92.0324 132.13 90.9825C133.581 89.9326 135.181 89.4091 136.932 89.4118H149.068C150.821 89.4118 152.423 89.9367 153.874 90.9866C155.325 92.0365 156.319 93.4395 156.856 95.1956L164.845 121.882H171.318V130H114.682ZM138.955 81.2941V61H147.045V81.2941H138.955ZM163.025 91.3397L157.26 85.5559L171.622 71.2485L177.285 76.9309L163.025 91.3397ZM167.273 109.706V101.588H187.5V109.706H167.273ZM122.975 91.3397L108.715 76.9309L114.378 71.2485L128.74 85.5559L122.975 91.3397ZM98.5 109.706V101.588H118.727V109.706H98.5Z" fill="#FF0000"/>
</g>
<defs>
<filter id="filter0_d_38_2634" x="0.5" y="0" width="284" height="365" filterUnits="userSpaceOnUse" color-interpolation-filters="sRGB">
<feFlood flood-opacity="0" result="BackgroundImageFix"/>
<feColorMatrix in="SourceAlpha" type="matrix" values="0 0 0 0 0 0 0 0 0 0 0 0 0 0 0 0 0 0 127 0" result="hardAlpha"/>
<feOffset dy="4"/>
<feGaussianBlur stdDeviation="2"/>
<feComposite in2="hardAlpha" operator="out"/>
<feColorMatrix type="matrix" values="0 0 0 0 0 0 0 0 0 0 0 0 0 0 0 0 0 0 0.25 0"/>
<feBlend mode="normal" in2="BackgroundImageFix" result="effect1_dropShadow_38_2634"/>
<feBlend mode="normal" in="SourceGraphic" in2="effect1_dropShadow_38_2634" result="shape"/>
</filter>
</defs>
</svg>
