<svg width="285" height="365" viewBox="0 0 285 365" fill="none" xmlns="http://www.w3.org/2000/svg">
<g filter="url(#filter0_d_38_2626)">
<rect x="4.5" y="95" width="276" height="262" rx="8" fill="white"/>
<path d="M78.5342 206.203V219H75.9062V206.203H78.5342ZM82.4717 206.203V208.269H72.0303V206.203H82.4717ZM87.6133 216.855V212.619C87.6133 212.314 87.5635 212.054 87.4639 211.837C87.3643 211.614 87.209 211.441 86.998 211.318C86.793 211.195 86.5264 211.134 86.1982 211.134C85.917 211.134 85.6738 211.184 85.4688 211.283C85.2637 211.377 85.1055 211.515 84.9941 211.696C84.8828 211.872 84.8271 212.08 84.8271 212.32H82.2959C82.2959 211.916 82.3896 211.532 82.5771 211.169C82.7646 210.806 83.0371 210.486 83.3945 210.211C83.752 209.93 84.1768 209.71 84.6689 209.552C85.167 209.394 85.7236 209.314 86.3389 209.314C87.0771 209.314 87.7334 209.438 88.3076 209.684C88.8818 209.93 89.333 210.299 89.6611 210.791C89.9951 211.283 90.1621 211.898 90.1621 212.637V216.706C90.1621 217.228 90.1943 217.655 90.2588 217.989C90.3232 218.317 90.417 218.604 90.54 218.851V219H87.9824C87.8594 218.742 87.7656 218.42 87.7012 218.033C87.6426 217.641 87.6133 217.248 87.6133 216.855ZM87.9473 213.208L87.9648 214.641H86.5498C86.2158 214.641 85.9258 214.679 85.6797 214.755C85.4336 214.831 85.2314 214.939 85.0732 215.08C84.915 215.215 84.7979 215.373 84.7217 215.555C84.6514 215.736 84.6162 215.936 84.6162 216.152C84.6162 216.369 84.666 216.565 84.7656 216.741C84.8652 216.911 85.0088 217.046 85.1963 217.146C85.3838 217.239 85.6035 217.286 85.8555 217.286C86.2363 217.286 86.5674 217.21 86.8486 217.058C87.1299 216.905 87.3467 216.718 87.499 216.495C87.6572 216.272 87.7393 216.062 87.7451 215.862L88.4131 216.935C88.3193 217.175 88.1904 217.424 88.0264 217.682C87.8682 217.939 87.666 218.183 87.4199 218.411C87.1738 218.634 86.8779 218.818 86.5322 218.965C86.1865 219.105 85.7764 219.176 85.3018 219.176C84.6982 219.176 84.1504 219.056 83.6582 218.815C83.1719 218.569 82.7852 218.232 82.498 217.805C82.2168 217.371 82.0762 216.879 82.0762 216.328C82.0762 215.83 82.1699 215.388 82.3574 215.001C82.5449 214.614 82.8203 214.289 83.1836 214.025C83.5527 213.756 84.0127 213.554 84.5635 213.419C85.1143 213.278 85.7529 213.208 86.4795 213.208H87.9473ZM94.1523 209.49L95.7256 212.382L97.3428 209.49H100.041L97.3516 214.14L100.164 219H97.457L95.7432 215.941L94.0293 219H91.3223L94.1348 214.14L91.4453 209.49H94.1523ZM108.716 206.203V219H106.088V206.203H108.716ZM116.169 216.372C116.169 216.19 116.116 216.026 116.011 215.88C115.905 215.733 115.709 215.599 115.422 215.476C115.141 215.347 114.733 215.229 114.2 215.124C113.72 215.019 113.271 214.887 112.855 214.729C112.445 214.564 112.088 214.368 111.783 214.14C111.484 213.911 111.25 213.642 111.08 213.331C110.91 213.015 110.825 212.654 110.825 212.25C110.825 211.852 110.91 211.477 111.08 211.125C111.256 210.773 111.505 210.463 111.827 210.193C112.155 209.918 112.554 209.704 113.022 209.552C113.497 209.394 114.03 209.314 114.622 209.314C115.448 209.314 116.157 209.446 116.749 209.71C117.347 209.974 117.804 210.337 118.12 210.8C118.442 211.257 118.604 211.778 118.604 212.364H116.072C116.072 212.118 116.02 211.898 115.914 211.705C115.814 211.506 115.656 211.351 115.439 211.239C115.229 211.122 114.953 211.063 114.613 211.063C114.332 211.063 114.089 211.113 113.884 211.213C113.679 211.307 113.521 211.436 113.409 211.6C113.304 211.758 113.251 211.934 113.251 212.127C113.251 212.273 113.28 212.405 113.339 212.522C113.403 212.634 113.506 212.736 113.646 212.83C113.787 212.924 113.969 213.012 114.191 213.094C114.42 213.17 114.701 213.24 115.035 213.305C115.721 213.445 116.333 213.63 116.872 213.858C117.411 214.081 117.839 214.386 118.155 214.772C118.472 215.153 118.63 215.654 118.63 216.275C118.63 216.697 118.536 217.084 118.349 217.436C118.161 217.787 117.892 218.095 117.54 218.358C117.188 218.616 116.767 218.818 116.274 218.965C115.788 219.105 115.24 219.176 114.631 219.176C113.746 219.176 112.996 219.018 112.381 218.701C111.771 218.385 111.309 217.983 110.992 217.497C110.682 217.005 110.526 216.501 110.526 215.985H112.926C112.938 216.331 113.025 216.609 113.189 216.82C113.359 217.031 113.573 217.184 113.831 217.277C114.095 217.371 114.379 217.418 114.684 217.418C115.012 217.418 115.284 217.374 115.501 217.286C115.718 217.192 115.882 217.069 115.993 216.917C116.11 216.759 116.169 216.577 116.169 216.372ZM125.415 216.372C125.415 216.19 125.362 216.026 125.257 215.88C125.151 215.733 124.955 215.599 124.668 215.476C124.387 215.347 123.979 215.229 123.446 215.124C122.966 215.019 122.518 214.887 122.102 214.729C121.691 214.564 121.334 214.368 121.029 214.14C120.73 213.911 120.496 213.642 120.326 213.331C120.156 213.015 120.071 212.654 120.071 212.25C120.071 211.852 120.156 211.477 120.326 211.125C120.502 210.773 120.751 210.463 121.073 210.193C121.401 209.918 121.8 209.704 122.269 209.552C122.743 209.394 123.276 209.314 123.868 209.314C124.694 209.314 125.403 209.446 125.995 209.71C126.593 209.974 127.05 210.337 127.366 210.8C127.688 211.257 127.85 211.778 127.85 212.364H125.318C125.318 212.118 125.266 211.898 125.16 211.705C125.061 211.506 124.902 211.351 124.686 211.239C124.475 211.122 124.199 211.063 123.859 211.063C123.578 211.063 123.335 211.113 123.13 211.213C122.925 211.307 122.767 211.436 122.655 211.6C122.55 211.758 122.497 211.934 122.497 212.127C122.497 212.273 122.526 212.405 122.585 212.522C122.649 212.634 122.752 212.736 122.893 212.83C123.033 212.924 123.215 213.012 123.438 213.094C123.666 213.17 123.947 213.24 124.281 213.305C124.967 213.445 125.579 213.63 126.118 213.858C126.657 214.081 127.085 214.386 127.401 214.772C127.718 215.153 127.876 215.654 127.876 216.275C127.876 216.697 127.782 217.084 127.595 217.436C127.407 217.787 127.138 218.095 126.786 218.358C126.435 218.616 126.013 218.818 125.521 218.965C125.034 219.105 124.486 219.176 123.877 219.176C122.992 219.176 122.242 219.018 121.627 218.701C121.018 218.385 120.555 217.983 120.238 217.497C119.928 217.005 119.772 216.501 119.772 215.985H122.172C122.184 216.331 122.271 216.609 122.436 216.82C122.605 217.031 122.819 217.184 123.077 217.277C123.341 217.371 123.625 217.418 123.93 217.418C124.258 217.418 124.53 217.374 124.747 217.286C124.964 217.192 125.128 217.069 125.239 216.917C125.356 216.759 125.415 216.577 125.415 216.372ZM135.145 216.724V209.49H137.676V219H135.294L135.145 216.724ZM135.426 214.772L136.173 214.755C136.173 215.388 136.1 215.977 135.953 216.521C135.807 217.061 135.587 217.529 135.294 217.928C135.001 218.32 134.632 218.628 134.187 218.851C133.741 219.067 133.217 219.176 132.613 219.176C132.15 219.176 131.723 219.111 131.33 218.982C130.943 218.848 130.609 218.64 130.328 218.358C130.053 218.071 129.836 217.705 129.678 217.26C129.525 216.809 129.449 216.267 129.449 215.634V209.49H131.98V215.651C131.98 215.933 132.013 216.17 132.077 216.363C132.147 216.557 132.244 216.715 132.367 216.838C132.49 216.961 132.634 217.049 132.798 217.102C132.968 217.154 133.155 217.181 133.36 217.181C133.882 217.181 134.292 217.075 134.591 216.864C134.896 216.653 135.109 216.366 135.232 216.003C135.361 215.634 135.426 215.224 135.426 214.772ZM143.986 219.176C143.248 219.176 142.586 219.059 142 218.824C141.414 218.584 140.916 218.253 140.506 217.831C140.102 217.409 139.791 216.92 139.574 216.363C139.357 215.801 139.249 215.203 139.249 214.57V214.219C139.249 213.498 139.352 212.839 139.557 212.241C139.762 211.644 140.055 211.125 140.436 210.686C140.822 210.246 141.291 209.909 141.842 209.675C142.393 209.435 143.014 209.314 143.705 209.314C144.379 209.314 144.977 209.426 145.498 209.648C146.02 209.871 146.456 210.188 146.808 210.598C147.165 211.008 147.435 211.5 147.616 212.074C147.798 212.643 147.889 213.275 147.889 213.973V215.027H140.33V213.34H145.401V213.146C145.401 212.795 145.337 212.481 145.208 212.206C145.085 211.925 144.897 211.702 144.646 211.538C144.394 211.374 144.071 211.292 143.679 211.292C143.345 211.292 143.058 211.365 142.817 211.512C142.577 211.658 142.381 211.863 142.229 212.127C142.082 212.391 141.971 212.701 141.895 213.059C141.824 213.41 141.789 213.797 141.789 214.219V214.57C141.789 214.951 141.842 215.303 141.947 215.625C142.059 215.947 142.214 216.226 142.413 216.46C142.618 216.694 142.864 216.876 143.151 217.005C143.444 217.134 143.775 217.198 144.145 217.198C144.602 217.198 145.026 217.11 145.419 216.935C145.817 216.753 146.16 216.48 146.447 216.117L147.678 217.453C147.479 217.74 147.206 218.016 146.86 218.279C146.521 218.543 146.11 218.76 145.63 218.93C145.149 219.094 144.602 219.176 143.986 219.176ZM154.472 216.372C154.472 216.19 154.419 216.026 154.313 215.88C154.208 215.733 154.012 215.599 153.725 215.476C153.443 215.347 153.036 215.229 152.503 215.124C152.022 215.019 151.574 214.887 151.158 214.729C150.748 214.564 150.391 214.368 150.086 214.14C149.787 213.911 149.553 213.642 149.383 213.331C149.213 213.015 149.128 212.654 149.128 212.25C149.128 211.852 149.213 211.477 149.383 211.125C149.559 210.773 149.808 210.463 150.13 210.193C150.458 209.918 150.856 209.704 151.325 209.552C151.8 209.394 152.333 209.314 152.925 209.314C153.751 209.314 154.46 209.446 155.052 209.71C155.649 209.974 156.106 210.337 156.423 210.8C156.745 211.257 156.906 211.778 156.906 212.364H154.375C154.375 212.118 154.322 211.898 154.217 211.705C154.117 211.506 153.959 211.351 153.742 211.239C153.531 211.122 153.256 211.063 152.916 211.063C152.635 211.063 152.392 211.113 152.187 211.213C151.981 211.307 151.823 211.436 151.712 211.6C151.606 211.758 151.554 211.934 151.554 212.127C151.554 212.273 151.583 212.405 151.642 212.522C151.706 212.634 151.809 212.736 151.949 212.83C152.09 212.924 152.271 213.012 152.494 213.094C152.723 213.17 153.004 213.24 153.338 213.305C154.023 213.445 154.636 213.63 155.175 213.858C155.714 214.081 156.142 214.386 156.458 214.772C156.774 215.153 156.933 215.654 156.933 216.275C156.933 216.697 156.839 217.084 156.651 217.436C156.464 217.787 156.194 218.095 155.843 218.358C155.491 218.616 155.069 218.818 154.577 218.965C154.091 219.105 153.543 219.176 152.934 219.176C152.049 219.176 151.299 219.018 150.684 218.701C150.074 218.385 149.611 217.983 149.295 217.497C148.984 217.005 148.829 216.501 148.829 215.985H151.229C151.24 216.331 151.328 216.609 151.492 216.82C151.662 217.031 151.876 217.184 152.134 217.277C152.397 217.371 152.682 217.418 152.986 217.418C153.314 217.418 153.587 217.374 153.804 217.286C154.021 217.192 154.185 217.069 154.296 216.917C154.413 216.759 154.472 216.577 154.472 216.372ZM163.173 213.99V213.797C163.173 212.561 163.302 211.438 163.56 210.431C163.823 209.423 164.169 208.538 164.597 207.776C165.03 207.009 165.502 206.373 166.012 205.869C166.521 205.365 167.028 205.002 167.532 204.779L168.016 206.115C167.682 206.361 167.354 206.701 167.031 207.135C166.709 207.562 166.416 208.09 166.152 208.717C165.895 209.338 165.687 210.07 165.528 210.914C165.37 211.752 165.291 212.707 165.291 213.779V214.008C165.291 215.08 165.37 216.038 165.528 216.882C165.687 217.72 165.895 218.452 166.152 219.079C166.416 219.712 166.709 220.245 167.031 220.679C167.354 221.112 167.682 221.455 168.016 221.707L167.532 223.008C167.028 222.785 166.521 222.422 166.012 221.918C165.502 221.42 165.03 220.787 164.597 220.02C164.169 219.258 163.823 218.373 163.56 217.365C163.302 216.352 163.173 215.227 163.173 213.99ZM177.736 216.943V219H171.294V216.943H177.736ZM172.146 206.203V219H169.51V206.203H172.146ZM182.052 206.203V219H179.424V206.203H182.052ZM184.521 206.203H189.294C190.272 206.203 191.113 206.35 191.816 206.643C192.525 206.936 193.07 207.369 193.451 207.943C193.832 208.518 194.022 209.224 194.022 210.062C194.022 210.747 193.905 211.336 193.671 211.828C193.442 212.314 193.117 212.722 192.695 213.05C192.279 213.372 191.79 213.63 191.228 213.823L190.393 214.263H186.244L186.227 212.206H189.312C189.774 212.206 190.158 212.124 190.463 211.96C190.768 211.796 190.996 211.567 191.148 211.274C191.307 210.981 191.386 210.642 191.386 210.255C191.386 209.845 191.31 209.49 191.157 209.191C191.005 208.893 190.773 208.664 190.463 208.506C190.152 208.348 189.763 208.269 189.294 208.269H187.158V219H184.521V206.203ZM191.676 219L188.758 213.296L191.544 213.278L194.497 218.877V219H191.676ZM202.715 215.651C202.715 215.423 202.68 215.218 202.609 215.036C202.545 214.849 202.422 214.679 202.24 214.526C202.059 214.368 201.804 214.213 201.476 214.061C201.147 213.908 200.723 213.75 200.201 213.586C199.621 213.398 199.07 213.188 198.549 212.953C198.033 212.719 197.576 212.446 197.178 212.136C196.785 211.819 196.475 211.453 196.246 211.037C196.023 210.621 195.912 210.138 195.912 209.587C195.912 209.054 196.029 208.57 196.264 208.137C196.498 207.697 196.826 207.322 197.248 207.012C197.67 206.695 198.168 206.452 198.742 206.282C199.322 206.112 199.958 206.027 200.649 206.027C201.593 206.027 202.416 206.197 203.119 206.537C203.822 206.877 204.367 207.343 204.754 207.935C205.146 208.526 205.343 209.203 205.343 209.965H202.724C202.724 209.59 202.645 209.262 202.486 208.98C202.334 208.693 202.1 208.468 201.783 208.304C201.473 208.14 201.08 208.058 200.605 208.058C200.148 208.058 199.768 208.128 199.463 208.269C199.158 208.403 198.93 208.588 198.777 208.822C198.625 209.051 198.549 209.309 198.549 209.596C198.549 209.812 198.602 210.009 198.707 210.185C198.818 210.36 198.982 210.524 199.199 210.677C199.416 210.829 199.683 210.973 199.999 211.107C200.315 211.242 200.682 211.374 201.098 211.503C201.795 211.714 202.407 211.951 202.935 212.215C203.468 212.479 203.913 212.774 204.271 213.103C204.628 213.431 204.897 213.803 205.079 214.219C205.261 214.635 205.352 215.106 205.352 215.634C205.352 216.19 205.243 216.688 205.026 217.128C204.81 217.567 204.496 217.939 204.086 218.244C203.676 218.549 203.187 218.78 202.618 218.938C202.05 219.097 201.414 219.176 200.711 219.176C200.078 219.176 199.454 219.094 198.839 218.93C198.224 218.76 197.664 218.505 197.16 218.165C196.662 217.825 196.264 217.392 195.965 216.864C195.666 216.337 195.517 215.713 195.517 214.992H198.162C198.162 215.391 198.224 215.728 198.347 216.003C198.47 216.278 198.643 216.501 198.865 216.671C199.094 216.841 199.363 216.964 199.674 217.04C199.99 217.116 200.336 217.154 200.711 217.154C201.168 217.154 201.543 217.09 201.836 216.961C202.135 216.832 202.354 216.653 202.495 216.425C202.642 216.196 202.715 215.938 202.715 215.651ZM211.337 213.797V213.99C211.337 215.186 211.202 216.287 210.933 217.295C210.663 218.297 210.306 219.185 209.86 219.958C209.421 220.737 208.938 221.385 208.41 221.9C207.889 222.416 207.367 222.785 206.846 223.008L206.354 221.707C206.688 221.461 207.013 221.121 207.329 220.688C207.651 220.254 207.944 219.721 208.208 219.088C208.472 218.461 208.68 217.726 208.832 216.882C208.99 216.038 209.069 215.08 209.069 214.008V213.779C209.069 212.707 208.99 211.749 208.832 210.905C208.674 210.062 208.46 209.326 208.19 208.699C207.927 208.066 207.634 207.536 207.312 207.108C206.995 206.675 206.676 206.335 206.354 206.089L206.846 204.779C207.367 205.002 207.889 205.374 208.41 205.896C208.938 206.411 209.421 207.056 209.86 207.829C210.306 208.603 210.663 209.493 210.933 210.501C211.202 211.503 211.337 212.602 211.337 213.797Z" fill="#0066CC"/>
<path d="M33.9385 247.582V249.533C33.9385 250.582 33.8447 251.467 33.6572 252.188C33.4697 252.908 33.2002 253.488 32.8486 253.928C32.4971 254.367 32.0723 254.687 31.5742 254.886C31.082 255.079 30.5254 255.176 29.9043 255.176C29.4121 255.176 28.958 255.114 28.542 254.991C28.126 254.868 27.751 254.672 27.417 254.402C27.0889 254.127 26.8076 253.77 26.5732 253.33C26.3389 252.891 26.1602 252.357 26.0371 251.73C25.9141 251.104 25.8525 250.371 25.8525 249.533V247.582C25.8525 246.533 25.9463 245.654 26.1338 244.945C26.3271 244.236 26.5996 243.668 26.9512 243.24C27.3027 242.807 27.7246 242.496 28.2168 242.309C28.7148 242.121 29.2715 242.027 29.8867 242.027C30.3848 242.027 30.8418 242.089 31.2578 242.212C31.6797 242.329 32.0547 242.52 32.3828 242.783C32.7109 243.041 32.9893 243.387 33.2178 243.82C33.4521 244.248 33.6309 244.772 33.7539 245.394C33.877 246.015 33.9385 246.744 33.9385 247.582ZM32.3037 249.797V247.31C32.3037 246.735 32.2686 246.231 32.1982 245.798C32.1338 245.358 32.0371 244.983 31.9082 244.673C31.7793 244.362 31.6152 244.11 31.416 243.917C31.2227 243.724 30.9971 243.583 30.7393 243.495C30.4873 243.401 30.2031 243.354 29.8867 243.354C29.5 243.354 29.1572 243.428 28.8584 243.574C28.5596 243.715 28.3076 243.94 28.1025 244.251C27.9033 244.562 27.751 244.969 27.6455 245.473C27.54 245.977 27.4873 246.589 27.4873 247.31V249.797C27.4873 250.371 27.5195 250.878 27.584 251.317C27.6543 251.757 27.7568 252.138 27.8916 252.46C28.0264 252.776 28.1904 253.037 28.3838 253.242C28.5771 253.447 28.7998 253.6 29.0518 253.699C29.3096 253.793 29.5938 253.84 29.9043 253.84C30.3027 253.84 30.6514 253.764 30.9502 253.611C31.249 253.459 31.498 253.222 31.6973 252.899C31.9023 252.571 32.0547 252.152 32.1543 251.643C32.2539 251.127 32.3037 250.512 32.3037 249.797ZM44.0986 251.537C44.0986 252.316 43.917 252.979 43.5537 253.523C43.1963 254.062 42.71 254.473 42.0947 254.754C41.4854 255.035 40.7969 255.176 40.0293 255.176C39.2617 255.176 38.5703 255.035 37.9551 254.754C37.3398 254.473 36.8535 254.062 36.4961 253.523C36.1387 252.979 35.96 252.316 35.96 251.537C35.96 251.027 36.0566 250.562 36.25 250.14C36.4492 249.712 36.7275 249.34 37.085 249.023C37.4482 248.707 37.876 248.464 38.3682 248.294C38.8662 248.118 39.4141 248.03 40.0117 248.03C40.7969 248.03 41.4971 248.183 42.1123 248.487C42.7275 248.786 43.2109 249.199 43.5625 249.727C43.9199 250.254 44.0986 250.857 44.0986 251.537ZM42.4639 251.502C42.4639 251.027 42.3613 250.608 42.1562 250.245C41.9512 249.876 41.6641 249.589 41.2949 249.384C40.9258 249.179 40.498 249.076 40.0117 249.076C39.5137 249.076 39.083 249.179 38.7197 249.384C38.3623 249.589 38.084 249.876 37.8848 250.245C37.6855 250.608 37.5859 251.027 37.5859 251.502C37.5859 251.994 37.6826 252.416 37.876 252.768C38.0752 253.113 38.3564 253.38 38.7197 253.567C39.0889 253.749 39.5254 253.84 40.0293 253.84C40.5332 253.84 40.9668 253.749 41.3301 253.567C41.6934 253.38 41.9717 253.113 42.165 252.768C42.3643 252.416 42.4639 251.994 42.4639 251.502ZM43.7998 245.534C43.7998 246.155 43.6357 246.715 43.3076 247.213C42.9795 247.711 42.5312 248.104 41.9629 248.391C41.3945 248.678 40.75 248.821 40.0293 248.821C39.2969 248.821 38.6436 248.678 38.0693 248.391C37.501 248.104 37.0557 247.711 36.7334 247.213C36.4111 246.715 36.25 246.155 36.25 245.534C36.25 244.79 36.4111 244.157 36.7334 243.636C37.0615 243.114 37.5098 242.716 38.0781 242.44C38.6465 242.165 39.2939 242.027 40.0205 242.027C40.7529 242.027 41.4033 242.165 41.9717 242.44C42.54 242.716 42.9854 243.114 43.3076 243.636C43.6357 244.157 43.7998 244.79 43.7998 245.534ZM42.1738 245.561C42.1738 245.133 42.083 244.755 41.9014 244.427C41.7197 244.099 41.4678 243.841 41.1455 243.653C40.8232 243.46 40.4482 243.363 40.0205 243.363C39.5928 243.363 39.2178 243.454 38.8955 243.636C38.5791 243.812 38.3301 244.063 38.1484 244.392C37.9727 244.72 37.8848 245.109 37.8848 245.561C37.8848 246 37.9727 246.384 38.1484 246.712C38.3301 247.04 38.582 247.295 38.9043 247.477C39.2266 247.658 39.6016 247.749 40.0293 247.749C40.457 247.749 40.8291 247.658 41.1455 247.477C41.4678 247.295 41.7197 247.04 41.9014 246.712C42.083 246.384 42.1738 246 42.1738 245.561ZM54.1885 247.582V249.533C54.1885 250.582 54.0947 251.467 53.9072 252.188C53.7197 252.908 53.4502 253.488 53.0986 253.928C52.7471 254.367 52.3223 254.687 51.8242 254.886C51.332 255.079 50.7754 255.176 50.1543 255.176C49.6621 255.176 49.208 255.114 48.792 254.991C48.376 254.868 48.001 254.672 47.667 254.402C47.3389 254.127 47.0576 253.77 46.8232 253.33C46.5889 252.891 46.4102 252.357 46.2871 251.73C46.1641 251.104 46.1025 250.371 46.1025 249.533V247.582C46.1025 246.533 46.1963 245.654 46.3838 244.945C46.5771 244.236 46.8496 243.668 47.2012 243.24C47.5527 242.807 47.9746 242.496 48.4668 242.309C48.9648 242.121 49.5215 242.027 50.1367 242.027C50.6348 242.027 51.0918 242.089 51.5078 242.212C51.9297 242.329 52.3047 242.52 52.6328 242.783C52.9609 243.041 53.2393 243.387 53.4678 243.82C53.7021 244.248 53.8809 244.772 54.0039 245.394C54.127 246.015 54.1885 246.744 54.1885 247.582ZM52.5537 249.797V247.31C52.5537 246.735 52.5186 246.231 52.4482 245.798C52.3838 245.358 52.2871 244.983 52.1582 244.673C52.0293 244.362 51.8652 244.11 51.666 243.917C51.4727 243.724 51.2471 243.583 50.9893 243.495C50.7373 243.401 50.4531 243.354 50.1367 243.354C49.75 243.354 49.4072 243.428 49.1084 243.574C48.8096 243.715 48.5576 243.94 48.3525 244.251C48.1533 244.562 48.001 244.969 47.8955 245.473C47.79 245.977 47.7373 246.589 47.7373 247.31V249.797C47.7373 250.371 47.7695 250.878 47.834 251.317C47.9043 251.757 48.0068 252.138 48.1416 252.46C48.2764 252.776 48.4404 253.037 48.6338 253.242C48.8271 253.447 49.0498 253.6 49.3018 253.699C49.5596 253.793 49.8438 253.84 50.1543 253.84C50.5527 253.84 50.9014 253.764 51.2002 253.611C51.499 253.459 51.748 253.222 51.9473 252.899C52.1523 252.571 52.3047 252.152 52.4043 251.643C52.5039 251.127 52.5537 250.512 52.5537 249.797ZM58.6533 247.802H59.8135C60.3818 247.802 60.8506 247.708 61.2197 247.521C61.5947 247.327 61.873 247.066 62.0547 246.738C62.2422 246.404 62.3359 246.029 62.3359 245.613C62.3359 245.121 62.2539 244.708 62.0898 244.374C61.9258 244.04 61.6797 243.788 61.3516 243.618C61.0234 243.448 60.6074 243.363 60.1035 243.363C59.6465 243.363 59.2422 243.454 58.8906 243.636C58.5449 243.812 58.2725 244.063 58.0732 244.392C57.8799 244.72 57.7832 245.106 57.7832 245.552H56.1572C56.1572 244.901 56.3213 244.31 56.6494 243.776C56.9775 243.243 57.4375 242.818 58.0293 242.502C58.627 242.186 59.3184 242.027 60.1035 242.027C60.877 242.027 61.5537 242.165 62.1338 242.44C62.7139 242.71 63.165 243.114 63.4873 243.653C63.8096 244.187 63.9707 244.852 63.9707 245.648C63.9707 245.971 63.8945 246.316 63.7422 246.686C63.5957 247.049 63.3643 247.389 63.0479 247.705C62.7373 248.021 62.333 248.282 61.835 248.487C61.3369 248.687 60.7393 248.786 60.042 248.786H58.6533V247.802ZM58.6533 249.138V248.162H60.042C60.8564 248.162 61.5303 248.259 62.0635 248.452C62.5967 248.646 63.0156 248.903 63.3203 249.226C63.6309 249.548 63.8477 249.902 63.9707 250.289C64.0996 250.67 64.1641 251.051 64.1641 251.432C64.1641 252.029 64.0615 252.56 63.8564 253.022C63.6572 253.485 63.373 253.878 63.0039 254.2C62.6406 254.522 62.2129 254.766 61.7207 254.93C61.2285 255.094 60.6924 255.176 60.1123 255.176C59.5557 255.176 59.0312 255.097 58.5391 254.938C58.0527 254.78 57.6221 254.552 57.2471 254.253C56.8721 253.948 56.5791 253.576 56.3682 253.137C56.1572 252.691 56.0518 252.185 56.0518 251.616H57.6777C57.6777 252.062 57.7744 252.451 57.9678 252.785C58.167 253.119 58.4482 253.38 58.8115 253.567C59.1807 253.749 59.6143 253.84 60.1123 253.84C60.6104 253.84 61.0381 253.755 61.3955 253.585C61.7588 253.409 62.0371 253.146 62.2305 252.794C62.4297 252.442 62.5293 252 62.5293 251.467C62.5293 250.934 62.418 250.497 62.1953 250.157C61.9727 249.812 61.6562 249.557 61.2461 249.393C60.8418 249.223 60.3643 249.138 59.8135 249.138H58.6533ZM68.7783 247.802H69.9385C70.5068 247.802 70.9756 247.708 71.3447 247.521C71.7197 247.327 71.998 247.066 72.1797 246.738C72.3672 246.404 72.4609 246.029 72.4609 245.613C72.4609 245.121 72.3789 244.708 72.2148 244.374C72.0508 244.04 71.8047 243.788 71.4766 243.618C71.1484 243.448 70.7324 243.363 70.2285 243.363C69.7715 243.363 69.3672 243.454 69.0156 243.636C68.6699 243.812 68.3975 244.063 68.1982 244.392C68.0049 244.72 67.9082 245.106 67.9082 245.552H66.2822C66.2822 244.901 66.4463 244.31 66.7744 243.776C67.1025 243.243 67.5625 242.818 68.1543 242.502C68.752 242.186 69.4434 242.027 70.2285 242.027C71.002 242.027 71.6787 242.165 72.2588 242.44C72.8389 242.71 73.29 243.114 73.6123 243.653C73.9346 244.187 74.0957 244.852 74.0957 245.648C74.0957 245.971 74.0195 246.316 73.8672 246.686C73.7207 247.049 73.4893 247.389 73.1729 247.705C72.8623 248.021 72.458 248.282 71.96 248.487C71.4619 248.687 70.8643 248.786 70.167 248.786H68.7783V247.802ZM68.7783 249.138V248.162H70.167C70.9814 248.162 71.6553 248.259 72.1885 248.452C72.7217 248.646 73.1406 248.903 73.4453 249.226C73.7559 249.548 73.9727 249.902 74.0957 250.289C74.2246 250.67 74.2891 251.051 74.2891 251.432C74.2891 252.029 74.1865 252.56 73.9814 253.022C73.7822 253.485 73.498 253.878 73.1289 254.2C72.7656 254.522 72.3379 254.766 71.8457 254.93C71.3535 255.094 70.8174 255.176 70.2373 255.176C69.6807 255.176 69.1562 255.097 68.6641 254.938C68.1777 254.78 67.7471 254.552 67.3721 254.253C66.9971 253.948 66.7041 253.576 66.4932 253.137C66.2822 252.691 66.1768 252.185 66.1768 251.616H67.8027C67.8027 252.062 67.8994 252.451 68.0928 252.785C68.292 253.119 68.5732 253.38 68.9365 253.567C69.3057 253.749 69.7393 253.84 70.2373 253.84C70.7354 253.84 71.1631 253.755 71.5205 253.585C71.8838 253.409 72.1621 253.146 72.3555 252.794C72.5547 252.442 72.6543 252 72.6543 251.467C72.6543 250.934 72.543 250.497 72.3203 250.157C72.0977 249.812 71.7812 249.557 71.3711 249.393C70.9668 249.223 70.4893 249.138 69.9385 249.138H68.7783ZM84.5635 247.582V249.533C84.5635 250.582 84.4697 251.467 84.2822 252.188C84.0947 252.908 83.8252 253.488 83.4736 253.928C83.1221 254.367 82.6973 254.687 82.1992 254.886C81.707 255.079 81.1504 255.176 80.5293 255.176C80.0371 255.176 79.583 255.114 79.167 254.991C78.751 254.868 78.376 254.672 78.042 254.402C77.7139 254.127 77.4326 253.77 77.1982 253.33C76.9639 252.891 76.7852 252.357 76.6621 251.73C76.5391 251.104 76.4775 250.371 76.4775 249.533V247.582C76.4775 246.533 76.5713 245.654 76.7588 244.945C76.9521 244.236 77.2246 243.668 77.5762 243.24C77.9277 242.807 78.3496 242.496 78.8418 242.309C79.3398 242.121 79.8965 242.027 80.5117 242.027C81.0098 242.027 81.4668 242.089 81.8828 242.212C82.3047 242.329 82.6797 242.52 83.0078 242.783C83.3359 243.041 83.6143 243.387 83.8428 243.82C84.0771 244.248 84.2559 244.772 84.3789 245.394C84.502 246.015 84.5635 246.744 84.5635 247.582ZM82.9287 249.797V247.31C82.9287 246.735 82.8936 246.231 82.8232 245.798C82.7588 245.358 82.6621 244.983 82.5332 244.673C82.4043 244.362 82.2402 244.11 82.041 243.917C81.8477 243.724 81.6221 243.583 81.3643 243.495C81.1123 243.401 80.8281 243.354 80.5117 243.354C80.125 243.354 79.7822 243.428 79.4834 243.574C79.1846 243.715 78.9326 243.94 78.7275 244.251C78.5283 244.562 78.376 244.969 78.2705 245.473C78.165 245.977 78.1123 246.589 78.1123 247.31V249.797C78.1123 250.371 78.1445 250.878 78.209 251.317C78.2793 251.757 78.3818 252.138 78.5166 252.46C78.6514 252.776 78.8154 253.037 79.0088 253.242C79.2021 253.447 79.4248 253.6 79.6768 253.699C79.9346 253.793 80.2188 253.84 80.5293 253.84C80.9277 253.84 81.2764 253.764 81.5752 253.611C81.874 253.459 82.123 253.222 82.3223 252.899C82.5273 252.571 82.6797 252.152 82.7793 251.643C82.8789 251.127 82.9287 250.512 82.9287 249.797ZM89.0283 247.802H90.1885C90.7568 247.802 91.2256 247.708 91.5947 247.521C91.9697 247.327 92.248 247.066 92.4297 246.738C92.6172 246.404 92.7109 246.029 92.7109 245.613C92.7109 245.121 92.6289 244.708 92.4648 244.374C92.3008 244.04 92.0547 243.788 91.7266 243.618C91.3984 243.448 90.9824 243.363 90.4785 243.363C90.0215 243.363 89.6172 243.454 89.2656 243.636C88.9199 243.812 88.6475 244.063 88.4482 244.392C88.2549 244.72 88.1582 245.106 88.1582 245.552H86.5322C86.5322 244.901 86.6963 244.31 87.0244 243.776C87.3525 243.243 87.8125 242.818 88.4043 242.502C89.002 242.186 89.6934 242.027 90.4785 242.027C91.252 242.027 91.9287 242.165 92.5088 242.44C93.0889 242.71 93.54 243.114 93.8623 243.653C94.1846 244.187 94.3457 244.852 94.3457 245.648C94.3457 245.971 94.2695 246.316 94.1172 246.686C93.9707 247.049 93.7393 247.389 93.4229 247.705C93.1123 248.021 92.708 248.282 92.21 248.487C91.7119 248.687 91.1143 248.786 90.417 248.786H89.0283V247.802ZM89.0283 249.138V248.162H90.417C91.2314 248.162 91.9053 248.259 92.4385 248.452C92.9717 248.646 93.3906 248.903 93.6953 249.226C94.0059 249.548 94.2227 249.902 94.3457 250.289C94.4746 250.67 94.5391 251.051 94.5391 251.432C94.5391 252.029 94.4365 252.56 94.2314 253.022C94.0322 253.485 93.748 253.878 93.3789 254.2C93.0156 254.522 92.5879 254.766 92.0957 254.93C91.6035 255.094 91.0674 255.176 90.4873 255.176C89.9307 255.176 89.4062 255.097 88.9141 254.938C88.4277 254.78 87.9971 254.552 87.6221 254.253C87.2471 253.948 86.9541 253.576 86.7432 253.137C86.5322 252.691 86.4268 252.185 86.4268 251.616H88.0527C88.0527 252.062 88.1494 252.451 88.3428 252.785C88.542 253.119 88.8232 253.38 89.1865 253.567C89.5557 253.749 89.9893 253.84 90.4873 253.84C90.9854 253.84 91.4131 253.755 91.7705 253.585C92.1338 253.409 92.4121 253.146 92.6055 252.794C92.8047 252.442 92.9043 252 92.9043 251.467C92.9043 250.934 92.793 250.497 92.5703 250.157C92.3477 249.812 92.0312 249.557 91.6211 249.393C91.2168 249.223 90.7393 249.138 90.1885 249.138H89.0283ZM99.1533 247.802H100.313C100.882 247.802 101.351 247.708 101.72 247.521C102.095 247.327 102.373 247.066 102.555 246.738C102.742 246.404 102.836 246.029 102.836 245.613C102.836 245.121 102.754 244.708 102.59 244.374C102.426 244.04 102.18 243.788 101.852 243.618C101.523 243.448 101.107 243.363 100.604 243.363C100.146 243.363 99.7422 243.454 99.3906 243.636C99.0449 243.812 98.7725 244.063 98.5732 244.392C98.3799 244.72 98.2832 245.106 98.2832 245.552H96.6572C96.6572 244.901 96.8213 244.31 97.1494 243.776C97.4775 243.243 97.9375 242.818 98.5293 242.502C99.127 242.186 99.8184 242.027 100.604 242.027C101.377 242.027 102.054 242.165 102.634 242.44C103.214 242.71 103.665 243.114 103.987 243.653C104.31 244.187 104.471 244.852 104.471 245.648C104.471 245.971 104.395 246.316 104.242 246.686C104.096 247.049 103.864 247.389 103.548 247.705C103.237 248.021 102.833 248.282 102.335 248.487C101.837 248.687 101.239 248.786 100.542 248.786H99.1533V247.802ZM99.1533 249.138V248.162H100.542C101.356 248.162 102.03 248.259 102.563 248.452C103.097 248.646 103.516 248.903 103.82 249.226C104.131 249.548 104.348 249.902 104.471 250.289C104.6 250.67 104.664 251.051 104.664 251.432C104.664 252.029 104.562 252.56 104.356 253.022C104.157 253.485 103.873 253.878 103.504 254.2C103.141 254.522 102.713 254.766 102.221 254.93C101.729 255.094 101.192 255.176 100.612 255.176C100.056 255.176 99.5312 255.097 99.0391 254.938C98.5527 254.78 98.1221 254.552 97.7471 254.253C97.3721 253.948 97.0791 253.576 96.8682 253.137C96.6572 252.691 96.5518 252.185 96.5518 251.616H98.1777C98.1777 252.062 98.2744 252.451 98.4678 252.785C98.667 253.119 98.9482 253.38 99.3115 253.567C99.6807 253.749 100.114 253.84 100.612 253.84C101.11 253.84 101.538 253.755 101.896 253.585C102.259 253.409 102.537 253.146 102.73 252.794C102.93 252.442 103.029 252 103.029 251.467C103.029 250.934 102.918 250.497 102.695 250.157C102.473 249.812 102.156 249.557 101.746 249.393C101.342 249.223 100.864 249.138 100.313 249.138H99.1533ZM112.249 242.133V255H110.623V244.163L107.345 245.358V243.891L111.994 242.133H112.249ZM125.415 253.664V255H117.039V253.831L121.231 249.164C121.747 248.59 122.146 248.104 122.427 247.705C122.714 247.301 122.913 246.94 123.024 246.624C123.142 246.302 123.2 245.974 123.2 245.64C123.2 245.218 123.112 244.837 122.937 244.497C122.767 244.151 122.515 243.876 122.181 243.671C121.847 243.466 121.442 243.363 120.968 243.363C120.399 243.363 119.925 243.475 119.544 243.697C119.169 243.914 118.888 244.219 118.7 244.611C118.513 245.004 118.419 245.455 118.419 245.965H116.793C116.793 245.244 116.951 244.585 117.268 243.987C117.584 243.39 118.053 242.915 118.674 242.563C119.295 242.206 120.06 242.027 120.968 242.027C121.776 242.027 122.468 242.171 123.042 242.458C123.616 242.739 124.056 243.138 124.36 243.653C124.671 244.163 124.826 244.761 124.826 245.446C124.826 245.821 124.762 246.202 124.633 246.589C124.51 246.97 124.337 247.351 124.114 247.731C123.897 248.112 123.643 248.487 123.35 248.856C123.062 249.226 122.755 249.589 122.427 249.946L118.999 253.664H125.415ZM132.499 242.133V255H130.873V244.163L127.595 245.358V243.891L132.244 242.133H132.499ZM138.933 253.066V254.376C138.933 254.909 138.798 255.472 138.528 256.063C138.259 256.661 137.881 257.159 137.395 257.558L136.472 256.916C136.659 256.658 136.817 256.395 136.946 256.125C137.075 255.861 137.172 255.586 137.236 255.299C137.307 255.018 137.342 254.719 137.342 254.402V253.066H138.933ZM153.329 247.582V249.533C153.329 250.582 153.235 251.467 153.048 252.188C152.86 252.908 152.591 253.488 152.239 253.928C151.888 254.367 151.463 254.687 150.965 254.886C150.473 255.079 149.916 255.176 149.295 255.176C148.803 255.176 148.349 255.114 147.933 254.991C147.517 254.868 147.142 254.672 146.808 254.402C146.479 254.127 146.198 253.77 145.964 253.33C145.729 252.891 145.551 252.357 145.428 251.73C145.305 251.104 145.243 250.371 145.243 249.533V247.582C145.243 246.533 145.337 245.654 145.524 244.945C145.718 244.236 145.99 243.668 146.342 243.24C146.693 242.807 147.115 242.496 147.607 242.309C148.105 242.121 148.662 242.027 149.277 242.027C149.775 242.027 150.232 242.089 150.648 242.212C151.07 242.329 151.445 242.52 151.773 242.783C152.102 243.041 152.38 243.387 152.608 243.82C152.843 244.248 153.021 244.772 153.145 245.394C153.268 246.015 153.329 246.744 153.329 247.582ZM151.694 249.797V247.31C151.694 246.735 151.659 246.231 151.589 245.798C151.524 245.358 151.428 244.983 151.299 244.673C151.17 244.362 151.006 244.11 150.807 243.917C150.613 243.724 150.388 243.583 150.13 243.495C149.878 243.401 149.594 243.354 149.277 243.354C148.891 243.354 148.548 243.428 148.249 243.574C147.95 243.715 147.698 243.94 147.493 244.251C147.294 244.562 147.142 244.969 147.036 245.473C146.931 245.977 146.878 246.589 146.878 247.31V249.797C146.878 250.371 146.91 250.878 146.975 251.317C147.045 251.757 147.147 252.138 147.282 252.46C147.417 252.776 147.581 253.037 147.774 253.242C147.968 253.447 148.19 253.6 148.442 253.699C148.7 253.793 148.984 253.84 149.295 253.84C149.693 253.84 150.042 253.764 150.341 253.611C150.64 253.459 150.889 253.222 151.088 252.899C151.293 252.571 151.445 252.152 151.545 251.643C151.645 251.127 151.694 250.512 151.694 249.797ZM163.489 251.537C163.489 252.316 163.308 252.979 162.944 253.523C162.587 254.062 162.101 254.473 161.485 254.754C160.876 255.035 160.188 255.176 159.42 255.176C158.652 255.176 157.961 255.035 157.346 254.754C156.73 254.473 156.244 254.062 155.887 253.523C155.529 252.979 155.351 252.316 155.351 251.537C155.351 251.027 155.447 250.562 155.641 250.14C155.84 249.712 156.118 249.34 156.476 249.023C156.839 248.707 157.267 248.464 157.759 248.294C158.257 248.118 158.805 248.03 159.402 248.03C160.188 248.03 160.888 248.183 161.503 248.487C162.118 248.786 162.602 249.199 162.953 249.727C163.311 250.254 163.489 250.857 163.489 251.537ZM161.854 251.502C161.854 251.027 161.752 250.608 161.547 250.245C161.342 249.876 161.055 249.589 160.686 249.384C160.316 249.179 159.889 249.076 159.402 249.076C158.904 249.076 158.474 249.179 158.11 249.384C157.753 249.589 157.475 249.876 157.275 250.245C157.076 250.608 156.977 251.027 156.977 251.502C156.977 251.994 157.073 252.416 157.267 252.768C157.466 253.113 157.747 253.38 158.11 253.567C158.479 253.749 158.916 253.84 159.42 253.84C159.924 253.84 160.357 253.749 160.721 253.567C161.084 253.38 161.362 253.113 161.556 252.768C161.755 252.416 161.854 251.994 161.854 251.502ZM163.19 245.534C163.19 246.155 163.026 246.715 162.698 247.213C162.37 247.711 161.922 248.104 161.354 248.391C160.785 248.678 160.141 248.821 159.42 248.821C158.688 248.821 158.034 248.678 157.46 248.391C156.892 248.104 156.446 247.711 156.124 247.213C155.802 246.715 155.641 246.155 155.641 245.534C155.641 244.79 155.802 244.157 156.124 243.636C156.452 243.114 156.9 242.716 157.469 242.44C158.037 242.165 158.685 242.027 159.411 242.027C160.144 242.027 160.794 242.165 161.362 242.44C161.931 242.716 162.376 243.114 162.698 243.636C163.026 244.157 163.19 244.79 163.19 245.534ZM161.564 245.561C161.564 245.133 161.474 244.755 161.292 244.427C161.11 244.099 160.858 243.841 160.536 243.653C160.214 243.46 159.839 243.363 159.411 243.363C158.983 243.363 158.608 243.454 158.286 243.636C157.97 243.812 157.721 244.063 157.539 244.392C157.363 244.72 157.275 245.109 157.275 245.561C157.275 246 157.363 246.384 157.539 246.712C157.721 247.04 157.973 247.295 158.295 247.477C158.617 247.658 158.992 247.749 159.42 247.749C159.848 247.749 160.22 247.658 160.536 247.477C160.858 247.295 161.11 247.04 161.292 246.712C161.474 246.384 161.564 246 161.564 245.561ZM173.579 247.582V249.533C173.579 250.582 173.485 251.467 173.298 252.188C173.11 252.908 172.841 253.488 172.489 253.928C172.138 254.367 171.713 254.687 171.215 254.886C170.723 255.079 170.166 255.176 169.545 255.176C169.053 255.176 168.599 255.114 168.183 254.991C167.767 254.868 167.392 254.672 167.058 254.402C166.729 254.127 166.448 253.77 166.214 253.33C165.979 252.891 165.801 252.357 165.678 251.73C165.555 251.104 165.493 250.371 165.493 249.533V247.582C165.493 246.533 165.587 245.654 165.774 244.945C165.968 244.236 166.24 243.668 166.592 243.24C166.943 242.807 167.365 242.496 167.857 242.309C168.355 242.121 168.912 242.027 169.527 242.027C170.025 242.027 170.482 242.089 170.898 242.212C171.32 242.329 171.695 242.52 172.023 242.783C172.352 243.041 172.63 243.387 172.858 243.82C173.093 244.248 173.271 244.772 173.395 245.394C173.518 246.015 173.579 246.744 173.579 247.582ZM171.944 249.797V247.31C171.944 246.735 171.909 246.231 171.839 245.798C171.774 245.358 171.678 244.983 171.549 244.673C171.42 244.362 171.256 244.11 171.057 243.917C170.863 243.724 170.638 243.583 170.38 243.495C170.128 243.401 169.844 243.354 169.527 243.354C169.141 243.354 168.798 243.428 168.499 243.574C168.2 243.715 167.948 243.94 167.743 244.251C167.544 244.562 167.392 244.969 167.286 245.473C167.181 245.977 167.128 246.589 167.128 247.31V249.797C167.128 250.371 167.16 250.878 167.225 251.317C167.295 251.757 167.397 252.138 167.532 252.46C167.667 252.776 167.831 253.037 168.024 253.242C168.218 253.447 168.44 253.6 168.692 253.699C168.95 253.793 169.234 253.84 169.545 253.84C169.943 253.84 170.292 253.764 170.591 253.611C170.89 253.459 171.139 253.222 171.338 252.899C171.543 252.571 171.695 252.152 171.795 251.643C171.895 251.127 171.944 250.512 171.944 249.797ZM178.044 247.802H179.204C179.772 247.802 180.241 247.708 180.61 247.521C180.985 247.327 181.264 247.066 181.445 246.738C181.633 246.404 181.727 246.029 181.727 245.613C181.727 245.121 181.645 244.708 181.48 244.374C181.316 244.04 181.07 243.788 180.742 243.618C180.414 243.448 179.998 243.363 179.494 243.363C179.037 243.363 178.633 243.454 178.281 243.636C177.936 243.812 177.663 244.063 177.464 244.392C177.271 244.72 177.174 245.106 177.174 245.552H175.548C175.548 244.901 175.712 244.31 176.04 243.776C176.368 243.243 176.828 242.818 177.42 242.502C178.018 242.186 178.709 242.027 179.494 242.027C180.268 242.027 180.944 242.165 181.524 242.44C182.104 242.71 182.556 243.114 182.878 243.653C183.2 244.187 183.361 244.852 183.361 245.648C183.361 245.971 183.285 246.316 183.133 246.686C182.986 247.049 182.755 247.389 182.438 247.705C182.128 248.021 181.724 248.282 181.226 248.487C180.728 248.687 180.13 248.786 179.433 248.786H178.044V247.802ZM178.044 249.138V248.162H179.433C180.247 248.162 180.921 248.259 181.454 248.452C181.987 248.646 182.406 248.903 182.711 249.226C183.021 249.548 183.238 249.902 183.361 250.289C183.49 250.67 183.555 251.051 183.555 251.432C183.555 252.029 183.452 252.56 183.247 253.022C183.048 253.485 182.764 253.878 182.395 254.2C182.031 254.522 181.604 254.766 181.111 254.93C180.619 255.094 180.083 255.176 179.503 255.176C178.946 255.176 178.422 255.097 177.93 254.938C177.443 254.78 177.013 254.552 176.638 254.253C176.263 253.948 175.97 253.576 175.759 253.137C175.548 252.691 175.442 252.185 175.442 251.616H177.068C177.068 252.062 177.165 252.451 177.358 252.785C177.558 253.119 177.839 253.38 178.202 253.567C178.571 253.749 179.005 253.84 179.503 253.84C180.001 253.84 180.429 253.755 180.786 253.585C181.149 253.409 181.428 253.146 181.621 252.794C181.82 252.442 181.92 252 181.92 251.467C181.92 250.934 181.809 250.497 181.586 250.157C181.363 249.812 181.047 249.557 180.637 249.393C180.232 249.223 179.755 249.138 179.204 249.138H178.044ZM188.169 247.802H189.329C189.897 247.802 190.366 247.708 190.735 247.521C191.11 247.327 191.389 247.066 191.57 246.738C191.758 246.404 191.852 246.029 191.852 245.613C191.852 245.121 191.77 244.708 191.605 244.374C191.441 244.04 191.195 243.788 190.867 243.618C190.539 243.448 190.123 243.363 189.619 243.363C189.162 243.363 188.758 243.454 188.406 243.636C188.061 243.812 187.788 244.063 187.589 244.392C187.396 244.72 187.299 245.106 187.299 245.552H185.673C185.673 244.901 185.837 244.31 186.165 243.776C186.493 243.243 186.953 242.818 187.545 242.502C188.143 242.186 188.834 242.027 189.619 242.027C190.393 242.027 191.069 242.165 191.649 242.44C192.229 242.71 192.681 243.114 193.003 243.653C193.325 244.187 193.486 244.852 193.486 245.648C193.486 245.971 193.41 246.316 193.258 246.686C193.111 247.049 192.88 247.389 192.563 247.705C192.253 248.021 191.849 248.282 191.351 248.487C190.853 248.687 190.255 248.786 189.558 248.786H188.169V247.802ZM188.169 249.138V248.162H189.558C190.372 248.162 191.046 248.259 191.579 248.452C192.112 248.646 192.531 248.903 192.836 249.226C193.146 249.548 193.363 249.902 193.486 250.289C193.615 250.67 193.68 251.051 193.68 251.432C193.68 252.029 193.577 252.56 193.372 253.022C193.173 253.485 192.889 253.878 192.52 254.2C192.156 254.522 191.729 254.766 191.236 254.93C190.744 255.094 190.208 255.176 189.628 255.176C189.071 255.176 188.547 255.097 188.055 254.938C187.568 254.78 187.138 254.552 186.763 254.253C186.388 253.948 186.095 253.576 185.884 253.137C185.673 252.691 185.567 252.185 185.567 251.616H187.193C187.193 252.062 187.29 252.451 187.483 252.785C187.683 253.119 187.964 253.38 188.327 253.567C188.696 253.749 189.13 253.84 189.628 253.84C190.126 253.84 190.554 253.755 190.911 253.585C191.274 253.409 191.553 253.146 191.746 252.794C191.945 252.442 192.045 252 192.045 251.467C192.045 250.934 191.934 250.497 191.711 250.157C191.488 249.812 191.172 249.557 190.762 249.393C190.357 249.223 189.88 249.138 189.329 249.138H188.169ZM203.954 247.582V249.533C203.954 250.582 203.86 251.467 203.673 252.188C203.485 252.908 203.216 253.488 202.864 253.928C202.513 254.367 202.088 254.687 201.59 254.886C201.098 255.079 200.541 255.176 199.92 255.176C199.428 255.176 198.974 255.114 198.558 254.991C198.142 254.868 197.767 254.672 197.433 254.402C197.104 254.127 196.823 253.77 196.589 253.33C196.354 252.891 196.176 252.357 196.053 251.73C195.93 251.104 195.868 250.371 195.868 249.533V247.582C195.868 246.533 195.962 245.654 196.149 244.945C196.343 244.236 196.615 243.668 196.967 243.24C197.318 242.807 197.74 242.496 198.232 242.309C198.73 242.121 199.287 242.027 199.902 242.027C200.4 242.027 200.857 242.089 201.273 242.212C201.695 242.329 202.07 242.52 202.398 242.783C202.727 243.041 203.005 243.387 203.233 243.82C203.468 244.248 203.646 244.772 203.77 245.394C203.893 246.015 203.954 246.744 203.954 247.582ZM202.319 249.797V247.31C202.319 246.735 202.284 246.231 202.214 245.798C202.149 245.358 202.053 244.983 201.924 244.673C201.795 244.362 201.631 244.11 201.432 243.917C201.238 243.724 201.013 243.583 200.755 243.495C200.503 243.401 200.219 243.354 199.902 243.354C199.516 243.354 199.173 243.428 198.874 243.574C198.575 243.715 198.323 243.94 198.118 244.251C197.919 244.562 197.767 244.969 197.661 245.473C197.556 245.977 197.503 246.589 197.503 247.31V249.797C197.503 250.371 197.535 250.878 197.6 251.317C197.67 251.757 197.772 252.138 197.907 252.46C198.042 252.776 198.206 253.037 198.399 253.242C198.593 253.447 198.815 253.6 199.067 253.699C199.325 253.793 199.609 253.84 199.92 253.84C200.318 253.84 200.667 253.764 200.966 253.611C201.265 253.459 201.514 253.222 201.713 252.899C201.918 252.571 202.07 252.152 202.17 251.643C202.27 251.127 202.319 250.512 202.319 249.797ZM214.694 250.693V252.029H205.448V251.071L211.179 242.203H212.506L211.082 244.77L207.294 250.693H214.694ZM212.91 242.203V255H211.284V242.203H212.91ZM224.441 242.203V243.117L219.142 255H217.428L222.719 243.539H215.793V242.203H224.441ZM234.681 253.664V255H226.305V253.831L230.497 249.164C231.013 248.59 231.411 248.104 231.692 247.705C231.979 247.301 232.179 246.94 232.29 246.624C232.407 246.302 232.466 245.974 232.466 245.64C232.466 245.218 232.378 244.837 232.202 244.497C232.032 244.151 231.78 243.876 231.446 243.671C231.112 243.466 230.708 243.363 230.233 243.363C229.665 243.363 229.19 243.475 228.81 243.697C228.435 243.914 228.153 244.219 227.966 244.611C227.778 245.004 227.685 245.455 227.685 245.965H226.059C226.059 245.244 226.217 244.585 226.533 243.987C226.85 243.39 227.318 242.915 227.939 242.563C228.561 242.206 229.325 242.027 230.233 242.027C231.042 242.027 231.733 242.171 232.308 242.458C232.882 242.739 233.321 243.138 233.626 243.653C233.937 244.163 234.092 244.761 234.092 245.446C234.092 245.821 234.027 246.202 233.898 246.589C233.775 246.97 233.603 247.351 233.38 247.731C233.163 248.112 232.908 248.487 232.615 248.856C232.328 249.226 232.021 249.589 231.692 249.946L228.265 253.664H234.681ZM244.691 242.203V243.117L239.392 255H237.678L242.969 243.539H236.043V242.203H244.691ZM254.579 247.582V249.533C254.579 250.582 254.485 251.467 254.298 252.188C254.11 252.908 253.841 253.488 253.489 253.928C253.138 254.367 252.713 254.687 252.215 254.886C251.723 255.079 251.166 255.176 250.545 255.176C250.053 255.176 249.599 255.114 249.183 254.991C248.767 254.868 248.392 254.672 248.058 254.402C247.729 254.127 247.448 253.77 247.214 253.33C246.979 252.891 246.801 252.357 246.678 251.73C246.555 251.104 246.493 250.371 246.493 249.533V247.582C246.493 246.533 246.587 245.654 246.774 244.945C246.968 244.236 247.24 243.668 247.592 243.24C247.943 242.807 248.365 242.496 248.857 242.309C249.355 242.121 249.912 242.027 250.527 242.027C251.025 242.027 251.482 242.089 251.898 242.212C252.32 242.329 252.695 242.52 253.023 242.783C253.352 243.041 253.63 243.387 253.858 243.82C254.093 244.248 254.271 244.772 254.395 245.394C254.518 246.015 254.579 246.744 254.579 247.582ZM252.944 249.797V247.31C252.944 246.735 252.909 246.231 252.839 245.798C252.774 245.358 252.678 244.983 252.549 244.673C252.42 244.362 252.256 244.11 252.057 243.917C251.863 243.724 251.638 243.583 251.38 243.495C251.128 243.401 250.844 243.354 250.527 243.354C250.141 243.354 249.798 243.428 249.499 243.574C249.2 243.715 248.948 243.94 248.743 244.251C248.544 244.562 248.392 244.969 248.286 245.473C248.181 245.977 248.128 246.589 248.128 247.31V249.797C248.128 250.371 248.16 250.878 248.225 251.317C248.295 251.757 248.397 252.138 248.532 252.46C248.667 252.776 248.831 253.037 249.024 253.242C249.218 253.447 249.44 253.6 249.692 253.699C249.95 253.793 250.234 253.84 250.545 253.84C250.943 253.84 251.292 253.764 251.591 253.611C251.89 253.459 252.139 253.222 252.338 252.899C252.543 252.571 252.695 252.152 252.795 251.643C252.895 251.127 252.944 250.512 252.944 249.797ZM258.323 253.066V254.376C258.323 254.909 258.188 255.472 257.919 256.063C257.649 256.661 257.271 257.159 256.785 257.558L255.862 256.916C256.05 256.658 256.208 256.395 256.337 256.125C256.466 255.861 256.562 255.586 256.627 255.299C256.697 255.018 256.732 254.719 256.732 254.402V253.066H258.323ZM97.9844 273.582V275.533C97.9844 276.582 97.8906 277.467 97.7031 278.188C97.5156 278.908 97.2461 279.488 96.8945 279.928C96.543 280.367 96.1182 280.687 95.6201 280.886C95.1279 281.079 94.5713 281.176 93.9502 281.176C93.458 281.176 93.0039 281.114 92.5879 280.991C92.1719 280.868 91.7969 280.672 91.4629 280.402C91.1348 280.127 90.8535 279.77 90.6191 279.33C90.3848 278.891 90.2061 278.357 90.083 277.73C89.96 277.104 89.8984 276.371 89.8984 275.533V273.582C89.8984 272.533 89.9922 271.654 90.1797 270.945C90.373 270.236 90.6455 269.668 90.9971 269.24C91.3486 268.807 91.7705 268.496 92.2627 268.309C92.7607 268.121 93.3174 268.027 93.9326 268.027C94.4307 268.027 94.8877 268.089 95.3037 268.212C95.7256 268.329 96.1006 268.52 96.4287 268.783C96.7568 269.041 97.0352 269.387 97.2637 269.82C97.498 270.248 97.6768 270.772 97.7998 271.394C97.9229 272.015 97.9844 272.744 97.9844 273.582ZM96.3496 275.797V273.31C96.3496 272.735 96.3145 272.231 96.2441 271.798C96.1797 271.358 96.083 270.983 95.9541 270.673C95.8252 270.362 95.6611 270.11 95.4619 269.917C95.2686 269.724 95.043 269.583 94.7852 269.495C94.5332 269.401 94.249 269.354 93.9326 269.354C93.5459 269.354 93.2031 269.428 92.9043 269.574C92.6055 269.715 92.3535 269.94 92.1484 270.251C91.9492 270.562 91.7969 270.969 91.6914 271.473C91.5859 271.977 91.5332 272.589 91.5332 273.31V275.797C91.5332 276.371 91.5654 276.878 91.6299 277.317C91.7002 277.757 91.8027 278.138 91.9375 278.46C92.0723 278.776 92.2363 279.037 92.4297 279.242C92.623 279.447 92.8457 279.6 93.0977 279.699C93.3555 279.793 93.6396 279.84 93.9502 279.84C94.3486 279.84 94.6973 279.764 94.9961 279.611C95.2949 279.459 95.5439 279.222 95.7432 278.899C95.9482 278.571 96.1006 278.152 96.2002 277.643C96.2998 277.127 96.3496 276.512 96.3496 275.797ZM105.42 268.133V281H103.794V270.163L100.516 271.358V269.891L105.165 268.133H105.42ZM118.85 276.693V278.029H109.604V277.071L115.334 268.203H116.661L115.237 270.77L111.449 276.693H118.85ZM117.065 268.203V281H115.439V268.203H117.065ZM121.943 279.638H122.11C123.048 279.638 123.81 279.506 124.396 279.242C124.981 278.979 125.433 278.624 125.749 278.179C126.065 277.733 126.282 277.232 126.399 276.676C126.517 276.113 126.575 275.536 126.575 274.944V272.984C126.575 272.404 126.508 271.889 126.373 271.438C126.244 270.986 126.062 270.608 125.828 270.304C125.6 269.999 125.339 269.768 125.046 269.609C124.753 269.451 124.442 269.372 124.114 269.372C123.739 269.372 123.402 269.448 123.104 269.601C122.811 269.747 122.562 269.955 122.356 270.225C122.157 270.494 122.005 270.811 121.899 271.174C121.794 271.537 121.741 271.933 121.741 272.36C121.741 272.741 121.788 273.11 121.882 273.468C121.976 273.825 122.119 274.147 122.312 274.435C122.506 274.722 122.746 274.95 123.033 275.12C123.326 275.284 123.669 275.366 124.062 275.366C124.425 275.366 124.765 275.296 125.081 275.155C125.403 275.009 125.688 274.812 125.934 274.566C126.186 274.314 126.385 274.03 126.531 273.714C126.684 273.397 126.771 273.066 126.795 272.721H127.568C127.568 273.207 127.472 273.688 127.278 274.162C127.091 274.631 126.827 275.059 126.487 275.445C126.147 275.832 125.749 276.143 125.292 276.377C124.835 276.605 124.337 276.72 123.798 276.72C123.165 276.72 122.617 276.597 122.154 276.351C121.691 276.104 121.311 275.776 121.012 275.366C120.719 274.956 120.499 274.499 120.353 273.995C120.212 273.485 120.142 272.97 120.142 272.448C120.142 271.839 120.227 271.268 120.396 270.734C120.566 270.201 120.818 269.732 121.152 269.328C121.486 268.918 121.899 268.599 122.392 268.37C122.89 268.142 123.464 268.027 124.114 268.027C124.847 268.027 125.471 268.174 125.986 268.467C126.502 268.76 126.921 269.152 127.243 269.645C127.571 270.137 127.812 270.69 127.964 271.306C128.116 271.921 128.192 272.554 128.192 273.204V273.793C128.192 274.455 128.148 275.129 128.061 275.814C127.979 276.494 127.817 277.145 127.577 277.766C127.343 278.387 127 278.943 126.549 279.436C126.098 279.922 125.509 280.309 124.782 280.596C124.062 280.877 123.171 281.018 122.11 281.018H121.943V279.638ZM138.722 268.203V269.117L133.422 281H131.708L136.999 269.539H130.073V268.203H138.722ZM142.193 279.638H142.36C143.298 279.638 144.06 279.506 144.646 279.242C145.231 278.979 145.683 278.624 145.999 278.179C146.315 277.733 146.532 277.232 146.649 276.676C146.767 276.113 146.825 275.536 146.825 274.944V272.984C146.825 272.404 146.758 271.889 146.623 271.438C146.494 270.986 146.312 270.608 146.078 270.304C145.85 269.999 145.589 269.768 145.296 269.609C145.003 269.451 144.692 269.372 144.364 269.372C143.989 269.372 143.652 269.448 143.354 269.601C143.061 269.747 142.812 269.955 142.606 270.225C142.407 270.494 142.255 270.811 142.149 271.174C142.044 271.537 141.991 271.933 141.991 272.36C141.991 272.741 142.038 273.11 142.132 273.468C142.226 273.825 142.369 274.147 142.562 274.435C142.756 274.722 142.996 274.95 143.283 275.12C143.576 275.284 143.919 275.366 144.312 275.366C144.675 275.366 145.015 275.296 145.331 275.155C145.653 275.009 145.938 274.812 146.184 274.566C146.436 274.314 146.635 274.03 146.781 273.714C146.934 273.397 147.021 273.066 147.045 272.721H147.818C147.818 273.207 147.722 273.688 147.528 274.162C147.341 274.631 147.077 275.059 146.737 275.445C146.397 275.832 145.999 276.143 145.542 276.377C145.085 276.605 144.587 276.72 144.048 276.72C143.415 276.72 142.867 276.597 142.404 276.351C141.941 276.104 141.561 275.776 141.262 275.366C140.969 274.956 140.749 274.499 140.603 273.995C140.462 273.485 140.392 272.97 140.392 272.448C140.392 271.839 140.477 271.268 140.646 270.734C140.816 270.201 141.068 269.732 141.402 269.328C141.736 268.918 142.149 268.599 142.642 268.37C143.14 268.142 143.714 268.027 144.364 268.027C145.097 268.027 145.721 268.174 146.236 268.467C146.752 268.76 147.171 269.152 147.493 269.645C147.821 270.137 148.062 270.69 148.214 271.306C148.366 271.921 148.442 272.554 148.442 273.204V273.793C148.442 274.455 148.398 275.129 148.311 275.814C148.229 276.494 148.067 277.145 147.827 277.766C147.593 278.387 147.25 278.943 146.799 279.436C146.348 279.922 145.759 280.309 145.032 280.596C144.312 280.877 143.421 281.018 142.36 281.018H142.193V279.638ZM158.734 273.582V275.533C158.734 276.582 158.641 277.467 158.453 278.188C158.266 278.908 157.996 279.488 157.645 279.928C157.293 280.367 156.868 280.687 156.37 280.886C155.878 281.079 155.321 281.176 154.7 281.176C154.208 281.176 153.754 281.114 153.338 280.991C152.922 280.868 152.547 280.672 152.213 280.402C151.885 280.127 151.604 279.77 151.369 279.33C151.135 278.891 150.956 278.357 150.833 277.73C150.71 277.104 150.648 276.371 150.648 275.533V273.582C150.648 272.533 150.742 271.654 150.93 270.945C151.123 270.236 151.396 269.668 151.747 269.24C152.099 268.807 152.521 268.496 153.013 268.309C153.511 268.121 154.067 268.027 154.683 268.027C155.181 268.027 155.638 268.089 156.054 268.212C156.476 268.329 156.851 268.52 157.179 268.783C157.507 269.041 157.785 269.387 158.014 269.82C158.248 270.248 158.427 270.772 158.55 271.394C158.673 272.015 158.734 272.744 158.734 273.582ZM157.1 275.797V273.31C157.1 272.735 157.064 272.231 156.994 271.798C156.93 271.358 156.833 270.983 156.704 270.673C156.575 270.362 156.411 270.11 156.212 269.917C156.019 269.724 155.793 269.583 155.535 269.495C155.283 269.401 154.999 269.354 154.683 269.354C154.296 269.354 153.953 269.428 153.654 269.574C153.355 269.715 153.104 269.94 152.898 270.251C152.699 270.562 152.547 270.969 152.441 271.473C152.336 271.977 152.283 272.589 152.283 273.31V275.797C152.283 276.371 152.315 276.878 152.38 277.317C152.45 277.757 152.553 278.138 152.688 278.46C152.822 278.776 152.986 279.037 153.18 279.242C153.373 279.447 153.596 279.6 153.848 279.699C154.105 279.793 154.39 279.84 154.7 279.84C155.099 279.84 155.447 279.764 155.746 279.611C156.045 279.459 156.294 279.222 156.493 278.899C156.698 278.571 156.851 278.152 156.95 277.643C157.05 277.127 157.1 276.512 157.1 275.797ZM163.199 273.802H164.359C164.928 273.802 165.396 273.708 165.766 273.521C166.141 273.327 166.419 273.066 166.601 272.738C166.788 272.404 166.882 272.029 166.882 271.613C166.882 271.121 166.8 270.708 166.636 270.374C166.472 270.04 166.226 269.788 165.897 269.618C165.569 269.448 165.153 269.363 164.649 269.363C164.192 269.363 163.788 269.454 163.437 269.636C163.091 269.812 162.818 270.063 162.619 270.392C162.426 270.72 162.329 271.106 162.329 271.552H160.703C160.703 270.901 160.867 270.31 161.195 269.776C161.523 269.243 161.983 268.818 162.575 268.502C163.173 268.186 163.864 268.027 164.649 268.027C165.423 268.027 166.1 268.165 166.68 268.44C167.26 268.71 167.711 269.114 168.033 269.653C168.355 270.187 168.517 270.852 168.517 271.648C168.517 271.971 168.44 272.316 168.288 272.686C168.142 273.049 167.91 273.389 167.594 273.705C167.283 274.021 166.879 274.282 166.381 274.487C165.883 274.687 165.285 274.786 164.588 274.786H163.199V273.802ZM163.199 275.138V274.162H164.588C165.402 274.162 166.076 274.259 166.609 274.452C167.143 274.646 167.562 274.903 167.866 275.226C168.177 275.548 168.394 275.902 168.517 276.289C168.646 276.67 168.71 277.051 168.71 277.432C168.71 278.029 168.607 278.56 168.402 279.022C168.203 279.485 167.919 279.878 167.55 280.2C167.187 280.522 166.759 280.766 166.267 280.93C165.774 281.094 165.238 281.176 164.658 281.176C164.102 281.176 163.577 281.097 163.085 280.938C162.599 280.78 162.168 280.552 161.793 280.253C161.418 279.948 161.125 279.576 160.914 279.137C160.703 278.691 160.598 278.185 160.598 277.616H162.224C162.224 278.062 162.32 278.451 162.514 278.785C162.713 279.119 162.994 279.38 163.357 279.567C163.727 279.749 164.16 279.84 164.658 279.84C165.156 279.84 165.584 279.755 165.941 279.585C166.305 279.409 166.583 279.146 166.776 278.794C166.976 278.442 167.075 278 167.075 277.467C167.075 276.934 166.964 276.497 166.741 276.157C166.519 275.812 166.202 275.557 165.792 275.393C165.388 275.223 164.91 275.138 164.359 275.138H163.199ZM178.984 273.582V275.533C178.984 276.582 178.891 277.467 178.703 278.188C178.516 278.908 178.246 279.488 177.895 279.928C177.543 280.367 177.118 280.687 176.62 280.886C176.128 281.079 175.571 281.176 174.95 281.176C174.458 281.176 174.004 281.114 173.588 280.991C173.172 280.868 172.797 280.672 172.463 280.402C172.135 280.127 171.854 279.77 171.619 279.33C171.385 278.891 171.206 278.357 171.083 277.73C170.96 277.104 170.898 276.371 170.898 275.533V273.582C170.898 272.533 170.992 271.654 171.18 270.945C171.373 270.236 171.646 269.668 171.997 269.24C172.349 268.807 172.771 268.496 173.263 268.309C173.761 268.121 174.317 268.027 174.933 268.027C175.431 268.027 175.888 268.089 176.304 268.212C176.726 268.329 177.101 268.52 177.429 268.783C177.757 269.041 178.035 269.387 178.264 269.82C178.498 270.248 178.677 270.772 178.8 271.394C178.923 272.015 178.984 272.744 178.984 273.582ZM177.35 275.797V273.31C177.35 272.735 177.314 272.231 177.244 271.798C177.18 271.358 177.083 270.983 176.954 270.673C176.825 270.362 176.661 270.11 176.462 269.917C176.269 269.724 176.043 269.583 175.785 269.495C175.533 269.401 175.249 269.354 174.933 269.354C174.546 269.354 174.203 269.428 173.904 269.574C173.605 269.715 173.354 269.94 173.148 270.251C172.949 270.562 172.797 270.969 172.691 271.473C172.586 271.977 172.533 272.589 172.533 273.31V275.797C172.533 276.371 172.565 276.878 172.63 277.317C172.7 277.757 172.803 278.138 172.938 278.46C173.072 278.776 173.236 279.037 173.43 279.242C173.623 279.447 173.846 279.6 174.098 279.699C174.355 279.793 174.64 279.84 174.95 279.84C175.349 279.84 175.697 279.764 175.996 279.611C176.295 279.459 176.544 279.222 176.743 278.899C176.948 278.571 177.101 278.152 177.2 277.643C177.3 277.127 177.35 276.512 177.35 275.797ZM184.636 274.892V276.228H180.347V274.892H184.636ZM194.699 276.693V278.029H185.453V277.071L191.184 268.203H192.511L191.087 270.77L187.299 276.693H194.699ZM192.915 268.203V281H191.289V268.203H192.915Z" fill="black"/>
<circle cx="142.5" cy="95" r="95" fill="white"/>
<path d="M113.682 130V121.882H120.155L128.144 95.1956C128.684 93.4368 129.679 92.0324 131.13 90.9825C132.581 89.9326 134.181 89.4091 135.932 89.4118H148.068C149.821 89.4118 151.423 89.9367 152.874 90.9866C154.325 92.0365 155.319 93.4395 155.856 95.1956L163.845 121.882H170.318V130H113.682ZM137.955 81.2941V61H146.045V81.2941H137.955ZM162.025 91.3397L156.26 85.5559L170.622 71.2485L176.285 76.9309L162.025 91.3397ZM166.273 109.706V101.588H186.5V109.706H166.273ZM121.975 91.3397L107.715 76.9309L113.378 71.2485L127.74 85.5559L121.975 91.3397ZM97.5 109.706V101.588H117.727V109.706H97.5Z" fill="#FF0000"/>
</g>
<defs>
<filter id="filter0_d_38_2626" x="0.5" y="0" width="284" height="365" filterUnits="userSpaceOnUse" color-interpolation-filters="sRGB">
<feFlood flood-opacity="0" result="BackgroundImageFix"/>
<feColorMatrix in="SourceAlpha" type="matrix" values="0 0 0 0 0 0 0 0 0 0 0 0 0 0 0 0 0 0 127 0" result="hardAlpha"/>
<feOffset dy="4"/>
<feGaussianBlur stdDeviation="2"/>
<feComposite in2="hardAlpha" operator="out"/>
<feColorMatrix type="matrix" values="0 0 0 0 0 0 0 0 0 0 0 0 0 0 0 0 0 0 0.25 0"/>
<feBlend mode="normal" in2="BackgroundImageFix" result="effect1_dropShadow_38_2626"/>
<feBlend mode="normal" in="SourceGraphic" in2="effect1_dropShadow_38_2626" result="shape"/>
</filter>
</defs>
</svg>
