<svg width="285" height="365" viewBox="0 0 285 365" fill="none" xmlns="http://www.w3.org/2000/svg">
<g filter="url(#filter0_d_38_2659)">
<rect x="4.5" y="95" width="276" height="262" rx="8" fill="white"/>
<path d="M66.8008 216.943V219H59.9893V216.943H66.8008ZM60.8506 206.203V219H58.2139V206.203H60.8506ZM65.9131 211.415V213.419H59.9893V211.415H65.9131ZM66.792 206.203V208.269H59.9893V206.203H66.792ZM70.6592 211.521V219H68.1279V209.49H70.501L70.6592 211.521ZM70.29 213.911H69.6045C69.6045 213.208 69.6953 212.575 69.877 212.013C70.0586 211.444 70.3135 210.961 70.6416 210.562C70.9697 210.158 71.3594 209.851 71.8105 209.64C72.2676 209.423 72.7773 209.314 73.3398 209.314C73.7852 209.314 74.1924 209.379 74.5615 209.508C74.9307 209.637 75.2471 209.842 75.5107 210.123C75.7803 210.404 75.9854 210.776 76.126 211.239C76.2725 211.702 76.3457 212.268 76.3457 212.936V219H73.7969V212.927C73.7969 212.505 73.7383 212.177 73.6211 211.942C73.5039 211.708 73.3311 211.544 73.1025 211.45C72.8799 211.351 72.6045 211.301 72.2764 211.301C71.9365 211.301 71.6406 211.368 71.3887 211.503C71.1426 211.638 70.9375 211.825 70.7734 212.065C70.6152 212.3 70.4951 212.575 70.4131 212.892C70.3311 213.208 70.29 213.548 70.29 213.911ZM81.5049 217.154L83.6143 209.49H86.2598L83.0518 219H81.4521L81.5049 217.154ZM80.0547 209.49L82.1729 217.163L82.2168 219H80.6084L77.4004 209.49H80.0547ZM90.0654 209.49V219H87.5254V209.49H90.0654ZM87.3672 207.012C87.3672 206.643 87.4961 206.338 87.7539 206.098C88.0117 205.857 88.3574 205.737 88.791 205.737C89.2188 205.737 89.5615 205.857 89.8193 206.098C90.083 206.338 90.2148 206.643 90.2148 207.012C90.2148 207.381 90.083 207.686 89.8193 207.926C89.5615 208.166 89.2188 208.286 88.791 208.286C88.3574 208.286 88.0117 208.166 87.7539 207.926C87.4961 207.686 87.3672 207.381 87.3672 207.012ZM94.6885 211.564V219H92.1572V209.49H94.5391L94.6885 211.564ZM97.5537 209.429L97.5098 211.775C97.3867 211.758 97.2373 211.743 97.0615 211.731C96.8916 211.714 96.7363 211.705 96.5957 211.705C96.2383 211.705 95.9277 211.752 95.6641 211.846C95.4062 211.934 95.1895 212.065 95.0137 212.241C94.8438 212.417 94.7148 212.631 94.627 212.883C94.5449 213.135 94.498 213.422 94.4863 213.744L93.9766 213.586C93.9766 212.971 94.0381 212.405 94.1611 211.89C94.2842 211.368 94.4629 210.914 94.6973 210.527C94.9375 210.141 95.2305 209.842 95.5762 209.631C95.9219 209.42 96.3174 209.314 96.7627 209.314C96.9033 209.314 97.0469 209.326 97.1934 209.35C97.3398 209.367 97.46 209.394 97.5537 209.429ZM98.0811 214.342V214.157C98.0811 213.46 98.1807 212.818 98.3799 212.232C98.5791 211.641 98.8691 211.128 99.25 210.694C99.6309 210.261 100.1 209.924 100.656 209.684C101.213 209.438 101.852 209.314 102.572 209.314C103.293 209.314 103.935 209.438 104.497 209.684C105.06 209.924 105.531 210.261 105.912 210.694C106.299 211.128 106.592 211.641 106.791 212.232C106.99 212.818 107.09 213.46 107.09 214.157V214.342C107.09 215.033 106.99 215.675 106.791 216.267C106.592 216.853 106.299 217.365 105.912 217.805C105.531 218.238 105.062 218.575 104.506 218.815C103.949 219.056 103.311 219.176 102.59 219.176C101.869 219.176 101.228 219.056 100.665 218.815C100.108 218.575 99.6367 218.238 99.25 217.805C98.8691 217.365 98.5791 216.853 98.3799 216.267C98.1807 215.675 98.0811 215.033 98.0811 214.342ZM100.612 214.157V214.342C100.612 214.74 100.647 215.112 100.718 215.458C100.788 215.804 100.899 216.108 101.052 216.372C101.21 216.63 101.415 216.832 101.667 216.979C101.919 217.125 102.227 217.198 102.59 217.198C102.941 217.198 103.243 217.125 103.495 216.979C103.747 216.832 103.949 216.63 104.102 216.372C104.254 216.108 104.365 215.804 104.436 215.458C104.512 215.112 104.55 214.74 104.55 214.342V214.157C104.55 213.771 104.512 213.407 104.436 213.067C104.365 212.722 104.251 212.417 104.093 212.153C103.94 211.884 103.738 211.673 103.486 211.521C103.234 211.368 102.93 211.292 102.572 211.292C102.215 211.292 101.91 211.368 101.658 211.521C101.412 211.673 101.21 211.884 101.052 212.153C100.899 212.417 100.788 212.722 100.718 213.067C100.647 213.407 100.612 213.771 100.612 214.157ZM111.124 211.521V219H108.593V209.49H110.966L111.124 211.521ZM110.755 213.911H110.069C110.069 213.208 110.16 212.575 110.342 212.013C110.523 211.444 110.778 210.961 111.106 210.562C111.435 210.158 111.824 209.851 112.275 209.64C112.732 209.423 113.242 209.314 113.805 209.314C114.25 209.314 114.657 209.379 115.026 209.508C115.396 209.637 115.712 209.842 115.976 210.123C116.245 210.404 116.45 210.776 116.591 211.239C116.737 211.702 116.811 212.268 116.811 212.936V219H114.262V212.927C114.262 212.505 114.203 212.177 114.086 211.942C113.969 211.708 113.796 211.544 113.567 211.45C113.345 211.351 113.069 211.301 112.741 211.301C112.401 211.301 112.105 211.368 111.854 211.503C111.607 211.638 111.402 211.825 111.238 212.065C111.08 212.3 110.96 212.575 110.878 212.892C110.796 213.208 110.755 213.548 110.755 213.911ZM121.267 211.459V219H118.727V209.49H121.108L121.267 211.459ZM120.915 213.911H120.212C120.212 213.249 120.291 212.64 120.449 212.083C120.613 211.521 120.851 211.034 121.161 210.624C121.478 210.208 121.867 209.886 122.33 209.657C122.793 209.429 123.329 209.314 123.938 209.314C124.36 209.314 124.747 209.379 125.099 209.508C125.45 209.631 125.752 209.827 126.004 210.097C126.262 210.36 126.461 210.706 126.602 211.134C126.742 211.556 126.812 212.062 126.812 212.654V219H124.281V212.936C124.281 212.502 124.223 212.168 124.105 211.934C123.988 211.699 123.821 211.535 123.604 211.441C123.394 211.348 123.139 211.301 122.84 211.301C122.512 211.301 122.225 211.368 121.979 211.503C121.738 211.638 121.539 211.825 121.381 212.065C121.223 212.3 121.105 212.575 121.029 212.892C120.953 213.208 120.915 213.548 120.915 213.911ZM126.575 213.621L125.67 213.735C125.67 213.114 125.746 212.537 125.898 212.004C126.057 211.471 126.288 211.002 126.593 210.598C126.903 210.193 127.287 209.88 127.744 209.657C128.201 209.429 128.729 209.314 129.326 209.314C129.783 209.314 130.199 209.382 130.574 209.517C130.949 209.646 131.269 209.854 131.532 210.141C131.802 210.422 132.007 210.791 132.147 211.248C132.294 211.705 132.367 212.265 132.367 212.927V219H129.827V212.927C129.827 212.487 129.769 212.153 129.651 211.925C129.54 211.69 129.376 211.529 129.159 211.441C128.948 211.348 128.696 211.301 128.403 211.301C128.099 211.301 127.832 211.362 127.604 211.485C127.375 211.603 127.185 211.767 127.032 211.978C126.88 212.188 126.766 212.435 126.689 212.716C126.613 212.991 126.575 213.293 126.575 213.621ZM138.704 219.176C137.966 219.176 137.304 219.059 136.718 218.824C136.132 218.584 135.634 218.253 135.224 217.831C134.819 217.409 134.509 216.92 134.292 216.363C134.075 215.801 133.967 215.203 133.967 214.57V214.219C133.967 213.498 134.069 212.839 134.274 212.241C134.479 211.644 134.772 211.125 135.153 210.686C135.54 210.246 136.009 209.909 136.56 209.675C137.11 209.435 137.731 209.314 138.423 209.314C139.097 209.314 139.694 209.426 140.216 209.648C140.737 209.871 141.174 210.188 141.525 210.598C141.883 211.008 142.152 211.5 142.334 212.074C142.516 212.643 142.606 213.275 142.606 213.973V215.027H135.048V213.34H140.119V213.146C140.119 212.795 140.055 212.481 139.926 212.206C139.803 211.925 139.615 211.702 139.363 211.538C139.111 211.374 138.789 211.292 138.396 211.292C138.062 211.292 137.775 211.365 137.535 211.512C137.295 211.658 137.099 211.863 136.946 212.127C136.8 212.391 136.688 212.701 136.612 213.059C136.542 213.41 136.507 213.797 136.507 214.219V214.57C136.507 214.951 136.56 215.303 136.665 215.625C136.776 215.947 136.932 216.226 137.131 216.46C137.336 216.694 137.582 216.876 137.869 217.005C138.162 217.134 138.493 217.198 138.862 217.198C139.319 217.198 139.744 217.11 140.137 216.935C140.535 216.753 140.878 216.48 141.165 216.117L142.396 217.453C142.196 217.74 141.924 218.016 141.578 218.279C141.238 218.543 140.828 218.76 140.348 218.93C139.867 219.094 139.319 219.176 138.704 219.176ZM146.526 211.521V219H143.995V209.49H146.368L146.526 211.521ZM146.157 213.911H145.472C145.472 213.208 145.562 212.575 145.744 212.013C145.926 211.444 146.181 210.961 146.509 210.562C146.837 210.158 147.227 209.851 147.678 209.64C148.135 209.423 148.645 209.314 149.207 209.314C149.652 209.314 150.06 209.379 150.429 209.508C150.798 209.637 151.114 209.842 151.378 210.123C151.647 210.404 151.853 210.776 151.993 211.239C152.14 211.702 152.213 212.268 152.213 212.936V219H149.664V212.927C149.664 212.505 149.605 212.177 149.488 211.942C149.371 211.708 149.198 211.544 148.97 211.45C148.747 211.351 148.472 211.301 148.144 211.301C147.804 211.301 147.508 211.368 147.256 211.503C147.01 211.638 146.805 211.825 146.641 212.065C146.482 212.3 146.362 212.575 146.28 212.892C146.198 213.208 146.157 213.548 146.157 213.911ZM158.796 209.49V211.283H153.259V209.49H158.796ZM154.63 207.144H157.161V216.135C157.161 216.41 157.196 216.621 157.267 216.768C157.343 216.914 157.454 217.017 157.601 217.075C157.747 217.128 157.932 217.154 158.154 217.154C158.312 217.154 158.453 217.148 158.576 217.137C158.705 217.119 158.813 217.102 158.901 217.084L158.91 218.947C158.693 219.018 158.459 219.073 158.207 219.114C157.955 219.155 157.677 219.176 157.372 219.176C156.815 219.176 156.329 219.085 155.913 218.903C155.503 218.716 155.187 218.417 154.964 218.007C154.741 217.597 154.63 217.058 154.63 216.39V207.144ZM165.37 216.855V212.619C165.37 212.314 165.32 212.054 165.221 211.837C165.121 211.614 164.966 211.441 164.755 211.318C164.55 211.195 164.283 211.134 163.955 211.134C163.674 211.134 163.431 211.184 163.226 211.283C163.021 211.377 162.862 211.515 162.751 211.696C162.64 211.872 162.584 212.08 162.584 212.32H160.053C160.053 211.916 160.146 211.532 160.334 211.169C160.521 210.806 160.794 210.486 161.151 210.211C161.509 209.93 161.934 209.71 162.426 209.552C162.924 209.394 163.48 209.314 164.096 209.314C164.834 209.314 165.49 209.438 166.064 209.684C166.639 209.93 167.09 210.299 167.418 210.791C167.752 211.283 167.919 211.898 167.919 212.637V216.706C167.919 217.228 167.951 217.655 168.016 217.989C168.08 218.317 168.174 218.604 168.297 218.851V219H165.739C165.616 218.742 165.522 218.42 165.458 218.033C165.399 217.641 165.37 217.248 165.37 216.855ZM165.704 213.208L165.722 214.641H164.307C163.973 214.641 163.683 214.679 163.437 214.755C163.19 214.831 162.988 214.939 162.83 215.08C162.672 215.215 162.555 215.373 162.479 215.555C162.408 215.736 162.373 215.936 162.373 216.152C162.373 216.369 162.423 216.565 162.522 216.741C162.622 216.911 162.766 217.046 162.953 217.146C163.141 217.239 163.36 217.286 163.612 217.286C163.993 217.286 164.324 217.21 164.605 217.058C164.887 216.905 165.104 216.718 165.256 216.495C165.414 216.272 165.496 216.062 165.502 215.862L166.17 216.935C166.076 217.175 165.947 217.424 165.783 217.682C165.625 217.939 165.423 218.183 165.177 218.411C164.931 218.634 164.635 218.818 164.289 218.965C163.943 219.105 163.533 219.176 163.059 219.176C162.455 219.176 161.907 219.056 161.415 218.815C160.929 218.569 160.542 218.232 160.255 217.805C159.974 217.371 159.833 216.879 159.833 216.328C159.833 215.83 159.927 215.388 160.114 215.001C160.302 214.614 160.577 214.289 160.94 214.025C161.31 213.756 161.77 213.554 162.32 213.419C162.871 213.278 163.51 213.208 164.236 213.208H165.704ZM172.542 205.5V219H170.002V205.5H172.542ZM180.101 206.203L175.407 220.099H173.526L178.22 206.203H180.101ZM191.887 206.203V219H189.25L184.108 210.422V219H181.472V206.203H184.108L189.259 214.79V206.203H191.887ZM193.618 214.342V214.157C193.618 213.46 193.718 212.818 193.917 212.232C194.116 211.641 194.406 211.128 194.787 210.694C195.168 210.261 195.637 209.924 196.193 209.684C196.75 209.438 197.389 209.314 198.109 209.314C198.83 209.314 199.472 209.438 200.034 209.684C200.597 209.924 201.068 210.261 201.449 210.694C201.836 211.128 202.129 211.641 202.328 212.232C202.527 212.818 202.627 213.46 202.627 214.157V214.342C202.627 215.033 202.527 215.675 202.328 216.267C202.129 216.853 201.836 217.365 201.449 217.805C201.068 218.238 200.6 218.575 200.043 218.815C199.486 219.056 198.848 219.176 198.127 219.176C197.406 219.176 196.765 219.056 196.202 218.815C195.646 218.575 195.174 218.238 194.787 217.805C194.406 217.365 194.116 216.853 193.917 216.267C193.718 215.675 193.618 215.033 193.618 214.342ZM196.149 214.157V214.342C196.149 214.74 196.185 215.112 196.255 215.458C196.325 215.804 196.437 216.108 196.589 216.372C196.747 216.63 196.952 216.832 197.204 216.979C197.456 217.125 197.764 217.198 198.127 217.198C198.479 217.198 198.78 217.125 199.032 216.979C199.284 216.832 199.486 216.63 199.639 216.372C199.791 216.108 199.902 215.804 199.973 215.458C200.049 215.112 200.087 214.74 200.087 214.342V214.157C200.087 213.771 200.049 213.407 199.973 213.067C199.902 212.722 199.788 212.417 199.63 212.153C199.478 211.884 199.275 211.673 199.023 211.521C198.771 211.368 198.467 211.292 198.109 211.292C197.752 211.292 197.447 211.368 197.195 211.521C196.949 211.673 196.747 211.884 196.589 212.153C196.437 212.417 196.325 212.722 196.255 213.067C196.185 213.407 196.149 213.771 196.149 214.157ZM206.854 209.49V219H204.314V209.49H206.854ZM204.156 207.012C204.156 206.643 204.285 206.338 204.543 206.098C204.801 205.857 205.146 205.737 205.58 205.737C206.008 205.737 206.351 205.857 206.608 206.098C206.872 206.338 207.004 206.643 207.004 207.012C207.004 207.381 206.872 207.686 206.608 207.926C206.351 208.166 206.008 208.286 205.58 208.286C205.146 208.286 204.801 208.166 204.543 207.926C204.285 207.686 204.156 207.381 204.156 207.012ZM214.088 216.372C214.088 216.19 214.035 216.026 213.93 215.88C213.824 215.733 213.628 215.599 213.341 215.476C213.06 215.347 212.652 215.229 212.119 215.124C211.639 215.019 211.19 214.887 210.774 214.729C210.364 214.564 210.007 214.368 209.702 214.14C209.403 213.911 209.169 213.642 208.999 213.331C208.829 213.015 208.744 212.654 208.744 212.25C208.744 211.852 208.829 211.477 208.999 211.125C209.175 210.773 209.424 210.463 209.746 210.193C210.074 209.918 210.473 209.704 210.941 209.552C211.416 209.394 211.949 209.314 212.541 209.314C213.367 209.314 214.076 209.446 214.668 209.71C215.266 209.974 215.723 210.337 216.039 210.8C216.361 211.257 216.522 211.778 216.522 212.364H213.991C213.991 212.118 213.938 211.898 213.833 211.705C213.733 211.506 213.575 211.351 213.358 211.239C213.147 211.122 212.872 211.063 212.532 211.063C212.251 211.063 212.008 211.113 211.803 211.213C211.598 211.307 211.439 211.436 211.328 211.6C211.223 211.758 211.17 211.934 211.17 212.127C211.17 212.273 211.199 212.405 211.258 212.522C211.322 212.634 211.425 212.736 211.565 212.83C211.706 212.924 211.888 213.012 212.11 213.094C212.339 213.17 212.62 213.24 212.954 213.305C213.64 213.445 214.252 213.63 214.791 213.858C215.33 214.081 215.758 214.386 216.074 214.772C216.391 215.153 216.549 215.654 216.549 216.275C216.549 216.697 216.455 217.084 216.268 217.436C216.08 217.787 215.811 218.095 215.459 218.358C215.107 218.616 214.686 218.818 214.193 218.965C213.707 219.105 213.159 219.176 212.55 219.176C211.665 219.176 210.915 219.018 210.3 218.701C209.69 218.385 209.228 217.983 208.911 217.497C208.601 217.005 208.445 216.501 208.445 215.985H210.845C210.856 216.331 210.944 216.609 211.108 216.82C211.278 217.031 211.492 217.184 211.75 217.277C212.014 217.371 212.298 217.418 212.603 217.418C212.931 217.418 213.203 217.374 213.42 217.286C213.637 217.192 213.801 217.069 213.912 216.917C214.029 216.759 214.088 216.577 214.088 216.372ZM222.569 219.176C221.831 219.176 221.169 219.059 220.583 218.824C219.997 218.584 219.499 218.253 219.089 217.831C218.685 217.409 218.374 216.92 218.157 216.363C217.94 215.801 217.832 215.203 217.832 214.57V214.219C217.832 213.498 217.935 212.839 218.14 212.241C218.345 211.644 218.638 211.125 219.019 210.686C219.405 210.246 219.874 209.909 220.425 209.675C220.976 209.435 221.597 209.314 222.288 209.314C222.962 209.314 223.56 209.426 224.081 209.648C224.603 209.871 225.039 210.188 225.391 210.598C225.748 211.008 226.018 211.5 226.199 212.074C226.381 212.643 226.472 213.275 226.472 213.973V215.027H218.913V213.34H223.984V213.146C223.984 212.795 223.92 212.481 223.791 212.206C223.668 211.925 223.48 211.702 223.229 211.538C222.977 211.374 222.654 211.292 222.262 211.292C221.928 211.292 221.641 211.365 221.4 211.512C221.16 211.658 220.964 211.863 220.812 212.127C220.665 212.391 220.554 212.701 220.478 213.059C220.407 213.41 220.372 213.797 220.372 214.219V214.57C220.372 214.951 220.425 215.303 220.53 215.625C220.642 215.947 220.797 216.226 220.996 216.46C221.201 216.694 221.447 216.876 221.734 217.005C222.027 217.134 222.358 217.198 222.728 217.198C223.185 217.198 223.609 217.11 224.002 216.935C224.4 216.753 224.743 216.48 225.03 216.117L226.261 217.453C226.062 217.74 225.789 218.016 225.443 218.279C225.104 218.543 224.693 218.76 224.213 218.93C223.732 219.094 223.185 219.176 222.569 219.176ZM70.6592 240.438H67.3984V238.382H70.6592C71.1631 238.382 71.5732 238.3 71.8896 238.136C72.2061 237.966 72.4375 237.731 72.584 237.433C72.7305 237.134 72.8037 236.797 72.8037 236.422C72.8037 236.041 72.7305 235.687 72.584 235.358C72.4375 235.03 72.2061 234.767 71.8896 234.567C71.5732 234.368 71.1631 234.269 70.6592 234.269H68.3125V245H65.6758V232.203H70.6592C71.6611 232.203 72.5195 232.385 73.2344 232.748C73.9551 233.105 74.5059 233.601 74.8867 234.233C75.2676 234.866 75.458 235.59 75.458 236.404C75.458 237.23 75.2676 237.945 74.8867 238.549C74.5059 239.152 73.9551 239.618 73.2344 239.946C72.5195 240.274 71.6611 240.438 70.6592 240.438ZM76.5918 240.342V240.157C76.5918 239.46 76.6914 238.818 76.8906 238.232C77.0898 237.641 77.3799 237.128 77.7607 236.694C78.1416 236.261 78.6104 235.924 79.167 235.684C79.7236 235.438 80.3623 235.314 81.083 235.314C81.8037 235.314 82.4453 235.438 83.0078 235.684C83.5703 235.924 84.042 236.261 84.4229 236.694C84.8096 237.128 85.1025 237.641 85.3018 238.232C85.501 238.818 85.6006 239.46 85.6006 240.157V240.342C85.6006 241.033 85.501 241.675 85.3018 242.267C85.1025 242.853 84.8096 243.365 84.4229 243.805C84.042 244.238 83.5732 244.575 83.0166 244.815C82.46 245.056 81.8213 245.176 81.1006 245.176C80.3799 245.176 79.7383 245.056 79.1758 244.815C78.6191 244.575 78.1475 244.238 77.7607 243.805C77.3799 243.365 77.0898 242.853 76.8906 242.267C76.6914 241.675 76.5918 241.033 76.5918 240.342ZM79.123 240.157V240.342C79.123 240.74 79.1582 241.112 79.2285 241.458C79.2988 241.804 79.4102 242.108 79.5625 242.372C79.7207 242.63 79.9258 242.832 80.1777 242.979C80.4297 243.125 80.7373 243.198 81.1006 243.198C81.4521 243.198 81.7539 243.125 82.0059 242.979C82.2578 242.832 82.46 242.63 82.6123 242.372C82.7646 242.108 82.876 241.804 82.9463 241.458C83.0225 241.112 83.0605 240.74 83.0605 240.342V240.157C83.0605 239.771 83.0225 239.407 82.9463 239.067C82.876 238.722 82.7617 238.417 82.6035 238.153C82.4512 237.884 82.249 237.673 81.9971 237.521C81.7451 237.368 81.4404 237.292 81.083 237.292C80.7256 237.292 80.4209 237.368 80.1689 237.521C79.9229 237.673 79.7207 237.884 79.5625 238.153C79.4102 238.417 79.2988 238.722 79.2285 239.067C79.1582 239.407 79.123 239.771 79.123 240.157ZM89.8281 231.5V245H87.2881V231.5H89.8281ZM94.5918 231.5V245H92.0518V231.5H94.5918ZM102.309 242.724V235.49H104.84V245H102.458L102.309 242.724ZM102.59 240.772L103.337 240.755C103.337 241.388 103.264 241.977 103.117 242.521C102.971 243.061 102.751 243.529 102.458 243.928C102.165 244.32 101.796 244.628 101.351 244.851C100.905 245.067 100.381 245.176 99.7773 245.176C99.3145 245.176 98.8867 245.111 98.4941 244.982C98.1074 244.848 97.7734 244.64 97.4922 244.358C97.2168 244.071 97 243.705 96.8418 243.26C96.6895 242.809 96.6133 242.267 96.6133 241.634V235.49H99.1445V241.651C99.1445 241.933 99.1768 242.17 99.2412 242.363C99.3115 242.557 99.4082 242.715 99.5312 242.838C99.6543 242.961 99.7979 243.049 99.9619 243.102C100.132 243.154 100.319 243.181 100.524 243.181C101.046 243.181 101.456 243.075 101.755 242.864C102.06 242.653 102.273 242.366 102.396 242.003C102.525 241.634 102.59 241.224 102.59 240.772ZM111.432 235.49V237.283H105.895V235.49H111.432ZM107.266 233.144H109.797V242.135C109.797 242.41 109.832 242.621 109.902 242.768C109.979 242.914 110.09 243.017 110.236 243.075C110.383 243.128 110.567 243.154 110.79 243.154C110.948 243.154 111.089 243.148 111.212 243.137C111.341 243.119 111.449 243.102 111.537 243.084L111.546 244.947C111.329 245.018 111.095 245.073 110.843 245.114C110.591 245.155 110.312 245.176 110.008 245.176C109.451 245.176 108.965 245.085 108.549 244.903C108.139 244.716 107.822 244.417 107.6 244.007C107.377 243.597 107.266 243.058 107.266 242.39V233.144ZM115.545 235.49V245H113.005V235.49H115.545ZM112.847 233.012C112.847 232.643 112.976 232.338 113.233 232.098C113.491 231.857 113.837 231.737 114.271 231.737C114.698 231.737 115.041 231.857 115.299 232.098C115.562 232.338 115.694 232.643 115.694 233.012C115.694 233.381 115.562 233.686 115.299 233.926C115.041 234.166 114.698 234.286 114.271 234.286C113.837 234.286 113.491 234.166 113.233 233.926C112.976 233.686 112.847 233.381 112.847 233.012ZM117.232 240.342V240.157C117.232 239.46 117.332 238.818 117.531 238.232C117.73 237.641 118.021 237.128 118.401 236.694C118.782 236.261 119.251 235.924 119.808 235.684C120.364 235.438 121.003 235.314 121.724 235.314C122.444 235.314 123.086 235.438 123.648 235.684C124.211 235.924 124.683 236.261 125.063 236.694C125.45 237.128 125.743 237.641 125.942 238.232C126.142 238.818 126.241 239.46 126.241 240.157V240.342C126.241 241.033 126.142 241.675 125.942 242.267C125.743 242.853 125.45 243.365 125.063 243.805C124.683 244.238 124.214 244.575 123.657 244.815C123.101 245.056 122.462 245.176 121.741 245.176C121.021 245.176 120.379 245.056 119.816 244.815C119.26 244.575 118.788 244.238 118.401 243.805C118.021 243.365 117.73 242.853 117.531 242.267C117.332 241.675 117.232 241.033 117.232 240.342ZM119.764 240.157V240.342C119.764 240.74 119.799 241.112 119.869 241.458C119.939 241.804 120.051 242.108 120.203 242.372C120.361 242.63 120.566 242.832 120.818 242.979C121.07 243.125 121.378 243.198 121.741 243.198C122.093 243.198 122.395 243.125 122.646 242.979C122.898 242.832 123.101 242.63 123.253 242.372C123.405 242.108 123.517 241.804 123.587 241.458C123.663 241.112 123.701 240.74 123.701 240.342V240.157C123.701 239.771 123.663 239.407 123.587 239.067C123.517 238.722 123.402 238.417 123.244 238.153C123.092 237.884 122.89 237.673 122.638 237.521C122.386 237.368 122.081 237.292 121.724 237.292C121.366 237.292 121.062 237.368 120.81 237.521C120.563 237.673 120.361 237.884 120.203 238.153C120.051 238.417 119.939 238.722 119.869 239.067C119.799 239.407 119.764 239.771 119.764 240.157ZM130.275 237.521V245H127.744V235.49H130.117L130.275 237.521ZM129.906 239.911H129.221C129.221 239.208 129.312 238.575 129.493 238.013C129.675 237.444 129.93 236.961 130.258 236.562C130.586 236.158 130.976 235.851 131.427 235.64C131.884 235.423 132.394 235.314 132.956 235.314C133.401 235.314 133.809 235.379 134.178 235.508C134.547 235.637 134.863 235.842 135.127 236.123C135.396 236.404 135.602 236.776 135.742 237.239C135.889 237.702 135.962 238.268 135.962 238.936V245H133.413V238.927C133.413 238.505 133.354 238.177 133.237 237.942C133.12 237.708 132.947 237.544 132.719 237.45C132.496 237.351 132.221 237.301 131.893 237.301C131.553 237.301 131.257 237.368 131.005 237.503C130.759 237.638 130.554 237.825 130.39 238.065C130.231 238.3 130.111 238.575 130.029 238.892C129.947 239.208 129.906 239.548 129.906 239.911ZM142.483 239.99V239.797C142.483 238.561 142.612 237.438 142.87 236.431C143.134 235.423 143.479 234.538 143.907 233.776C144.341 233.009 144.812 232.373 145.322 231.869C145.832 231.365 146.339 231.002 146.843 230.779L147.326 232.115C146.992 232.361 146.664 232.701 146.342 233.135C146.02 233.562 145.727 234.09 145.463 234.717C145.205 235.338 144.997 236.07 144.839 236.914C144.681 237.752 144.602 238.707 144.602 239.779V240.008C144.602 241.08 144.681 242.038 144.839 242.882C144.997 243.72 145.205 244.452 145.463 245.079C145.727 245.712 146.02 246.245 146.342 246.679C146.664 247.112 146.992 247.455 147.326 247.707L146.843 249.008C146.339 248.785 145.832 248.422 145.322 247.918C144.812 247.42 144.341 246.787 143.907 246.02C143.479 245.258 143.134 244.373 142.87 243.365C142.612 242.352 142.483 241.227 142.483 239.99ZM157.047 242.943V245H150.604V242.943H157.047ZM151.457 232.203V245H148.82V232.203H151.457ZM163.938 234.392L160.457 245H157.653L162.408 232.203H164.192L163.938 234.392ZM166.829 245L163.34 234.392L163.059 232.203H164.86L169.642 245H166.829ZM166.671 240.236V242.302H159.912V240.236H166.671ZM177.49 241.651C177.49 241.423 177.455 241.218 177.385 241.036C177.32 240.849 177.197 240.679 177.016 240.526C176.834 240.368 176.579 240.213 176.251 240.061C175.923 239.908 175.498 239.75 174.977 239.586C174.396 239.398 173.846 239.188 173.324 238.953C172.809 238.719 172.352 238.446 171.953 238.136C171.561 237.819 171.25 237.453 171.021 237.037C170.799 236.621 170.688 236.138 170.688 235.587C170.688 235.054 170.805 234.57 171.039 234.137C171.273 233.697 171.602 233.322 172.023 233.012C172.445 232.695 172.943 232.452 173.518 232.282C174.098 232.112 174.733 232.027 175.425 232.027C176.368 232.027 177.191 232.197 177.895 232.537C178.598 232.877 179.143 233.343 179.529 233.935C179.922 234.526 180.118 235.203 180.118 235.965H177.499C177.499 235.59 177.42 235.262 177.262 234.98C177.109 234.693 176.875 234.468 176.559 234.304C176.248 234.14 175.855 234.058 175.381 234.058C174.924 234.058 174.543 234.128 174.238 234.269C173.934 234.403 173.705 234.588 173.553 234.822C173.4 235.051 173.324 235.309 173.324 235.596C173.324 235.812 173.377 236.009 173.482 236.185C173.594 236.36 173.758 236.524 173.975 236.677C174.191 236.829 174.458 236.973 174.774 237.107C175.091 237.242 175.457 237.374 175.873 237.503C176.57 237.714 177.183 237.951 177.71 238.215C178.243 238.479 178.688 238.774 179.046 239.103C179.403 239.431 179.673 239.803 179.854 240.219C180.036 240.635 180.127 241.106 180.127 241.634C180.127 242.19 180.019 242.688 179.802 243.128C179.585 243.567 179.271 243.939 178.861 244.244C178.451 244.549 177.962 244.78 177.394 244.938C176.825 245.097 176.189 245.176 175.486 245.176C174.854 245.176 174.229 245.094 173.614 244.93C172.999 244.76 172.439 244.505 171.936 244.165C171.438 243.825 171.039 243.392 170.74 242.864C170.441 242.337 170.292 241.713 170.292 240.992H172.938C172.938 241.391 172.999 241.728 173.122 242.003C173.245 242.278 173.418 242.501 173.641 242.671C173.869 242.841 174.139 242.964 174.449 243.04C174.766 243.116 175.111 243.154 175.486 243.154C175.943 243.154 176.318 243.09 176.611 242.961C176.91 242.832 177.13 242.653 177.271 242.425C177.417 242.196 177.49 241.938 177.49 241.651ZM190.507 242.943V245H183.695V242.943H190.507ZM184.557 232.203V245H181.92V232.203H184.557ZM189.619 237.415V239.419H183.695V237.415H189.619ZM190.498 232.203V234.269H183.695V232.203H190.498ZM197.028 240.438H193.768V238.382H197.028C197.532 238.382 197.942 238.3 198.259 238.136C198.575 237.966 198.807 237.731 198.953 237.433C199.1 237.134 199.173 236.797 199.173 236.422C199.173 236.041 199.1 235.687 198.953 235.358C198.807 235.03 198.575 234.767 198.259 234.567C197.942 234.368 197.532 234.269 197.028 234.269H194.682V245H192.045V232.203H197.028C198.03 232.203 198.889 232.385 199.604 232.748C200.324 233.105 200.875 233.601 201.256 234.233C201.637 234.866 201.827 235.59 201.827 236.404C201.827 237.23 201.637 237.945 201.256 238.549C200.875 239.152 200.324 239.618 199.604 239.946C198.889 240.274 198.03 240.438 197.028 240.438ZM207.391 234.392L203.91 245H201.106L205.861 232.203H207.646L207.391 234.392ZM210.282 245L206.793 234.392L206.512 232.203H208.313L213.095 245H210.282ZM210.124 240.236V242.302H203.365V240.236H210.124ZM218.474 239.797V239.99C218.474 241.186 218.339 242.287 218.069 243.295C217.8 244.297 217.442 245.185 216.997 245.958C216.558 246.737 216.074 247.385 215.547 247.9C215.025 248.416 214.504 248.785 213.982 249.008L213.49 247.707C213.824 247.461 214.149 247.121 214.466 246.688C214.788 246.254 215.081 245.721 215.345 245.088C215.608 244.461 215.816 243.726 215.969 242.882C216.127 242.038 216.206 241.08 216.206 240.008V239.779C216.206 238.707 216.127 237.749 215.969 236.905C215.811 236.062 215.597 235.326 215.327 234.699C215.063 234.066 214.771 233.536 214.448 233.108C214.132 232.675 213.812 232.335 213.49 232.089L213.982 230.779C214.504 231.002 215.025 231.374 215.547 231.896C216.074 232.411 216.558 233.056 216.997 233.829C217.442 234.603 217.8 235.493 218.069 236.501C218.339 237.503 218.474 238.602 218.474 239.797Z" fill="#0066CC"/>
<path d="M95.4092 273.582V275.533C95.4092 276.582 95.3154 277.467 95.1279 278.188C94.9404 278.908 94.6709 279.488 94.3193 279.928C93.9678 280.367 93.543 280.687 93.0449 280.886C92.5527 281.079 91.9961 281.176 91.375 281.176C90.8828 281.176 90.4287 281.114 90.0127 280.991C89.5967 280.868 89.2217 280.672 88.8877 280.402C88.5596 280.127 88.2783 279.77 88.0439 279.33C87.8096 278.891 87.6309 278.357 87.5078 277.73C87.3848 277.104 87.3232 276.371 87.3232 275.533V273.582C87.3232 272.533 87.417 271.654 87.6045 270.945C87.7979 270.236 88.0703 269.668 88.4219 269.24C88.7734 268.807 89.1953 268.496 89.6875 268.309C90.1855 268.121 90.7422 268.027 91.3574 268.027C91.8555 268.027 92.3125 268.089 92.7285 268.212C93.1504 268.329 93.5254 268.52 93.8535 268.783C94.1816 269.041 94.46 269.387 94.6885 269.82C94.9229 270.248 95.1016 270.772 95.2246 271.394C95.3477 272.015 95.4092 272.744 95.4092 273.582ZM93.7744 275.797V273.31C93.7744 272.735 93.7393 272.231 93.6689 271.798C93.6045 271.358 93.5078 270.983 93.3789 270.673C93.25 270.362 93.0859 270.11 92.8867 269.917C92.6934 269.724 92.4678 269.583 92.21 269.495C91.958 269.401 91.6738 269.354 91.3574 269.354C90.9707 269.354 90.6279 269.428 90.3291 269.574C90.0303 269.715 89.7783 269.94 89.5732 270.251C89.374 270.562 89.2217 270.969 89.1162 271.473C89.0107 271.977 88.958 272.589 88.958 273.31V275.797C88.958 276.371 88.9902 276.878 89.0547 277.317C89.125 277.757 89.2275 278.138 89.3623 278.46C89.4971 278.776 89.6611 279.037 89.8545 279.242C90.0479 279.447 90.2705 279.6 90.5225 279.699C90.7803 279.793 91.0645 279.84 91.375 279.84C91.7734 279.84 92.1221 279.764 92.4209 279.611C92.7197 279.459 92.9688 279.222 93.168 278.899C93.373 278.571 93.5254 278.152 93.625 277.643C93.7246 277.127 93.7744 276.512 93.7744 275.797ZM105.569 277.537C105.569 278.316 105.388 278.979 105.024 279.523C104.667 280.062 104.181 280.473 103.565 280.754C102.956 281.035 102.268 281.176 101.5 281.176C100.732 281.176 100.041 281.035 99.4258 280.754C98.8105 280.473 98.3242 280.062 97.9668 279.523C97.6094 278.979 97.4307 278.316 97.4307 277.537C97.4307 277.027 97.5273 276.562 97.7207 276.14C97.9199 275.712 98.1982 275.34 98.5557 275.023C98.9189 274.707 99.3467 274.464 99.8389 274.294C100.337 274.118 100.885 274.03 101.482 274.03C102.268 274.03 102.968 274.183 103.583 274.487C104.198 274.786 104.682 275.199 105.033 275.727C105.391 276.254 105.569 276.857 105.569 277.537ZM103.935 277.502C103.935 277.027 103.832 276.608 103.627 276.245C103.422 275.876 103.135 275.589 102.766 275.384C102.396 275.179 101.969 275.076 101.482 275.076C100.984 275.076 100.554 275.179 100.19 275.384C99.833 275.589 99.5547 275.876 99.3555 276.245C99.1562 276.608 99.0566 277.027 99.0566 277.502C99.0566 277.994 99.1533 278.416 99.3467 278.768C99.5459 279.113 99.8271 279.38 100.19 279.567C100.56 279.749 100.996 279.84 101.5 279.84C102.004 279.84 102.438 279.749 102.801 279.567C103.164 279.38 103.442 279.113 103.636 278.768C103.835 278.416 103.935 277.994 103.935 277.502ZM105.271 271.534C105.271 272.155 105.106 272.715 104.778 273.213C104.45 273.711 104.002 274.104 103.434 274.391C102.865 274.678 102.221 274.821 101.5 274.821C100.768 274.821 100.114 274.678 99.54 274.391C98.9717 274.104 98.5264 273.711 98.2041 273.213C97.8818 272.715 97.7207 272.155 97.7207 271.534C97.7207 270.79 97.8818 270.157 98.2041 269.636C98.5322 269.114 98.9805 268.716 99.5488 268.44C100.117 268.165 100.765 268.027 101.491 268.027C102.224 268.027 102.874 268.165 103.442 268.44C104.011 268.716 104.456 269.114 104.778 269.636C105.106 270.157 105.271 270.79 105.271 271.534ZM103.645 271.561C103.645 271.133 103.554 270.755 103.372 270.427C103.19 270.099 102.938 269.841 102.616 269.653C102.294 269.46 101.919 269.363 101.491 269.363C101.063 269.363 100.688 269.454 100.366 269.636C100.05 269.812 99.8008 270.063 99.6191 270.392C99.4434 270.72 99.3555 271.109 99.3555 271.561C99.3555 272 99.4434 272.384 99.6191 272.712C99.8008 273.04 100.053 273.295 100.375 273.477C100.697 273.658 101.072 273.749 101.5 273.749C101.928 273.749 102.3 273.658 102.616 273.477C102.938 273.295 103.19 273.04 103.372 272.712C103.554 272.384 103.645 272 103.645 271.561ZM115.659 273.582V275.533C115.659 276.582 115.565 277.467 115.378 278.188C115.19 278.908 114.921 279.488 114.569 279.928C114.218 280.367 113.793 280.687 113.295 280.886C112.803 281.079 112.246 281.176 111.625 281.176C111.133 281.176 110.679 281.114 110.263 280.991C109.847 280.868 109.472 280.672 109.138 280.402C108.81 280.127 108.528 279.77 108.294 279.33C108.06 278.891 107.881 278.357 107.758 277.73C107.635 277.104 107.573 276.371 107.573 275.533V273.582C107.573 272.533 107.667 271.654 107.854 270.945C108.048 270.236 108.32 269.668 108.672 269.24C109.023 268.807 109.445 268.496 109.938 268.309C110.436 268.121 110.992 268.027 111.607 268.027C112.105 268.027 112.562 268.089 112.979 268.212C113.4 268.329 113.775 268.52 114.104 268.783C114.432 269.041 114.71 269.387 114.938 269.82C115.173 270.248 115.352 270.772 115.475 271.394C115.598 272.015 115.659 272.744 115.659 273.582ZM114.024 275.797V273.31C114.024 272.735 113.989 272.231 113.919 271.798C113.854 271.358 113.758 270.983 113.629 270.673C113.5 270.362 113.336 270.11 113.137 269.917C112.943 269.724 112.718 269.583 112.46 269.495C112.208 269.401 111.924 269.354 111.607 269.354C111.221 269.354 110.878 269.428 110.579 269.574C110.28 269.715 110.028 269.94 109.823 270.251C109.624 270.562 109.472 270.969 109.366 271.473C109.261 271.977 109.208 272.589 109.208 273.31V275.797C109.208 276.371 109.24 276.878 109.305 277.317C109.375 277.757 109.478 278.138 109.612 278.46C109.747 278.776 109.911 279.037 110.104 279.242C110.298 279.447 110.521 279.6 110.772 279.699C111.03 279.793 111.314 279.84 111.625 279.84C112.023 279.84 112.372 279.764 112.671 279.611C112.97 279.459 113.219 279.222 113.418 278.899C113.623 278.571 113.775 278.152 113.875 277.643C113.975 277.127 114.024 276.512 114.024 275.797ZM120.124 273.802H121.284C121.853 273.802 122.321 273.708 122.69 273.521C123.065 273.327 123.344 273.066 123.525 272.738C123.713 272.404 123.807 272.029 123.807 271.613C123.807 271.121 123.725 270.708 123.561 270.374C123.396 270.04 123.15 269.788 122.822 269.618C122.494 269.448 122.078 269.363 121.574 269.363C121.117 269.363 120.713 269.454 120.361 269.636C120.016 269.812 119.743 270.063 119.544 270.392C119.351 270.72 119.254 271.106 119.254 271.552H117.628C117.628 270.901 117.792 270.31 118.12 269.776C118.448 269.243 118.908 268.818 119.5 268.502C120.098 268.186 120.789 268.027 121.574 268.027C122.348 268.027 123.024 268.165 123.604 268.44C124.185 268.71 124.636 269.114 124.958 269.653C125.28 270.187 125.441 270.852 125.441 271.648C125.441 271.971 125.365 272.316 125.213 272.686C125.066 273.049 124.835 273.389 124.519 273.705C124.208 274.021 123.804 274.282 123.306 274.487C122.808 274.687 122.21 274.786 121.513 274.786H120.124V273.802ZM120.124 275.138V274.162H121.513C122.327 274.162 123.001 274.259 123.534 274.452C124.067 274.646 124.486 274.903 124.791 275.226C125.102 275.548 125.318 275.902 125.441 276.289C125.57 276.67 125.635 277.051 125.635 277.432C125.635 278.029 125.532 278.56 125.327 279.022C125.128 279.485 124.844 279.878 124.475 280.2C124.111 280.522 123.684 280.766 123.191 280.93C122.699 281.094 122.163 281.176 121.583 281.176C121.026 281.176 120.502 281.097 120.01 280.938C119.523 280.78 119.093 280.552 118.718 280.253C118.343 279.948 118.05 279.576 117.839 279.137C117.628 278.691 117.522 278.185 117.522 277.616H119.148C119.148 278.062 119.245 278.451 119.438 278.785C119.638 279.119 119.919 279.38 120.282 279.567C120.651 279.749 121.085 279.84 121.583 279.84C122.081 279.84 122.509 279.755 122.866 279.585C123.229 279.409 123.508 279.146 123.701 278.794C123.9 278.442 124 278 124 277.467C124 276.934 123.889 276.497 123.666 276.157C123.443 275.812 123.127 275.557 122.717 275.393C122.312 275.223 121.835 275.138 121.284 275.138H120.124ZM130.249 273.802H131.409C131.978 273.802 132.446 273.708 132.815 273.521C133.19 273.327 133.469 273.066 133.65 272.738C133.838 272.404 133.932 272.029 133.932 271.613C133.932 271.121 133.85 270.708 133.686 270.374C133.521 270.04 133.275 269.788 132.947 269.618C132.619 269.448 132.203 269.363 131.699 269.363C131.242 269.363 130.838 269.454 130.486 269.636C130.141 269.812 129.868 270.063 129.669 270.392C129.476 270.72 129.379 271.106 129.379 271.552H127.753C127.753 270.901 127.917 270.31 128.245 269.776C128.573 269.243 129.033 268.818 129.625 268.502C130.223 268.186 130.914 268.027 131.699 268.027C132.473 268.027 133.149 268.165 133.729 268.44C134.31 268.71 134.761 269.114 135.083 269.653C135.405 270.187 135.566 270.852 135.566 271.648C135.566 271.971 135.49 272.316 135.338 272.686C135.191 273.049 134.96 273.389 134.644 273.705C134.333 274.021 133.929 274.282 133.431 274.487C132.933 274.687 132.335 274.786 131.638 274.786H130.249V273.802ZM130.249 275.138V274.162H131.638C132.452 274.162 133.126 274.259 133.659 274.452C134.192 274.646 134.611 274.903 134.916 275.226C135.227 275.548 135.443 275.902 135.566 276.289C135.695 276.67 135.76 277.051 135.76 277.432C135.76 278.029 135.657 278.56 135.452 279.022C135.253 279.485 134.969 279.878 134.6 280.2C134.236 280.522 133.809 280.766 133.316 280.93C132.824 281.094 132.288 281.176 131.708 281.176C131.151 281.176 130.627 281.097 130.135 280.938C129.648 280.78 129.218 280.552 128.843 280.253C128.468 279.948 128.175 279.576 127.964 279.137C127.753 278.691 127.647 278.185 127.647 277.616H129.273C129.273 278.062 129.37 278.451 129.563 278.785C129.763 279.119 130.044 279.38 130.407 279.567C130.776 279.749 131.21 279.84 131.708 279.84C132.206 279.84 132.634 279.755 132.991 279.585C133.354 279.409 133.633 279.146 133.826 278.794C134.025 278.442 134.125 278 134.125 277.467C134.125 276.934 134.014 276.497 133.791 276.157C133.568 275.812 133.252 275.557 132.842 275.393C132.438 275.223 131.96 275.138 131.409 275.138H130.249ZM146.034 273.582V275.533C146.034 276.582 145.94 277.467 145.753 278.188C145.565 278.908 145.296 279.488 144.944 279.928C144.593 280.367 144.168 280.687 143.67 280.886C143.178 281.079 142.621 281.176 142 281.176C141.508 281.176 141.054 281.114 140.638 280.991C140.222 280.868 139.847 280.672 139.513 280.402C139.185 280.127 138.903 279.77 138.669 279.33C138.435 278.891 138.256 278.357 138.133 277.73C138.01 277.104 137.948 276.371 137.948 275.533V273.582C137.948 272.533 138.042 271.654 138.229 270.945C138.423 270.236 138.695 269.668 139.047 269.24C139.398 268.807 139.82 268.496 140.312 268.309C140.811 268.121 141.367 268.027 141.982 268.027C142.48 268.027 142.938 268.089 143.354 268.212C143.775 268.329 144.15 268.52 144.479 268.783C144.807 269.041 145.085 269.387 145.313 269.82C145.548 270.248 145.727 270.772 145.85 271.394C145.973 272.015 146.034 272.744 146.034 273.582ZM144.399 275.797V273.31C144.399 272.735 144.364 272.231 144.294 271.798C144.229 271.358 144.133 270.983 144.004 270.673C143.875 270.362 143.711 270.11 143.512 269.917C143.318 269.724 143.093 269.583 142.835 269.495C142.583 269.401 142.299 269.354 141.982 269.354C141.596 269.354 141.253 269.428 140.954 269.574C140.655 269.715 140.403 269.94 140.198 270.251C139.999 270.562 139.847 270.969 139.741 271.473C139.636 271.977 139.583 272.589 139.583 273.31V275.797C139.583 276.371 139.615 276.878 139.68 277.317C139.75 277.757 139.853 278.138 139.987 278.46C140.122 278.776 140.286 279.037 140.479 279.242C140.673 279.447 140.896 279.6 141.147 279.699C141.405 279.793 141.689 279.84 142 279.84C142.398 279.84 142.747 279.764 143.046 279.611C143.345 279.459 143.594 279.222 143.793 278.899C143.998 278.571 144.15 278.152 144.25 277.643C144.35 277.127 144.399 276.512 144.399 275.797ZM154.366 268.186H154.507V269.565H154.366C153.505 269.565 152.784 269.706 152.204 269.987C151.624 270.263 151.164 270.635 150.824 271.104C150.484 271.566 150.238 272.088 150.086 272.668C149.939 273.248 149.866 273.837 149.866 274.435V276.315C149.866 276.884 149.934 277.388 150.068 277.827C150.203 278.261 150.388 278.627 150.622 278.926C150.856 279.225 151.12 279.45 151.413 279.603C151.712 279.755 152.022 279.831 152.345 279.831C152.72 279.831 153.054 279.761 153.347 279.62C153.64 279.474 153.886 279.271 154.085 279.014C154.29 278.75 154.445 278.439 154.551 278.082C154.656 277.725 154.709 277.332 154.709 276.904C154.709 276.523 154.662 276.157 154.568 275.806C154.475 275.448 154.331 275.132 154.138 274.856C153.944 274.575 153.701 274.355 153.408 274.197C153.121 274.033 152.778 273.951 152.38 273.951C151.929 273.951 151.507 274.062 151.114 274.285C150.728 274.502 150.408 274.789 150.156 275.146C149.91 275.498 149.77 275.882 149.734 276.298L148.873 276.289C148.955 275.633 149.107 275.073 149.33 274.61C149.559 274.142 149.84 273.761 150.174 273.468C150.514 273.169 150.892 272.952 151.308 272.817C151.729 272.677 152.175 272.606 152.644 272.606C153.282 272.606 153.833 272.727 154.296 272.967C154.759 273.207 155.14 273.529 155.438 273.934C155.737 274.332 155.957 274.783 156.098 275.287C156.244 275.785 156.317 276.298 156.317 276.825C156.317 277.429 156.232 277.994 156.062 278.521C155.893 279.049 155.638 279.512 155.298 279.91C154.964 280.309 154.551 280.619 154.059 280.842C153.566 281.064 152.995 281.176 152.345 281.176C151.653 281.176 151.05 281.035 150.534 280.754C150.019 280.467 149.591 280.086 149.251 279.611C148.911 279.137 148.656 278.609 148.486 278.029C148.316 277.449 148.231 276.86 148.231 276.263V275.498C148.231 274.596 148.322 273.711 148.504 272.844C148.686 271.977 148.999 271.191 149.444 270.488C149.896 269.785 150.52 269.226 151.316 268.81C152.113 268.394 153.13 268.186 154.366 268.186ZM166.284 273.582V275.533C166.284 276.582 166.19 277.467 166.003 278.188C165.815 278.908 165.546 279.488 165.194 279.928C164.843 280.367 164.418 280.687 163.92 280.886C163.428 281.079 162.871 281.176 162.25 281.176C161.758 281.176 161.304 281.114 160.888 280.991C160.472 280.868 160.097 280.672 159.763 280.402C159.435 280.127 159.153 279.77 158.919 279.33C158.685 278.891 158.506 278.357 158.383 277.73C158.26 277.104 158.198 276.371 158.198 275.533V273.582C158.198 272.533 158.292 271.654 158.479 270.945C158.673 270.236 158.945 269.668 159.297 269.24C159.648 268.807 160.07 268.496 160.562 268.309C161.061 268.121 161.617 268.027 162.232 268.027C162.73 268.027 163.188 268.089 163.604 268.212C164.025 268.329 164.4 268.52 164.729 268.783C165.057 269.041 165.335 269.387 165.563 269.82C165.798 270.248 165.977 270.772 166.1 271.394C166.223 272.015 166.284 272.744 166.284 273.582ZM164.649 275.797V273.31C164.649 272.735 164.614 272.231 164.544 271.798C164.479 271.358 164.383 270.983 164.254 270.673C164.125 270.362 163.961 270.11 163.762 269.917C163.568 269.724 163.343 269.583 163.085 269.495C162.833 269.401 162.549 269.354 162.232 269.354C161.846 269.354 161.503 269.428 161.204 269.574C160.905 269.715 160.653 269.94 160.448 270.251C160.249 270.562 160.097 270.969 159.991 271.473C159.886 271.977 159.833 272.589 159.833 273.31V275.797C159.833 276.371 159.865 276.878 159.93 277.317C160 277.757 160.103 278.138 160.237 278.46C160.372 278.776 160.536 279.037 160.729 279.242C160.923 279.447 161.146 279.6 161.397 279.699C161.655 279.793 161.939 279.84 162.25 279.84C162.648 279.84 162.997 279.764 163.296 279.611C163.595 279.459 163.844 279.222 164.043 278.899C164.248 278.571 164.4 278.152 164.5 277.643C164.6 277.127 164.649 276.512 164.649 275.797ZM177.024 276.693V278.029H167.778V277.071L173.509 268.203H174.836L173.412 270.77L169.624 276.693H177.024ZM175.24 268.203V281H173.614V268.203H175.24ZM180.558 274.909L179.257 274.575L179.898 268.203H186.464V269.706H181.278L180.892 273.187C181.126 273.052 181.422 272.926 181.779 272.809C182.143 272.691 182.559 272.633 183.027 272.633C183.619 272.633 184.149 272.735 184.618 272.94C185.087 273.14 185.485 273.427 185.813 273.802C186.147 274.177 186.402 274.628 186.578 275.155C186.754 275.683 186.842 276.271 186.842 276.922C186.842 277.537 186.757 278.103 186.587 278.618C186.423 279.134 186.174 279.585 185.84 279.972C185.506 280.353 185.084 280.648 184.574 280.859C184.07 281.07 183.476 281.176 182.79 281.176C182.274 281.176 181.785 281.105 181.322 280.965C180.865 280.818 180.455 280.599 180.092 280.306C179.734 280.007 179.441 279.638 179.213 279.198C178.99 278.753 178.85 278.231 178.791 277.634H180.338C180.408 278.114 180.549 278.519 180.76 278.847C180.971 279.175 181.246 279.424 181.586 279.594C181.932 279.758 182.333 279.84 182.79 279.84C183.177 279.84 183.52 279.772 183.818 279.638C184.117 279.503 184.369 279.31 184.574 279.058C184.779 278.806 184.935 278.501 185.04 278.144C185.151 277.786 185.207 277.385 185.207 276.939C185.207 276.535 185.151 276.16 185.04 275.814C184.929 275.469 184.762 275.167 184.539 274.909C184.322 274.651 184.056 274.452 183.739 274.312C183.423 274.165 183.06 274.092 182.649 274.092C182.104 274.092 181.691 274.165 181.41 274.312C181.135 274.458 180.851 274.657 180.558 274.909ZM197.011 279.664V281H188.635V279.831L192.827 275.164C193.343 274.59 193.741 274.104 194.022 273.705C194.31 273.301 194.509 272.94 194.62 272.624C194.737 272.302 194.796 271.974 194.796 271.64C194.796 271.218 194.708 270.837 194.532 270.497C194.362 270.151 194.11 269.876 193.776 269.671C193.442 269.466 193.038 269.363 192.563 269.363C191.995 269.363 191.521 269.475 191.14 269.697C190.765 269.914 190.483 270.219 190.296 270.611C190.108 271.004 190.015 271.455 190.015 271.965H188.389C188.389 271.244 188.547 270.585 188.863 269.987C189.18 269.39 189.648 268.915 190.27 268.563C190.891 268.206 191.655 268.027 192.563 268.027C193.372 268.027 194.063 268.171 194.638 268.458C195.212 268.739 195.651 269.138 195.956 269.653C196.267 270.163 196.422 270.761 196.422 271.446C196.422 271.821 196.357 272.202 196.229 272.589C196.105 272.97 195.933 273.351 195.71 273.731C195.493 274.112 195.238 274.487 194.945 274.856C194.658 275.226 194.351 275.589 194.022 275.946L190.595 279.664H197.011Z" fill="black"/>
<circle cx="142.5" cy="95" r="95" fill="white"/>
<path d="M113.682 130V121.882H120.155L128.144 95.1956C128.684 93.4368 129.679 92.0324 131.13 90.9825C132.581 89.9326 134.181 89.4091 135.932 89.4118H148.068C149.821 89.4118 151.423 89.9367 152.874 90.9866C154.325 92.0365 155.319 93.4395 155.856 95.1956L163.845 121.882H170.318V130H113.682ZM137.955 81.2941V61H146.045V81.2941H137.955ZM162.025 91.3397L156.26 85.5559L170.622 71.2485L176.285 76.9309L162.025 91.3397ZM166.273 109.706V101.588H186.5V109.706H166.273ZM121.975 91.3397L107.715 76.9309L113.378 71.2485L127.74 85.5559L121.975 91.3397ZM97.5 109.706V101.588H117.727V109.706H97.5Z" fill="#FF0000"/>
</g>
<defs>
<filter id="filter0_d_38_2659" x="0.5" y="0" width="284" height="365" filterUnits="userSpaceOnUse" color-interpolation-filters="sRGB">
<feFlood flood-opacity="0" result="BackgroundImageFix"/>
<feColorMatrix in="SourceAlpha" type="matrix" values="0 0 0 0 0 0 0 0 0 0 0 0 0 0 0 0 0 0 127 0" result="hardAlpha"/>
<feOffset dy="4"/>
<feGaussianBlur stdDeviation="2"/>
<feComposite in2="hardAlpha" operator="out"/>
<feColorMatrix type="matrix" values="0 0 0 0 0 0 0 0 0 0 0 0 0 0 0 0 0 0 0.25 0"/>
<feBlend mode="normal" in2="BackgroundImageFix" result="effect1_dropShadow_38_2659"/>
<feBlend mode="normal" in="SourceGraphic" in2="effect1_dropShadow_38_2659" result="shape"/>
</filter>
</defs>
</svg>
