<svg width="285" height="365" viewBox="0 0 285 365" fill="none" xmlns="http://www.w3.org/2000/svg">
<g filter="url(#filter0_d_38_2667)">
<rect x="4.5" y="95" width="276" height="262" rx="8" fill="white"/>
<path d="M83.8145 212.755H86.4424C86.3896 213.616 86.1523 214.381 85.7305 215.049C85.3145 215.717 84.7314 216.238 83.9814 216.613C83.2373 216.988 82.3408 217.176 81.292 217.176C80.4717 217.176 79.7363 217.035 79.0859 216.754C78.4355 216.467 77.8789 216.057 77.416 215.523C76.959 214.99 76.6104 214.346 76.3701 213.59C76.1299 212.834 76.0098 211.987 76.0098 211.05V210.162C76.0098 209.225 76.1328 208.378 76.3789 207.622C76.6309 206.86 76.9883 206.213 77.4512 205.68C77.9199 205.146 78.4795 204.736 79.1299 204.449C79.7803 204.162 80.5068 204.019 81.3096 204.019C82.376 204.019 83.2754 204.212 84.0078 204.599C84.7461 204.985 85.3174 205.519 85.7217 206.198C86.1318 206.878 86.3779 207.651 86.46 208.519H83.8232C83.7939 208.003 83.6914 207.566 83.5156 207.209C83.3398 206.846 83.0732 206.573 82.7158 206.392C82.3643 206.204 81.8955 206.11 81.3096 206.11C80.8701 206.11 80.4863 206.192 80.1582 206.356C79.8301 206.521 79.5547 206.77 79.332 207.104C79.1094 207.438 78.9424 207.859 78.8311 208.369C78.7256 208.873 78.6729 209.465 78.6729 210.145V211.05C78.6729 211.712 78.7227 212.295 78.8223 212.799C78.9219 213.297 79.0742 213.719 79.2793 214.064C79.4902 214.404 79.7598 214.662 80.0879 214.838C80.4219 215.008 80.8232 215.093 81.292 215.093C81.8428 215.093 82.2969 215.005 82.6543 214.829C83.0117 214.653 83.2842 214.393 83.4717 214.047C83.665 213.701 83.7793 213.271 83.8145 212.755ZM93.6406 214.724V207.49H96.1719V217H93.79L93.6406 214.724ZM93.9219 212.772L94.6689 212.755C94.6689 213.388 94.5957 213.977 94.4492 214.521C94.3027 215.061 94.083 215.529 93.79 215.928C93.4971 216.32 93.1279 216.628 92.6826 216.851C92.2373 217.067 91.7129 217.176 91.1094 217.176C90.6465 217.176 90.2188 217.111 89.8262 216.982C89.4395 216.848 89.1055 216.64 88.8242 216.358C88.5488 216.071 88.332 215.705 88.1738 215.26C88.0215 214.809 87.9453 214.267 87.9453 213.634V207.49H90.4766V213.651C90.4766 213.933 90.5088 214.17 90.5732 214.363C90.6436 214.557 90.7402 214.715 90.8633 214.838C90.9863 214.961 91.1299 215.049 91.2939 215.102C91.4639 215.154 91.6514 215.181 91.8564 215.181C92.3779 215.181 92.7881 215.075 93.0869 214.864C93.3916 214.653 93.6055 214.366 93.7285 214.003C93.8574 213.634 93.9219 213.224 93.9219 212.772ZM102.764 207.49V209.283H97.2266V207.49H102.764ZM98.5977 205.144H101.129V214.135C101.129 214.41 101.164 214.621 101.234 214.768C101.311 214.914 101.422 215.017 101.568 215.075C101.715 215.128 101.899 215.154 102.122 215.154C102.28 215.154 102.421 215.148 102.544 215.137C102.673 215.119 102.781 215.102 102.869 215.084L102.878 216.947C102.661 217.018 102.427 217.073 102.175 217.114C101.923 217.155 101.645 217.176 101.34 217.176C100.783 217.176 100.297 217.085 99.8809 216.903C99.4707 216.716 99.1543 216.417 98.9316 216.007C98.709 215.597 98.5977 215.058 98.5977 214.39V205.144ZM108.863 207.49V209.283H103.326V207.49H108.863ZM104.697 205.144H107.229V214.135C107.229 214.41 107.264 214.621 107.334 214.768C107.41 214.914 107.521 215.017 107.668 215.075C107.814 215.128 107.999 215.154 108.222 215.154C108.38 215.154 108.521 215.148 108.644 215.137C108.772 215.119 108.881 215.102 108.969 215.084L108.978 216.947C108.761 217.018 108.526 217.073 108.274 217.114C108.022 217.155 107.744 217.176 107.439 217.176C106.883 217.176 106.396 217.085 105.98 216.903C105.57 216.716 105.254 216.417 105.031 216.007C104.809 215.597 104.697 215.058 104.697 214.39V205.144ZM112.977 207.49V217H110.437V207.49H112.977ZM110.278 205.012C110.278 204.643 110.407 204.338 110.665 204.098C110.923 203.857 111.269 203.737 111.702 203.737C112.13 203.737 112.473 203.857 112.73 204.098C112.994 204.338 113.126 204.643 113.126 205.012C113.126 205.381 112.994 205.686 112.73 205.926C112.473 206.166 112.13 206.286 111.702 206.286C111.269 206.286 110.923 206.166 110.665 205.926C110.407 205.686 110.278 205.381 110.278 205.012ZM117.547 209.521V217H115.016V207.49H117.389L117.547 209.521ZM117.178 211.911H116.492C116.492 211.208 116.583 210.575 116.765 210.013C116.946 209.444 117.201 208.961 117.529 208.562C117.857 208.158 118.247 207.851 118.698 207.64C119.155 207.423 119.665 207.314 120.228 207.314C120.673 207.314 121.08 207.379 121.449 207.508C121.818 207.637 122.135 207.842 122.398 208.123C122.668 208.404 122.873 208.776 123.014 209.239C123.16 209.702 123.233 210.268 123.233 210.936V217H120.685V210.927C120.685 210.505 120.626 210.177 120.509 209.942C120.392 209.708 120.219 209.544 119.99 209.45C119.768 209.351 119.492 209.301 119.164 209.301C118.824 209.301 118.528 209.368 118.276 209.503C118.03 209.638 117.825 209.825 117.661 210.065C117.503 210.3 117.383 210.575 117.301 210.892C117.219 211.208 117.178 211.548 117.178 211.911ZM131.179 207.49H133.473V216.684C133.473 217.551 133.279 218.286 132.893 218.89C132.512 219.499 131.979 219.959 131.293 220.27C130.607 220.586 129.811 220.744 128.902 220.744C128.504 220.744 128.082 220.691 127.637 220.586C127.197 220.48 126.775 220.316 126.371 220.094C125.973 219.871 125.639 219.59 125.369 219.25L126.485 217.756C126.778 218.096 127.118 218.359 127.505 218.547C127.892 218.74 128.319 218.837 128.788 218.837C129.245 218.837 129.632 218.752 129.948 218.582C130.265 218.418 130.508 218.175 130.678 217.853C130.848 217.536 130.933 217.152 130.933 216.701V209.688L131.179 207.49ZM124.78 212.359V212.175C124.78 211.448 124.868 210.789 125.044 210.197C125.226 209.6 125.48 209.087 125.809 208.659C126.143 208.231 126.547 207.9 127.021 207.666C127.496 207.432 128.032 207.314 128.63 207.314C129.263 207.314 129.793 207.432 130.221 207.666C130.648 207.9 131 208.234 131.275 208.668C131.551 209.096 131.765 209.603 131.917 210.188C132.075 210.769 132.198 211.404 132.286 212.096V212.5C132.198 213.162 132.066 213.777 131.891 214.346C131.715 214.914 131.483 215.412 131.196 215.84C130.909 216.262 130.552 216.59 130.124 216.824C129.702 217.059 129.198 217.176 128.612 217.176C128.026 217.176 127.496 217.056 127.021 216.815C126.553 216.575 126.151 216.238 125.817 215.805C125.483 215.371 125.226 214.861 125.044 214.275C124.868 213.689 124.78 213.051 124.78 212.359ZM127.312 212.175V212.359C127.312 212.752 127.35 213.118 127.426 213.458C127.502 213.798 127.619 214.1 127.777 214.363C127.941 214.621 128.144 214.823 128.384 214.97C128.63 215.11 128.92 215.181 129.254 215.181C129.717 215.181 130.095 215.084 130.388 214.891C130.681 214.691 130.9 214.419 131.047 214.073C131.193 213.728 131.278 213.329 131.302 212.878V211.727C131.29 211.357 131.24 211.026 131.152 210.733C131.064 210.435 130.941 210.18 130.783 209.969C130.625 209.758 130.42 209.594 130.168 209.477C129.916 209.359 129.617 209.301 129.271 209.301C128.938 209.301 128.647 209.377 128.401 209.529C128.161 209.676 127.959 209.878 127.795 210.136C127.637 210.394 127.517 210.698 127.435 211.05C127.353 211.396 127.312 211.771 127.312 212.175ZM139.52 212.342V212.157C139.52 211.46 139.619 210.818 139.818 210.232C140.018 209.641 140.308 209.128 140.688 208.694C141.069 208.261 141.538 207.924 142.095 207.684C142.651 207.438 143.29 207.314 144.011 207.314C144.731 207.314 145.373 207.438 145.936 207.684C146.498 207.924 146.97 208.261 147.351 208.694C147.737 209.128 148.03 209.641 148.229 210.232C148.429 210.818 148.528 211.46 148.528 212.157V212.342C148.528 213.033 148.429 213.675 148.229 214.267C148.03 214.853 147.737 215.365 147.351 215.805C146.97 216.238 146.501 216.575 145.944 216.815C145.388 217.056 144.749 217.176 144.028 217.176C143.308 217.176 142.666 217.056 142.104 216.815C141.547 216.575 141.075 216.238 140.688 215.805C140.308 215.365 140.018 214.853 139.818 214.267C139.619 213.675 139.52 213.033 139.52 212.342ZM142.051 212.157V212.342C142.051 212.74 142.086 213.112 142.156 213.458C142.227 213.804 142.338 214.108 142.49 214.372C142.648 214.63 142.854 214.832 143.105 214.979C143.357 215.125 143.665 215.198 144.028 215.198C144.38 215.198 144.682 215.125 144.934 214.979C145.186 214.832 145.388 214.63 145.54 214.372C145.692 214.108 145.804 213.804 145.874 213.458C145.95 213.112 145.988 212.74 145.988 212.342V212.157C145.988 211.771 145.95 211.407 145.874 211.067C145.804 210.722 145.689 210.417 145.531 210.153C145.379 209.884 145.177 209.673 144.925 209.521C144.673 209.368 144.368 209.292 144.011 209.292C143.653 209.292 143.349 209.368 143.097 209.521C142.851 209.673 142.648 209.884 142.49 210.153C142.338 210.417 142.227 210.722 142.156 211.067C142.086 211.407 142.051 211.771 142.051 212.157ZM153.31 217H150.761V206.646C150.761 205.926 150.901 205.319 151.183 204.827C151.47 204.329 151.871 203.954 152.387 203.702C152.908 203.444 153.526 203.315 154.241 203.315C154.476 203.315 154.701 203.333 154.918 203.368C155.135 203.397 155.346 203.436 155.551 203.482L155.524 205.39C155.413 205.36 155.296 205.34 155.173 205.328C155.05 205.316 154.906 205.311 154.742 205.311C154.438 205.311 154.177 205.363 153.96 205.469C153.749 205.568 153.588 205.718 153.477 205.917C153.365 206.116 153.31 206.359 153.31 206.646V217ZM155.208 207.49V209.283H149.346V207.49H155.208ZM161.176 204.203H165.948C166.927 204.203 167.768 204.35 168.471 204.643C169.18 204.936 169.725 205.369 170.105 205.943C170.486 206.518 170.677 207.224 170.677 208.062C170.677 208.747 170.56 209.336 170.325 209.828C170.097 210.314 169.771 210.722 169.35 211.05C168.934 211.372 168.444 211.63 167.882 211.823L167.047 212.263H162.898L162.881 210.206H165.966C166.429 210.206 166.812 210.124 167.117 209.96C167.422 209.796 167.65 209.567 167.803 209.274C167.961 208.981 168.04 208.642 168.04 208.255C168.04 207.845 167.964 207.49 167.812 207.191C167.659 206.893 167.428 206.664 167.117 206.506C166.807 206.348 166.417 206.269 165.948 206.269H163.812V217H161.176V204.203ZM168.33 217L165.412 211.296L168.198 211.278L171.151 216.877V217H168.33ZM172.145 212.342V212.157C172.145 211.46 172.244 210.818 172.443 210.232C172.643 209.641 172.933 209.128 173.313 208.694C173.694 208.261 174.163 207.924 174.72 207.684C175.276 207.438 175.915 207.314 176.636 207.314C177.356 207.314 177.998 207.438 178.561 207.684C179.123 207.924 179.595 208.261 179.976 208.694C180.362 209.128 180.655 209.641 180.854 210.232C181.054 210.818 181.153 211.46 181.153 212.157V212.342C181.153 213.033 181.054 213.675 180.854 214.267C180.655 214.853 180.362 215.365 179.976 215.805C179.595 216.238 179.126 216.575 178.569 216.815C178.013 217.056 177.374 217.176 176.653 217.176C175.933 217.176 175.291 217.056 174.729 216.815C174.172 216.575 173.7 216.238 173.313 215.805C172.933 215.365 172.643 214.853 172.443 214.267C172.244 213.675 172.145 213.033 172.145 212.342ZM174.676 212.157V212.342C174.676 212.74 174.711 213.112 174.781 213.458C174.852 213.804 174.963 214.108 175.115 214.372C175.273 214.63 175.479 214.832 175.73 214.979C175.982 215.125 176.29 215.198 176.653 215.198C177.005 215.198 177.307 215.125 177.559 214.979C177.811 214.832 178.013 214.63 178.165 214.372C178.317 214.108 178.429 213.804 178.499 213.458C178.575 213.112 178.613 212.74 178.613 212.342V212.157C178.613 211.771 178.575 211.407 178.499 211.067C178.429 210.722 178.314 210.417 178.156 210.153C178.004 209.884 177.802 209.673 177.55 209.521C177.298 209.368 176.993 209.292 176.636 209.292C176.278 209.292 175.974 209.368 175.722 209.521C175.476 209.673 175.273 209.884 175.115 210.153C174.963 210.417 174.852 210.722 174.781 211.067C174.711 211.407 174.676 211.771 174.676 212.157ZM187.842 214.855V210.619C187.842 210.314 187.792 210.054 187.692 209.837C187.593 209.614 187.438 209.441 187.227 209.318C187.021 209.195 186.755 209.134 186.427 209.134C186.146 209.134 185.902 209.184 185.697 209.283C185.492 209.377 185.334 209.515 185.223 209.696C185.111 209.872 185.056 210.08 185.056 210.32H182.524C182.524 209.916 182.618 209.532 182.806 209.169C182.993 208.806 183.266 208.486 183.623 208.211C183.98 207.93 184.405 207.71 184.897 207.552C185.396 207.394 185.952 207.314 186.567 207.314C187.306 207.314 187.962 207.438 188.536 207.684C189.11 207.93 189.562 208.299 189.89 208.791C190.224 209.283 190.391 209.898 190.391 210.637V214.706C190.391 215.228 190.423 215.655 190.487 215.989C190.552 216.317 190.646 216.604 190.769 216.851V217H188.211C188.088 216.742 187.994 216.42 187.93 216.033C187.871 215.641 187.842 215.248 187.842 214.855ZM188.176 211.208L188.193 212.641H186.778C186.444 212.641 186.154 212.679 185.908 212.755C185.662 212.831 185.46 212.939 185.302 213.08C185.144 213.215 185.026 213.373 184.95 213.555C184.88 213.736 184.845 213.936 184.845 214.152C184.845 214.369 184.895 214.565 184.994 214.741C185.094 214.911 185.237 215.046 185.425 215.146C185.612 215.239 185.832 215.286 186.084 215.286C186.465 215.286 186.796 215.21 187.077 215.058C187.358 214.905 187.575 214.718 187.728 214.495C187.886 214.272 187.968 214.062 187.974 213.862L188.642 214.935C188.548 215.175 188.419 215.424 188.255 215.682C188.097 215.939 187.895 216.183 187.648 216.411C187.402 216.634 187.106 216.818 186.761 216.965C186.415 217.105 186.005 217.176 185.53 217.176C184.927 217.176 184.379 217.056 183.887 216.815C183.4 216.569 183.014 216.232 182.727 215.805C182.445 215.371 182.305 214.879 182.305 214.328C182.305 213.83 182.398 213.388 182.586 213.001C182.773 212.614 183.049 212.289 183.412 212.025C183.781 211.756 184.241 211.554 184.792 211.419C185.343 211.278 185.981 211.208 186.708 211.208H188.176ZM197.958 214.926V203.5H200.507V217H198.213L197.958 214.926ZM191.946 212.359V212.175C191.946 211.448 192.028 210.789 192.192 210.197C192.356 209.6 192.597 209.087 192.913 208.659C193.229 208.231 193.619 207.9 194.082 207.666C194.545 207.432 195.072 207.314 195.664 207.314C196.221 207.314 196.707 207.432 197.123 207.666C197.545 207.9 197.902 208.234 198.195 208.668C198.494 209.096 198.734 209.603 198.916 210.188C199.098 210.769 199.229 211.404 199.312 212.096V212.5C199.229 213.162 199.098 213.777 198.916 214.346C198.734 214.914 198.494 215.412 198.195 215.84C197.902 216.262 197.545 216.59 197.123 216.824C196.701 217.059 196.209 217.176 195.646 217.176C195.055 217.176 194.527 217.056 194.064 216.815C193.607 216.575 193.221 216.238 192.904 215.805C192.594 215.371 192.356 214.861 192.192 214.275C192.028 213.689 191.946 213.051 191.946 212.359ZM194.478 212.175V212.359C194.478 212.752 194.507 213.118 194.565 213.458C194.63 213.798 194.732 214.1 194.873 214.363C195.02 214.621 195.207 214.823 195.436 214.97C195.67 215.11 195.954 215.181 196.288 215.181C196.722 215.181 197.079 215.084 197.36 214.891C197.642 214.691 197.855 214.419 198.002 214.073C198.154 213.728 198.242 213.329 198.266 212.878V211.727C198.248 211.357 198.195 211.026 198.107 210.733C198.025 210.435 197.902 210.18 197.738 209.969C197.58 209.758 197.381 209.594 197.141 209.477C196.906 209.359 196.628 209.301 196.306 209.301C195.978 209.301 195.696 209.377 195.462 209.529C195.228 209.676 195.037 209.878 194.891 210.136C194.75 210.394 194.645 210.698 194.574 211.05C194.51 211.396 194.478 211.771 194.478 212.175ZM207.626 214.372C207.626 214.19 207.573 214.026 207.468 213.88C207.362 213.733 207.166 213.599 206.879 213.476C206.598 213.347 206.19 213.229 205.657 213.124C205.177 213.019 204.729 212.887 204.312 212.729C203.902 212.564 203.545 212.368 203.24 212.14C202.941 211.911 202.707 211.642 202.537 211.331C202.367 211.015 202.282 210.654 202.282 210.25C202.282 209.852 202.367 209.477 202.537 209.125C202.713 208.773 202.962 208.463 203.284 208.193C203.612 207.918 204.011 207.704 204.479 207.552C204.954 207.394 205.487 207.314 206.079 207.314C206.905 207.314 207.614 207.446 208.206 207.71C208.804 207.974 209.261 208.337 209.577 208.8C209.899 209.257 210.061 209.778 210.061 210.364H207.529C207.529 210.118 207.477 209.898 207.371 209.705C207.271 209.506 207.113 209.351 206.896 209.239C206.686 209.122 206.41 209.063 206.07 209.063C205.789 209.063 205.546 209.113 205.341 209.213C205.136 209.307 204.978 209.436 204.866 209.6C204.761 209.758 204.708 209.934 204.708 210.127C204.708 210.273 204.737 210.405 204.796 210.522C204.86 210.634 204.963 210.736 205.104 210.83C205.244 210.924 205.426 211.012 205.648 211.094C205.877 211.17 206.158 211.24 206.492 211.305C207.178 211.445 207.79 211.63 208.329 211.858C208.868 212.081 209.296 212.386 209.612 212.772C209.929 213.153 210.087 213.654 210.087 214.275C210.087 214.697 209.993 215.084 209.806 215.436C209.618 215.787 209.349 216.095 208.997 216.358C208.646 216.616 208.224 216.818 207.731 216.965C207.245 217.105 206.697 217.176 206.088 217.176C205.203 217.176 204.453 217.018 203.838 216.701C203.229 216.385 202.766 215.983 202.449 215.497C202.139 215.005 201.983 214.501 201.983 213.985H204.383C204.395 214.331 204.482 214.609 204.646 214.82C204.816 215.031 205.03 215.184 205.288 215.277C205.552 215.371 205.836 215.418 206.141 215.418C206.469 215.418 206.741 215.374 206.958 215.286C207.175 215.192 207.339 215.069 207.45 214.917C207.567 214.759 207.626 214.577 207.626 214.372ZM98.9053 237.99V237.797C98.9053 236.561 99.0342 235.438 99.292 234.431C99.5557 233.423 99.9014 232.538 100.329 231.776C100.763 231.009 101.234 230.373 101.744 229.869C102.254 229.365 102.761 229.002 103.265 228.779L103.748 230.115C103.414 230.361 103.086 230.701 102.764 231.135C102.441 231.562 102.148 232.09 101.885 232.717C101.627 233.338 101.419 234.07 101.261 234.914C101.103 235.752 101.023 236.707 101.023 237.779V238.008C101.023 239.08 101.103 240.038 101.261 240.882C101.419 241.72 101.627 242.452 101.885 243.079C102.148 243.712 102.441 244.245 102.764 244.679C103.086 245.112 103.414 245.455 103.748 245.707L103.265 247.008C102.761 246.785 102.254 246.422 101.744 245.918C101.234 245.42 100.763 244.787 100.329 244.02C99.9014 243.258 99.5557 242.373 99.292 241.365C99.0342 240.352 98.9053 239.227 98.9053 237.99ZM113.469 240.943V243H107.026V240.943H113.469ZM107.879 230.203V243H105.242V230.203H107.879ZM120.359 232.392L116.879 243H114.075L118.83 230.203H120.614L120.359 232.392ZM123.251 243L119.762 232.392L119.48 230.203H121.282L126.063 243H123.251ZM123.093 238.236V240.302H116.334V238.236H123.093ZM133.912 239.651C133.912 239.423 133.877 239.218 133.807 239.036C133.742 238.849 133.619 238.679 133.438 238.526C133.256 238.368 133.001 238.213 132.673 238.061C132.345 237.908 131.92 237.75 131.398 237.586C130.818 237.398 130.268 237.188 129.746 236.953C129.23 236.719 128.773 236.446 128.375 236.136C127.982 235.819 127.672 235.453 127.443 235.037C127.221 234.621 127.109 234.138 127.109 233.587C127.109 233.054 127.227 232.57 127.461 232.137C127.695 231.697 128.023 231.322 128.445 231.012C128.867 230.695 129.365 230.452 129.939 230.282C130.52 230.112 131.155 230.027 131.847 230.027C132.79 230.027 133.613 230.197 134.316 230.537C135.02 230.877 135.564 231.343 135.951 231.935C136.344 232.526 136.54 233.203 136.54 233.965H133.921C133.921 233.59 133.842 233.262 133.684 232.98C133.531 232.693 133.297 232.468 132.98 232.304C132.67 232.14 132.277 232.058 131.803 232.058C131.346 232.058 130.965 232.128 130.66 232.269C130.355 232.403 130.127 232.588 129.975 232.822C129.822 233.051 129.746 233.309 129.746 233.596C129.746 233.812 129.799 234.009 129.904 234.185C130.016 234.36 130.18 234.524 130.396 234.677C130.613 234.829 130.88 234.973 131.196 235.107C131.513 235.242 131.879 235.374 132.295 235.503C132.992 235.714 133.604 235.951 134.132 236.215C134.665 236.479 135.11 236.774 135.468 237.103C135.825 237.431 136.095 237.803 136.276 238.219C136.458 238.635 136.549 239.106 136.549 239.634C136.549 240.19 136.44 240.688 136.224 241.128C136.007 241.567 135.693 241.939 135.283 242.244C134.873 242.549 134.384 242.78 133.815 242.938C133.247 243.097 132.611 243.176 131.908 243.176C131.275 243.176 130.651 243.094 130.036 242.93C129.421 242.76 128.861 242.505 128.357 242.165C127.859 241.825 127.461 241.392 127.162 240.864C126.863 240.337 126.714 239.713 126.714 238.992H129.359C129.359 239.391 129.421 239.728 129.544 240.003C129.667 240.278 129.84 240.501 130.062 240.671C130.291 240.841 130.561 240.964 130.871 241.04C131.188 241.116 131.533 241.154 131.908 241.154C132.365 241.154 132.74 241.09 133.033 240.961C133.332 240.832 133.552 240.653 133.692 240.425C133.839 240.196 133.912 239.938 133.912 239.651ZM139.546 230.203H141.778L145.065 239.599L148.353 230.203H150.585L145.962 243H144.169L139.546 230.203ZM138.342 230.203H140.565L140.97 239.361V243H138.342V230.203ZM149.565 230.203H151.798V243H149.161V239.361L149.565 230.203ZM156.913 230.203V243H154.285V230.203H156.913ZM159.383 230.203H164.155C165.134 230.203 165.975 230.35 166.678 230.643C167.387 230.936 167.932 231.369 168.312 231.943C168.693 232.518 168.884 233.224 168.884 234.062C168.884 234.747 168.767 235.336 168.532 235.828C168.304 236.314 167.979 236.722 167.557 237.05C167.141 237.372 166.651 237.63 166.089 237.823L165.254 238.263H161.105L161.088 236.206H164.173C164.636 236.206 165.02 236.124 165.324 235.96C165.629 235.796 165.857 235.567 166.01 235.274C166.168 234.981 166.247 234.642 166.247 234.255C166.247 233.845 166.171 233.49 166.019 233.191C165.866 232.893 165.635 232.664 165.324 232.506C165.014 232.348 164.624 232.269 164.155 232.269H162.02V243H159.383V230.203ZM166.537 243L163.619 237.296L166.405 237.278L169.358 242.877V243H166.537ZM176.117 232.392L172.637 243H169.833L174.588 230.203H176.372L176.117 232.392ZM179.009 243L175.52 232.392L175.238 230.203H177.04L181.821 243H179.009ZM178.851 238.236V240.302H172.092V238.236H178.851ZM187.2 237.797V237.99C187.2 239.186 187.065 240.287 186.796 241.295C186.526 242.297 186.169 243.185 185.724 243.958C185.284 244.737 184.801 245.385 184.273 245.9C183.752 246.416 183.23 246.785 182.709 247.008L182.217 245.707C182.551 245.461 182.876 245.121 183.192 244.688C183.515 244.254 183.808 243.721 184.071 243.088C184.335 242.461 184.543 241.726 184.695 240.882C184.854 240.038 184.933 239.08 184.933 238.008V237.779C184.933 236.707 184.854 235.749 184.695 234.905C184.537 234.062 184.323 233.326 184.054 232.699C183.79 232.066 183.497 231.536 183.175 231.108C182.858 230.675 182.539 230.335 182.217 230.089L182.709 228.779C183.23 229.002 183.752 229.374 184.273 229.896C184.801 230.411 185.284 231.056 185.724 231.829C186.169 232.603 186.526 233.493 186.796 234.501C187.065 235.503 187.2 236.602 187.2 237.797Z" fill="#0066CC"/>
<path d="M96.4092 273.582V275.533C96.4092 276.582 96.3154 277.467 96.1279 278.188C95.9404 278.908 95.6709 279.488 95.3193 279.928C94.9678 280.367 94.543 280.687 94.0449 280.886C93.5527 281.079 92.9961 281.176 92.375 281.176C91.8828 281.176 91.4287 281.114 91.0127 280.991C90.5967 280.868 90.2217 280.672 89.8877 280.402C89.5596 280.127 89.2783 279.77 89.0439 279.33C88.8096 278.891 88.6309 278.357 88.5078 277.73C88.3848 277.104 88.3232 276.371 88.3232 275.533V273.582C88.3232 272.533 88.417 271.654 88.6045 270.945C88.7979 270.236 89.0703 269.668 89.4219 269.24C89.7734 268.807 90.1953 268.496 90.6875 268.309C91.1855 268.121 91.7422 268.027 92.3574 268.027C92.8555 268.027 93.3125 268.089 93.7285 268.212C94.1504 268.329 94.5254 268.52 94.8535 268.783C95.1816 269.041 95.46 269.387 95.6885 269.82C95.9229 270.248 96.1016 270.772 96.2246 271.394C96.3477 272.015 96.4092 272.744 96.4092 273.582ZM94.7744 275.797V273.31C94.7744 272.735 94.7393 272.231 94.6689 271.798C94.6045 271.358 94.5078 270.983 94.3789 270.673C94.25 270.362 94.0859 270.11 93.8867 269.917C93.6934 269.724 93.4678 269.583 93.21 269.495C92.958 269.401 92.6738 269.354 92.3574 269.354C91.9707 269.354 91.6279 269.428 91.3291 269.574C91.0303 269.715 90.7783 269.94 90.5732 270.251C90.374 270.562 90.2217 270.969 90.1162 271.473C90.0107 271.977 89.958 272.589 89.958 273.31V275.797C89.958 276.371 89.9902 276.878 90.0547 277.317C90.125 277.757 90.2275 278.138 90.3623 278.46C90.4971 278.776 90.6611 279.037 90.8545 279.242C91.0479 279.447 91.2705 279.6 91.5225 279.699C91.7803 279.793 92.0645 279.84 92.375 279.84C92.7734 279.84 93.1221 279.764 93.4209 279.611C93.7197 279.459 93.9688 279.222 94.168 278.899C94.373 278.571 94.5254 278.152 94.625 277.643C94.7246 277.127 94.7744 276.512 94.7744 275.797ZM106.569 277.537C106.569 278.316 106.388 278.979 106.024 279.523C105.667 280.062 105.181 280.473 104.565 280.754C103.956 281.035 103.268 281.176 102.5 281.176C101.732 281.176 101.041 281.035 100.426 280.754C99.8105 280.473 99.3242 280.062 98.9668 279.523C98.6094 278.979 98.4307 278.316 98.4307 277.537C98.4307 277.027 98.5273 276.562 98.7207 276.14C98.9199 275.712 99.1982 275.34 99.5557 275.023C99.9189 274.707 100.347 274.464 100.839 274.294C101.337 274.118 101.885 274.03 102.482 274.03C103.268 274.03 103.968 274.183 104.583 274.487C105.198 274.786 105.682 275.199 106.033 275.727C106.391 276.254 106.569 276.857 106.569 277.537ZM104.935 277.502C104.935 277.027 104.832 276.608 104.627 276.245C104.422 275.876 104.135 275.589 103.766 275.384C103.396 275.179 102.969 275.076 102.482 275.076C101.984 275.076 101.554 275.179 101.19 275.384C100.833 275.589 100.555 275.876 100.355 276.245C100.156 276.608 100.057 277.027 100.057 277.502C100.057 277.994 100.153 278.416 100.347 278.768C100.546 279.113 100.827 279.38 101.19 279.567C101.56 279.749 101.996 279.84 102.5 279.84C103.004 279.84 103.438 279.749 103.801 279.567C104.164 279.38 104.442 279.113 104.636 278.768C104.835 278.416 104.935 277.994 104.935 277.502ZM106.271 271.534C106.271 272.155 106.106 272.715 105.778 273.213C105.45 273.711 105.002 274.104 104.434 274.391C103.865 274.678 103.221 274.821 102.5 274.821C101.768 274.821 101.114 274.678 100.54 274.391C99.9717 274.104 99.5264 273.711 99.2041 273.213C98.8818 272.715 98.7207 272.155 98.7207 271.534C98.7207 270.79 98.8818 270.157 99.2041 269.636C99.5322 269.114 99.9805 268.716 100.549 268.44C101.117 268.165 101.765 268.027 102.491 268.027C103.224 268.027 103.874 268.165 104.442 268.44C105.011 268.716 105.456 269.114 105.778 269.636C106.106 270.157 106.271 270.79 106.271 271.534ZM104.645 271.561C104.645 271.133 104.554 270.755 104.372 270.427C104.19 270.099 103.938 269.841 103.616 269.653C103.294 269.46 102.919 269.363 102.491 269.363C102.063 269.363 101.688 269.454 101.366 269.636C101.05 269.812 100.801 270.063 100.619 270.392C100.443 270.72 100.355 271.109 100.355 271.561C100.355 272 100.443 272.384 100.619 272.712C100.801 273.04 101.053 273.295 101.375 273.477C101.697 273.658 102.072 273.749 102.5 273.749C102.928 273.749 103.3 273.658 103.616 273.477C103.938 273.295 104.19 273.04 104.372 272.712C104.554 272.384 104.645 272 104.645 271.561ZM116.659 273.582V275.533C116.659 276.582 116.565 277.467 116.378 278.188C116.19 278.908 115.921 279.488 115.569 279.928C115.218 280.367 114.793 280.687 114.295 280.886C113.803 281.079 113.246 281.176 112.625 281.176C112.133 281.176 111.679 281.114 111.263 280.991C110.847 280.868 110.472 280.672 110.138 280.402C109.81 280.127 109.528 279.77 109.294 279.33C109.06 278.891 108.881 278.357 108.758 277.73C108.635 277.104 108.573 276.371 108.573 275.533V273.582C108.573 272.533 108.667 271.654 108.854 270.945C109.048 270.236 109.32 269.668 109.672 269.24C110.023 268.807 110.445 268.496 110.938 268.309C111.436 268.121 111.992 268.027 112.607 268.027C113.105 268.027 113.562 268.089 113.979 268.212C114.4 268.329 114.775 268.52 115.104 268.783C115.432 269.041 115.71 269.387 115.938 269.82C116.173 270.248 116.352 270.772 116.475 271.394C116.598 272.015 116.659 272.744 116.659 273.582ZM115.024 275.797V273.31C115.024 272.735 114.989 272.231 114.919 271.798C114.854 271.358 114.758 270.983 114.629 270.673C114.5 270.362 114.336 270.11 114.137 269.917C113.943 269.724 113.718 269.583 113.46 269.495C113.208 269.401 112.924 269.354 112.607 269.354C112.221 269.354 111.878 269.428 111.579 269.574C111.28 269.715 111.028 269.94 110.823 270.251C110.624 270.562 110.472 270.969 110.366 271.473C110.261 271.977 110.208 272.589 110.208 273.31V275.797C110.208 276.371 110.24 276.878 110.305 277.317C110.375 277.757 110.478 278.138 110.612 278.46C110.747 278.776 110.911 279.037 111.104 279.242C111.298 279.447 111.521 279.6 111.772 279.699C112.03 279.793 112.314 279.84 112.625 279.84C113.023 279.84 113.372 279.764 113.671 279.611C113.97 279.459 114.219 279.222 114.418 278.899C114.623 278.571 114.775 278.152 114.875 277.643C114.975 277.127 115.024 276.512 115.024 275.797ZM121.124 273.802H122.284C122.853 273.802 123.321 273.708 123.69 273.521C124.065 273.327 124.344 273.066 124.525 272.738C124.713 272.404 124.807 272.029 124.807 271.613C124.807 271.121 124.725 270.708 124.561 270.374C124.396 270.04 124.15 269.788 123.822 269.618C123.494 269.448 123.078 269.363 122.574 269.363C122.117 269.363 121.713 269.454 121.361 269.636C121.016 269.812 120.743 270.063 120.544 270.392C120.351 270.72 120.254 271.106 120.254 271.552H118.628C118.628 270.901 118.792 270.31 119.12 269.776C119.448 269.243 119.908 268.818 120.5 268.502C121.098 268.186 121.789 268.027 122.574 268.027C123.348 268.027 124.024 268.165 124.604 268.44C125.185 268.71 125.636 269.114 125.958 269.653C126.28 270.187 126.441 270.852 126.441 271.648C126.441 271.971 126.365 272.316 126.213 272.686C126.066 273.049 125.835 273.389 125.519 273.705C125.208 274.021 124.804 274.282 124.306 274.487C123.808 274.687 123.21 274.786 122.513 274.786H121.124V273.802ZM121.124 275.138V274.162H122.513C123.327 274.162 124.001 274.259 124.534 274.452C125.067 274.646 125.486 274.903 125.791 275.226C126.102 275.548 126.318 275.902 126.441 276.289C126.57 276.67 126.635 277.051 126.635 277.432C126.635 278.029 126.532 278.56 126.327 279.022C126.128 279.485 125.844 279.878 125.475 280.2C125.111 280.522 124.684 280.766 124.191 280.93C123.699 281.094 123.163 281.176 122.583 281.176C122.026 281.176 121.502 281.097 121.01 280.938C120.523 280.78 120.093 280.552 119.718 280.253C119.343 279.948 119.05 279.576 118.839 279.137C118.628 278.691 118.522 278.185 118.522 277.616H120.148C120.148 278.062 120.245 278.451 120.438 278.785C120.638 279.119 120.919 279.38 121.282 279.567C121.651 279.749 122.085 279.84 122.583 279.84C123.081 279.84 123.509 279.755 123.866 279.585C124.229 279.409 124.508 279.146 124.701 278.794C124.9 278.442 125 278 125 277.467C125 276.934 124.889 276.497 124.666 276.157C124.443 275.812 124.127 275.557 123.717 275.393C123.312 275.223 122.835 275.138 122.284 275.138H121.124ZM131.249 273.802H132.409C132.978 273.802 133.446 273.708 133.815 273.521C134.19 273.327 134.469 273.066 134.65 272.738C134.838 272.404 134.932 272.029 134.932 271.613C134.932 271.121 134.85 270.708 134.686 270.374C134.521 270.04 134.275 269.788 133.947 269.618C133.619 269.448 133.203 269.363 132.699 269.363C132.242 269.363 131.838 269.454 131.486 269.636C131.141 269.812 130.868 270.063 130.669 270.392C130.476 270.72 130.379 271.106 130.379 271.552H128.753C128.753 270.901 128.917 270.31 129.245 269.776C129.573 269.243 130.033 268.818 130.625 268.502C131.223 268.186 131.914 268.027 132.699 268.027C133.473 268.027 134.149 268.165 134.729 268.44C135.31 268.71 135.761 269.114 136.083 269.653C136.405 270.187 136.566 270.852 136.566 271.648C136.566 271.971 136.49 272.316 136.338 272.686C136.191 273.049 135.96 273.389 135.644 273.705C135.333 274.021 134.929 274.282 134.431 274.487C133.933 274.687 133.335 274.786 132.638 274.786H131.249V273.802ZM131.249 275.138V274.162H132.638C133.452 274.162 134.126 274.259 134.659 274.452C135.192 274.646 135.611 274.903 135.916 275.226C136.227 275.548 136.443 275.902 136.566 276.289C136.695 276.67 136.76 277.051 136.76 277.432C136.76 278.029 136.657 278.56 136.452 279.022C136.253 279.485 135.969 279.878 135.6 280.2C135.236 280.522 134.809 280.766 134.316 280.93C133.824 281.094 133.288 281.176 132.708 281.176C132.151 281.176 131.627 281.097 131.135 280.938C130.648 280.78 130.218 280.552 129.843 280.253C129.468 279.948 129.175 279.576 128.964 279.137C128.753 278.691 128.647 278.185 128.647 277.616H130.273C130.273 278.062 130.37 278.451 130.563 278.785C130.763 279.119 131.044 279.38 131.407 279.567C131.776 279.749 132.21 279.84 132.708 279.84C133.206 279.84 133.634 279.755 133.991 279.585C134.354 279.409 134.633 279.146 134.826 278.794C135.025 278.442 135.125 278 135.125 277.467C135.125 276.934 135.014 276.497 134.791 276.157C134.568 275.812 134.252 275.557 133.842 275.393C133.438 275.223 132.96 275.138 132.409 275.138H131.249ZM147.034 273.582V275.533C147.034 276.582 146.94 277.467 146.753 278.188C146.565 278.908 146.296 279.488 145.944 279.928C145.593 280.367 145.168 280.687 144.67 280.886C144.178 281.079 143.621 281.176 143 281.176C142.508 281.176 142.054 281.114 141.638 280.991C141.222 280.868 140.847 280.672 140.513 280.402C140.185 280.127 139.903 279.77 139.669 279.33C139.435 278.891 139.256 278.357 139.133 277.73C139.01 277.104 138.948 276.371 138.948 275.533V273.582C138.948 272.533 139.042 271.654 139.229 270.945C139.423 270.236 139.695 269.668 140.047 269.24C140.398 268.807 140.82 268.496 141.312 268.309C141.811 268.121 142.367 268.027 142.982 268.027C143.48 268.027 143.938 268.089 144.354 268.212C144.775 268.329 145.15 268.52 145.479 268.783C145.807 269.041 146.085 269.387 146.313 269.82C146.548 270.248 146.727 270.772 146.85 271.394C146.973 272.015 147.034 272.744 147.034 273.582ZM145.399 275.797V273.31C145.399 272.735 145.364 272.231 145.294 271.798C145.229 271.358 145.133 270.983 145.004 270.673C144.875 270.362 144.711 270.11 144.512 269.917C144.318 269.724 144.093 269.583 143.835 269.495C143.583 269.401 143.299 269.354 142.982 269.354C142.596 269.354 142.253 269.428 141.954 269.574C141.655 269.715 141.403 269.94 141.198 270.251C140.999 270.562 140.847 270.969 140.741 271.473C140.636 271.977 140.583 272.589 140.583 273.31V275.797C140.583 276.371 140.615 276.878 140.68 277.317C140.75 277.757 140.853 278.138 140.987 278.46C141.122 278.776 141.286 279.037 141.479 279.242C141.673 279.447 141.896 279.6 142.147 279.699C142.405 279.793 142.689 279.84 143 279.84C143.398 279.84 143.747 279.764 144.046 279.611C144.345 279.459 144.594 279.222 144.793 278.899C144.998 278.571 145.15 278.152 145.25 277.643C145.35 277.127 145.399 276.512 145.399 275.797ZM155.366 268.186H155.507V269.565H155.366C154.505 269.565 153.784 269.706 153.204 269.987C152.624 270.263 152.164 270.635 151.824 271.104C151.484 271.566 151.238 272.088 151.086 272.668C150.939 273.248 150.866 273.837 150.866 274.435V276.315C150.866 276.884 150.934 277.388 151.068 277.827C151.203 278.261 151.388 278.627 151.622 278.926C151.856 279.225 152.12 279.45 152.413 279.603C152.712 279.755 153.022 279.831 153.345 279.831C153.72 279.831 154.054 279.761 154.347 279.62C154.64 279.474 154.886 279.271 155.085 279.014C155.29 278.75 155.445 278.439 155.551 278.082C155.656 277.725 155.709 277.332 155.709 276.904C155.709 276.523 155.662 276.157 155.568 275.806C155.475 275.448 155.331 275.132 155.138 274.856C154.944 274.575 154.701 274.355 154.408 274.197C154.121 274.033 153.778 273.951 153.38 273.951C152.929 273.951 152.507 274.062 152.114 274.285C151.728 274.502 151.408 274.789 151.156 275.146C150.91 275.498 150.77 275.882 150.734 276.298L149.873 276.289C149.955 275.633 150.107 275.073 150.33 274.61C150.559 274.142 150.84 273.761 151.174 273.468C151.514 273.169 151.892 272.952 152.308 272.817C152.729 272.677 153.175 272.606 153.644 272.606C154.282 272.606 154.833 272.727 155.296 272.967C155.759 273.207 156.14 273.529 156.438 273.934C156.737 274.332 156.957 274.783 157.098 275.287C157.244 275.785 157.317 276.298 157.317 276.825C157.317 277.429 157.232 277.994 157.062 278.521C156.893 279.049 156.638 279.512 156.298 279.91C155.964 280.309 155.551 280.619 155.059 280.842C154.566 281.064 153.995 281.176 153.345 281.176C152.653 281.176 152.05 281.035 151.534 280.754C151.019 280.467 150.591 280.086 150.251 279.611C149.911 279.137 149.656 278.609 149.486 278.029C149.316 277.449 149.231 276.86 149.231 276.263V275.498C149.231 274.596 149.322 273.711 149.504 272.844C149.686 271.977 149.999 271.191 150.444 270.488C150.896 269.785 151.52 269.226 152.316 268.81C153.113 268.394 154.13 268.186 155.366 268.186ZM167.284 273.582V275.533C167.284 276.582 167.19 277.467 167.003 278.188C166.815 278.908 166.546 279.488 166.194 279.928C165.843 280.367 165.418 280.687 164.92 280.886C164.428 281.079 163.871 281.176 163.25 281.176C162.758 281.176 162.304 281.114 161.888 280.991C161.472 280.868 161.097 280.672 160.763 280.402C160.435 280.127 160.153 279.77 159.919 279.33C159.685 278.891 159.506 278.357 159.383 277.73C159.26 277.104 159.198 276.371 159.198 275.533V273.582C159.198 272.533 159.292 271.654 159.479 270.945C159.673 270.236 159.945 269.668 160.297 269.24C160.648 268.807 161.07 268.496 161.562 268.309C162.061 268.121 162.617 268.027 163.232 268.027C163.73 268.027 164.188 268.089 164.604 268.212C165.025 268.329 165.4 268.52 165.729 268.783C166.057 269.041 166.335 269.387 166.563 269.82C166.798 270.248 166.977 270.772 167.1 271.394C167.223 272.015 167.284 272.744 167.284 273.582ZM165.649 275.797V273.31C165.649 272.735 165.614 272.231 165.544 271.798C165.479 271.358 165.383 270.983 165.254 270.673C165.125 270.362 164.961 270.11 164.762 269.917C164.568 269.724 164.343 269.583 164.085 269.495C163.833 269.401 163.549 269.354 163.232 269.354C162.846 269.354 162.503 269.428 162.204 269.574C161.905 269.715 161.653 269.94 161.448 270.251C161.249 270.562 161.097 270.969 160.991 271.473C160.886 271.977 160.833 272.589 160.833 273.31V275.797C160.833 276.371 160.865 276.878 160.93 277.317C161 277.757 161.103 278.138 161.237 278.46C161.372 278.776 161.536 279.037 161.729 279.242C161.923 279.447 162.146 279.6 162.397 279.699C162.655 279.793 162.939 279.84 163.25 279.84C163.648 279.84 163.997 279.764 164.296 279.611C164.595 279.459 164.844 279.222 165.043 278.899C165.248 278.571 165.4 278.152 165.5 277.643C165.6 277.127 165.649 276.512 165.649 275.797ZM178.024 276.693V278.029H168.778V277.071L174.509 268.203H175.836L174.412 270.77L170.624 276.693H178.024ZM176.24 268.203V281H174.614V268.203H176.24ZM181.558 274.909L180.257 274.575L180.898 268.203H187.464V269.706H182.278L181.892 273.187C182.126 273.052 182.422 272.926 182.779 272.809C183.143 272.691 183.559 272.633 184.027 272.633C184.619 272.633 185.149 272.735 185.618 272.94C186.087 273.14 186.485 273.427 186.813 273.802C187.147 274.177 187.402 274.628 187.578 275.155C187.754 275.683 187.842 276.271 187.842 276.922C187.842 277.537 187.757 278.103 187.587 278.618C187.423 279.134 187.174 279.585 186.84 279.972C186.506 280.353 186.084 280.648 185.574 280.859C185.07 281.07 184.476 281.176 183.79 281.176C183.274 281.176 182.785 281.105 182.322 280.965C181.865 280.818 181.455 280.599 181.092 280.306C180.734 280.007 180.441 279.638 180.213 279.198C179.99 278.753 179.85 278.231 179.791 277.634H181.338C181.408 278.114 181.549 278.519 181.76 278.847C181.971 279.175 182.246 279.424 182.586 279.594C182.932 279.758 183.333 279.84 183.79 279.84C184.177 279.84 184.52 279.772 184.818 279.638C185.117 279.503 185.369 279.31 185.574 279.058C185.779 278.806 185.935 278.501 186.04 278.144C186.151 277.786 186.207 277.385 186.207 276.939C186.207 276.535 186.151 276.16 186.04 275.814C185.929 275.469 185.762 275.167 185.539 274.909C185.322 274.651 185.056 274.452 184.739 274.312C184.423 274.165 184.06 274.092 183.649 274.092C183.104 274.092 182.691 274.165 182.41 274.312C182.135 274.458 181.851 274.657 181.558 274.909ZM198.011 279.664V281H189.635V279.831L193.827 275.164C194.343 274.59 194.741 274.104 195.022 273.705C195.31 273.301 195.509 272.94 195.62 272.624C195.737 272.302 195.796 271.974 195.796 271.64C195.796 271.218 195.708 270.837 195.532 270.497C195.362 270.151 195.11 269.876 194.776 269.671C194.442 269.466 194.038 269.363 193.563 269.363C192.995 269.363 192.521 269.475 192.14 269.697C191.765 269.914 191.483 270.219 191.296 270.611C191.108 271.004 191.015 271.455 191.015 271.965H189.389C189.389 271.244 189.547 270.585 189.863 269.987C190.18 269.39 190.648 268.915 191.27 268.563C191.891 268.206 192.655 268.027 193.563 268.027C194.372 268.027 195.063 268.171 195.638 268.458C196.212 268.739 196.651 269.138 196.956 269.653C197.267 270.163 197.422 270.761 197.422 271.446C197.422 271.821 197.357 272.202 197.229 272.589C197.105 272.97 196.933 273.351 196.71 273.731C196.493 274.112 196.238 274.487 195.945 274.856C195.658 275.226 195.351 275.589 195.022 275.946L191.595 279.664H198.011Z" fill="black"/>
<circle cx="142.5" cy="95" r="95" fill="white"/>
<path d="M114.682 130V121.882H121.155L129.144 95.1956C129.684 93.4368 130.679 92.0324 132.13 90.9825C133.581 89.9326 135.181 89.4091 136.932 89.4118H149.068C150.821 89.4118 152.423 89.9367 153.874 90.9866C155.325 92.0365 156.319 93.4395 156.856 95.1956L164.845 121.882H171.318V130H114.682ZM138.955 81.2941V61H147.045V81.2941H138.955ZM163.025 91.3397L157.26 85.5559L171.622 71.2485L177.285 76.9309L163.025 91.3397ZM167.273 109.706V101.588H187.5V109.706H167.273ZM122.975 91.3397L108.715 76.9309L114.378 71.2485L128.74 85.5559L122.975 91.3397ZM98.5 109.706V101.588H118.727V109.706H98.5Z" fill="#FF0000"/>
</g>
<defs>
<filter id="filter0_d_38_2667" x="0.5" y="0" width="284" height="365" filterUnits="userSpaceOnUse" color-interpolation-filters="sRGB">
<feFlood flood-opacity="0" result="BackgroundImageFix"/>
<feColorMatrix in="SourceAlpha" type="matrix" values="0 0 0 0 0 0 0 0 0 0 0 0 0 0 0 0 0 0 127 0" result="hardAlpha"/>
<feOffset dy="4"/>
<feGaussianBlur stdDeviation="2"/>
<feComposite in2="hardAlpha" operator="out"/>
<feColorMatrix type="matrix" values="0 0 0 0 0 0 0 0 0 0 0 0 0 0 0 0 0 0 0.25 0"/>
<feBlend mode="normal" in2="BackgroundImageFix" result="effect1_dropShadow_38_2667"/>
<feBlend mode="normal" in="SourceGraphic" in2="effect1_dropShadow_38_2667" result="shape"/>
</filter>
</defs>
</svg>
