<svg width="276" height="357" viewBox="0 0 276 357" fill="none" xmlns="http://www.w3.org/2000/svg">
<rect y="95" width="276" height="262" rx="8" fill="white"/>
<path d="M115.024 204.203V217H112.388L107.246 208.422V217H104.609V204.203H107.246L112.396 212.79V204.203H115.024ZM122.68 206.392L119.199 217H116.396L121.15 204.203H122.935L122.68 206.392ZM125.571 217L122.082 206.392L121.801 204.203H123.603L128.384 217H125.571ZM125.413 212.236V214.302H118.654V212.236H125.413ZM132.207 204.203V217H129.57V204.203H132.207ZM137.305 209.67V211.727H131.486V209.67H137.305ZM137.92 204.203V206.269H131.486V204.203H137.92ZM143.378 217H140.592L140.609 214.943H143.378C144.069 214.943 144.652 214.788 145.127 214.478C145.602 214.161 145.959 213.701 146.199 213.098C146.445 212.494 146.568 211.765 146.568 210.909V210.285C146.568 209.629 146.498 209.052 146.357 208.554C146.223 208.056 146.021 207.637 145.751 207.297C145.481 206.957 145.15 206.702 144.758 206.532C144.365 206.356 143.914 206.269 143.404 206.269H140.539V204.203H143.404C144.26 204.203 145.042 204.35 145.751 204.643C146.466 204.93 147.084 205.343 147.605 205.882C148.127 206.421 148.528 207.065 148.81 207.815C149.097 208.56 149.24 209.389 149.24 210.303V210.909C149.24 211.817 149.097 212.646 148.81 213.396C148.528 214.146 148.127 214.791 147.605 215.33C147.09 215.863 146.472 216.276 145.751 216.569C145.036 216.856 144.245 217 143.378 217ZM142.086 204.203V217H139.449V204.203H142.086ZM156.166 206.392L152.686 217H149.882L154.637 204.203H156.421L156.166 206.392ZM159.058 217L155.568 206.392L155.287 204.203H157.089L161.87 217H159.058ZM158.899 212.236V214.302H152.141V212.236H158.899ZM170.316 212.755H172.944C172.892 213.616 172.654 214.381 172.232 215.049C171.816 215.717 171.233 216.238 170.483 216.613C169.739 216.988 168.843 217.176 167.794 217.176C166.974 217.176 166.238 217.035 165.588 216.754C164.938 216.467 164.381 216.057 163.918 215.523C163.461 214.99 163.112 214.346 162.872 213.59C162.632 212.834 162.512 211.987 162.512 211.05V210.162C162.512 209.225 162.635 208.378 162.881 207.622C163.133 206.86 163.49 206.213 163.953 205.68C164.422 205.146 164.981 204.736 165.632 204.449C166.282 204.162 167.009 204.019 167.812 204.019C168.878 204.019 169.777 204.212 170.51 204.599C171.248 204.985 171.819 205.519 172.224 206.198C172.634 206.878 172.88 207.651 172.962 208.519H170.325C170.296 208.003 170.193 207.566 170.018 207.209C169.842 206.846 169.575 206.573 169.218 206.392C168.866 206.204 168.397 206.11 167.812 206.11C167.372 206.11 166.988 206.192 166.66 206.356C166.332 206.521 166.057 206.77 165.834 207.104C165.611 207.438 165.444 207.859 165.333 208.369C165.228 208.873 165.175 209.465 165.175 210.145V211.05C165.175 211.712 165.225 212.295 165.324 212.799C165.424 213.297 165.576 213.719 165.781 214.064C165.992 214.404 166.262 214.662 166.59 214.838C166.924 215.008 167.325 215.093 167.794 215.093C168.345 215.093 168.799 215.005 169.156 214.829C169.514 214.653 169.786 214.393 169.974 214.047C170.167 213.701 170.281 213.271 170.316 212.755Z" fill="#0066CC"/>
<path d="M52.4639 247.582V249.533C52.4639 250.582 52.3701 251.467 52.1826 252.188C51.9951 252.908 51.7256 253.488 51.374 253.928C51.0225 254.367 50.5977 254.687 50.0996 254.886C49.6074 255.079 49.0508 255.176 48.4297 255.176C47.9375 255.176 47.4834 255.114 47.0674 254.991C46.6514 254.868 46.2764 254.672 45.9424 254.402C45.6143 254.127 45.333 253.77 45.0986 253.33C44.8643 252.891 44.6855 252.357 44.5625 251.73C44.4395 251.104 44.3779 250.371 44.3779 249.533V247.582C44.3779 246.533 44.4717 245.654 44.6592 244.945C44.8525 244.236 45.125 243.668 45.4766 243.24C45.8281 242.807 46.25 242.496 46.7422 242.309C47.2402 242.121 47.7969 242.027 48.4121 242.027C48.9102 242.027 49.3672 242.089 49.7832 242.212C50.2051 242.329 50.5801 242.52 50.9082 242.783C51.2363 243.041 51.5146 243.387 51.7432 243.82C51.9775 244.248 52.1562 244.772 52.2793 245.394C52.4023 246.015 52.4639 246.744 52.4639 247.582ZM50.8291 249.797V247.31C50.8291 246.735 50.7939 246.231 50.7236 245.798C50.6592 245.358 50.5625 244.983 50.4336 244.673C50.3047 244.362 50.1406 244.11 49.9414 243.917C49.748 243.724 49.5225 243.583 49.2646 243.495C49.0127 243.401 48.7285 243.354 48.4121 243.354C48.0254 243.354 47.6826 243.428 47.3838 243.574C47.085 243.715 46.833 243.94 46.6279 244.251C46.4287 244.562 46.2764 244.969 46.1709 245.473C46.0654 245.977 46.0127 246.589 46.0127 247.31V249.797C46.0127 250.371 46.0449 250.878 46.1094 251.317C46.1797 251.757 46.2822 252.138 46.417 252.46C46.5518 252.776 46.7158 253.037 46.9092 253.242C47.1025 253.447 47.3252 253.6 47.5771 253.699C47.835 253.793 48.1191 253.84 48.4297 253.84C48.8281 253.84 49.1768 253.764 49.4756 253.611C49.7744 253.459 50.0234 253.222 50.2227 252.899C50.4277 252.571 50.5801 252.152 50.6797 251.643C50.7793 251.127 50.8291 250.512 50.8291 249.797ZM59.8994 242.133V255H58.2734V244.163L54.9951 245.358V243.891L59.6445 242.133H59.8994ZM73.3291 250.693V252.029H64.083V251.071L69.8135 242.203H71.1406L69.7168 244.77L65.9287 250.693H73.3291ZM71.5449 242.203V255H69.9189V242.203H71.5449ZM76.8623 248.909L75.5615 248.575L76.2031 242.203H82.7686V243.706H77.583L77.1963 247.187C77.4307 247.052 77.7266 246.926 78.084 246.809C78.4473 246.691 78.8633 246.633 79.332 246.633C79.9238 246.633 80.4541 246.735 80.9229 246.94C81.3916 247.14 81.79 247.427 82.1182 247.802C82.4521 248.177 82.707 248.628 82.8828 249.155C83.0586 249.683 83.1465 250.271 83.1465 250.922C83.1465 251.537 83.0615 252.103 82.8916 252.618C82.7275 253.134 82.4785 253.585 82.1445 253.972C81.8105 254.353 81.3887 254.648 80.8789 254.859C80.375 255.07 79.7803 255.176 79.0947 255.176C78.5791 255.176 78.0898 255.105 77.627 254.965C77.1699 254.818 76.7598 254.599 76.3965 254.306C76.0391 254.007 75.7461 253.638 75.5176 253.198C75.2949 252.753 75.1543 252.231 75.0957 251.634H76.6426C76.7129 252.114 76.8535 252.519 77.0645 252.847C77.2754 253.175 77.5508 253.424 77.8906 253.594C78.2363 253.758 78.6377 253.84 79.0947 253.84C79.4814 253.84 79.8242 253.772 80.123 253.638C80.4219 253.503 80.6738 253.31 80.8789 253.058C81.084 252.806 81.2393 252.501 81.3447 252.144C81.4561 251.786 81.5117 251.385 81.5117 250.939C81.5117 250.535 81.4561 250.16 81.3447 249.814C81.2334 249.469 81.0664 249.167 80.8438 248.909C80.627 248.651 80.3604 248.452 80.0439 248.312C79.7275 248.165 79.3643 248.092 78.9541 248.092C78.4092 248.092 77.9961 248.165 77.7148 248.312C77.4395 248.458 77.1553 248.657 76.8623 248.909ZM93.3154 253.664V255H84.9395V253.831L89.1318 249.164C89.6475 248.59 90.0459 248.104 90.3271 247.705C90.6143 247.301 90.8135 246.94 90.9248 246.624C91.042 246.302 91.1006 245.974 91.1006 245.64C91.1006 245.218 91.0127 244.837 90.8369 244.497C90.667 244.151 90.415 243.876 90.0811 243.671C89.7471 243.466 89.3428 243.363 88.8682 243.363C88.2998 243.363 87.8252 243.475 87.4443 243.697C87.0693 243.914 86.7881 244.219 86.6006 244.611C86.4131 245.004 86.3193 245.455 86.3193 245.965H84.6934C84.6934 245.244 84.8516 244.585 85.168 243.987C85.4844 243.39 85.9531 242.915 86.5742 242.563C87.1953 242.206 87.96 242.027 88.8682 242.027C89.6768 242.027 90.3682 242.171 90.9424 242.458C91.5166 242.739 91.9561 243.138 92.2607 243.653C92.5713 244.163 92.7266 244.761 92.7266 245.446C92.7266 245.821 92.6621 246.202 92.5332 246.589C92.4102 246.97 92.2373 247.351 92.0146 247.731C91.7979 248.112 91.543 248.487 91.25 248.856C90.9629 249.226 90.6553 249.589 90.3271 249.946L86.8994 253.664H93.3154ZM103.124 251.537C103.124 252.316 102.942 252.979 102.579 253.523C102.222 254.062 101.735 254.473 101.12 254.754C100.511 255.035 99.8223 255.176 99.0547 255.176C98.2871 255.176 97.5957 255.035 96.9805 254.754C96.3652 254.473 95.8789 254.062 95.5215 253.523C95.1641 252.979 94.9854 252.316 94.9854 251.537C94.9854 251.027 95.082 250.562 95.2754 250.14C95.4746 249.712 95.7529 249.34 96.1104 249.023C96.4736 248.707 96.9014 248.464 97.3936 248.294C97.8916 248.118 98.4395 248.03 99.0371 248.03C99.8223 248.03 100.522 248.183 101.138 248.487C101.753 248.786 102.236 249.199 102.588 249.727C102.945 250.254 103.124 250.857 103.124 251.537ZM101.489 251.502C101.489 251.027 101.387 250.608 101.182 250.245C100.977 249.876 100.689 249.589 100.32 249.384C99.9512 249.179 99.5234 249.076 99.0371 249.076C98.5391 249.076 98.1084 249.179 97.7451 249.384C97.3877 249.589 97.1094 249.876 96.9102 250.245C96.7109 250.608 96.6113 251.027 96.6113 251.502C96.6113 251.994 96.708 252.416 96.9014 252.768C97.1006 253.113 97.3818 253.38 97.7451 253.567C98.1143 253.749 98.5508 253.84 99.0547 253.84C99.5586 253.84 99.9922 253.749 100.355 253.567C100.719 253.38 100.997 253.113 101.19 252.768C101.39 252.416 101.489 251.994 101.489 251.502ZM102.825 245.534C102.825 246.155 102.661 246.715 102.333 247.213C102.005 247.711 101.557 248.104 100.988 248.391C100.42 248.678 99.7754 248.821 99.0547 248.821C98.3223 248.821 97.6689 248.678 97.0947 248.391C96.5264 248.104 96.0811 247.711 95.7588 247.213C95.4365 246.715 95.2754 246.155 95.2754 245.534C95.2754 244.79 95.4365 244.157 95.7588 243.636C96.0869 243.114 96.5352 242.716 97.1035 242.44C97.6719 242.165 98.3193 242.027 99.0459 242.027C99.7783 242.027 100.429 242.165 100.997 242.44C101.565 242.716 102.011 243.114 102.333 243.636C102.661 244.157 102.825 244.79 102.825 245.534ZM101.199 245.561C101.199 245.133 101.108 244.755 100.927 244.427C100.745 244.099 100.493 243.841 100.171 243.653C99.8486 243.46 99.4736 243.363 99.0459 243.363C98.6182 243.363 98.2432 243.454 97.9209 243.636C97.6045 243.812 97.3555 244.063 97.1738 244.392C96.998 244.72 96.9102 245.109 96.9102 245.561C96.9102 246 96.998 246.384 97.1738 246.712C97.3555 247.04 97.6074 247.295 97.9297 247.477C98.252 247.658 98.627 247.749 99.0547 247.749C99.4824 247.749 99.8545 247.658 100.171 247.477C100.493 247.295 100.745 247.04 100.927 246.712C101.108 246.384 101.199 246 101.199 245.561ZM113.214 247.582V249.533C113.214 250.582 113.12 251.467 112.933 252.188C112.745 252.908 112.476 253.488 112.124 253.928C111.772 254.367 111.348 254.687 110.85 254.886C110.357 255.079 109.801 255.176 109.18 255.176C108.688 255.176 108.233 255.114 107.817 254.991C107.401 254.868 107.026 254.672 106.692 254.402C106.364 254.127 106.083 253.77 105.849 253.33C105.614 252.891 105.436 252.357 105.312 251.73C105.189 251.104 105.128 250.371 105.128 249.533V247.582C105.128 246.533 105.222 245.654 105.409 244.945C105.603 244.236 105.875 243.668 106.227 243.24C106.578 242.807 107 242.496 107.492 242.309C107.99 242.121 108.547 242.027 109.162 242.027C109.66 242.027 110.117 242.089 110.533 242.212C110.955 242.329 111.33 242.52 111.658 242.783C111.986 243.041 112.265 243.387 112.493 243.82C112.728 244.248 112.906 244.772 113.029 245.394C113.152 246.015 113.214 246.744 113.214 247.582ZM111.579 249.797V247.31C111.579 246.735 111.544 246.231 111.474 245.798C111.409 245.358 111.312 244.983 111.184 244.673C111.055 244.362 110.891 244.11 110.691 243.917C110.498 243.724 110.272 243.583 110.015 243.495C109.763 243.401 109.479 243.354 109.162 243.354C108.775 243.354 108.433 243.428 108.134 243.574C107.835 243.715 107.583 243.94 107.378 244.251C107.179 244.562 107.026 244.969 106.921 245.473C106.815 245.977 106.763 246.589 106.763 247.31V249.797C106.763 250.371 106.795 250.878 106.859 251.317C106.93 251.757 107.032 252.138 107.167 252.46C107.302 252.776 107.466 253.037 107.659 253.242C107.853 253.447 108.075 253.6 108.327 253.699C108.585 253.793 108.869 253.84 109.18 253.84C109.578 253.84 109.927 253.764 110.226 253.611C110.524 253.459 110.773 253.222 110.973 252.899C111.178 252.571 111.33 252.152 111.43 251.643C111.529 251.127 111.579 250.512 111.579 249.797ZM117.679 247.802H118.839C119.407 247.802 119.876 247.708 120.245 247.521C120.62 247.327 120.898 247.066 121.08 246.738C121.268 246.404 121.361 246.029 121.361 245.613C121.361 245.121 121.279 244.708 121.115 244.374C120.951 244.04 120.705 243.788 120.377 243.618C120.049 243.448 119.633 243.363 119.129 243.363C118.672 243.363 118.268 243.454 117.916 243.636C117.57 243.812 117.298 244.063 117.099 244.392C116.905 244.72 116.809 245.106 116.809 245.552H115.183C115.183 244.901 115.347 244.31 115.675 243.776C116.003 243.243 116.463 242.818 117.055 242.502C117.652 242.186 118.344 242.027 119.129 242.027C119.902 242.027 120.579 242.165 121.159 242.44C121.739 242.71 122.19 243.114 122.513 243.653C122.835 244.187 122.996 244.852 122.996 245.648C122.996 245.971 122.92 246.316 122.768 246.686C122.621 247.049 122.39 247.389 122.073 247.705C121.763 248.021 121.358 248.282 120.86 248.487C120.362 248.687 119.765 248.786 119.067 248.786H117.679V247.802ZM117.679 249.138V248.162H119.067C119.882 248.162 120.556 248.259 121.089 248.452C121.622 248.646 122.041 248.903 122.346 249.226C122.656 249.548 122.873 249.902 122.996 250.289C123.125 250.67 123.189 251.051 123.189 251.432C123.189 252.029 123.087 252.56 122.882 253.022C122.683 253.485 122.398 253.878 122.029 254.2C121.666 254.522 121.238 254.766 120.746 254.93C120.254 255.094 119.718 255.176 119.138 255.176C118.581 255.176 118.057 255.097 117.564 254.938C117.078 254.78 116.647 254.552 116.272 254.253C115.897 253.948 115.604 253.576 115.394 253.137C115.183 252.691 115.077 252.185 115.077 251.616H116.703C116.703 252.062 116.8 252.451 116.993 252.785C117.192 253.119 117.474 253.38 117.837 253.567C118.206 253.749 118.64 253.84 119.138 253.84C119.636 253.84 120.063 253.755 120.421 253.585C120.784 253.409 121.062 253.146 121.256 252.794C121.455 252.442 121.555 252 121.555 251.467C121.555 250.934 121.443 250.497 121.221 250.157C120.998 249.812 120.682 249.557 120.271 249.393C119.867 249.223 119.39 249.138 118.839 249.138H117.679ZM130.774 242.133V255H129.148V244.163L125.87 245.358V243.891L130.52 242.133H130.774ZM137.208 253.066V254.376C137.208 254.909 137.073 255.472 136.804 256.063C136.534 256.661 136.156 257.159 135.67 257.558L134.747 256.916C134.935 256.658 135.093 256.395 135.222 256.125C135.351 255.861 135.447 255.586 135.512 255.299C135.582 255.018 135.617 254.719 135.617 254.402V253.066H137.208ZM151.604 247.582V249.533C151.604 250.582 151.511 251.467 151.323 252.188C151.136 252.908 150.866 253.488 150.515 253.928C150.163 254.367 149.738 254.687 149.24 254.886C148.748 255.079 148.191 255.176 147.57 255.176C147.078 255.176 146.624 255.114 146.208 254.991C145.792 254.868 145.417 254.672 145.083 254.402C144.755 254.127 144.474 253.77 144.239 253.33C144.005 252.891 143.826 252.357 143.703 251.73C143.58 251.104 143.519 250.371 143.519 249.533V247.582C143.519 246.533 143.612 245.654 143.8 244.945C143.993 244.236 144.266 243.668 144.617 243.24C144.969 242.807 145.391 242.496 145.883 242.309C146.381 242.121 146.938 242.027 147.553 242.027C148.051 242.027 148.508 242.089 148.924 242.212C149.346 242.329 149.721 242.52 150.049 242.783C150.377 243.041 150.655 243.387 150.884 243.82C151.118 244.248 151.297 244.772 151.42 245.394C151.543 246.015 151.604 246.744 151.604 247.582ZM149.97 249.797V247.31C149.97 246.735 149.935 246.231 149.864 245.798C149.8 245.358 149.703 244.983 149.574 244.673C149.445 244.362 149.281 244.11 149.082 243.917C148.889 243.724 148.663 243.583 148.405 243.495C148.153 243.401 147.869 243.354 147.553 243.354C147.166 243.354 146.823 243.428 146.524 243.574C146.226 243.715 145.974 243.94 145.769 244.251C145.569 244.562 145.417 244.969 145.312 245.473C145.206 245.977 145.153 246.589 145.153 247.31V249.797C145.153 250.371 145.186 250.878 145.25 251.317C145.32 251.757 145.423 252.138 145.558 252.46C145.692 252.776 145.856 253.037 146.05 253.242C146.243 253.447 146.466 253.6 146.718 253.699C146.976 253.793 147.26 253.84 147.57 253.84C147.969 253.84 148.317 253.764 148.616 253.611C148.915 253.459 149.164 253.222 149.363 252.899C149.568 252.571 149.721 252.152 149.82 251.643C149.92 251.127 149.97 250.512 149.97 249.797ZM159.04 242.133V255H157.414V244.163L154.136 245.358V243.891L158.785 242.133H159.04ZM172.47 250.693V252.029H163.224V251.071L168.954 242.203H170.281L168.857 244.77L165.069 250.693H172.47ZM170.686 242.203V255H169.06V242.203H170.686ZM182.217 242.203V243.117L176.917 255H175.203L180.494 243.539H173.568V242.203H182.217ZM186.444 247.802H187.604C188.173 247.802 188.642 247.708 189.011 247.521C189.386 247.327 189.664 247.066 189.846 246.738C190.033 246.404 190.127 246.029 190.127 245.613C190.127 245.121 190.045 244.708 189.881 244.374C189.717 244.04 189.471 243.788 189.143 243.618C188.814 243.448 188.398 243.363 187.895 243.363C187.438 243.363 187.033 243.454 186.682 243.636C186.336 243.812 186.063 244.063 185.864 244.392C185.671 244.72 185.574 245.106 185.574 245.552H183.948C183.948 244.901 184.112 244.31 184.44 243.776C184.769 243.243 185.229 242.818 185.82 242.502C186.418 242.186 187.109 242.027 187.895 242.027C188.668 242.027 189.345 242.165 189.925 242.44C190.505 242.71 190.956 243.114 191.278 243.653C191.601 244.187 191.762 244.852 191.762 245.648C191.762 245.971 191.686 246.316 191.533 246.686C191.387 247.049 191.155 247.389 190.839 247.705C190.528 248.021 190.124 248.282 189.626 248.487C189.128 248.687 188.53 248.786 187.833 248.786H186.444V247.802ZM186.444 249.138V248.162H187.833C188.647 248.162 189.321 248.259 189.854 248.452C190.388 248.646 190.807 248.903 191.111 249.226C191.422 249.548 191.639 249.902 191.762 250.289C191.891 250.67 191.955 251.051 191.955 251.432C191.955 252.029 191.853 252.56 191.647 253.022C191.448 253.485 191.164 253.878 190.795 254.2C190.432 254.522 190.004 254.766 189.512 254.93C189.02 255.094 188.483 255.176 187.903 255.176C187.347 255.176 186.822 255.097 186.33 254.938C185.844 254.78 185.413 254.552 185.038 254.253C184.663 253.948 184.37 253.576 184.159 253.137C183.948 252.691 183.843 252.185 183.843 251.616H185.469C185.469 252.062 185.565 252.451 185.759 252.785C185.958 253.119 186.239 253.38 186.603 253.567C186.972 253.749 187.405 253.84 187.903 253.84C188.401 253.84 188.829 253.755 189.187 253.585C189.55 253.409 189.828 253.146 190.021 252.794C190.221 252.442 190.32 252 190.32 251.467C190.32 250.934 190.209 250.497 189.986 250.157C189.764 249.812 189.447 249.557 189.037 249.393C188.633 249.223 188.155 249.138 187.604 249.138H186.444ZM199.54 242.133V255H197.914V244.163L194.636 245.358V243.891L199.285 242.133H199.54ZM212.354 247.582V249.533C212.354 250.582 212.261 251.467 212.073 252.188C211.886 252.908 211.616 253.488 211.265 253.928C210.913 254.367 210.488 254.687 209.99 254.886C209.498 255.079 208.941 255.176 208.32 255.176C207.828 255.176 207.374 255.114 206.958 254.991C206.542 254.868 206.167 254.672 205.833 254.402C205.505 254.127 205.224 253.77 204.989 253.33C204.755 252.891 204.576 252.357 204.453 251.73C204.33 251.104 204.269 250.371 204.269 249.533V247.582C204.269 246.533 204.362 245.654 204.55 244.945C204.743 244.236 205.016 243.668 205.367 243.24C205.719 242.807 206.141 242.496 206.633 242.309C207.131 242.121 207.688 242.027 208.303 242.027C208.801 242.027 209.258 242.089 209.674 242.212C210.096 242.329 210.471 242.52 210.799 242.783C211.127 243.041 211.405 243.387 211.634 243.82C211.868 244.248 212.047 244.772 212.17 245.394C212.293 246.015 212.354 246.744 212.354 247.582ZM210.72 249.797V247.31C210.72 246.735 210.685 246.231 210.614 245.798C210.55 245.358 210.453 244.983 210.324 244.673C210.195 244.362 210.031 244.11 209.832 243.917C209.639 243.724 209.413 243.583 209.155 243.495C208.903 243.401 208.619 243.354 208.303 243.354C207.916 243.354 207.573 243.428 207.274 243.574C206.976 243.715 206.724 243.94 206.519 244.251C206.319 244.562 206.167 244.969 206.062 245.473C205.956 245.977 205.903 246.589 205.903 247.31V249.797C205.903 250.371 205.936 250.878 206 251.317C206.07 251.757 206.173 252.138 206.308 252.46C206.442 252.776 206.606 253.037 206.8 253.242C206.993 253.447 207.216 253.6 207.468 253.699C207.726 253.793 208.01 253.84 208.32 253.84C208.719 253.84 209.067 253.764 209.366 253.611C209.665 253.459 209.914 253.222 210.113 252.899C210.318 252.571 210.471 252.152 210.57 251.643C210.67 251.127 210.72 250.512 210.72 249.797ZM219.79 242.133V255H218.164V244.163L214.886 245.358V243.891L219.535 242.133H219.79ZM232.64 251.537C232.64 252.316 232.458 252.979 232.095 253.523C231.737 254.062 231.251 254.473 230.636 254.754C230.026 255.035 229.338 255.176 228.57 255.176C227.803 255.176 227.111 255.035 226.496 254.754C225.881 254.473 225.395 254.062 225.037 253.523C224.68 252.979 224.501 252.316 224.501 251.537C224.501 251.027 224.598 250.562 224.791 250.14C224.99 249.712 225.269 249.34 225.626 249.023C225.989 248.707 226.417 248.464 226.909 248.294C227.407 248.118 227.955 248.03 228.553 248.03C229.338 248.03 230.038 248.183 230.653 248.487C231.269 248.786 231.752 249.199 232.104 249.727C232.461 250.254 232.64 250.857 232.64 251.537ZM231.005 251.502C231.005 251.027 230.902 250.608 230.697 250.245C230.492 249.876 230.205 249.589 229.836 249.384C229.467 249.179 229.039 249.076 228.553 249.076C228.055 249.076 227.624 249.179 227.261 249.384C226.903 249.589 226.625 249.876 226.426 250.245C226.227 250.608 226.127 251.027 226.127 251.502C226.127 251.994 226.224 252.416 226.417 252.768C226.616 253.113 226.897 253.38 227.261 253.567C227.63 253.749 228.066 253.84 228.57 253.84C229.074 253.84 229.508 253.749 229.871 253.567C230.234 253.38 230.513 253.113 230.706 252.768C230.905 252.416 231.005 251.994 231.005 251.502ZM232.341 245.534C232.341 246.155 232.177 246.715 231.849 247.213C231.521 247.711 231.072 248.104 230.504 248.391C229.936 248.678 229.291 248.821 228.57 248.821C227.838 248.821 227.185 248.678 226.61 248.391C226.042 248.104 225.597 247.711 225.274 247.213C224.952 246.715 224.791 246.155 224.791 245.534C224.791 244.79 224.952 244.157 225.274 243.636C225.603 243.114 226.051 242.716 226.619 242.44C227.188 242.165 227.835 242.027 228.562 242.027C229.294 242.027 229.944 242.165 230.513 242.44C231.081 242.716 231.526 243.114 231.849 243.636C232.177 244.157 232.341 244.79 232.341 245.534ZM230.715 245.561C230.715 245.133 230.624 244.755 230.442 244.427C230.261 244.099 230.009 243.841 229.687 243.653C229.364 243.46 228.989 243.363 228.562 243.363C228.134 243.363 227.759 243.454 227.437 243.636C227.12 243.812 226.871 244.063 226.689 244.392C226.514 244.72 226.426 245.109 226.426 245.561C226.426 246 226.514 246.384 226.689 246.712C226.871 247.04 227.123 247.295 227.445 247.477C227.768 247.658 228.143 247.749 228.57 247.749C228.998 247.749 229.37 247.658 229.687 247.477C230.009 247.295 230.261 247.04 230.442 246.712C230.624 246.384 230.715 246 230.715 245.561Z" fill="black"/>
<circle cx="138" cy="95" r="95" fill="white"/>
<path d="M110.182 130V121.882H116.655L124.644 95.1956C125.184 93.4368 126.179 92.0324 127.63 90.9825C129.081 89.9326 130.681 89.4091 132.432 89.4118H144.568C146.321 89.4118 147.923 89.9367 149.374 90.9866C150.825 92.0365 151.819 93.4395 152.356 95.1956L160.345 121.882H166.818V130H110.182ZM134.455 81.2941V61H142.545V81.2941H134.455ZM158.525 91.3397L152.76 85.5559L167.122 71.2485L172.785 76.9309L158.525 91.3397ZM162.773 109.706V101.588H183V109.706H162.773ZM118.475 91.3397L104.215 76.9309L109.878 71.2485L124.24 85.5559L118.475 91.3397ZM94 109.706V101.588H114.227V109.706H94Z" fill="#FF0000"/>
</svg>
