<svg width="285" height="365" viewBox="0 0 285 365" fill="none" xmlns="http://www.w3.org/2000/svg">
<g filter="url(#filter0_d_38_2692)">
<rect x="4.5" y="95" width="276" height="262" rx="8" fill="white"/>
<path d="M121.812 216.943V219H115.369V216.943H121.812ZM116.222 206.203V219H113.585V206.203H116.222ZM128.298 216.855V212.619C128.298 212.314 128.248 212.054 128.148 211.837C128.049 211.614 127.894 211.441 127.683 211.318C127.478 211.195 127.211 211.134 126.883 211.134C126.602 211.134 126.358 211.184 126.153 211.283C125.948 211.377 125.79 211.515 125.679 211.696C125.567 211.872 125.512 212.08 125.512 212.32H122.98C122.98 211.916 123.074 211.532 123.262 211.169C123.449 210.806 123.722 210.486 124.079 210.211C124.437 209.93 124.861 209.71 125.354 209.552C125.852 209.394 126.408 209.314 127.023 209.314C127.762 209.314 128.418 209.438 128.992 209.684C129.566 209.93 130.018 210.299 130.346 210.791C130.68 211.283 130.847 211.898 130.847 212.637V216.706C130.847 217.228 130.879 217.655 130.943 217.989C131.008 218.317 131.102 218.604 131.225 218.851V219H128.667C128.544 218.742 128.45 218.42 128.386 218.033C128.327 217.641 128.298 217.248 128.298 216.855ZM128.632 213.208L128.649 214.641H127.234C126.9 214.641 126.61 214.679 126.364 214.755C126.118 214.831 125.916 214.939 125.758 215.08C125.6 215.215 125.482 215.373 125.406 215.555C125.336 215.736 125.301 215.936 125.301 216.152C125.301 216.369 125.351 216.565 125.45 216.741C125.55 216.911 125.693 217.046 125.881 217.146C126.068 217.239 126.288 217.286 126.54 217.286C126.921 217.286 127.252 217.21 127.533 217.058C127.814 216.905 128.031 216.718 128.184 216.495C128.342 216.272 128.424 216.062 128.43 215.862L129.098 216.935C129.004 217.175 128.875 217.424 128.711 217.682C128.553 217.939 128.351 218.183 128.104 218.411C127.858 218.634 127.562 218.818 127.217 218.965C126.871 219.105 126.461 219.176 125.986 219.176C125.383 219.176 124.835 219.056 124.343 218.815C123.856 218.569 123.47 218.232 123.183 217.805C122.901 217.371 122.761 216.879 122.761 216.328C122.761 215.83 122.854 215.388 123.042 215.001C123.229 214.614 123.505 214.289 123.868 214.025C124.237 213.756 124.697 213.554 125.248 213.419C125.799 213.278 126.438 213.208 127.164 213.208H128.632ZM138.818 209.49H141.112V218.684C141.112 219.551 140.919 220.286 140.532 220.89C140.151 221.499 139.618 221.959 138.933 222.27C138.247 222.586 137.45 222.744 136.542 222.744C136.144 222.744 135.722 222.691 135.276 222.586C134.837 222.48 134.415 222.316 134.011 222.094C133.612 221.871 133.278 221.59 133.009 221.25L134.125 219.756C134.418 220.096 134.758 220.359 135.145 220.547C135.531 220.74 135.959 220.837 136.428 220.837C136.885 220.837 137.271 220.752 137.588 220.582C137.904 220.418 138.147 220.175 138.317 219.853C138.487 219.536 138.572 219.152 138.572 218.701V211.688L138.818 209.49ZM132.42 214.359V214.175C132.42 213.448 132.508 212.789 132.684 212.197C132.865 211.6 133.12 211.087 133.448 210.659C133.782 210.231 134.187 209.9 134.661 209.666C135.136 209.432 135.672 209.314 136.27 209.314C136.902 209.314 137.433 209.432 137.86 209.666C138.288 209.9 138.64 210.234 138.915 210.668C139.19 211.096 139.404 211.603 139.557 212.188C139.715 212.769 139.838 213.404 139.926 214.096V214.5C139.838 215.162 139.706 215.777 139.53 216.346C139.354 216.914 139.123 217.412 138.836 217.84C138.549 218.262 138.191 218.59 137.764 218.824C137.342 219.059 136.838 219.176 136.252 219.176C135.666 219.176 135.136 219.056 134.661 218.815C134.192 218.575 133.791 218.238 133.457 217.805C133.123 217.371 132.865 216.861 132.684 216.275C132.508 215.689 132.42 215.051 132.42 214.359ZM134.951 214.175V214.359C134.951 214.752 134.989 215.118 135.065 215.458C135.142 215.798 135.259 216.1 135.417 216.363C135.581 216.621 135.783 216.823 136.023 216.97C136.27 217.11 136.56 217.181 136.894 217.181C137.356 217.181 137.734 217.084 138.027 216.891C138.32 216.691 138.54 216.419 138.687 216.073C138.833 215.728 138.918 215.329 138.941 214.878V213.727C138.93 213.357 138.88 213.026 138.792 212.733C138.704 212.435 138.581 212.18 138.423 211.969C138.265 211.758 138.06 211.594 137.808 211.477C137.556 211.359 137.257 211.301 136.911 211.301C136.577 211.301 136.287 211.377 136.041 211.529C135.801 211.676 135.599 211.878 135.435 212.136C135.276 212.394 135.156 212.698 135.074 213.05C134.992 213.396 134.951 213.771 134.951 214.175ZM143.081 205.5H145.612V216.82L145.357 219H143.081V205.5ZM151.633 214.148V214.333C151.633 215.042 151.557 215.692 151.404 216.284C151.258 216.876 151.029 217.389 150.719 217.822C150.408 218.25 150.021 218.584 149.559 218.824C149.102 219.059 148.562 219.176 147.941 219.176C147.361 219.176 146.857 219.059 146.43 218.824C146.008 218.59 145.653 218.259 145.366 217.831C145.079 217.403 144.848 216.902 144.672 216.328C144.496 215.754 144.364 215.127 144.276 214.447V214.043C144.364 213.363 144.496 212.736 144.672 212.162C144.848 211.588 145.079 211.087 145.366 210.659C145.653 210.231 146.008 209.9 146.43 209.666C146.852 209.432 147.35 209.314 147.924 209.314C148.551 209.314 149.096 209.435 149.559 209.675C150.027 209.909 150.414 210.243 150.719 210.677C151.029 211.104 151.258 211.614 151.404 212.206C151.557 212.792 151.633 213.439 151.633 214.148ZM149.102 214.333V214.148C149.102 213.762 149.072 213.398 149.014 213.059C148.961 212.713 148.867 212.411 148.732 212.153C148.598 211.89 148.413 211.682 148.179 211.529C147.95 211.377 147.654 211.301 147.291 211.301C146.945 211.301 146.652 211.359 146.412 211.477C146.172 211.594 145.973 211.758 145.814 211.969C145.662 212.18 145.548 212.432 145.472 212.725C145.396 213.012 145.349 213.328 145.331 213.674V214.825C145.349 215.288 145.425 215.698 145.56 216.056C145.7 216.407 145.911 216.686 146.192 216.891C146.479 217.09 146.852 217.189 147.309 217.189C147.666 217.189 147.962 217.119 148.196 216.979C148.431 216.838 148.612 216.639 148.741 216.381C148.876 216.123 148.97 215.821 149.022 215.476C149.075 215.124 149.102 214.743 149.102 214.333ZM158.831 216.724V209.49H161.362V219H158.98L158.831 216.724ZM159.112 214.772L159.859 214.755C159.859 215.388 159.786 215.977 159.64 216.521C159.493 217.061 159.273 217.529 158.98 217.928C158.688 218.32 158.318 218.628 157.873 218.851C157.428 219.067 156.903 219.176 156.3 219.176C155.837 219.176 155.409 219.111 155.017 218.982C154.63 218.848 154.296 218.64 154.015 218.358C153.739 218.071 153.522 217.705 153.364 217.26C153.212 216.809 153.136 216.267 153.136 215.634V209.49H155.667V215.651C155.667 215.933 155.699 216.17 155.764 216.363C155.834 216.557 155.931 216.715 156.054 216.838C156.177 216.961 156.32 217.049 156.484 217.102C156.654 217.154 156.842 217.181 157.047 217.181C157.568 217.181 157.979 217.075 158.277 216.864C158.582 216.653 158.796 216.366 158.919 216.003C159.048 215.634 159.112 215.224 159.112 214.772ZM168.438 216.372C168.438 216.19 168.385 216.026 168.279 215.88C168.174 215.733 167.978 215.599 167.69 215.476C167.409 215.347 167.002 215.229 166.469 215.124C165.988 215.019 165.54 214.887 165.124 214.729C164.714 214.564 164.356 214.368 164.052 214.14C163.753 213.911 163.519 213.642 163.349 213.331C163.179 213.015 163.094 212.654 163.094 212.25C163.094 211.852 163.179 211.477 163.349 211.125C163.524 210.773 163.773 210.463 164.096 210.193C164.424 209.918 164.822 209.704 165.291 209.552C165.766 209.394 166.299 209.314 166.891 209.314C167.717 209.314 168.426 209.446 169.018 209.71C169.615 209.974 170.072 210.337 170.389 210.8C170.711 211.257 170.872 211.778 170.872 212.364H168.341C168.341 212.118 168.288 211.898 168.183 211.705C168.083 211.506 167.925 211.351 167.708 211.239C167.497 211.122 167.222 211.063 166.882 211.063C166.601 211.063 166.357 211.113 166.152 211.213C165.947 211.307 165.789 211.436 165.678 211.6C165.572 211.758 165.52 211.934 165.52 212.127C165.52 212.273 165.549 212.405 165.607 212.522C165.672 212.634 165.774 212.736 165.915 212.83C166.056 212.924 166.237 213.012 166.46 213.094C166.688 213.17 166.97 213.24 167.304 213.305C167.989 213.445 168.602 213.63 169.141 213.858C169.68 214.081 170.107 214.386 170.424 214.772C170.74 215.153 170.898 215.654 170.898 216.275C170.898 216.697 170.805 217.084 170.617 217.436C170.43 217.787 170.16 218.095 169.809 218.358C169.457 218.616 169.035 218.818 168.543 218.965C168.057 219.105 167.509 219.176 166.899 219.176C166.015 219.176 165.265 219.018 164.649 218.701C164.04 218.385 163.577 217.983 163.261 217.497C162.95 217.005 162.795 216.501 162.795 215.985H165.194C165.206 216.331 165.294 216.609 165.458 216.82C165.628 217.031 165.842 217.184 166.1 217.277C166.363 217.371 166.647 217.418 166.952 217.418C167.28 217.418 167.553 217.374 167.77 217.286C167.986 217.192 168.15 217.069 168.262 216.917C168.379 216.759 168.438 216.577 168.438 216.372Z" fill="#0066CC"/>
<path d="M95.4092 247.582V249.533C95.4092 250.582 95.3154 251.467 95.1279 252.188C94.9404 252.908 94.6709 253.488 94.3193 253.928C93.9678 254.367 93.543 254.687 93.0449 254.886C92.5527 255.079 91.9961 255.176 91.375 255.176C90.8828 255.176 90.4287 255.114 90.0127 254.991C89.5967 254.868 89.2217 254.672 88.8877 254.402C88.5596 254.127 88.2783 253.77 88.0439 253.33C87.8096 252.891 87.6309 252.357 87.5078 251.73C87.3848 251.104 87.3232 250.371 87.3232 249.533V247.582C87.3232 246.533 87.417 245.654 87.6045 244.945C87.7979 244.236 88.0703 243.668 88.4219 243.24C88.7734 242.807 89.1953 242.496 89.6875 242.309C90.1855 242.121 90.7422 242.027 91.3574 242.027C91.8555 242.027 92.3125 242.089 92.7285 242.212C93.1504 242.329 93.5254 242.52 93.8535 242.783C94.1816 243.041 94.46 243.387 94.6885 243.82C94.9229 244.248 95.1016 244.772 95.2246 245.394C95.3477 246.015 95.4092 246.744 95.4092 247.582ZM93.7744 249.797V247.31C93.7744 246.735 93.7393 246.231 93.6689 245.798C93.6045 245.358 93.5078 244.983 93.3789 244.673C93.25 244.362 93.0859 244.11 92.8867 243.917C92.6934 243.724 92.4678 243.583 92.21 243.495C91.958 243.401 91.6738 243.354 91.3574 243.354C90.9707 243.354 90.6279 243.428 90.3291 243.574C90.0303 243.715 89.7783 243.94 89.5732 244.251C89.374 244.562 89.2217 244.969 89.1162 245.473C89.0107 245.977 88.958 246.589 88.958 247.31V249.797C88.958 250.371 88.9902 250.878 89.0547 251.317C89.125 251.757 89.2275 252.138 89.3623 252.46C89.4971 252.776 89.6611 253.037 89.8545 253.242C90.0479 253.447 90.2705 253.6 90.5225 253.699C90.7803 253.793 91.0645 253.84 91.375 253.84C91.7734 253.84 92.1221 253.764 92.4209 253.611C92.7197 253.459 92.9688 253.222 93.168 252.899C93.373 252.571 93.5254 252.152 93.625 251.643C93.7246 251.127 93.7744 250.512 93.7744 249.797ZM105.569 251.537C105.569 252.316 105.388 252.979 105.024 253.523C104.667 254.062 104.181 254.473 103.565 254.754C102.956 255.035 102.268 255.176 101.5 255.176C100.732 255.176 100.041 255.035 99.4258 254.754C98.8105 254.473 98.3242 254.062 97.9668 253.523C97.6094 252.979 97.4307 252.316 97.4307 251.537C97.4307 251.027 97.5273 250.562 97.7207 250.14C97.9199 249.712 98.1982 249.34 98.5557 249.023C98.9189 248.707 99.3467 248.464 99.8389 248.294C100.337 248.118 100.885 248.03 101.482 248.03C102.268 248.03 102.968 248.183 103.583 248.487C104.198 248.786 104.682 249.199 105.033 249.727C105.391 250.254 105.569 250.857 105.569 251.537ZM103.935 251.502C103.935 251.027 103.832 250.608 103.627 250.245C103.422 249.876 103.135 249.589 102.766 249.384C102.396 249.179 101.969 249.076 101.482 249.076C100.984 249.076 100.554 249.179 100.19 249.384C99.833 249.589 99.5547 249.876 99.3555 250.245C99.1562 250.608 99.0566 251.027 99.0566 251.502C99.0566 251.994 99.1533 252.416 99.3467 252.768C99.5459 253.113 99.8271 253.38 100.19 253.567C100.56 253.749 100.996 253.84 101.5 253.84C102.004 253.84 102.438 253.749 102.801 253.567C103.164 253.38 103.442 253.113 103.636 252.768C103.835 252.416 103.935 251.994 103.935 251.502ZM105.271 245.534C105.271 246.155 105.106 246.715 104.778 247.213C104.45 247.711 104.002 248.104 103.434 248.391C102.865 248.678 102.221 248.821 101.5 248.821C100.768 248.821 100.114 248.678 99.54 248.391C98.9717 248.104 98.5264 247.711 98.2041 247.213C97.8818 246.715 97.7207 246.155 97.7207 245.534C97.7207 244.79 97.8818 244.157 98.2041 243.636C98.5322 243.114 98.9805 242.716 99.5488 242.44C100.117 242.165 100.765 242.027 101.491 242.027C102.224 242.027 102.874 242.165 103.442 242.44C104.011 242.716 104.456 243.114 104.778 243.636C105.106 244.157 105.271 244.79 105.271 245.534ZM103.645 245.561C103.645 245.133 103.554 244.755 103.372 244.427C103.19 244.099 102.938 243.841 102.616 243.653C102.294 243.46 101.919 243.363 101.491 243.363C101.063 243.363 100.688 243.454 100.366 243.636C100.05 243.812 99.8008 244.063 99.6191 244.392C99.4434 244.72 99.3555 245.109 99.3555 245.561C99.3555 246 99.4434 246.384 99.6191 246.712C99.8008 247.04 100.053 247.295 100.375 247.477C100.697 247.658 101.072 247.749 101.5 247.749C101.928 247.749 102.3 247.658 102.616 247.477C102.938 247.295 103.19 247.04 103.372 246.712C103.554 246.384 103.645 246 103.645 245.561ZM115.659 247.582V249.533C115.659 250.582 115.565 251.467 115.378 252.188C115.19 252.908 114.921 253.488 114.569 253.928C114.218 254.367 113.793 254.687 113.295 254.886C112.803 255.079 112.246 255.176 111.625 255.176C111.133 255.176 110.679 255.114 110.263 254.991C109.847 254.868 109.472 254.672 109.138 254.402C108.81 254.127 108.528 253.77 108.294 253.33C108.06 252.891 107.881 252.357 107.758 251.73C107.635 251.104 107.573 250.371 107.573 249.533V247.582C107.573 246.533 107.667 245.654 107.854 244.945C108.048 244.236 108.32 243.668 108.672 243.24C109.023 242.807 109.445 242.496 109.938 242.309C110.436 242.121 110.992 242.027 111.607 242.027C112.105 242.027 112.562 242.089 112.979 242.212C113.4 242.329 113.775 242.52 114.104 242.783C114.432 243.041 114.71 243.387 114.938 243.82C115.173 244.248 115.352 244.772 115.475 245.394C115.598 246.015 115.659 246.744 115.659 247.582ZM114.024 249.797V247.31C114.024 246.735 113.989 246.231 113.919 245.798C113.854 245.358 113.758 244.983 113.629 244.673C113.5 244.362 113.336 244.11 113.137 243.917C112.943 243.724 112.718 243.583 112.46 243.495C112.208 243.401 111.924 243.354 111.607 243.354C111.221 243.354 110.878 243.428 110.579 243.574C110.28 243.715 110.028 243.94 109.823 244.251C109.624 244.562 109.472 244.969 109.366 245.473C109.261 245.977 109.208 246.589 109.208 247.31V249.797C109.208 250.371 109.24 250.878 109.305 251.317C109.375 251.757 109.478 252.138 109.612 252.46C109.747 252.776 109.911 253.037 110.104 253.242C110.298 253.447 110.521 253.6 110.772 253.699C111.03 253.793 111.314 253.84 111.625 253.84C112.023 253.84 112.372 253.764 112.671 253.611C112.97 253.459 113.219 253.222 113.418 252.899C113.623 252.571 113.775 252.152 113.875 251.643C113.975 251.127 114.024 250.512 114.024 249.797ZM120.124 247.802H121.284C121.853 247.802 122.321 247.708 122.69 247.521C123.065 247.327 123.344 247.066 123.525 246.738C123.713 246.404 123.807 246.029 123.807 245.613C123.807 245.121 123.725 244.708 123.561 244.374C123.396 244.04 123.15 243.788 122.822 243.618C122.494 243.448 122.078 243.363 121.574 243.363C121.117 243.363 120.713 243.454 120.361 243.636C120.016 243.812 119.743 244.063 119.544 244.392C119.351 244.72 119.254 245.106 119.254 245.552H117.628C117.628 244.901 117.792 244.31 118.12 243.776C118.448 243.243 118.908 242.818 119.5 242.502C120.098 242.186 120.789 242.027 121.574 242.027C122.348 242.027 123.024 242.165 123.604 242.44C124.185 242.71 124.636 243.114 124.958 243.653C125.28 244.187 125.441 244.852 125.441 245.648C125.441 245.971 125.365 246.316 125.213 246.686C125.066 247.049 124.835 247.389 124.519 247.705C124.208 248.021 123.804 248.282 123.306 248.487C122.808 248.687 122.21 248.786 121.513 248.786H120.124V247.802ZM120.124 249.138V248.162H121.513C122.327 248.162 123.001 248.259 123.534 248.452C124.067 248.646 124.486 248.903 124.791 249.226C125.102 249.548 125.318 249.902 125.441 250.289C125.57 250.67 125.635 251.051 125.635 251.432C125.635 252.029 125.532 252.56 125.327 253.022C125.128 253.485 124.844 253.878 124.475 254.2C124.111 254.522 123.684 254.766 123.191 254.93C122.699 255.094 122.163 255.176 121.583 255.176C121.026 255.176 120.502 255.097 120.01 254.938C119.523 254.78 119.093 254.552 118.718 254.253C118.343 253.948 118.05 253.576 117.839 253.137C117.628 252.691 117.522 252.185 117.522 251.616H119.148C119.148 252.062 119.245 252.451 119.438 252.785C119.638 253.119 119.919 253.38 120.282 253.567C120.651 253.749 121.085 253.84 121.583 253.84C122.081 253.84 122.509 253.755 122.866 253.585C123.229 253.409 123.508 253.146 123.701 252.794C123.9 252.442 124 252 124 251.467C124 250.934 123.889 250.497 123.666 250.157C123.443 249.812 123.127 249.557 122.717 249.393C122.312 249.223 121.835 249.138 121.284 249.138H120.124ZM130.249 247.802H131.409C131.978 247.802 132.446 247.708 132.815 247.521C133.19 247.327 133.469 247.066 133.65 246.738C133.838 246.404 133.932 246.029 133.932 245.613C133.932 245.121 133.85 244.708 133.686 244.374C133.521 244.04 133.275 243.788 132.947 243.618C132.619 243.448 132.203 243.363 131.699 243.363C131.242 243.363 130.838 243.454 130.486 243.636C130.141 243.812 129.868 244.063 129.669 244.392C129.476 244.72 129.379 245.106 129.379 245.552H127.753C127.753 244.901 127.917 244.31 128.245 243.776C128.573 243.243 129.033 242.818 129.625 242.502C130.223 242.186 130.914 242.027 131.699 242.027C132.473 242.027 133.149 242.165 133.729 242.44C134.31 242.71 134.761 243.114 135.083 243.653C135.405 244.187 135.566 244.852 135.566 245.648C135.566 245.971 135.49 246.316 135.338 246.686C135.191 247.049 134.96 247.389 134.644 247.705C134.333 248.021 133.929 248.282 133.431 248.487C132.933 248.687 132.335 248.786 131.638 248.786H130.249V247.802ZM130.249 249.138V248.162H131.638C132.452 248.162 133.126 248.259 133.659 248.452C134.192 248.646 134.611 248.903 134.916 249.226C135.227 249.548 135.443 249.902 135.566 250.289C135.695 250.67 135.76 251.051 135.76 251.432C135.76 252.029 135.657 252.56 135.452 253.022C135.253 253.485 134.969 253.878 134.6 254.2C134.236 254.522 133.809 254.766 133.316 254.93C132.824 255.094 132.288 255.176 131.708 255.176C131.151 255.176 130.627 255.097 130.135 254.938C129.648 254.78 129.218 254.552 128.843 254.253C128.468 253.948 128.175 253.576 127.964 253.137C127.753 252.691 127.647 252.185 127.647 251.616H129.273C129.273 252.062 129.37 252.451 129.563 252.785C129.763 253.119 130.044 253.38 130.407 253.567C130.776 253.749 131.21 253.84 131.708 253.84C132.206 253.84 132.634 253.755 132.991 253.585C133.354 253.409 133.633 253.146 133.826 252.794C134.025 252.442 134.125 252 134.125 251.467C134.125 250.934 134.014 250.497 133.791 250.157C133.568 249.812 133.252 249.557 132.842 249.393C132.438 249.223 131.96 249.138 131.409 249.138H130.249ZM146.034 247.582V249.533C146.034 250.582 145.94 251.467 145.753 252.188C145.565 252.908 145.296 253.488 144.944 253.928C144.593 254.367 144.168 254.687 143.67 254.886C143.178 255.079 142.621 255.176 142 255.176C141.508 255.176 141.054 255.114 140.638 254.991C140.222 254.868 139.847 254.672 139.513 254.402C139.185 254.127 138.903 253.77 138.669 253.33C138.435 252.891 138.256 252.357 138.133 251.73C138.01 251.104 137.948 250.371 137.948 249.533V247.582C137.948 246.533 138.042 245.654 138.229 244.945C138.423 244.236 138.695 243.668 139.047 243.24C139.398 242.807 139.82 242.496 140.312 242.309C140.811 242.121 141.367 242.027 141.982 242.027C142.48 242.027 142.938 242.089 143.354 242.212C143.775 242.329 144.15 242.52 144.479 242.783C144.807 243.041 145.085 243.387 145.313 243.82C145.548 244.248 145.727 244.772 145.85 245.394C145.973 246.015 146.034 246.744 146.034 247.582ZM144.399 249.797V247.31C144.399 246.735 144.364 246.231 144.294 245.798C144.229 245.358 144.133 244.983 144.004 244.673C143.875 244.362 143.711 244.11 143.512 243.917C143.318 243.724 143.093 243.583 142.835 243.495C142.583 243.401 142.299 243.354 141.982 243.354C141.596 243.354 141.253 243.428 140.954 243.574C140.655 243.715 140.403 243.94 140.198 244.251C139.999 244.562 139.847 244.969 139.741 245.473C139.636 245.977 139.583 246.589 139.583 247.31V249.797C139.583 250.371 139.615 250.878 139.68 251.317C139.75 251.757 139.853 252.138 139.987 252.46C140.122 252.776 140.286 253.037 140.479 253.242C140.673 253.447 140.896 253.6 141.147 253.699C141.405 253.793 141.689 253.84 142 253.84C142.398 253.84 142.747 253.764 143.046 253.611C143.345 253.459 143.594 253.222 143.793 252.899C143.998 252.571 144.15 252.152 144.25 251.643C144.35 251.127 144.399 250.512 144.399 249.797ZM150.499 247.802H151.659C152.228 247.802 152.696 247.708 153.065 247.521C153.44 247.327 153.719 247.066 153.9 246.738C154.088 246.404 154.182 246.029 154.182 245.613C154.182 245.121 154.1 244.708 153.936 244.374C153.771 244.04 153.525 243.788 153.197 243.618C152.869 243.448 152.453 243.363 151.949 243.363C151.492 243.363 151.088 243.454 150.736 243.636C150.391 243.812 150.118 244.063 149.919 244.392C149.726 244.72 149.629 245.106 149.629 245.552H148.003C148.003 244.901 148.167 244.31 148.495 243.776C148.823 243.243 149.283 242.818 149.875 242.502C150.473 242.186 151.164 242.027 151.949 242.027C152.723 242.027 153.399 242.165 153.979 242.44C154.56 242.71 155.011 243.114 155.333 243.653C155.655 244.187 155.816 244.852 155.816 245.648C155.816 245.971 155.74 246.316 155.588 246.686C155.441 247.049 155.21 247.389 154.894 247.705C154.583 248.021 154.179 248.282 153.681 248.487C153.183 248.687 152.585 248.786 151.888 248.786H150.499V247.802ZM150.499 249.138V248.162H151.888C152.702 248.162 153.376 248.259 153.909 248.452C154.442 248.646 154.861 248.903 155.166 249.226C155.477 249.548 155.693 249.902 155.816 250.289C155.945 250.67 156.01 251.051 156.01 251.432C156.01 252.029 155.907 252.56 155.702 253.022C155.503 253.485 155.219 253.878 154.85 254.2C154.486 254.522 154.059 254.766 153.566 254.93C153.074 255.094 152.538 255.176 151.958 255.176C151.401 255.176 150.877 255.097 150.385 254.938C149.898 254.78 149.468 254.552 149.093 254.253C148.718 253.948 148.425 253.576 148.214 253.137C148.003 252.691 147.897 252.185 147.897 251.616H149.523C149.523 252.062 149.62 252.451 149.813 252.785C150.013 253.119 150.294 253.38 150.657 253.567C151.026 253.749 151.46 253.84 151.958 253.84C152.456 253.84 152.884 253.755 153.241 253.585C153.604 253.409 153.883 253.146 154.076 252.794C154.275 252.442 154.375 252 154.375 251.467C154.375 250.934 154.264 250.497 154.041 250.157C153.818 249.812 153.502 249.557 153.092 249.393C152.688 249.223 152.21 249.138 151.659 249.138H150.499ZM164.491 242.186H164.632V243.565H164.491C163.63 243.565 162.909 243.706 162.329 243.987C161.749 244.263 161.289 244.635 160.949 245.104C160.609 245.566 160.363 246.088 160.211 246.668C160.064 247.248 159.991 247.837 159.991 248.435V250.315C159.991 250.884 160.059 251.388 160.193 251.827C160.328 252.261 160.513 252.627 160.747 252.926C160.981 253.225 161.245 253.45 161.538 253.603C161.837 253.755 162.147 253.831 162.47 253.831C162.845 253.831 163.179 253.761 163.472 253.62C163.765 253.474 164.011 253.271 164.21 253.014C164.415 252.75 164.57 252.439 164.676 252.082C164.781 251.725 164.834 251.332 164.834 250.904C164.834 250.523 164.787 250.157 164.693 249.806C164.6 249.448 164.456 249.132 164.263 248.856C164.069 248.575 163.826 248.355 163.533 248.197C163.246 248.033 162.903 247.951 162.505 247.951C162.054 247.951 161.632 248.062 161.239 248.285C160.853 248.502 160.533 248.789 160.281 249.146C160.035 249.498 159.895 249.882 159.859 250.298L158.998 250.289C159.08 249.633 159.232 249.073 159.455 248.61C159.684 248.142 159.965 247.761 160.299 247.468C160.639 247.169 161.017 246.952 161.433 246.817C161.854 246.677 162.3 246.606 162.769 246.606C163.407 246.606 163.958 246.727 164.421 246.967C164.884 247.207 165.265 247.529 165.563 247.934C165.862 248.332 166.082 248.783 166.223 249.287C166.369 249.785 166.442 250.298 166.442 250.825C166.442 251.429 166.357 251.994 166.188 252.521C166.018 253.049 165.763 253.512 165.423 253.91C165.089 254.309 164.676 254.619 164.184 254.842C163.691 255.064 163.12 255.176 162.47 255.176C161.778 255.176 161.175 255.035 160.659 254.754C160.144 254.467 159.716 254.086 159.376 253.611C159.036 253.137 158.781 252.609 158.611 252.029C158.441 251.449 158.356 250.86 158.356 250.263V249.498C158.356 248.596 158.447 247.711 158.629 246.844C158.811 245.977 159.124 245.191 159.569 244.488C160.021 243.785 160.645 243.226 161.441 242.81C162.238 242.394 163.255 242.186 164.491 242.186ZM176.444 251.537C176.444 252.316 176.263 252.979 175.899 253.523C175.542 254.062 175.056 254.473 174.44 254.754C173.831 255.035 173.143 255.176 172.375 255.176C171.607 255.176 170.916 255.035 170.301 254.754C169.686 254.473 169.199 254.062 168.842 253.523C168.484 252.979 168.306 252.316 168.306 251.537C168.306 251.027 168.402 250.562 168.596 250.14C168.795 249.712 169.073 249.34 169.431 249.023C169.794 248.707 170.222 248.464 170.714 248.294C171.212 248.118 171.76 248.03 172.357 248.03C173.143 248.03 173.843 248.183 174.458 248.487C175.073 248.786 175.557 249.199 175.908 249.727C176.266 250.254 176.444 250.857 176.444 251.537ZM174.81 251.502C174.81 251.027 174.707 250.608 174.502 250.245C174.297 249.876 174.01 249.589 173.641 249.384C173.271 249.179 172.844 249.076 172.357 249.076C171.859 249.076 171.429 249.179 171.065 249.384C170.708 249.589 170.43 249.876 170.23 250.245C170.031 250.608 169.932 251.027 169.932 251.502C169.932 251.994 170.028 252.416 170.222 252.768C170.421 253.113 170.702 253.38 171.065 253.567C171.435 253.749 171.871 253.84 172.375 253.84C172.879 253.84 173.312 253.749 173.676 253.567C174.039 253.38 174.317 253.113 174.511 252.768C174.71 252.416 174.81 251.994 174.81 251.502ZM176.146 245.534C176.146 246.155 175.981 246.715 175.653 247.213C175.325 247.711 174.877 248.104 174.309 248.391C173.74 248.678 173.096 248.821 172.375 248.821C171.643 248.821 170.989 248.678 170.415 248.391C169.847 248.104 169.401 247.711 169.079 247.213C168.757 246.715 168.596 246.155 168.596 245.534C168.596 244.79 168.757 244.157 169.079 243.636C169.407 243.114 169.855 242.716 170.424 242.44C170.992 242.165 171.64 242.027 172.366 242.027C173.099 242.027 173.749 242.165 174.317 242.44C174.886 242.716 175.331 243.114 175.653 243.636C175.981 244.157 176.146 244.79 176.146 245.534ZM174.52 245.561C174.52 245.133 174.429 244.755 174.247 244.427C174.065 244.099 173.813 243.841 173.491 243.653C173.169 243.46 172.794 243.363 172.366 243.363C171.938 243.363 171.563 243.454 171.241 243.636C170.925 243.812 170.676 244.063 170.494 244.392C170.318 244.72 170.23 245.109 170.23 245.561C170.23 246 170.318 246.384 170.494 246.712C170.676 247.04 170.928 247.295 171.25 247.477C171.572 247.658 171.947 247.749 172.375 247.749C172.803 247.749 173.175 247.658 173.491 247.477C173.813 247.295 174.065 247.04 174.247 246.712C174.429 246.384 174.52 246 174.52 245.561ZM183.845 242.133V255H182.219V244.163L178.94 245.358V243.891L183.59 242.133H183.845ZM194.866 242.186H195.007V243.565H194.866C194.005 243.565 193.284 243.706 192.704 243.987C192.124 244.263 191.664 244.635 191.324 245.104C190.984 245.566 190.738 246.088 190.586 246.668C190.439 247.248 190.366 247.837 190.366 248.435V250.315C190.366 250.884 190.434 251.388 190.568 251.827C190.703 252.261 190.888 252.627 191.122 252.926C191.356 253.225 191.62 253.45 191.913 253.603C192.212 253.755 192.522 253.831 192.845 253.831C193.22 253.831 193.554 253.761 193.847 253.62C194.14 253.474 194.386 253.271 194.585 253.014C194.79 252.75 194.945 252.439 195.051 252.082C195.156 251.725 195.209 251.332 195.209 250.904C195.209 250.523 195.162 250.157 195.068 249.806C194.975 249.448 194.831 249.132 194.638 248.856C194.444 248.575 194.201 248.355 193.908 248.197C193.621 248.033 193.278 247.951 192.88 247.951C192.429 247.951 192.007 248.062 191.614 248.285C191.228 248.502 190.908 248.789 190.656 249.146C190.41 249.498 190.27 249.882 190.234 250.298L189.373 250.289C189.455 249.633 189.607 249.073 189.83 248.61C190.059 248.142 190.34 247.761 190.674 247.468C191.014 247.169 191.392 246.952 191.808 246.817C192.229 246.677 192.675 246.606 193.144 246.606C193.782 246.606 194.333 246.727 194.796 246.967C195.259 247.207 195.64 247.529 195.938 247.934C196.237 248.332 196.457 248.783 196.598 249.287C196.744 249.785 196.817 250.298 196.817 250.825C196.817 251.429 196.732 251.994 196.562 252.521C196.393 253.049 196.138 253.512 195.798 253.91C195.464 254.309 195.051 254.619 194.559 254.842C194.066 255.064 193.495 255.176 192.845 255.176C192.153 255.176 191.55 255.035 191.034 254.754C190.519 254.467 190.091 254.086 189.751 253.611C189.411 253.137 189.156 252.609 188.986 252.029C188.816 251.449 188.731 250.86 188.731 250.263V249.498C188.731 248.596 188.822 247.711 189.004 246.844C189.186 245.977 189.499 245.191 189.944 244.488C190.396 243.785 191.02 243.226 191.816 242.81C192.613 242.394 193.63 242.186 194.866 242.186Z" fill="black"/>
<circle cx="142.5" cy="95" r="95" fill="white"/>
<path d="M113.682 130V121.882H120.155L128.144 95.1956C128.684 93.4368 129.679 92.0324 131.13 90.9825C132.581 89.9326 134.181 89.4091 135.932 89.4118H148.068C149.821 89.4118 151.423 89.9367 152.874 90.9866C154.325 92.0365 155.319 93.4395 155.856 95.1956L163.845 121.882H170.318V130H113.682ZM137.955 81.2941V61H146.045V81.2941H137.955ZM162.025 91.3397L156.26 85.5559L170.622 71.2485L176.285 76.9309L162.025 91.3397ZM166.273 109.706V101.588H186.5V109.706H166.273ZM121.975 91.3397L107.715 76.9309L113.378 71.2485L127.74 85.5559L121.975 91.3397ZM97.5 109.706V101.588H117.727V109.706H97.5Z" fill="#FF0000"/>
</g>
<defs>
<filter id="filter0_d_38_2692" x="0.5" y="0" width="284" height="365" filterUnits="userSpaceOnUse" color-interpolation-filters="sRGB">
<feFlood flood-opacity="0" result="BackgroundImageFix"/>
<feColorMatrix in="SourceAlpha" type="matrix" values="0 0 0 0 0 0 0 0 0 0 0 0 0 0 0 0 0 0 127 0" result="hardAlpha"/>
<feOffset dy="4"/>
<feGaussianBlur stdDeviation="2"/>
<feComposite in2="hardAlpha" operator="out"/>
<feColorMatrix type="matrix" values="0 0 0 0 0 0 0 0 0 0 0 0 0 0 0 0 0 0 0.25 0"/>
<feBlend mode="normal" in2="BackgroundImageFix" result="effect1_dropShadow_38_2692"/>
<feBlend mode="normal" in="SourceGraphic" in2="effect1_dropShadow_38_2692" result="shape"/>
</filter>
</defs>
</svg>
