<svg width="285" height="365" viewBox="0 0 285 365" fill="none" xmlns="http://www.w3.org/2000/svg">
<g filter="url(#filter0_d_38_2618)">
<rect x="4.5" y="95" width="276" height="262" rx="8" fill="white"/>
<circle cx="142.5" cy="95" r="95" fill="white"/>
<path d="M62.9248 214.328L65.9395 204.203H68.875L64.4189 217H62.4854L62.9248 214.328ZM60.1475 204.203L63.1533 214.328L63.6104 217H61.6592L57.2295 204.203H60.1475ZM73.9023 217.176C73.1641 217.176 72.502 217.059 71.916 216.824C71.3301 216.584 70.832 216.253 70.4219 215.831C70.0176 215.409 69.707 214.92 69.4902 214.363C69.2734 213.801 69.165 213.203 69.165 212.57V212.219C69.165 211.498 69.2676 210.839 69.4727 210.241C69.6777 209.644 69.9707 209.125 70.3516 208.686C70.7383 208.246 71.207 207.909 71.7578 207.675C72.3086 207.435 72.9297 207.314 73.6211 207.314C74.2949 207.314 74.8926 207.426 75.4141 207.648C75.9355 207.871 76.3721 208.188 76.7236 208.598C77.0811 209.008 77.3506 209.5 77.5322 210.074C77.7139 210.643 77.8047 211.275 77.8047 211.973V213.027H70.2461V211.34H75.3174V211.146C75.3174 210.795 75.2529 210.481 75.124 210.206C75.001 209.925 74.8135 209.702 74.5615 209.538C74.3096 209.374 73.9873 209.292 73.5947 209.292C73.2607 209.292 72.9736 209.365 72.7334 209.512C72.4932 209.658 72.2969 209.863 72.1445 210.127C71.998 210.391 71.8867 210.701 71.8105 211.059C71.7402 211.41 71.7051 211.797 71.7051 212.219V212.57C71.7051 212.951 71.7578 213.303 71.8633 213.625C71.9746 213.947 72.1299 214.226 72.3291 214.46C72.5342 214.694 72.7803 214.876 73.0674 215.005C73.3604 215.134 73.6914 215.198 74.0605 215.198C74.5176 215.198 74.9424 215.11 75.335 214.935C75.7334 214.753 76.0762 214.48 76.3633 214.117L77.5938 215.453C77.3945 215.74 77.1221 216.016 76.7764 216.279C76.4365 216.543 76.0264 216.76 75.5459 216.93C75.0654 217.094 74.5176 217.176 73.9023 217.176ZM81.7158 203.5V217H79.1846V203.5H81.7158ZM81.3555 211.911H80.6611C80.667 211.249 80.7549 210.64 80.9248 210.083C81.0947 209.521 81.3379 209.034 81.6543 208.624C81.9707 208.208 82.3486 207.886 82.7881 207.657C83.2334 207.429 83.7256 207.314 84.2646 207.314C84.7334 207.314 85.1582 207.382 85.5391 207.517C85.9258 207.646 86.2568 207.856 86.5322 208.149C86.8135 208.437 87.0303 208.814 87.1826 209.283C87.335 209.752 87.4111 210.32 87.4111 210.988V217H84.8623V210.971C84.8623 210.549 84.8008 210.218 84.6777 209.978C84.5605 209.731 84.3877 209.559 84.1592 209.459C83.9365 209.354 83.6611 209.301 83.333 209.301C82.9697 209.301 82.6592 209.368 82.4014 209.503C82.1494 209.638 81.9473 209.825 81.7949 210.065C81.6426 210.3 81.5312 210.575 81.4609 210.892C81.3906 211.208 81.3555 211.548 81.3555 211.911ZM92.0078 207.49V217H89.4678V207.49H92.0078ZM89.3096 205.012C89.3096 204.643 89.4385 204.338 89.6963 204.098C89.9541 203.857 90.2998 203.737 90.7334 203.737C91.1611 203.737 91.5039 203.857 91.7617 204.098C92.0254 204.338 92.1572 204.643 92.1572 205.012C92.1572 205.381 92.0254 205.686 91.7617 205.926C91.5039 206.166 91.1611 206.286 90.7334 206.286C90.2998 206.286 89.9541 206.166 89.6963 205.926C89.4385 205.686 89.3096 205.381 89.3096 205.012ZM98.0283 215.198C98.3389 215.198 98.6143 215.14 98.8545 215.022C99.0947 214.899 99.2822 214.729 99.417 214.513C99.5576 214.29 99.6309 214.029 99.6367 213.73H102.019C102.013 214.398 101.834 214.993 101.482 215.515C101.131 216.03 100.659 216.438 100.067 216.736C99.4756 217.029 98.8135 217.176 98.0811 217.176C97.3428 217.176 96.6982 217.053 96.1475 216.807C95.6025 216.561 95.1484 216.221 94.7852 215.787C94.4219 215.348 94.1494 214.838 93.9678 214.258C93.7861 213.672 93.6953 213.045 93.6953 212.377V212.122C93.6953 211.448 93.7861 210.821 93.9678 210.241C94.1494 209.655 94.4219 209.146 94.7852 208.712C95.1484 208.272 95.6025 207.93 96.1475 207.684C96.6924 207.438 97.3311 207.314 98.0635 207.314C98.8428 207.314 99.5254 207.464 100.111 207.763C100.703 208.062 101.166 208.489 101.5 209.046C101.84 209.597 102.013 210.25 102.019 211.006H99.6367C99.6309 210.689 99.5635 210.402 99.4346 210.145C99.3115 209.887 99.1299 209.682 98.8896 209.529C98.6553 209.371 98.3652 209.292 98.0195 209.292C97.6504 209.292 97.3486 209.371 97.1143 209.529C96.8799 209.682 96.6982 209.893 96.5693 210.162C96.4404 210.426 96.3496 210.728 96.2969 211.067C96.25 211.401 96.2266 211.753 96.2266 212.122V212.377C96.2266 212.746 96.25 213.101 96.2969 213.44C96.3438 213.78 96.4316 214.082 96.5605 214.346C96.6953 214.609 96.8799 214.817 97.1143 214.97C97.3486 215.122 97.6533 215.198 98.0283 215.198ZM106.158 203.5V217H103.618V203.5H106.158ZM112.627 217.176C111.889 217.176 111.227 217.059 110.641 216.824C110.055 216.584 109.557 216.253 109.146 215.831C108.742 215.409 108.432 214.92 108.215 214.363C107.998 213.801 107.89 213.203 107.89 212.57V212.219C107.89 211.498 107.992 210.839 108.197 210.241C108.402 209.644 108.695 209.125 109.076 208.686C109.463 208.246 109.932 207.909 110.482 207.675C111.033 207.435 111.654 207.314 112.346 207.314C113.02 207.314 113.617 207.426 114.139 207.648C114.66 207.871 115.097 208.188 115.448 208.598C115.806 209.008 116.075 209.5 116.257 210.074C116.438 210.643 116.529 211.275 116.529 211.973V213.027H108.971V211.34H114.042V211.146C114.042 210.795 113.978 210.481 113.849 210.206C113.726 209.925 113.538 209.702 113.286 209.538C113.034 209.374 112.712 209.292 112.319 209.292C111.985 209.292 111.698 209.365 111.458 209.512C111.218 209.658 111.021 209.863 110.869 210.127C110.723 210.391 110.611 210.701 110.535 211.059C110.465 211.41 110.43 211.797 110.43 212.219V212.57C110.43 212.951 110.482 213.303 110.588 213.625C110.699 213.947 110.854 214.226 111.054 214.46C111.259 214.694 111.505 214.876 111.792 215.005C112.085 215.134 112.416 215.198 112.785 215.198C113.242 215.198 113.667 215.11 114.06 214.935C114.458 214.753 114.801 214.48 115.088 214.117L116.318 215.453C116.119 215.74 115.847 216.016 115.501 216.279C115.161 216.543 114.751 216.76 114.271 216.93C113.79 217.094 113.242 217.176 112.627 217.176ZM122.611 204.203H127.384C128.362 204.203 129.203 204.35 129.906 204.643C130.615 204.936 131.16 205.369 131.541 205.943C131.922 206.518 132.112 207.224 132.112 208.062C132.112 208.747 131.995 209.336 131.761 209.828C131.532 210.314 131.207 210.722 130.785 211.05C130.369 211.372 129.88 211.63 129.317 211.823L128.482 212.263H124.334L124.316 210.206H127.401C127.864 210.206 128.248 210.124 128.553 209.96C128.857 209.796 129.086 209.567 129.238 209.274C129.396 208.981 129.476 208.642 129.476 208.255C129.476 207.845 129.399 207.49 129.247 207.191C129.095 206.893 128.863 206.664 128.553 206.506C128.242 206.348 127.853 206.269 127.384 206.269H125.248V217H122.611V204.203ZM129.766 217L126.848 211.296L129.634 211.278L132.587 216.877V217H129.766ZM138.361 217.176C137.623 217.176 136.961 217.059 136.375 216.824C135.789 216.584 135.291 216.253 134.881 215.831C134.477 215.409 134.166 214.92 133.949 214.363C133.732 213.801 133.624 213.203 133.624 212.57V212.219C133.624 211.498 133.727 210.839 133.932 210.241C134.137 209.644 134.43 209.125 134.811 208.686C135.197 208.246 135.666 207.909 136.217 207.675C136.768 207.435 137.389 207.314 138.08 207.314C138.754 207.314 139.352 207.426 139.873 207.648C140.395 207.871 140.831 208.188 141.183 208.598C141.54 209.008 141.81 209.5 141.991 210.074C142.173 210.643 142.264 211.275 142.264 211.973V213.027H134.705V211.34H139.776V211.146C139.776 210.795 139.712 210.481 139.583 210.206C139.46 209.925 139.272 209.702 139.021 209.538C138.769 209.374 138.446 209.292 138.054 209.292C137.72 209.292 137.433 209.365 137.192 209.512C136.952 209.658 136.756 209.863 136.604 210.127C136.457 210.391 136.346 210.701 136.27 211.059C136.199 211.41 136.164 211.797 136.164 212.219V212.57C136.164 212.951 136.217 213.303 136.322 213.625C136.434 213.947 136.589 214.226 136.788 214.46C136.993 214.694 137.239 214.876 137.526 215.005C137.819 215.134 138.15 215.198 138.52 215.198C138.977 215.198 139.401 215.11 139.794 214.935C140.192 214.753 140.535 214.48 140.822 214.117L142.053 215.453C141.854 215.74 141.581 216.016 141.235 216.279C140.896 216.543 140.485 216.76 140.005 216.93C139.524 217.094 138.977 217.176 138.361 217.176ZM149.726 207.49H152.02V216.684C152.02 217.551 151.826 218.286 151.439 218.89C151.059 219.499 150.525 219.959 149.84 220.27C149.154 220.586 148.357 220.744 147.449 220.744C147.051 220.744 146.629 220.691 146.184 220.586C145.744 220.48 145.322 220.316 144.918 220.094C144.52 219.871 144.186 219.59 143.916 219.25L145.032 217.756C145.325 218.096 145.665 218.359 146.052 218.547C146.438 218.74 146.866 218.837 147.335 218.837C147.792 218.837 148.179 218.752 148.495 218.582C148.812 218.418 149.055 218.175 149.225 217.853C149.395 217.536 149.479 217.152 149.479 216.701V209.688L149.726 207.49ZM143.327 212.359V212.175C143.327 211.448 143.415 210.789 143.591 210.197C143.772 209.6 144.027 209.087 144.355 208.659C144.689 208.231 145.094 207.9 145.568 207.666C146.043 207.432 146.579 207.314 147.177 207.314C147.81 207.314 148.34 207.432 148.768 207.666C149.195 207.9 149.547 208.234 149.822 208.668C150.098 209.096 150.312 209.603 150.464 210.188C150.622 210.769 150.745 211.404 150.833 212.096V212.5C150.745 213.162 150.613 213.777 150.438 214.346C150.262 214.914 150.03 215.412 149.743 215.84C149.456 216.262 149.099 216.59 148.671 216.824C148.249 217.059 147.745 217.176 147.159 217.176C146.573 217.176 146.043 217.056 145.568 216.815C145.1 216.575 144.698 216.238 144.364 215.805C144.03 215.371 143.772 214.861 143.591 214.275C143.415 213.689 143.327 213.051 143.327 212.359ZM145.858 212.175V212.359C145.858 212.752 145.896 213.118 145.973 213.458C146.049 213.798 146.166 214.1 146.324 214.363C146.488 214.621 146.69 214.823 146.931 214.97C147.177 215.11 147.467 215.181 147.801 215.181C148.264 215.181 148.642 215.084 148.935 214.891C149.228 214.691 149.447 214.419 149.594 214.073C149.74 213.728 149.825 213.329 149.849 212.878V211.727C149.837 211.357 149.787 211.026 149.699 210.733C149.611 210.435 149.488 210.18 149.33 209.969C149.172 209.758 148.967 209.594 148.715 209.477C148.463 209.359 148.164 209.301 147.818 209.301C147.484 209.301 147.194 209.377 146.948 209.529C146.708 209.676 146.506 209.878 146.342 210.136C146.184 210.394 146.063 210.698 145.981 211.05C145.899 211.396 145.858 211.771 145.858 212.175ZM156.66 207.49V217H154.12V207.49H156.66ZM153.962 205.012C153.962 204.643 154.091 204.338 154.349 204.098C154.606 203.857 154.952 203.737 155.386 203.737C155.813 203.737 156.156 203.857 156.414 204.098C156.678 204.338 156.81 204.643 156.81 205.012C156.81 205.381 156.678 205.686 156.414 205.926C156.156 206.166 155.813 206.286 155.386 206.286C154.952 206.286 154.606 206.166 154.349 205.926C154.091 205.686 153.962 205.381 153.962 205.012ZM163.894 214.372C163.894 214.19 163.841 214.026 163.735 213.88C163.63 213.733 163.434 213.599 163.146 213.476C162.865 213.347 162.458 213.229 161.925 213.124C161.444 213.019 160.996 212.887 160.58 212.729C160.17 212.564 159.812 212.368 159.508 212.14C159.209 211.911 158.975 211.642 158.805 211.331C158.635 211.015 158.55 210.654 158.55 210.25C158.55 209.852 158.635 209.477 158.805 209.125C158.98 208.773 159.229 208.463 159.552 208.193C159.88 207.918 160.278 207.704 160.747 207.552C161.222 207.394 161.755 207.314 162.347 207.314C163.173 207.314 163.882 207.446 164.474 207.71C165.071 207.974 165.528 208.337 165.845 208.8C166.167 209.257 166.328 209.778 166.328 210.364H163.797C163.797 210.118 163.744 209.898 163.639 209.705C163.539 209.506 163.381 209.351 163.164 209.239C162.953 209.122 162.678 209.063 162.338 209.063C162.057 209.063 161.813 209.113 161.608 209.213C161.403 209.307 161.245 209.436 161.134 209.6C161.028 209.758 160.976 209.934 160.976 210.127C160.976 210.273 161.005 210.405 161.063 210.522C161.128 210.634 161.23 210.736 161.371 210.83C161.512 210.924 161.693 211.012 161.916 211.094C162.145 211.17 162.426 211.24 162.76 211.305C163.445 211.445 164.058 211.63 164.597 211.858C165.136 212.081 165.563 212.386 165.88 212.772C166.196 213.153 166.354 213.654 166.354 214.275C166.354 214.697 166.261 215.084 166.073 215.436C165.886 215.787 165.616 216.095 165.265 216.358C164.913 216.616 164.491 216.818 163.999 216.965C163.513 217.105 162.965 217.176 162.355 217.176C161.471 217.176 160.721 217.018 160.105 216.701C159.496 216.385 159.033 215.983 158.717 215.497C158.406 215.005 158.251 214.501 158.251 213.985H160.65C160.662 214.331 160.75 214.609 160.914 214.82C161.084 215.031 161.298 215.184 161.556 215.277C161.819 215.371 162.104 215.418 162.408 215.418C162.736 215.418 163.009 215.374 163.226 215.286C163.442 215.192 163.606 215.069 163.718 214.917C163.835 214.759 163.894 214.577 163.894 214.372ZM172.656 207.49V209.283H167.119V207.49H172.656ZM168.49 205.144H171.021V214.135C171.021 214.41 171.057 214.621 171.127 214.768C171.203 214.914 171.314 215.017 171.461 215.075C171.607 215.128 171.792 215.154 172.015 215.154C172.173 215.154 172.313 215.148 172.437 215.137C172.565 215.119 172.674 215.102 172.762 215.084L172.771 216.947C172.554 217.018 172.319 217.073 172.067 217.114C171.815 217.155 171.537 217.176 171.232 217.176C170.676 217.176 170.189 217.085 169.773 216.903C169.363 216.716 169.047 216.417 168.824 216.007C168.602 215.597 168.49 215.058 168.49 214.39V205.144ZM176.629 209.564V217H174.098V207.49H176.479L176.629 209.564ZM179.494 207.429L179.45 209.775C179.327 209.758 179.178 209.743 179.002 209.731C178.832 209.714 178.677 209.705 178.536 209.705C178.179 209.705 177.868 209.752 177.604 209.846C177.347 209.934 177.13 210.065 176.954 210.241C176.784 210.417 176.655 210.631 176.567 210.883C176.485 211.135 176.438 211.422 176.427 211.744L175.917 211.586C175.917 210.971 175.979 210.405 176.102 209.89C176.225 209.368 176.403 208.914 176.638 208.527C176.878 208.141 177.171 207.842 177.517 207.631C177.862 207.42 178.258 207.314 178.703 207.314C178.844 207.314 178.987 207.326 179.134 207.35C179.28 207.367 179.4 207.394 179.494 207.429ZM185.523 214.855V210.619C185.523 210.314 185.474 210.054 185.374 209.837C185.274 209.614 185.119 209.441 184.908 209.318C184.703 209.195 184.437 209.134 184.108 209.134C183.827 209.134 183.584 209.184 183.379 209.283C183.174 209.377 183.016 209.515 182.904 209.696C182.793 209.872 182.737 210.08 182.737 210.32H180.206C180.206 209.916 180.3 209.532 180.487 209.169C180.675 208.806 180.947 208.486 181.305 208.211C181.662 207.93 182.087 207.71 182.579 207.552C183.077 207.394 183.634 207.314 184.249 207.314C184.987 207.314 185.644 207.438 186.218 207.684C186.792 207.93 187.243 208.299 187.571 208.791C187.905 209.283 188.072 209.898 188.072 210.637V214.706C188.072 215.228 188.104 215.655 188.169 215.989C188.233 216.317 188.327 216.604 188.45 216.851V217H185.893C185.77 216.742 185.676 216.42 185.611 216.033C185.553 215.641 185.523 215.248 185.523 214.855ZM185.857 211.208L185.875 212.641H184.46C184.126 212.641 183.836 212.679 183.59 212.755C183.344 212.831 183.142 212.939 182.983 213.08C182.825 213.215 182.708 213.373 182.632 213.555C182.562 213.736 182.526 213.936 182.526 214.152C182.526 214.369 182.576 214.565 182.676 214.741C182.775 214.911 182.919 215.046 183.106 215.146C183.294 215.239 183.514 215.286 183.766 215.286C184.146 215.286 184.478 215.21 184.759 215.058C185.04 214.905 185.257 214.718 185.409 214.495C185.567 214.272 185.649 214.062 185.655 213.862L186.323 214.935C186.229 215.175 186.101 215.424 185.937 215.682C185.778 215.939 185.576 216.183 185.33 216.411C185.084 216.634 184.788 216.818 184.442 216.965C184.097 217.105 183.687 217.176 183.212 217.176C182.608 217.176 182.061 217.056 181.568 216.815C181.082 216.569 180.695 216.232 180.408 215.805C180.127 215.371 179.986 214.879 179.986 214.328C179.986 213.83 180.08 213.388 180.268 213.001C180.455 212.614 180.73 212.289 181.094 212.025C181.463 211.756 181.923 211.554 182.474 211.419C183.024 211.278 183.663 211.208 184.39 211.208H185.857ZM194.682 207.49V209.283H189.145V207.49H194.682ZM190.516 205.144H193.047V214.135C193.047 214.41 193.082 214.621 193.152 214.768C193.229 214.914 193.34 215.017 193.486 215.075C193.633 215.128 193.817 215.154 194.04 215.154C194.198 215.154 194.339 215.148 194.462 215.137C194.591 215.119 194.699 215.102 194.787 215.084L194.796 216.947C194.579 217.018 194.345 217.073 194.093 217.114C193.841 217.155 193.562 217.176 193.258 217.176C192.701 217.176 192.215 217.085 191.799 216.903C191.389 216.716 191.072 216.417 190.85 216.007C190.627 215.597 190.516 215.058 190.516 214.39V205.144ZM198.795 207.49V217H196.255V207.49H198.795ZM196.097 205.012C196.097 204.643 196.226 204.338 196.483 204.098C196.741 203.857 197.087 203.737 197.521 203.737C197.948 203.737 198.291 203.857 198.549 204.098C198.812 204.338 198.944 204.643 198.944 205.012C198.944 205.381 198.812 205.686 198.549 205.926C198.291 206.166 197.948 206.286 197.521 206.286C197.087 206.286 196.741 206.166 196.483 205.926C196.226 205.686 196.097 205.381 196.097 205.012ZM200.482 212.342V212.157C200.482 211.46 200.582 210.818 200.781 210.232C200.98 209.641 201.271 209.128 201.651 208.694C202.032 208.261 202.501 207.924 203.058 207.684C203.614 207.438 204.253 207.314 204.974 207.314C205.694 207.314 206.336 207.438 206.898 207.684C207.461 207.924 207.933 208.261 208.313 208.694C208.7 209.128 208.993 209.641 209.192 210.232C209.392 210.818 209.491 211.46 209.491 212.157V212.342C209.491 213.033 209.392 213.675 209.192 214.267C208.993 214.853 208.7 215.365 208.313 215.805C207.933 216.238 207.464 216.575 206.907 216.815C206.351 217.056 205.712 217.176 204.991 217.176C204.271 217.176 203.629 217.056 203.066 216.815C202.51 216.575 202.038 216.238 201.651 215.805C201.271 215.365 200.98 214.853 200.781 214.267C200.582 213.675 200.482 213.033 200.482 212.342ZM203.014 212.157V212.342C203.014 212.74 203.049 213.112 203.119 213.458C203.189 213.804 203.301 214.108 203.453 214.372C203.611 214.63 203.816 214.832 204.068 214.979C204.32 215.125 204.628 215.198 204.991 215.198C205.343 215.198 205.645 215.125 205.896 214.979C206.148 214.832 206.351 214.63 206.503 214.372C206.655 214.108 206.767 213.804 206.837 213.458C206.913 213.112 206.951 212.74 206.951 212.342V212.157C206.951 211.771 206.913 211.407 206.837 211.067C206.767 210.722 206.652 210.417 206.494 210.153C206.342 209.884 206.14 209.673 205.888 209.521C205.636 209.368 205.331 209.292 204.974 209.292C204.616 209.292 204.312 209.368 204.06 209.521C203.813 209.673 203.611 209.884 203.453 210.153C203.301 210.417 203.189 210.722 203.119 211.067C203.049 211.407 203.014 211.771 203.014 212.157ZM213.525 209.521V217H210.994V207.49H213.367L213.525 209.521ZM213.156 211.911H212.471C212.471 211.208 212.562 210.575 212.743 210.013C212.925 209.444 213.18 208.961 213.508 208.562C213.836 208.158 214.226 207.851 214.677 207.64C215.134 207.423 215.644 207.314 216.206 207.314C216.651 207.314 217.059 207.379 217.428 207.508C217.797 207.637 218.113 207.842 218.377 208.123C218.646 208.404 218.852 208.776 218.992 209.239C219.139 209.702 219.212 210.268 219.212 210.936V217H216.663V210.927C216.663 210.505 216.604 210.177 216.487 209.942C216.37 209.708 216.197 209.544 215.969 209.45C215.746 209.351 215.471 209.301 215.143 209.301C214.803 209.301 214.507 209.368 214.255 209.503C214.009 209.638 213.804 209.825 213.64 210.065C213.481 210.3 213.361 210.575 213.279 210.892C213.197 211.208 213.156 211.548 213.156 211.911ZM226.604 204.203L221.91 218.099H220.029L224.723 204.203H226.604ZM50.6113 243H47.8252L47.8428 240.943H50.6113C51.3027 240.943 51.8857 240.788 52.3604 240.478C52.835 240.161 53.1924 239.701 53.4326 239.098C53.6787 238.494 53.8018 237.765 53.8018 236.909V236.285C53.8018 235.629 53.7314 235.052 53.5908 234.554C53.4561 234.056 53.2539 233.637 52.9844 233.297C52.7148 232.957 52.3838 232.702 51.9912 232.532C51.5986 232.356 51.1475 232.269 50.6377 232.269H47.7725V230.203H50.6377C51.4932 230.203 52.2754 230.35 52.9844 230.643C53.6992 230.93 54.3174 231.343 54.8389 231.882C55.3604 232.421 55.7617 233.065 56.043 233.815C56.3301 234.56 56.4736 235.389 56.4736 236.303V236.909C56.4736 237.817 56.3301 238.646 56.043 239.396C55.7617 240.146 55.3604 240.791 54.8389 241.33C54.3232 241.863 53.7051 242.276 52.9844 242.569C52.2695 242.856 51.4785 243 50.6113 243ZM49.3193 230.203V243H46.6826V230.203H49.3193ZM60.7627 235.564V243H58.2314V233.49H60.6133L60.7627 235.564ZM63.6279 233.429L63.584 235.775C63.4609 235.758 63.3115 235.743 63.1357 235.731C62.9658 235.714 62.8105 235.705 62.6699 235.705C62.3125 235.705 62.002 235.752 61.7383 235.846C61.4805 235.934 61.2637 236.065 61.0879 236.241C60.918 236.417 60.7891 236.631 60.7012 236.883C60.6191 237.135 60.5723 237.422 60.5605 237.744L60.0508 237.586C60.0508 236.971 60.1123 236.405 60.2354 235.89C60.3584 235.368 60.5371 234.914 60.7715 234.527C61.0117 234.141 61.3047 233.842 61.6504 233.631C61.9961 233.42 62.3916 233.314 62.8369 233.314C62.9775 233.314 63.1211 233.326 63.2676 233.35C63.4141 233.367 63.5342 233.394 63.6279 233.429ZM67.4951 233.49V243H64.9551V233.49H67.4951ZM64.7969 231.012C64.7969 230.643 64.9258 230.338 65.1836 230.098C65.4414 229.857 65.7871 229.737 66.2207 229.737C66.6484 229.737 66.9912 229.857 67.249 230.098C67.5127 230.338 67.6445 230.643 67.6445 231.012C67.6445 231.381 67.5127 231.686 67.249 231.926C66.9912 232.166 66.6484 232.286 66.2207 232.286C65.7871 232.286 65.4414 232.166 65.1836 231.926C64.9258 231.686 64.7969 231.381 64.7969 231.012ZM72.8213 241.154L74.9307 233.49H77.5762L74.3682 243H72.7686L72.8213 241.154ZM71.3711 233.49L73.4893 241.163L73.5332 243H71.9248L68.7168 233.49H71.3711ZM82.9639 243.176C82.2256 243.176 81.5635 243.059 80.9775 242.824C80.3916 242.584 79.8936 242.253 79.4834 241.831C79.0791 241.409 78.7686 240.92 78.5518 240.363C78.335 239.801 78.2266 239.203 78.2266 238.57V238.219C78.2266 237.498 78.3291 236.839 78.5342 236.241C78.7393 235.644 79.0322 235.125 79.4131 234.686C79.7998 234.246 80.2686 233.909 80.8193 233.675C81.3701 233.435 81.9912 233.314 82.6826 233.314C83.3564 233.314 83.9541 233.426 84.4756 233.648C84.9971 233.871 85.4336 234.188 85.7852 234.598C86.1426 235.008 86.4121 235.5 86.5938 236.074C86.7754 236.643 86.8662 237.275 86.8662 237.973V239.027H79.3076V237.34H84.3789V237.146C84.3789 236.795 84.3145 236.481 84.1855 236.206C84.0625 235.925 83.875 235.702 83.623 235.538C83.3711 235.374 83.0488 235.292 82.6562 235.292C82.3223 235.292 82.0352 235.365 81.7949 235.512C81.5547 235.658 81.3584 235.863 81.2061 236.127C81.0596 236.391 80.9482 236.701 80.8721 237.059C80.8018 237.41 80.7666 237.797 80.7666 238.219V238.57C80.7666 238.951 80.8193 239.303 80.9248 239.625C81.0361 239.947 81.1914 240.226 81.3906 240.46C81.5957 240.694 81.8418 240.876 82.1289 241.005C82.4219 241.134 82.7529 241.198 83.1221 241.198C83.5791 241.198 84.0039 241.11 84.3965 240.935C84.7949 240.753 85.1377 240.48 85.4248 240.117L86.6553 241.453C86.4561 241.74 86.1836 242.016 85.8379 242.279C85.498 242.543 85.0879 242.76 84.6074 242.93C84.127 243.094 83.5791 243.176 82.9639 243.176ZM90.8389 235.564V243H88.3076V233.49H90.6895L90.8389 235.564ZM93.7041 233.429L93.6602 235.775C93.5371 235.758 93.3877 235.743 93.2119 235.731C93.042 235.714 92.8867 235.705 92.7461 235.705C92.3887 235.705 92.0781 235.752 91.8145 235.846C91.5566 235.934 91.3398 236.065 91.1641 236.241C90.9941 236.417 90.8652 236.631 90.7773 236.883C90.6953 237.135 90.6484 237.422 90.6367 237.744L90.127 237.586C90.127 236.971 90.1885 236.405 90.3115 235.89C90.4346 235.368 90.6133 234.914 90.8477 234.527C91.0879 234.141 91.3809 233.842 91.7266 233.631C92.0723 233.42 92.4678 233.314 92.9131 233.314C93.0537 233.314 93.1973 233.326 93.3438 233.35C93.4902 233.367 93.6104 233.394 93.7041 233.429ZM100.041 240.372C100.041 240.19 99.9883 240.026 99.8828 239.88C99.7773 239.733 99.5811 239.599 99.2939 239.476C99.0127 239.347 98.6055 239.229 98.0723 239.124C97.5918 239.019 97.1436 238.887 96.7275 238.729C96.3174 238.564 95.96 238.368 95.6553 238.14C95.3564 237.911 95.1221 237.642 94.9521 237.331C94.7822 237.015 94.6973 236.654 94.6973 236.25C94.6973 235.852 94.7822 235.477 94.9521 235.125C95.1279 234.773 95.377 234.463 95.6992 234.193C96.0273 233.918 96.4258 233.704 96.8945 233.552C97.3691 233.394 97.9023 233.314 98.4941 233.314C99.3203 233.314 100.029 233.446 100.621 233.71C101.219 233.974 101.676 234.337 101.992 234.8C102.314 235.257 102.476 235.778 102.476 236.364H99.9443C99.9443 236.118 99.8916 235.898 99.7861 235.705C99.6865 235.506 99.5283 235.351 99.3115 235.239C99.1006 235.122 98.8252 235.063 98.4854 235.063C98.2041 235.063 97.9609 235.113 97.7559 235.213C97.5508 235.307 97.3926 235.436 97.2812 235.6C97.1758 235.758 97.123 235.934 97.123 236.127C97.123 236.273 97.1523 236.405 97.2109 236.522C97.2754 236.634 97.3779 236.736 97.5186 236.83C97.6592 236.924 97.8408 237.012 98.0635 237.094C98.292 237.17 98.5732 237.24 98.9072 237.305C99.5928 237.445 100.205 237.63 100.744 237.858C101.283 238.081 101.711 238.386 102.027 238.772C102.344 239.153 102.502 239.654 102.502 240.275C102.502 240.697 102.408 241.084 102.221 241.436C102.033 241.787 101.764 242.095 101.412 242.358C101.061 242.616 100.639 242.818 100.146 242.965C99.6602 243.105 99.1123 243.176 98.5029 243.176C97.6182 243.176 96.8682 243.018 96.2529 242.701C95.6436 242.385 95.1807 241.983 94.8643 241.497C94.5537 241.005 94.3984 240.501 94.3984 239.985H96.7979C96.8096 240.331 96.8975 240.609 97.0615 240.82C97.2314 241.031 97.4453 241.184 97.7031 241.277C97.9668 241.371 98.251 241.418 98.5557 241.418C98.8838 241.418 99.1562 241.374 99.373 241.286C99.5898 241.192 99.7539 241.069 99.8652 240.917C99.9824 240.759 100.041 240.577 100.041 240.372ZM117.013 240.943V243H110.57V240.943H117.013ZM111.423 230.203V243H108.786V230.203H111.423ZM121.038 233.49V243H118.498V233.49H121.038ZM118.34 231.012C118.34 230.643 118.469 230.338 118.727 230.098C118.984 229.857 119.33 229.737 119.764 229.737C120.191 229.737 120.534 229.857 120.792 230.098C121.056 230.338 121.188 230.643 121.188 231.012C121.188 231.381 121.056 231.686 120.792 231.926C120.534 232.166 120.191 232.286 119.764 232.286C119.33 232.286 118.984 232.166 118.727 231.926C118.469 231.686 118.34 231.381 118.34 231.012ZM127.059 241.198C127.369 241.198 127.645 241.14 127.885 241.022C128.125 240.899 128.312 240.729 128.447 240.513C128.588 240.29 128.661 240.029 128.667 239.73H131.049C131.043 240.398 130.864 240.993 130.513 241.515C130.161 242.03 129.689 242.438 129.098 242.736C128.506 243.029 127.844 243.176 127.111 243.176C126.373 243.176 125.729 243.053 125.178 242.807C124.633 242.561 124.179 242.221 123.815 241.787C123.452 241.348 123.18 240.838 122.998 240.258C122.816 239.672 122.726 239.045 122.726 238.377V238.122C122.726 237.448 122.816 236.821 122.998 236.241C123.18 235.655 123.452 235.146 123.815 234.712C124.179 234.272 124.633 233.93 125.178 233.684C125.723 233.438 126.361 233.314 127.094 233.314C127.873 233.314 128.556 233.464 129.142 233.763C129.733 234.062 130.196 234.489 130.53 235.046C130.87 235.597 131.043 236.25 131.049 237.006H128.667C128.661 236.689 128.594 236.402 128.465 236.145C128.342 235.887 128.16 235.682 127.92 235.529C127.686 235.371 127.396 235.292 127.05 235.292C126.681 235.292 126.379 235.371 126.145 235.529C125.91 235.682 125.729 235.893 125.6 236.162C125.471 236.426 125.38 236.728 125.327 237.067C125.28 237.401 125.257 237.753 125.257 238.122V238.377C125.257 238.746 125.28 239.101 125.327 239.44C125.374 239.78 125.462 240.082 125.591 240.346C125.726 240.609 125.91 240.817 126.145 240.97C126.379 241.122 126.684 241.198 127.059 241.198ZM136.894 243.176C136.155 243.176 135.493 243.059 134.907 242.824C134.321 242.584 133.823 242.253 133.413 241.831C133.009 241.409 132.698 240.92 132.481 240.363C132.265 239.801 132.156 239.203 132.156 238.57V238.219C132.156 237.498 132.259 236.839 132.464 236.241C132.669 235.644 132.962 235.125 133.343 234.686C133.729 234.246 134.198 233.909 134.749 233.675C135.3 233.435 135.921 233.314 136.612 233.314C137.286 233.314 137.884 233.426 138.405 233.648C138.927 233.871 139.363 234.188 139.715 234.598C140.072 235.008 140.342 235.5 140.523 236.074C140.705 236.643 140.796 237.275 140.796 237.973V239.027H133.237V237.34H138.309V237.146C138.309 236.795 138.244 236.481 138.115 236.206C137.992 235.925 137.805 235.702 137.553 235.538C137.301 235.374 136.979 235.292 136.586 235.292C136.252 235.292 135.965 235.365 135.725 235.512C135.484 235.658 135.288 235.863 135.136 236.127C134.989 236.391 134.878 236.701 134.802 237.059C134.731 237.41 134.696 237.797 134.696 238.219V238.57C134.696 238.951 134.749 239.303 134.854 239.625C134.966 239.947 135.121 240.226 135.32 240.46C135.525 240.694 135.771 240.876 136.059 241.005C136.352 241.134 136.683 241.198 137.052 241.198C137.509 241.198 137.934 241.11 138.326 240.935C138.725 240.753 139.067 240.48 139.354 240.117L140.585 241.453C140.386 241.74 140.113 242.016 139.768 242.279C139.428 242.543 139.018 242.76 138.537 242.93C138.057 243.094 137.509 243.176 136.894 243.176ZM144.716 235.521V243H142.185V233.49H144.558L144.716 235.521ZM144.347 237.911H143.661C143.661 237.208 143.752 236.575 143.934 236.013C144.115 235.444 144.37 234.961 144.698 234.562C145.026 234.158 145.416 233.851 145.867 233.64C146.324 233.423 146.834 233.314 147.396 233.314C147.842 233.314 148.249 233.379 148.618 233.508C148.987 233.637 149.304 233.842 149.567 234.123C149.837 234.404 150.042 234.776 150.183 235.239C150.329 235.702 150.402 236.268 150.402 236.936V243H147.854V236.927C147.854 236.505 147.795 236.177 147.678 235.942C147.561 235.708 147.388 235.544 147.159 235.45C146.937 235.351 146.661 235.301 146.333 235.301C145.993 235.301 145.697 235.368 145.445 235.503C145.199 235.638 144.994 235.825 144.83 236.065C144.672 236.3 144.552 236.575 144.47 236.892C144.388 237.208 144.347 237.548 144.347 237.911ZM157.469 240.372C157.469 240.19 157.416 240.026 157.311 239.88C157.205 239.733 157.009 239.599 156.722 239.476C156.44 239.347 156.033 239.229 155.5 239.124C155.02 239.019 154.571 238.887 154.155 238.729C153.745 238.564 153.388 238.368 153.083 238.14C152.784 237.911 152.55 237.642 152.38 237.331C152.21 237.015 152.125 236.654 152.125 236.25C152.125 235.852 152.21 235.477 152.38 235.125C152.556 234.773 152.805 234.463 153.127 234.193C153.455 233.918 153.854 233.704 154.322 233.552C154.797 233.394 155.33 233.314 155.922 233.314C156.748 233.314 157.457 233.446 158.049 233.71C158.646 233.974 159.104 234.337 159.42 234.8C159.742 235.257 159.903 235.778 159.903 236.364H157.372C157.372 236.118 157.319 235.898 157.214 235.705C157.114 235.506 156.956 235.351 156.739 235.239C156.528 235.122 156.253 235.063 155.913 235.063C155.632 235.063 155.389 235.113 155.184 235.213C154.979 235.307 154.82 235.436 154.709 235.6C154.604 235.758 154.551 235.934 154.551 236.127C154.551 236.273 154.58 236.405 154.639 236.522C154.703 236.634 154.806 236.736 154.946 236.83C155.087 236.924 155.269 237.012 155.491 237.094C155.72 237.17 156.001 237.24 156.335 237.305C157.021 237.445 157.633 237.63 158.172 237.858C158.711 238.081 159.139 238.386 159.455 238.772C159.771 239.153 159.93 239.654 159.93 240.275C159.93 240.697 159.836 241.084 159.648 241.436C159.461 241.787 159.191 242.095 158.84 242.358C158.488 242.616 158.066 242.818 157.574 242.965C157.088 243.105 156.54 243.176 155.931 243.176C155.046 243.176 154.296 243.018 153.681 242.701C153.071 242.385 152.608 241.983 152.292 241.497C151.981 241.005 151.826 240.501 151.826 239.985H154.226C154.237 240.331 154.325 240.609 154.489 240.82C154.659 241.031 154.873 241.184 155.131 241.277C155.395 241.371 155.679 241.418 155.983 241.418C156.312 241.418 156.584 241.374 156.801 241.286C157.018 241.192 157.182 241.069 157.293 240.917C157.41 240.759 157.469 240.577 157.469 240.372ZM165.95 243.176C165.212 243.176 164.55 243.059 163.964 242.824C163.378 242.584 162.88 242.253 162.47 241.831C162.065 241.409 161.755 240.92 161.538 240.363C161.321 239.801 161.213 239.203 161.213 238.57V238.219C161.213 237.498 161.315 236.839 161.521 236.241C161.726 235.644 162.019 235.125 162.399 234.686C162.786 234.246 163.255 233.909 163.806 233.675C164.356 233.435 164.978 233.314 165.669 233.314C166.343 233.314 166.94 233.426 167.462 233.648C167.983 233.871 168.42 234.188 168.771 234.598C169.129 235.008 169.398 235.5 169.58 236.074C169.762 236.643 169.853 237.275 169.853 237.973V239.027H162.294V237.34H167.365V237.146C167.365 236.795 167.301 236.481 167.172 236.206C167.049 235.925 166.861 235.702 166.609 235.538C166.357 235.374 166.035 235.292 165.643 235.292C165.309 235.292 165.021 235.365 164.781 235.512C164.541 235.658 164.345 235.863 164.192 236.127C164.046 236.391 163.935 236.701 163.858 237.059C163.788 237.41 163.753 237.797 163.753 238.219V238.57C163.753 238.951 163.806 239.303 163.911 239.625C164.022 239.947 164.178 240.226 164.377 240.46C164.582 240.694 164.828 240.876 165.115 241.005C165.408 241.134 165.739 241.198 166.108 241.198C166.565 241.198 166.99 241.11 167.383 240.935C167.781 240.753 168.124 240.48 168.411 240.117L169.642 241.453C169.442 241.74 169.17 242.016 168.824 242.279C168.484 242.543 168.074 242.76 167.594 242.93C167.113 243.094 166.565 243.176 165.95 243.176ZM175.891 237.99V237.797C175.891 236.561 176.02 235.438 176.277 234.431C176.541 233.423 176.887 232.538 177.314 231.776C177.748 231.009 178.22 230.373 178.729 229.869C179.239 229.365 179.746 229.002 180.25 228.779L180.733 230.115C180.399 230.361 180.071 230.701 179.749 231.135C179.427 231.562 179.134 232.09 178.87 232.717C178.612 233.338 178.404 234.07 178.246 234.914C178.088 235.752 178.009 236.707 178.009 237.779V238.008C178.009 239.08 178.088 240.038 178.246 240.882C178.404 241.72 178.612 242.452 178.87 243.079C179.134 243.712 179.427 244.245 179.749 244.679C180.071 245.112 180.399 245.455 180.733 245.707L180.25 247.008C179.746 246.785 179.239 246.422 178.729 245.918C178.22 245.42 177.748 244.787 177.314 244.02C176.887 243.258 176.541 242.373 176.277 241.365C176.02 240.352 175.891 239.227 175.891 237.99ZM183.432 230.203H185.664L188.951 239.599L192.238 230.203H194.471L189.848 243H188.055L183.432 230.203ZM182.228 230.203H184.451L184.855 239.361V243H182.228V230.203ZM193.451 230.203H195.684V243H193.047V239.361L193.451 230.203ZM202.609 240.328L205.624 230.203H208.56L204.104 243H202.17L202.609 240.328ZM199.832 230.203L202.838 240.328L203.295 243H201.344L196.914 230.203H199.832ZM214.29 232.392L210.81 243H208.006L212.761 230.203H214.545L214.29 232.392ZM217.182 243L213.692 232.392L213.411 230.203H215.213L219.994 243H217.182ZM217.023 238.236V240.302H210.265V238.236H217.023ZM226.384 232.392L222.903 243H220.1L224.854 230.203H226.639L226.384 232.392ZM229.275 243L225.786 232.392L225.505 230.203H227.307L232.088 243H229.275ZM229.117 238.236V240.302H222.358V238.236H229.117ZM237.467 237.797V237.99C237.467 239.186 237.332 240.287 237.062 241.295C236.793 242.297 236.436 243.185 235.99 243.958C235.551 244.737 235.067 245.385 234.54 245.9C234.019 246.416 233.497 246.785 232.976 247.008L232.483 245.707C232.817 245.461 233.143 245.121 233.459 244.688C233.781 244.254 234.074 243.721 234.338 243.088C234.602 242.461 234.81 241.726 234.962 240.882C235.12 240.038 235.199 239.08 235.199 238.008V237.779C235.199 236.707 235.12 235.749 234.962 234.905C234.804 234.062 234.59 233.326 234.32 232.699C234.057 232.066 233.764 231.536 233.441 231.108C233.125 230.675 232.806 230.335 232.483 230.089L232.976 228.779C233.497 229.002 234.019 229.374 234.54 229.896C235.067 230.411 235.551 231.056 235.99 231.829C236.436 232.603 236.793 233.493 237.062 234.501C237.332 235.503 237.467 236.602 237.467 237.797Z" fill="#0066CC"/>
<path d="M95.4092 271.582V273.533C95.4092 274.582 95.3154 275.467 95.1279 276.188C94.9404 276.908 94.6709 277.488 94.3193 277.928C93.9678 278.367 93.543 278.687 93.0449 278.886C92.5527 279.079 91.9961 279.176 91.375 279.176C90.8828 279.176 90.4287 279.114 90.0127 278.991C89.5967 278.868 89.2217 278.672 88.8877 278.402C88.5596 278.127 88.2783 277.77 88.0439 277.33C87.8096 276.891 87.6309 276.357 87.5078 275.73C87.3848 275.104 87.3232 274.371 87.3232 273.533V271.582C87.3232 270.533 87.417 269.654 87.6045 268.945C87.7979 268.236 88.0703 267.668 88.4219 267.24C88.7734 266.807 89.1953 266.496 89.6875 266.309C90.1855 266.121 90.7422 266.027 91.3574 266.027C91.8555 266.027 92.3125 266.089 92.7285 266.212C93.1504 266.329 93.5254 266.52 93.8535 266.783C94.1816 267.041 94.46 267.387 94.6885 267.82C94.9229 268.248 95.1016 268.772 95.2246 269.394C95.3477 270.015 95.4092 270.744 95.4092 271.582ZM93.7744 273.797V271.31C93.7744 270.735 93.7393 270.231 93.6689 269.798C93.6045 269.358 93.5078 268.983 93.3789 268.673C93.25 268.362 93.0859 268.11 92.8867 267.917C92.6934 267.724 92.4678 267.583 92.21 267.495C91.958 267.401 91.6738 267.354 91.3574 267.354C90.9707 267.354 90.6279 267.428 90.3291 267.574C90.0303 267.715 89.7783 267.94 89.5732 268.251C89.374 268.562 89.2217 268.969 89.1162 269.473C89.0107 269.977 88.958 270.589 88.958 271.31V273.797C88.958 274.371 88.9902 274.878 89.0547 275.317C89.125 275.757 89.2275 276.138 89.3623 276.46C89.4971 276.776 89.6611 277.037 89.8545 277.242C90.0479 277.447 90.2705 277.6 90.5225 277.699C90.7803 277.793 91.0645 277.84 91.375 277.84C91.7734 277.84 92.1221 277.764 92.4209 277.611C92.7197 277.459 92.9688 277.222 93.168 276.899C93.373 276.571 93.5254 276.152 93.625 275.643C93.7246 275.127 93.7744 274.512 93.7744 273.797ZM105.569 275.537C105.569 276.316 105.388 276.979 105.024 277.523C104.667 278.062 104.181 278.473 103.565 278.754C102.956 279.035 102.268 279.176 101.5 279.176C100.732 279.176 100.041 279.035 99.4258 278.754C98.8105 278.473 98.3242 278.062 97.9668 277.523C97.6094 276.979 97.4307 276.316 97.4307 275.537C97.4307 275.027 97.5273 274.562 97.7207 274.14C97.9199 273.712 98.1982 273.34 98.5557 273.023C98.9189 272.707 99.3467 272.464 99.8389 272.294C100.337 272.118 100.885 272.03 101.482 272.03C102.268 272.03 102.968 272.183 103.583 272.487C104.198 272.786 104.682 273.199 105.033 273.727C105.391 274.254 105.569 274.857 105.569 275.537ZM103.935 275.502C103.935 275.027 103.832 274.608 103.627 274.245C103.422 273.876 103.135 273.589 102.766 273.384C102.396 273.179 101.969 273.076 101.482 273.076C100.984 273.076 100.554 273.179 100.19 273.384C99.833 273.589 99.5547 273.876 99.3555 274.245C99.1562 274.608 99.0566 275.027 99.0566 275.502C99.0566 275.994 99.1533 276.416 99.3467 276.768C99.5459 277.113 99.8271 277.38 100.19 277.567C100.56 277.749 100.996 277.84 101.5 277.84C102.004 277.84 102.438 277.749 102.801 277.567C103.164 277.38 103.442 277.113 103.636 276.768C103.835 276.416 103.935 275.994 103.935 275.502ZM105.271 269.534C105.271 270.155 105.106 270.715 104.778 271.213C104.45 271.711 104.002 272.104 103.434 272.391C102.865 272.678 102.221 272.821 101.5 272.821C100.768 272.821 100.114 272.678 99.54 272.391C98.9717 272.104 98.5264 271.711 98.2041 271.213C97.8818 270.715 97.7207 270.155 97.7207 269.534C97.7207 268.79 97.8818 268.157 98.2041 267.636C98.5322 267.114 98.9805 266.716 99.5488 266.44C100.117 266.165 100.765 266.027 101.491 266.027C102.224 266.027 102.874 266.165 103.442 266.44C104.011 266.716 104.456 267.114 104.778 267.636C105.106 268.157 105.271 268.79 105.271 269.534ZM103.645 269.561C103.645 269.133 103.554 268.755 103.372 268.427C103.19 268.099 102.938 267.841 102.616 267.653C102.294 267.46 101.919 267.363 101.491 267.363C101.063 267.363 100.688 267.454 100.366 267.636C100.05 267.812 99.8008 268.063 99.6191 268.392C99.4434 268.72 99.3555 269.109 99.3555 269.561C99.3555 270 99.4434 270.384 99.6191 270.712C99.8008 271.04 100.053 271.295 100.375 271.477C100.697 271.658 101.072 271.749 101.5 271.749C101.928 271.749 102.3 271.658 102.616 271.477C102.938 271.295 103.19 271.04 103.372 270.712C103.554 270.384 103.645 270 103.645 269.561ZM115.659 271.582V273.533C115.659 274.582 115.565 275.467 115.378 276.188C115.19 276.908 114.921 277.488 114.569 277.928C114.218 278.367 113.793 278.687 113.295 278.886C112.803 279.079 112.246 279.176 111.625 279.176C111.133 279.176 110.679 279.114 110.263 278.991C109.847 278.868 109.472 278.672 109.138 278.402C108.81 278.127 108.528 277.77 108.294 277.33C108.06 276.891 107.881 276.357 107.758 275.73C107.635 275.104 107.573 274.371 107.573 273.533V271.582C107.573 270.533 107.667 269.654 107.854 268.945C108.048 268.236 108.32 267.668 108.672 267.24C109.023 266.807 109.445 266.496 109.938 266.309C110.436 266.121 110.992 266.027 111.607 266.027C112.105 266.027 112.562 266.089 112.979 266.212C113.4 266.329 113.775 266.52 114.104 266.783C114.432 267.041 114.71 267.387 114.938 267.82C115.173 268.248 115.352 268.772 115.475 269.394C115.598 270.015 115.659 270.744 115.659 271.582ZM114.024 273.797V271.31C114.024 270.735 113.989 270.231 113.919 269.798C113.854 269.358 113.758 268.983 113.629 268.673C113.5 268.362 113.336 268.11 113.137 267.917C112.943 267.724 112.718 267.583 112.46 267.495C112.208 267.401 111.924 267.354 111.607 267.354C111.221 267.354 110.878 267.428 110.579 267.574C110.28 267.715 110.028 267.94 109.823 268.251C109.624 268.562 109.472 268.969 109.366 269.473C109.261 269.977 109.208 270.589 109.208 271.31V273.797C109.208 274.371 109.24 274.878 109.305 275.317C109.375 275.757 109.478 276.138 109.612 276.46C109.747 276.776 109.911 277.037 110.104 277.242C110.298 277.447 110.521 277.6 110.772 277.699C111.03 277.793 111.314 277.84 111.625 277.84C112.023 277.84 112.372 277.764 112.671 277.611C112.97 277.459 113.219 277.222 113.418 276.899C113.623 276.571 113.775 276.152 113.875 275.643C113.975 275.127 114.024 274.512 114.024 273.797ZM126.136 277.664V279H117.76V277.831L121.952 273.164C122.468 272.59 122.866 272.104 123.147 271.705C123.435 271.301 123.634 270.94 123.745 270.624C123.862 270.302 123.921 269.974 123.921 269.64C123.921 269.218 123.833 268.837 123.657 268.497C123.487 268.151 123.235 267.876 122.901 267.671C122.567 267.466 122.163 267.363 121.688 267.363C121.12 267.363 120.646 267.475 120.265 267.697C119.89 267.914 119.608 268.219 119.421 268.611C119.233 269.004 119.14 269.455 119.14 269.965H117.514C117.514 269.244 117.672 268.585 117.988 267.987C118.305 267.39 118.773 266.915 119.395 266.563C120.016 266.206 120.78 266.027 121.688 266.027C122.497 266.027 123.188 266.171 123.763 266.458C124.337 266.739 124.776 267.138 125.081 267.653C125.392 268.163 125.547 268.761 125.547 269.446C125.547 269.821 125.482 270.202 125.354 270.589C125.23 270.97 125.058 271.351 124.835 271.731C124.618 272.112 124.363 272.487 124.07 272.856C123.783 273.226 123.476 273.589 123.147 273.946L119.72 277.664H126.136ZM129.493 277.638H129.66C130.598 277.638 131.359 277.506 131.945 277.242C132.531 276.979 132.982 276.624 133.299 276.179C133.615 275.733 133.832 275.232 133.949 274.676C134.066 274.113 134.125 273.536 134.125 272.944V270.984C134.125 270.404 134.058 269.889 133.923 269.438C133.794 268.986 133.612 268.608 133.378 268.304C133.149 267.999 132.889 267.768 132.596 267.609C132.303 267.451 131.992 267.372 131.664 267.372C131.289 267.372 130.952 267.448 130.653 267.601C130.36 267.747 130.111 267.955 129.906 268.225C129.707 268.494 129.555 268.811 129.449 269.174C129.344 269.537 129.291 269.933 129.291 270.36C129.291 270.741 129.338 271.11 129.432 271.468C129.525 271.825 129.669 272.147 129.862 272.435C130.056 272.722 130.296 272.95 130.583 273.12C130.876 273.284 131.219 273.366 131.611 273.366C131.975 273.366 132.314 273.296 132.631 273.155C132.953 273.009 133.237 272.812 133.483 272.566C133.735 272.314 133.935 272.03 134.081 271.714C134.233 271.397 134.321 271.066 134.345 270.721H135.118C135.118 271.207 135.021 271.688 134.828 272.162C134.641 272.631 134.377 273.059 134.037 273.445C133.697 273.832 133.299 274.143 132.842 274.377C132.385 274.605 131.887 274.72 131.348 274.72C130.715 274.72 130.167 274.597 129.704 274.351C129.241 274.104 128.86 273.776 128.562 273.366C128.269 272.956 128.049 272.499 127.902 271.995C127.762 271.485 127.691 270.97 127.691 270.448C127.691 269.839 127.776 269.268 127.946 268.734C128.116 268.201 128.368 267.732 128.702 267.328C129.036 266.918 129.449 266.599 129.941 266.37C130.439 266.142 131.014 266.027 131.664 266.027C132.396 266.027 133.021 266.174 133.536 266.467C134.052 266.76 134.471 267.152 134.793 267.645C135.121 268.137 135.361 268.69 135.514 269.306C135.666 269.921 135.742 270.554 135.742 271.204V271.793C135.742 272.455 135.698 273.129 135.61 273.814C135.528 274.494 135.367 275.145 135.127 275.766C134.893 276.387 134.55 276.943 134.099 277.436C133.647 277.922 133.059 278.309 132.332 278.596C131.611 278.877 130.721 279.018 129.66 279.018H129.493V277.638ZM146.386 277.664V279H138.01V277.831L142.202 273.164C142.718 272.59 143.116 272.104 143.397 271.705C143.685 271.301 143.884 270.94 143.995 270.624C144.112 270.302 144.171 269.974 144.171 269.64C144.171 269.218 144.083 268.837 143.907 268.497C143.737 268.151 143.485 267.876 143.151 267.671C142.817 267.466 142.413 267.363 141.938 267.363C141.37 267.363 140.896 267.475 140.515 267.697C140.14 267.914 139.858 268.219 139.671 268.611C139.483 269.004 139.39 269.455 139.39 269.965H137.764C137.764 269.244 137.922 268.585 138.238 267.987C138.555 267.39 139.023 266.915 139.645 266.563C140.266 266.206 141.03 266.027 141.938 266.027C142.747 266.027 143.438 266.171 144.013 266.458C144.587 266.739 145.026 267.138 145.331 267.653C145.642 268.163 145.797 268.761 145.797 269.446C145.797 269.821 145.732 270.202 145.604 270.589C145.48 270.97 145.308 271.351 145.085 271.731C144.868 272.112 144.613 272.487 144.32 272.856C144.033 273.226 143.726 273.589 143.397 273.946L139.97 277.664H146.386ZM149.743 277.638H149.91C150.848 277.638 151.609 277.506 152.195 277.242C152.781 276.979 153.232 276.624 153.549 276.179C153.865 275.733 154.082 275.232 154.199 274.676C154.316 274.113 154.375 273.536 154.375 272.944V270.984C154.375 270.404 154.308 269.889 154.173 269.438C154.044 268.986 153.862 268.608 153.628 268.304C153.399 267.999 153.139 267.768 152.846 267.609C152.553 267.451 152.242 267.372 151.914 267.372C151.539 267.372 151.202 267.448 150.903 267.601C150.61 267.747 150.361 267.955 150.156 268.225C149.957 268.494 149.805 268.811 149.699 269.174C149.594 269.537 149.541 269.933 149.541 270.36C149.541 270.741 149.588 271.11 149.682 271.468C149.775 271.825 149.919 272.147 150.112 272.435C150.306 272.722 150.546 272.95 150.833 273.12C151.126 273.284 151.469 273.366 151.861 273.366C152.225 273.366 152.564 273.296 152.881 273.155C153.203 273.009 153.487 272.812 153.733 272.566C153.985 272.314 154.185 272.03 154.331 271.714C154.483 271.397 154.571 271.066 154.595 270.721H155.368C155.368 271.207 155.271 271.688 155.078 272.162C154.891 272.631 154.627 273.059 154.287 273.445C153.947 273.832 153.549 274.143 153.092 274.377C152.635 274.605 152.137 274.72 151.598 274.72C150.965 274.72 150.417 274.597 149.954 274.351C149.491 274.104 149.11 273.776 148.812 273.366C148.519 272.956 148.299 272.499 148.152 271.995C148.012 271.485 147.941 270.97 147.941 270.448C147.941 269.839 148.026 269.268 148.196 268.734C148.366 268.201 148.618 267.732 148.952 267.328C149.286 266.918 149.699 266.599 150.191 266.37C150.689 266.142 151.264 266.027 151.914 266.027C152.646 266.027 153.271 266.174 153.786 266.467C154.302 266.76 154.721 267.152 155.043 267.645C155.371 268.137 155.611 268.69 155.764 269.306C155.916 269.921 155.992 270.554 155.992 271.204V271.793C155.992 272.455 155.948 273.129 155.86 273.814C155.778 274.494 155.617 275.145 155.377 275.766C155.143 276.387 154.8 276.943 154.349 277.436C153.897 277.922 153.309 278.309 152.582 278.596C151.861 278.877 150.971 279.018 149.91 279.018H149.743V277.638ZM160.624 271.802H161.784C162.353 271.802 162.821 271.708 163.19 271.521C163.565 271.327 163.844 271.066 164.025 270.738C164.213 270.404 164.307 270.029 164.307 269.613C164.307 269.121 164.225 268.708 164.061 268.374C163.896 268.04 163.65 267.788 163.322 267.618C162.994 267.448 162.578 267.363 162.074 267.363C161.617 267.363 161.213 267.454 160.861 267.636C160.516 267.812 160.243 268.063 160.044 268.392C159.851 268.72 159.754 269.106 159.754 269.552H158.128C158.128 268.901 158.292 268.31 158.62 267.776C158.948 267.243 159.408 266.818 160 266.502C160.598 266.186 161.289 266.027 162.074 266.027C162.848 266.027 163.524 266.165 164.104 266.44C164.685 266.71 165.136 267.114 165.458 267.653C165.78 268.187 165.941 268.852 165.941 269.648C165.941 269.971 165.865 270.316 165.713 270.686C165.566 271.049 165.335 271.389 165.019 271.705C164.708 272.021 164.304 272.282 163.806 272.487C163.308 272.687 162.71 272.786 162.013 272.786H160.624V271.802ZM160.624 273.138V272.162H162.013C162.827 272.162 163.501 272.259 164.034 272.452C164.567 272.646 164.986 272.903 165.291 273.226C165.602 273.548 165.818 273.902 165.941 274.289C166.07 274.67 166.135 275.051 166.135 275.432C166.135 276.029 166.032 276.56 165.827 277.022C165.628 277.485 165.344 277.878 164.975 278.2C164.611 278.522 164.184 278.766 163.691 278.93C163.199 279.094 162.663 279.176 162.083 279.176C161.526 279.176 161.002 279.097 160.51 278.938C160.023 278.78 159.593 278.552 159.218 278.253C158.843 277.948 158.55 277.576 158.339 277.137C158.128 276.691 158.022 276.185 158.022 275.616H159.648C159.648 276.062 159.745 276.451 159.938 276.785C160.138 277.119 160.419 277.38 160.782 277.567C161.151 277.749 161.585 277.84 162.083 277.84C162.581 277.84 163.009 277.755 163.366 277.585C163.729 277.409 164.008 277.146 164.201 276.794C164.4 276.442 164.5 276 164.5 275.467C164.5 274.934 164.389 274.497 164.166 274.157C163.943 273.812 163.627 273.557 163.217 273.393C162.812 273.223 162.335 273.138 161.784 273.138H160.624ZM176.409 271.582V273.533C176.409 274.582 176.315 275.467 176.128 276.188C175.94 276.908 175.671 277.488 175.319 277.928C174.968 278.367 174.543 278.687 174.045 278.886C173.553 279.079 172.996 279.176 172.375 279.176C171.883 279.176 171.429 279.114 171.013 278.991C170.597 278.868 170.222 278.672 169.888 278.402C169.56 278.127 169.278 277.77 169.044 277.33C168.81 276.891 168.631 276.357 168.508 275.73C168.385 275.104 168.323 274.371 168.323 273.533V271.582C168.323 270.533 168.417 269.654 168.604 268.945C168.798 268.236 169.07 267.668 169.422 267.24C169.773 266.807 170.195 266.496 170.688 266.309C171.186 266.121 171.742 266.027 172.357 266.027C172.855 266.027 173.312 266.089 173.729 266.212C174.15 266.329 174.525 266.52 174.854 266.783C175.182 267.041 175.46 267.387 175.688 267.82C175.923 268.248 176.102 268.772 176.225 269.394C176.348 270.015 176.409 270.744 176.409 271.582ZM174.774 273.797V271.31C174.774 270.735 174.739 270.231 174.669 269.798C174.604 269.358 174.508 268.983 174.379 268.673C174.25 268.362 174.086 268.11 173.887 267.917C173.693 267.724 173.468 267.583 173.21 267.495C172.958 267.401 172.674 267.354 172.357 267.354C171.971 267.354 171.628 267.428 171.329 267.574C171.03 267.715 170.778 267.94 170.573 268.251C170.374 268.562 170.222 268.969 170.116 269.473C170.011 269.977 169.958 270.589 169.958 271.31V273.797C169.958 274.371 169.99 274.878 170.055 275.317C170.125 275.757 170.228 276.138 170.362 276.46C170.497 276.776 170.661 277.037 170.854 277.242C171.048 277.447 171.271 277.6 171.522 277.699C171.78 277.793 172.064 277.84 172.375 277.84C172.773 277.84 173.122 277.764 173.421 277.611C173.72 277.459 173.969 277.222 174.168 276.899C174.373 276.571 174.525 276.152 174.625 275.643C174.725 275.127 174.774 274.512 174.774 273.797ZM180.118 277.638H180.285C181.223 277.638 181.984 277.506 182.57 277.242C183.156 276.979 183.607 276.624 183.924 276.179C184.24 275.733 184.457 275.232 184.574 274.676C184.691 274.113 184.75 273.536 184.75 272.944V270.984C184.75 270.404 184.683 269.889 184.548 269.438C184.419 268.986 184.237 268.608 184.003 268.304C183.774 267.999 183.514 267.768 183.221 267.609C182.928 267.451 182.617 267.372 182.289 267.372C181.914 267.372 181.577 267.448 181.278 267.601C180.985 267.747 180.736 267.955 180.531 268.225C180.332 268.494 180.18 268.811 180.074 269.174C179.969 269.537 179.916 269.933 179.916 270.36C179.916 270.741 179.963 271.11 180.057 271.468C180.15 271.825 180.294 272.147 180.487 272.435C180.681 272.722 180.921 272.95 181.208 273.12C181.501 273.284 181.844 273.366 182.236 273.366C182.6 273.366 182.939 273.296 183.256 273.155C183.578 273.009 183.862 272.812 184.108 272.566C184.36 272.314 184.56 272.03 184.706 271.714C184.858 271.397 184.946 271.066 184.97 270.721H185.743C185.743 271.207 185.646 271.688 185.453 272.162C185.266 272.631 185.002 273.059 184.662 273.445C184.322 273.832 183.924 274.143 183.467 274.377C183.01 274.605 182.512 274.72 181.973 274.72C181.34 274.72 180.792 274.597 180.329 274.351C179.866 274.104 179.485 273.776 179.187 273.366C178.894 272.956 178.674 272.499 178.527 271.995C178.387 271.485 178.316 270.97 178.316 270.448C178.316 269.839 178.401 269.268 178.571 268.734C178.741 268.201 178.993 267.732 179.327 267.328C179.661 266.918 180.074 266.599 180.566 266.37C181.064 266.142 181.639 266.027 182.289 266.027C183.021 266.027 183.646 266.174 184.161 266.467C184.677 266.76 185.096 267.152 185.418 267.645C185.746 268.137 185.986 268.69 186.139 269.306C186.291 269.921 186.367 270.554 186.367 271.204V271.793C186.367 272.455 186.323 273.129 186.235 273.814C186.153 274.494 185.992 275.145 185.752 275.766C185.518 276.387 185.175 276.943 184.724 277.436C184.272 277.922 183.684 278.309 182.957 278.596C182.236 278.877 181.346 279.018 180.285 279.018H180.118V277.638ZM190.243 277.638H190.41C191.348 277.638 192.109 277.506 192.695 277.242C193.281 276.979 193.732 276.624 194.049 276.179C194.365 275.733 194.582 275.232 194.699 274.676C194.816 274.113 194.875 273.536 194.875 272.944V270.984C194.875 270.404 194.808 269.889 194.673 269.438C194.544 268.986 194.362 268.608 194.128 268.304C193.899 267.999 193.639 267.768 193.346 267.609C193.053 267.451 192.742 267.372 192.414 267.372C192.039 267.372 191.702 267.448 191.403 267.601C191.11 267.747 190.861 267.955 190.656 268.225C190.457 268.494 190.305 268.811 190.199 269.174C190.094 269.537 190.041 269.933 190.041 270.36C190.041 270.741 190.088 271.11 190.182 271.468C190.275 271.825 190.419 272.147 190.612 272.435C190.806 272.722 191.046 272.95 191.333 273.12C191.626 273.284 191.969 273.366 192.361 273.366C192.725 273.366 193.064 273.296 193.381 273.155C193.703 273.009 193.987 272.812 194.233 272.566C194.485 272.314 194.685 272.03 194.831 271.714C194.983 271.397 195.071 271.066 195.095 270.721H195.868C195.868 271.207 195.771 271.688 195.578 272.162C195.391 272.631 195.127 273.059 194.787 273.445C194.447 273.832 194.049 274.143 193.592 274.377C193.135 274.605 192.637 274.72 192.098 274.72C191.465 274.72 190.917 274.597 190.454 274.351C189.991 274.104 189.61 273.776 189.312 273.366C189.019 272.956 188.799 272.499 188.652 271.995C188.512 271.485 188.441 270.97 188.441 270.448C188.441 269.839 188.526 269.268 188.696 268.734C188.866 268.201 189.118 267.732 189.452 267.328C189.786 266.918 190.199 266.599 190.691 266.37C191.189 266.142 191.764 266.027 192.414 266.027C193.146 266.027 193.771 266.174 194.286 266.467C194.802 266.76 195.221 267.152 195.543 267.645C195.871 268.137 196.111 268.69 196.264 269.306C196.416 269.921 196.492 270.554 196.492 271.204V271.793C196.492 272.455 196.448 273.129 196.36 273.814C196.278 274.494 196.117 275.145 195.877 275.766C195.643 276.387 195.3 276.943 194.849 277.436C194.397 277.922 193.809 278.309 193.082 278.596C192.361 278.877 191.471 279.018 190.41 279.018H190.243V277.638Z" fill="black"/>
<path d="M113.682 130V121.882H120.155L128.144 95.1956C128.684 93.4368 129.679 92.0324 131.13 90.9825C132.581 89.9326 134.181 89.4091 135.932 89.4118H148.068C149.821 89.4118 151.423 89.9367 152.874 90.9866C154.325 92.0365 155.319 93.4395 155.856 95.1956L163.845 121.882H170.318V130H113.682ZM137.955 81.2941V61H146.045V81.2941H137.955ZM162.025 91.3397L156.26 85.5559L170.622 71.2485L176.285 76.9309L162.025 91.3397ZM166.273 109.706V101.588H186.5V109.706H166.273ZM121.975 91.3397L107.715 76.9309L113.378 71.2485L127.74 85.5559L121.975 91.3397ZM97.5 109.706V101.588H117.727V109.706H97.5Z" fill="#FF0000"/>
</g>
<defs>
<filter id="filter0_d_38_2618" x="0.5" y="0" width="284" height="365" filterUnits="userSpaceOnUse" color-interpolation-filters="sRGB">
<feFlood flood-opacity="0" result="BackgroundImageFix"/>
<feColorMatrix in="SourceAlpha" type="matrix" values="0 0 0 0 0 0 0 0 0 0 0 0 0 0 0 0 0 0 127 0" result="hardAlpha"/>
<feOffset dy="4"/>
<feGaussianBlur stdDeviation="2"/>
<feComposite in2="hardAlpha" operator="out"/>
<feColorMatrix type="matrix" values="0 0 0 0 0 0 0 0 0 0 0 0 0 0 0 0 0 0 0.25 0"/>
<feBlend mode="normal" in2="BackgroundImageFix" result="effect1_dropShadow_38_2618"/>
<feBlend mode="normal" in="SourceGraphic" in2="effect1_dropShadow_38_2618" result="shape"/>
</filter>
</defs>
</svg>
