<svg width="285" height="365" viewBox="0 0 285 365" fill="none" xmlns="http://www.w3.org/2000/svg">
<g filter="url(#filter0_d_38_2590)">
<rect x="4.5" y="95" width="276" height="262" rx="8" fill="white"/>
<path d="M53.292 216.943V219H46.4805V216.943H53.292ZM47.3418 206.203V219H44.7051V206.203H47.3418ZM52.4043 211.415V213.419H46.4805V211.415H52.4043ZM53.2832 206.203V208.269H46.4805V206.203H53.2832ZM57.1504 211.521V219H54.6191V209.49H56.9922L57.1504 211.521ZM56.7812 213.911H56.0957C56.0957 213.208 56.1865 212.575 56.3682 212.013C56.5498 211.444 56.8047 210.961 57.1328 210.562C57.4609 210.158 57.8506 209.851 58.3018 209.64C58.7588 209.423 59.2686 209.314 59.8311 209.314C60.2764 209.314 60.6836 209.379 61.0527 209.508C61.4219 209.637 61.7383 209.842 62.002 210.123C62.2715 210.404 62.4766 210.776 62.6172 211.239C62.7637 211.702 62.8369 212.268 62.8369 212.936V219H60.2881V212.927C60.2881 212.505 60.2295 212.177 60.1123 211.942C59.9951 211.708 59.8223 211.544 59.5938 211.45C59.3711 211.351 59.0957 211.301 58.7676 211.301C58.4277 211.301 58.1318 211.368 57.8799 211.503C57.6338 211.638 57.4287 211.825 57.2646 212.065C57.1064 212.3 56.9863 212.575 56.9043 212.892C56.8223 213.208 56.7812 213.548 56.7812 213.911ZM67.9961 217.154L70.1055 209.49H72.751L69.543 219H67.9434L67.9961 217.154ZM66.5459 209.49L68.6641 217.163L68.708 219H67.0996L63.8916 209.49H66.5459ZM76.5566 209.49V219H74.0166V209.49H76.5566ZM73.8584 207.012C73.8584 206.643 73.9873 206.338 74.2451 206.098C74.5029 205.857 74.8486 205.737 75.2822 205.737C75.71 205.737 76.0527 205.857 76.3105 206.098C76.5742 206.338 76.7061 206.643 76.7061 207.012C76.7061 207.381 76.5742 207.686 76.3105 207.926C76.0527 208.166 75.71 208.286 75.2822 208.286C74.8486 208.286 74.5029 208.166 74.2451 207.926C73.9873 207.686 73.8584 207.381 73.8584 207.012ZM81.1797 211.564V219H78.6484V209.49H81.0303L81.1797 211.564ZM84.0449 209.429L84.001 211.775C83.8779 211.758 83.7285 211.743 83.5527 211.731C83.3828 211.714 83.2275 211.705 83.0869 211.705C82.7295 211.705 82.4189 211.752 82.1553 211.846C81.8975 211.934 81.6807 212.065 81.5049 212.241C81.335 212.417 81.2061 212.631 81.1182 212.883C81.0361 213.135 80.9893 213.422 80.9775 213.744L80.4678 213.586C80.4678 212.971 80.5293 212.405 80.6523 211.89C80.7754 211.368 80.9541 210.914 81.1885 210.527C81.4287 210.141 81.7217 209.842 82.0674 209.631C82.4131 209.42 82.8086 209.314 83.2539 209.314C83.3945 209.314 83.5381 209.326 83.6846 209.35C83.8311 209.367 83.9512 209.394 84.0449 209.429ZM84.5723 214.342V214.157C84.5723 213.46 84.6719 212.818 84.8711 212.232C85.0703 211.641 85.3604 211.128 85.7412 210.694C86.1221 210.261 86.5908 209.924 87.1475 209.684C87.7041 209.438 88.3428 209.314 89.0635 209.314C89.7842 209.314 90.4258 209.438 90.9883 209.684C91.5508 209.924 92.0225 210.261 92.4033 210.694C92.79 211.128 93.083 211.641 93.2822 212.232C93.4814 212.818 93.5811 213.46 93.5811 214.157V214.342C93.5811 215.033 93.4814 215.675 93.2822 216.267C93.083 216.853 92.79 217.365 92.4033 217.805C92.0225 218.238 91.5537 218.575 90.9971 218.815C90.4404 219.056 89.8018 219.176 89.0811 219.176C88.3604 219.176 87.7188 219.056 87.1562 218.815C86.5996 218.575 86.1279 218.238 85.7412 217.805C85.3604 217.365 85.0703 216.853 84.8711 216.267C84.6719 215.675 84.5723 215.033 84.5723 214.342ZM87.1035 214.157V214.342C87.1035 214.74 87.1387 215.112 87.209 215.458C87.2793 215.804 87.3906 216.108 87.543 216.372C87.7012 216.63 87.9062 216.832 88.1582 216.979C88.4102 217.125 88.7178 217.198 89.0811 217.198C89.4326 217.198 89.7344 217.125 89.9863 216.979C90.2383 216.832 90.4404 216.63 90.5928 216.372C90.7451 216.108 90.8564 215.804 90.9268 215.458C91.0029 215.112 91.041 214.74 91.041 214.342V214.157C91.041 213.771 91.0029 213.407 90.9268 213.067C90.8564 212.722 90.7422 212.417 90.584 212.153C90.4316 211.884 90.2295 211.673 89.9775 211.521C89.7256 211.368 89.4209 211.292 89.0635 211.292C88.7061 211.292 88.4014 211.368 88.1494 211.521C87.9033 211.673 87.7012 211.884 87.543 212.153C87.3906 212.417 87.2793 212.722 87.209 213.067C87.1387 213.407 87.1035 213.771 87.1035 214.157ZM97.6152 211.521V219H95.084V209.49H97.457L97.6152 211.521ZM97.2461 213.911H96.5605C96.5605 213.208 96.6514 212.575 96.833 212.013C97.0146 211.444 97.2695 210.961 97.5977 210.562C97.9258 210.158 98.3154 209.851 98.7666 209.64C99.2236 209.423 99.7334 209.314 100.296 209.314C100.741 209.314 101.148 209.379 101.518 209.508C101.887 209.637 102.203 209.842 102.467 210.123C102.736 210.404 102.941 210.776 103.082 211.239C103.229 211.702 103.302 212.268 103.302 212.936V219H100.753V212.927C100.753 212.505 100.694 212.177 100.577 211.942C100.46 211.708 100.287 211.544 100.059 211.45C99.8359 211.351 99.5605 211.301 99.2324 211.301C98.8926 211.301 98.5967 211.368 98.3447 211.503C98.0986 211.638 97.8936 211.825 97.7295 212.065C97.5713 212.3 97.4512 212.575 97.3691 212.892C97.2871 213.208 97.2461 213.548 97.2461 213.911ZM107.758 211.459V219H105.218V209.49H107.6L107.758 211.459ZM107.406 213.911H106.703C106.703 213.249 106.782 212.64 106.94 212.083C107.104 211.521 107.342 211.034 107.652 210.624C107.969 210.208 108.358 209.886 108.821 209.657C109.284 209.429 109.82 209.314 110.43 209.314C110.852 209.314 111.238 209.379 111.59 209.508C111.941 209.631 112.243 209.827 112.495 210.097C112.753 210.36 112.952 210.706 113.093 211.134C113.233 211.556 113.304 212.062 113.304 212.654V219H110.772V212.936C110.772 212.502 110.714 212.168 110.597 211.934C110.479 211.699 110.312 211.535 110.096 211.441C109.885 211.348 109.63 211.301 109.331 211.301C109.003 211.301 108.716 211.368 108.47 211.503C108.229 211.638 108.03 211.825 107.872 212.065C107.714 212.3 107.597 212.575 107.521 212.892C107.444 213.208 107.406 213.548 107.406 213.911ZM113.066 213.621L112.161 213.735C112.161 213.114 112.237 212.537 112.39 212.004C112.548 211.471 112.779 211.002 113.084 210.598C113.395 210.193 113.778 209.88 114.235 209.657C114.692 209.429 115.22 209.314 115.817 209.314C116.274 209.314 116.69 209.382 117.065 209.517C117.44 209.646 117.76 209.854 118.023 210.141C118.293 210.422 118.498 210.791 118.639 211.248C118.785 211.705 118.858 212.265 118.858 212.927V219H116.318V212.927C116.318 212.487 116.26 212.153 116.143 211.925C116.031 211.69 115.867 211.529 115.65 211.441C115.439 211.348 115.188 211.301 114.895 211.301C114.59 211.301 114.323 211.362 114.095 211.485C113.866 211.603 113.676 211.767 113.523 211.978C113.371 212.188 113.257 212.435 113.181 212.716C113.104 212.991 113.066 213.293 113.066 213.621ZM125.195 219.176C124.457 219.176 123.795 219.059 123.209 218.824C122.623 218.584 122.125 218.253 121.715 217.831C121.311 217.409 121 216.92 120.783 216.363C120.566 215.801 120.458 215.203 120.458 214.57V214.219C120.458 213.498 120.561 212.839 120.766 212.241C120.971 211.644 121.264 211.125 121.645 210.686C122.031 210.246 122.5 209.909 123.051 209.675C123.602 209.435 124.223 209.314 124.914 209.314C125.588 209.314 126.186 209.426 126.707 209.648C127.229 209.871 127.665 210.188 128.017 210.598C128.374 211.008 128.644 211.5 128.825 212.074C129.007 212.643 129.098 213.275 129.098 213.973V215.027H121.539V213.34H126.61V213.146C126.61 212.795 126.546 212.481 126.417 212.206C126.294 211.925 126.106 211.702 125.854 211.538C125.603 211.374 125.28 211.292 124.888 211.292C124.554 211.292 124.267 211.365 124.026 211.512C123.786 211.658 123.59 211.863 123.438 212.127C123.291 212.391 123.18 212.701 123.104 213.059C123.033 213.41 122.998 213.797 122.998 214.219V214.57C122.998 214.951 123.051 215.303 123.156 215.625C123.268 215.947 123.423 216.226 123.622 216.46C123.827 216.694 124.073 216.876 124.36 217.005C124.653 217.134 124.984 217.198 125.354 217.198C125.811 217.198 126.235 217.11 126.628 216.935C127.026 216.753 127.369 216.48 127.656 216.117L128.887 217.453C128.688 217.74 128.415 218.016 128.069 218.279C127.729 218.543 127.319 218.76 126.839 218.93C126.358 219.094 125.811 219.176 125.195 219.176ZM133.018 211.521V219H130.486V209.49H132.859L133.018 211.521ZM132.648 213.911H131.963C131.963 213.208 132.054 212.575 132.235 212.013C132.417 211.444 132.672 210.961 133 210.562C133.328 210.158 133.718 209.851 134.169 209.64C134.626 209.423 135.136 209.314 135.698 209.314C136.144 209.314 136.551 209.379 136.92 209.508C137.289 209.637 137.605 209.842 137.869 210.123C138.139 210.404 138.344 210.776 138.484 211.239C138.631 211.702 138.704 212.268 138.704 212.936V219H136.155V212.927C136.155 212.505 136.097 212.177 135.979 211.942C135.862 211.708 135.689 211.544 135.461 211.45C135.238 211.351 134.963 211.301 134.635 211.301C134.295 211.301 133.999 211.368 133.747 211.503C133.501 211.638 133.296 211.825 133.132 212.065C132.974 212.3 132.854 212.575 132.771 212.892C132.689 213.208 132.648 213.548 132.648 213.911ZM145.287 209.49V211.283H139.75V209.49H145.287ZM141.121 207.144H143.652V216.135C143.652 216.41 143.688 216.621 143.758 216.768C143.834 216.914 143.945 217.017 144.092 217.075C144.238 217.128 144.423 217.154 144.646 217.154C144.804 217.154 144.944 217.148 145.067 217.137C145.196 217.119 145.305 217.102 145.393 217.084L145.401 218.947C145.185 219.018 144.95 219.073 144.698 219.114C144.446 219.155 144.168 219.176 143.863 219.176C143.307 219.176 142.82 219.085 142.404 218.903C141.994 218.716 141.678 218.417 141.455 218.007C141.232 217.597 141.121 217.058 141.121 216.39V207.144ZM151.861 216.855V212.619C151.861 212.314 151.812 212.054 151.712 211.837C151.612 211.614 151.457 211.441 151.246 211.318C151.041 211.195 150.774 211.134 150.446 211.134C150.165 211.134 149.922 211.184 149.717 211.283C149.512 211.377 149.354 211.515 149.242 211.696C149.131 211.872 149.075 212.08 149.075 212.32H146.544C146.544 211.916 146.638 211.532 146.825 211.169C147.013 210.806 147.285 210.486 147.643 210.211C148 209.93 148.425 209.71 148.917 209.552C149.415 209.394 149.972 209.314 150.587 209.314C151.325 209.314 151.981 209.438 152.556 209.684C153.13 209.93 153.581 210.299 153.909 210.791C154.243 211.283 154.41 211.898 154.41 212.637V216.706C154.41 217.228 154.442 217.655 154.507 217.989C154.571 218.317 154.665 218.604 154.788 218.851V219H152.23C152.107 218.742 152.014 218.42 151.949 218.033C151.891 217.641 151.861 217.248 151.861 216.855ZM152.195 213.208L152.213 214.641H150.798C150.464 214.641 150.174 214.679 149.928 214.755C149.682 214.831 149.479 214.939 149.321 215.08C149.163 215.215 149.046 215.373 148.97 215.555C148.899 215.736 148.864 215.936 148.864 216.152C148.864 216.369 148.914 216.565 149.014 216.741C149.113 216.911 149.257 217.046 149.444 217.146C149.632 217.239 149.852 217.286 150.104 217.286C150.484 217.286 150.815 217.21 151.097 217.058C151.378 216.905 151.595 216.718 151.747 216.495C151.905 216.272 151.987 216.062 151.993 215.862L152.661 216.935C152.567 217.175 152.438 217.424 152.274 217.682C152.116 217.939 151.914 218.183 151.668 218.411C151.422 218.634 151.126 218.818 150.78 218.965C150.435 219.105 150.024 219.176 149.55 219.176C148.946 219.176 148.398 219.056 147.906 218.815C147.42 218.569 147.033 218.232 146.746 217.805C146.465 217.371 146.324 216.879 146.324 216.328C146.324 215.83 146.418 215.388 146.605 215.001C146.793 214.614 147.068 214.289 147.432 214.025C147.801 213.756 148.261 213.554 148.812 213.419C149.362 213.278 150.001 213.208 150.728 213.208H152.195ZM159.033 205.5V219H156.493V205.5H159.033ZM167.62 212.153L170.081 210.562C170.444 210.322 170.688 210.091 170.811 209.868C170.934 209.646 170.995 209.396 170.995 209.121C170.995 208.846 170.893 208.591 170.688 208.356C170.482 208.116 170.195 207.996 169.826 207.996C169.562 207.996 169.34 208.058 169.158 208.181C168.977 208.298 168.839 208.456 168.745 208.655C168.657 208.854 168.613 209.077 168.613 209.323C168.613 209.587 168.684 209.856 168.824 210.132C168.965 210.401 169.155 210.688 169.396 210.993C169.636 211.292 169.902 211.617 170.195 211.969L176.233 219H173.359L168.438 213.305C168.021 212.789 167.658 212.317 167.348 211.89C167.037 211.456 166.794 211.034 166.618 210.624C166.442 210.214 166.354 209.792 166.354 209.358C166.354 208.69 166.498 208.107 166.785 207.609C167.072 207.105 167.477 206.716 167.998 206.44C168.52 206.159 169.132 206.019 169.835 206.019C170.497 206.019 171.071 206.156 171.558 206.432C172.044 206.701 172.419 207.059 172.683 207.504C172.952 207.949 173.087 208.438 173.087 208.972C173.087 209.37 173.014 209.739 172.867 210.079C172.721 210.413 172.519 210.724 172.261 211.011C172.003 211.292 171.707 211.553 171.373 211.793L168.569 213.788C168.353 213.987 168.188 214.184 168.077 214.377C167.966 214.57 167.89 214.755 167.849 214.931C167.808 215.101 167.787 215.265 167.787 215.423C167.787 215.763 167.86 216.067 168.007 216.337C168.153 216.606 168.358 216.817 168.622 216.97C168.886 217.122 169.193 217.198 169.545 217.198C170.025 217.198 170.491 217.093 170.942 216.882C171.394 216.671 171.798 216.369 172.155 215.977C172.513 215.578 172.797 215.106 173.008 214.562C173.219 214.017 173.324 213.416 173.324 212.76H175.469C175.469 213.416 175.404 214.04 175.275 214.632C175.146 215.218 174.938 215.763 174.651 216.267C174.364 216.765 173.983 217.207 173.509 217.594C173.474 217.623 173.424 217.667 173.359 217.726C173.301 217.778 173.251 217.819 173.21 217.849C172.647 218.3 172.062 218.637 171.452 218.859C170.843 219.076 170.163 219.185 169.413 219.185C168.558 219.185 167.816 219.029 167.189 218.719C166.568 218.408 166.088 217.98 165.748 217.436C165.414 216.891 165.247 216.267 165.247 215.563C165.247 215.048 165.347 214.6 165.546 214.219C165.751 213.832 166.032 213.475 166.39 213.146C166.747 212.818 167.157 212.487 167.62 212.153ZM188.758 215.651C188.758 215.423 188.723 215.218 188.652 215.036C188.588 214.849 188.465 214.679 188.283 214.526C188.102 214.368 187.847 214.213 187.519 214.061C187.19 213.908 186.766 213.75 186.244 213.586C185.664 213.398 185.113 213.188 184.592 212.953C184.076 212.719 183.619 212.446 183.221 212.136C182.828 211.819 182.518 211.453 182.289 211.037C182.066 210.621 181.955 210.138 181.955 209.587C181.955 209.054 182.072 208.57 182.307 208.137C182.541 207.697 182.869 207.322 183.291 207.012C183.713 206.695 184.211 206.452 184.785 206.282C185.365 206.112 186.001 206.027 186.692 206.027C187.636 206.027 188.459 206.197 189.162 206.537C189.865 206.877 190.41 207.343 190.797 207.935C191.189 208.526 191.386 209.203 191.386 209.965H188.767C188.767 209.59 188.688 209.262 188.529 208.98C188.377 208.693 188.143 208.468 187.826 208.304C187.516 208.14 187.123 208.058 186.648 208.058C186.191 208.058 185.811 208.128 185.506 208.269C185.201 208.403 184.973 208.588 184.82 208.822C184.668 209.051 184.592 209.309 184.592 209.596C184.592 209.812 184.645 210.009 184.75 210.185C184.861 210.36 185.025 210.524 185.242 210.677C185.459 210.829 185.726 210.973 186.042 211.107C186.358 211.242 186.725 211.374 187.141 211.503C187.838 211.714 188.45 211.951 188.978 212.215C189.511 212.479 189.956 212.774 190.313 213.103C190.671 213.431 190.94 213.803 191.122 214.219C191.304 214.635 191.395 215.106 191.395 215.634C191.395 216.19 191.286 216.688 191.069 217.128C190.853 217.567 190.539 217.939 190.129 218.244C189.719 218.549 189.229 218.78 188.661 218.938C188.093 219.097 187.457 219.176 186.754 219.176C186.121 219.176 185.497 219.094 184.882 218.93C184.267 218.76 183.707 218.505 183.203 218.165C182.705 217.825 182.307 217.392 182.008 216.864C181.709 216.337 181.56 215.713 181.56 214.992H184.205C184.205 215.391 184.267 215.728 184.39 216.003C184.513 216.278 184.686 216.501 184.908 216.671C185.137 216.841 185.406 216.964 185.717 217.04C186.033 217.116 186.379 217.154 186.754 217.154C187.211 217.154 187.586 217.09 187.879 216.961C188.178 216.832 188.397 216.653 188.538 216.425C188.685 216.196 188.758 215.938 188.758 215.651ZM195.561 211.318V222.656H193.029V209.49H195.376L195.561 211.318ZM201.581 214.14V214.324C201.581 215.016 201.499 215.657 201.335 216.249C201.177 216.841 200.942 217.356 200.632 217.796C200.321 218.229 199.935 218.569 199.472 218.815C199.015 219.056 198.487 219.176 197.89 219.176C197.31 219.176 196.806 219.059 196.378 218.824C195.95 218.59 195.59 218.262 195.297 217.84C195.01 217.412 194.778 216.917 194.603 216.354C194.427 215.792 194.292 215.188 194.198 214.544V214.061C194.292 213.369 194.427 212.736 194.603 212.162C194.778 211.582 195.01 211.081 195.297 210.659C195.59 210.231 195.947 209.9 196.369 209.666C196.797 209.432 197.298 209.314 197.872 209.314C198.476 209.314 199.006 209.429 199.463 209.657C199.926 209.886 200.312 210.214 200.623 210.642C200.939 211.069 201.177 211.579 201.335 212.171C201.499 212.763 201.581 213.419 201.581 214.14ZM199.041 214.324V214.14C199.041 213.735 199.006 213.363 198.936 213.023C198.871 212.678 198.766 212.376 198.619 212.118C198.479 211.86 198.291 211.661 198.057 211.521C197.828 211.374 197.55 211.301 197.222 211.301C196.876 211.301 196.58 211.356 196.334 211.468C196.094 211.579 195.897 211.74 195.745 211.951C195.593 212.162 195.479 212.414 195.402 212.707C195.326 213 195.279 213.331 195.262 213.7V214.922C195.291 215.355 195.373 215.745 195.508 216.091C195.643 216.431 195.851 216.7 196.132 216.899C196.413 217.099 196.782 217.198 197.239 217.198C197.573 217.198 197.854 217.125 198.083 216.979C198.312 216.826 198.496 216.618 198.637 216.354C198.783 216.091 198.886 215.786 198.944 215.44C199.009 215.095 199.041 214.723 199.041 214.324ZM207.531 219.176C206.793 219.176 206.131 219.059 205.545 218.824C204.959 218.584 204.461 218.253 204.051 217.831C203.646 217.409 203.336 216.92 203.119 216.363C202.902 215.801 202.794 215.203 202.794 214.57V214.219C202.794 213.498 202.896 212.839 203.102 212.241C203.307 211.644 203.6 211.125 203.98 210.686C204.367 210.246 204.836 209.909 205.387 209.675C205.938 209.435 206.559 209.314 207.25 209.314C207.924 209.314 208.521 209.426 209.043 209.648C209.564 209.871 210.001 210.188 210.353 210.598C210.71 211.008 210.979 211.5 211.161 212.074C211.343 212.643 211.434 213.275 211.434 213.973V215.027H203.875V213.34H208.946V213.146C208.946 212.795 208.882 212.481 208.753 212.206C208.63 211.925 208.442 211.702 208.19 211.538C207.938 211.374 207.616 211.292 207.224 211.292C206.89 211.292 206.603 211.365 206.362 211.512C206.122 211.658 205.926 211.863 205.773 212.127C205.627 212.391 205.516 212.701 205.439 213.059C205.369 213.41 205.334 213.797 205.334 214.219V214.57C205.334 214.951 205.387 215.303 205.492 215.625C205.604 215.947 205.759 216.226 205.958 216.46C206.163 216.694 206.409 216.876 206.696 217.005C206.989 217.134 207.32 217.198 207.689 217.198C208.146 217.198 208.571 217.11 208.964 216.935C209.362 216.753 209.705 216.48 209.992 216.117L211.223 217.453C211.023 217.74 210.751 218.016 210.405 218.279C210.065 218.543 209.655 218.76 209.175 218.93C208.694 219.094 208.146 219.176 207.531 219.176ZM216.804 217.198C217.114 217.198 217.39 217.14 217.63 217.022C217.87 216.899 218.058 216.729 218.192 216.513C218.333 216.29 218.406 216.029 218.412 215.73H220.794C220.788 216.398 220.609 216.993 220.258 217.515C219.906 218.03 219.435 218.438 218.843 218.736C218.251 219.029 217.589 219.176 216.856 219.176C216.118 219.176 215.474 219.053 214.923 218.807C214.378 218.561 213.924 218.221 213.561 217.787C213.197 217.348 212.925 216.838 212.743 216.258C212.562 215.672 212.471 215.045 212.471 214.377V214.122C212.471 213.448 212.562 212.821 212.743 212.241C212.925 211.655 213.197 211.146 213.561 210.712C213.924 210.272 214.378 209.93 214.923 209.684C215.468 209.438 216.106 209.314 216.839 209.314C217.618 209.314 218.301 209.464 218.887 209.763C219.479 210.062 219.941 210.489 220.275 211.046C220.615 211.597 220.788 212.25 220.794 213.006H218.412C218.406 212.689 218.339 212.402 218.21 212.145C218.087 211.887 217.905 211.682 217.665 211.529C217.431 211.371 217.141 211.292 216.795 211.292C216.426 211.292 216.124 211.371 215.89 211.529C215.655 211.682 215.474 211.893 215.345 212.162C215.216 212.426 215.125 212.728 215.072 213.067C215.025 213.401 215.002 213.753 215.002 214.122V214.377C215.002 214.746 215.025 215.101 215.072 215.44C215.119 215.78 215.207 216.082 215.336 216.346C215.471 216.609 215.655 216.817 215.89 216.97C216.124 217.122 216.429 217.198 216.804 217.198ZM224.934 209.49V219H222.394V209.49H224.934ZM222.235 207.012C222.235 206.643 222.364 206.338 222.622 206.098C222.88 205.857 223.226 205.737 223.659 205.737C224.087 205.737 224.43 205.857 224.688 206.098C224.951 206.338 225.083 206.643 225.083 207.012C225.083 207.381 224.951 207.686 224.688 207.926C224.43 208.166 224.087 208.286 223.659 208.286C223.226 208.286 222.88 208.166 222.622 207.926C222.364 207.686 222.235 207.381 222.235 207.012ZM232.158 216.855V212.619C232.158 212.314 232.108 212.054 232.009 211.837C231.909 211.614 231.754 211.441 231.543 211.318C231.338 211.195 231.071 211.134 230.743 211.134C230.462 211.134 230.219 211.184 230.014 211.283C229.809 211.377 229.65 211.515 229.539 211.696C229.428 211.872 229.372 212.08 229.372 212.32H226.841C226.841 211.916 226.935 211.532 227.122 211.169C227.31 210.806 227.582 210.486 227.939 210.211C228.297 209.93 228.722 209.71 229.214 209.552C229.712 209.394 230.269 209.314 230.884 209.314C231.622 209.314 232.278 209.438 232.853 209.684C233.427 209.93 233.878 210.299 234.206 210.791C234.54 211.283 234.707 211.898 234.707 212.637V216.706C234.707 217.228 234.739 217.655 234.804 217.989C234.868 218.317 234.962 218.604 235.085 218.851V219H232.527C232.404 218.742 232.311 218.42 232.246 218.033C232.188 217.641 232.158 217.248 232.158 216.855ZM232.492 213.208L232.51 214.641H231.095C230.761 214.641 230.471 214.679 230.225 214.755C229.979 214.831 229.776 214.939 229.618 215.08C229.46 215.215 229.343 215.373 229.267 215.555C229.196 215.736 229.161 215.936 229.161 216.152C229.161 216.369 229.211 216.565 229.311 216.741C229.41 216.911 229.554 217.046 229.741 217.146C229.929 217.239 230.148 217.286 230.4 217.286C230.781 217.286 231.112 217.21 231.394 217.058C231.675 216.905 231.892 216.718 232.044 216.495C232.202 216.272 232.284 216.062 232.29 215.862L232.958 216.935C232.864 217.175 232.735 217.424 232.571 217.682C232.413 217.939 232.211 218.183 231.965 218.411C231.719 218.634 231.423 218.818 231.077 218.965C230.731 219.105 230.321 219.176 229.847 219.176C229.243 219.176 228.695 219.056 228.203 218.815C227.717 218.569 227.33 218.232 227.043 217.805C226.762 217.371 226.621 216.879 226.621 216.328C226.621 215.83 226.715 215.388 226.902 215.001C227.09 214.614 227.365 214.289 227.729 214.025C228.098 213.756 228.558 213.554 229.108 213.419C229.659 213.278 230.298 213.208 231.024 213.208H232.492ZM239.33 205.5V219H236.79V205.5H239.33ZM70.9316 238.303V238.909C70.9316 239.882 70.7998 240.755 70.5361 241.528C70.2725 242.302 69.9004 242.961 69.4199 243.506C68.9395 244.045 68.3652 244.458 67.6973 244.745C67.0352 245.032 66.2998 245.176 65.4912 245.176C64.6885 245.176 63.9531 245.032 63.2852 244.745C62.623 244.458 62.0488 244.045 61.5625 243.506C61.0762 242.961 60.6982 242.302 60.4287 241.528C60.165 240.755 60.0332 239.882 60.0332 238.909V238.303C60.0332 237.324 60.165 236.451 60.4287 235.684C60.6924 234.91 61.0645 234.251 61.5449 233.706C62.0312 233.161 62.6055 232.745 63.2676 232.458C63.9355 232.171 64.6709 232.027 65.4736 232.027C66.2822 232.027 67.0176 232.171 67.6797 232.458C68.3477 232.745 68.9219 233.161 69.4023 233.706C69.8887 234.251 70.2637 234.91 70.5273 235.684C70.7969 236.451 70.9316 237.324 70.9316 238.303ZM68.2686 238.909V238.285C68.2686 237.605 68.207 237.008 68.084 236.492C67.9609 235.977 67.7793 235.543 67.5391 235.191C67.2988 234.84 67.0059 234.576 66.6602 234.4C66.3145 234.219 65.9189 234.128 65.4736 234.128C65.0283 234.128 64.6328 234.219 64.2871 234.4C63.9473 234.576 63.6572 234.84 63.417 235.191C63.1826 235.543 63.0039 235.977 62.8809 236.492C62.7578 237.008 62.6963 237.605 62.6963 238.285V238.909C62.6963 239.583 62.7578 240.181 62.8809 240.702C63.0039 241.218 63.1855 241.654 63.4258 242.012C63.666 242.363 63.959 242.63 64.3047 242.812C64.6504 242.993 65.0459 243.084 65.4912 243.084C65.9365 243.084 66.332 242.993 66.6777 242.812C67.0234 242.63 67.3135 242.363 67.5479 242.012C67.7822 241.654 67.9609 241.218 68.084 240.702C68.207 240.181 68.2686 239.583 68.2686 238.909ZM75.8975 245H73.3486V234.646C73.3486 233.926 73.4893 233.319 73.7705 232.827C74.0576 232.329 74.459 231.954 74.9746 231.702C75.4961 231.444 76.1143 231.315 76.8291 231.315C77.0635 231.315 77.2891 231.333 77.5059 231.368C77.7227 231.397 77.9336 231.436 78.1387 231.482L78.1123 233.39C78.001 233.36 77.8838 233.34 77.7607 233.328C77.6377 233.316 77.4941 233.311 77.3301 233.311C77.0254 233.311 76.7646 233.363 76.5479 233.469C76.3369 233.568 76.1758 233.718 76.0645 233.917C75.9531 234.116 75.8975 234.359 75.8975 234.646V245ZM77.7959 235.49V237.283H71.9336V235.49H77.7959ZM82.3486 245H79.7998V234.646C79.7998 233.926 79.9404 233.319 80.2217 232.827C80.5088 232.329 80.9102 231.954 81.4258 231.702C81.9473 231.444 82.5654 231.315 83.2803 231.315C83.5146 231.315 83.7402 231.333 83.957 231.368C84.1738 231.397 84.3848 231.436 84.5898 231.482L84.5635 233.39C84.4521 233.36 84.335 233.34 84.2119 233.328C84.0889 233.316 83.9453 233.311 83.7812 233.311C83.4766 233.311 83.2158 233.363 82.999 233.469C82.7881 233.568 82.627 233.718 82.5156 233.917C82.4043 234.116 82.3486 234.359 82.3486 234.646V245ZM84.2471 235.49V237.283H78.3848V235.49H84.2471ZM89.7402 245.176C89.002 245.176 88.3398 245.059 87.7539 244.824C87.168 244.584 86.6699 244.253 86.2598 243.831C85.8555 243.409 85.5449 242.92 85.3281 242.363C85.1113 241.801 85.0029 241.203 85.0029 240.57V240.219C85.0029 239.498 85.1055 238.839 85.3105 238.241C85.5156 237.644 85.8086 237.125 86.1895 236.686C86.5762 236.246 87.0449 235.909 87.5957 235.675C88.1465 235.435 88.7676 235.314 89.459 235.314C90.1328 235.314 90.7305 235.426 91.252 235.648C91.7734 235.871 92.21 236.188 92.5615 236.598C92.9189 237.008 93.1885 237.5 93.3701 238.074C93.5518 238.643 93.6426 239.275 93.6426 239.973V241.027H86.084V239.34H91.1553V239.146C91.1553 238.795 91.0908 238.481 90.9619 238.206C90.8389 237.925 90.6514 237.702 90.3994 237.538C90.1475 237.374 89.8252 237.292 89.4326 237.292C89.0986 237.292 88.8115 237.365 88.5713 237.512C88.3311 237.658 88.1348 237.863 87.9824 238.127C87.8359 238.391 87.7246 238.701 87.6484 239.059C87.5781 239.41 87.543 239.797 87.543 240.219V240.57C87.543 240.951 87.5957 241.303 87.7012 241.625C87.8125 241.947 87.9678 242.226 88.167 242.46C88.3721 242.694 88.6182 242.876 88.9053 243.005C89.1982 243.134 89.5293 243.198 89.8984 243.198C90.3555 243.198 90.7803 243.11 91.1729 242.935C91.5713 242.753 91.9141 242.48 92.2012 242.117L93.4316 243.453C93.2324 243.74 92.96 244.016 92.6143 244.279C92.2744 244.543 91.8643 244.76 91.3838 244.93C90.9033 245.094 90.3555 245.176 89.7402 245.176ZM97.5625 237.521V245H95.0312V235.49H97.4043L97.5625 237.521ZM97.1934 239.911H96.5078C96.5078 239.208 96.5986 238.575 96.7803 238.013C96.9619 237.444 97.2168 236.961 97.5449 236.562C97.873 236.158 98.2627 235.851 98.7139 235.64C99.1709 235.423 99.6807 235.314 100.243 235.314C100.688 235.314 101.096 235.379 101.465 235.508C101.834 235.637 102.15 235.842 102.414 236.123C102.684 236.404 102.889 236.776 103.029 237.239C103.176 237.702 103.249 238.268 103.249 238.936V245H100.7V238.927C100.7 238.505 100.642 238.177 100.524 237.942C100.407 237.708 100.234 237.544 100.006 237.45C99.7832 237.351 99.5078 237.301 99.1797 237.301C98.8398 237.301 98.5439 237.368 98.292 237.503C98.0459 237.638 97.8408 237.825 97.6768 238.065C97.5186 238.3 97.3984 238.575 97.3164 238.892C97.2344 239.208 97.1934 239.548 97.1934 239.911ZM109.103 243.198C109.413 243.198 109.688 243.14 109.929 243.022C110.169 242.899 110.356 242.729 110.491 242.513C110.632 242.29 110.705 242.029 110.711 241.73H113.093C113.087 242.398 112.908 242.993 112.557 243.515C112.205 244.03 111.733 244.438 111.142 244.736C110.55 245.029 109.888 245.176 109.155 245.176C108.417 245.176 107.772 245.053 107.222 244.807C106.677 244.561 106.223 244.221 105.859 243.787C105.496 243.348 105.224 242.838 105.042 242.258C104.86 241.672 104.77 241.045 104.77 240.377V240.122C104.77 239.448 104.86 238.821 105.042 238.241C105.224 237.655 105.496 237.146 105.859 236.712C106.223 236.272 106.677 235.93 107.222 235.684C107.767 235.438 108.405 235.314 109.138 235.314C109.917 235.314 110.6 235.464 111.186 235.763C111.777 236.062 112.24 236.489 112.574 237.046C112.914 237.597 113.087 238.25 113.093 239.006H110.711C110.705 238.689 110.638 238.402 110.509 238.145C110.386 237.887 110.204 237.682 109.964 237.529C109.729 237.371 109.439 237.292 109.094 237.292C108.725 237.292 108.423 237.371 108.188 237.529C107.954 237.682 107.772 237.893 107.644 238.162C107.515 238.426 107.424 238.728 107.371 239.067C107.324 239.401 107.301 239.753 107.301 240.122V240.377C107.301 240.746 107.324 241.101 107.371 241.44C107.418 241.78 107.506 242.082 107.635 242.346C107.77 242.609 107.954 242.817 108.188 242.97C108.423 243.122 108.728 243.198 109.103 243.198ZM118.938 245.176C118.199 245.176 117.537 245.059 116.951 244.824C116.365 244.584 115.867 244.253 115.457 243.831C115.053 243.409 114.742 242.92 114.525 242.363C114.309 241.801 114.2 241.203 114.2 240.57V240.219C114.2 239.498 114.303 238.839 114.508 238.241C114.713 237.644 115.006 237.125 115.387 236.686C115.773 236.246 116.242 235.909 116.793 235.675C117.344 235.435 117.965 235.314 118.656 235.314C119.33 235.314 119.928 235.426 120.449 235.648C120.971 235.871 121.407 236.188 121.759 236.598C122.116 237.008 122.386 237.5 122.567 238.074C122.749 238.643 122.84 239.275 122.84 239.973V241.027H115.281V239.34H120.353V239.146C120.353 238.795 120.288 238.481 120.159 238.206C120.036 237.925 119.849 237.702 119.597 237.538C119.345 237.374 119.022 237.292 118.63 237.292C118.296 237.292 118.009 237.365 117.769 237.512C117.528 237.658 117.332 237.863 117.18 238.127C117.033 238.391 116.922 238.701 116.846 239.059C116.775 239.41 116.74 239.797 116.74 240.219V240.57C116.74 240.951 116.793 241.303 116.898 241.625C117.01 241.947 117.165 242.226 117.364 242.46C117.569 242.694 117.815 242.876 118.103 243.005C118.396 243.134 118.727 243.198 119.096 243.198C119.553 243.198 119.978 243.11 120.37 242.935C120.769 242.753 121.111 242.48 121.398 242.117L122.629 243.453C122.43 243.74 122.157 244.016 121.812 244.279C121.472 244.543 121.062 244.76 120.581 244.93C120.101 245.094 119.553 245.176 118.938 245.176ZM129.423 242.372C129.423 242.19 129.37 242.026 129.265 241.88C129.159 241.733 128.963 241.599 128.676 241.476C128.395 241.347 127.987 241.229 127.454 241.124C126.974 241.019 126.525 240.887 126.109 240.729C125.699 240.564 125.342 240.368 125.037 240.14C124.738 239.911 124.504 239.642 124.334 239.331C124.164 239.015 124.079 238.654 124.079 238.25C124.079 237.852 124.164 237.477 124.334 237.125C124.51 236.773 124.759 236.463 125.081 236.193C125.409 235.918 125.808 235.704 126.276 235.552C126.751 235.394 127.284 235.314 127.876 235.314C128.702 235.314 129.411 235.446 130.003 235.71C130.601 235.974 131.058 236.337 131.374 236.8C131.696 237.257 131.857 237.778 131.857 238.364H129.326C129.326 238.118 129.273 237.898 129.168 237.705C129.068 237.506 128.91 237.351 128.693 237.239C128.482 237.122 128.207 237.063 127.867 237.063C127.586 237.063 127.343 237.113 127.138 237.213C126.933 237.307 126.774 237.436 126.663 237.6C126.558 237.758 126.505 237.934 126.505 238.127C126.505 238.273 126.534 238.405 126.593 238.522C126.657 238.634 126.76 238.736 126.9 238.83C127.041 238.924 127.223 239.012 127.445 239.094C127.674 239.17 127.955 239.24 128.289 239.305C128.975 239.445 129.587 239.63 130.126 239.858C130.665 240.081 131.093 240.386 131.409 240.772C131.726 241.153 131.884 241.654 131.884 242.275C131.884 242.697 131.79 243.084 131.603 243.436C131.415 243.787 131.146 244.095 130.794 244.358C130.442 244.616 130.021 244.818 129.528 244.965C129.042 245.105 128.494 245.176 127.885 245.176C127 245.176 126.25 245.018 125.635 244.701C125.025 244.385 124.562 243.983 124.246 243.497C123.936 243.005 123.78 242.501 123.78 241.985H126.18C126.191 242.331 126.279 242.609 126.443 242.82C126.613 243.031 126.827 243.184 127.085 243.277C127.349 243.371 127.633 243.418 127.938 243.418C128.266 243.418 128.538 243.374 128.755 243.286C128.972 243.192 129.136 243.069 129.247 242.917C129.364 242.759 129.423 242.577 129.423 242.372ZM143.415 232.203V245H140.787V232.203H143.415ZM147.353 232.203V234.269H136.911V232.203H147.353ZM152.494 242.855V238.619C152.494 238.314 152.444 238.054 152.345 237.837C152.245 237.614 152.09 237.441 151.879 237.318C151.674 237.195 151.407 237.134 151.079 237.134C150.798 237.134 150.555 237.184 150.35 237.283C150.145 237.377 149.986 237.515 149.875 237.696C149.764 237.872 149.708 238.08 149.708 238.32H147.177C147.177 237.916 147.271 237.532 147.458 237.169C147.646 236.806 147.918 236.486 148.275 236.211C148.633 235.93 149.058 235.71 149.55 235.552C150.048 235.394 150.604 235.314 151.22 235.314C151.958 235.314 152.614 235.438 153.188 235.684C153.763 235.93 154.214 236.299 154.542 236.791C154.876 237.283 155.043 237.898 155.043 238.637V242.706C155.043 243.228 155.075 243.655 155.14 243.989C155.204 244.317 155.298 244.604 155.421 244.851V245H152.863C152.74 244.742 152.646 244.42 152.582 244.033C152.523 243.641 152.494 243.248 152.494 242.855ZM152.828 239.208L152.846 240.641H151.431C151.097 240.641 150.807 240.679 150.561 240.755C150.314 240.831 150.112 240.939 149.954 241.08C149.796 241.215 149.679 241.373 149.603 241.555C149.532 241.736 149.497 241.936 149.497 242.152C149.497 242.369 149.547 242.565 149.646 242.741C149.746 242.911 149.89 243.046 150.077 243.146C150.265 243.239 150.484 243.286 150.736 243.286C151.117 243.286 151.448 243.21 151.729 243.058C152.011 242.905 152.228 242.718 152.38 242.495C152.538 242.272 152.62 242.062 152.626 241.862L153.294 242.935C153.2 243.175 153.071 243.424 152.907 243.682C152.749 243.939 152.547 244.183 152.301 244.411C152.055 244.634 151.759 244.818 151.413 244.965C151.067 245.105 150.657 245.176 150.183 245.176C149.579 245.176 149.031 245.056 148.539 244.815C148.053 244.569 147.666 244.232 147.379 243.805C147.098 243.371 146.957 242.879 146.957 242.328C146.957 241.83 147.051 241.388 147.238 241.001C147.426 240.614 147.701 240.289 148.064 240.025C148.434 239.756 148.894 239.554 149.444 239.419C149.995 239.278 150.634 239.208 151.36 239.208H152.828ZM162.136 242.372C162.136 242.19 162.083 242.026 161.978 241.88C161.872 241.733 161.676 241.599 161.389 241.476C161.107 241.347 160.7 241.229 160.167 241.124C159.687 241.019 159.238 240.887 158.822 240.729C158.412 240.564 158.055 240.368 157.75 240.14C157.451 239.911 157.217 239.642 157.047 239.331C156.877 239.015 156.792 238.654 156.792 238.25C156.792 237.852 156.877 237.477 157.047 237.125C157.223 236.773 157.472 236.463 157.794 236.193C158.122 235.918 158.521 235.704 158.989 235.552C159.464 235.394 159.997 235.314 160.589 235.314C161.415 235.314 162.124 235.446 162.716 235.71C163.313 235.974 163.771 236.337 164.087 236.8C164.409 237.257 164.57 237.778 164.57 238.364H162.039C162.039 238.118 161.986 237.898 161.881 237.705C161.781 237.506 161.623 237.351 161.406 237.239C161.195 237.122 160.92 237.063 160.58 237.063C160.299 237.063 160.056 237.113 159.851 237.213C159.646 237.307 159.487 237.436 159.376 237.6C159.271 237.758 159.218 237.934 159.218 238.127C159.218 238.273 159.247 238.405 159.306 238.522C159.37 238.634 159.473 238.736 159.613 238.83C159.754 238.924 159.936 239.012 160.158 239.094C160.387 239.17 160.668 239.24 161.002 239.305C161.688 239.445 162.3 239.63 162.839 239.858C163.378 240.081 163.806 240.386 164.122 240.772C164.438 241.153 164.597 241.654 164.597 242.275C164.597 242.697 164.503 243.084 164.315 243.436C164.128 243.787 163.858 244.095 163.507 244.358C163.155 244.616 162.733 244.818 162.241 244.965C161.755 245.105 161.207 245.176 160.598 245.176C159.713 245.176 158.963 245.018 158.348 244.701C157.738 244.385 157.275 243.983 156.959 243.497C156.648 243.005 156.493 242.501 156.493 241.985H158.893C158.904 242.331 158.992 242.609 159.156 242.82C159.326 243.031 159.54 243.184 159.798 243.277C160.062 243.371 160.346 243.418 160.65 243.418C160.979 243.418 161.251 243.374 161.468 243.286C161.685 243.192 161.849 243.069 161.96 242.917C162.077 242.759 162.136 242.577 162.136 242.372ZM168.771 231.491V245H166.24V231.491H168.771ZM174.766 235.49L170.635 240.201L168.42 242.442L167.497 240.614L169.255 238.382L171.725 235.49H174.766ZM172.138 245L169.325 240.605L171.074 239.076L175.056 245H172.138ZM183.133 232.203V245H180.496V232.203H183.133ZM188.23 237.67V239.727H182.412V237.67H188.23ZM188.846 232.203V234.269H182.412V232.203H188.846ZM189.619 240.342V240.157C189.619 239.46 189.719 238.818 189.918 238.232C190.117 237.641 190.407 237.128 190.788 236.694C191.169 236.261 191.638 235.924 192.194 235.684C192.751 235.438 193.39 235.314 194.11 235.314C194.831 235.314 195.473 235.438 196.035 235.684C196.598 235.924 197.069 236.261 197.45 236.694C197.837 237.128 198.13 237.641 198.329 238.232C198.528 238.818 198.628 239.46 198.628 240.157V240.342C198.628 241.033 198.528 241.675 198.329 242.267C198.13 242.853 197.837 243.365 197.45 243.805C197.069 244.238 196.601 244.575 196.044 244.815C195.487 245.056 194.849 245.176 194.128 245.176C193.407 245.176 192.766 245.056 192.203 244.815C191.646 244.575 191.175 244.238 190.788 243.805C190.407 243.365 190.117 242.853 189.918 242.267C189.719 241.675 189.619 241.033 189.619 240.342ZM192.15 240.157V240.342C192.15 240.74 192.186 241.112 192.256 241.458C192.326 241.804 192.438 242.108 192.59 242.372C192.748 242.63 192.953 242.832 193.205 242.979C193.457 243.125 193.765 243.198 194.128 243.198C194.479 243.198 194.781 243.125 195.033 242.979C195.285 242.832 195.487 242.63 195.64 242.372C195.792 242.108 195.903 241.804 195.974 241.458C196.05 241.112 196.088 240.74 196.088 240.342V240.157C196.088 239.771 196.05 239.407 195.974 239.067C195.903 238.722 195.789 238.417 195.631 238.153C195.479 237.884 195.276 237.673 195.024 237.521C194.772 237.368 194.468 237.292 194.11 237.292C193.753 237.292 193.448 237.368 193.196 237.521C192.95 237.673 192.748 237.884 192.59 238.153C192.438 238.417 192.326 238.722 192.256 239.067C192.186 239.407 192.15 239.771 192.15 240.157ZM202.715 237.564V245H200.184V235.49H202.565L202.715 237.564ZM205.58 235.429L205.536 237.775C205.413 237.758 205.264 237.743 205.088 237.731C204.918 237.714 204.763 237.705 204.622 237.705C204.265 237.705 203.954 237.752 203.69 237.846C203.433 237.934 203.216 238.065 203.04 238.241C202.87 238.417 202.741 238.631 202.653 238.883C202.571 239.135 202.524 239.422 202.513 239.744L202.003 239.586C202.003 238.971 202.064 238.405 202.188 237.89C202.311 237.368 202.489 236.914 202.724 236.527C202.964 236.141 203.257 235.842 203.603 235.631C203.948 235.42 204.344 235.314 204.789 235.314C204.93 235.314 205.073 235.326 205.22 235.35C205.366 235.367 205.486 235.394 205.58 235.429ZM210.528 243.198C210.839 243.198 211.114 243.14 211.354 243.022C211.595 242.899 211.782 242.729 211.917 242.513C212.058 242.29 212.131 242.029 212.137 241.73H214.519C214.513 242.398 214.334 242.993 213.982 243.515C213.631 244.03 213.159 244.438 212.567 244.736C211.976 245.029 211.313 245.176 210.581 245.176C209.843 245.176 209.198 245.053 208.647 244.807C208.103 244.561 207.648 244.221 207.285 243.787C206.922 243.348 206.649 242.838 206.468 242.258C206.286 241.672 206.195 241.045 206.195 240.377V240.122C206.195 239.448 206.286 238.821 206.468 238.241C206.649 237.655 206.922 237.146 207.285 236.712C207.648 236.272 208.103 235.93 208.647 235.684C209.192 235.438 209.831 235.314 210.563 235.314C211.343 235.314 212.025 235.464 212.611 235.763C213.203 236.062 213.666 236.489 214 237.046C214.34 237.597 214.513 238.25 214.519 239.006H212.137C212.131 238.689 212.063 238.402 211.935 238.145C211.812 237.887 211.63 237.682 211.39 237.529C211.155 237.371 210.865 237.292 210.52 237.292C210.15 237.292 209.849 237.371 209.614 237.529C209.38 237.682 209.198 237.893 209.069 238.162C208.94 238.426 208.85 238.728 208.797 239.067C208.75 239.401 208.727 239.753 208.727 240.122V240.377C208.727 240.746 208.75 241.101 208.797 241.44C208.844 241.78 208.932 242.082 209.061 242.346C209.195 242.609 209.38 242.817 209.614 242.97C209.849 243.122 210.153 243.198 210.528 243.198ZM220.363 245.176C219.625 245.176 218.963 245.059 218.377 244.824C217.791 244.584 217.293 244.253 216.883 243.831C216.479 243.409 216.168 242.92 215.951 242.363C215.734 241.801 215.626 241.203 215.626 240.57V240.219C215.626 239.498 215.729 238.839 215.934 238.241C216.139 237.644 216.432 237.125 216.812 236.686C217.199 236.246 217.668 235.909 218.219 235.675C218.77 235.435 219.391 235.314 220.082 235.314C220.756 235.314 221.354 235.426 221.875 235.648C222.396 235.871 222.833 236.188 223.185 236.598C223.542 237.008 223.812 237.5 223.993 238.074C224.175 238.643 224.266 239.275 224.266 239.973V241.027H216.707V239.34H221.778V239.146C221.778 238.795 221.714 238.481 221.585 238.206C221.462 237.925 221.274 237.702 221.022 237.538C220.771 237.374 220.448 237.292 220.056 237.292C219.722 237.292 219.435 237.365 219.194 237.512C218.954 237.658 218.758 237.863 218.605 238.127C218.459 238.391 218.348 238.701 218.271 239.059C218.201 239.41 218.166 239.797 218.166 240.219V240.57C218.166 240.951 218.219 241.303 218.324 241.625C218.436 241.947 218.591 242.226 218.79 242.46C218.995 242.694 219.241 242.876 219.528 243.005C219.821 243.134 220.152 243.198 220.521 243.198C220.979 243.198 221.403 243.11 221.796 242.935C222.194 242.753 222.537 242.48 222.824 242.117L224.055 243.453C223.855 243.74 223.583 244.016 223.237 244.279C222.897 244.543 222.487 244.76 222.007 244.93C221.526 245.094 220.979 245.176 220.363 245.176Z" fill="#0066CC"/>
<path d="M95.4092 273.582V275.533C95.4092 276.582 95.3154 277.467 95.1279 278.188C94.9404 278.908 94.6709 279.488 94.3193 279.928C93.9678 280.367 93.543 280.687 93.0449 280.886C92.5527 281.079 91.9961 281.176 91.375 281.176C90.8828 281.176 90.4287 281.114 90.0127 280.991C89.5967 280.868 89.2217 280.672 88.8877 280.402C88.5596 280.127 88.2783 279.77 88.0439 279.33C87.8096 278.891 87.6309 278.357 87.5078 277.73C87.3848 277.104 87.3232 276.371 87.3232 275.533V273.582C87.3232 272.533 87.417 271.654 87.6045 270.945C87.7979 270.236 88.0703 269.668 88.4219 269.24C88.7734 268.807 89.1953 268.496 89.6875 268.309C90.1855 268.121 90.7422 268.027 91.3574 268.027C91.8555 268.027 92.3125 268.089 92.7285 268.212C93.1504 268.329 93.5254 268.52 93.8535 268.783C94.1816 269.041 94.46 269.387 94.6885 269.82C94.9229 270.248 95.1016 270.772 95.2246 271.394C95.3477 272.015 95.4092 272.744 95.4092 273.582ZM93.7744 275.797V273.31C93.7744 272.735 93.7393 272.231 93.6689 271.798C93.6045 271.358 93.5078 270.983 93.3789 270.673C93.25 270.362 93.0859 270.11 92.8867 269.917C92.6934 269.724 92.4678 269.583 92.21 269.495C91.958 269.401 91.6738 269.354 91.3574 269.354C90.9707 269.354 90.6279 269.428 90.3291 269.574C90.0303 269.715 89.7783 269.94 89.5732 270.251C89.374 270.562 89.2217 270.969 89.1162 271.473C89.0107 271.977 88.958 272.589 88.958 273.31V275.797C88.958 276.371 88.9902 276.878 89.0547 277.317C89.125 277.757 89.2275 278.138 89.3623 278.46C89.4971 278.776 89.6611 279.037 89.8545 279.242C90.0479 279.447 90.2705 279.6 90.5225 279.699C90.7803 279.793 91.0645 279.84 91.375 279.84C91.7734 279.84 92.1221 279.764 92.4209 279.611C92.7197 279.459 92.9688 279.222 93.168 278.899C93.373 278.571 93.5254 278.152 93.625 277.643C93.7246 277.127 93.7744 276.512 93.7744 275.797ZM105.771 268.203V269.117L100.472 281H98.7578L104.049 269.539H97.123V268.203H105.771ZM115.659 273.582V275.533C115.659 276.582 115.565 277.467 115.378 278.188C115.19 278.908 114.921 279.488 114.569 279.928C114.218 280.367 113.793 280.687 113.295 280.886C112.803 281.079 112.246 281.176 111.625 281.176C111.133 281.176 110.679 281.114 110.263 280.991C109.847 280.868 109.472 280.672 109.138 280.402C108.81 280.127 108.528 279.77 108.294 279.33C108.06 278.891 107.881 278.357 107.758 277.73C107.635 277.104 107.573 276.371 107.573 275.533V273.582C107.573 272.533 107.667 271.654 107.854 270.945C108.048 270.236 108.32 269.668 108.672 269.24C109.023 268.807 109.445 268.496 109.938 268.309C110.436 268.121 110.992 268.027 111.607 268.027C112.105 268.027 112.562 268.089 112.979 268.212C113.4 268.329 113.775 268.52 114.104 268.783C114.432 269.041 114.71 269.387 114.938 269.82C115.173 270.248 115.352 270.772 115.475 271.394C115.598 272.015 115.659 272.744 115.659 273.582ZM114.024 275.797V273.31C114.024 272.735 113.989 272.231 113.919 271.798C113.854 271.358 113.758 270.983 113.629 270.673C113.5 270.362 113.336 270.11 113.137 269.917C112.943 269.724 112.718 269.583 112.46 269.495C112.208 269.401 111.924 269.354 111.607 269.354C111.221 269.354 110.878 269.428 110.579 269.574C110.28 269.715 110.028 269.94 109.823 270.251C109.624 270.562 109.472 270.969 109.366 271.473C109.261 271.977 109.208 272.589 109.208 273.31V275.797C109.208 276.371 109.24 276.878 109.305 277.317C109.375 277.757 109.478 278.138 109.612 278.46C109.747 278.776 109.911 279.037 110.104 279.242C110.298 279.447 110.521 279.6 110.772 279.699C111.03 279.793 111.314 279.84 111.625 279.84C112.023 279.84 112.372 279.764 112.671 279.611C112.97 279.459 113.219 279.222 113.418 278.899C113.623 278.571 113.775 278.152 113.875 277.643C113.975 277.127 114.024 276.512 114.024 275.797ZM119.808 274.909L118.507 274.575L119.148 268.203H125.714V269.706H120.528L120.142 273.187C120.376 273.052 120.672 272.926 121.029 272.809C121.393 272.691 121.809 272.633 122.277 272.633C122.869 272.633 123.399 272.735 123.868 272.94C124.337 273.14 124.735 273.427 125.063 273.802C125.397 274.177 125.652 274.628 125.828 275.155C126.004 275.683 126.092 276.271 126.092 276.922C126.092 277.537 126.007 278.103 125.837 278.618C125.673 279.134 125.424 279.585 125.09 279.972C124.756 280.353 124.334 280.648 123.824 280.859C123.32 281.07 122.726 281.176 122.04 281.176C121.524 281.176 121.035 281.105 120.572 280.965C120.115 280.818 119.705 280.599 119.342 280.306C118.984 280.007 118.691 279.638 118.463 279.198C118.24 278.753 118.1 278.231 118.041 277.634H119.588C119.658 278.114 119.799 278.519 120.01 278.847C120.221 279.175 120.496 279.424 120.836 279.594C121.182 279.758 121.583 279.84 122.04 279.84C122.427 279.84 122.77 279.772 123.068 279.638C123.367 279.503 123.619 279.31 123.824 279.058C124.029 278.806 124.185 278.501 124.29 278.144C124.401 277.786 124.457 277.385 124.457 276.939C124.457 276.535 124.401 276.16 124.29 275.814C124.179 275.469 124.012 275.167 123.789 274.909C123.572 274.651 123.306 274.452 122.989 274.312C122.673 274.165 122.31 274.092 121.899 274.092C121.354 274.092 120.941 274.165 120.66 274.312C120.385 274.458 120.101 274.657 119.808 274.909ZM129.933 274.909L128.632 274.575L129.273 268.203H135.839V269.706H130.653L130.267 273.187C130.501 273.052 130.797 272.926 131.154 272.809C131.518 272.691 131.934 272.633 132.402 272.633C132.994 272.633 133.524 272.735 133.993 272.94C134.462 273.14 134.86 273.427 135.188 273.802C135.522 274.177 135.777 274.628 135.953 275.155C136.129 275.683 136.217 276.271 136.217 276.922C136.217 277.537 136.132 278.103 135.962 278.618C135.798 279.134 135.549 279.585 135.215 279.972C134.881 280.353 134.459 280.648 133.949 280.859C133.445 281.07 132.851 281.176 132.165 281.176C131.649 281.176 131.16 281.105 130.697 280.965C130.24 280.818 129.83 280.599 129.467 280.306C129.109 280.007 128.816 279.638 128.588 279.198C128.365 278.753 128.225 278.231 128.166 277.634H129.713C129.783 278.114 129.924 278.519 130.135 278.847C130.346 279.175 130.621 279.424 130.961 279.594C131.307 279.758 131.708 279.84 132.165 279.84C132.552 279.84 132.895 279.772 133.193 279.638C133.492 279.503 133.744 279.31 133.949 279.058C134.154 278.806 134.31 278.501 134.415 278.144C134.526 277.786 134.582 277.385 134.582 276.939C134.582 276.535 134.526 276.16 134.415 275.814C134.304 275.469 134.137 275.167 133.914 274.909C133.697 274.651 133.431 274.452 133.114 274.312C132.798 274.165 132.435 274.092 132.024 274.092C131.479 274.092 131.066 274.165 130.785 274.312C130.51 274.458 130.226 274.657 129.933 274.909ZM146.034 273.582V275.533C146.034 276.582 145.94 277.467 145.753 278.188C145.565 278.908 145.296 279.488 144.944 279.928C144.593 280.367 144.168 280.687 143.67 280.886C143.178 281.079 142.621 281.176 142 281.176C141.508 281.176 141.054 281.114 140.638 280.991C140.222 280.868 139.847 280.672 139.513 280.402C139.185 280.127 138.903 279.77 138.669 279.33C138.435 278.891 138.256 278.357 138.133 277.73C138.01 277.104 137.948 276.371 137.948 275.533V273.582C137.948 272.533 138.042 271.654 138.229 270.945C138.423 270.236 138.695 269.668 139.047 269.24C139.398 268.807 139.82 268.496 140.312 268.309C140.811 268.121 141.367 268.027 141.982 268.027C142.48 268.027 142.938 268.089 143.354 268.212C143.775 268.329 144.15 268.52 144.479 268.783C144.807 269.041 145.085 269.387 145.313 269.82C145.548 270.248 145.727 270.772 145.85 271.394C145.973 272.015 146.034 272.744 146.034 273.582ZM144.399 275.797V273.31C144.399 272.735 144.364 272.231 144.294 271.798C144.229 271.358 144.133 270.983 144.004 270.673C143.875 270.362 143.711 270.11 143.512 269.917C143.318 269.724 143.093 269.583 142.835 269.495C142.583 269.401 142.299 269.354 141.982 269.354C141.596 269.354 141.253 269.428 140.954 269.574C140.655 269.715 140.403 269.94 140.198 270.251C139.999 270.562 139.847 270.969 139.741 271.473C139.636 271.977 139.583 272.589 139.583 273.31V275.797C139.583 276.371 139.615 276.878 139.68 277.317C139.75 277.757 139.853 278.138 139.987 278.46C140.122 278.776 140.286 279.037 140.479 279.242C140.673 279.447 140.896 279.6 141.147 279.699C141.405 279.793 141.689 279.84 142 279.84C142.398 279.84 142.747 279.764 143.046 279.611C143.345 279.459 143.594 279.222 143.793 278.899C143.998 278.571 144.15 278.152 144.25 277.643C144.35 277.127 144.399 276.512 144.399 275.797ZM156.511 279.664V281H148.135V279.831L152.327 275.164C152.843 274.59 153.241 274.104 153.522 273.705C153.81 273.301 154.009 272.94 154.12 272.624C154.237 272.302 154.296 271.974 154.296 271.64C154.296 271.218 154.208 270.837 154.032 270.497C153.862 270.151 153.61 269.876 153.276 269.671C152.942 269.466 152.538 269.363 152.063 269.363C151.495 269.363 151.021 269.475 150.64 269.697C150.265 269.914 149.983 270.219 149.796 270.611C149.608 271.004 149.515 271.455 149.515 271.965H147.889C147.889 271.244 148.047 270.585 148.363 269.987C148.68 269.39 149.148 268.915 149.77 268.563C150.391 268.206 151.155 268.027 152.063 268.027C152.872 268.027 153.563 268.171 154.138 268.458C154.712 268.739 155.151 269.138 155.456 269.653C155.767 270.163 155.922 270.761 155.922 271.446C155.922 271.821 155.857 272.202 155.729 272.589C155.605 272.97 155.433 273.351 155.21 273.731C154.993 274.112 154.738 274.487 154.445 274.856C154.158 275.226 153.851 275.589 153.522 275.946L150.095 279.664H156.511ZM166.319 277.537C166.319 278.316 166.138 278.979 165.774 279.523C165.417 280.062 164.931 280.473 164.315 280.754C163.706 281.035 163.018 281.176 162.25 281.176C161.482 281.176 160.791 281.035 160.176 280.754C159.561 280.473 159.074 280.062 158.717 279.523C158.359 278.979 158.181 278.316 158.181 277.537C158.181 277.027 158.277 276.562 158.471 276.14C158.67 275.712 158.948 275.34 159.306 275.023C159.669 274.707 160.097 274.464 160.589 274.294C161.087 274.118 161.635 274.03 162.232 274.03C163.018 274.03 163.718 274.183 164.333 274.487C164.948 274.786 165.432 275.199 165.783 275.727C166.141 276.254 166.319 276.857 166.319 277.537ZM164.685 277.502C164.685 277.027 164.582 276.608 164.377 276.245C164.172 275.876 163.885 275.589 163.516 275.384C163.146 275.179 162.719 275.076 162.232 275.076C161.734 275.076 161.304 275.179 160.94 275.384C160.583 275.589 160.305 275.876 160.105 276.245C159.906 276.608 159.807 277.027 159.807 277.502C159.807 277.994 159.903 278.416 160.097 278.768C160.296 279.113 160.577 279.38 160.94 279.567C161.31 279.749 161.746 279.84 162.25 279.84C162.754 279.84 163.188 279.749 163.551 279.567C163.914 279.38 164.192 279.113 164.386 278.768C164.585 278.416 164.685 277.994 164.685 277.502ZM166.021 271.534C166.021 272.155 165.856 272.715 165.528 273.213C165.2 273.711 164.752 274.104 164.184 274.391C163.615 274.678 162.971 274.821 162.25 274.821C161.518 274.821 160.864 274.678 160.29 274.391C159.722 274.104 159.276 273.711 158.954 273.213C158.632 272.715 158.471 272.155 158.471 271.534C158.471 270.79 158.632 270.157 158.954 269.636C159.282 269.114 159.73 268.716 160.299 268.44C160.867 268.165 161.515 268.027 162.241 268.027C162.974 268.027 163.624 268.165 164.192 268.44C164.761 268.716 165.206 269.114 165.528 269.636C165.856 270.157 166.021 270.79 166.021 271.534ZM164.395 271.561C164.395 271.133 164.304 270.755 164.122 270.427C163.94 270.099 163.688 269.841 163.366 269.653C163.044 269.46 162.669 269.363 162.241 269.363C161.813 269.363 161.438 269.454 161.116 269.636C160.8 269.812 160.551 270.063 160.369 270.392C160.193 270.72 160.105 271.109 160.105 271.561C160.105 272 160.193 272.384 160.369 272.712C160.551 273.04 160.803 273.295 161.125 273.477C161.447 273.658 161.822 273.749 162.25 273.749C162.678 273.749 163.05 273.658 163.366 273.477C163.688 273.295 163.94 273.04 164.122 272.712C164.304 272.384 164.395 272 164.395 271.561ZM174.616 268.186H174.757V269.565H174.616C173.755 269.565 173.034 269.706 172.454 269.987C171.874 270.263 171.414 270.635 171.074 271.104C170.734 271.566 170.488 272.088 170.336 272.668C170.189 273.248 170.116 273.837 170.116 274.435V276.315C170.116 276.884 170.184 277.388 170.318 277.827C170.453 278.261 170.638 278.627 170.872 278.926C171.106 279.225 171.37 279.45 171.663 279.603C171.962 279.755 172.272 279.831 172.595 279.831C172.97 279.831 173.304 279.761 173.597 279.62C173.89 279.474 174.136 279.271 174.335 279.014C174.54 278.75 174.695 278.439 174.801 278.082C174.906 277.725 174.959 277.332 174.959 276.904C174.959 276.523 174.912 276.157 174.818 275.806C174.725 275.448 174.581 275.132 174.388 274.856C174.194 274.575 173.951 274.355 173.658 274.197C173.371 274.033 173.028 273.951 172.63 273.951C172.179 273.951 171.757 274.062 171.364 274.285C170.978 274.502 170.658 274.789 170.406 275.146C170.16 275.498 170.02 275.882 169.984 276.298L169.123 276.289C169.205 275.633 169.357 275.073 169.58 274.61C169.809 274.142 170.09 273.761 170.424 273.468C170.764 273.169 171.142 272.952 171.558 272.817C171.979 272.677 172.425 272.606 172.894 272.606C173.532 272.606 174.083 272.727 174.546 272.967C175.009 273.207 175.39 273.529 175.688 273.934C175.987 274.332 176.207 274.783 176.348 275.287C176.494 275.785 176.567 276.298 176.567 276.825C176.567 277.429 176.482 277.994 176.312 278.521C176.143 279.049 175.888 279.512 175.548 279.91C175.214 280.309 174.801 280.619 174.309 280.842C173.816 281.064 173.245 281.176 172.595 281.176C171.903 281.176 171.3 281.035 170.784 280.754C170.269 280.467 169.841 280.086 169.501 279.611C169.161 279.137 168.906 278.609 168.736 278.029C168.566 277.449 168.481 276.86 168.481 276.263V275.498C168.481 274.596 168.572 273.711 168.754 272.844C168.936 271.977 169.249 271.191 169.694 270.488C170.146 269.785 170.77 269.226 171.566 268.81C172.363 268.394 173.38 268.186 174.616 268.186ZM186.771 268.203V269.117L181.472 281H179.758L185.049 269.539H178.123V268.203H186.771ZM190.999 273.802H192.159C192.728 273.802 193.196 273.708 193.565 273.521C193.94 273.327 194.219 273.066 194.4 272.738C194.588 272.404 194.682 272.029 194.682 271.613C194.682 271.121 194.6 270.708 194.436 270.374C194.271 270.04 194.025 269.788 193.697 269.618C193.369 269.448 192.953 269.363 192.449 269.363C191.992 269.363 191.588 269.454 191.236 269.636C190.891 269.812 190.618 270.063 190.419 270.392C190.226 270.72 190.129 271.106 190.129 271.552H188.503C188.503 270.901 188.667 270.31 188.995 269.776C189.323 269.243 189.783 268.818 190.375 268.502C190.973 268.186 191.664 268.027 192.449 268.027C193.223 268.027 193.899 268.165 194.479 268.44C195.06 268.71 195.511 269.114 195.833 269.653C196.155 270.187 196.316 270.852 196.316 271.648C196.316 271.971 196.24 272.316 196.088 272.686C195.941 273.049 195.71 273.389 195.394 273.705C195.083 274.021 194.679 274.282 194.181 274.487C193.683 274.687 193.085 274.786 192.388 274.786H190.999V273.802ZM190.999 275.138V274.162H192.388C193.202 274.162 193.876 274.259 194.409 274.452C194.942 274.646 195.361 274.903 195.666 275.226C195.977 275.548 196.193 275.902 196.316 276.289C196.445 276.67 196.51 277.051 196.51 277.432C196.51 278.029 196.407 278.56 196.202 279.022C196.003 279.485 195.719 279.878 195.35 280.2C194.986 280.522 194.559 280.766 194.066 280.93C193.574 281.094 193.038 281.176 192.458 281.176C191.901 281.176 191.377 281.097 190.885 280.938C190.398 280.78 189.968 280.552 189.593 280.253C189.218 279.948 188.925 279.576 188.714 279.137C188.503 278.691 188.397 278.185 188.397 277.616H190.023C190.023 278.062 190.12 278.451 190.313 278.785C190.513 279.119 190.794 279.38 191.157 279.567C191.526 279.749 191.96 279.84 192.458 279.84C192.956 279.84 193.384 279.755 193.741 279.585C194.104 279.409 194.383 279.146 194.576 278.794C194.775 278.442 194.875 278 194.875 277.467C194.875 276.934 194.764 276.497 194.541 276.157C194.318 275.812 194.002 275.557 193.592 275.393C193.188 275.223 192.71 275.138 192.159 275.138H190.999Z" fill="black"/>
<circle cx="142.5" cy="95" r="95" fill="white"/>
<path d="M113.682 130V121.882H120.155L128.144 95.1956C128.684 93.4368 129.679 92.0324 131.13 90.9825C132.581 89.9326 134.181 89.4091 135.932 89.4118H148.068C149.821 89.4118 151.423 89.9367 152.874 90.9866C154.325 92.0365 155.319 93.4395 155.856 95.1956L163.845 121.882H170.318V130H113.682ZM137.955 81.2941V61H146.045V81.2941H137.955ZM162.025 91.3397L156.26 85.5559L170.622 71.2485L176.285 76.9309L162.025 91.3397ZM166.273 109.706V101.588H186.5V109.706H166.273ZM121.975 91.3397L107.715 76.9309L113.378 71.2485L127.74 85.5559L121.975 91.3397ZM97.5 109.706V101.588H117.727V109.706H97.5Z" fill="#FF0000"/>
</g>
<defs>
<filter id="filter0_d_38_2590" x="0.5" y="0" width="284" height="365" filterUnits="userSpaceOnUse" color-interpolation-filters="sRGB">
<feFlood flood-opacity="0" result="BackgroundImageFix"/>
<feColorMatrix in="SourceAlpha" type="matrix" values="0 0 0 0 0 0 0 0 0 0 0 0 0 0 0 0 0 0 127 0" result="hardAlpha"/>
<feOffset dy="4"/>
<feGaussianBlur stdDeviation="2"/>
<feComposite in2="hardAlpha" operator="out"/>
<feColorMatrix type="matrix" values="0 0 0 0 0 0 0 0 0 0 0 0 0 0 0 0 0 0 0.25 0"/>
<feBlend mode="normal" in2="BackgroundImageFix" result="effect1_dropShadow_38_2590"/>
<feBlend mode="normal" in="SourceGraphic" in2="effect1_dropShadow_38_2590" result="shape"/>
</filter>
</defs>
</svg>
