<svg width="276" height="357" viewBox="0 0 276 357" fill="none" xmlns="http://www.w3.org/2000/svg">
<rect y="95" width="276" height="262" rx="8" fill="white"/>
<path d="M59.3721 199.203V212H56.7354V199.203H59.3721ZM64.4697 204.67V206.727H58.6514V204.67H64.4697ZM65.085 199.203V201.269H58.6514V199.203H65.085ZM71.29 209.855V205.619C71.29 205.314 71.2402 205.054 71.1406 204.837C71.041 204.614 70.8857 204.441 70.6748 204.318C70.4697 204.195 70.2031 204.134 69.875 204.134C69.5938 204.134 69.3506 204.184 69.1455 204.283C68.9404 204.377 68.7822 204.515 68.6709 204.696C68.5596 204.872 68.5039 205.08 68.5039 205.32H65.9727C65.9727 204.916 66.0664 204.532 66.2539 204.169C66.4414 203.806 66.7139 203.486 67.0713 203.211C67.4287 202.93 67.8535 202.71 68.3457 202.552C68.8438 202.394 69.4004 202.314 70.0156 202.314C70.7539 202.314 71.4102 202.438 71.9844 202.684C72.5586 202.93 73.0098 203.299 73.3379 203.791C73.6719 204.283 73.8389 204.898 73.8389 205.637V209.706C73.8389 210.228 73.8711 210.655 73.9355 210.989C74 211.317 74.0938 211.604 74.2168 211.851V212H71.6592C71.5361 211.742 71.4424 211.42 71.3779 211.033C71.3193 210.641 71.29 210.248 71.29 209.855ZM71.624 206.208L71.6416 207.641H70.2266C69.8926 207.641 69.6025 207.679 69.3564 207.755C69.1104 207.831 68.9082 207.939 68.75 208.08C68.5918 208.215 68.4746 208.373 68.3984 208.555C68.3281 208.736 68.293 208.936 68.293 209.152C68.293 209.369 68.3428 209.565 68.4424 209.741C68.542 209.911 68.6855 210.046 68.873 210.146C69.0605 210.239 69.2803 210.286 69.5322 210.286C69.9131 210.286 70.2441 210.21 70.5254 210.058C70.8066 209.905 71.0234 209.718 71.1758 209.495C71.334 209.272 71.416 209.062 71.4219 208.862L72.0898 209.935C71.9961 210.175 71.8672 210.424 71.7031 210.682C71.5449 210.939 71.3428 211.183 71.0967 211.411C70.8506 211.634 70.5547 211.818 70.209 211.965C69.8633 212.105 69.4531 212.176 68.9785 212.176C68.375 212.176 67.8271 212.056 67.335 211.815C66.8486 211.569 66.4619 211.232 66.1748 210.805C65.8936 210.371 65.7529 209.879 65.7529 209.328C65.7529 208.83 65.8467 208.388 66.0342 208.001C66.2217 207.614 66.4971 207.289 66.8604 207.025C67.2295 206.756 67.6895 206.554 68.2402 206.419C68.791 206.278 69.4297 206.208 70.1562 206.208H71.624ZM80.167 212.176C79.4287 212.176 78.7666 212.059 78.1807 211.824C77.5947 211.584 77.0967 211.253 76.6865 210.831C76.2822 210.409 75.9717 209.92 75.7549 209.363C75.5381 208.801 75.4297 208.203 75.4297 207.57V207.219C75.4297 206.498 75.5322 205.839 75.7373 205.241C75.9424 204.644 76.2354 204.125 76.6162 203.686C77.0029 203.246 77.4717 202.909 78.0225 202.675C78.5732 202.435 79.1943 202.314 79.8857 202.314C80.5596 202.314 81.1572 202.426 81.6787 202.648C82.2002 202.871 82.6367 203.188 82.9883 203.598C83.3457 204.008 83.6152 204.5 83.7969 205.074C83.9785 205.643 84.0693 206.275 84.0693 206.973V208.027H76.5107V206.34H81.582V206.146C81.582 205.795 81.5176 205.481 81.3887 205.206C81.2656 204.925 81.0781 204.702 80.8262 204.538C80.5742 204.374 80.252 204.292 79.8594 204.292C79.5254 204.292 79.2383 204.365 78.998 204.512C78.7578 204.658 78.5615 204.863 78.4092 205.127C78.2627 205.391 78.1514 205.701 78.0752 206.059C78.0049 206.41 77.9697 206.797 77.9697 207.219V207.57C77.9697 207.951 78.0225 208.303 78.1279 208.625C78.2393 208.947 78.3945 209.226 78.5938 209.46C78.7988 209.694 79.0449 209.876 79.332 210.005C79.625 210.134 79.9561 210.198 80.3252 210.198C80.7822 210.198 81.207 210.11 81.5996 209.935C81.998 209.753 82.3408 209.48 82.6279 209.117L83.8584 210.453C83.6592 210.74 83.3867 211.016 83.041 211.279C82.7012 211.543 82.291 211.76 81.8105 211.93C81.3301 212.094 80.7822 212.176 80.167 212.176ZM94.0801 212H91.2939L91.3115 209.943H94.0801C94.7715 209.943 95.3545 209.788 95.8291 209.478C96.3037 209.161 96.6611 208.701 96.9014 208.098C97.1475 207.494 97.2705 206.765 97.2705 205.909V205.285C97.2705 204.629 97.2002 204.052 97.0596 203.554C96.9248 203.056 96.7227 202.637 96.4531 202.297C96.1836 201.957 95.8525 201.702 95.46 201.532C95.0674 201.356 94.6162 201.269 94.1064 201.269H91.2412V199.203H94.1064C94.9619 199.203 95.7441 199.35 96.4531 199.643C97.168 199.93 97.7861 200.343 98.3076 200.882C98.8291 201.421 99.2305 202.065 99.5117 202.815C99.7988 203.56 99.9424 204.389 99.9424 205.303V205.909C99.9424 206.817 99.7988 207.646 99.5117 208.396C99.2305 209.146 98.8291 209.791 98.3076 210.33C97.792 210.863 97.1738 211.276 96.4531 211.569C95.7383 211.856 94.9473 212 94.0801 212ZM92.7881 199.203V212H90.1514V199.203H92.7881ZM104.231 204.564V212H101.7V202.49H104.082L104.231 204.564ZM107.097 202.429L107.053 204.775C106.93 204.758 106.78 204.743 106.604 204.731C106.435 204.714 106.279 204.705 106.139 204.705C105.781 204.705 105.471 204.752 105.207 204.846C104.949 204.934 104.732 205.065 104.557 205.241C104.387 205.417 104.258 205.631 104.17 205.883C104.088 206.135 104.041 206.422 104.029 206.744L103.52 206.586C103.52 205.971 103.581 205.405 103.704 204.89C103.827 204.368 104.006 203.914 104.24 203.527C104.48 203.141 104.773 202.842 105.119 202.631C105.465 202.42 105.86 202.314 106.306 202.314C106.446 202.314 106.59 202.326 106.736 202.35C106.883 202.367 107.003 202.394 107.097 202.429ZM113.917 209.724V202.49H116.448V212H114.066L113.917 209.724ZM114.198 207.772L114.945 207.755C114.945 208.388 114.872 208.977 114.726 209.521C114.579 210.061 114.359 210.529 114.066 210.928C113.773 211.32 113.404 211.628 112.959 211.851C112.514 212.067 111.989 212.176 111.386 212.176C110.923 212.176 110.495 212.111 110.103 211.982C109.716 211.848 109.382 211.64 109.101 211.358C108.825 211.071 108.608 210.705 108.45 210.26C108.298 209.809 108.222 209.267 108.222 208.634V202.49H110.753V208.651C110.753 208.933 110.785 209.17 110.85 209.363C110.92 209.557 111.017 209.715 111.14 209.838C111.263 209.961 111.406 210.049 111.57 210.102C111.74 210.154 111.928 210.181 112.133 210.181C112.654 210.181 113.064 210.075 113.363 209.864C113.668 209.653 113.882 209.366 114.005 209.003C114.134 208.634 114.198 208.224 114.198 207.772ZM124.402 202.49H126.696V211.684C126.696 212.551 126.503 213.286 126.116 213.89C125.735 214.499 125.202 214.959 124.517 215.27C123.831 215.586 123.034 215.744 122.126 215.744C121.728 215.744 121.306 215.691 120.86 215.586C120.421 215.48 119.999 215.316 119.595 215.094C119.196 214.871 118.862 214.59 118.593 214.25L119.709 212.756C120.002 213.096 120.342 213.359 120.729 213.547C121.115 213.74 121.543 213.837 122.012 213.837C122.469 213.837 122.855 213.752 123.172 213.582C123.488 213.418 123.731 213.175 123.901 212.853C124.071 212.536 124.156 212.152 124.156 211.701V204.688L124.402 202.49ZM118.004 207.359V207.175C118.004 206.448 118.092 205.789 118.268 205.197C118.449 204.6 118.704 204.087 119.032 203.659C119.366 203.231 119.771 202.9 120.245 202.666C120.72 202.432 121.256 202.314 121.854 202.314C122.486 202.314 123.017 202.432 123.444 202.666C123.872 202.9 124.224 203.234 124.499 203.668C124.774 204.096 124.988 204.603 125.141 205.188C125.299 205.769 125.422 206.404 125.51 207.096V207.5C125.422 208.162 125.29 208.777 125.114 209.346C124.938 209.914 124.707 210.412 124.42 210.84C124.133 211.262 123.775 211.59 123.348 211.824C122.926 212.059 122.422 212.176 121.836 212.176C121.25 212.176 120.72 212.056 120.245 211.815C119.776 211.575 119.375 211.238 119.041 210.805C118.707 210.371 118.449 209.861 118.268 209.275C118.092 208.689 118.004 208.051 118.004 207.359ZM120.535 207.175V207.359C120.535 207.752 120.573 208.118 120.649 208.458C120.726 208.798 120.843 209.1 121.001 209.363C121.165 209.621 121.367 209.823 121.607 209.97C121.854 210.11 122.144 210.181 122.478 210.181C122.94 210.181 123.318 210.084 123.611 209.891C123.904 209.691 124.124 209.419 124.271 209.073C124.417 208.728 124.502 208.329 124.525 207.878V206.727C124.514 206.357 124.464 206.026 124.376 205.733C124.288 205.435 124.165 205.18 124.007 204.969C123.849 204.758 123.644 204.594 123.392 204.477C123.14 204.359 122.841 204.301 122.495 204.301C122.161 204.301 121.871 204.377 121.625 204.529C121.385 204.676 121.183 204.878 121.019 205.136C120.86 205.394 120.74 205.698 120.658 206.05C120.576 206.396 120.535 206.771 120.535 207.175ZM133.807 209.372C133.807 209.19 133.754 209.026 133.648 208.88C133.543 208.733 133.347 208.599 133.06 208.476C132.778 208.347 132.371 208.229 131.838 208.124C131.357 208.019 130.909 207.887 130.493 207.729C130.083 207.564 129.726 207.368 129.421 207.14C129.122 206.911 128.888 206.642 128.718 206.331C128.548 206.015 128.463 205.654 128.463 205.25C128.463 204.852 128.548 204.477 128.718 204.125C128.894 203.773 129.143 203.463 129.465 203.193C129.793 202.918 130.191 202.704 130.66 202.552C131.135 202.394 131.668 202.314 132.26 202.314C133.086 202.314 133.795 202.446 134.387 202.71C134.984 202.974 135.441 203.337 135.758 203.8C136.08 204.257 136.241 204.778 136.241 205.364H133.71C133.71 205.118 133.657 204.898 133.552 204.705C133.452 204.506 133.294 204.351 133.077 204.239C132.866 204.122 132.591 204.063 132.251 204.063C131.97 204.063 131.727 204.113 131.521 204.213C131.316 204.307 131.158 204.436 131.047 204.6C130.941 204.758 130.889 204.934 130.889 205.127C130.889 205.273 130.918 205.405 130.977 205.522C131.041 205.634 131.144 205.736 131.284 205.83C131.425 205.924 131.606 206.012 131.829 206.094C132.058 206.17 132.339 206.24 132.673 206.305C133.358 206.445 133.971 206.63 134.51 206.858C135.049 207.081 135.477 207.386 135.793 207.772C136.109 208.153 136.268 208.654 136.268 209.275C136.268 209.697 136.174 210.084 135.986 210.436C135.799 210.787 135.529 211.095 135.178 211.358C134.826 211.616 134.404 211.818 133.912 211.965C133.426 212.105 132.878 212.176 132.269 212.176C131.384 212.176 130.634 212.018 130.019 211.701C129.409 211.385 128.946 210.983 128.63 210.497C128.319 210.005 128.164 209.501 128.164 208.985H130.563C130.575 209.331 130.663 209.609 130.827 209.82C130.997 210.031 131.211 210.184 131.469 210.277C131.732 210.371 132.017 210.418 132.321 210.418C132.649 210.418 132.922 210.374 133.139 210.286C133.355 210.192 133.52 210.069 133.631 209.917C133.748 209.759 133.807 209.577 133.807 209.372ZM143.378 199.203L138.685 213.099H136.804L141.497 199.203H143.378ZM155.164 199.203V212H152.527L147.386 203.422V212H144.749V199.203H147.386L152.536 207.79V199.203H155.164ZM162.433 209.855V205.619C162.433 205.314 162.383 205.054 162.283 204.837C162.184 204.614 162.028 204.441 161.817 204.318C161.612 204.195 161.346 204.134 161.018 204.134C160.736 204.134 160.493 204.184 160.288 204.283C160.083 204.377 159.925 204.515 159.813 204.696C159.702 204.872 159.646 205.08 159.646 205.32H157.115C157.115 204.916 157.209 204.532 157.396 204.169C157.584 203.806 157.856 203.486 158.214 203.211C158.571 202.93 158.996 202.71 159.488 202.552C159.986 202.394 160.543 202.314 161.158 202.314C161.896 202.314 162.553 202.438 163.127 202.684C163.701 202.93 164.152 203.299 164.48 203.791C164.814 204.283 164.981 204.898 164.981 205.637V209.706C164.981 210.228 165.014 210.655 165.078 210.989C165.143 211.317 165.236 211.604 165.359 211.851V212H162.802C162.679 211.742 162.585 211.42 162.521 211.033C162.462 210.641 162.433 210.248 162.433 209.855ZM162.767 206.208L162.784 207.641H161.369C161.035 207.641 160.745 207.679 160.499 207.755C160.253 207.831 160.051 207.939 159.893 208.08C159.734 208.215 159.617 208.373 159.541 208.555C159.471 208.736 159.436 208.936 159.436 209.152C159.436 209.369 159.485 209.565 159.585 209.741C159.685 209.911 159.828 210.046 160.016 210.146C160.203 210.239 160.423 210.286 160.675 210.286C161.056 210.286 161.387 210.21 161.668 210.058C161.949 209.905 162.166 209.718 162.318 209.495C162.477 209.272 162.559 209.062 162.564 208.862L163.232 209.935C163.139 210.175 163.01 210.424 162.846 210.682C162.688 210.939 162.485 211.183 162.239 211.411C161.993 211.634 161.697 211.818 161.352 211.965C161.006 212.105 160.596 212.176 160.121 212.176C159.518 212.176 158.97 212.056 158.478 211.815C157.991 211.569 157.604 211.232 157.317 210.805C157.036 210.371 156.896 209.879 156.896 209.328C156.896 208.83 156.989 208.388 157.177 208.001C157.364 207.614 157.64 207.289 158.003 207.025C158.372 206.756 158.832 206.554 159.383 206.419C159.934 206.278 160.572 206.208 161.299 206.208H162.767ZM169.464 204.564V212H166.933V202.49H169.314L169.464 204.564ZM172.329 202.429L172.285 204.775C172.162 204.758 172.013 204.743 171.837 204.731C171.667 204.714 171.512 204.705 171.371 204.705C171.014 204.705 170.703 204.752 170.439 204.846C170.182 204.934 169.965 205.065 169.789 205.241C169.619 205.417 169.49 205.631 169.402 205.883C169.32 206.135 169.273 206.422 169.262 206.744L168.752 206.586C168.752 205.971 168.813 205.405 168.937 204.89C169.06 204.368 169.238 203.914 169.473 203.527C169.713 203.141 170.006 202.842 170.352 202.631C170.697 202.42 171.093 202.314 171.538 202.314C171.679 202.314 171.822 202.326 171.969 202.35C172.115 202.367 172.235 202.394 172.329 202.429ZM177.277 210.198C177.588 210.198 177.863 210.14 178.104 210.022C178.344 209.899 178.531 209.729 178.666 209.513C178.807 209.29 178.88 209.029 178.886 208.73H181.268C181.262 209.398 181.083 209.993 180.731 210.515C180.38 211.03 179.908 211.438 179.316 211.736C178.725 212.029 178.062 212.176 177.33 212.176C176.592 212.176 175.947 212.053 175.396 211.807C174.852 211.561 174.397 211.221 174.034 210.787C173.671 210.348 173.398 209.838 173.217 209.258C173.035 208.672 172.944 208.045 172.944 207.377V207.122C172.944 206.448 173.035 205.821 173.217 205.241C173.398 204.655 173.671 204.146 174.034 203.712C174.397 203.272 174.852 202.93 175.396 202.684C175.941 202.438 176.58 202.314 177.312 202.314C178.092 202.314 178.774 202.464 179.36 202.763C179.952 203.062 180.415 203.489 180.749 204.046C181.089 204.597 181.262 205.25 181.268 206.006H178.886C178.88 205.689 178.812 205.402 178.684 205.145C178.561 204.887 178.379 204.682 178.139 204.529C177.904 204.371 177.614 204.292 177.269 204.292C176.899 204.292 176.598 204.371 176.363 204.529C176.129 204.682 175.947 204.893 175.818 205.162C175.689 205.426 175.599 205.728 175.546 206.067C175.499 206.401 175.476 206.753 175.476 207.122V207.377C175.476 207.746 175.499 208.101 175.546 208.44C175.593 208.78 175.681 209.082 175.81 209.346C175.944 209.609 176.129 209.817 176.363 209.97C176.598 210.122 176.902 210.198 177.277 210.198ZM182.331 207.342V207.157C182.331 206.46 182.431 205.818 182.63 205.232C182.829 204.641 183.119 204.128 183.5 203.694C183.881 203.261 184.35 202.924 184.906 202.684C185.463 202.438 186.102 202.314 186.822 202.314C187.543 202.314 188.185 202.438 188.747 202.684C189.31 202.924 189.781 203.261 190.162 203.694C190.549 204.128 190.842 204.641 191.041 205.232C191.24 205.818 191.34 206.46 191.34 207.157V207.342C191.34 208.033 191.24 208.675 191.041 209.267C190.842 209.853 190.549 210.365 190.162 210.805C189.781 211.238 189.312 211.575 188.756 211.815C188.199 212.056 187.561 212.176 186.84 212.176C186.119 212.176 185.478 212.056 184.915 211.815C184.358 211.575 183.887 211.238 183.5 210.805C183.119 210.365 182.829 209.853 182.63 209.267C182.431 208.675 182.331 208.033 182.331 207.342ZM184.862 207.157V207.342C184.862 207.74 184.897 208.112 184.968 208.458C185.038 208.804 185.149 209.108 185.302 209.372C185.46 209.63 185.665 209.832 185.917 209.979C186.169 210.125 186.477 210.198 186.84 210.198C187.191 210.198 187.493 210.125 187.745 209.979C187.997 209.832 188.199 209.63 188.352 209.372C188.504 209.108 188.615 208.804 188.686 208.458C188.762 208.112 188.8 207.74 188.8 207.342V207.157C188.8 206.771 188.762 206.407 188.686 206.067C188.615 205.722 188.501 205.417 188.343 205.153C188.19 204.884 187.988 204.673 187.736 204.521C187.484 204.368 187.18 204.292 186.822 204.292C186.465 204.292 186.16 204.368 185.908 204.521C185.662 204.673 185.46 204.884 185.302 205.153C185.149 205.417 185.038 205.722 184.968 206.067C184.897 206.407 184.862 206.771 184.862 207.157ZM197.554 202.49V204.283H192.017V202.49H197.554ZM193.388 200.144H195.919V209.135C195.919 209.41 195.954 209.621 196.024 209.768C196.101 209.914 196.212 210.017 196.358 210.075C196.505 210.128 196.689 210.154 196.912 210.154C197.07 210.154 197.211 210.148 197.334 210.137C197.463 210.119 197.571 210.102 197.659 210.084L197.668 211.947C197.451 212.018 197.217 212.073 196.965 212.114C196.713 212.155 196.435 212.176 196.13 212.176C195.573 212.176 195.087 212.085 194.671 211.903C194.261 211.716 193.944 211.417 193.722 211.007C193.499 210.597 193.388 210.058 193.388 209.39V200.144ZM201.667 202.49V212H199.127V202.49H201.667ZM198.969 200.012C198.969 199.643 199.098 199.338 199.355 199.098C199.613 198.857 199.959 198.737 200.393 198.737C200.82 198.737 201.163 198.857 201.421 199.098C201.685 199.338 201.816 199.643 201.816 200.012C201.816 200.381 201.685 200.686 201.421 200.926C201.163 201.166 200.82 201.286 200.393 201.286C199.959 201.286 199.613 201.166 199.355 200.926C199.098 200.686 198.969 200.381 198.969 200.012ZM207.688 210.198C207.998 210.198 208.273 210.14 208.514 210.022C208.754 209.899 208.941 209.729 209.076 209.513C209.217 209.29 209.29 209.029 209.296 208.73H211.678C211.672 209.398 211.493 209.993 211.142 210.515C210.79 211.03 210.318 211.438 209.727 211.736C209.135 212.029 208.473 212.176 207.74 212.176C207.002 212.176 206.357 212.053 205.807 211.807C205.262 211.561 204.808 211.221 204.444 210.787C204.081 210.348 203.809 209.838 203.627 209.258C203.445 208.672 203.354 208.045 203.354 207.377V207.122C203.354 206.448 203.445 205.821 203.627 205.241C203.809 204.655 204.081 204.146 204.444 203.712C204.808 203.272 205.262 202.93 205.807 202.684C206.352 202.438 206.99 202.314 207.723 202.314C208.502 202.314 209.185 202.464 209.771 202.763C210.362 203.062 210.825 203.489 211.159 204.046C211.499 204.597 211.672 205.25 211.678 206.006H209.296C209.29 205.689 209.223 205.402 209.094 205.145C208.971 204.887 208.789 204.682 208.549 204.529C208.314 204.371 208.024 204.292 207.679 204.292C207.31 204.292 207.008 204.371 206.773 204.529C206.539 204.682 206.357 204.893 206.229 205.162C206.1 205.426 206.009 205.728 205.956 206.067C205.909 206.401 205.886 206.753 205.886 207.122V207.377C205.886 207.746 205.909 208.101 205.956 208.44C206.003 208.78 206.091 209.082 206.22 209.346C206.354 209.609 206.539 209.817 206.773 209.97C207.008 210.122 207.312 210.198 207.688 210.198ZM218.287 209.372C218.287 209.19 218.234 209.026 218.129 208.88C218.023 208.733 217.827 208.599 217.54 208.476C217.259 208.347 216.852 208.229 216.318 208.124C215.838 208.019 215.39 207.887 214.974 207.729C214.563 207.564 214.206 207.368 213.901 207.14C213.603 206.911 213.368 206.642 213.198 206.331C213.028 206.015 212.943 205.654 212.943 205.25C212.943 204.852 213.028 204.477 213.198 204.125C213.374 203.773 213.623 203.463 213.945 203.193C214.273 202.918 214.672 202.704 215.141 202.552C215.615 202.394 216.148 202.314 216.74 202.314C217.566 202.314 218.275 202.446 218.867 202.71C219.465 202.974 219.922 203.337 220.238 203.8C220.561 204.257 220.722 204.778 220.722 205.364H218.19C218.19 205.118 218.138 204.898 218.032 204.705C217.933 204.506 217.774 204.351 217.558 204.239C217.347 204.122 217.071 204.063 216.731 204.063C216.45 204.063 216.207 204.113 216.002 204.213C215.797 204.307 215.639 204.436 215.527 204.6C215.422 204.758 215.369 204.934 215.369 205.127C215.369 205.273 215.398 205.405 215.457 205.522C215.521 205.634 215.624 205.736 215.765 205.83C215.905 205.924 216.087 206.012 216.31 206.094C216.538 206.17 216.819 206.24 217.153 206.305C217.839 206.445 218.451 206.63 218.99 206.858C219.529 207.081 219.957 207.386 220.273 207.772C220.59 208.153 220.748 208.654 220.748 209.275C220.748 209.697 220.654 210.084 220.467 210.436C220.279 210.787 220.01 211.095 219.658 211.358C219.307 211.616 218.885 211.818 218.393 211.965C217.906 212.105 217.358 212.176 216.749 212.176C215.864 212.176 215.114 212.018 214.499 211.701C213.89 211.385 213.427 210.983 213.11 210.497C212.8 210.005 212.645 209.501 212.645 208.985H215.044C215.056 209.331 215.144 209.609 215.308 209.82C215.478 210.031 215.691 210.184 215.949 210.277C216.213 210.371 216.497 210.418 216.802 210.418C217.13 210.418 217.402 210.374 217.619 210.286C217.836 210.192 218 210.069 218.111 209.917C218.229 209.759 218.287 209.577 218.287 209.372ZM93.0605 232.99V232.797C93.0605 231.561 93.1895 230.438 93.4473 229.431C93.7109 228.423 94.0566 227.538 94.4844 226.776C94.918 226.009 95.3896 225.373 95.8994 224.869C96.4092 224.365 96.916 224.002 97.4199 223.779L97.9033 225.115C97.5693 225.361 97.2412 225.701 96.9189 226.135C96.5967 226.562 96.3037 227.09 96.04 227.717C95.7822 228.338 95.5742 229.07 95.416 229.914C95.2578 230.752 95.1787 231.707 95.1787 232.779V233.008C95.1787 234.08 95.2578 235.038 95.416 235.882C95.5742 236.72 95.7822 237.452 96.04 238.079C96.3037 238.712 96.5967 239.245 96.9189 239.679C97.2412 240.112 97.5693 240.455 97.9033 240.707L97.4199 242.008C96.916 241.785 96.4092 241.422 95.8994 240.918C95.3896 240.42 94.918 239.787 94.4844 239.02C94.0566 238.258 93.7109 237.373 93.4473 236.365C93.1895 235.352 93.0605 234.227 93.0605 232.99ZM105.119 225.203V238H102.491V225.203H105.119ZM109.057 225.203V227.269H98.6152V225.203H109.057ZM114.198 235.855V231.619C114.198 231.314 114.148 231.054 114.049 230.837C113.949 230.614 113.794 230.441 113.583 230.318C113.378 230.195 113.111 230.134 112.783 230.134C112.502 230.134 112.259 230.184 112.054 230.283C111.849 230.377 111.69 230.515 111.579 230.696C111.468 230.872 111.412 231.08 111.412 231.32H108.881C108.881 230.916 108.975 230.532 109.162 230.169C109.35 229.806 109.622 229.486 109.979 229.211C110.337 228.93 110.762 228.71 111.254 228.552C111.752 228.394 112.309 228.314 112.924 228.314C113.662 228.314 114.318 228.438 114.893 228.684C115.467 228.93 115.918 229.299 116.246 229.791C116.58 230.283 116.747 230.898 116.747 231.637V235.706C116.747 236.228 116.779 236.655 116.844 236.989C116.908 237.317 117.002 237.604 117.125 237.851V238H114.567C114.444 237.742 114.351 237.42 114.286 237.033C114.228 236.641 114.198 236.248 114.198 235.855ZM114.532 232.208L114.55 233.641H113.135C112.801 233.641 112.511 233.679 112.265 233.755C112.019 233.831 111.816 233.939 111.658 234.08C111.5 234.215 111.383 234.373 111.307 234.555C111.236 234.736 111.201 234.936 111.201 235.152C111.201 235.369 111.251 235.565 111.351 235.741C111.45 235.911 111.594 236.046 111.781 236.146C111.969 236.239 112.188 236.286 112.44 236.286C112.821 236.286 113.152 236.21 113.434 236.058C113.715 235.905 113.932 235.718 114.084 235.495C114.242 235.272 114.324 235.062 114.33 234.862L114.998 235.935C114.904 236.175 114.775 236.424 114.611 236.682C114.453 236.939 114.251 237.183 114.005 237.411C113.759 237.634 113.463 237.818 113.117 237.965C112.771 238.105 112.361 238.176 111.887 238.176C111.283 238.176 110.735 238.056 110.243 237.815C109.757 237.569 109.37 237.232 109.083 236.805C108.802 236.371 108.661 235.879 108.661 235.328C108.661 234.83 108.755 234.388 108.942 234.001C109.13 233.614 109.405 233.289 109.769 233.025C110.138 232.756 110.598 232.554 111.148 232.419C111.699 232.278 112.338 232.208 113.064 232.208H114.532ZM123.84 235.372C123.84 235.19 123.787 235.026 123.682 234.88C123.576 234.733 123.38 234.599 123.093 234.476C122.812 234.347 122.404 234.229 121.871 234.124C121.391 234.019 120.942 233.887 120.526 233.729C120.116 233.564 119.759 233.368 119.454 233.14C119.155 232.911 118.921 232.642 118.751 232.331C118.581 232.015 118.496 231.654 118.496 231.25C118.496 230.852 118.581 230.477 118.751 230.125C118.927 229.773 119.176 229.463 119.498 229.193C119.826 228.918 120.225 228.704 120.693 228.552C121.168 228.394 121.701 228.314 122.293 228.314C123.119 228.314 123.828 228.446 124.42 228.71C125.018 228.974 125.475 229.337 125.791 229.8C126.113 230.257 126.274 230.778 126.274 231.364H123.743C123.743 231.118 123.69 230.898 123.585 230.705C123.485 230.506 123.327 230.351 123.11 230.239C122.899 230.122 122.624 230.063 122.284 230.063C122.003 230.063 121.76 230.113 121.555 230.213C121.35 230.307 121.191 230.436 121.08 230.6C120.975 230.758 120.922 230.934 120.922 231.127C120.922 231.273 120.951 231.405 121.01 231.522C121.074 231.634 121.177 231.736 121.317 231.83C121.458 231.924 121.64 232.012 121.862 232.094C122.091 232.17 122.372 232.24 122.706 232.305C123.392 232.445 124.004 232.63 124.543 232.858C125.082 233.081 125.51 233.386 125.826 233.772C126.143 234.153 126.301 234.654 126.301 235.275C126.301 235.697 126.207 236.084 126.02 236.436C125.832 236.787 125.562 237.095 125.211 237.358C124.859 237.616 124.438 237.818 123.945 237.965C123.459 238.105 122.911 238.176 122.302 238.176C121.417 238.176 120.667 238.018 120.052 237.701C119.442 237.385 118.979 236.983 118.663 236.497C118.353 236.005 118.197 235.501 118.197 234.985H120.597C120.608 235.331 120.696 235.609 120.86 235.82C121.03 236.031 121.244 236.184 121.502 236.277C121.766 236.371 122.05 236.418 122.354 236.418C122.683 236.418 122.955 236.374 123.172 236.286C123.389 236.192 123.553 236.069 123.664 235.917C123.781 235.759 123.84 235.577 123.84 235.372ZM130.476 224.491V238H127.944V224.491H130.476ZM136.47 228.49L132.339 233.201L130.124 235.442L129.201 233.614L130.959 231.382L133.429 228.49H136.47ZM133.842 238L131.029 233.605L132.778 232.076L136.76 238H133.842ZM140.785 238H138.236V227.646C138.236 226.926 138.377 226.319 138.658 225.827C138.945 225.329 139.347 224.954 139.862 224.702C140.384 224.444 141.002 224.315 141.717 224.315C141.951 224.315 142.177 224.333 142.394 224.368C142.61 224.397 142.821 224.436 143.026 224.482L143 226.39C142.889 226.36 142.771 226.34 142.648 226.328C142.525 226.316 142.382 226.311 142.218 226.311C141.913 226.311 141.652 226.363 141.436 226.469C141.225 226.568 141.063 226.718 140.952 226.917C140.841 227.116 140.785 227.359 140.785 227.646V238ZM142.684 228.49V230.283H136.821V228.49H142.684ZM143.606 233.342V233.157C143.606 232.46 143.706 231.818 143.905 231.232C144.104 230.641 144.395 230.128 144.775 229.694C145.156 229.261 145.625 228.924 146.182 228.684C146.738 228.438 147.377 228.314 148.098 228.314C148.818 228.314 149.46 228.438 150.022 228.684C150.585 228.924 151.057 229.261 151.438 229.694C151.824 230.128 152.117 230.641 152.316 231.232C152.516 231.818 152.615 232.46 152.615 233.157V233.342C152.615 234.033 152.516 234.675 152.316 235.267C152.117 235.853 151.824 236.365 151.438 236.805C151.057 237.238 150.588 237.575 150.031 237.815C149.475 238.056 148.836 238.176 148.115 238.176C147.395 238.176 146.753 238.056 146.19 237.815C145.634 237.575 145.162 237.238 144.775 236.805C144.395 236.365 144.104 235.853 143.905 235.267C143.706 234.675 143.606 234.033 143.606 233.342ZM146.138 233.157V233.342C146.138 233.74 146.173 234.112 146.243 234.458C146.313 234.804 146.425 235.108 146.577 235.372C146.735 235.63 146.94 235.832 147.192 235.979C147.444 236.125 147.752 236.198 148.115 236.198C148.467 236.198 148.769 236.125 149.021 235.979C149.272 235.832 149.475 235.63 149.627 235.372C149.779 235.108 149.891 234.804 149.961 234.458C150.037 234.112 150.075 233.74 150.075 233.342V233.157C150.075 232.771 150.037 232.407 149.961 232.067C149.891 231.722 149.776 231.417 149.618 231.153C149.466 230.884 149.264 230.673 149.012 230.521C148.76 230.368 148.455 230.292 148.098 230.292C147.74 230.292 147.436 230.368 147.184 230.521C146.938 230.673 146.735 230.884 146.577 231.153C146.425 231.417 146.313 231.722 146.243 232.067C146.173 232.407 146.138 232.771 146.138 233.157ZM156.702 230.564V238H154.171V228.49H156.553L156.702 230.564ZM159.567 228.429L159.523 230.775C159.4 230.758 159.251 230.743 159.075 230.731C158.905 230.714 158.75 230.705 158.609 230.705C158.252 230.705 157.941 230.752 157.678 230.846C157.42 230.934 157.203 231.065 157.027 231.241C156.857 231.417 156.729 231.631 156.641 231.883C156.559 232.135 156.512 232.422 156.5 232.744L155.99 232.586C155.99 231.971 156.052 231.405 156.175 230.89C156.298 230.368 156.477 229.914 156.711 229.527C156.951 229.141 157.244 228.842 157.59 228.631C157.936 228.42 158.331 228.314 158.776 228.314C158.917 228.314 159.061 228.326 159.207 228.35C159.354 228.367 159.474 228.394 159.567 228.429ZM164.516 236.198C164.826 236.198 165.102 236.14 165.342 236.022C165.582 235.899 165.77 235.729 165.904 235.513C166.045 235.29 166.118 235.029 166.124 234.73H168.506C168.5 235.398 168.321 235.993 167.97 236.515C167.618 237.03 167.146 237.438 166.555 237.736C165.963 238.029 165.301 238.176 164.568 238.176C163.83 238.176 163.186 238.053 162.635 237.807C162.09 237.561 161.636 237.221 161.272 236.787C160.909 236.348 160.637 235.838 160.455 235.258C160.273 234.672 160.183 234.045 160.183 233.377V233.122C160.183 232.448 160.273 231.821 160.455 231.241C160.637 230.655 160.909 230.146 161.272 229.712C161.636 229.272 162.09 228.93 162.635 228.684C163.18 228.438 163.818 228.314 164.551 228.314C165.33 228.314 166.013 228.464 166.599 228.763C167.19 229.062 167.653 229.489 167.987 230.046C168.327 230.597 168.5 231.25 168.506 232.006H166.124C166.118 231.689 166.051 231.402 165.922 231.145C165.799 230.887 165.617 230.682 165.377 230.529C165.143 230.371 164.853 230.292 164.507 230.292C164.138 230.292 163.836 230.371 163.602 230.529C163.367 230.682 163.186 230.893 163.057 231.162C162.928 231.426 162.837 231.728 162.784 232.067C162.737 232.401 162.714 232.753 162.714 233.122V233.377C162.714 233.746 162.737 234.101 162.784 234.44C162.831 234.78 162.919 235.082 163.048 235.346C163.183 235.609 163.367 235.817 163.602 235.97C163.836 236.122 164.141 236.198 164.516 236.198ZM174.351 238.176C173.612 238.176 172.95 238.059 172.364 237.824C171.778 237.584 171.28 237.253 170.87 236.831C170.466 236.409 170.155 235.92 169.938 235.363C169.722 234.801 169.613 234.203 169.613 233.57V233.219C169.613 232.498 169.716 231.839 169.921 231.241C170.126 230.644 170.419 230.125 170.8 229.686C171.187 229.246 171.655 228.909 172.206 228.675C172.757 228.435 173.378 228.314 174.069 228.314C174.743 228.314 175.341 228.426 175.862 228.648C176.384 228.871 176.82 229.188 177.172 229.598C177.529 230.008 177.799 230.5 177.98 231.074C178.162 231.643 178.253 232.275 178.253 232.973V234.027H170.694V232.34H175.766V232.146C175.766 231.795 175.701 231.481 175.572 231.206C175.449 230.925 175.262 230.702 175.01 230.538C174.758 230.374 174.436 230.292 174.043 230.292C173.709 230.292 173.422 230.365 173.182 230.512C172.941 230.658 172.745 230.863 172.593 231.127C172.446 231.391 172.335 231.701 172.259 232.059C172.188 232.41 172.153 232.797 172.153 233.219V233.57C172.153 233.951 172.206 234.303 172.312 234.625C172.423 234.947 172.578 235.226 172.777 235.46C172.982 235.694 173.229 235.876 173.516 236.005C173.809 236.134 174.14 236.198 174.509 236.198C174.966 236.198 175.391 236.11 175.783 235.935C176.182 235.753 176.524 235.48 176.812 235.117L178.042 236.453C177.843 236.74 177.57 237.016 177.225 237.279C176.885 237.543 176.475 237.76 175.994 237.93C175.514 238.094 174.966 238.176 174.351 238.176ZM184.045 232.797V232.99C184.045 234.186 183.91 235.287 183.641 236.295C183.371 237.297 183.014 238.185 182.568 238.958C182.129 239.737 181.646 240.385 181.118 240.9C180.597 241.416 180.075 241.785 179.554 242.008L179.062 240.707C179.396 240.461 179.721 240.121 180.037 239.688C180.359 239.254 180.652 238.721 180.916 238.088C181.18 237.461 181.388 236.726 181.54 235.882C181.698 235.038 181.777 234.08 181.777 233.008V232.779C181.777 231.707 181.698 230.749 181.54 229.905C181.382 229.062 181.168 228.326 180.898 227.699C180.635 227.066 180.342 226.536 180.02 226.108C179.703 225.675 179.384 225.335 179.062 225.089L179.554 223.779C180.075 224.002 180.597 224.374 181.118 224.896C181.646 225.411 182.129 226.056 182.568 226.829C183.014 227.603 183.371 228.493 183.641 229.501C183.91 230.503 184.045 231.602 184.045 232.797Z" fill="#0066CC"/>
<path d="M32.2139 266.582V268.533C32.2139 269.582 32.1201 270.467 31.9326 271.188C31.7451 271.908 31.4756 272.488 31.124 272.928C30.7725 273.367 30.3477 273.687 29.8496 273.886C29.3574 274.079 28.8008 274.176 28.1797 274.176C27.6875 274.176 27.2334 274.114 26.8174 273.991C26.4014 273.868 26.0264 273.672 25.6924 273.402C25.3643 273.127 25.083 272.77 24.8486 272.33C24.6143 271.891 24.4355 271.357 24.3125 270.73C24.1895 270.104 24.1279 269.371 24.1279 268.533V266.582C24.1279 265.533 24.2217 264.654 24.4092 263.945C24.6025 263.236 24.875 262.668 25.2266 262.24C25.5781 261.807 26 261.496 26.4922 261.309C26.9902 261.121 27.5469 261.027 28.1621 261.027C28.6602 261.027 29.1172 261.089 29.5332 261.212C29.9551 261.329 30.3301 261.52 30.6582 261.783C30.9863 262.041 31.2646 262.387 31.4932 262.82C31.7275 263.248 31.9062 263.772 32.0293 264.394C32.1523 265.015 32.2139 265.744 32.2139 266.582ZM30.5791 268.797V266.31C30.5791 265.735 30.5439 265.231 30.4736 264.798C30.4092 264.358 30.3125 263.983 30.1836 263.673C30.0547 263.362 29.8906 263.11 29.6914 262.917C29.498 262.724 29.2725 262.583 29.0146 262.495C28.7627 262.401 28.4785 262.354 28.1621 262.354C27.7754 262.354 27.4326 262.428 27.1338 262.574C26.835 262.715 26.583 262.94 26.3779 263.251C26.1787 263.562 26.0264 263.969 25.9209 264.473C25.8154 264.977 25.7627 265.589 25.7627 266.31V268.797C25.7627 269.371 25.7949 269.878 25.8594 270.317C25.9297 270.757 26.0322 271.138 26.167 271.46C26.3018 271.776 26.4658 272.037 26.6592 272.242C26.8525 272.447 27.0752 272.6 27.3271 272.699C27.585 272.793 27.8691 272.84 28.1797 272.84C28.5781 272.84 28.9268 272.764 29.2256 272.611C29.5244 272.459 29.7734 272.222 29.9727 271.899C30.1777 271.571 30.3301 271.152 30.4297 270.643C30.5293 270.127 30.5791 269.512 30.5791 268.797ZM42.374 270.537C42.374 271.316 42.1924 271.979 41.8291 272.523C41.4717 273.062 40.9854 273.473 40.3701 273.754C39.7607 274.035 39.0723 274.176 38.3047 274.176C37.5371 274.176 36.8457 274.035 36.2305 273.754C35.6152 273.473 35.1289 273.062 34.7715 272.523C34.4141 271.979 34.2354 271.316 34.2354 270.537C34.2354 270.027 34.332 269.562 34.5254 269.14C34.7246 268.712 35.0029 268.34 35.3604 268.023C35.7236 267.707 36.1514 267.464 36.6436 267.294C37.1416 267.118 37.6895 267.03 38.2871 267.03C39.0723 267.03 39.7725 267.183 40.3877 267.487C41.0029 267.786 41.4863 268.199 41.8379 268.727C42.1953 269.254 42.374 269.857 42.374 270.537ZM40.7393 270.502C40.7393 270.027 40.6367 269.608 40.4316 269.245C40.2266 268.876 39.9395 268.589 39.5703 268.384C39.2012 268.179 38.7734 268.076 38.2871 268.076C37.7891 268.076 37.3584 268.179 36.9951 268.384C36.6377 268.589 36.3594 268.876 36.1602 269.245C35.9609 269.608 35.8613 270.027 35.8613 270.502C35.8613 270.994 35.958 271.416 36.1514 271.768C36.3506 272.113 36.6318 272.38 36.9951 272.567C37.3643 272.749 37.8008 272.84 38.3047 272.84C38.8086 272.84 39.2422 272.749 39.6055 272.567C39.9688 272.38 40.2471 272.113 40.4404 271.768C40.6396 271.416 40.7393 270.994 40.7393 270.502ZM42.0752 264.534C42.0752 265.155 41.9111 265.715 41.583 266.213C41.2549 266.711 40.8066 267.104 40.2383 267.391C39.6699 267.678 39.0254 267.821 38.3047 267.821C37.5723 267.821 36.9189 267.678 36.3447 267.391C35.7764 267.104 35.3311 266.711 35.0088 266.213C34.6865 265.715 34.5254 265.155 34.5254 264.534C34.5254 263.79 34.6865 263.157 35.0088 262.636C35.3369 262.114 35.7852 261.716 36.3535 261.44C36.9219 261.165 37.5693 261.027 38.2959 261.027C39.0283 261.027 39.6787 261.165 40.2471 261.44C40.8154 261.716 41.2607 262.114 41.583 262.636C41.9111 263.157 42.0752 263.79 42.0752 264.534ZM40.4492 264.561C40.4492 264.133 40.3584 263.755 40.1768 263.427C39.9951 263.099 39.7432 262.841 39.4209 262.653C39.0986 262.46 38.7236 262.363 38.2959 262.363C37.8682 262.363 37.4932 262.454 37.1709 262.636C36.8545 262.812 36.6055 263.063 36.4238 263.392C36.248 263.72 36.1602 264.109 36.1602 264.561C36.1602 265 36.248 265.384 36.4238 265.712C36.6055 266.04 36.8574 266.295 37.1797 266.477C37.502 266.658 37.877 266.749 38.3047 266.749C38.7324 266.749 39.1045 266.658 39.4209 266.477C39.7432 266.295 39.9951 266.04 40.1768 265.712C40.3584 265.384 40.4492 265 40.4492 264.561ZM52.4639 266.582V268.533C52.4639 269.582 52.3701 270.467 52.1826 271.188C51.9951 271.908 51.7256 272.488 51.374 272.928C51.0225 273.367 50.5977 273.687 50.0996 273.886C49.6074 274.079 49.0508 274.176 48.4297 274.176C47.9375 274.176 47.4834 274.114 47.0674 273.991C46.6514 273.868 46.2764 273.672 45.9424 273.402C45.6143 273.127 45.333 272.77 45.0986 272.33C44.8643 271.891 44.6855 271.357 44.5625 270.73C44.4395 270.104 44.3779 269.371 44.3779 268.533V266.582C44.3779 265.533 44.4717 264.654 44.6592 263.945C44.8525 263.236 45.125 262.668 45.4766 262.24C45.8281 261.807 46.25 261.496 46.7422 261.309C47.2402 261.121 47.7969 261.027 48.4121 261.027C48.9102 261.027 49.3672 261.089 49.7832 261.212C50.2051 261.329 50.5801 261.52 50.9082 261.783C51.2363 262.041 51.5146 262.387 51.7432 262.82C51.9775 263.248 52.1562 263.772 52.2793 264.394C52.4023 265.015 52.4639 265.744 52.4639 266.582ZM50.8291 268.797V266.31C50.8291 265.735 50.7939 265.231 50.7236 264.798C50.6592 264.358 50.5625 263.983 50.4336 263.673C50.3047 263.362 50.1406 263.11 49.9414 262.917C49.748 262.724 49.5225 262.583 49.2646 262.495C49.0127 262.401 48.7285 262.354 48.4121 262.354C48.0254 262.354 47.6826 262.428 47.3838 262.574C47.085 262.715 46.833 262.94 46.6279 263.251C46.4287 263.562 46.2764 263.969 46.1709 264.473C46.0654 264.977 46.0127 265.589 46.0127 266.31V268.797C46.0127 269.371 46.0449 269.878 46.1094 270.317C46.1797 270.757 46.2822 271.138 46.417 271.46C46.5518 271.776 46.7158 272.037 46.9092 272.242C47.1025 272.447 47.3252 272.6 47.5771 272.699C47.835 272.793 48.1191 272.84 48.4297 272.84C48.8281 272.84 49.1768 272.764 49.4756 272.611C49.7744 272.459 50.0234 272.222 50.2227 271.899C50.4277 271.571 50.5801 271.152 50.6797 270.643C50.7793 270.127 50.8291 269.512 50.8291 268.797ZM56.9287 266.802H58.0889C58.6572 266.802 59.126 266.708 59.4951 266.521C59.8701 266.327 60.1484 266.066 60.3301 265.738C60.5176 265.404 60.6113 265.029 60.6113 264.613C60.6113 264.121 60.5293 263.708 60.3652 263.374C60.2012 263.04 59.9551 262.788 59.627 262.618C59.2988 262.448 58.8828 262.363 58.3789 262.363C57.9219 262.363 57.5176 262.454 57.166 262.636C56.8203 262.812 56.5479 263.063 56.3486 263.392C56.1553 263.72 56.0586 264.106 56.0586 264.552H54.4326C54.4326 263.901 54.5967 263.31 54.9248 262.776C55.2529 262.243 55.7129 261.818 56.3047 261.502C56.9023 261.186 57.5938 261.027 58.3789 261.027C59.1523 261.027 59.8291 261.165 60.4092 261.44C60.9893 261.71 61.4404 262.114 61.7627 262.653C62.085 263.187 62.2461 263.852 62.2461 264.648C62.2461 264.971 62.1699 265.316 62.0176 265.686C61.8711 266.049 61.6396 266.389 61.3232 266.705C61.0127 267.021 60.6084 267.282 60.1104 267.487C59.6123 267.687 59.0146 267.786 58.3174 267.786H56.9287V266.802ZM56.9287 268.138V267.162H58.3174C59.1318 267.162 59.8057 267.259 60.3389 267.452C60.8721 267.646 61.291 267.903 61.5957 268.226C61.9062 268.548 62.123 268.902 62.2461 269.289C62.375 269.67 62.4395 270.051 62.4395 270.432C62.4395 271.029 62.3369 271.56 62.1318 272.022C61.9326 272.485 61.6484 272.878 61.2793 273.2C60.916 273.522 60.4883 273.766 59.9961 273.93C59.5039 274.094 58.9678 274.176 58.3877 274.176C57.8311 274.176 57.3066 274.097 56.8145 273.938C56.3281 273.78 55.8975 273.552 55.5225 273.253C55.1475 272.948 54.8545 272.576 54.6436 272.137C54.4326 271.691 54.3271 271.185 54.3271 270.616H55.9531C55.9531 271.062 56.0498 271.451 56.2432 271.785C56.4424 272.119 56.7236 272.38 57.0869 272.567C57.4561 272.749 57.8896 272.84 58.3877 272.84C58.8857 272.84 59.3135 272.755 59.6709 272.585C60.0342 272.409 60.3125 272.146 60.5059 271.794C60.7051 271.442 60.8047 271 60.8047 270.467C60.8047 269.934 60.6934 269.497 60.4707 269.157C60.248 268.812 59.9316 268.557 59.5215 268.393C59.1172 268.223 58.6396 268.138 58.0889 268.138H56.9287ZM67.0537 266.802H68.2139C68.7822 266.802 69.251 266.708 69.6201 266.521C69.9951 266.327 70.2734 266.066 70.4551 265.738C70.6426 265.404 70.7363 265.029 70.7363 264.613C70.7363 264.121 70.6543 263.708 70.4902 263.374C70.3262 263.04 70.0801 262.788 69.752 262.618C69.4238 262.448 69.0078 262.363 68.5039 262.363C68.0469 262.363 67.6426 262.454 67.291 262.636C66.9453 262.812 66.6729 263.063 66.4736 263.392C66.2803 263.72 66.1836 264.106 66.1836 264.552H64.5576C64.5576 263.901 64.7217 263.31 65.0498 262.776C65.3779 262.243 65.8379 261.818 66.4297 261.502C67.0273 261.186 67.7188 261.027 68.5039 261.027C69.2773 261.027 69.9541 261.165 70.5342 261.44C71.1143 261.71 71.5654 262.114 71.8877 262.653C72.21 263.187 72.3711 263.852 72.3711 264.648C72.3711 264.971 72.2949 265.316 72.1426 265.686C71.9961 266.049 71.7646 266.389 71.4482 266.705C71.1377 267.021 70.7334 267.282 70.2354 267.487C69.7373 267.687 69.1396 267.786 68.4424 267.786H67.0537V266.802ZM67.0537 268.138V267.162H68.4424C69.2568 267.162 69.9307 267.259 70.4639 267.452C70.9971 267.646 71.416 267.903 71.7207 268.226C72.0312 268.548 72.248 268.902 72.3711 269.289C72.5 269.67 72.5645 270.051 72.5645 270.432C72.5645 271.029 72.4619 271.56 72.2568 272.022C72.0576 272.485 71.7734 272.878 71.4043 273.2C71.041 273.522 70.6133 273.766 70.1211 273.93C69.6289 274.094 69.0928 274.176 68.5127 274.176C67.9561 274.176 67.4316 274.097 66.9395 273.938C66.4531 273.78 66.0225 273.552 65.6475 273.253C65.2725 272.948 64.9795 272.576 64.7686 272.137C64.5576 271.691 64.4521 271.185 64.4521 270.616H66.0781C66.0781 271.062 66.1748 271.451 66.3682 271.785C66.5674 272.119 66.8486 272.38 67.2119 272.567C67.5811 272.749 68.0146 272.84 68.5127 272.84C69.0107 272.84 69.4385 272.755 69.7959 272.585C70.1592 272.409 70.4375 272.146 70.6309 271.794C70.8301 271.442 70.9297 271 70.9297 270.467C70.9297 269.934 70.8184 269.497 70.5957 269.157C70.373 268.812 70.0566 268.557 69.6465 268.393C69.2422 268.223 68.7646 268.138 68.2139 268.138H67.0537ZM83.1904 272.664V274H74.8145V272.831L79.0068 268.164C79.5225 267.59 79.9209 267.104 80.2021 266.705C80.4893 266.301 80.6885 265.94 80.7998 265.624C80.917 265.302 80.9756 264.974 80.9756 264.64C80.9756 264.218 80.8877 263.837 80.7119 263.497C80.542 263.151 80.29 262.876 79.9561 262.671C79.6221 262.466 79.2178 262.363 78.7432 262.363C78.1748 262.363 77.7002 262.475 77.3193 262.697C76.9443 262.914 76.6631 263.219 76.4756 263.611C76.2881 264.004 76.1943 264.455 76.1943 264.965H74.5684C74.5684 264.244 74.7266 263.585 75.043 262.987C75.3594 262.39 75.8281 261.915 76.4492 261.563C77.0703 261.206 77.835 261.027 78.7432 261.027C79.5518 261.027 80.2432 261.171 80.8174 261.458C81.3916 261.739 81.8311 262.138 82.1357 262.653C82.4463 263.163 82.6016 263.761 82.6016 264.446C82.6016 264.821 82.5371 265.202 82.4082 265.589C82.2852 265.97 82.1123 266.351 81.8896 266.731C81.6729 267.112 81.418 267.487 81.125 267.856C80.8379 268.226 80.5303 268.589 80.2021 268.946L76.7744 272.664H83.1904ZM90.2744 261.133V274H88.6484V263.163L85.3701 264.358V262.891L90.0195 261.133H90.2744ZM97.4287 266.802H98.5889C99.1572 266.802 99.626 266.708 99.9951 266.521C100.37 266.327 100.648 266.066 100.83 265.738C101.018 265.404 101.111 265.029 101.111 264.613C101.111 264.121 101.029 263.708 100.865 263.374C100.701 263.04 100.455 262.788 100.127 262.618C99.7988 262.448 99.3828 262.363 98.8789 262.363C98.4219 262.363 98.0176 262.454 97.666 262.636C97.3203 262.812 97.0479 263.063 96.8486 263.392C96.6553 263.72 96.5586 264.106 96.5586 264.552H94.9326C94.9326 263.901 95.0967 263.31 95.4248 262.776C95.7529 262.243 96.2129 261.818 96.8047 261.502C97.4023 261.186 98.0938 261.027 98.8789 261.027C99.6523 261.027 100.329 261.165 100.909 261.44C101.489 261.71 101.94 262.114 102.263 262.653C102.585 263.187 102.746 263.852 102.746 264.648C102.746 264.971 102.67 265.316 102.518 265.686C102.371 266.049 102.14 266.389 101.823 266.705C101.513 267.021 101.108 267.282 100.61 267.487C100.112 267.687 99.5146 267.786 98.8174 267.786H97.4287V266.802ZM97.4287 268.138V267.162H98.8174C99.6318 267.162 100.306 267.259 100.839 267.452C101.372 267.646 101.791 267.903 102.096 268.226C102.406 268.548 102.623 268.902 102.746 269.289C102.875 269.67 102.939 270.051 102.939 270.432C102.939 271.029 102.837 271.56 102.632 272.022C102.433 272.485 102.148 272.878 101.779 273.2C101.416 273.522 100.988 273.766 100.496 273.93C100.004 274.094 99.4678 274.176 98.8877 274.176C98.3311 274.176 97.8066 274.097 97.3145 273.938C96.8281 273.78 96.3975 273.552 96.0225 273.253C95.6475 272.948 95.3545 272.576 95.1436 272.137C94.9326 271.691 94.8271 271.185 94.8271 270.616H96.4531C96.4531 271.062 96.5498 271.451 96.7432 271.785C96.9424 272.119 97.2236 272.38 97.5869 272.567C97.9561 272.749 98.3896 272.84 98.8877 272.84C99.3857 272.84 99.8135 272.755 100.171 272.585C100.534 272.409 100.812 272.146 101.006 271.794C101.205 271.442 101.305 271 101.305 270.467C101.305 269.934 101.193 269.497 100.971 269.157C100.748 268.812 100.432 268.557 100.021 268.393C99.6172 268.223 99.1396 268.138 98.5889 268.138H97.4287ZM113.451 261.203V262.117L108.151 274H106.438L111.729 262.539H104.803V261.203H113.451ZM116.923 272.638H117.09C118.027 272.638 118.789 272.506 119.375 272.242C119.961 271.979 120.412 271.624 120.729 271.179C121.045 270.733 121.262 270.232 121.379 269.676C121.496 269.113 121.555 268.536 121.555 267.944V265.984C121.555 265.404 121.487 264.889 121.353 264.438C121.224 263.986 121.042 263.608 120.808 263.304C120.579 262.999 120.318 262.768 120.025 262.609C119.732 262.451 119.422 262.372 119.094 262.372C118.719 262.372 118.382 262.448 118.083 262.601C117.79 262.747 117.541 262.955 117.336 263.225C117.137 263.494 116.984 263.811 116.879 264.174C116.773 264.537 116.721 264.933 116.721 265.36C116.721 265.741 116.768 266.11 116.861 266.468C116.955 266.825 117.099 267.147 117.292 267.435C117.485 267.722 117.726 267.95 118.013 268.12C118.306 268.284 118.648 268.366 119.041 268.366C119.404 268.366 119.744 268.296 120.061 268.155C120.383 268.009 120.667 267.812 120.913 267.566C121.165 267.314 121.364 267.03 121.511 266.714C121.663 266.397 121.751 266.066 121.774 265.721H122.548C122.548 266.207 122.451 266.688 122.258 267.162C122.07 267.631 121.807 268.059 121.467 268.445C121.127 268.832 120.729 269.143 120.271 269.377C119.814 269.605 119.316 269.72 118.777 269.72C118.145 269.72 117.597 269.597 117.134 269.351C116.671 269.104 116.29 268.776 115.991 268.366C115.698 267.956 115.479 267.499 115.332 266.995C115.191 266.485 115.121 265.97 115.121 265.448C115.121 264.839 115.206 264.268 115.376 263.734C115.546 263.201 115.798 262.732 116.132 262.328C116.466 261.918 116.879 261.599 117.371 261.37C117.869 261.142 118.443 261.027 119.094 261.027C119.826 261.027 120.45 261.174 120.966 261.467C121.481 261.76 121.9 262.152 122.223 262.645C122.551 263.137 122.791 263.69 122.943 264.306C123.096 264.921 123.172 265.554 123.172 266.204V266.793C123.172 267.455 123.128 268.129 123.04 268.814C122.958 269.494 122.797 270.145 122.557 270.766C122.322 271.387 121.979 271.943 121.528 272.436C121.077 272.922 120.488 273.309 119.762 273.596C119.041 273.877 118.15 274.018 117.09 274.018H116.923V272.638ZM127.048 272.638H127.215C128.152 272.638 128.914 272.506 129.5 272.242C130.086 271.979 130.537 271.624 130.854 271.179C131.17 270.733 131.387 270.232 131.504 269.676C131.621 269.113 131.68 268.536 131.68 267.944V265.984C131.68 265.404 131.612 264.889 131.478 264.438C131.349 263.986 131.167 263.608 130.933 263.304C130.704 262.999 130.443 262.768 130.15 262.609C129.857 262.451 129.547 262.372 129.219 262.372C128.844 262.372 128.507 262.448 128.208 262.601C127.915 262.747 127.666 262.955 127.461 263.225C127.262 263.494 127.109 263.811 127.004 264.174C126.898 264.537 126.846 264.933 126.846 265.36C126.846 265.741 126.893 266.11 126.986 266.468C127.08 266.825 127.224 267.147 127.417 267.435C127.61 267.722 127.851 267.95 128.138 268.12C128.431 268.284 128.773 268.366 129.166 268.366C129.529 268.366 129.869 268.296 130.186 268.155C130.508 268.009 130.792 267.812 131.038 267.566C131.29 267.314 131.489 267.03 131.636 266.714C131.788 266.397 131.876 266.066 131.899 265.721H132.673C132.673 266.207 132.576 266.688 132.383 267.162C132.195 267.631 131.932 268.059 131.592 268.445C131.252 268.832 130.854 269.143 130.396 269.377C129.939 269.605 129.441 269.72 128.902 269.72C128.27 269.72 127.722 269.597 127.259 269.351C126.796 269.104 126.415 268.776 126.116 268.366C125.823 267.956 125.604 267.499 125.457 266.995C125.316 266.485 125.246 265.97 125.246 265.448C125.246 264.839 125.331 264.268 125.501 263.734C125.671 263.201 125.923 262.732 126.257 262.328C126.591 261.918 127.004 261.599 127.496 261.37C127.994 261.142 128.568 261.027 129.219 261.027C129.951 261.027 130.575 261.174 131.091 261.467C131.606 261.76 132.025 262.152 132.348 262.645C132.676 263.137 132.916 263.69 133.068 264.306C133.221 264.921 133.297 265.554 133.297 266.204V266.793C133.297 267.455 133.253 268.129 133.165 268.814C133.083 269.494 132.922 270.145 132.682 270.766C132.447 271.387 132.104 271.943 131.653 272.436C131.202 272.922 130.613 273.309 129.887 273.596C129.166 273.877 128.275 274.018 127.215 274.018H127.048V272.638ZM137.208 272.066V273.376C137.208 273.909 137.073 274.472 136.804 275.063C136.534 275.661 136.156 276.159 135.67 276.558L134.747 275.916C134.935 275.658 135.093 275.395 135.222 275.125C135.351 274.861 135.447 274.586 135.512 274.299C135.582 274.018 135.617 273.719 135.617 273.402V272.066H137.208ZM151.604 266.582V268.533C151.604 269.582 151.511 270.467 151.323 271.188C151.136 271.908 150.866 272.488 150.515 272.928C150.163 273.367 149.738 273.687 149.24 273.886C148.748 274.079 148.191 274.176 147.57 274.176C147.078 274.176 146.624 274.114 146.208 273.991C145.792 273.868 145.417 273.672 145.083 273.402C144.755 273.127 144.474 272.77 144.239 272.33C144.005 271.891 143.826 271.357 143.703 270.73C143.58 270.104 143.519 269.371 143.519 268.533V266.582C143.519 265.533 143.612 264.654 143.8 263.945C143.993 263.236 144.266 262.668 144.617 262.24C144.969 261.807 145.391 261.496 145.883 261.309C146.381 261.121 146.938 261.027 147.553 261.027C148.051 261.027 148.508 261.089 148.924 261.212C149.346 261.329 149.721 261.52 150.049 261.783C150.377 262.041 150.655 262.387 150.884 262.82C151.118 263.248 151.297 263.772 151.42 264.394C151.543 265.015 151.604 265.744 151.604 266.582ZM149.97 268.797V266.31C149.97 265.735 149.935 265.231 149.864 264.798C149.8 264.358 149.703 263.983 149.574 263.673C149.445 263.362 149.281 263.11 149.082 262.917C148.889 262.724 148.663 262.583 148.405 262.495C148.153 262.401 147.869 262.354 147.553 262.354C147.166 262.354 146.823 262.428 146.524 262.574C146.226 262.715 145.974 262.94 145.769 263.251C145.569 263.562 145.417 263.969 145.312 264.473C145.206 264.977 145.153 265.589 145.153 266.31V268.797C145.153 269.371 145.186 269.878 145.25 270.317C145.32 270.757 145.423 271.138 145.558 271.46C145.692 271.776 145.856 272.037 146.05 272.242C146.243 272.447 146.466 272.6 146.718 272.699C146.976 272.793 147.26 272.84 147.57 272.84C147.969 272.84 148.317 272.764 148.616 272.611C148.915 272.459 149.164 272.222 149.363 271.899C149.568 271.571 149.721 271.152 149.82 270.643C149.92 270.127 149.97 269.512 149.97 268.797ZM161.765 270.537C161.765 271.316 161.583 271.979 161.22 272.523C160.862 273.062 160.376 273.473 159.761 273.754C159.151 274.035 158.463 274.176 157.695 274.176C156.928 274.176 156.236 274.035 155.621 273.754C155.006 273.473 154.52 273.062 154.162 272.523C153.805 271.979 153.626 271.316 153.626 270.537C153.626 270.027 153.723 269.562 153.916 269.14C154.115 268.712 154.394 268.34 154.751 268.023C155.114 267.707 155.542 267.464 156.034 267.294C156.532 267.118 157.08 267.03 157.678 267.03C158.463 267.03 159.163 267.183 159.778 267.487C160.394 267.786 160.877 268.199 161.229 268.727C161.586 269.254 161.765 269.857 161.765 270.537ZM160.13 270.502C160.13 270.027 160.027 269.608 159.822 269.245C159.617 268.876 159.33 268.589 158.961 268.384C158.592 268.179 158.164 268.076 157.678 268.076C157.18 268.076 156.749 268.179 156.386 268.384C156.028 268.589 155.75 268.876 155.551 269.245C155.352 269.608 155.252 270.027 155.252 270.502C155.252 270.994 155.349 271.416 155.542 271.768C155.741 272.113 156.022 272.38 156.386 272.567C156.755 272.749 157.191 272.84 157.695 272.84C158.199 272.84 158.633 272.749 158.996 272.567C159.359 272.38 159.638 272.113 159.831 271.768C160.03 271.416 160.13 270.994 160.13 270.502ZM161.466 264.534C161.466 265.155 161.302 265.715 160.974 266.213C160.646 266.711 160.197 267.104 159.629 267.391C159.061 267.678 158.416 267.821 157.695 267.821C156.963 267.821 156.31 267.678 155.735 267.391C155.167 267.104 154.722 266.711 154.399 266.213C154.077 265.715 153.916 265.155 153.916 264.534C153.916 263.79 154.077 263.157 154.399 262.636C154.728 262.114 155.176 261.716 155.744 261.44C156.312 261.165 156.96 261.027 157.687 261.027C158.419 261.027 159.069 261.165 159.638 261.44C160.206 261.716 160.651 262.114 160.974 262.636C161.302 263.157 161.466 263.79 161.466 264.534ZM159.84 264.561C159.84 264.133 159.749 263.755 159.567 263.427C159.386 263.099 159.134 262.841 158.812 262.653C158.489 262.46 158.114 262.363 157.687 262.363C157.259 262.363 156.884 262.454 156.562 262.636C156.245 262.812 155.996 263.063 155.814 263.392C155.639 263.72 155.551 264.109 155.551 264.561C155.551 265 155.639 265.384 155.814 265.712C155.996 266.04 156.248 266.295 156.57 266.477C156.893 266.658 157.268 266.749 157.695 266.749C158.123 266.749 158.495 266.658 158.812 266.477C159.134 266.295 159.386 266.04 159.567 265.712C159.749 265.384 159.84 265 159.84 264.561ZM171.854 266.582V268.533C171.854 269.582 171.761 270.467 171.573 271.188C171.386 271.908 171.116 272.488 170.765 272.928C170.413 273.367 169.988 273.687 169.49 273.886C168.998 274.079 168.441 274.176 167.82 274.176C167.328 274.176 166.874 274.114 166.458 273.991C166.042 273.868 165.667 273.672 165.333 273.402C165.005 273.127 164.724 272.77 164.489 272.33C164.255 271.891 164.076 271.357 163.953 270.73C163.83 270.104 163.769 269.371 163.769 268.533V266.582C163.769 265.533 163.862 264.654 164.05 263.945C164.243 263.236 164.516 262.668 164.867 262.24C165.219 261.807 165.641 261.496 166.133 261.309C166.631 261.121 167.188 261.027 167.803 261.027C168.301 261.027 168.758 261.089 169.174 261.212C169.596 261.329 169.971 261.52 170.299 261.783C170.627 262.041 170.905 262.387 171.134 262.82C171.368 263.248 171.547 263.772 171.67 264.394C171.793 265.015 171.854 265.744 171.854 266.582ZM170.22 268.797V266.31C170.22 265.735 170.185 265.231 170.114 264.798C170.05 264.358 169.953 263.983 169.824 263.673C169.695 263.362 169.531 263.11 169.332 262.917C169.139 262.724 168.913 262.583 168.655 262.495C168.403 262.401 168.119 262.354 167.803 262.354C167.416 262.354 167.073 262.428 166.774 262.574C166.476 262.715 166.224 262.94 166.019 263.251C165.819 263.562 165.667 263.969 165.562 264.473C165.456 264.977 165.403 265.589 165.403 266.31V268.797C165.403 269.371 165.436 269.878 165.5 270.317C165.57 270.757 165.673 271.138 165.808 271.46C165.942 271.776 166.106 272.037 166.3 272.242C166.493 272.447 166.716 272.6 166.968 272.699C167.226 272.793 167.51 272.84 167.82 272.84C168.219 272.84 168.567 272.764 168.866 272.611C169.165 272.459 169.414 272.222 169.613 271.899C169.818 271.571 169.971 271.152 170.07 270.643C170.17 270.127 170.22 269.512 170.22 268.797ZM176.319 266.802H177.479C178.048 266.802 178.517 266.708 178.886 266.521C179.261 266.327 179.539 266.066 179.721 265.738C179.908 265.404 180.002 265.029 180.002 264.613C180.002 264.121 179.92 263.708 179.756 263.374C179.592 263.04 179.346 262.788 179.018 262.618C178.689 262.448 178.273 262.363 177.77 262.363C177.312 262.363 176.908 262.454 176.557 262.636C176.211 262.812 175.938 263.063 175.739 263.392C175.546 263.72 175.449 264.106 175.449 264.552H173.823C173.823 263.901 173.987 263.31 174.315 262.776C174.644 262.243 175.104 261.818 175.695 261.502C176.293 261.186 176.984 261.027 177.77 261.027C178.543 261.027 179.22 261.165 179.8 261.44C180.38 261.71 180.831 262.114 181.153 262.653C181.476 263.187 181.637 263.852 181.637 264.648C181.637 264.971 181.561 265.316 181.408 265.686C181.262 266.049 181.03 266.389 180.714 266.705C180.403 267.021 179.999 267.282 179.501 267.487C179.003 267.687 178.405 267.786 177.708 267.786H176.319V266.802ZM176.319 268.138V267.162H177.708C178.522 267.162 179.196 267.259 179.729 267.452C180.263 267.646 180.682 267.903 180.986 268.226C181.297 268.548 181.514 268.902 181.637 269.289C181.766 269.67 181.83 270.051 181.83 270.432C181.83 271.029 181.728 271.56 181.522 272.022C181.323 272.485 181.039 272.878 180.67 273.2C180.307 273.522 179.879 273.766 179.387 273.93C178.895 274.094 178.358 274.176 177.778 274.176C177.222 274.176 176.697 274.097 176.205 273.938C175.719 273.78 175.288 273.552 174.913 273.253C174.538 272.948 174.245 272.576 174.034 272.137C173.823 271.691 173.718 271.185 173.718 270.616H175.344C175.344 271.062 175.44 271.451 175.634 271.785C175.833 272.119 176.114 272.38 176.478 272.567C176.847 272.749 177.28 272.84 177.778 272.84C178.276 272.84 178.704 272.755 179.062 272.585C179.425 272.409 179.703 272.146 179.896 271.794C180.096 271.442 180.195 271 180.195 270.467C180.195 269.934 180.084 269.497 179.861 269.157C179.639 268.812 179.322 268.557 178.912 268.393C178.508 268.223 178.03 268.138 177.479 268.138H176.319ZM192.72 269.693V271.029H183.474V270.071L189.204 261.203H190.531L189.107 263.77L185.319 269.693H192.72ZM190.936 261.203V274H189.31V261.203H190.936ZM195.813 272.638H195.98C196.918 272.638 197.68 272.506 198.266 272.242C198.852 271.979 199.303 271.624 199.619 271.179C199.936 270.733 200.152 270.232 200.27 269.676C200.387 269.113 200.445 268.536 200.445 267.944V265.984C200.445 265.404 200.378 264.889 200.243 264.438C200.114 263.986 199.933 263.608 199.698 263.304C199.47 262.999 199.209 262.768 198.916 262.609C198.623 262.451 198.312 262.372 197.984 262.372C197.609 262.372 197.272 262.448 196.974 262.601C196.681 262.747 196.432 262.955 196.227 263.225C196.027 263.494 195.875 263.811 195.77 264.174C195.664 264.537 195.611 264.933 195.611 265.36C195.611 265.741 195.658 266.11 195.752 266.468C195.846 266.825 195.989 267.147 196.183 267.435C196.376 267.722 196.616 267.95 196.903 268.12C197.196 268.284 197.539 268.366 197.932 268.366C198.295 268.366 198.635 268.296 198.951 268.155C199.273 268.009 199.558 267.812 199.804 267.566C200.056 267.314 200.255 267.03 200.401 266.714C200.554 266.397 200.642 266.066 200.665 265.721H201.438C201.438 266.207 201.342 266.688 201.148 267.162C200.961 267.631 200.697 268.059 200.357 268.445C200.018 268.832 199.619 269.143 199.162 269.377C198.705 269.605 198.207 269.72 197.668 269.72C197.035 269.72 196.487 269.597 196.024 269.351C195.562 269.104 195.181 268.776 194.882 268.366C194.589 267.956 194.369 267.499 194.223 266.995C194.082 266.485 194.012 265.97 194.012 265.448C194.012 264.839 194.097 264.268 194.267 263.734C194.437 263.201 194.688 262.732 195.022 262.328C195.356 261.918 195.77 261.599 196.262 261.37C196.76 261.142 197.334 261.027 197.984 261.027C198.717 261.027 199.341 261.174 199.856 261.467C200.372 261.76 200.791 262.152 201.113 262.645C201.441 263.137 201.682 263.69 201.834 264.306C201.986 264.921 202.062 265.554 202.062 266.204V266.793C202.062 267.455 202.019 268.129 201.931 268.814C201.849 269.494 201.688 270.145 201.447 270.766C201.213 271.387 200.87 271.943 200.419 272.436C199.968 272.922 199.379 273.309 198.652 273.596C197.932 273.877 197.041 274.018 195.98 274.018H195.813V272.638ZM212.592 261.203V262.117L207.292 274H205.578L210.869 262.539H203.943V261.203H212.592ZM216.503 267.909L215.202 267.575L215.844 261.203H222.409V262.706H217.224L216.837 266.187C217.071 266.052 217.367 265.926 217.725 265.809C218.088 265.691 218.504 265.633 218.973 265.633C219.564 265.633 220.095 265.735 220.563 265.94C221.032 266.14 221.431 266.427 221.759 266.802C222.093 267.177 222.348 267.628 222.523 268.155C222.699 268.683 222.787 269.271 222.787 269.922C222.787 270.537 222.702 271.103 222.532 271.618C222.368 272.134 222.119 272.585 221.785 272.972C221.451 273.353 221.029 273.648 220.52 273.859C220.016 274.07 219.421 274.176 218.735 274.176C218.22 274.176 217.73 274.105 217.268 273.965C216.811 273.818 216.4 273.599 216.037 273.306C215.68 273.007 215.387 272.638 215.158 272.198C214.936 271.753 214.795 271.231 214.736 270.634H216.283C216.354 271.114 216.494 271.519 216.705 271.847C216.916 272.175 217.191 272.424 217.531 272.594C217.877 272.758 218.278 272.84 218.735 272.84C219.122 272.84 219.465 272.772 219.764 272.638C220.062 272.503 220.314 272.31 220.52 272.058C220.725 271.806 220.88 271.501 220.985 271.144C221.097 270.786 221.152 270.385 221.152 269.939C221.152 269.535 221.097 269.16 220.985 268.814C220.874 268.469 220.707 268.167 220.484 267.909C220.268 267.651 220.001 267.452 219.685 267.312C219.368 267.165 219.005 267.092 218.595 267.092C218.05 267.092 217.637 267.165 217.355 267.312C217.08 267.458 216.796 267.657 216.503 267.909ZM232.956 272.664V274H224.58V272.831L228.772 268.164C229.288 267.59 229.687 267.104 229.968 266.705C230.255 266.301 230.454 265.94 230.565 265.624C230.683 265.302 230.741 264.974 230.741 264.64C230.741 264.218 230.653 263.837 230.478 263.497C230.308 263.151 230.056 262.876 229.722 262.671C229.388 262.466 228.983 262.363 228.509 262.363C227.94 262.363 227.466 262.475 227.085 262.697C226.71 262.914 226.429 263.219 226.241 263.611C226.054 264.004 225.96 264.455 225.96 264.965H224.334C224.334 264.244 224.492 263.585 224.809 262.987C225.125 262.39 225.594 261.915 226.215 261.563C226.836 261.206 227.601 261.027 228.509 261.027C229.317 261.027 230.009 261.171 230.583 261.458C231.157 261.739 231.597 262.138 231.901 262.653C232.212 263.163 232.367 263.761 232.367 264.446C232.367 264.821 232.303 265.202 232.174 265.589C232.051 265.97 231.878 266.351 231.655 266.731C231.438 267.112 231.184 267.487 230.891 267.856C230.604 268.226 230.296 268.589 229.968 268.946L226.54 272.664H232.956ZM236.313 272.638H236.48C237.418 272.638 238.18 272.506 238.766 272.242C239.352 271.979 239.803 271.624 240.119 271.179C240.436 270.733 240.652 270.232 240.77 269.676C240.887 269.113 240.945 268.536 240.945 267.944V265.984C240.945 265.404 240.878 264.889 240.743 264.438C240.614 263.986 240.433 263.608 240.198 263.304C239.97 262.999 239.709 262.768 239.416 262.609C239.123 262.451 238.812 262.372 238.484 262.372C238.109 262.372 237.772 262.448 237.474 262.601C237.181 262.747 236.932 262.955 236.727 263.225C236.527 263.494 236.375 263.811 236.27 264.174C236.164 264.537 236.111 264.933 236.111 265.36C236.111 265.741 236.158 266.11 236.252 266.468C236.346 266.825 236.489 267.147 236.683 267.435C236.876 267.722 237.116 267.95 237.403 268.12C237.696 268.284 238.039 268.366 238.432 268.366C238.795 268.366 239.135 268.296 239.451 268.155C239.773 268.009 240.058 267.812 240.304 267.566C240.556 267.314 240.755 267.03 240.901 266.714C241.054 266.397 241.142 266.066 241.165 265.721H241.938C241.938 266.207 241.842 266.688 241.648 267.162C241.461 267.631 241.197 268.059 240.857 268.445C240.518 268.832 240.119 269.143 239.662 269.377C239.205 269.605 238.707 269.72 238.168 269.72C237.535 269.72 236.987 269.597 236.524 269.351C236.062 269.104 235.681 268.776 235.382 268.366C235.089 267.956 234.869 267.499 234.723 266.995C234.582 266.485 234.512 265.97 234.512 265.448C234.512 264.839 234.597 264.268 234.767 263.734C234.937 263.201 235.188 262.732 235.522 262.328C235.856 261.918 236.27 261.599 236.762 261.37C237.26 261.142 237.834 261.027 238.484 261.027C239.217 261.027 239.841 261.174 240.356 261.467C240.872 261.76 241.291 262.152 241.613 262.645C241.941 263.137 242.182 263.69 242.334 264.306C242.486 264.921 242.562 265.554 242.562 266.204V266.793C242.562 267.455 242.519 268.129 242.431 268.814C242.349 269.494 242.188 270.145 241.947 270.766C241.713 271.387 241.37 271.943 240.919 272.436C240.468 272.922 239.879 273.309 239.152 273.596C238.432 273.877 237.541 274.018 236.48 274.018H236.313V272.638ZM251.062 261.186H251.202V262.565H251.062C250.2 262.565 249.479 262.706 248.899 262.987C248.319 263.263 247.859 263.635 247.52 264.104C247.18 264.566 246.934 265.088 246.781 265.668C246.635 266.248 246.562 266.837 246.562 267.435V269.315C246.562 269.884 246.629 270.388 246.764 270.827C246.898 271.261 247.083 271.627 247.317 271.926C247.552 272.225 247.815 272.45 248.108 272.603C248.407 272.755 248.718 272.831 249.04 272.831C249.415 272.831 249.749 272.761 250.042 272.62C250.335 272.474 250.581 272.271 250.78 272.014C250.985 271.75 251.141 271.439 251.246 271.082C251.352 270.725 251.404 270.332 251.404 269.904C251.404 269.523 251.357 269.157 251.264 268.806C251.17 268.448 251.026 268.132 250.833 267.856C250.64 267.575 250.396 267.355 250.104 267.197C249.816 267.033 249.474 266.951 249.075 266.951C248.624 266.951 248.202 267.062 247.81 267.285C247.423 267.502 247.104 267.789 246.852 268.146C246.605 268.498 246.465 268.882 246.43 269.298L245.568 269.289C245.65 268.633 245.803 268.073 246.025 267.61C246.254 267.142 246.535 266.761 246.869 266.468C247.209 266.169 247.587 265.952 248.003 265.817C248.425 265.677 248.87 265.606 249.339 265.606C249.978 265.606 250.528 265.727 250.991 265.967C251.454 266.207 251.835 266.529 252.134 266.934C252.433 267.332 252.652 267.783 252.793 268.287C252.939 268.785 253.013 269.298 253.013 269.825C253.013 270.429 252.928 270.994 252.758 271.521C252.588 272.049 252.333 272.512 251.993 272.91C251.659 273.309 251.246 273.619 250.754 273.842C250.262 274.064 249.69 274.176 249.04 274.176C248.349 274.176 247.745 274.035 247.229 273.754C246.714 273.467 246.286 273.086 245.946 272.611C245.606 272.137 245.352 271.609 245.182 271.029C245.012 270.449 244.927 269.86 244.927 269.263V268.498C244.927 267.596 245.018 266.711 245.199 265.844C245.381 264.977 245.694 264.191 246.14 263.488C246.591 262.785 247.215 262.226 248.012 261.81C248.809 261.394 249.825 261.186 251.062 261.186Z" fill="black"/>
<circle cx="138" cy="95" r="95" fill="white"/>
<path d="M110.182 130V121.882H116.655L124.644 95.1956C125.184 93.4368 126.179 92.0324 127.63 90.9825C129.081 89.9326 130.681 89.4091 132.432 89.4118H144.568C146.321 89.4118 147.923 89.9367 149.374 90.9866C150.825 92.0365 151.819 93.4395 152.356 95.1956L160.345 121.882H166.818V130H110.182ZM134.455 81.2941V61H142.545V81.2941H134.455ZM158.525 91.3397L152.76 85.5559L167.122 71.2485L172.785 76.9309L158.525 91.3397ZM162.773 109.706V101.588H183V109.706H162.773ZM118.475 91.3397L104.215 76.9309L109.878 71.2485L124.24 85.5559L118.475 91.3397ZM94 109.706V101.588H114.227V109.706H94Z" fill="#FF0000"/>
</svg>
