<svg width="285" height="365" viewBox="0 0 285 365" fill="none" xmlns="http://www.w3.org/2000/svg">
<g filter="url(#filter0_d_38_2700)">
<rect x="4.5" y="95" width="276" height="262" rx="8" fill="white"/>
<path d="M132.321 211.384H129.034L129.017 209.573H131.776C132.263 209.573 132.661 209.512 132.972 209.389C133.282 209.26 133.514 209.075 133.666 208.835C133.824 208.589 133.903 208.29 133.903 207.938C133.903 207.54 133.827 207.218 133.675 206.972C133.528 206.726 133.297 206.547 132.98 206.436C132.67 206.324 132.269 206.269 131.776 206.269H129.948V217H127.312V204.203H131.776C132.521 204.203 133.186 204.273 133.771 204.414C134.363 204.555 134.864 204.769 135.274 205.056C135.685 205.343 135.998 205.706 136.215 206.146C136.432 206.579 136.54 207.095 136.54 207.692C136.54 208.22 136.42 208.706 136.18 209.151C135.945 209.597 135.573 209.96 135.063 210.241C134.56 210.522 133.9 210.678 133.086 210.707L132.321 211.384ZM132.207 217H128.313L129.342 214.943H132.207C132.67 214.943 133.048 214.87 133.341 214.724C133.634 214.571 133.851 214.366 133.991 214.108C134.132 213.851 134.202 213.555 134.202 213.221C134.202 212.846 134.138 212.521 134.009 212.245C133.886 211.97 133.687 211.759 133.411 211.612C133.136 211.46 132.772 211.384 132.321 211.384H129.781L129.799 209.573H132.963L133.569 210.285C134.349 210.273 134.976 210.411 135.45 210.698C135.931 210.979 136.279 211.346 136.496 211.797C136.719 212.248 136.83 212.731 136.83 213.247C136.83 214.067 136.651 214.759 136.294 215.321C135.937 215.878 135.412 216.297 134.721 216.578C134.035 216.859 133.197 217 132.207 217ZM138.808 204.203H143.58C144.559 204.203 145.399 204.35 146.103 204.643C146.812 204.936 147.356 205.369 147.737 205.943C148.118 206.518 148.309 207.224 148.309 208.062C148.309 208.747 148.191 209.336 147.957 209.828C147.729 210.314 147.403 210.722 146.981 211.05C146.565 211.372 146.076 211.63 145.514 211.823L144.679 212.263H140.53L140.513 210.206H143.598C144.061 210.206 144.444 210.124 144.749 209.96C145.054 209.796 145.282 209.567 145.435 209.274C145.593 208.981 145.672 208.642 145.672 208.255C145.672 207.845 145.596 207.49 145.443 207.191C145.291 206.893 145.06 206.664 144.749 206.506C144.438 206.348 144.049 206.269 143.58 206.269H141.444V217H138.808V204.203ZM145.962 217L143.044 211.296L145.83 211.278L148.783 216.877V217H145.962ZM155.533 204.203V217H152.905V204.203H155.533ZM159.471 204.203V206.269H149.029V204.203H159.471Z" fill="#0066CC"/>
<path d="M96.4092 247.582V249.533C96.4092 250.582 96.3154 251.467 96.1279 252.188C95.9404 252.908 95.6709 253.488 95.3193 253.928C94.9678 254.367 94.543 254.687 94.0449 254.886C93.5527 255.079 92.9961 255.176 92.375 255.176C91.8828 255.176 91.4287 255.114 91.0127 254.991C90.5967 254.868 90.2217 254.672 89.8877 254.402C89.5596 254.127 89.2783 253.77 89.0439 253.33C88.8096 252.891 88.6309 252.357 88.5078 251.73C88.3848 251.104 88.3232 250.371 88.3232 249.533V247.582C88.3232 246.533 88.417 245.654 88.6045 244.945C88.7979 244.236 89.0703 243.668 89.4219 243.24C89.7734 242.807 90.1953 242.496 90.6875 242.309C91.1855 242.121 91.7422 242.027 92.3574 242.027C92.8555 242.027 93.3125 242.089 93.7285 242.212C94.1504 242.329 94.5254 242.52 94.8535 242.783C95.1816 243.041 95.46 243.387 95.6885 243.82C95.9229 244.248 96.1016 244.772 96.2246 245.394C96.3477 246.015 96.4092 246.744 96.4092 247.582ZM94.7744 249.797V247.31C94.7744 246.735 94.7393 246.231 94.6689 245.798C94.6045 245.358 94.5078 244.983 94.3789 244.673C94.25 244.362 94.0859 244.11 93.8867 243.917C93.6934 243.724 93.4678 243.583 93.21 243.495C92.958 243.401 92.6738 243.354 92.3574 243.354C91.9707 243.354 91.6279 243.428 91.3291 243.574C91.0303 243.715 90.7783 243.94 90.5732 244.251C90.374 244.562 90.2217 244.969 90.1162 245.473C90.0107 245.977 89.958 246.589 89.958 247.31V249.797C89.958 250.371 89.9902 250.878 90.0547 251.317C90.125 251.757 90.2275 252.138 90.3623 252.46C90.4971 252.776 90.6611 253.037 90.8545 253.242C91.0479 253.447 91.2705 253.6 91.5225 253.699C91.7803 253.793 92.0645 253.84 92.375 253.84C92.7734 253.84 93.1221 253.764 93.4209 253.611C93.7197 253.459 93.9688 253.222 94.168 252.899C94.373 252.571 94.5254 252.152 94.625 251.643C94.7246 251.127 94.7744 250.512 94.7744 249.797ZM106.569 251.537C106.569 252.316 106.388 252.979 106.024 253.523C105.667 254.062 105.181 254.473 104.565 254.754C103.956 255.035 103.268 255.176 102.5 255.176C101.732 255.176 101.041 255.035 100.426 254.754C99.8105 254.473 99.3242 254.062 98.9668 253.523C98.6094 252.979 98.4307 252.316 98.4307 251.537C98.4307 251.027 98.5273 250.562 98.7207 250.14C98.9199 249.712 99.1982 249.34 99.5557 249.023C99.9189 248.707 100.347 248.464 100.839 248.294C101.337 248.118 101.885 248.03 102.482 248.03C103.268 248.03 103.968 248.183 104.583 248.487C105.198 248.786 105.682 249.199 106.033 249.727C106.391 250.254 106.569 250.857 106.569 251.537ZM104.935 251.502C104.935 251.027 104.832 250.608 104.627 250.245C104.422 249.876 104.135 249.589 103.766 249.384C103.396 249.179 102.969 249.076 102.482 249.076C101.984 249.076 101.554 249.179 101.19 249.384C100.833 249.589 100.555 249.876 100.355 250.245C100.156 250.608 100.057 251.027 100.057 251.502C100.057 251.994 100.153 252.416 100.347 252.768C100.546 253.113 100.827 253.38 101.19 253.567C101.56 253.749 101.996 253.84 102.5 253.84C103.004 253.84 103.438 253.749 103.801 253.567C104.164 253.38 104.442 253.113 104.636 252.768C104.835 252.416 104.935 251.994 104.935 251.502ZM106.271 245.534C106.271 246.155 106.106 246.715 105.778 247.213C105.45 247.711 105.002 248.104 104.434 248.391C103.865 248.678 103.221 248.821 102.5 248.821C101.768 248.821 101.114 248.678 100.54 248.391C99.9717 248.104 99.5264 247.711 99.2041 247.213C98.8818 246.715 98.7207 246.155 98.7207 245.534C98.7207 244.79 98.8818 244.157 99.2041 243.636C99.5322 243.114 99.9805 242.716 100.549 242.44C101.117 242.165 101.765 242.027 102.491 242.027C103.224 242.027 103.874 242.165 104.442 242.44C105.011 242.716 105.456 243.114 105.778 243.636C106.106 244.157 106.271 244.79 106.271 245.534ZM104.645 245.561C104.645 245.133 104.554 244.755 104.372 244.427C104.19 244.099 103.938 243.841 103.616 243.653C103.294 243.46 102.919 243.363 102.491 243.363C102.063 243.363 101.688 243.454 101.366 243.636C101.05 243.812 100.801 244.063 100.619 244.392C100.443 244.72 100.355 245.109 100.355 245.561C100.355 246 100.443 246.384 100.619 246.712C100.801 247.04 101.053 247.295 101.375 247.477C101.697 247.658 102.072 247.749 102.5 247.749C102.928 247.749 103.3 247.658 103.616 247.477C103.938 247.295 104.19 247.04 104.372 246.712C104.554 246.384 104.645 246 104.645 245.561ZM116.659 247.582V249.533C116.659 250.582 116.565 251.467 116.378 252.188C116.19 252.908 115.921 253.488 115.569 253.928C115.218 254.367 114.793 254.687 114.295 254.886C113.803 255.079 113.246 255.176 112.625 255.176C112.133 255.176 111.679 255.114 111.263 254.991C110.847 254.868 110.472 254.672 110.138 254.402C109.81 254.127 109.528 253.77 109.294 253.33C109.06 252.891 108.881 252.357 108.758 251.73C108.635 251.104 108.573 250.371 108.573 249.533V247.582C108.573 246.533 108.667 245.654 108.854 244.945C109.048 244.236 109.32 243.668 109.672 243.24C110.023 242.807 110.445 242.496 110.938 242.309C111.436 242.121 111.992 242.027 112.607 242.027C113.105 242.027 113.562 242.089 113.979 242.212C114.4 242.329 114.775 242.52 115.104 242.783C115.432 243.041 115.71 243.387 115.938 243.82C116.173 244.248 116.352 244.772 116.475 245.394C116.598 246.015 116.659 246.744 116.659 247.582ZM115.024 249.797V247.31C115.024 246.735 114.989 246.231 114.919 245.798C114.854 245.358 114.758 244.983 114.629 244.673C114.5 244.362 114.336 244.11 114.137 243.917C113.943 243.724 113.718 243.583 113.46 243.495C113.208 243.401 112.924 243.354 112.607 243.354C112.221 243.354 111.878 243.428 111.579 243.574C111.28 243.715 111.028 243.94 110.823 244.251C110.624 244.562 110.472 244.969 110.366 245.473C110.261 245.977 110.208 246.589 110.208 247.31V249.797C110.208 250.371 110.24 250.878 110.305 251.317C110.375 251.757 110.478 252.138 110.612 252.46C110.747 252.776 110.911 253.037 111.104 253.242C111.298 253.447 111.521 253.6 111.772 253.699C112.03 253.793 112.314 253.84 112.625 253.84C113.023 253.84 113.372 253.764 113.671 253.611C113.97 253.459 114.219 253.222 114.418 252.899C114.623 252.571 114.775 252.152 114.875 251.643C114.975 251.127 115.024 250.512 115.024 249.797ZM127.136 253.664V255H118.76V253.831L122.952 249.164C123.468 248.59 123.866 248.104 124.147 247.705C124.435 247.301 124.634 246.94 124.745 246.624C124.862 246.302 124.921 245.974 124.921 245.64C124.921 245.218 124.833 244.837 124.657 244.497C124.487 244.151 124.235 243.876 123.901 243.671C123.567 243.466 123.163 243.363 122.688 243.363C122.12 243.363 121.646 243.475 121.265 243.697C120.89 243.914 120.608 244.219 120.421 244.611C120.233 245.004 120.14 245.455 120.14 245.965H118.514C118.514 245.244 118.672 244.585 118.988 243.987C119.305 243.39 119.773 242.915 120.395 242.563C121.016 242.206 121.78 242.027 122.688 242.027C123.497 242.027 124.188 242.171 124.763 242.458C125.337 242.739 125.776 243.138 126.081 243.653C126.392 244.163 126.547 244.761 126.547 245.446C126.547 245.821 126.482 246.202 126.354 246.589C126.23 246.97 126.058 247.351 125.835 247.731C125.618 248.112 125.363 248.487 125.07 248.856C124.783 249.226 124.476 249.589 124.147 249.946L120.72 253.664H127.136ZM131.249 247.802H132.409C132.978 247.802 133.446 247.708 133.815 247.521C134.19 247.327 134.469 247.066 134.65 246.738C134.838 246.404 134.932 246.029 134.932 245.613C134.932 245.121 134.85 244.708 134.686 244.374C134.521 244.04 134.275 243.788 133.947 243.618C133.619 243.448 133.203 243.363 132.699 243.363C132.242 243.363 131.838 243.454 131.486 243.636C131.141 243.812 130.868 244.063 130.669 244.392C130.476 244.72 130.379 245.106 130.379 245.552H128.753C128.753 244.901 128.917 244.31 129.245 243.776C129.573 243.243 130.033 242.818 130.625 242.502C131.223 242.186 131.914 242.027 132.699 242.027C133.473 242.027 134.149 242.165 134.729 242.44C135.31 242.71 135.761 243.114 136.083 243.653C136.405 244.187 136.566 244.852 136.566 245.648C136.566 245.971 136.49 246.316 136.338 246.686C136.191 247.049 135.96 247.389 135.644 247.705C135.333 248.021 134.929 248.282 134.431 248.487C133.933 248.687 133.335 248.786 132.638 248.786H131.249V247.802ZM131.249 249.138V248.162H132.638C133.452 248.162 134.126 248.259 134.659 248.452C135.192 248.646 135.611 248.903 135.916 249.226C136.227 249.548 136.443 249.902 136.566 250.289C136.695 250.67 136.76 251.051 136.76 251.432C136.76 252.029 136.657 252.56 136.452 253.022C136.253 253.485 135.969 253.878 135.6 254.2C135.236 254.522 134.809 254.766 134.316 254.93C133.824 255.094 133.288 255.176 132.708 255.176C132.151 255.176 131.627 255.097 131.135 254.938C130.648 254.78 130.218 254.552 129.843 254.253C129.468 253.948 129.175 253.576 128.964 253.137C128.753 252.691 128.647 252.185 128.647 251.616H130.273C130.273 252.062 130.37 252.451 130.563 252.785C130.763 253.119 131.044 253.38 131.407 253.567C131.776 253.749 132.21 253.84 132.708 253.84C133.206 253.84 133.634 253.755 133.991 253.585C134.354 253.409 134.633 253.146 134.826 252.794C135.025 252.442 135.125 252 135.125 251.467C135.125 250.934 135.014 250.497 134.791 250.157C134.568 249.812 134.252 249.557 133.842 249.393C133.438 249.223 132.96 249.138 132.409 249.138H131.249ZM144.345 242.133V255H142.719V244.163L139.44 245.358V243.891L144.09 242.133H144.345ZM157.774 250.693V252.029H148.528V251.071L154.259 242.203H155.586L154.162 244.77L150.374 250.693H157.774ZM155.99 242.203V255H154.364V242.203H155.99ZM165.491 242.186H165.632V243.565H165.491C164.63 243.565 163.909 243.706 163.329 243.987C162.749 244.263 162.289 244.635 161.949 245.104C161.609 245.566 161.363 246.088 161.211 246.668C161.064 247.248 160.991 247.837 160.991 248.435V250.315C160.991 250.884 161.059 251.388 161.193 251.827C161.328 252.261 161.513 252.627 161.747 252.926C161.981 253.225 162.245 253.45 162.538 253.603C162.837 253.755 163.147 253.831 163.47 253.831C163.845 253.831 164.179 253.761 164.472 253.62C164.765 253.474 165.011 253.271 165.21 253.014C165.415 252.75 165.57 252.439 165.676 252.082C165.781 251.725 165.834 251.332 165.834 250.904C165.834 250.523 165.787 250.157 165.693 249.806C165.6 249.448 165.456 249.132 165.263 248.856C165.069 248.575 164.826 248.355 164.533 248.197C164.246 248.033 163.903 247.951 163.505 247.951C163.054 247.951 162.632 248.062 162.239 248.285C161.853 248.502 161.533 248.789 161.281 249.146C161.035 249.498 160.895 249.882 160.859 250.298L159.998 250.289C160.08 249.633 160.232 249.073 160.455 248.61C160.684 248.142 160.965 247.761 161.299 247.468C161.639 247.169 162.017 246.952 162.433 246.817C162.854 246.677 163.3 246.606 163.769 246.606C164.407 246.606 164.958 246.727 165.421 246.967C165.884 247.207 166.265 247.529 166.563 247.934C166.862 248.332 167.082 248.783 167.223 249.287C167.369 249.785 167.442 250.298 167.442 250.825C167.442 251.429 167.357 251.994 167.188 252.521C167.018 253.049 166.763 253.512 166.423 253.91C166.089 254.309 165.676 254.619 165.184 254.842C164.691 255.064 164.12 255.176 163.47 255.176C162.778 255.176 162.175 255.035 161.659 254.754C161.144 254.467 160.716 254.086 160.376 253.611C160.036 253.137 159.781 252.609 159.611 252.029C159.441 251.449 159.356 250.86 159.356 250.263V249.498C159.356 248.596 159.447 247.711 159.629 246.844C159.811 245.977 160.124 245.191 160.569 244.488C161.021 243.785 161.645 243.226 162.441 242.81C163.238 242.394 164.255 242.186 165.491 242.186ZM177.409 247.582V249.533C177.409 250.582 177.315 251.467 177.128 252.188C176.94 252.908 176.671 253.488 176.319 253.928C175.968 254.367 175.543 254.687 175.045 254.886C174.553 255.079 173.996 255.176 173.375 255.176C172.883 255.176 172.429 255.114 172.013 254.991C171.597 254.868 171.222 254.672 170.888 254.402C170.56 254.127 170.278 253.77 170.044 253.33C169.81 252.891 169.631 252.357 169.508 251.73C169.385 251.104 169.323 250.371 169.323 249.533V247.582C169.323 246.533 169.417 245.654 169.604 244.945C169.798 244.236 170.07 243.668 170.422 243.24C170.773 242.807 171.195 242.496 171.688 242.309C172.186 242.121 172.742 242.027 173.357 242.027C173.855 242.027 174.312 242.089 174.729 242.212C175.15 242.329 175.525 242.52 175.854 242.783C176.182 243.041 176.46 243.387 176.688 243.82C176.923 244.248 177.102 244.772 177.225 245.394C177.348 246.015 177.409 246.744 177.409 247.582ZM175.774 249.797V247.31C175.774 246.735 175.739 246.231 175.669 245.798C175.604 245.358 175.508 244.983 175.379 244.673C175.25 244.362 175.086 244.11 174.887 243.917C174.693 243.724 174.468 243.583 174.21 243.495C173.958 243.401 173.674 243.354 173.357 243.354C172.971 243.354 172.628 243.428 172.329 243.574C172.03 243.715 171.778 243.94 171.573 244.251C171.374 244.562 171.222 244.969 171.116 245.473C171.011 245.977 170.958 246.589 170.958 247.31V249.797C170.958 250.371 170.99 250.878 171.055 251.317C171.125 251.757 171.228 252.138 171.362 252.46C171.497 252.776 171.661 253.037 171.854 253.242C172.048 253.447 172.271 253.6 172.522 253.699C172.78 253.793 173.064 253.84 173.375 253.84C173.773 253.84 174.122 253.764 174.421 253.611C174.72 253.459 174.969 253.222 175.168 252.899C175.373 252.571 175.525 252.152 175.625 251.643C175.725 251.127 175.774 250.512 175.774 249.797ZM181.118 253.638H181.285C182.223 253.638 182.984 253.506 183.57 253.242C184.156 252.979 184.607 252.624 184.924 252.179C185.24 251.733 185.457 251.232 185.574 250.676C185.691 250.113 185.75 249.536 185.75 248.944V246.984C185.75 246.404 185.683 245.889 185.548 245.438C185.419 244.986 185.237 244.608 185.003 244.304C184.774 243.999 184.514 243.768 184.221 243.609C183.928 243.451 183.617 243.372 183.289 243.372C182.914 243.372 182.577 243.448 182.278 243.601C181.985 243.747 181.736 243.955 181.531 244.225C181.332 244.494 181.18 244.811 181.074 245.174C180.969 245.537 180.916 245.933 180.916 246.36C180.916 246.741 180.963 247.11 181.057 247.468C181.15 247.825 181.294 248.147 181.487 248.435C181.681 248.722 181.921 248.95 182.208 249.12C182.501 249.284 182.844 249.366 183.236 249.366C183.6 249.366 183.939 249.296 184.256 249.155C184.578 249.009 184.862 248.812 185.108 248.566C185.36 248.314 185.56 248.03 185.706 247.714C185.858 247.397 185.946 247.066 185.97 246.721H186.743C186.743 247.207 186.646 247.688 186.453 248.162C186.266 248.631 186.002 249.059 185.662 249.445C185.322 249.832 184.924 250.143 184.467 250.377C184.01 250.605 183.512 250.72 182.973 250.72C182.34 250.72 181.792 250.597 181.329 250.351C180.866 250.104 180.485 249.776 180.187 249.366C179.894 248.956 179.674 248.499 179.527 247.995C179.387 247.485 179.316 246.97 179.316 246.448C179.316 245.839 179.401 245.268 179.571 244.734C179.741 244.201 179.993 243.732 180.327 243.328C180.661 242.918 181.074 242.599 181.566 242.37C182.064 242.142 182.639 242.027 183.289 242.027C184.021 242.027 184.646 242.174 185.161 242.467C185.677 242.76 186.096 243.152 186.418 243.645C186.746 244.137 186.986 244.69 187.139 245.306C187.291 245.921 187.367 246.554 187.367 247.204V247.793C187.367 248.455 187.323 249.129 187.235 249.814C187.153 250.494 186.992 251.145 186.752 251.766C186.518 252.387 186.175 252.943 185.724 253.436C185.272 253.922 184.684 254.309 183.957 254.596C183.236 254.877 182.346 255.018 181.285 255.018H181.118V253.638ZM195.866 242.186H196.007V243.565H195.866C195.005 243.565 194.284 243.706 193.704 243.987C193.124 244.263 192.664 244.635 192.324 245.104C191.984 245.566 191.738 246.088 191.586 246.668C191.439 247.248 191.366 247.837 191.366 248.435V250.315C191.366 250.884 191.434 251.388 191.568 251.827C191.703 252.261 191.888 252.627 192.122 252.926C192.356 253.225 192.62 253.45 192.913 253.603C193.212 253.755 193.522 253.831 193.845 253.831C194.22 253.831 194.554 253.761 194.847 253.62C195.14 253.474 195.386 253.271 195.585 253.014C195.79 252.75 195.945 252.439 196.051 252.082C196.156 251.725 196.209 251.332 196.209 250.904C196.209 250.523 196.162 250.157 196.068 249.806C195.975 249.448 195.831 249.132 195.638 248.856C195.444 248.575 195.201 248.355 194.908 248.197C194.621 248.033 194.278 247.951 193.88 247.951C193.429 247.951 193.007 248.062 192.614 248.285C192.228 248.502 191.908 248.789 191.656 249.146C191.41 249.498 191.27 249.882 191.234 250.298L190.373 250.289C190.455 249.633 190.607 249.073 190.83 248.61C191.059 248.142 191.34 247.761 191.674 247.468C192.014 247.169 192.392 246.952 192.808 246.817C193.229 246.677 193.675 246.606 194.144 246.606C194.782 246.606 195.333 246.727 195.796 246.967C196.259 247.207 196.64 247.529 196.938 247.934C197.237 248.332 197.457 248.783 197.598 249.287C197.744 249.785 197.817 250.298 197.817 250.825C197.817 251.429 197.732 251.994 197.562 252.521C197.393 253.049 197.138 253.512 196.798 253.91C196.464 254.309 196.051 254.619 195.559 254.842C195.066 255.064 194.495 255.176 193.845 255.176C193.153 255.176 192.55 255.035 192.034 254.754C191.519 254.467 191.091 254.086 190.751 253.611C190.411 253.137 190.156 252.609 189.986 252.029C189.816 251.449 189.731 250.86 189.731 250.263V249.498C189.731 248.596 189.822 247.711 190.004 246.844C190.186 245.977 190.499 245.191 190.944 244.488C191.396 243.785 192.02 243.226 192.816 242.81C193.613 242.394 194.63 242.186 195.866 242.186Z" fill="black"/>
<circle cx="142.5" cy="95" r="95" fill="white"/>
<path d="M114.682 130V121.882H121.155L129.144 95.1956C129.684 93.4368 130.679 92.0324 132.13 90.9825C133.581 89.9326 135.181 89.4091 136.932 89.4118H149.068C150.821 89.4118 152.423 89.9367 153.874 90.9866C155.325 92.0365 156.319 93.4395 156.856 95.1956L164.845 121.882H171.318V130H114.682ZM138.955 81.2941V61H147.045V81.2941H138.955ZM163.025 91.3397L157.26 85.5559L171.622 71.2485L177.285 76.9309L163.025 91.3397ZM167.273 109.706V101.588H187.5V109.706H167.273ZM122.975 91.3397L108.715 76.9309L114.378 71.2485L128.74 85.5559L122.975 91.3397ZM98.5 109.706V101.588H118.727V109.706H98.5Z" fill="#FF0000"/>
</g>
<defs>
<filter id="filter0_d_38_2700" x="0.5" y="0" width="284" height="365" filterUnits="userSpaceOnUse" color-interpolation-filters="sRGB">
<feFlood flood-opacity="0" result="BackgroundImageFix"/>
<feColorMatrix in="SourceAlpha" type="matrix" values="0 0 0 0 0 0 0 0 0 0 0 0 0 0 0 0 0 0 127 0" result="hardAlpha"/>
<feOffset dy="4"/>
<feGaussianBlur stdDeviation="2"/>
<feComposite in2="hardAlpha" operator="out"/>
<feColorMatrix type="matrix" values="0 0 0 0 0 0 0 0 0 0 0 0 0 0 0 0 0 0 0.25 0"/>
<feBlend mode="normal" in2="BackgroundImageFix" result="effect1_dropShadow_38_2700"/>
<feBlend mode="normal" in="SourceGraphic" in2="effect1_dropShadow_38_2700" result="shape"/>
</filter>
</defs>
</svg>
