<svg width="276" height="357" viewBox="0 0 276 357" fill="none" xmlns="http://www.w3.org/2000/svg">
<rect y="95" width="276" height="262" rx="8" fill="white"/>
<path d="M92.4473 206.203V219H89.8105L84.6689 210.422V219H82.0322V206.203H84.6689L89.8193 214.79V206.203H92.4473ZM97.2549 209.49V219H94.7148V209.49H97.2549ZM94.5566 207.012C94.5566 206.643 94.6855 206.338 94.9434 206.098C95.2012 205.857 95.5469 205.737 95.9805 205.737C96.4082 205.737 96.751 205.857 97.0088 206.098C97.2725 206.338 97.4043 206.643 97.4043 207.012C97.4043 207.381 97.2725 207.686 97.0088 207.926C96.751 208.166 96.4082 208.286 95.9805 208.286C95.5469 208.286 95.2012 208.166 94.9434 207.926C94.6855 207.686 94.5566 207.381 94.5566 207.012ZM105.367 209.49H107.661V218.684C107.661 219.551 107.468 220.286 107.081 220.89C106.7 221.499 106.167 221.959 105.481 222.27C104.796 222.586 103.999 222.744 103.091 222.744C102.692 222.744 102.271 222.691 101.825 222.586C101.386 222.48 100.964 222.316 100.56 222.094C100.161 221.871 99.8271 221.59 99.5576 221.25L100.674 219.756C100.967 220.096 101.307 220.359 101.693 220.547C102.08 220.74 102.508 220.837 102.977 220.837C103.434 220.837 103.82 220.752 104.137 220.582C104.453 220.418 104.696 220.175 104.866 219.853C105.036 219.536 105.121 219.152 105.121 218.701V211.688L105.367 209.49ZM98.9688 214.359V214.175C98.9688 213.448 99.0566 212.789 99.2324 212.197C99.4141 211.6 99.6689 211.087 99.9971 210.659C100.331 210.231 100.735 209.9 101.21 209.666C101.685 209.432 102.221 209.314 102.818 209.314C103.451 209.314 103.981 209.432 104.409 209.666C104.837 209.9 105.188 210.234 105.464 210.668C105.739 211.096 105.953 211.603 106.105 212.188C106.264 212.769 106.387 213.404 106.475 214.096V214.5C106.387 215.162 106.255 215.777 106.079 216.346C105.903 216.914 105.672 217.412 105.385 217.84C105.098 218.262 104.74 218.59 104.312 218.824C103.891 219.059 103.387 219.176 102.801 219.176C102.215 219.176 101.685 219.056 101.21 218.815C100.741 218.575 100.34 218.238 100.006 217.805C99.6719 217.371 99.4141 216.861 99.2324 216.275C99.0566 215.689 98.9688 215.051 98.9688 214.359ZM101.5 214.175V214.359C101.5 214.752 101.538 215.118 101.614 215.458C101.69 215.798 101.808 216.1 101.966 216.363C102.13 216.621 102.332 216.823 102.572 216.97C102.818 217.11 103.108 217.181 103.442 217.181C103.905 217.181 104.283 217.084 104.576 216.891C104.869 216.691 105.089 216.419 105.235 216.073C105.382 215.728 105.467 215.329 105.49 214.878V213.727C105.479 213.357 105.429 213.026 105.341 212.733C105.253 212.435 105.13 212.18 104.972 211.969C104.813 211.758 104.608 211.594 104.356 211.477C104.104 211.359 103.806 211.301 103.46 211.301C103.126 211.301 102.836 211.377 102.59 211.529C102.35 211.676 102.147 211.878 101.983 212.136C101.825 212.394 101.705 212.698 101.623 213.05C101.541 213.396 101.5 213.771 101.5 214.175ZM114.007 219.176C113.269 219.176 112.606 219.059 112.021 218.824C111.435 218.584 110.937 218.253 110.526 217.831C110.122 217.409 109.812 216.92 109.595 216.363C109.378 215.801 109.27 215.203 109.27 214.57V214.219C109.27 213.498 109.372 212.839 109.577 212.241C109.782 211.644 110.075 211.125 110.456 210.686C110.843 210.246 111.312 209.909 111.862 209.675C112.413 209.435 113.034 209.314 113.726 209.314C114.399 209.314 114.997 209.426 115.519 209.648C116.04 209.871 116.477 210.188 116.828 210.598C117.186 211.008 117.455 211.5 117.637 212.074C117.818 212.643 117.909 213.275 117.909 213.973V215.027H110.351V213.34H115.422V213.146C115.422 212.795 115.357 212.481 115.229 212.206C115.105 211.925 114.918 211.702 114.666 211.538C114.414 211.374 114.092 211.292 113.699 211.292C113.365 211.292 113.078 211.365 112.838 211.512C112.598 211.658 112.401 211.863 112.249 212.127C112.103 212.391 111.991 212.701 111.915 213.059C111.845 213.41 111.81 213.797 111.81 214.219V214.57C111.81 214.951 111.862 215.303 111.968 215.625C112.079 215.947 112.234 216.226 112.434 216.46C112.639 216.694 112.885 216.876 113.172 217.005C113.465 217.134 113.796 217.198 114.165 217.198C114.622 217.198 115.047 217.11 115.439 216.935C115.838 216.753 116.181 216.48 116.468 216.117L117.698 217.453C117.499 217.74 117.227 218.016 116.881 218.279C116.541 218.543 116.131 218.76 115.65 218.93C115.17 219.094 114.622 219.176 114.007 219.176ZM121.882 211.564V219H119.351V209.49H121.732L121.882 211.564ZM124.747 209.429L124.703 211.775C124.58 211.758 124.431 211.743 124.255 211.731C124.085 211.714 123.93 211.705 123.789 211.705C123.432 211.705 123.121 211.752 122.857 211.846C122.6 211.934 122.383 212.065 122.207 212.241C122.037 212.417 121.908 212.631 121.82 212.883C121.738 213.135 121.691 213.422 121.68 213.744L121.17 213.586C121.17 212.971 121.231 212.405 121.354 211.89C121.478 211.368 121.656 210.914 121.891 210.527C122.131 210.141 122.424 209.842 122.77 209.631C123.115 209.42 123.511 209.314 123.956 209.314C124.097 209.314 124.24 209.326 124.387 209.35C124.533 209.367 124.653 209.394 124.747 209.429ZM128.614 209.49V219H126.074V209.49H128.614ZM125.916 207.012C125.916 206.643 126.045 206.338 126.303 206.098C126.561 205.857 126.906 205.737 127.34 205.737C127.768 205.737 128.11 205.857 128.368 206.098C128.632 206.338 128.764 206.643 128.764 207.012C128.764 207.381 128.632 207.686 128.368 207.926C128.11 208.166 127.768 208.286 127.34 208.286C126.906 208.286 126.561 208.166 126.303 207.926C126.045 207.686 125.916 207.381 125.916 207.012ZM135.839 216.855V212.619C135.839 212.314 135.789 212.054 135.689 211.837C135.59 211.614 135.435 211.441 135.224 211.318C135.019 211.195 134.752 211.134 134.424 211.134C134.143 211.134 133.899 211.184 133.694 211.283C133.489 211.377 133.331 211.515 133.22 211.696C133.108 211.872 133.053 212.08 133.053 212.32H130.521C130.521 211.916 130.615 211.532 130.803 211.169C130.99 210.806 131.263 210.486 131.62 210.211C131.978 209.93 132.402 209.71 132.895 209.552C133.393 209.394 133.949 209.314 134.564 209.314C135.303 209.314 135.959 209.438 136.533 209.684C137.107 209.93 137.559 210.299 137.887 210.791C138.221 211.283 138.388 211.898 138.388 212.637V216.706C138.388 217.228 138.42 217.655 138.484 217.989C138.549 218.317 138.643 218.604 138.766 218.851V219H136.208C136.085 218.742 135.991 218.42 135.927 218.033C135.868 217.641 135.839 217.248 135.839 216.855ZM136.173 213.208L136.19 214.641H134.775C134.441 214.641 134.151 214.679 133.905 214.755C133.659 214.831 133.457 214.939 133.299 215.08C133.141 215.215 133.023 215.373 132.947 215.555C132.877 215.736 132.842 215.936 132.842 216.152C132.842 216.369 132.892 216.565 132.991 216.741C133.091 216.911 133.234 217.046 133.422 217.146C133.609 217.239 133.829 217.286 134.081 217.286C134.462 217.286 134.793 217.21 135.074 217.058C135.355 216.905 135.572 216.718 135.725 216.495C135.883 216.272 135.965 216.062 135.971 215.862L136.639 216.935C136.545 217.175 136.416 217.424 136.252 217.682C136.094 217.939 135.892 218.183 135.646 218.411C135.399 218.634 135.104 218.818 134.758 218.965C134.412 219.105 134.002 219.176 133.527 219.176C132.924 219.176 132.376 219.056 131.884 218.815C131.397 218.569 131.011 218.232 130.724 217.805C130.442 217.371 130.302 216.879 130.302 216.328C130.302 215.83 130.396 215.388 130.583 215.001C130.771 214.614 131.046 214.289 131.409 214.025C131.778 213.756 132.238 213.554 132.789 213.419C133.34 213.278 133.979 213.208 134.705 213.208H136.173ZM149.963 214.438H146.702V212.382H149.963C150.467 212.382 150.877 212.3 151.193 212.136C151.51 211.966 151.741 211.731 151.888 211.433C152.034 211.134 152.107 210.797 152.107 210.422C152.107 210.041 152.034 209.687 151.888 209.358C151.741 209.03 151.51 208.767 151.193 208.567C150.877 208.368 150.467 208.269 149.963 208.269H147.616V219H144.979V206.203H149.963C150.965 206.203 151.823 206.385 152.538 206.748C153.259 207.105 153.81 207.601 154.19 208.233C154.571 208.866 154.762 209.59 154.762 210.404C154.762 211.23 154.571 211.945 154.19 212.549C153.81 213.152 153.259 213.618 152.538 213.946C151.823 214.274 150.965 214.438 149.963 214.438ZM155.896 214.342V214.157C155.896 213.46 155.995 212.818 156.194 212.232C156.394 211.641 156.684 211.128 157.064 210.694C157.445 210.261 157.914 209.924 158.471 209.684C159.027 209.438 159.666 209.314 160.387 209.314C161.107 209.314 161.749 209.438 162.312 209.684C162.874 209.924 163.346 210.261 163.727 210.694C164.113 211.128 164.406 211.641 164.605 212.232C164.805 212.818 164.904 213.46 164.904 214.157V214.342C164.904 215.033 164.805 215.675 164.605 216.267C164.406 216.853 164.113 217.365 163.727 217.805C163.346 218.238 162.877 218.575 162.32 218.815C161.764 219.056 161.125 219.176 160.404 219.176C159.684 219.176 159.042 219.056 158.479 218.815C157.923 218.575 157.451 218.238 157.064 217.805C156.684 217.365 156.394 216.853 156.194 216.267C155.995 215.675 155.896 215.033 155.896 214.342ZM158.427 214.157V214.342C158.427 214.74 158.462 215.112 158.532 215.458C158.603 215.804 158.714 216.108 158.866 216.372C159.024 216.63 159.229 216.832 159.481 216.979C159.733 217.125 160.041 217.198 160.404 217.198C160.756 217.198 161.058 217.125 161.31 216.979C161.562 216.832 161.764 216.63 161.916 216.372C162.068 216.108 162.18 215.804 162.25 215.458C162.326 215.112 162.364 214.74 162.364 214.342V214.157C162.364 213.771 162.326 213.407 162.25 213.067C162.18 212.722 162.065 212.417 161.907 212.153C161.755 211.884 161.553 211.673 161.301 211.521C161.049 211.368 160.744 211.292 160.387 211.292C160.029 211.292 159.725 211.368 159.473 211.521C159.227 211.673 159.024 211.884 158.866 212.153C158.714 212.417 158.603 212.722 158.532 213.067C158.462 213.407 158.427 213.771 158.427 214.157ZM169.132 205.5V219H166.592V205.5H169.132ZM173.896 209.49V219H171.355V209.49H173.896ZM171.197 207.012C171.197 206.643 171.326 206.338 171.584 206.098C171.842 205.857 172.188 205.737 172.621 205.737C173.049 205.737 173.392 205.857 173.649 206.098C173.913 206.338 174.045 206.643 174.045 207.012C174.045 207.381 173.913 207.686 173.649 207.926C173.392 208.166 173.049 208.286 172.621 208.286C172.188 208.286 171.842 208.166 171.584 207.926C171.326 207.686 171.197 207.381 171.197 207.012ZM179.916 217.198C180.227 217.198 180.502 217.14 180.742 217.022C180.982 216.899 181.17 216.729 181.305 216.513C181.445 216.29 181.519 216.029 181.524 215.73H183.906C183.9 216.398 183.722 216.993 183.37 217.515C183.019 218.03 182.547 218.438 181.955 218.736C181.363 219.029 180.701 219.176 179.969 219.176C179.23 219.176 178.586 219.053 178.035 218.807C177.49 218.561 177.036 218.221 176.673 217.787C176.31 217.348 176.037 216.838 175.855 216.258C175.674 215.672 175.583 215.045 175.583 214.377V214.122C175.583 213.448 175.674 212.821 175.855 212.241C176.037 211.655 176.31 211.146 176.673 210.712C177.036 210.272 177.49 209.93 178.035 209.684C178.58 209.438 179.219 209.314 179.951 209.314C180.73 209.314 181.413 209.464 181.999 209.763C182.591 210.062 183.054 210.489 183.388 211.046C183.728 211.597 183.9 212.25 183.906 213.006H181.524C181.519 212.689 181.451 212.402 181.322 212.145C181.199 211.887 181.018 211.682 180.777 211.529C180.543 211.371 180.253 211.292 179.907 211.292C179.538 211.292 179.236 211.371 179.002 211.529C178.768 211.682 178.586 211.893 178.457 212.162C178.328 212.426 178.237 212.728 178.185 213.067C178.138 213.401 178.114 213.753 178.114 214.122V214.377C178.114 214.746 178.138 215.101 178.185 215.44C178.231 215.78 178.319 216.082 178.448 216.346C178.583 216.609 178.768 216.817 179.002 216.97C179.236 217.122 179.541 217.198 179.916 217.198ZM189.751 219.176C189.013 219.176 188.351 219.059 187.765 218.824C187.179 218.584 186.681 218.253 186.271 217.831C185.866 217.409 185.556 216.92 185.339 216.363C185.122 215.801 185.014 215.203 185.014 214.57V214.219C185.014 213.498 185.116 212.839 185.321 212.241C185.526 211.644 185.819 211.125 186.2 210.686C186.587 210.246 187.056 209.909 187.606 209.675C188.157 209.435 188.778 209.314 189.47 209.314C190.144 209.314 190.741 209.426 191.263 209.648C191.784 209.871 192.221 210.188 192.572 210.598C192.93 211.008 193.199 211.5 193.381 212.074C193.562 212.643 193.653 213.275 193.653 213.973V215.027H186.095V213.34H191.166V213.146C191.166 212.795 191.102 212.481 190.973 212.206C190.85 211.925 190.662 211.702 190.41 211.538C190.158 211.374 189.836 211.292 189.443 211.292C189.109 211.292 188.822 211.365 188.582 211.512C188.342 211.658 188.146 211.863 187.993 212.127C187.847 212.391 187.735 212.701 187.659 213.059C187.589 213.41 187.554 213.797 187.554 214.219V214.57C187.554 214.951 187.606 215.303 187.712 215.625C187.823 215.947 187.979 216.226 188.178 216.46C188.383 216.694 188.629 216.876 188.916 217.005C189.209 217.134 189.54 217.198 189.909 217.198C190.366 217.198 190.791 217.11 191.184 216.935C191.582 216.753 191.925 216.48 192.212 216.117L193.442 217.453C193.243 217.74 192.971 218.016 192.625 218.279C192.285 218.543 191.875 218.76 191.395 218.93C190.914 219.094 190.366 219.176 189.751 219.176Z" fill="#0066CC"/>
<path d="M29.4385 247.582V249.533C29.4385 250.582 29.3447 251.467 29.1572 252.188C28.9697 252.908 28.7002 253.488 28.3486 253.928C27.9971 254.367 27.5723 254.687 27.0742 254.886C26.582 255.079 26.0254 255.176 25.4043 255.176C24.9121 255.176 24.458 255.114 24.042 254.991C23.626 254.868 23.251 254.672 22.917 254.402C22.5889 254.127 22.3076 253.77 22.0732 253.33C21.8389 252.891 21.6602 252.357 21.5371 251.73C21.4141 251.104 21.3525 250.371 21.3525 249.533V247.582C21.3525 246.533 21.4463 245.654 21.6338 244.945C21.8271 244.236 22.0996 243.668 22.4512 243.24C22.8027 242.807 23.2246 242.496 23.7168 242.309C24.2148 242.121 24.7715 242.027 25.3867 242.027C25.8848 242.027 26.3418 242.089 26.7578 242.212C27.1797 242.329 27.5547 242.52 27.8828 242.783C28.2109 243.041 28.4893 243.387 28.7178 243.82C28.9521 244.248 29.1309 244.772 29.2539 245.394C29.377 246.015 29.4385 246.744 29.4385 247.582ZM27.8037 249.797V247.31C27.8037 246.735 27.7686 246.231 27.6982 245.798C27.6338 245.358 27.5371 244.983 27.4082 244.673C27.2793 244.362 27.1152 244.11 26.916 243.917C26.7227 243.724 26.4971 243.583 26.2393 243.495C25.9873 243.401 25.7031 243.354 25.3867 243.354C25 243.354 24.6572 243.428 24.3584 243.574C24.0596 243.715 23.8076 243.94 23.6025 244.251C23.4033 244.562 23.251 244.969 23.1455 245.473C23.04 245.977 22.9873 246.589 22.9873 247.31V249.797C22.9873 250.371 23.0195 250.878 23.084 251.317C23.1543 251.757 23.2568 252.138 23.3916 252.46C23.5264 252.776 23.6904 253.037 23.8838 253.242C24.0771 253.447 24.2998 253.6 24.5518 253.699C24.8096 253.793 25.0938 253.84 25.4043 253.84C25.8027 253.84 26.1514 253.764 26.4502 253.611C26.749 253.459 26.998 253.222 27.1973 252.899C27.4023 252.571 27.5547 252.152 27.6543 251.643C27.7539 251.127 27.8037 250.512 27.8037 249.797ZM39.5986 251.537C39.5986 252.316 39.417 252.979 39.0537 253.523C38.6963 254.062 38.21 254.473 37.5947 254.754C36.9854 255.035 36.2969 255.176 35.5293 255.176C34.7617 255.176 34.0703 255.035 33.4551 254.754C32.8398 254.473 32.3535 254.062 31.9961 253.523C31.6387 252.979 31.46 252.316 31.46 251.537C31.46 251.027 31.5566 250.562 31.75 250.14C31.9492 249.712 32.2275 249.34 32.585 249.023C32.9482 248.707 33.376 248.464 33.8682 248.294C34.3662 248.118 34.9141 248.03 35.5117 248.03C36.2969 248.03 36.9971 248.183 37.6123 248.487C38.2275 248.786 38.7109 249.199 39.0625 249.727C39.4199 250.254 39.5986 250.857 39.5986 251.537ZM37.9639 251.502C37.9639 251.027 37.8613 250.608 37.6562 250.245C37.4512 249.876 37.1641 249.589 36.7949 249.384C36.4258 249.179 35.998 249.076 35.5117 249.076C35.0137 249.076 34.583 249.179 34.2197 249.384C33.8623 249.589 33.584 249.876 33.3848 250.245C33.1855 250.608 33.0859 251.027 33.0859 251.502C33.0859 251.994 33.1826 252.416 33.376 252.768C33.5752 253.113 33.8564 253.38 34.2197 253.567C34.5889 253.749 35.0254 253.84 35.5293 253.84C36.0332 253.84 36.4668 253.749 36.8301 253.567C37.1934 253.38 37.4717 253.113 37.665 252.768C37.8643 252.416 37.9639 251.994 37.9639 251.502ZM39.2998 245.534C39.2998 246.155 39.1357 246.715 38.8076 247.213C38.4795 247.711 38.0312 248.104 37.4629 248.391C36.8945 248.678 36.25 248.821 35.5293 248.821C34.7969 248.821 34.1436 248.678 33.5693 248.391C33.001 248.104 32.5557 247.711 32.2334 247.213C31.9111 246.715 31.75 246.155 31.75 245.534C31.75 244.79 31.9111 244.157 32.2334 243.636C32.5615 243.114 33.0098 242.716 33.5781 242.44C34.1465 242.165 34.7939 242.027 35.5205 242.027C36.2529 242.027 36.9033 242.165 37.4717 242.44C38.04 242.716 38.4854 243.114 38.8076 243.636C39.1357 244.157 39.2998 244.79 39.2998 245.534ZM37.6738 245.561C37.6738 245.133 37.583 244.755 37.4014 244.427C37.2197 244.099 36.9678 243.841 36.6455 243.653C36.3232 243.46 35.9482 243.363 35.5205 243.363C35.0928 243.363 34.7178 243.454 34.3955 243.636C34.0791 243.812 33.8301 244.063 33.6484 244.392C33.4727 244.72 33.3848 245.109 33.3848 245.561C33.3848 246 33.4727 246.384 33.6484 246.712C33.8301 247.04 34.082 247.295 34.4043 247.477C34.7266 247.658 35.1016 247.749 35.5293 247.749C35.957 247.749 36.3291 247.658 36.6455 247.477C36.9678 247.295 37.2197 247.04 37.4014 246.712C37.583 246.384 37.6738 246 37.6738 245.561ZM49.6885 247.582V249.533C49.6885 250.582 49.5947 251.467 49.4072 252.188C49.2197 252.908 48.9502 253.488 48.5986 253.928C48.2471 254.367 47.8223 254.687 47.3242 254.886C46.832 255.079 46.2754 255.176 45.6543 255.176C45.1621 255.176 44.708 255.114 44.292 254.991C43.876 254.868 43.501 254.672 43.167 254.402C42.8389 254.127 42.5576 253.77 42.3232 253.33C42.0889 252.891 41.9102 252.357 41.7871 251.73C41.6641 251.104 41.6025 250.371 41.6025 249.533V247.582C41.6025 246.533 41.6963 245.654 41.8838 244.945C42.0771 244.236 42.3496 243.668 42.7012 243.24C43.0527 242.807 43.4746 242.496 43.9668 242.309C44.4648 242.121 45.0215 242.027 45.6367 242.027C46.1348 242.027 46.5918 242.089 47.0078 242.212C47.4297 242.329 47.8047 242.52 48.1328 242.783C48.4609 243.041 48.7393 243.387 48.9678 243.82C49.2021 244.248 49.3809 244.772 49.5039 245.394C49.627 246.015 49.6885 246.744 49.6885 247.582ZM48.0537 249.797V247.31C48.0537 246.735 48.0186 246.231 47.9482 245.798C47.8838 245.358 47.7871 244.983 47.6582 244.673C47.5293 244.362 47.3652 244.11 47.166 243.917C46.9727 243.724 46.7471 243.583 46.4893 243.495C46.2373 243.401 45.9531 243.354 45.6367 243.354C45.25 243.354 44.9072 243.428 44.6084 243.574C44.3096 243.715 44.0576 243.94 43.8525 244.251C43.6533 244.562 43.501 244.969 43.3955 245.473C43.29 245.977 43.2373 246.589 43.2373 247.31V249.797C43.2373 250.371 43.2695 250.878 43.334 251.317C43.4043 251.757 43.5068 252.138 43.6416 252.46C43.7764 252.776 43.9404 253.037 44.1338 253.242C44.3271 253.447 44.5498 253.6 44.8018 253.699C45.0596 253.793 45.3438 253.84 45.6543 253.84C46.0527 253.84 46.4014 253.764 46.7002 253.611C46.999 253.459 47.248 253.222 47.4473 252.899C47.6523 252.571 47.8047 252.152 47.9043 251.643C48.0039 251.127 48.0537 250.512 48.0537 249.797ZM54.1533 247.802H55.3135C55.8818 247.802 56.3506 247.708 56.7197 247.521C57.0947 247.327 57.373 247.066 57.5547 246.738C57.7422 246.404 57.8359 246.029 57.8359 245.613C57.8359 245.121 57.7539 244.708 57.5898 244.374C57.4258 244.04 57.1797 243.788 56.8516 243.618C56.5234 243.448 56.1074 243.363 55.6035 243.363C55.1465 243.363 54.7422 243.454 54.3906 243.636C54.0449 243.812 53.7725 244.063 53.5732 244.392C53.3799 244.72 53.2832 245.106 53.2832 245.552H51.6572C51.6572 244.901 51.8213 244.31 52.1494 243.776C52.4775 243.243 52.9375 242.818 53.5293 242.502C54.127 242.186 54.8184 242.027 55.6035 242.027C56.377 242.027 57.0537 242.165 57.6338 242.44C58.2139 242.71 58.665 243.114 58.9873 243.653C59.3096 244.187 59.4707 244.852 59.4707 245.648C59.4707 245.971 59.3945 246.316 59.2422 246.686C59.0957 247.049 58.8643 247.389 58.5479 247.705C58.2373 248.021 57.833 248.282 57.335 248.487C56.8369 248.687 56.2393 248.786 55.542 248.786H54.1533V247.802ZM54.1533 249.138V248.162H55.542C56.3564 248.162 57.0303 248.259 57.5635 248.452C58.0967 248.646 58.5156 248.903 58.8203 249.226C59.1309 249.548 59.3477 249.902 59.4707 250.289C59.5996 250.67 59.6641 251.051 59.6641 251.432C59.6641 252.029 59.5615 252.56 59.3564 253.022C59.1572 253.485 58.873 253.878 58.5039 254.2C58.1406 254.522 57.7129 254.766 57.2207 254.93C56.7285 255.094 56.1924 255.176 55.6123 255.176C55.0557 255.176 54.5312 255.097 54.0391 254.938C53.5527 254.78 53.1221 254.552 52.7471 254.253C52.3721 253.948 52.0791 253.576 51.8682 253.137C51.6572 252.691 51.5518 252.185 51.5518 251.616H53.1777C53.1777 252.062 53.2744 252.451 53.4678 252.785C53.667 253.119 53.9482 253.38 54.3115 253.567C54.6807 253.749 55.1143 253.84 55.6123 253.84C56.1104 253.84 56.5381 253.755 56.8955 253.585C57.2588 253.409 57.5371 253.146 57.7305 252.794C57.9297 252.442 58.0293 252 58.0293 251.467C58.0293 250.934 57.918 250.497 57.6953 250.157C57.4727 249.812 57.1562 249.557 56.7461 249.393C56.3418 249.223 55.8643 249.138 55.3135 249.138H54.1533ZM64.2783 247.802H65.4385C66.0068 247.802 66.4756 247.708 66.8447 247.521C67.2197 247.327 67.498 247.066 67.6797 246.738C67.8672 246.404 67.9609 246.029 67.9609 245.613C67.9609 245.121 67.8789 244.708 67.7148 244.374C67.5508 244.04 67.3047 243.788 66.9766 243.618C66.6484 243.448 66.2324 243.363 65.7285 243.363C65.2715 243.363 64.8672 243.454 64.5156 243.636C64.1699 243.812 63.8975 244.063 63.6982 244.392C63.5049 244.72 63.4082 245.106 63.4082 245.552H61.7822C61.7822 244.901 61.9463 244.31 62.2744 243.776C62.6025 243.243 63.0625 242.818 63.6543 242.502C64.252 242.186 64.9434 242.027 65.7285 242.027C66.502 242.027 67.1787 242.165 67.7588 242.44C68.3389 242.71 68.79 243.114 69.1123 243.653C69.4346 244.187 69.5957 244.852 69.5957 245.648C69.5957 245.971 69.5195 246.316 69.3672 246.686C69.2207 247.049 68.9893 247.389 68.6729 247.705C68.3623 248.021 67.958 248.282 67.46 248.487C66.9619 248.687 66.3643 248.786 65.667 248.786H64.2783V247.802ZM64.2783 249.138V248.162H65.667C66.4814 248.162 67.1553 248.259 67.6885 248.452C68.2217 248.646 68.6406 248.903 68.9453 249.226C69.2559 249.548 69.4727 249.902 69.5957 250.289C69.7246 250.67 69.7891 251.051 69.7891 251.432C69.7891 252.029 69.6865 252.56 69.4814 253.022C69.2822 253.485 68.998 253.878 68.6289 254.2C68.2656 254.522 67.8379 254.766 67.3457 254.93C66.8535 255.094 66.3174 255.176 65.7373 255.176C65.1807 255.176 64.6562 255.097 64.1641 254.938C63.6777 254.78 63.2471 254.552 62.8721 254.253C62.4971 253.948 62.2041 253.576 61.9932 253.137C61.7822 252.691 61.6768 252.185 61.6768 251.616H63.3027C63.3027 252.062 63.3994 252.451 63.5928 252.785C63.792 253.119 64.0732 253.38 64.4365 253.567C64.8057 253.749 65.2393 253.84 65.7373 253.84C66.2354 253.84 66.6631 253.755 67.0205 253.585C67.3838 253.409 67.6621 253.146 67.8555 252.794C68.0547 252.442 68.1543 252 68.1543 251.467C68.1543 250.934 68.043 250.497 67.8203 250.157C67.5977 249.812 67.2812 249.557 66.8711 249.393C66.4668 249.223 65.9893 249.138 65.4385 249.138H64.2783ZM80.0635 247.582V249.533C80.0635 250.582 79.9697 251.467 79.7822 252.188C79.5947 252.908 79.3252 253.488 78.9736 253.928C78.6221 254.367 78.1973 254.687 77.6992 254.886C77.207 255.079 76.6504 255.176 76.0293 255.176C75.5371 255.176 75.083 255.114 74.667 254.991C74.251 254.868 73.876 254.672 73.542 254.402C73.2139 254.127 72.9326 253.77 72.6982 253.33C72.4639 252.891 72.2852 252.357 72.1621 251.73C72.0391 251.104 71.9775 250.371 71.9775 249.533V247.582C71.9775 246.533 72.0713 245.654 72.2588 244.945C72.4521 244.236 72.7246 243.668 73.0762 243.24C73.4277 242.807 73.8496 242.496 74.3418 242.309C74.8398 242.121 75.3965 242.027 76.0117 242.027C76.5098 242.027 76.9668 242.089 77.3828 242.212C77.8047 242.329 78.1797 242.52 78.5078 242.783C78.8359 243.041 79.1143 243.387 79.3428 243.82C79.5771 244.248 79.7559 244.772 79.8789 245.394C80.002 246.015 80.0635 246.744 80.0635 247.582ZM78.4287 249.797V247.31C78.4287 246.735 78.3936 246.231 78.3232 245.798C78.2588 245.358 78.1621 244.983 78.0332 244.673C77.9043 244.362 77.7402 244.11 77.541 243.917C77.3477 243.724 77.1221 243.583 76.8643 243.495C76.6123 243.401 76.3281 243.354 76.0117 243.354C75.625 243.354 75.2822 243.428 74.9834 243.574C74.6846 243.715 74.4326 243.94 74.2275 244.251C74.0283 244.562 73.876 244.969 73.7705 245.473C73.665 245.977 73.6123 246.589 73.6123 247.31V249.797C73.6123 250.371 73.6445 250.878 73.709 251.317C73.7793 251.757 73.8818 252.138 74.0166 252.46C74.1514 252.776 74.3154 253.037 74.5088 253.242C74.7021 253.447 74.9248 253.6 75.1768 253.699C75.4346 253.793 75.7188 253.84 76.0293 253.84C76.4277 253.84 76.7764 253.764 77.0752 253.611C77.374 253.459 77.623 253.222 77.8223 252.899C78.0273 252.571 78.1797 252.152 78.2793 251.643C78.3789 251.127 78.4287 250.512 78.4287 249.797ZM87.499 242.133V255H85.873V244.163L82.5947 245.358V243.891L87.2441 242.133H87.499ZM97.624 242.133V255H95.998V244.163L92.7197 245.358V243.891L97.3691 242.133H97.624ZM110.438 247.582V249.533C110.438 250.582 110.345 251.467 110.157 252.188C109.97 252.908 109.7 253.488 109.349 253.928C108.997 254.367 108.572 254.687 108.074 254.886C107.582 255.079 107.025 255.176 106.404 255.176C105.912 255.176 105.458 255.114 105.042 254.991C104.626 254.868 104.251 254.672 103.917 254.402C103.589 254.127 103.308 253.77 103.073 253.33C102.839 252.891 102.66 252.357 102.537 251.73C102.414 251.104 102.353 250.371 102.353 249.533V247.582C102.353 246.533 102.446 245.654 102.634 244.945C102.827 244.236 103.1 243.668 103.451 243.24C103.803 242.807 104.225 242.496 104.717 242.309C105.215 242.121 105.771 242.027 106.387 242.027C106.885 242.027 107.342 242.089 107.758 242.212C108.18 242.329 108.555 242.52 108.883 242.783C109.211 243.041 109.489 243.387 109.718 243.82C109.952 244.248 110.131 244.772 110.254 245.394C110.377 246.015 110.438 246.744 110.438 247.582ZM108.804 249.797V247.31C108.804 246.735 108.769 246.231 108.698 245.798C108.634 245.358 108.537 244.983 108.408 244.673C108.279 244.362 108.115 244.11 107.916 243.917C107.723 243.724 107.497 243.583 107.239 243.495C106.987 243.401 106.703 243.354 106.387 243.354C106 243.354 105.657 243.428 105.358 243.574C105.06 243.715 104.808 243.94 104.603 244.251C104.403 244.562 104.251 244.969 104.146 245.473C104.04 245.977 103.987 246.589 103.987 247.31V249.797C103.987 250.371 104.02 250.878 104.084 251.317C104.154 251.757 104.257 252.138 104.392 252.46C104.526 252.776 104.69 253.037 104.884 253.242C105.077 253.447 105.3 253.6 105.552 253.699C105.81 253.793 106.094 253.84 106.404 253.84C106.803 253.84 107.151 253.764 107.45 253.611C107.749 253.459 107.998 253.222 108.197 252.899C108.402 252.571 108.555 252.152 108.654 251.643C108.754 251.127 108.804 250.512 108.804 249.797ZM114.587 248.909L113.286 248.575L113.928 242.203H120.493V243.706H115.308L114.921 247.187C115.155 247.052 115.451 246.926 115.809 246.809C116.172 246.691 116.588 246.633 117.057 246.633C117.648 246.633 118.179 246.735 118.647 246.94C119.116 247.14 119.515 247.427 119.843 247.802C120.177 248.177 120.432 248.628 120.607 249.155C120.783 249.683 120.871 250.271 120.871 250.922C120.871 251.537 120.786 252.103 120.616 252.618C120.452 253.134 120.203 253.585 119.869 253.972C119.535 254.353 119.113 254.648 118.604 254.859C118.1 255.07 117.505 255.176 116.819 255.176C116.304 255.176 115.814 255.105 115.352 254.965C114.895 254.818 114.484 254.599 114.121 254.306C113.764 254.007 113.471 253.638 113.242 253.198C113.02 252.753 112.879 252.231 112.82 251.634H114.367C114.438 252.114 114.578 252.519 114.789 252.847C115 253.175 115.275 253.424 115.615 253.594C115.961 253.758 116.362 253.84 116.819 253.84C117.206 253.84 117.549 253.772 117.848 253.638C118.146 253.503 118.398 253.31 118.604 253.058C118.809 252.806 118.964 252.501 119.069 252.144C119.181 251.786 119.236 251.385 119.236 250.939C119.236 250.535 119.181 250.16 119.069 249.814C118.958 249.469 118.791 249.167 118.568 248.909C118.352 248.651 118.085 248.452 117.769 248.312C117.452 248.165 117.089 248.092 116.679 248.092C116.134 248.092 115.721 248.165 115.439 248.312C115.164 248.458 114.88 248.657 114.587 248.909ZM131.04 253.664V255H122.664V253.831L126.856 249.164C127.372 248.59 127.771 248.104 128.052 247.705C128.339 247.301 128.538 246.94 128.649 246.624C128.767 246.302 128.825 245.974 128.825 245.64C128.825 245.218 128.737 244.837 128.562 244.497C128.392 244.151 128.14 243.876 127.806 243.671C127.472 243.466 127.067 243.363 126.593 243.363C126.024 243.363 125.55 243.475 125.169 243.697C124.794 243.914 124.513 244.219 124.325 244.611C124.138 245.004 124.044 245.455 124.044 245.965H122.418C122.418 245.244 122.576 244.585 122.893 243.987C123.209 243.39 123.678 242.915 124.299 242.563C124.92 242.206 125.685 242.027 126.593 242.027C127.401 242.027 128.093 242.171 128.667 242.458C129.241 242.739 129.681 243.138 129.985 243.653C130.296 244.163 130.451 244.761 130.451 245.446C130.451 245.821 130.387 246.202 130.258 246.589C130.135 246.97 129.962 247.351 129.739 247.731C129.522 248.112 129.268 248.487 128.975 248.856C128.688 249.226 128.38 249.589 128.052 249.946L124.624 253.664H131.04ZM134.433 253.066V254.376C134.433 254.909 134.298 255.472 134.028 256.063C133.759 256.661 133.381 257.159 132.895 257.558L131.972 256.916C132.159 256.658 132.317 256.395 132.446 256.125C132.575 255.861 132.672 255.586 132.736 255.299C132.807 255.018 132.842 254.719 132.842 254.402V253.066H134.433ZM148.829 247.582V249.533C148.829 250.582 148.735 251.467 148.548 252.188C148.36 252.908 148.091 253.488 147.739 253.928C147.388 254.367 146.963 254.687 146.465 254.886C145.973 255.079 145.416 255.176 144.795 255.176C144.303 255.176 143.849 255.114 143.433 254.991C143.017 254.868 142.642 254.672 142.308 254.402C141.979 254.127 141.698 253.77 141.464 253.33C141.229 252.891 141.051 252.357 140.928 251.73C140.805 251.104 140.743 250.371 140.743 249.533V247.582C140.743 246.533 140.837 245.654 141.024 244.945C141.218 244.236 141.49 243.668 141.842 243.24C142.193 242.807 142.615 242.496 143.107 242.309C143.605 242.121 144.162 242.027 144.777 242.027C145.275 242.027 145.732 242.089 146.148 242.212C146.57 242.329 146.945 242.52 147.273 242.783C147.602 243.041 147.88 243.387 148.108 243.82C148.343 244.248 148.521 244.772 148.645 245.394C148.768 246.015 148.829 246.744 148.829 247.582ZM147.194 249.797V247.31C147.194 246.735 147.159 246.231 147.089 245.798C147.024 245.358 146.928 244.983 146.799 244.673C146.67 244.362 146.506 244.11 146.307 243.917C146.113 243.724 145.888 243.583 145.63 243.495C145.378 243.401 145.094 243.354 144.777 243.354C144.391 243.354 144.048 243.428 143.749 243.574C143.45 243.715 143.198 243.94 142.993 244.251C142.794 244.562 142.642 244.969 142.536 245.473C142.431 245.977 142.378 246.589 142.378 247.31V249.797C142.378 250.371 142.41 250.878 142.475 251.317C142.545 251.757 142.647 252.138 142.782 252.46C142.917 252.776 143.081 253.037 143.274 253.242C143.468 253.447 143.69 253.6 143.942 253.699C144.2 253.793 144.484 253.84 144.795 253.84C145.193 253.84 145.542 253.764 145.841 253.611C146.14 253.459 146.389 253.222 146.588 252.899C146.793 252.571 146.945 252.152 147.045 251.643C147.145 251.127 147.194 250.512 147.194 249.797ZM158.989 251.537C158.989 252.316 158.808 252.979 158.444 253.523C158.087 254.062 157.601 254.473 156.985 254.754C156.376 255.035 155.688 255.176 154.92 255.176C154.152 255.176 153.461 255.035 152.846 254.754C152.23 254.473 151.744 254.062 151.387 253.523C151.029 252.979 150.851 252.316 150.851 251.537C150.851 251.027 150.947 250.562 151.141 250.14C151.34 249.712 151.618 249.34 151.976 249.023C152.339 248.707 152.767 248.464 153.259 248.294C153.757 248.118 154.305 248.03 154.902 248.03C155.688 248.03 156.388 248.183 157.003 248.487C157.618 248.786 158.102 249.199 158.453 249.727C158.811 250.254 158.989 250.857 158.989 251.537ZM157.354 251.502C157.354 251.027 157.252 250.608 157.047 250.245C156.842 249.876 156.555 249.589 156.186 249.384C155.816 249.179 155.389 249.076 154.902 249.076C154.404 249.076 153.974 249.179 153.61 249.384C153.253 249.589 152.975 249.876 152.775 250.245C152.576 250.608 152.477 251.027 152.477 251.502C152.477 251.994 152.573 252.416 152.767 252.768C152.966 253.113 153.247 253.38 153.61 253.567C153.979 253.749 154.416 253.84 154.92 253.84C155.424 253.84 155.857 253.749 156.221 253.567C156.584 253.38 156.862 253.113 157.056 252.768C157.255 252.416 157.354 251.994 157.354 251.502ZM158.69 245.534C158.69 246.155 158.526 246.715 158.198 247.213C157.87 247.711 157.422 248.104 156.854 248.391C156.285 248.678 155.641 248.821 154.92 248.821C154.188 248.821 153.534 248.678 152.96 248.391C152.392 248.104 151.946 247.711 151.624 247.213C151.302 246.715 151.141 246.155 151.141 245.534C151.141 244.79 151.302 244.157 151.624 243.636C151.952 243.114 152.4 242.716 152.969 242.44C153.537 242.165 154.185 242.027 154.911 242.027C155.644 242.027 156.294 242.165 156.862 242.44C157.431 242.716 157.876 243.114 158.198 243.636C158.526 244.157 158.69 244.79 158.69 245.534ZM157.064 245.561C157.064 245.133 156.974 244.755 156.792 244.427C156.61 244.099 156.358 243.841 156.036 243.653C155.714 243.46 155.339 243.363 154.911 243.363C154.483 243.363 154.108 243.454 153.786 243.636C153.47 243.812 153.221 244.063 153.039 244.392C152.863 244.72 152.775 245.109 152.775 245.561C152.775 246 152.863 246.384 153.039 246.712C153.221 247.04 153.473 247.295 153.795 247.477C154.117 247.658 154.492 247.749 154.92 247.749C155.348 247.749 155.72 247.658 156.036 247.477C156.358 247.295 156.61 247.04 156.792 246.712C156.974 246.384 157.064 246 157.064 245.561ZM169.079 247.582V249.533C169.079 250.582 168.985 251.467 168.798 252.188C168.61 252.908 168.341 253.488 167.989 253.928C167.638 254.367 167.213 254.687 166.715 254.886C166.223 255.079 165.666 255.176 165.045 255.176C164.553 255.176 164.099 255.114 163.683 254.991C163.267 254.868 162.892 254.672 162.558 254.402C162.229 254.127 161.948 253.77 161.714 253.33C161.479 252.891 161.301 252.357 161.178 251.73C161.055 251.104 160.993 250.371 160.993 249.533V247.582C160.993 246.533 161.087 245.654 161.274 244.945C161.468 244.236 161.74 243.668 162.092 243.24C162.443 242.807 162.865 242.496 163.357 242.309C163.855 242.121 164.412 242.027 165.027 242.027C165.525 242.027 165.982 242.089 166.398 242.212C166.82 242.329 167.195 242.52 167.523 242.783C167.852 243.041 168.13 243.387 168.358 243.82C168.593 244.248 168.771 244.772 168.895 245.394C169.018 246.015 169.079 246.744 169.079 247.582ZM167.444 249.797V247.31C167.444 246.735 167.409 246.231 167.339 245.798C167.274 245.358 167.178 244.983 167.049 244.673C166.92 244.362 166.756 244.11 166.557 243.917C166.363 243.724 166.138 243.583 165.88 243.495C165.628 243.401 165.344 243.354 165.027 243.354C164.641 243.354 164.298 243.428 163.999 243.574C163.7 243.715 163.448 243.94 163.243 244.251C163.044 244.562 162.892 244.969 162.786 245.473C162.681 245.977 162.628 246.589 162.628 247.31V249.797C162.628 250.371 162.66 250.878 162.725 251.317C162.795 251.757 162.897 252.138 163.032 252.46C163.167 252.776 163.331 253.037 163.524 253.242C163.718 253.447 163.94 253.6 164.192 253.699C164.45 253.793 164.734 253.84 165.045 253.84C165.443 253.84 165.792 253.764 166.091 253.611C166.39 253.459 166.639 253.222 166.838 252.899C167.043 252.571 167.195 252.152 167.295 251.643C167.395 251.127 167.444 250.512 167.444 249.797ZM173.228 248.909L171.927 248.575L172.568 242.203H179.134V243.706H173.948L173.562 247.187C173.796 247.052 174.092 246.926 174.449 246.809C174.812 246.691 175.229 246.633 175.697 246.633C176.289 246.633 176.819 246.735 177.288 246.94C177.757 247.14 178.155 247.427 178.483 247.802C178.817 248.177 179.072 248.628 179.248 249.155C179.424 249.683 179.512 250.271 179.512 250.922C179.512 251.537 179.427 252.103 179.257 252.618C179.093 253.134 178.844 253.585 178.51 253.972C178.176 254.353 177.754 254.648 177.244 254.859C176.74 255.07 176.146 255.176 175.46 255.176C174.944 255.176 174.455 255.105 173.992 254.965C173.535 254.818 173.125 254.599 172.762 254.306C172.404 254.007 172.111 253.638 171.883 253.198C171.66 252.753 171.52 252.231 171.461 251.634H173.008C173.078 252.114 173.219 252.519 173.43 252.847C173.641 253.175 173.916 253.424 174.256 253.594C174.602 253.758 175.003 253.84 175.46 253.84C175.847 253.84 176.189 253.772 176.488 253.638C176.787 253.503 177.039 253.31 177.244 253.058C177.449 252.806 177.604 252.501 177.71 252.144C177.821 251.786 177.877 251.385 177.877 250.939C177.877 250.535 177.821 250.16 177.71 249.814C177.599 249.469 177.432 249.167 177.209 248.909C176.992 248.651 176.726 248.452 176.409 248.312C176.093 248.165 175.729 248.092 175.319 248.092C174.774 248.092 174.361 248.165 174.08 248.312C173.805 248.458 173.521 248.657 173.228 248.909ZM187.536 242.186H187.677V243.565H187.536C186.675 243.565 185.954 243.706 185.374 243.987C184.794 244.263 184.334 244.635 183.994 245.104C183.654 245.566 183.408 246.088 183.256 246.668C183.109 247.248 183.036 247.837 183.036 248.435V250.315C183.036 250.884 183.104 251.388 183.238 251.827C183.373 252.261 183.558 252.627 183.792 252.926C184.026 253.225 184.29 253.45 184.583 253.603C184.882 253.755 185.192 253.831 185.515 253.831C185.89 253.831 186.224 253.761 186.517 253.62C186.81 253.474 187.056 253.271 187.255 253.014C187.46 252.75 187.615 252.439 187.721 252.082C187.826 251.725 187.879 251.332 187.879 250.904C187.879 250.523 187.832 250.157 187.738 249.806C187.645 249.448 187.501 249.132 187.308 248.856C187.114 248.575 186.871 248.355 186.578 248.197C186.291 248.033 185.948 247.951 185.55 247.951C185.099 247.951 184.677 248.062 184.284 248.285C183.897 248.502 183.578 248.789 183.326 249.146C183.08 249.498 182.939 249.882 182.904 250.298L182.043 250.289C182.125 249.633 182.277 249.073 182.5 248.61C182.729 248.142 183.01 247.761 183.344 247.468C183.684 247.169 184.062 246.952 184.478 246.817C184.899 246.677 185.345 246.606 185.813 246.606C186.452 246.606 187.003 246.727 187.466 246.967C187.929 247.207 188.31 247.529 188.608 247.934C188.907 248.332 189.127 248.783 189.268 249.287C189.414 249.785 189.487 250.298 189.487 250.825C189.487 251.429 189.402 251.994 189.232 252.521C189.062 253.049 188.808 253.512 188.468 253.91C188.134 254.309 187.721 254.619 187.229 254.842C186.736 255.064 186.165 255.176 185.515 255.176C184.823 255.176 184.22 255.035 183.704 254.754C183.188 254.467 182.761 254.086 182.421 253.611C182.081 253.137 181.826 252.609 181.656 252.029C181.486 251.449 181.401 250.86 181.401 250.263V249.498C181.401 248.596 181.492 247.711 181.674 246.844C181.855 245.977 182.169 245.191 182.614 244.488C183.065 243.785 183.689 243.226 184.486 242.81C185.283 242.394 186.3 242.186 187.536 242.186ZM199.806 253.664V255H191.43V253.831L195.622 249.164C196.138 248.59 196.536 248.104 196.817 247.705C197.104 247.301 197.304 246.94 197.415 246.624C197.532 246.302 197.591 245.974 197.591 245.64C197.591 245.218 197.503 244.837 197.327 244.497C197.157 244.151 196.905 243.876 196.571 243.671C196.237 243.466 195.833 243.363 195.358 243.363C194.79 243.363 194.315 243.475 193.935 243.697C193.56 243.914 193.278 244.219 193.091 244.611C192.903 245.004 192.81 245.455 192.81 245.965H191.184C191.184 245.244 191.342 244.585 191.658 243.987C191.975 243.39 192.443 242.915 193.064 242.563C193.686 242.206 194.45 242.027 195.358 242.027C196.167 242.027 196.858 242.171 197.433 242.458C198.007 242.739 198.446 243.138 198.751 243.653C199.062 244.163 199.217 244.761 199.217 245.446C199.217 245.821 199.152 246.202 199.023 246.589C198.9 246.97 198.728 247.351 198.505 247.731C198.288 248.112 198.033 248.487 197.74 248.856C197.453 249.226 197.146 249.589 196.817 249.946L193.39 253.664H199.806ZM203.603 248.909L202.302 248.575L202.943 242.203H209.509V243.706H204.323L203.937 247.187C204.171 247.052 204.467 246.926 204.824 246.809C205.188 246.691 205.604 246.633 206.072 246.633C206.664 246.633 207.194 246.735 207.663 246.94C208.132 247.14 208.53 247.427 208.858 247.802C209.192 248.177 209.447 248.628 209.623 249.155C209.799 249.683 209.887 250.271 209.887 250.922C209.887 251.537 209.802 252.103 209.632 252.618C209.468 253.134 209.219 253.585 208.885 253.972C208.551 254.353 208.129 254.648 207.619 254.859C207.115 255.07 206.521 255.176 205.835 255.176C205.319 255.176 204.83 255.105 204.367 254.965C203.91 254.818 203.5 254.599 203.137 254.306C202.779 254.007 202.486 253.638 202.258 253.198C202.035 252.753 201.895 252.231 201.836 251.634H203.383C203.453 252.114 203.594 252.519 203.805 252.847C204.016 253.175 204.291 253.424 204.631 253.594C204.977 253.758 205.378 253.84 205.835 253.84C206.222 253.84 206.564 253.772 206.863 253.638C207.162 253.503 207.414 253.31 207.619 253.058C207.824 252.806 207.979 252.501 208.085 252.144C208.196 251.786 208.252 251.385 208.252 250.939C208.252 250.535 208.196 250.16 208.085 249.814C207.974 249.469 207.807 249.167 207.584 248.909C207.367 248.651 207.101 248.452 206.784 248.312C206.468 248.165 206.104 248.092 205.694 248.092C205.149 248.092 204.736 248.165 204.455 248.312C204.18 248.458 203.896 248.657 203.603 248.909ZM219.704 247.582V249.533C219.704 250.582 219.61 251.467 219.423 252.188C219.235 252.908 218.966 253.488 218.614 253.928C218.263 254.367 217.838 254.687 217.34 254.886C216.848 255.079 216.291 255.176 215.67 255.176C215.178 255.176 214.724 255.114 214.308 254.991C213.892 254.868 213.517 254.672 213.183 254.402C212.854 254.127 212.573 253.77 212.339 253.33C212.104 252.891 211.926 252.357 211.803 251.73C211.68 251.104 211.618 250.371 211.618 249.533V247.582C211.618 246.533 211.712 245.654 211.899 244.945C212.093 244.236 212.365 243.668 212.717 243.24C213.068 242.807 213.49 242.496 213.982 242.309C214.48 242.121 215.037 242.027 215.652 242.027C216.15 242.027 216.607 242.089 217.023 242.212C217.445 242.329 217.82 242.52 218.148 242.783C218.477 243.041 218.755 243.387 218.983 243.82C219.218 244.248 219.396 244.772 219.52 245.394C219.643 246.015 219.704 246.744 219.704 247.582ZM218.069 249.797V247.31C218.069 246.735 218.034 246.231 217.964 245.798C217.899 245.358 217.803 244.983 217.674 244.673C217.545 244.362 217.381 244.11 217.182 243.917C216.988 243.724 216.763 243.583 216.505 243.495C216.253 243.401 215.969 243.354 215.652 243.354C215.266 243.354 214.923 243.428 214.624 243.574C214.325 243.715 214.073 243.94 213.868 244.251C213.669 244.562 213.517 244.969 213.411 245.473C213.306 245.977 213.253 246.589 213.253 247.31V249.797C213.253 250.371 213.285 250.878 213.35 251.317C213.42 251.757 213.522 252.138 213.657 252.46C213.792 252.776 213.956 253.037 214.149 253.242C214.343 253.447 214.565 253.6 214.817 253.699C215.075 253.793 215.359 253.84 215.67 253.84C216.068 253.84 216.417 253.764 216.716 253.611C217.015 253.459 217.264 253.222 217.463 252.899C217.668 252.571 217.82 252.152 217.92 251.643C218.02 251.127 218.069 250.512 218.069 249.797ZM230.066 242.203V243.117L224.767 255H223.053L228.344 243.539H221.418V242.203H230.066ZM237.265 242.133V255H235.639V244.163L232.36 245.358V243.891L237.01 242.133H237.265ZM250.079 247.582V249.533C250.079 250.582 249.985 251.467 249.798 252.188C249.61 252.908 249.341 253.488 248.989 253.928C248.638 254.367 248.213 254.687 247.715 254.886C247.223 255.079 246.666 255.176 246.045 255.176C245.553 255.176 245.099 255.114 244.683 254.991C244.267 254.868 243.892 254.672 243.558 254.402C243.229 254.127 242.948 253.77 242.714 253.33C242.479 252.891 242.301 252.357 242.178 251.73C242.055 251.104 241.993 250.371 241.993 249.533V247.582C241.993 246.533 242.087 245.654 242.274 244.945C242.468 244.236 242.74 243.668 243.092 243.24C243.443 242.807 243.865 242.496 244.357 242.309C244.855 242.121 245.412 242.027 246.027 242.027C246.525 242.027 246.982 242.089 247.398 242.212C247.82 242.329 248.195 242.52 248.523 242.783C248.852 243.041 249.13 243.387 249.358 243.82C249.593 244.248 249.771 244.772 249.895 245.394C250.018 246.015 250.079 246.744 250.079 247.582ZM248.444 249.797V247.31C248.444 246.735 248.409 246.231 248.339 245.798C248.274 245.358 248.178 244.983 248.049 244.673C247.92 244.362 247.756 244.11 247.557 243.917C247.363 243.724 247.138 243.583 246.88 243.495C246.628 243.401 246.344 243.354 246.027 243.354C245.641 243.354 245.298 243.428 244.999 243.574C244.7 243.715 244.448 243.94 244.243 244.251C244.044 244.562 243.892 244.969 243.786 245.473C243.681 245.977 243.628 246.589 243.628 247.31V249.797C243.628 250.371 243.66 250.878 243.725 251.317C243.795 251.757 243.897 252.138 244.032 252.46C244.167 252.776 244.331 253.037 244.524 253.242C244.718 253.447 244.94 253.6 245.192 253.699C245.45 253.793 245.734 253.84 246.045 253.84C246.443 253.84 246.792 253.764 247.091 253.611C247.39 253.459 247.639 253.222 247.838 252.899C248.043 252.571 248.195 252.152 248.295 251.643C248.395 251.127 248.444 250.512 248.444 249.797ZM253.823 253.066V254.376C253.823 254.909 253.688 255.472 253.419 256.063C253.149 256.661 252.771 257.159 252.285 257.558L251.362 256.916C251.55 256.658 251.708 256.395 251.837 256.125C251.966 255.861 252.062 255.586 252.127 255.299C252.197 255.018 252.232 254.719 252.232 254.402V253.066H253.823ZM88.6768 273.582V275.533C88.6768 276.582 88.583 277.467 88.3955 278.188C88.208 278.908 87.9385 279.488 87.5869 279.928C87.2354 280.367 86.8105 280.687 86.3125 280.886C85.8203 281.079 85.2637 281.176 84.6426 281.176C84.1504 281.176 83.6963 281.114 83.2803 280.991C82.8643 280.868 82.4893 280.672 82.1553 280.402C81.8271 280.127 81.5459 279.77 81.3115 279.33C81.0771 278.891 80.8984 278.357 80.7754 277.73C80.6523 277.104 80.5908 276.371 80.5908 275.533V273.582C80.5908 272.533 80.6846 271.654 80.8721 270.945C81.0654 270.236 81.3379 269.668 81.6895 269.24C82.041 268.807 82.4629 268.496 82.9551 268.309C83.4531 268.121 84.0098 268.027 84.625 268.027C85.123 268.027 85.5801 268.089 85.9961 268.212C86.418 268.329 86.793 268.52 87.1211 268.783C87.4492 269.041 87.7275 269.387 87.9561 269.82C88.1904 270.248 88.3691 270.772 88.4922 271.394C88.6152 272.015 88.6768 272.744 88.6768 273.582ZM87.042 275.797V273.31C87.042 272.735 87.0068 272.231 86.9365 271.798C86.8721 271.358 86.7754 270.983 86.6465 270.673C86.5176 270.362 86.3535 270.11 86.1543 269.917C85.9609 269.724 85.7354 269.583 85.4775 269.495C85.2256 269.401 84.9414 269.354 84.625 269.354C84.2383 269.354 83.8955 269.428 83.5967 269.574C83.2979 269.715 83.0459 269.94 82.8408 270.251C82.6416 270.562 82.4893 270.969 82.3838 271.473C82.2783 271.977 82.2256 272.589 82.2256 273.31V275.797C82.2256 276.371 82.2578 276.878 82.3223 277.317C82.3926 277.757 82.4951 278.138 82.6299 278.46C82.7646 278.776 82.9287 279.037 83.1221 279.242C83.3154 279.447 83.5381 279.6 83.79 279.699C84.0479 279.793 84.332 279.84 84.6426 279.84C85.041 279.84 85.3896 279.764 85.6885 279.611C85.9873 279.459 86.2363 279.222 86.4355 278.899C86.6406 278.571 86.793 278.152 86.8926 277.643C86.9922 277.127 87.042 276.512 87.042 275.797ZM98.8369 277.537C98.8369 278.316 98.6553 278.979 98.292 279.523C97.9346 280.062 97.4482 280.473 96.833 280.754C96.2236 281.035 95.5352 281.176 94.7676 281.176C94 281.176 93.3086 281.035 92.6934 280.754C92.0781 280.473 91.5918 280.062 91.2344 279.523C90.877 278.979 90.6982 278.316 90.6982 277.537C90.6982 277.027 90.7949 276.562 90.9883 276.14C91.1875 275.712 91.4658 275.34 91.8232 275.023C92.1865 274.707 92.6143 274.464 93.1064 274.294C93.6045 274.118 94.1523 274.03 94.75 274.03C95.5352 274.03 96.2354 274.183 96.8506 274.487C97.4658 274.786 97.9492 275.199 98.3008 275.727C98.6582 276.254 98.8369 276.857 98.8369 277.537ZM97.2021 277.502C97.2021 277.027 97.0996 276.608 96.8945 276.245C96.6895 275.876 96.4023 275.589 96.0332 275.384C95.6641 275.179 95.2363 275.076 94.75 275.076C94.252 275.076 93.8213 275.179 93.458 275.384C93.1006 275.589 92.8223 275.876 92.623 276.245C92.4238 276.608 92.3242 277.027 92.3242 277.502C92.3242 277.994 92.4209 278.416 92.6143 278.768C92.8135 279.113 93.0947 279.38 93.458 279.567C93.8271 279.749 94.2637 279.84 94.7676 279.84C95.2715 279.84 95.7051 279.749 96.0684 279.567C96.4316 279.38 96.71 279.113 96.9033 278.768C97.1025 278.416 97.2021 277.994 97.2021 277.502ZM98.5381 271.534C98.5381 272.155 98.374 272.715 98.0459 273.213C97.7178 273.711 97.2695 274.104 96.7012 274.391C96.1328 274.678 95.4883 274.821 94.7676 274.821C94.0352 274.821 93.3818 274.678 92.8076 274.391C92.2393 274.104 91.7939 273.711 91.4717 273.213C91.1494 272.715 90.9883 272.155 90.9883 271.534C90.9883 270.79 91.1494 270.157 91.4717 269.636C91.7998 269.114 92.248 268.716 92.8164 268.44C93.3848 268.165 94.0322 268.027 94.7588 268.027C95.4912 268.027 96.1416 268.165 96.71 268.44C97.2783 268.716 97.7236 269.114 98.0459 269.636C98.374 270.157 98.5381 270.79 98.5381 271.534ZM96.9121 271.561C96.9121 271.133 96.8213 270.755 96.6396 270.427C96.458 270.099 96.2061 269.841 95.8838 269.653C95.5615 269.46 95.1865 269.363 94.7588 269.363C94.3311 269.363 93.9561 269.454 93.6338 269.636C93.3174 269.812 93.0684 270.063 92.8867 270.392C92.7109 270.72 92.623 271.109 92.623 271.561C92.623 272 92.7109 272.384 92.8867 272.712C93.0684 273.04 93.3203 273.295 93.6426 273.477C93.9648 273.658 94.3398 273.749 94.7676 273.749C95.1953 273.749 95.5674 273.658 95.8838 273.477C96.2061 273.295 96.458 273.04 96.6396 272.712C96.8213 272.384 96.9121 272 96.9121 271.561ZM108.927 273.582V275.533C108.927 276.582 108.833 277.467 108.646 278.188C108.458 278.908 108.188 279.488 107.837 279.928C107.485 280.367 107.061 280.687 106.562 280.886C106.07 281.079 105.514 281.176 104.893 281.176C104.4 281.176 103.946 281.114 103.53 280.991C103.114 280.868 102.739 280.672 102.405 280.402C102.077 280.127 101.796 279.77 101.562 279.33C101.327 278.891 101.148 278.357 101.025 277.73C100.902 277.104 100.841 276.371 100.841 275.533V273.582C100.841 272.533 100.935 271.654 101.122 270.945C101.315 270.236 101.588 269.668 101.939 269.24C102.291 268.807 102.713 268.496 103.205 268.309C103.703 268.121 104.26 268.027 104.875 268.027C105.373 268.027 105.83 268.089 106.246 268.212C106.668 268.329 107.043 268.52 107.371 268.783C107.699 269.041 107.978 269.387 108.206 269.82C108.44 270.248 108.619 270.772 108.742 271.394C108.865 272.015 108.927 272.744 108.927 273.582ZM107.292 275.797V273.31C107.292 272.735 107.257 272.231 107.187 271.798C107.122 271.358 107.025 270.983 106.896 270.673C106.768 270.362 106.604 270.11 106.404 269.917C106.211 269.724 105.985 269.583 105.728 269.495C105.476 269.401 105.191 269.354 104.875 269.354C104.488 269.354 104.146 269.428 103.847 269.574C103.548 269.715 103.296 269.94 103.091 270.251C102.892 270.562 102.739 270.969 102.634 271.473C102.528 271.977 102.476 272.589 102.476 273.31V275.797C102.476 276.371 102.508 276.878 102.572 277.317C102.643 277.757 102.745 278.138 102.88 278.46C103.015 278.776 103.179 279.037 103.372 279.242C103.565 279.447 103.788 279.6 104.04 279.699C104.298 279.793 104.582 279.84 104.893 279.84C105.291 279.84 105.64 279.764 105.938 279.611C106.237 279.459 106.486 279.222 106.686 278.899C106.891 278.571 107.043 278.152 107.143 277.643C107.242 277.127 107.292 276.512 107.292 275.797ZM113.392 273.802H114.552C115.12 273.802 115.589 273.708 115.958 273.521C116.333 273.327 116.611 273.066 116.793 272.738C116.98 272.404 117.074 272.029 117.074 271.613C117.074 271.121 116.992 270.708 116.828 270.374C116.664 270.04 116.418 269.788 116.09 269.618C115.762 269.448 115.346 269.363 114.842 269.363C114.385 269.363 113.98 269.454 113.629 269.636C113.283 269.812 113.011 270.063 112.812 270.392C112.618 270.72 112.521 271.106 112.521 271.552H110.896C110.896 270.901 111.06 270.31 111.388 269.776C111.716 269.243 112.176 268.818 112.768 268.502C113.365 268.186 114.057 268.027 114.842 268.027C115.615 268.027 116.292 268.165 116.872 268.44C117.452 268.71 117.903 269.114 118.226 269.653C118.548 270.187 118.709 270.852 118.709 271.648C118.709 271.971 118.633 272.316 118.48 272.686C118.334 273.049 118.103 273.389 117.786 273.705C117.476 274.021 117.071 274.282 116.573 274.487C116.075 274.687 115.478 274.786 114.78 274.786H113.392V273.802ZM113.392 275.138V274.162H114.78C115.595 274.162 116.269 274.259 116.802 274.452C117.335 274.646 117.754 274.903 118.059 275.226C118.369 275.548 118.586 275.902 118.709 276.289C118.838 276.67 118.902 277.051 118.902 277.432C118.902 278.029 118.8 278.56 118.595 279.022C118.396 279.485 118.111 279.878 117.742 280.2C117.379 280.522 116.951 280.766 116.459 280.93C115.967 281.094 115.431 281.176 114.851 281.176C114.294 281.176 113.77 281.097 113.277 280.938C112.791 280.78 112.36 280.552 111.985 280.253C111.61 279.948 111.317 279.576 111.106 279.137C110.896 278.691 110.79 278.185 110.79 277.616H112.416C112.416 278.062 112.513 278.451 112.706 278.785C112.905 279.119 113.187 279.38 113.55 279.567C113.919 279.749 114.353 279.84 114.851 279.84C115.349 279.84 115.776 279.755 116.134 279.585C116.497 279.409 116.775 279.146 116.969 278.794C117.168 278.442 117.268 278 117.268 277.467C117.268 276.934 117.156 276.497 116.934 276.157C116.711 275.812 116.395 275.557 115.984 275.393C115.58 275.223 115.103 275.138 114.552 275.138H113.392ZM123.517 273.802H124.677C125.245 273.802 125.714 273.708 126.083 273.521C126.458 273.327 126.736 273.066 126.918 272.738C127.105 272.404 127.199 272.029 127.199 271.613C127.199 271.121 127.117 270.708 126.953 270.374C126.789 270.04 126.543 269.788 126.215 269.618C125.887 269.448 125.471 269.363 124.967 269.363C124.51 269.363 124.105 269.454 123.754 269.636C123.408 269.812 123.136 270.063 122.937 270.392C122.743 270.72 122.646 271.106 122.646 271.552H121.021C121.021 270.901 121.185 270.31 121.513 269.776C121.841 269.243 122.301 268.818 122.893 268.502C123.49 268.186 124.182 268.027 124.967 268.027C125.74 268.027 126.417 268.165 126.997 268.44C127.577 268.71 128.028 269.114 128.351 269.653C128.673 270.187 128.834 270.852 128.834 271.648C128.834 271.971 128.758 272.316 128.605 272.686C128.459 273.049 128.228 273.389 127.911 273.705C127.601 274.021 127.196 274.282 126.698 274.487C126.2 274.687 125.603 274.786 124.905 274.786H123.517V273.802ZM123.517 275.138V274.162H124.905C125.72 274.162 126.394 274.259 126.927 274.452C127.46 274.646 127.879 274.903 128.184 275.226C128.494 275.548 128.711 275.902 128.834 276.289C128.963 276.67 129.027 277.051 129.027 277.432C129.027 278.029 128.925 278.56 128.72 279.022C128.521 279.485 128.236 279.878 127.867 280.2C127.504 280.522 127.076 280.766 126.584 280.93C126.092 281.094 125.556 281.176 124.976 281.176C124.419 281.176 123.895 281.097 123.402 280.938C122.916 280.78 122.485 280.552 122.11 280.253C121.735 279.948 121.442 279.576 121.231 279.137C121.021 278.691 120.915 278.185 120.915 277.616H122.541C122.541 278.062 122.638 278.451 122.831 278.785C123.03 279.119 123.312 279.38 123.675 279.567C124.044 279.749 124.478 279.84 124.976 279.84C125.474 279.84 125.901 279.755 126.259 279.585C126.622 279.409 126.9 279.146 127.094 278.794C127.293 278.442 127.393 278 127.393 277.467C127.393 276.934 127.281 276.497 127.059 276.157C126.836 275.812 126.52 275.557 126.109 275.393C125.705 275.223 125.228 275.138 124.677 275.138H123.517ZM136.612 268.133V281H134.986V270.163L131.708 271.358V269.891L136.357 268.133H136.612ZM149.462 277.537C149.462 278.316 149.28 278.979 148.917 279.523C148.56 280.062 148.073 280.473 147.458 280.754C146.849 281.035 146.16 281.176 145.393 281.176C144.625 281.176 143.934 281.035 143.318 280.754C142.703 280.473 142.217 280.062 141.859 279.523C141.502 278.979 141.323 278.316 141.323 277.537C141.323 277.027 141.42 276.562 141.613 276.14C141.812 275.712 142.091 275.34 142.448 275.023C142.812 274.707 143.239 274.464 143.731 274.294C144.229 274.118 144.777 274.03 145.375 274.03C146.16 274.03 146.86 274.183 147.476 274.487C148.091 274.786 148.574 275.199 148.926 275.727C149.283 276.254 149.462 276.857 149.462 277.537ZM147.827 277.502C147.827 277.027 147.725 276.608 147.52 276.245C147.314 275.876 147.027 275.589 146.658 275.384C146.289 275.179 145.861 275.076 145.375 275.076C144.877 275.076 144.446 275.179 144.083 275.384C143.726 275.589 143.447 275.876 143.248 276.245C143.049 276.608 142.949 277.027 142.949 277.502C142.949 277.994 143.046 278.416 143.239 278.768C143.438 279.113 143.72 279.38 144.083 279.567C144.452 279.749 144.889 279.84 145.393 279.84C145.896 279.84 146.33 279.749 146.693 279.567C147.057 279.38 147.335 279.113 147.528 278.768C147.728 278.416 147.827 277.994 147.827 277.502ZM149.163 271.534C149.163 272.155 148.999 272.715 148.671 273.213C148.343 273.711 147.895 274.104 147.326 274.391C146.758 274.678 146.113 274.821 145.393 274.821C144.66 274.821 144.007 274.678 143.433 274.391C142.864 274.104 142.419 273.711 142.097 273.213C141.774 272.715 141.613 272.155 141.613 271.534C141.613 270.79 141.774 270.157 142.097 269.636C142.425 269.114 142.873 268.716 143.441 268.44C144.01 268.165 144.657 268.027 145.384 268.027C146.116 268.027 146.767 268.165 147.335 268.44C147.903 268.716 148.349 269.114 148.671 269.636C148.999 270.157 149.163 270.79 149.163 271.534ZM147.537 271.561C147.537 271.133 147.446 270.755 147.265 270.427C147.083 270.099 146.831 269.841 146.509 269.653C146.187 269.46 145.812 269.363 145.384 269.363C144.956 269.363 144.581 269.454 144.259 269.636C143.942 269.812 143.693 270.063 143.512 270.392C143.336 270.72 143.248 271.109 143.248 271.561C143.248 272 143.336 272.384 143.512 272.712C143.693 273.04 143.945 273.295 144.268 273.477C144.59 273.658 144.965 273.749 145.393 273.749C145.82 273.749 146.192 273.658 146.509 273.477C146.831 273.295 147.083 273.04 147.265 272.712C147.446 272.384 147.537 272 147.537 271.561ZM153.892 273.802H155.052C155.62 273.802 156.089 273.708 156.458 273.521C156.833 273.327 157.111 273.066 157.293 272.738C157.48 272.404 157.574 272.029 157.574 271.613C157.574 271.121 157.492 270.708 157.328 270.374C157.164 270.04 156.918 269.788 156.59 269.618C156.262 269.448 155.846 269.363 155.342 269.363C154.885 269.363 154.48 269.454 154.129 269.636C153.783 269.812 153.511 270.063 153.312 270.392C153.118 270.72 153.021 271.106 153.021 271.552H151.396C151.396 270.901 151.56 270.31 151.888 269.776C152.216 269.243 152.676 268.818 153.268 268.502C153.865 268.186 154.557 268.027 155.342 268.027C156.115 268.027 156.792 268.165 157.372 268.44C157.952 268.71 158.403 269.114 158.726 269.653C159.048 270.187 159.209 270.852 159.209 271.648C159.209 271.971 159.133 272.316 158.98 272.686C158.834 273.049 158.603 273.389 158.286 273.705C157.976 274.021 157.571 274.282 157.073 274.487C156.575 274.687 155.978 274.786 155.28 274.786H153.892V273.802ZM153.892 275.138V274.162H155.28C156.095 274.162 156.769 274.259 157.302 274.452C157.835 274.646 158.254 274.903 158.559 275.226C158.869 275.548 159.086 275.902 159.209 276.289C159.338 276.67 159.402 277.051 159.402 277.432C159.402 278.029 159.3 278.56 159.095 279.022C158.896 279.485 158.611 279.878 158.242 280.2C157.879 280.522 157.451 280.766 156.959 280.93C156.467 281.094 155.931 281.176 155.351 281.176C154.794 281.176 154.27 281.097 153.777 280.938C153.291 280.78 152.86 280.552 152.485 280.253C152.11 279.948 151.817 279.576 151.606 279.137C151.396 278.691 151.29 278.185 151.29 277.616H152.916C152.916 278.062 153.013 278.451 153.206 278.785C153.405 279.119 153.687 279.38 154.05 279.567C154.419 279.749 154.853 279.84 155.351 279.84C155.849 279.84 156.276 279.755 156.634 279.585C156.997 279.409 157.275 279.146 157.469 278.794C157.668 278.442 157.768 278 157.768 277.467C157.768 276.934 157.656 276.497 157.434 276.157C157.211 275.812 156.895 275.557 156.484 275.393C156.08 275.223 155.603 275.138 155.052 275.138H153.892ZM170.292 276.693V278.029H161.046V277.071L166.776 268.203H168.104L166.68 270.77L162.892 276.693H170.292ZM168.508 268.203V281H166.882V268.203H168.508ZM180.039 268.203V269.117L174.739 281H173.025L178.316 269.539H171.391V268.203H180.039ZM190.164 268.203V269.117L184.864 281H183.15L188.441 269.539H181.516V268.203H190.164Z" fill="black"/>
<circle cx="138" cy="95" r="95" fill="white"/>
<path d="M109.182 130V121.882H115.655L123.644 95.1956C124.184 93.4368 125.179 92.0324 126.63 90.9825C128.081 89.9326 129.681 89.4091 131.432 89.4118H143.568C145.321 89.4118 146.923 89.9367 148.374 90.9866C149.825 92.0365 150.819 93.4395 151.356 95.1956L159.345 121.882H165.818V130H109.182ZM133.455 81.2941V61H141.545V81.2941H133.455ZM157.525 91.3397L151.76 85.5559L166.122 71.2485L171.785 76.9309L157.525 91.3397ZM161.773 109.706V101.588H182V109.706H161.773ZM117.475 91.3397L103.215 76.9309L108.878 71.2485L123.24 85.5559L117.475 91.3397ZM93 109.706V101.588H113.227V109.706H93Z" fill="#FF0000"/>
</svg>
