<svg width="285" height="365" viewBox="0 0 285 365" fill="none" xmlns="http://www.w3.org/2000/svg">
<g filter="url(#filter0_d_38_2598)">
<rect x="4.5" y="95" width="276" height="262" rx="8" fill="white"/>
<path d="M45.8896 204.203H50.6621C51.6406 204.203 52.4814 204.35 53.1846 204.643C53.8936 204.936 54.4385 205.369 54.8193 205.943C55.2002 206.518 55.3906 207.224 55.3906 208.062C55.3906 208.747 55.2734 209.336 55.0391 209.828C54.8105 210.314 54.4854 210.722 54.0635 211.05C53.6475 211.372 53.1582 211.63 52.5957 211.823L51.7607 212.263H47.6123L47.5947 210.206H50.6797C51.1426 210.206 51.5264 210.124 51.8311 209.96C52.1357 209.796 52.3643 209.567 52.5166 209.274C52.6748 208.981 52.7539 208.642 52.7539 208.255C52.7539 207.845 52.6777 207.49 52.5254 207.191C52.373 206.893 52.1416 206.664 51.8311 206.506C51.5205 206.348 51.1309 206.269 50.6621 206.269H48.5264V217H45.8896V204.203ZM53.0439 217L50.126 211.296L52.9121 211.278L55.8652 216.877V217H53.0439ZM61.6396 217.176C60.9014 217.176 60.2393 217.059 59.6533 216.824C59.0674 216.584 58.5693 216.253 58.1592 215.831C57.7549 215.409 57.4443 214.92 57.2275 214.363C57.0107 213.801 56.9023 213.203 56.9023 212.57V212.219C56.9023 211.498 57.0049 210.839 57.21 210.241C57.415 209.644 57.708 209.125 58.0889 208.686C58.4756 208.246 58.9443 207.909 59.4951 207.675C60.0459 207.435 60.667 207.314 61.3584 207.314C62.0322 207.314 62.6299 207.426 63.1514 207.648C63.6729 207.871 64.1094 208.188 64.4609 208.598C64.8184 209.008 65.0879 209.5 65.2695 210.074C65.4512 210.643 65.542 211.275 65.542 211.973V213.027H57.9834V211.34H63.0547V211.146C63.0547 210.795 62.9902 210.481 62.8613 210.206C62.7383 209.925 62.5508 209.702 62.2988 209.538C62.0469 209.374 61.7246 209.292 61.332 209.292C60.998 209.292 60.7109 209.365 60.4707 209.512C60.2305 209.658 60.0342 209.863 59.8818 210.127C59.7354 210.391 59.624 210.701 59.5479 211.059C59.4775 211.41 59.4424 211.797 59.4424 212.219V212.57C59.4424 212.951 59.4951 213.303 59.6006 213.625C59.7119 213.947 59.8672 214.226 60.0664 214.46C60.2715 214.694 60.5176 214.876 60.8047 215.005C61.0977 215.134 61.4287 215.198 61.7979 215.198C62.2549 215.198 62.6797 215.11 63.0723 214.935C63.4707 214.753 63.8135 214.48 64.1006 214.117L65.3311 215.453C65.1318 215.74 64.8594 216.016 64.5137 216.279C64.1738 216.543 63.7637 216.76 63.2832 216.93C62.8027 217.094 62.2549 217.176 61.6396 217.176ZM70.209 217H67.6602V206.646C67.6602 205.926 67.8008 205.319 68.082 204.827C68.3691 204.329 68.7705 203.954 69.2861 203.702C69.8076 203.444 70.4258 203.315 71.1406 203.315C71.375 203.315 71.6006 203.333 71.8174 203.368C72.0342 203.397 72.2451 203.436 72.4502 203.482L72.4238 205.39C72.3125 205.36 72.1953 205.34 72.0723 205.328C71.9492 205.316 71.8057 205.311 71.6416 205.311C71.3369 205.311 71.0762 205.363 70.8594 205.469C70.6484 205.568 70.4873 205.718 70.376 205.917C70.2646 206.116 70.209 206.359 70.209 206.646V217ZM72.1074 207.49V209.283H66.2451V207.49H72.1074ZM79.0596 214.724V207.49H81.5908V217H79.209L79.0596 214.724ZM79.3408 212.772L80.0879 212.755C80.0879 213.388 80.0146 213.977 79.8682 214.521C79.7217 215.061 79.502 215.529 79.209 215.928C78.916 216.32 78.5469 216.628 78.1016 216.851C77.6562 217.067 77.1318 217.176 76.5283 217.176C76.0654 217.176 75.6377 217.111 75.2451 216.982C74.8584 216.848 74.5244 216.64 74.2432 216.358C73.9678 216.071 73.751 215.705 73.5928 215.26C73.4404 214.809 73.3643 214.267 73.3643 213.634V207.49H75.8955V213.651C75.8955 213.933 75.9277 214.17 75.9922 214.363C76.0625 214.557 76.1592 214.715 76.2822 214.838C76.4053 214.961 76.5488 215.049 76.7129 215.102C76.8828 215.154 77.0703 215.181 77.2754 215.181C77.7969 215.181 78.207 215.075 78.5059 214.864C78.8105 214.653 79.0244 214.366 79.1475 214.003C79.2764 213.634 79.3408 213.224 79.3408 212.772ZM88.666 214.372C88.666 214.19 88.6133 214.026 88.5078 213.88C88.4023 213.733 88.2061 213.599 87.9189 213.476C87.6377 213.347 87.2305 213.229 86.6973 213.124C86.2168 213.019 85.7686 212.887 85.3525 212.729C84.9424 212.564 84.585 212.368 84.2803 212.14C83.9814 211.911 83.7471 211.642 83.5771 211.331C83.4072 211.015 83.3223 210.654 83.3223 210.25C83.3223 209.852 83.4072 209.477 83.5771 209.125C83.7529 208.773 84.002 208.463 84.3242 208.193C84.6523 207.918 85.0508 207.704 85.5195 207.552C85.9941 207.394 86.5273 207.314 87.1191 207.314C87.9453 207.314 88.6543 207.446 89.2461 207.71C89.8438 207.974 90.3008 208.337 90.6172 208.8C90.9395 209.257 91.1006 209.778 91.1006 210.364H88.5693C88.5693 210.118 88.5166 209.898 88.4111 209.705C88.3115 209.506 88.1533 209.351 87.9365 209.239C87.7256 209.122 87.4502 209.063 87.1104 209.063C86.8291 209.063 86.5859 209.113 86.3809 209.213C86.1758 209.307 86.0176 209.436 85.9062 209.6C85.8008 209.758 85.748 209.934 85.748 210.127C85.748 210.273 85.7773 210.405 85.8359 210.522C85.9004 210.634 86.0029 210.736 86.1436 210.83C86.2842 210.924 86.4658 211.012 86.6885 211.094C86.917 211.17 87.1982 211.24 87.5322 211.305C88.2178 211.445 88.8301 211.63 89.3691 211.858C89.9082 212.081 90.3359 212.386 90.6523 212.772C90.9688 213.153 91.127 213.654 91.127 214.275C91.127 214.697 91.0332 215.084 90.8457 215.436C90.6582 215.787 90.3887 216.095 90.0371 216.358C89.6855 216.616 89.2637 216.818 88.7715 216.965C88.2852 217.105 87.7373 217.176 87.1279 217.176C86.2432 217.176 85.4932 217.018 84.8779 216.701C84.2686 216.385 83.8057 215.983 83.4893 215.497C83.1787 215.005 83.0234 214.501 83.0234 213.985H85.4229C85.4346 214.331 85.5225 214.609 85.6865 214.82C85.8564 215.031 86.0703 215.184 86.3281 215.277C86.5918 215.371 86.876 215.418 87.1807 215.418C87.5088 215.418 87.7812 215.374 87.998 215.286C88.2148 215.192 88.3789 215.069 88.4902 214.917C88.6074 214.759 88.666 214.577 88.666 214.372ZM97.1475 217.176C96.4092 217.176 95.7471 217.059 95.1611 216.824C94.5752 216.584 94.0771 216.253 93.667 215.831C93.2627 215.409 92.9521 214.92 92.7354 214.363C92.5186 213.801 92.4102 213.203 92.4102 212.57V212.219C92.4102 211.498 92.5127 210.839 92.7178 210.241C92.9229 209.644 93.2158 209.125 93.5967 208.686C93.9834 208.246 94.4521 207.909 95.0029 207.675C95.5537 207.435 96.1748 207.314 96.8662 207.314C97.54 207.314 98.1377 207.426 98.6592 207.648C99.1807 207.871 99.6172 208.188 99.9688 208.598C100.326 209.008 100.596 209.5 100.777 210.074C100.959 210.643 101.05 211.275 101.05 211.973V213.027H93.4912V211.34H98.5625V211.146C98.5625 210.795 98.498 210.481 98.3691 210.206C98.2461 209.925 98.0586 209.702 97.8066 209.538C97.5547 209.374 97.2324 209.292 96.8398 209.292C96.5059 209.292 96.2188 209.365 95.9785 209.512C95.7383 209.658 95.542 209.863 95.3896 210.127C95.2432 210.391 95.1318 210.701 95.0557 211.059C94.9854 211.41 94.9502 211.797 94.9502 212.219V212.57C94.9502 212.951 95.0029 213.303 95.1084 213.625C95.2197 213.947 95.375 214.226 95.5742 214.46C95.7793 214.694 96.0254 214.876 96.3125 215.005C96.6055 215.134 96.9365 215.198 97.3057 215.198C97.7627 215.198 98.1875 215.11 98.5801 214.935C98.9785 214.753 99.3213 214.48 99.6084 214.117L100.839 215.453C100.64 215.74 100.367 216.016 100.021 216.279C99.6816 216.543 99.2715 216.76 98.791 216.93C98.3105 217.094 97.7627 217.176 97.1475 217.176ZM109.936 204.203V217H107.308V204.203H109.936ZM117.389 214.372C117.389 214.19 117.336 214.026 117.23 213.88C117.125 213.733 116.929 213.599 116.642 213.476C116.36 213.347 115.953 213.229 115.42 213.124C114.939 213.019 114.491 212.887 114.075 212.729C113.665 212.564 113.308 212.368 113.003 212.14C112.704 211.911 112.47 211.642 112.3 211.331C112.13 211.015 112.045 210.654 112.045 210.25C112.045 209.852 112.13 209.477 112.3 209.125C112.476 208.773 112.725 208.463 113.047 208.193C113.375 207.918 113.773 207.704 114.242 207.552C114.717 207.394 115.25 207.314 115.842 207.314C116.668 207.314 117.377 207.446 117.969 207.71C118.566 207.974 119.023 208.337 119.34 208.8C119.662 209.257 119.823 209.778 119.823 210.364H117.292C117.292 210.118 117.239 209.898 117.134 209.705C117.034 209.506 116.876 209.351 116.659 209.239C116.448 209.122 116.173 209.063 115.833 209.063C115.552 209.063 115.309 209.113 115.104 209.213C114.898 209.307 114.74 209.436 114.629 209.6C114.523 209.758 114.471 209.934 114.471 210.127C114.471 210.273 114.5 210.405 114.559 210.522C114.623 210.634 114.726 210.736 114.866 210.83C115.007 210.924 115.188 211.012 115.411 211.094C115.64 211.17 115.921 211.24 116.255 211.305C116.94 211.445 117.553 211.63 118.092 211.858C118.631 212.081 119.059 212.386 119.375 212.772C119.691 213.153 119.85 213.654 119.85 214.275C119.85 214.697 119.756 215.084 119.568 215.436C119.381 215.787 119.111 216.095 118.76 216.358C118.408 216.616 117.986 216.818 117.494 216.965C117.008 217.105 116.46 217.176 115.851 217.176C114.966 217.176 114.216 217.018 113.601 216.701C112.991 216.385 112.528 215.983 112.212 215.497C111.901 215.005 111.746 214.501 111.746 213.985H114.146C114.157 214.331 114.245 214.609 114.409 214.82C114.579 215.031 114.793 215.184 115.051 215.277C115.314 215.371 115.599 215.418 115.903 215.418C116.231 215.418 116.504 215.374 116.721 215.286C116.938 215.192 117.102 215.069 117.213 214.917C117.33 214.759 117.389 214.577 117.389 214.372ZM126.635 214.372C126.635 214.19 126.582 214.026 126.477 213.88C126.371 213.733 126.175 213.599 125.888 213.476C125.606 213.347 125.199 213.229 124.666 213.124C124.186 213.019 123.737 212.887 123.321 212.729C122.911 212.564 122.554 212.368 122.249 212.14C121.95 211.911 121.716 211.642 121.546 211.331C121.376 211.015 121.291 210.654 121.291 210.25C121.291 209.852 121.376 209.477 121.546 209.125C121.722 208.773 121.971 208.463 122.293 208.193C122.621 207.918 123.02 207.704 123.488 207.552C123.963 207.394 124.496 207.314 125.088 207.314C125.914 207.314 126.623 207.446 127.215 207.71C127.812 207.974 128.27 208.337 128.586 208.8C128.908 209.257 129.069 209.778 129.069 210.364H126.538C126.538 210.118 126.485 209.898 126.38 209.705C126.28 209.506 126.122 209.351 125.905 209.239C125.694 209.122 125.419 209.063 125.079 209.063C124.798 209.063 124.555 209.113 124.35 209.213C124.145 209.307 123.986 209.436 123.875 209.6C123.77 209.758 123.717 209.934 123.717 210.127C123.717 210.273 123.746 210.405 123.805 210.522C123.869 210.634 123.972 210.736 124.112 210.83C124.253 210.924 124.435 211.012 124.657 211.094C124.886 211.17 125.167 211.24 125.501 211.305C126.187 211.445 126.799 211.63 127.338 211.858C127.877 212.081 128.305 212.386 128.621 212.772C128.938 213.153 129.096 213.654 129.096 214.275C129.096 214.697 129.002 215.084 128.814 215.436C128.627 215.787 128.357 216.095 128.006 216.358C127.654 216.616 127.232 216.818 126.74 216.965C126.254 217.105 125.706 217.176 125.097 217.176C124.212 217.176 123.462 217.018 122.847 216.701C122.237 216.385 121.774 215.983 121.458 215.497C121.147 215.005 120.992 214.501 120.992 213.985H123.392C123.403 214.331 123.491 214.609 123.655 214.82C123.825 215.031 124.039 215.184 124.297 215.277C124.561 215.371 124.845 215.418 125.149 215.418C125.478 215.418 125.75 215.374 125.967 215.286C126.184 215.192 126.348 215.069 126.459 214.917C126.576 214.759 126.635 214.577 126.635 214.372ZM136.364 214.724V207.49H138.896V217H136.514L136.364 214.724ZM136.646 212.772L137.393 212.755C137.393 213.388 137.319 213.977 137.173 214.521C137.026 215.061 136.807 215.529 136.514 215.928C136.221 216.32 135.852 216.628 135.406 216.851C134.961 217.067 134.437 217.176 133.833 217.176C133.37 217.176 132.942 217.111 132.55 216.982C132.163 216.848 131.829 216.64 131.548 216.358C131.272 216.071 131.056 215.705 130.897 215.26C130.745 214.809 130.669 214.267 130.669 213.634V207.49H133.2V213.651C133.2 213.933 133.232 214.17 133.297 214.363C133.367 214.557 133.464 214.715 133.587 214.838C133.71 214.961 133.854 215.049 134.018 215.102C134.188 215.154 134.375 215.181 134.58 215.181C135.102 215.181 135.512 215.075 135.811 214.864C136.115 214.653 136.329 214.366 136.452 214.003C136.581 213.634 136.646 213.224 136.646 212.772ZM145.206 217.176C144.468 217.176 143.806 217.059 143.22 216.824C142.634 216.584 142.136 216.253 141.726 215.831C141.321 215.409 141.011 214.92 140.794 214.363C140.577 213.801 140.469 213.203 140.469 212.57V212.219C140.469 211.498 140.571 210.839 140.776 210.241C140.981 209.644 141.274 209.125 141.655 208.686C142.042 208.246 142.511 207.909 143.062 207.675C143.612 207.435 144.233 207.314 144.925 207.314C145.599 207.314 146.196 207.426 146.718 207.648C147.239 207.871 147.676 208.188 148.027 208.598C148.385 209.008 148.654 209.5 148.836 210.074C149.018 210.643 149.108 211.275 149.108 211.973V213.027H141.55V211.34H146.621V211.146C146.621 210.795 146.557 210.481 146.428 210.206C146.305 209.925 146.117 209.702 145.865 209.538C145.613 209.374 145.291 209.292 144.898 209.292C144.564 209.292 144.277 209.365 144.037 209.512C143.797 209.658 143.601 209.863 143.448 210.127C143.302 210.391 143.19 210.701 143.114 211.059C143.044 211.41 143.009 211.797 143.009 212.219V212.57C143.009 212.951 143.062 213.303 143.167 213.625C143.278 213.947 143.434 214.226 143.633 214.46C143.838 214.694 144.084 214.876 144.371 215.005C144.664 215.134 144.995 215.198 145.364 215.198C145.821 215.198 146.246 215.11 146.639 214.935C147.037 214.753 147.38 214.48 147.667 214.117L148.897 215.453C148.698 215.74 148.426 216.016 148.08 216.279C147.74 216.543 147.33 216.76 146.85 216.93C146.369 217.094 145.821 217.176 145.206 217.176ZM155.691 214.372C155.691 214.19 155.639 214.026 155.533 213.88C155.428 213.733 155.231 213.599 154.944 213.476C154.663 213.347 154.256 213.229 153.723 213.124C153.242 213.019 152.794 212.887 152.378 212.729C151.968 212.564 151.61 212.368 151.306 212.14C151.007 211.911 150.772 211.642 150.603 211.331C150.433 211.015 150.348 210.654 150.348 210.25C150.348 209.852 150.433 209.477 150.603 209.125C150.778 208.773 151.027 208.463 151.35 208.193C151.678 207.918 152.076 207.704 152.545 207.552C153.02 207.394 153.553 207.314 154.145 207.314C154.971 207.314 155.68 207.446 156.271 207.71C156.869 207.974 157.326 208.337 157.643 208.8C157.965 209.257 158.126 209.778 158.126 210.364H155.595C155.595 210.118 155.542 209.898 155.437 209.705C155.337 209.506 155.179 209.351 154.962 209.239C154.751 209.122 154.476 209.063 154.136 209.063C153.854 209.063 153.611 209.113 153.406 209.213C153.201 209.307 153.043 209.436 152.932 209.6C152.826 209.758 152.773 209.934 152.773 210.127C152.773 210.273 152.803 210.405 152.861 210.522C152.926 210.634 153.028 210.736 153.169 210.83C153.31 210.924 153.491 211.012 153.714 211.094C153.942 211.17 154.224 211.24 154.558 211.305C155.243 211.445 155.855 211.63 156.395 211.858C156.934 212.081 157.361 212.386 157.678 212.772C157.994 213.153 158.152 213.654 158.152 214.275C158.152 214.697 158.059 215.084 157.871 215.436C157.684 215.787 157.414 216.095 157.062 216.358C156.711 216.616 156.289 216.818 155.797 216.965C155.311 217.105 154.763 217.176 154.153 217.176C153.269 217.176 152.519 217.018 151.903 216.701C151.294 216.385 150.831 215.983 150.515 215.497C150.204 215.005 150.049 214.501 150.049 213.985H152.448C152.46 214.331 152.548 214.609 152.712 214.82C152.882 215.031 153.096 215.184 153.354 215.277C153.617 215.371 153.901 215.418 154.206 215.418C154.534 215.418 154.807 215.374 155.023 215.286C155.24 215.192 155.404 215.069 155.516 214.917C155.633 214.759 155.691 214.577 155.691 214.372ZM164.393 211.99V211.797C164.393 210.561 164.521 209.438 164.779 208.431C165.043 207.423 165.389 206.538 165.816 205.776C166.25 205.009 166.722 204.373 167.231 203.869C167.741 203.365 168.248 203.002 168.752 202.779L169.235 204.115C168.901 204.361 168.573 204.701 168.251 205.135C167.929 205.562 167.636 206.09 167.372 206.717C167.114 207.338 166.906 208.07 166.748 208.914C166.59 209.752 166.511 210.707 166.511 211.779V212.008C166.511 213.08 166.59 214.038 166.748 214.882C166.906 215.72 167.114 216.452 167.372 217.079C167.636 217.712 167.929 218.245 168.251 218.679C168.573 219.112 168.901 219.455 169.235 219.707L168.752 221.008C168.248 220.785 167.741 220.422 167.231 219.918C166.722 219.42 166.25 218.787 165.816 218.02C165.389 217.258 165.043 216.373 164.779 215.365C164.521 214.352 164.393 213.227 164.393 211.99ZM178.956 214.943V217H172.514V214.943H178.956ZM173.366 204.203V217H170.729V204.203H173.366ZM185.847 206.392L182.366 217H179.562L184.317 204.203H186.102L185.847 206.392ZM188.738 217L185.249 206.392L184.968 204.203H186.77L191.551 217H188.738ZM188.58 212.236V214.302H181.821V212.236H188.58ZM195.383 214.97L197.932 204.203H199.355L199.681 205.996L196.965 217H195.436L195.383 214.97ZM194.073 204.203L196.183 214.97L196.007 217H194.302L191.463 204.203H194.073ZM201.922 214.926L204.005 204.203H206.615L203.785 217H202.08L201.922 214.926ZM200.155 204.203L202.722 215.014L202.651 217H201.122L198.389 205.987L198.74 204.203H200.155ZM209.252 204.203H211.484L214.771 213.599L218.059 204.203H220.291L215.668 217H213.875L209.252 204.203ZM208.048 204.203H210.271L210.676 213.361V217H208.048V204.203ZM219.271 204.203H221.504V217H218.867V213.361L219.271 204.203ZM229.177 206.392L225.696 217H222.893L227.647 204.203H229.432L229.177 206.392ZM232.068 217L228.579 206.392L228.298 204.203H230.1L234.881 217H232.068ZM231.91 212.236V214.302H225.151V212.236H231.91ZM240.26 211.797V211.99C240.26 213.186 240.125 214.287 239.855 215.295C239.586 216.297 239.229 217.185 238.783 217.958C238.344 218.737 237.86 219.385 237.333 219.9C236.812 220.416 236.29 220.785 235.769 221.008L235.276 219.707C235.61 219.461 235.936 219.121 236.252 218.688C236.574 218.254 236.867 217.721 237.131 217.088C237.395 216.461 237.603 215.726 237.755 214.882C237.913 214.038 237.992 213.08 237.992 212.008V211.779C237.992 210.707 237.913 209.749 237.755 208.905C237.597 208.062 237.383 207.326 237.113 206.699C236.85 206.066 236.557 205.536 236.234 205.108C235.918 204.675 235.599 204.335 235.276 204.089L235.769 202.779C236.29 203.002 236.812 203.374 237.333 203.896C237.86 204.411 238.344 205.056 238.783 205.829C239.229 206.603 239.586 207.493 239.855 208.501C240.125 209.503 240.26 210.602 240.26 211.797ZM82.3818 237.173L80.3604 236.689L81.0898 230.203H88.2793V232.251H83.1729L82.8564 235.09C83.0264 234.99 83.2842 234.885 83.6299 234.773C83.9756 234.656 84.3623 234.598 84.79 234.598C85.4111 234.598 85.9619 234.694 86.4424 234.888C86.9229 235.081 87.3301 235.362 87.6641 235.731C88.0039 236.101 88.2617 236.552 88.4375 237.085C88.6133 237.618 88.7012 238.222 88.7012 238.896C88.7012 239.464 88.6133 240.006 88.4375 240.521C88.2617 241.031 87.9951 241.488 87.6377 241.893C87.2803 242.291 86.832 242.604 86.293 242.833C85.7539 243.062 85.1152 243.176 84.377 243.176C83.8262 243.176 83.293 243.094 82.7773 242.93C82.2676 242.766 81.8076 242.522 81.3975 242.2C80.9932 241.878 80.668 241.488 80.4219 241.031C80.1816 240.568 80.0557 240.041 80.0439 239.449H82.5576C82.5928 239.812 82.6865 240.126 82.8389 240.39C82.9971 240.647 83.2051 240.847 83.4629 240.987C83.7207 241.128 84.0225 241.198 84.3682 241.198C84.6904 241.198 84.9658 241.137 85.1943 241.014C85.4229 240.891 85.6074 240.721 85.748 240.504C85.8887 240.281 85.9912 240.023 86.0557 239.73C86.126 239.432 86.1611 239.109 86.1611 238.764C86.1611 238.418 86.1201 238.104 86.0381 237.823C85.9561 237.542 85.8301 237.299 85.6602 237.094C85.4902 236.889 85.2734 236.73 85.0098 236.619C84.752 236.508 84.4502 236.452 84.1045 236.452C83.6357 236.452 83.2725 236.525 83.0146 236.672C82.7627 236.818 82.5518 236.985 82.3818 237.173ZM92.7178 237.173L90.6963 236.689L91.4258 230.203H98.6152V232.251H93.5088L93.1924 235.09C93.3623 234.99 93.6201 234.885 93.9658 234.773C94.3115 234.656 94.6982 234.598 95.126 234.598C95.7471 234.598 96.2979 234.694 96.7783 234.888C97.2588 235.081 97.666 235.362 98 235.731C98.3398 236.101 98.5977 236.552 98.7734 237.085C98.9492 237.618 99.0371 238.222 99.0371 238.896C99.0371 239.464 98.9492 240.006 98.7734 240.521C98.5977 241.031 98.3311 241.488 97.9736 241.893C97.6162 242.291 97.168 242.604 96.6289 242.833C96.0898 243.062 95.4512 243.176 94.7129 243.176C94.1621 243.176 93.6289 243.094 93.1133 242.93C92.6035 242.766 92.1436 242.522 91.7334 242.2C91.3291 241.878 91.0039 241.488 90.7578 241.031C90.5176 240.568 90.3916 240.041 90.3799 239.449H92.8936C92.9287 239.812 93.0225 240.126 93.1748 240.39C93.333 240.647 93.541 240.847 93.7988 240.987C94.0566 241.128 94.3584 241.198 94.7041 241.198C95.0264 241.198 95.3018 241.137 95.5303 241.014C95.7588 240.891 95.9434 240.721 96.084 240.504C96.2246 240.281 96.3271 240.023 96.3916 239.73C96.4619 239.432 96.4971 239.109 96.4971 238.764C96.4971 238.418 96.4561 238.104 96.374 237.823C96.292 237.542 96.166 237.299 95.9961 237.094C95.8262 236.889 95.6094 236.73 95.3457 236.619C95.0879 236.508 94.7861 236.452 94.4404 236.452C93.9717 236.452 93.6084 236.525 93.3506 236.672C93.0986 236.818 92.8877 236.985 92.7178 237.173ZM109.364 230.203V231.565L104.416 243H101.744L106.692 232.181H100.32V230.203H109.364ZM119.7 230.203V231.565L114.752 243H112.08L117.028 232.181H110.656V230.203H119.7ZM126.046 237.99V237.797C126.046 236.561 126.175 235.438 126.433 234.431C126.696 233.423 127.042 232.538 127.47 231.776C127.903 231.009 128.375 230.373 128.885 229.869C129.395 229.365 129.901 229.002 130.405 228.779L130.889 230.115C130.555 230.361 130.227 230.701 129.904 231.135C129.582 231.562 129.289 232.09 129.025 232.717C128.768 233.338 128.56 234.07 128.401 234.914C128.243 235.752 128.164 236.707 128.164 237.779V238.008C128.164 239.08 128.243 240.038 128.401 240.882C128.56 241.72 128.768 242.452 129.025 243.079C129.289 243.712 129.582 244.245 129.904 244.679C130.227 245.112 130.555 245.455 130.889 245.707L130.405 247.008C129.901 246.785 129.395 246.422 128.885 245.918C128.375 245.42 127.903 244.787 127.47 244.02C127.042 243.258 126.696 242.373 126.433 241.365C126.175 240.352 126.046 239.227 126.046 237.99ZM138.104 230.203V243H135.477V230.203H138.104ZM142.042 230.203V232.269H131.601V230.203H142.042ZM141.453 238.342V238.157C141.453 237.46 141.553 236.818 141.752 236.232C141.951 235.641 142.241 235.128 142.622 234.694C143.003 234.261 143.472 233.924 144.028 233.684C144.585 233.438 145.224 233.314 145.944 233.314C146.665 233.314 147.307 233.438 147.869 233.684C148.432 233.924 148.903 234.261 149.284 234.694C149.671 235.128 149.964 235.641 150.163 236.232C150.362 236.818 150.462 237.46 150.462 238.157V238.342C150.462 239.033 150.362 239.675 150.163 240.267C149.964 240.853 149.671 241.365 149.284 241.805C148.903 242.238 148.435 242.575 147.878 242.815C147.321 243.056 146.683 243.176 145.962 243.176C145.241 243.176 144.6 243.056 144.037 242.815C143.48 242.575 143.009 242.238 142.622 241.805C142.241 241.365 141.951 240.853 141.752 240.267C141.553 239.675 141.453 239.033 141.453 238.342ZM143.984 238.157V238.342C143.984 238.74 144.02 239.112 144.09 239.458C144.16 239.804 144.271 240.108 144.424 240.372C144.582 240.63 144.787 240.832 145.039 240.979C145.291 241.125 145.599 241.198 145.962 241.198C146.313 241.198 146.615 241.125 146.867 240.979C147.119 240.832 147.321 240.63 147.474 240.372C147.626 240.108 147.737 239.804 147.808 239.458C147.884 239.112 147.922 238.74 147.922 238.342V238.157C147.922 237.771 147.884 237.407 147.808 237.067C147.737 236.722 147.623 236.417 147.465 236.153C147.312 235.884 147.11 235.673 146.858 235.521C146.606 235.368 146.302 235.292 145.944 235.292C145.587 235.292 145.282 235.368 145.03 235.521C144.784 235.673 144.582 235.884 144.424 236.153C144.271 236.417 144.16 236.722 144.09 237.067C144.02 237.407 143.984 237.771 143.984 238.157ZM154.689 229.5V243H152.149V229.5H154.689ZM159.453 229.5V243H156.913V229.5H159.453ZM168.822 230.203V243H166.186V230.203H168.822ZM173.92 235.67V237.727H168.102V235.67H173.92ZM174.535 230.203V232.269H168.102V230.203H174.535ZM178.209 235.564V243H175.678V233.49H178.06L178.209 235.564ZM181.074 233.429L181.03 235.775C180.907 235.758 180.758 235.743 180.582 235.731C180.412 235.714 180.257 235.705 180.116 235.705C179.759 235.705 179.448 235.752 179.185 235.846C178.927 235.934 178.71 236.065 178.534 236.241C178.364 236.417 178.235 236.631 178.147 236.883C178.065 237.135 178.019 237.422 178.007 237.744L177.497 237.586C177.497 236.971 177.559 236.405 177.682 235.89C177.805 235.368 177.983 234.914 178.218 234.527C178.458 234.141 178.751 233.842 179.097 233.631C179.442 233.42 179.838 233.314 180.283 233.314C180.424 233.314 180.567 233.326 180.714 233.35C180.86 233.367 180.98 233.394 181.074 233.429ZM186.471 243.176C185.732 243.176 185.07 243.059 184.484 242.824C183.898 242.584 183.4 242.253 182.99 241.831C182.586 241.409 182.275 240.92 182.059 240.363C181.842 239.801 181.733 239.203 181.733 238.57V238.219C181.733 237.498 181.836 236.839 182.041 236.241C182.246 235.644 182.539 235.125 182.92 234.686C183.307 234.246 183.775 233.909 184.326 233.675C184.877 233.435 185.498 233.314 186.189 233.314C186.863 233.314 187.461 233.426 187.982 233.648C188.504 233.871 188.94 234.188 189.292 234.598C189.649 235.008 189.919 235.5 190.101 236.074C190.282 236.643 190.373 237.275 190.373 237.973V239.027H182.814V237.34H187.886V237.146C187.886 236.795 187.821 236.481 187.692 236.206C187.569 235.925 187.382 235.702 187.13 235.538C186.878 235.374 186.556 235.292 186.163 235.292C185.829 235.292 185.542 235.365 185.302 235.512C185.062 235.658 184.865 235.863 184.713 236.127C184.566 236.391 184.455 236.701 184.379 237.059C184.309 237.41 184.273 237.797 184.273 238.219V238.57C184.273 238.951 184.326 239.303 184.432 239.625C184.543 239.947 184.698 240.226 184.897 240.46C185.103 240.694 185.349 240.876 185.636 241.005C185.929 241.134 186.26 241.198 186.629 241.198C187.086 241.198 187.511 241.11 187.903 240.935C188.302 240.753 188.645 240.48 188.932 240.117L190.162 241.453C189.963 241.74 189.69 242.016 189.345 242.279C189.005 242.543 188.595 242.76 188.114 242.93C187.634 243.094 187.086 243.176 186.471 243.176ZM196.191 243.176C195.453 243.176 194.791 243.059 194.205 242.824C193.619 242.584 193.121 242.253 192.711 241.831C192.307 241.409 191.996 240.92 191.779 240.363C191.562 239.801 191.454 239.203 191.454 238.57V238.219C191.454 237.498 191.557 236.839 191.762 236.241C191.967 235.644 192.26 235.125 192.641 234.686C193.027 234.246 193.496 233.909 194.047 233.675C194.598 233.435 195.219 233.314 195.91 233.314C196.584 233.314 197.182 233.426 197.703 233.648C198.225 233.871 198.661 234.188 199.013 234.598C199.37 235.008 199.64 235.5 199.821 236.074C200.003 236.643 200.094 237.275 200.094 237.973V239.027H192.535V237.34H197.606V237.146C197.606 236.795 197.542 236.481 197.413 236.206C197.29 235.925 197.103 235.702 196.851 235.538C196.599 235.374 196.276 235.292 195.884 235.292C195.55 235.292 195.263 235.365 195.022 235.512C194.782 235.658 194.586 235.863 194.434 236.127C194.287 236.391 194.176 236.701 194.1 237.059C194.029 237.41 193.994 237.797 193.994 238.219V238.57C193.994 238.951 194.047 239.303 194.152 239.625C194.264 239.947 194.419 240.226 194.618 240.46C194.823 240.694 195.069 240.876 195.356 241.005C195.649 241.134 195.98 241.198 196.35 241.198C196.807 241.198 197.231 241.11 197.624 240.935C198.022 240.753 198.365 240.48 198.652 240.117L199.883 241.453C199.684 241.74 199.411 242.016 199.065 242.279C198.726 242.543 198.315 242.76 197.835 242.93C197.354 243.094 196.807 243.176 196.191 243.176ZM205.886 237.797V237.99C205.886 239.186 205.751 240.287 205.481 241.295C205.212 242.297 204.854 243.185 204.409 243.958C203.97 244.737 203.486 245.385 202.959 245.9C202.438 246.416 201.916 246.785 201.395 247.008L200.902 245.707C201.236 245.461 201.562 245.121 201.878 244.688C202.2 244.254 202.493 243.721 202.757 243.088C203.021 242.461 203.229 241.726 203.381 240.882C203.539 240.038 203.618 239.08 203.618 238.008V237.779C203.618 236.707 203.539 235.749 203.381 234.905C203.223 234.062 203.009 233.326 202.739 232.699C202.476 232.066 202.183 231.536 201.86 231.108C201.544 230.675 201.225 230.335 200.902 230.089L201.395 228.779C201.916 229.002 202.438 229.374 202.959 229.896C203.486 230.411 203.97 231.056 204.409 231.829C204.854 232.603 205.212 233.493 205.481 234.501C205.751 235.503 205.886 236.602 205.886 237.797Z" fill="#0066CC"/>
<path d="M36.7139 273.582V275.533C36.7139 276.582 36.6201 277.467 36.4326 278.188C36.2451 278.908 35.9756 279.488 35.624 279.928C35.2725 280.367 34.8477 280.687 34.3496 280.886C33.8574 281.079 33.3008 281.176 32.6797 281.176C32.1875 281.176 31.7334 281.114 31.3174 280.991C30.9014 280.868 30.5264 280.672 30.1924 280.402C29.8643 280.127 29.583 279.77 29.3486 279.33C29.1143 278.891 28.9355 278.357 28.8125 277.73C28.6895 277.104 28.6279 276.371 28.6279 275.533V273.582C28.6279 272.533 28.7217 271.654 28.9092 270.945C29.1025 270.236 29.375 269.668 29.7266 269.24C30.0781 268.807 30.5 268.496 30.9922 268.309C31.4902 268.121 32.0469 268.027 32.6621 268.027C33.1602 268.027 33.6172 268.089 34.0332 268.212C34.4551 268.329 34.8301 268.52 35.1582 268.783C35.4863 269.041 35.7646 269.387 35.9932 269.82C36.2275 270.248 36.4062 270.772 36.5293 271.394C36.6523 272.015 36.7139 272.744 36.7139 273.582ZM35.0791 275.797V273.31C35.0791 272.735 35.0439 272.231 34.9736 271.798C34.9092 271.358 34.8125 270.983 34.6836 270.673C34.5547 270.362 34.3906 270.11 34.1914 269.917C33.998 269.724 33.7725 269.583 33.5146 269.495C33.2627 269.401 32.9785 269.354 32.6621 269.354C32.2754 269.354 31.9326 269.428 31.6338 269.574C31.335 269.715 31.083 269.94 30.8779 270.251C30.6787 270.562 30.5264 270.969 30.4209 271.473C30.3154 271.977 30.2627 272.589 30.2627 273.31V275.797C30.2627 276.371 30.2949 276.878 30.3594 277.317C30.4297 277.757 30.5322 278.138 30.667 278.46C30.8018 278.776 30.9658 279.037 31.1592 279.242C31.3525 279.447 31.5752 279.6 31.8271 279.699C32.085 279.793 32.3691 279.84 32.6797 279.84C33.0781 279.84 33.4268 279.764 33.7256 279.611C34.0244 279.459 34.2734 279.222 34.4727 278.899C34.6777 278.571 34.8301 278.152 34.9297 277.643C35.0293 277.127 35.0791 276.512 35.0791 275.797ZM47.0762 268.203V269.117L41.7764 281H40.0625L45.3535 269.539H38.4277V268.203H47.0762ZM56.9639 273.582V275.533C56.9639 276.582 56.8701 277.467 56.6826 278.188C56.4951 278.908 56.2256 279.488 55.874 279.928C55.5225 280.367 55.0977 280.687 54.5996 280.886C54.1074 281.079 53.5508 281.176 52.9297 281.176C52.4375 281.176 51.9834 281.114 51.5674 280.991C51.1514 280.868 50.7764 280.672 50.4424 280.402C50.1143 280.127 49.833 279.77 49.5986 279.33C49.3643 278.891 49.1855 278.357 49.0625 277.73C48.9395 277.104 48.8779 276.371 48.8779 275.533V273.582C48.8779 272.533 48.9717 271.654 49.1592 270.945C49.3525 270.236 49.625 269.668 49.9766 269.24C50.3281 268.807 50.75 268.496 51.2422 268.309C51.7402 268.121 52.2969 268.027 52.9121 268.027C53.4102 268.027 53.8672 268.089 54.2832 268.212C54.7051 268.329 55.0801 268.52 55.4082 268.783C55.7363 269.041 56.0146 269.387 56.2432 269.82C56.4775 270.248 56.6562 270.772 56.7793 271.394C56.9023 272.015 56.9639 272.744 56.9639 273.582ZM55.3291 275.797V273.31C55.3291 272.735 55.2939 272.231 55.2236 271.798C55.1592 271.358 55.0625 270.983 54.9336 270.673C54.8047 270.362 54.6406 270.11 54.4414 269.917C54.248 269.724 54.0225 269.583 53.7646 269.495C53.5127 269.401 53.2285 269.354 52.9121 269.354C52.5254 269.354 52.1826 269.428 51.8838 269.574C51.585 269.715 51.333 269.94 51.1279 270.251C50.9287 270.562 50.7764 270.969 50.6709 271.473C50.5654 271.977 50.5127 272.589 50.5127 273.31V275.797C50.5127 276.371 50.5449 276.878 50.6094 277.317C50.6797 277.757 50.7822 278.138 50.917 278.46C51.0518 278.776 51.2158 279.037 51.4092 279.242C51.6025 279.447 51.8252 279.6 52.0771 279.699C52.335 279.793 52.6191 279.84 52.9297 279.84C53.3281 279.84 53.6768 279.764 53.9756 279.611C54.2744 279.459 54.5234 279.222 54.7227 278.899C54.9277 278.571 55.0801 278.152 55.1797 277.643C55.2793 277.127 55.3291 276.512 55.3291 275.797ZM67.124 277.537C67.124 278.316 66.9424 278.979 66.5791 279.523C66.2217 280.062 65.7354 280.473 65.1201 280.754C64.5107 281.035 63.8223 281.176 63.0547 281.176C62.2871 281.176 61.5957 281.035 60.9805 280.754C60.3652 280.473 59.8789 280.062 59.5215 279.523C59.1641 278.979 58.9854 278.316 58.9854 277.537C58.9854 277.027 59.082 276.562 59.2754 276.14C59.4746 275.712 59.7529 275.34 60.1104 275.023C60.4736 274.707 60.9014 274.464 61.3936 274.294C61.8916 274.118 62.4395 274.03 63.0371 274.03C63.8223 274.03 64.5225 274.183 65.1377 274.487C65.7529 274.786 66.2363 275.199 66.5879 275.727C66.9453 276.254 67.124 276.857 67.124 277.537ZM65.4893 277.502C65.4893 277.027 65.3867 276.608 65.1816 276.245C64.9766 275.876 64.6895 275.589 64.3203 275.384C63.9512 275.179 63.5234 275.076 63.0371 275.076C62.5391 275.076 62.1084 275.179 61.7451 275.384C61.3877 275.589 61.1094 275.876 60.9102 276.245C60.7109 276.608 60.6113 277.027 60.6113 277.502C60.6113 277.994 60.708 278.416 60.9014 278.768C61.1006 279.113 61.3818 279.38 61.7451 279.567C62.1143 279.749 62.5508 279.84 63.0547 279.84C63.5586 279.84 63.9922 279.749 64.3555 279.567C64.7188 279.38 64.9971 279.113 65.1904 278.768C65.3896 278.416 65.4893 277.994 65.4893 277.502ZM66.8252 271.534C66.8252 272.155 66.6611 272.715 66.333 273.213C66.0049 273.711 65.5566 274.104 64.9883 274.391C64.4199 274.678 63.7754 274.821 63.0547 274.821C62.3223 274.821 61.6689 274.678 61.0947 274.391C60.5264 274.104 60.0811 273.711 59.7588 273.213C59.4365 272.715 59.2754 272.155 59.2754 271.534C59.2754 270.79 59.4365 270.157 59.7588 269.636C60.0869 269.114 60.5352 268.716 61.1035 268.44C61.6719 268.165 62.3193 268.027 63.0459 268.027C63.7783 268.027 64.4287 268.165 64.9971 268.44C65.5654 268.716 66.0107 269.114 66.333 269.636C66.6611 270.157 66.8252 270.79 66.8252 271.534ZM65.1992 271.561C65.1992 271.133 65.1084 270.755 64.9268 270.427C64.7451 270.099 64.4932 269.841 64.1709 269.653C63.8486 269.46 63.4736 269.363 63.0459 269.363C62.6182 269.363 62.2432 269.454 61.9209 269.636C61.6045 269.812 61.3555 270.063 61.1738 270.392C60.998 270.72 60.9102 271.109 60.9102 271.561C60.9102 272 60.998 272.384 61.1738 272.712C61.3555 273.04 61.6074 273.295 61.9297 273.477C62.252 273.658 62.627 273.749 63.0547 273.749C63.4824 273.749 63.8545 273.658 64.1709 273.477C64.4932 273.295 64.7451 273.04 64.9268 272.712C65.1084 272.384 65.1992 272 65.1992 271.561ZM77.2139 273.582V275.533C77.2139 276.582 77.1201 277.467 76.9326 278.188C76.7451 278.908 76.4756 279.488 76.124 279.928C75.7725 280.367 75.3477 280.687 74.8496 280.886C74.3574 281.079 73.8008 281.176 73.1797 281.176C72.6875 281.176 72.2334 281.114 71.8174 280.991C71.4014 280.868 71.0264 280.672 70.6924 280.402C70.3643 280.127 70.083 279.77 69.8486 279.33C69.6143 278.891 69.4355 278.357 69.3125 277.73C69.1895 277.104 69.1279 276.371 69.1279 275.533V273.582C69.1279 272.533 69.2217 271.654 69.4092 270.945C69.6025 270.236 69.875 269.668 70.2266 269.24C70.5781 268.807 71 268.496 71.4922 268.309C71.9902 268.121 72.5469 268.027 73.1621 268.027C73.6602 268.027 74.1172 268.089 74.5332 268.212C74.9551 268.329 75.3301 268.52 75.6582 268.783C75.9863 269.041 76.2646 269.387 76.4932 269.82C76.7275 270.248 76.9062 270.772 77.0293 271.394C77.1523 272.015 77.2139 272.744 77.2139 273.582ZM75.5791 275.797V273.31C75.5791 272.735 75.5439 272.231 75.4736 271.798C75.4092 271.358 75.3125 270.983 75.1836 270.673C75.0547 270.362 74.8906 270.11 74.6914 269.917C74.498 269.724 74.2725 269.583 74.0146 269.495C73.7627 269.401 73.4785 269.354 73.1621 269.354C72.7754 269.354 72.4326 269.428 72.1338 269.574C71.835 269.715 71.583 269.94 71.3779 270.251C71.1787 270.562 71.0264 270.969 70.9209 271.473C70.8154 271.977 70.7627 272.589 70.7627 273.31V275.797C70.7627 276.371 70.7949 276.878 70.8594 277.317C70.9297 277.757 71.0322 278.138 71.167 278.46C71.3018 278.776 71.4658 279.037 71.6592 279.242C71.8525 279.447 72.0752 279.6 72.3271 279.699C72.585 279.793 72.8691 279.84 73.1797 279.84C73.5781 279.84 73.9268 279.764 74.2256 279.611C74.5244 279.459 74.7734 279.222 74.9727 278.899C75.1777 278.571 75.3301 278.152 75.4297 277.643C75.5293 277.127 75.5791 276.512 75.5791 275.797ZM85.5459 268.186H85.6865V269.565H85.5459C84.6846 269.565 83.9639 269.706 83.3838 269.987C82.8037 270.263 82.3438 270.635 82.0039 271.104C81.6641 271.566 81.418 272.088 81.2656 272.668C81.1191 273.248 81.0459 273.837 81.0459 274.435V276.315C81.0459 276.884 81.1133 277.388 81.248 277.827C81.3828 278.261 81.5674 278.627 81.8018 278.926C82.0361 279.225 82.2998 279.45 82.5928 279.603C82.8916 279.755 83.2021 279.831 83.5244 279.831C83.8994 279.831 84.2334 279.761 84.5264 279.62C84.8193 279.474 85.0654 279.271 85.2646 279.014C85.4697 278.75 85.625 278.439 85.7305 278.082C85.8359 277.725 85.8887 277.332 85.8887 276.904C85.8887 276.523 85.8418 276.157 85.748 275.806C85.6543 275.448 85.5107 275.132 85.3174 274.856C85.124 274.575 84.8809 274.355 84.5879 274.197C84.3008 274.033 83.958 273.951 83.5596 273.951C83.1084 273.951 82.6865 274.062 82.2939 274.285C81.9072 274.502 81.5879 274.789 81.3359 275.146C81.0898 275.498 80.9492 275.882 80.9141 276.298L80.0527 276.289C80.1348 275.633 80.2871 275.073 80.5098 274.61C80.7383 274.142 81.0195 273.761 81.3535 273.468C81.6934 273.169 82.0713 272.952 82.4873 272.817C82.9092 272.677 83.3545 272.606 83.8232 272.606C84.4619 272.606 85.0127 272.727 85.4756 272.967C85.9385 273.207 86.3193 273.529 86.6182 273.934C86.917 274.332 87.1367 274.783 87.2773 275.287C87.4238 275.785 87.4971 276.298 87.4971 276.825C87.4971 277.429 87.4121 277.994 87.2422 278.521C87.0723 279.049 86.8174 279.512 86.4775 279.91C86.1436 280.309 85.7305 280.619 85.2383 280.842C84.7461 281.064 84.1748 281.176 83.5244 281.176C82.833 281.176 82.2295 281.035 81.7139 280.754C81.1982 280.467 80.7705 280.086 80.4307 279.611C80.0908 279.137 79.8359 278.609 79.666 278.029C79.4961 277.449 79.4111 276.86 79.4111 276.263V275.498C79.4111 274.596 79.502 273.711 79.6836 272.844C79.8652 271.977 80.1787 271.191 80.624 270.488C81.0752 269.785 81.6992 269.226 82.4961 268.81C83.293 268.394 84.3096 268.186 85.5459 268.186ZM97.4639 273.582V275.533C97.4639 276.582 97.3701 277.467 97.1826 278.188C96.9951 278.908 96.7256 279.488 96.374 279.928C96.0225 280.367 95.5977 280.687 95.0996 280.886C94.6074 281.079 94.0508 281.176 93.4297 281.176C92.9375 281.176 92.4834 281.114 92.0674 280.991C91.6514 280.868 91.2764 280.672 90.9424 280.402C90.6143 280.127 90.333 279.77 90.0986 279.33C89.8643 278.891 89.6855 278.357 89.5625 277.73C89.4395 277.104 89.3779 276.371 89.3779 275.533V273.582C89.3779 272.533 89.4717 271.654 89.6592 270.945C89.8525 270.236 90.125 269.668 90.4766 269.24C90.8281 268.807 91.25 268.496 91.7422 268.309C92.2402 268.121 92.7969 268.027 93.4121 268.027C93.9102 268.027 94.3672 268.089 94.7832 268.212C95.2051 268.329 95.5801 268.52 95.9082 268.783C96.2363 269.041 96.5146 269.387 96.7432 269.82C96.9775 270.248 97.1562 270.772 97.2793 271.394C97.4023 272.015 97.4639 272.744 97.4639 273.582ZM95.8291 275.797V273.31C95.8291 272.735 95.7939 272.231 95.7236 271.798C95.6592 271.358 95.5625 270.983 95.4336 270.673C95.3047 270.362 95.1406 270.11 94.9414 269.917C94.748 269.724 94.5225 269.583 94.2646 269.495C94.0127 269.401 93.7285 269.354 93.4121 269.354C93.0254 269.354 92.6826 269.428 92.3838 269.574C92.085 269.715 91.833 269.94 91.6279 270.251C91.4287 270.562 91.2764 270.969 91.1709 271.473C91.0654 271.977 91.0127 272.589 91.0127 273.31V275.797C91.0127 276.371 91.0449 276.878 91.1094 277.317C91.1797 277.757 91.2822 278.138 91.417 278.46C91.5518 278.776 91.7158 279.037 91.9092 279.242C92.1025 279.447 92.3252 279.6 92.5771 279.699C92.835 279.793 93.1191 279.84 93.4297 279.84C93.8281 279.84 94.1768 279.764 94.4756 279.611C94.7744 279.459 95.0234 279.222 95.2227 278.899C95.4277 278.571 95.5801 278.152 95.6797 277.643C95.7793 277.127 95.8291 276.512 95.8291 275.797ZM104.899 268.133V281H103.273V270.163L99.9951 271.358V269.891L104.645 268.133H104.899ZM117.714 273.582V275.533C117.714 276.582 117.62 277.467 117.433 278.188C117.245 278.908 116.976 279.488 116.624 279.928C116.272 280.367 115.848 280.687 115.35 280.886C114.857 281.079 114.301 281.176 113.68 281.176C113.188 281.176 112.733 281.114 112.317 280.991C111.901 280.868 111.526 280.672 111.192 280.402C110.864 280.127 110.583 279.77 110.349 279.33C110.114 278.891 109.936 278.357 109.812 277.73C109.689 277.104 109.628 276.371 109.628 275.533V273.582C109.628 272.533 109.722 271.654 109.909 270.945C110.103 270.236 110.375 269.668 110.727 269.24C111.078 268.807 111.5 268.496 111.992 268.309C112.49 268.121 113.047 268.027 113.662 268.027C114.16 268.027 114.617 268.089 115.033 268.212C115.455 268.329 115.83 268.52 116.158 268.783C116.486 269.041 116.765 269.387 116.993 269.82C117.228 270.248 117.406 270.772 117.529 271.394C117.652 272.015 117.714 272.744 117.714 273.582ZM116.079 275.797V273.31C116.079 272.735 116.044 272.231 115.974 271.798C115.909 271.358 115.812 270.983 115.684 270.673C115.555 270.362 115.391 270.11 115.191 269.917C114.998 269.724 114.772 269.583 114.515 269.495C114.263 269.401 113.979 269.354 113.662 269.354C113.275 269.354 112.933 269.428 112.634 269.574C112.335 269.715 112.083 269.94 111.878 270.251C111.679 270.562 111.526 270.969 111.421 271.473C111.315 271.977 111.263 272.589 111.263 273.31V275.797C111.263 276.371 111.295 276.878 111.359 277.317C111.43 277.757 111.532 278.138 111.667 278.46C111.802 278.776 111.966 279.037 112.159 279.242C112.353 279.447 112.575 279.6 112.827 279.699C113.085 279.793 113.369 279.84 113.68 279.84C114.078 279.84 114.427 279.764 114.726 279.611C115.024 279.459 115.273 279.222 115.473 278.899C115.678 278.571 115.83 278.152 115.93 277.643C116.029 277.127 116.079 276.512 116.079 275.797ZM128.19 279.664V281H119.814V279.831L124.007 275.164C124.522 274.59 124.921 274.104 125.202 273.705C125.489 273.301 125.688 272.94 125.8 272.624C125.917 272.302 125.976 271.974 125.976 271.64C125.976 271.218 125.888 270.837 125.712 270.497C125.542 270.151 125.29 269.876 124.956 269.671C124.622 269.466 124.218 269.363 123.743 269.363C123.175 269.363 122.7 269.475 122.319 269.697C121.944 269.914 121.663 270.219 121.476 270.611C121.288 271.004 121.194 271.455 121.194 271.965H119.568C119.568 271.244 119.727 270.585 120.043 269.987C120.359 269.39 120.828 268.915 121.449 268.563C122.07 268.206 122.835 268.027 123.743 268.027C124.552 268.027 125.243 268.171 125.817 268.458C126.392 268.739 126.831 269.138 127.136 269.653C127.446 270.163 127.602 270.761 127.602 271.446C127.602 271.821 127.537 272.202 127.408 272.589C127.285 272.97 127.112 273.351 126.89 273.731C126.673 274.112 126.418 274.487 126.125 274.856C125.838 275.226 125.53 275.589 125.202 275.946L121.774 279.664H128.19ZM137.964 273.582V275.533C137.964 276.582 137.87 277.467 137.683 278.188C137.495 278.908 137.226 279.488 136.874 279.928C136.522 280.367 136.098 280.687 135.6 280.886C135.107 281.079 134.551 281.176 133.93 281.176C133.438 281.176 132.983 281.114 132.567 280.991C132.151 280.868 131.776 280.672 131.442 280.402C131.114 280.127 130.833 279.77 130.599 279.33C130.364 278.891 130.186 278.357 130.062 277.73C129.939 277.104 129.878 276.371 129.878 275.533V273.582C129.878 272.533 129.972 271.654 130.159 270.945C130.353 270.236 130.625 269.668 130.977 269.24C131.328 268.807 131.75 268.496 132.242 268.309C132.74 268.121 133.297 268.027 133.912 268.027C134.41 268.027 134.867 268.089 135.283 268.212C135.705 268.329 136.08 268.52 136.408 268.783C136.736 269.041 137.015 269.387 137.243 269.82C137.478 270.248 137.656 270.772 137.779 271.394C137.902 272.015 137.964 272.744 137.964 273.582ZM136.329 275.797V273.31C136.329 272.735 136.294 272.231 136.224 271.798C136.159 271.358 136.062 270.983 135.934 270.673C135.805 270.362 135.641 270.11 135.441 269.917C135.248 269.724 135.022 269.583 134.765 269.495C134.513 269.401 134.229 269.354 133.912 269.354C133.525 269.354 133.183 269.428 132.884 269.574C132.585 269.715 132.333 269.94 132.128 270.251C131.929 270.562 131.776 270.969 131.671 271.473C131.565 271.977 131.513 272.589 131.513 273.31V275.797C131.513 276.371 131.545 276.878 131.609 277.317C131.68 277.757 131.782 278.138 131.917 278.46C132.052 278.776 132.216 279.037 132.409 279.242C132.603 279.447 132.825 279.6 133.077 279.699C133.335 279.793 133.619 279.84 133.93 279.84C134.328 279.84 134.677 279.764 134.976 279.611C135.274 279.459 135.523 279.222 135.723 278.899C135.928 278.571 136.08 278.152 136.18 277.643C136.279 277.127 136.329 276.512 136.329 275.797ZM141.708 279.066V280.376C141.708 280.909 141.573 281.472 141.304 282.063C141.034 282.661 140.656 283.159 140.17 283.558L139.247 282.916C139.435 282.658 139.593 282.395 139.722 282.125C139.851 281.861 139.947 281.586 140.012 281.299C140.082 281.018 140.117 280.719 140.117 280.402V279.066H141.708ZM156.104 273.582V275.533C156.104 276.582 156.011 277.467 155.823 278.188C155.636 278.908 155.366 279.488 155.015 279.928C154.663 280.367 154.238 280.687 153.74 280.886C153.248 281.079 152.691 281.176 152.07 281.176C151.578 281.176 151.124 281.114 150.708 280.991C150.292 280.868 149.917 280.672 149.583 280.402C149.255 280.127 148.974 279.77 148.739 279.33C148.505 278.891 148.326 278.357 148.203 277.73C148.08 277.104 148.019 276.371 148.019 275.533V273.582C148.019 272.533 148.112 271.654 148.3 270.945C148.493 270.236 148.766 269.668 149.117 269.24C149.469 268.807 149.891 268.496 150.383 268.309C150.881 268.121 151.438 268.027 152.053 268.027C152.551 268.027 153.008 268.089 153.424 268.212C153.846 268.329 154.221 268.52 154.549 268.783C154.877 269.041 155.155 269.387 155.384 269.82C155.618 270.248 155.797 270.772 155.92 271.394C156.043 272.015 156.104 272.744 156.104 273.582ZM154.47 275.797V273.31C154.47 272.735 154.435 272.231 154.364 271.798C154.3 271.358 154.203 270.983 154.074 270.673C153.945 270.362 153.781 270.11 153.582 269.917C153.389 269.724 153.163 269.583 152.905 269.495C152.653 269.401 152.369 269.354 152.053 269.354C151.666 269.354 151.323 269.428 151.024 269.574C150.726 269.715 150.474 269.94 150.269 270.251C150.069 270.562 149.917 270.969 149.812 271.473C149.706 271.977 149.653 272.589 149.653 273.31V275.797C149.653 276.371 149.686 276.878 149.75 277.317C149.82 277.757 149.923 278.138 150.058 278.46C150.192 278.776 150.356 279.037 150.55 279.242C150.743 279.447 150.966 279.6 151.218 279.699C151.476 279.793 151.76 279.84 152.07 279.84C152.469 279.84 152.817 279.764 153.116 279.611C153.415 279.459 153.664 279.222 153.863 278.899C154.068 278.571 154.221 278.152 154.32 277.643C154.42 277.127 154.47 276.512 154.47 275.797ZM166.265 277.537C166.265 278.316 166.083 278.979 165.72 279.523C165.362 280.062 164.876 280.473 164.261 280.754C163.651 281.035 162.963 281.176 162.195 281.176C161.428 281.176 160.736 281.035 160.121 280.754C159.506 280.473 159.02 280.062 158.662 279.523C158.305 278.979 158.126 278.316 158.126 277.537C158.126 277.027 158.223 276.562 158.416 276.14C158.615 275.712 158.894 275.34 159.251 275.023C159.614 274.707 160.042 274.464 160.534 274.294C161.032 274.118 161.58 274.03 162.178 274.03C162.963 274.03 163.663 274.183 164.278 274.487C164.894 274.786 165.377 275.199 165.729 275.727C166.086 276.254 166.265 276.857 166.265 277.537ZM164.63 277.502C164.63 277.027 164.527 276.608 164.322 276.245C164.117 275.876 163.83 275.589 163.461 275.384C163.092 275.179 162.664 275.076 162.178 275.076C161.68 275.076 161.249 275.179 160.886 275.384C160.528 275.589 160.25 275.876 160.051 276.245C159.852 276.608 159.752 277.027 159.752 277.502C159.752 277.994 159.849 278.416 160.042 278.768C160.241 279.113 160.522 279.38 160.886 279.567C161.255 279.749 161.691 279.84 162.195 279.84C162.699 279.84 163.133 279.749 163.496 279.567C163.859 279.38 164.138 279.113 164.331 278.768C164.53 278.416 164.63 277.994 164.63 277.502ZM165.966 271.534C165.966 272.155 165.802 272.715 165.474 273.213C165.146 273.711 164.697 274.104 164.129 274.391C163.561 274.678 162.916 274.821 162.195 274.821C161.463 274.821 160.81 274.678 160.235 274.391C159.667 274.104 159.222 273.711 158.899 273.213C158.577 272.715 158.416 272.155 158.416 271.534C158.416 270.79 158.577 270.157 158.899 269.636C159.228 269.114 159.676 268.716 160.244 268.44C160.812 268.165 161.46 268.027 162.187 268.027C162.919 268.027 163.569 268.165 164.138 268.44C164.706 268.716 165.151 269.114 165.474 269.636C165.802 270.157 165.966 270.79 165.966 271.534ZM164.34 271.561C164.34 271.133 164.249 270.755 164.067 270.427C163.886 270.099 163.634 269.841 163.312 269.653C162.989 269.46 162.614 269.363 162.187 269.363C161.759 269.363 161.384 269.454 161.062 269.636C160.745 269.812 160.496 270.063 160.314 270.392C160.139 270.72 160.051 271.109 160.051 271.561C160.051 272 160.139 272.384 160.314 272.712C160.496 273.04 160.748 273.295 161.07 273.477C161.393 273.658 161.768 273.749 162.195 273.749C162.623 273.749 162.995 273.658 163.312 273.477C163.634 273.295 163.886 273.04 164.067 272.712C164.249 272.384 164.34 272 164.34 271.561ZM176.354 273.582V275.533C176.354 276.582 176.261 277.467 176.073 278.188C175.886 278.908 175.616 279.488 175.265 279.928C174.913 280.367 174.488 280.687 173.99 280.886C173.498 281.079 172.941 281.176 172.32 281.176C171.828 281.176 171.374 281.114 170.958 280.991C170.542 280.868 170.167 280.672 169.833 280.402C169.505 280.127 169.224 279.77 168.989 279.33C168.755 278.891 168.576 278.357 168.453 277.73C168.33 277.104 168.269 276.371 168.269 275.533V273.582C168.269 272.533 168.362 271.654 168.55 270.945C168.743 270.236 169.016 269.668 169.367 269.24C169.719 268.807 170.141 268.496 170.633 268.309C171.131 268.121 171.688 268.027 172.303 268.027C172.801 268.027 173.258 268.089 173.674 268.212C174.096 268.329 174.471 268.52 174.799 268.783C175.127 269.041 175.405 269.387 175.634 269.82C175.868 270.248 176.047 270.772 176.17 271.394C176.293 272.015 176.354 272.744 176.354 273.582ZM174.72 275.797V273.31C174.72 272.735 174.685 272.231 174.614 271.798C174.55 271.358 174.453 270.983 174.324 270.673C174.195 270.362 174.031 270.11 173.832 269.917C173.639 269.724 173.413 269.583 173.155 269.495C172.903 269.401 172.619 269.354 172.303 269.354C171.916 269.354 171.573 269.428 171.274 269.574C170.976 269.715 170.724 269.94 170.519 270.251C170.319 270.562 170.167 270.969 170.062 271.473C169.956 271.977 169.903 272.589 169.903 273.31V275.797C169.903 276.371 169.936 276.878 170 277.317C170.07 277.757 170.173 278.138 170.308 278.46C170.442 278.776 170.606 279.037 170.8 279.242C170.993 279.447 171.216 279.6 171.468 279.699C171.726 279.793 172.01 279.84 172.32 279.84C172.719 279.84 173.067 279.764 173.366 279.611C173.665 279.459 173.914 279.222 174.113 278.899C174.318 278.571 174.471 278.152 174.57 277.643C174.67 277.127 174.72 276.512 174.72 275.797ZM186.831 279.664V281H178.455V279.831L182.647 275.164C183.163 274.59 183.562 274.104 183.843 273.705C184.13 273.301 184.329 272.94 184.44 272.624C184.558 272.302 184.616 271.974 184.616 271.64C184.616 271.218 184.528 270.837 184.353 270.497C184.183 270.151 183.931 269.876 183.597 269.671C183.263 269.466 182.858 269.363 182.384 269.363C181.815 269.363 181.341 269.475 180.96 269.697C180.585 269.914 180.304 270.219 180.116 270.611C179.929 271.004 179.835 271.455 179.835 271.965H178.209C178.209 271.244 178.367 270.585 178.684 269.987C179 269.39 179.469 268.915 180.09 268.563C180.711 268.206 181.476 268.027 182.384 268.027C183.192 268.027 183.884 268.171 184.458 268.458C185.032 268.739 185.472 269.138 185.776 269.653C186.087 270.163 186.242 270.761 186.242 271.446C186.242 271.821 186.178 272.202 186.049 272.589C185.926 272.97 185.753 273.351 185.53 273.731C185.313 274.112 185.059 274.487 184.766 274.856C184.479 275.226 184.171 275.589 183.843 275.946L180.415 279.664H186.831ZM190.944 273.802H192.104C192.673 273.802 193.142 273.708 193.511 273.521C193.886 273.327 194.164 273.066 194.346 272.738C194.533 272.404 194.627 272.029 194.627 271.613C194.627 271.121 194.545 270.708 194.381 270.374C194.217 270.04 193.971 269.788 193.643 269.618C193.314 269.448 192.898 269.363 192.395 269.363C191.938 269.363 191.533 269.454 191.182 269.636C190.836 269.812 190.563 270.063 190.364 270.392C190.171 270.72 190.074 271.106 190.074 271.552H188.448C188.448 270.901 188.612 270.31 188.94 269.776C189.269 269.243 189.729 268.818 190.32 268.502C190.918 268.186 191.609 268.027 192.395 268.027C193.168 268.027 193.845 268.165 194.425 268.44C195.005 268.71 195.456 269.114 195.778 269.653C196.101 270.187 196.262 270.852 196.262 271.648C196.262 271.971 196.186 272.316 196.033 272.686C195.887 273.049 195.655 273.389 195.339 273.705C195.028 274.021 194.624 274.282 194.126 274.487C193.628 274.687 193.03 274.786 192.333 274.786H190.944V273.802ZM190.944 275.138V274.162H192.333C193.147 274.162 193.821 274.259 194.354 274.452C194.888 274.646 195.307 274.903 195.611 275.226C195.922 275.548 196.139 275.902 196.262 276.289C196.391 276.67 196.455 277.051 196.455 277.432C196.455 278.029 196.353 278.56 196.147 279.022C195.948 279.485 195.664 279.878 195.295 280.2C194.932 280.522 194.504 280.766 194.012 280.93C193.52 281.094 192.983 281.176 192.403 281.176C191.847 281.176 191.322 281.097 190.83 280.938C190.344 280.78 189.913 280.552 189.538 280.253C189.163 279.948 188.87 279.576 188.659 279.137C188.448 278.691 188.343 278.185 188.343 277.616H189.969C189.969 278.062 190.065 278.451 190.259 278.785C190.458 279.119 190.739 279.38 191.103 279.567C191.472 279.749 191.905 279.84 192.403 279.84C192.901 279.84 193.329 279.755 193.687 279.585C194.05 279.409 194.328 279.146 194.521 278.794C194.721 278.442 194.82 278 194.82 277.467C194.82 276.934 194.709 276.497 194.486 276.157C194.264 275.812 193.947 275.557 193.537 275.393C193.133 275.223 192.655 275.138 192.104 275.138H190.944ZM204.04 268.133V281H202.414V270.163L199.136 271.358V269.891L203.785 268.133H204.04ZM217.206 279.664V281H208.83V279.831L213.022 275.164C213.538 274.59 213.937 274.104 214.218 273.705C214.505 273.301 214.704 272.94 214.815 272.624C214.933 272.302 214.991 271.974 214.991 271.64C214.991 271.218 214.903 270.837 214.728 270.497C214.558 270.151 214.306 269.876 213.972 269.671C213.638 269.466 213.233 269.363 212.759 269.363C212.19 269.363 211.716 269.475 211.335 269.697C210.96 269.914 210.679 270.219 210.491 270.611C210.304 271.004 210.21 271.455 210.21 271.965H208.584C208.584 271.244 208.742 270.585 209.059 269.987C209.375 269.39 209.844 268.915 210.465 268.563C211.086 268.206 211.851 268.027 212.759 268.027C213.567 268.027 214.259 268.171 214.833 268.458C215.407 268.739 215.847 269.138 216.151 269.653C216.462 270.163 216.617 270.761 216.617 271.446C216.617 271.821 216.553 272.202 216.424 272.589C216.301 272.97 216.128 273.351 215.905 273.731C215.688 274.112 215.434 274.487 215.141 274.856C214.854 275.226 214.546 275.589 214.218 275.946L210.79 279.664H217.206ZM227.015 277.537C227.015 278.316 226.833 278.979 226.47 279.523C226.112 280.062 225.626 280.473 225.011 280.754C224.401 281.035 223.713 281.176 222.945 281.176C222.178 281.176 221.486 281.035 220.871 280.754C220.256 280.473 219.77 280.062 219.412 279.523C219.055 278.979 218.876 278.316 218.876 277.537C218.876 277.027 218.973 276.562 219.166 276.14C219.365 275.712 219.644 275.34 220.001 275.023C220.364 274.707 220.792 274.464 221.284 274.294C221.782 274.118 222.33 274.03 222.928 274.03C223.713 274.03 224.413 274.183 225.028 274.487C225.644 274.786 226.127 275.199 226.479 275.727C226.836 276.254 227.015 276.857 227.015 277.537ZM225.38 277.502C225.38 277.027 225.277 276.608 225.072 276.245C224.867 275.876 224.58 275.589 224.211 275.384C223.842 275.179 223.414 275.076 222.928 275.076C222.43 275.076 221.999 275.179 221.636 275.384C221.278 275.589 221 275.876 220.801 276.245C220.602 276.608 220.502 277.027 220.502 277.502C220.502 277.994 220.599 278.416 220.792 278.768C220.991 279.113 221.272 279.38 221.636 279.567C222.005 279.749 222.441 279.84 222.945 279.84C223.449 279.84 223.883 279.749 224.246 279.567C224.609 279.38 224.888 279.113 225.081 278.768C225.28 278.416 225.38 277.994 225.38 277.502ZM226.716 271.534C226.716 272.155 226.552 272.715 226.224 273.213C225.896 273.711 225.447 274.104 224.879 274.391C224.311 274.678 223.666 274.821 222.945 274.821C222.213 274.821 221.56 274.678 220.985 274.391C220.417 274.104 219.972 273.711 219.649 273.213C219.327 272.715 219.166 272.155 219.166 271.534C219.166 270.79 219.327 270.157 219.649 269.636C219.978 269.114 220.426 268.716 220.994 268.44C221.562 268.165 222.21 268.027 222.937 268.027C223.669 268.027 224.319 268.165 224.888 268.44C225.456 268.716 225.901 269.114 226.224 269.636C226.552 270.157 226.716 270.79 226.716 271.534ZM225.09 271.561C225.09 271.133 224.999 270.755 224.817 270.427C224.636 270.099 224.384 269.841 224.062 269.653C223.739 269.46 223.364 269.363 222.937 269.363C222.509 269.363 222.134 269.454 221.812 269.636C221.495 269.812 221.246 270.063 221.064 270.392C220.889 270.72 220.801 271.109 220.801 271.561C220.801 272 220.889 272.384 221.064 272.712C221.246 273.04 221.498 273.295 221.82 273.477C222.143 273.658 222.518 273.749 222.945 273.749C223.373 273.749 223.745 273.658 224.062 273.477C224.384 273.295 224.636 273.04 224.817 272.712C224.999 272.384 225.09 272 225.09 271.561ZM237.104 273.582V275.533C237.104 276.582 237.011 277.467 236.823 278.188C236.636 278.908 236.366 279.488 236.015 279.928C235.663 280.367 235.238 280.687 234.74 280.886C234.248 281.079 233.691 281.176 233.07 281.176C232.578 281.176 232.124 281.114 231.708 280.991C231.292 280.868 230.917 280.672 230.583 280.402C230.255 280.127 229.974 279.77 229.739 279.33C229.505 278.891 229.326 278.357 229.203 277.73C229.08 277.104 229.019 276.371 229.019 275.533V273.582C229.019 272.533 229.112 271.654 229.3 270.945C229.493 270.236 229.766 269.668 230.117 269.24C230.469 268.807 230.891 268.496 231.383 268.309C231.881 268.121 232.438 268.027 233.053 268.027C233.551 268.027 234.008 268.089 234.424 268.212C234.846 268.329 235.221 268.52 235.549 268.783C235.877 269.041 236.155 269.387 236.384 269.82C236.618 270.248 236.797 270.772 236.92 271.394C237.043 272.015 237.104 272.744 237.104 273.582ZM235.47 275.797V273.31C235.47 272.735 235.435 272.231 235.364 271.798C235.3 271.358 235.203 270.983 235.074 270.673C234.945 270.362 234.781 270.11 234.582 269.917C234.389 269.724 234.163 269.583 233.905 269.495C233.653 269.401 233.369 269.354 233.053 269.354C232.666 269.354 232.323 269.428 232.024 269.574C231.726 269.715 231.474 269.94 231.269 270.251C231.069 270.562 230.917 270.969 230.812 271.473C230.706 271.977 230.653 272.589 230.653 273.31V275.797C230.653 276.371 230.686 276.878 230.75 277.317C230.82 277.757 230.923 278.138 231.058 278.46C231.192 278.776 231.356 279.037 231.55 279.242C231.743 279.447 231.966 279.6 232.218 279.699C232.476 279.793 232.76 279.84 233.07 279.84C233.469 279.84 233.817 279.764 234.116 279.611C234.415 279.459 234.664 279.222 234.863 278.899C235.068 278.571 235.221 278.152 235.32 277.643C235.42 277.127 235.47 276.512 235.47 275.797ZM240.813 279.638H240.98C241.918 279.638 242.68 279.506 243.266 279.242C243.852 278.979 244.303 278.624 244.619 278.179C244.936 277.733 245.152 277.232 245.27 276.676C245.387 276.113 245.445 275.536 245.445 274.944V272.984C245.445 272.404 245.378 271.889 245.243 271.438C245.114 270.986 244.933 270.608 244.698 270.304C244.47 269.999 244.209 269.768 243.916 269.609C243.623 269.451 243.312 269.372 242.984 269.372C242.609 269.372 242.272 269.448 241.974 269.601C241.681 269.747 241.432 269.955 241.227 270.225C241.027 270.494 240.875 270.811 240.77 271.174C240.664 271.537 240.611 271.933 240.611 272.36C240.611 272.741 240.658 273.11 240.752 273.468C240.846 273.825 240.989 274.147 241.183 274.435C241.376 274.722 241.616 274.95 241.903 275.12C242.196 275.284 242.539 275.366 242.932 275.366C243.295 275.366 243.635 275.296 243.951 275.155C244.273 275.009 244.558 274.812 244.804 274.566C245.056 274.314 245.255 274.03 245.401 273.714C245.554 273.397 245.642 273.066 245.665 272.721H246.438C246.438 273.207 246.342 273.688 246.148 274.162C245.961 274.631 245.697 275.059 245.357 275.445C245.018 275.832 244.619 276.143 244.162 276.377C243.705 276.605 243.207 276.72 242.668 276.72C242.035 276.72 241.487 276.597 241.024 276.351C240.562 276.104 240.181 275.776 239.882 275.366C239.589 274.956 239.369 274.499 239.223 273.995C239.082 273.485 239.012 272.97 239.012 272.448C239.012 271.839 239.097 271.268 239.267 270.734C239.437 270.201 239.688 269.732 240.022 269.328C240.356 268.918 240.77 268.599 241.262 268.37C241.76 268.142 242.334 268.027 242.984 268.027C243.717 268.027 244.341 268.174 244.856 268.467C245.372 268.76 245.791 269.152 246.113 269.645C246.441 270.137 246.682 270.69 246.834 271.306C246.986 271.921 247.062 272.554 247.062 273.204V273.793C247.062 274.455 247.019 275.129 246.931 275.814C246.849 276.494 246.688 277.145 246.447 277.766C246.213 278.387 245.87 278.943 245.419 279.436C244.968 279.922 244.379 280.309 243.652 280.596C242.932 280.877 242.041 281.018 240.98 281.018H240.813V279.638ZM250.938 279.638H251.105C252.043 279.638 252.805 279.506 253.391 279.242C253.977 278.979 254.428 278.624 254.744 278.179C255.061 277.733 255.277 277.232 255.395 276.676C255.512 276.113 255.57 275.536 255.57 274.944V272.984C255.57 272.404 255.503 271.889 255.368 271.438C255.239 270.986 255.058 270.608 254.823 270.304C254.595 269.999 254.334 269.768 254.041 269.609C253.748 269.451 253.438 269.372 253.109 269.372C252.734 269.372 252.397 269.448 252.099 269.601C251.806 269.747 251.557 269.955 251.352 270.225C251.152 270.494 251 270.811 250.895 271.174C250.789 271.537 250.736 271.933 250.736 272.36C250.736 272.741 250.783 273.11 250.877 273.468C250.971 273.825 251.114 274.147 251.308 274.435C251.501 274.722 251.741 274.95 252.028 275.12C252.321 275.284 252.664 275.366 253.057 275.366C253.42 275.366 253.76 275.296 254.076 275.155C254.398 275.009 254.683 274.812 254.929 274.566C255.181 274.314 255.38 274.03 255.526 273.714C255.679 273.397 255.767 273.066 255.79 272.721H256.563C256.563 273.207 256.467 273.688 256.273 274.162C256.086 274.631 255.822 275.059 255.482 275.445C255.143 275.832 254.744 276.143 254.287 276.377C253.83 276.605 253.332 276.72 252.793 276.72C252.16 276.72 251.612 276.597 251.149 276.351C250.687 276.104 250.306 275.776 250.007 275.366C249.714 274.956 249.494 274.499 249.348 273.995C249.207 273.485 249.137 272.97 249.137 272.448C249.137 271.839 249.222 271.268 249.392 270.734C249.562 270.201 249.813 269.732 250.147 269.328C250.481 268.918 250.895 268.599 251.387 268.37C251.885 268.142 252.459 268.027 253.109 268.027C253.842 268.027 254.466 268.174 254.981 268.467C255.497 268.76 255.916 269.152 256.238 269.645C256.566 270.137 256.807 270.69 256.959 271.306C257.111 271.921 257.188 272.554 257.188 273.204V273.793C257.188 274.455 257.144 275.129 257.056 275.814C256.974 276.494 256.812 277.145 256.572 277.766C256.338 278.387 255.995 278.943 255.544 279.436C255.093 279.922 254.504 280.309 253.777 280.596C253.057 280.877 252.166 281.018 251.105 281.018H250.938V279.638Z" fill="black"/>
<circle cx="142.5" cy="95" r="95" fill="white"/>
<path d="M114.682 130V121.882H121.155L129.144 95.1956C129.684 93.4368 130.679 92.0324 132.13 90.9825C133.581 89.9326 135.181 89.4091 136.932 89.4118H149.068C150.821 89.4118 152.423 89.9367 153.874 90.9866C155.325 92.0365 156.319 93.4395 156.856 95.1956L164.845 121.882H171.318V130H114.682ZM138.955 81.2941V61H147.045V81.2941H138.955ZM163.025 91.3397L157.26 85.5559L171.622 71.2485L177.285 76.9309L163.025 91.3397ZM167.273 109.706V101.588H187.5V109.706H167.273ZM122.975 91.3397L108.715 76.9309L114.378 71.2485L128.74 85.5559L122.975 91.3397ZM98.5 109.706V101.588H118.727V109.706H98.5Z" fill="#FF0000"/>
</g>
<defs>
<filter id="filter0_d_38_2598" x="0.5" y="0" width="284" height="365" filterUnits="userSpaceOnUse" color-interpolation-filters="sRGB">
<feFlood flood-opacity="0" result="BackgroundImageFix"/>
<feColorMatrix in="SourceAlpha" type="matrix" values="0 0 0 0 0 0 0 0 0 0 0 0 0 0 0 0 0 0 127 0" result="hardAlpha"/>
<feOffset dy="4"/>
<feGaussianBlur stdDeviation="2"/>
<feComposite in2="hardAlpha" operator="out"/>
<feColorMatrix type="matrix" values="0 0 0 0 0 0 0 0 0 0 0 0 0 0 0 0 0 0 0.25 0"/>
<feBlend mode="normal" in2="BackgroundImageFix" result="effect1_dropShadow_38_2598"/>
<feBlend mode="normal" in="SourceGraphic" in2="effect1_dropShadow_38_2598" result="shape"/>
</filter>
</defs>
</svg>
