<svg width="285" height="365" viewBox="0 0 285 365" fill="none" xmlns="http://www.w3.org/2000/svg">
<g filter="url(#filter0_d_38_2642)">
<rect x="4.5" y="95" width="276" height="262" rx="8" fill="white"/>
<path d="M71.8613 208.651C71.8613 208.423 71.8262 208.218 71.7559 208.036C71.6914 207.849 71.5684 207.679 71.3867 207.526C71.2051 207.368 70.9502 207.213 70.6221 207.061C70.2939 206.908 69.8691 206.75 69.3477 206.586C68.7676 206.398 68.2168 206.188 67.6953 205.953C67.1797 205.719 66.7227 205.446 66.3242 205.136C65.9316 204.819 65.6211 204.453 65.3926 204.037C65.1699 203.621 65.0586 203.138 65.0586 202.587C65.0586 202.054 65.1758 201.57 65.4102 201.137C65.6445 200.697 65.9727 200.322 66.3945 200.012C66.8164 199.695 67.3145 199.452 67.8887 199.282C68.4688 199.112 69.1045 199.027 69.7959 199.027C70.7393 199.027 71.5625 199.197 72.2656 199.537C72.9688 199.877 73.5137 200.343 73.9004 200.935C74.293 201.526 74.4893 202.203 74.4893 202.965H71.8701C71.8701 202.59 71.791 202.262 71.6328 201.98C71.4805 201.693 71.2461 201.468 70.9297 201.304C70.6191 201.14 70.2266 201.058 69.752 201.058C69.2949 201.058 68.9141 201.128 68.6094 201.269C68.3047 201.403 68.0762 201.588 67.9238 201.822C67.7715 202.051 67.6953 202.309 67.6953 202.596C67.6953 202.812 67.748 203.009 67.8535 203.185C67.9648 203.36 68.1289 203.524 68.3457 203.677C68.5625 203.829 68.8291 203.973 69.1455 204.107C69.4619 204.242 69.8281 204.374 70.2441 204.503C70.9414 204.714 71.5537 204.951 72.0811 205.215C72.6143 205.479 73.0596 205.774 73.417 206.103C73.7744 206.431 74.0439 206.803 74.2256 207.219C74.4072 207.635 74.498 208.106 74.498 208.634C74.498 209.19 74.3896 209.688 74.1729 210.128C73.9561 210.567 73.6426 210.939 73.2324 211.244C72.8223 211.549 72.333 211.78 71.7646 211.938C71.1963 212.097 70.5605 212.176 69.8574 212.176C69.2246 212.176 68.6006 212.094 67.9854 211.93C67.3701 211.76 66.8105 211.505 66.3066 211.165C65.8086 210.825 65.4102 210.392 65.1113 209.864C64.8125 209.337 64.6631 208.713 64.6631 207.992H67.3086C67.3086 208.391 67.3701 208.728 67.4932 209.003C67.6162 209.278 67.7891 209.501 68.0117 209.671C68.2402 209.841 68.5098 209.964 68.8203 210.04C69.1367 210.116 69.4824 210.154 69.8574 210.154C70.3145 210.154 70.6895 210.09 70.9824 209.961C71.2812 209.832 71.501 209.653 71.6416 209.425C71.7881 209.196 71.8613 208.938 71.8613 208.651ZM80.5098 212.176C79.7715 212.176 79.1094 212.059 78.5234 211.824C77.9375 211.584 77.4395 211.253 77.0293 210.831C76.625 210.409 76.3145 209.92 76.0977 209.363C75.8809 208.801 75.7725 208.203 75.7725 207.57V207.219C75.7725 206.498 75.875 205.839 76.0801 205.241C76.2852 204.644 76.5781 204.125 76.959 203.686C77.3457 203.246 77.8145 202.909 78.3652 202.675C78.916 202.435 79.5371 202.314 80.2285 202.314C80.9023 202.314 81.5 202.426 82.0215 202.648C82.543 202.871 82.9795 203.188 83.3311 203.598C83.6885 204.008 83.958 204.5 84.1396 205.074C84.3213 205.643 84.4121 206.275 84.4121 206.973V208.027H76.8535V206.34H81.9248V206.146C81.9248 205.795 81.8604 205.481 81.7314 205.206C81.6084 204.925 81.4209 204.702 81.1689 204.538C80.917 204.374 80.5947 204.292 80.2021 204.292C79.8682 204.292 79.5811 204.365 79.3408 204.512C79.1006 204.658 78.9043 204.863 78.752 205.127C78.6055 205.391 78.4941 205.701 78.418 206.059C78.3477 206.41 78.3125 206.797 78.3125 207.219V207.57C78.3125 207.951 78.3652 208.303 78.4707 208.625C78.582 208.947 78.7373 209.226 78.9365 209.46C79.1416 209.694 79.3877 209.876 79.6748 210.005C79.9678 210.134 80.2988 210.198 80.668 210.198C81.125 210.198 81.5498 210.11 81.9424 209.935C82.3408 209.753 82.6836 209.48 82.9707 209.117L84.2012 210.453C84.002 210.74 83.7295 211.016 83.3838 211.279C83.0439 211.543 82.6338 211.76 82.1533 211.93C81.6729 212.094 81.125 212.176 80.5098 212.176ZM89.7822 210.198C90.0928 210.198 90.3682 210.14 90.6084 210.022C90.8486 209.899 91.0361 209.729 91.1709 209.513C91.3115 209.29 91.3848 209.029 91.3906 208.73H93.7725C93.7666 209.398 93.5879 209.993 93.2363 210.515C92.8848 211.03 92.4131 211.438 91.8213 211.736C91.2295 212.029 90.5674 212.176 89.835 212.176C89.0967 212.176 88.4521 212.053 87.9014 211.807C87.3564 211.561 86.9023 211.221 86.5391 210.787C86.1758 210.348 85.9033 209.838 85.7217 209.258C85.54 208.672 85.4492 208.045 85.4492 207.377V207.122C85.4492 206.448 85.54 205.821 85.7217 205.241C85.9033 204.655 86.1758 204.146 86.5391 203.712C86.9023 203.272 87.3564 202.93 87.9014 202.684C88.4463 202.438 89.085 202.314 89.8174 202.314C90.5967 202.314 91.2793 202.464 91.8652 202.763C92.457 203.062 92.9199 203.489 93.2539 204.046C93.5938 204.597 93.7666 205.25 93.7725 206.006H91.3906C91.3848 205.689 91.3174 205.402 91.1885 205.145C91.0654 204.887 90.8838 204.682 90.6436 204.529C90.4092 204.371 90.1191 204.292 89.7734 204.292C89.4043 204.292 89.1025 204.371 88.8682 204.529C88.6338 204.682 88.4521 204.893 88.3232 205.162C88.1943 205.426 88.1035 205.728 88.0508 206.067C88.0039 206.401 87.9805 206.753 87.9805 207.122V207.377C87.9805 207.746 88.0039 208.101 88.0508 208.44C88.0977 208.78 88.1855 209.082 88.3145 209.346C88.4492 209.609 88.6338 209.817 88.8682 209.97C89.1025 210.122 89.4072 210.198 89.7822 210.198ZM100.865 209.724V202.49H103.396V212H101.015L100.865 209.724ZM101.146 207.772L101.894 207.755C101.894 208.388 101.82 208.977 101.674 209.521C101.527 210.061 101.308 210.529 101.015 210.928C100.722 211.32 100.353 211.628 99.9072 211.851C99.4619 212.067 98.9375 212.176 98.334 212.176C97.8711 212.176 97.4434 212.111 97.0508 211.982C96.6641 211.848 96.3301 211.64 96.0488 211.358C95.7734 211.071 95.5566 210.705 95.3984 210.26C95.2461 209.809 95.1699 209.267 95.1699 208.634V202.49H97.7012V208.651C97.7012 208.933 97.7334 209.17 97.7979 209.363C97.8682 209.557 97.9648 209.715 98.0879 209.838C98.2109 209.961 98.3545 210.049 98.5186 210.102C98.6885 210.154 98.876 210.181 99.0811 210.181C99.6025 210.181 100.013 210.075 100.312 209.864C100.616 209.653 100.83 209.366 100.953 209.003C101.082 208.634 101.146 208.224 101.146 207.772ZM107.861 204.564V212H105.33V202.49H107.712L107.861 204.564ZM110.727 202.429L110.683 204.775C110.56 204.758 110.41 204.743 110.234 204.731C110.064 204.714 109.909 204.705 109.769 204.705C109.411 204.705 109.101 204.752 108.837 204.846C108.579 204.934 108.362 205.065 108.187 205.241C108.017 205.417 107.888 205.631 107.8 205.883C107.718 206.135 107.671 206.422 107.659 206.744L107.149 206.586C107.149 205.971 107.211 205.405 107.334 204.89C107.457 204.368 107.636 203.914 107.87 203.527C108.11 203.141 108.403 202.842 108.749 202.631C109.095 202.42 109.49 202.314 109.936 202.314C110.076 202.314 110.22 202.326 110.366 202.35C110.513 202.367 110.633 202.394 110.727 202.429ZM114.594 202.49V212H112.054V202.49H114.594ZM111.896 200.012C111.896 199.643 112.024 199.338 112.282 199.098C112.54 198.857 112.886 198.737 113.319 198.737C113.747 198.737 114.09 198.857 114.348 199.098C114.611 199.338 114.743 199.643 114.743 200.012C114.743 200.381 114.611 200.686 114.348 200.926C114.09 201.166 113.747 201.286 113.319 201.286C112.886 201.286 112.54 201.166 112.282 200.926C112.024 200.686 111.896 200.381 111.896 200.012ZM121.344 202.49V204.283H115.807V202.49H121.344ZM117.178 200.144H119.709V209.135C119.709 209.41 119.744 209.621 119.814 209.768C119.891 209.914 120.002 210.017 120.148 210.075C120.295 210.128 120.479 210.154 120.702 210.154C120.86 210.154 121.001 210.148 121.124 210.137C121.253 210.119 121.361 210.102 121.449 210.084L121.458 211.947C121.241 212.018 121.007 212.073 120.755 212.114C120.503 212.155 120.225 212.176 119.92 212.176C119.363 212.176 118.877 212.085 118.461 211.903C118.051 211.716 117.734 211.417 117.512 211.007C117.289 210.597 117.178 210.058 117.178 209.39V200.144ZM125.606 210.928L128.129 202.49H130.845L127.021 213.433C126.939 213.673 126.828 213.931 126.688 214.206C126.553 214.481 126.368 214.742 126.134 214.988C125.905 215.24 125.615 215.445 125.264 215.604C124.918 215.762 124.493 215.841 123.989 215.841C123.749 215.841 123.553 215.826 123.4 215.797C123.248 215.768 123.066 215.727 122.855 215.674V213.819C122.92 213.819 122.987 213.819 123.058 213.819C123.128 213.825 123.195 213.828 123.26 213.828C123.594 213.828 123.866 213.79 124.077 213.714C124.288 213.638 124.458 213.521 124.587 213.362C124.716 213.21 124.818 213.011 124.895 212.765L125.606 210.928ZM124.552 202.49L126.617 209.381L126.978 212.062L125.255 212.246L121.836 202.49H124.552ZM141.743 199.203V212H139.115V199.203H141.743ZM145.681 199.203V201.269H135.239V199.203H145.681ZM148.941 204.564V212H146.41V202.49H148.792L148.941 204.564ZM151.807 202.429L151.763 204.775C151.64 204.758 151.49 204.743 151.314 204.731C151.145 204.714 150.989 204.705 150.849 204.705C150.491 204.705 150.181 204.752 149.917 204.846C149.659 204.934 149.442 205.065 149.267 205.241C149.097 205.417 148.968 205.631 148.88 205.883C148.798 206.135 148.751 206.422 148.739 206.744L148.229 206.586C148.229 205.971 148.291 205.405 148.414 204.89C148.537 204.368 148.716 203.914 148.95 203.527C149.19 203.141 149.483 202.842 149.829 202.631C150.175 202.42 150.57 202.314 151.016 202.314C151.156 202.314 151.3 202.326 151.446 202.35C151.593 202.367 151.713 202.394 151.807 202.429ZM158.627 209.724V202.49H161.158V212H158.776L158.627 209.724ZM158.908 207.772L159.655 207.755C159.655 208.388 159.582 208.977 159.436 209.521C159.289 210.061 159.069 210.529 158.776 210.928C158.483 211.32 158.114 211.628 157.669 211.851C157.224 212.067 156.699 212.176 156.096 212.176C155.633 212.176 155.205 212.111 154.812 211.982C154.426 211.848 154.092 211.64 153.811 211.358C153.535 211.071 153.318 210.705 153.16 210.26C153.008 209.809 152.932 209.267 152.932 208.634V202.49H155.463V208.651C155.463 208.933 155.495 209.17 155.56 209.363C155.63 209.557 155.727 209.715 155.85 209.838C155.973 209.961 156.116 210.049 156.28 210.102C156.45 210.154 156.638 210.181 156.843 210.181C157.364 210.181 157.774 210.075 158.073 209.864C158.378 209.653 158.592 209.366 158.715 209.003C158.844 208.634 158.908 208.224 158.908 207.772ZM168.233 209.372C168.233 209.19 168.181 209.026 168.075 208.88C167.97 208.733 167.773 208.599 167.486 208.476C167.205 208.347 166.798 208.229 166.265 208.124C165.784 208.019 165.336 207.887 164.92 207.729C164.51 207.564 164.152 207.368 163.848 207.14C163.549 206.911 163.314 206.642 163.145 206.331C162.975 206.015 162.89 205.654 162.89 205.25C162.89 204.852 162.975 204.477 163.145 204.125C163.32 203.773 163.569 203.463 163.892 203.193C164.22 202.918 164.618 202.704 165.087 202.552C165.562 202.394 166.095 202.314 166.687 202.314C167.513 202.314 168.222 202.446 168.813 202.71C169.411 202.974 169.868 203.337 170.185 203.8C170.507 204.257 170.668 204.778 170.668 205.364H168.137C168.137 205.118 168.084 204.898 167.979 204.705C167.879 204.506 167.721 204.351 167.504 204.239C167.293 204.122 167.018 204.063 166.678 204.063C166.396 204.063 166.153 204.113 165.948 204.213C165.743 204.307 165.585 204.436 165.474 204.6C165.368 204.758 165.315 204.934 165.315 205.127C165.315 205.273 165.345 205.405 165.403 205.522C165.468 205.634 165.57 205.736 165.711 205.83C165.852 205.924 166.033 206.012 166.256 206.094C166.484 206.17 166.766 206.24 167.1 206.305C167.785 206.445 168.397 206.63 168.937 206.858C169.476 207.081 169.903 207.386 170.22 207.772C170.536 208.153 170.694 208.654 170.694 209.275C170.694 209.697 170.601 210.084 170.413 210.436C170.226 210.787 169.956 211.095 169.604 211.358C169.253 211.616 168.831 211.818 168.339 211.965C167.853 212.105 167.305 212.176 166.695 212.176C165.811 212.176 165.061 212.018 164.445 211.701C163.836 211.385 163.373 210.983 163.057 210.497C162.746 210.005 162.591 209.501 162.591 208.985H164.99C165.002 209.331 165.09 209.609 165.254 209.82C165.424 210.031 165.638 210.184 165.896 210.277C166.159 210.371 166.443 210.418 166.748 210.418C167.076 210.418 167.349 210.374 167.565 210.286C167.782 210.192 167.946 210.069 168.058 209.917C168.175 209.759 168.233 209.577 168.233 209.372ZM176.996 202.49V204.283H171.459V202.49H176.996ZM172.83 200.144H175.361V209.135C175.361 209.41 175.396 209.621 175.467 209.768C175.543 209.914 175.654 210.017 175.801 210.075C175.947 210.128 176.132 210.154 176.354 210.154C176.513 210.154 176.653 210.148 176.776 210.137C176.905 210.119 177.014 210.102 177.102 210.084L177.11 211.947C176.894 212.018 176.659 212.073 176.407 212.114C176.155 212.155 175.877 212.176 175.572 212.176C175.016 212.176 174.529 212.085 174.113 211.903C173.703 211.716 173.387 211.417 173.164 211.007C172.941 210.597 172.83 210.058 172.83 209.39V200.144ZM185.715 199.203V212H183.078V199.203H185.715ZM190.812 204.67V206.727H184.994V204.67H190.812ZM191.428 199.203V201.269H184.994V199.203H191.428ZM198.23 209.724V202.49H200.762V212H198.38L198.23 209.724ZM198.512 207.772L199.259 207.755C199.259 208.388 199.186 208.977 199.039 209.521C198.893 210.061 198.673 210.529 198.38 210.928C198.087 211.32 197.718 211.628 197.272 211.851C196.827 212.067 196.303 212.176 195.699 212.176C195.236 212.176 194.809 212.111 194.416 211.982C194.029 211.848 193.695 211.64 193.414 211.358C193.139 211.071 192.922 210.705 192.764 210.26C192.611 209.809 192.535 209.267 192.535 208.634V202.49H195.066V208.651C195.066 208.933 195.099 209.17 195.163 209.363C195.233 209.557 195.33 209.715 195.453 209.838C195.576 209.961 195.72 210.049 195.884 210.102C196.054 210.154 196.241 210.181 196.446 210.181C196.968 210.181 197.378 210.075 197.677 209.864C197.981 209.653 198.195 209.366 198.318 209.003C198.447 208.634 198.512 208.224 198.512 207.772ZM205.174 204.521V212H202.643V202.49H205.016L205.174 204.521ZM204.805 206.911H204.119C204.119 206.208 204.21 205.575 204.392 205.013C204.573 204.444 204.828 203.961 205.156 203.562C205.484 203.158 205.874 202.851 206.325 202.64C206.782 202.423 207.292 202.314 207.854 202.314C208.3 202.314 208.707 202.379 209.076 202.508C209.445 202.637 209.762 202.842 210.025 203.123C210.295 203.404 210.5 203.776 210.641 204.239C210.787 204.702 210.86 205.268 210.86 205.936V212H208.312V205.927C208.312 205.505 208.253 205.177 208.136 204.942C208.019 204.708 207.846 204.544 207.617 204.45C207.395 204.351 207.119 204.301 206.791 204.301C206.451 204.301 206.155 204.368 205.903 204.503C205.657 204.638 205.452 204.825 205.288 205.065C205.13 205.3 205.01 205.575 204.928 205.892C204.846 206.208 204.805 206.548 204.805 206.911ZM218.401 209.926V198.5H220.95V212H218.656L218.401 209.926ZM212.39 207.359V207.175C212.39 206.448 212.472 205.789 212.636 205.197C212.8 204.6 213.04 204.087 213.356 203.659C213.673 203.231 214.062 202.9 214.525 202.666C214.988 202.432 215.516 202.314 216.107 202.314C216.664 202.314 217.15 202.432 217.566 202.666C217.988 202.9 218.346 203.234 218.639 203.668C218.938 204.096 219.178 204.603 219.359 205.188C219.541 205.769 219.673 206.404 219.755 207.096V207.5C219.673 208.162 219.541 208.777 219.359 209.346C219.178 209.914 218.938 210.412 218.639 210.84C218.346 211.262 217.988 211.59 217.566 211.824C217.145 212.059 216.652 212.176 216.09 212.176C215.498 212.176 214.971 212.056 214.508 211.815C214.051 211.575 213.664 211.238 213.348 210.805C213.037 210.371 212.8 209.861 212.636 209.275C212.472 208.689 212.39 208.051 212.39 207.359ZM214.921 207.175V207.359C214.921 207.752 214.95 208.118 215.009 208.458C215.073 208.798 215.176 209.1 215.316 209.363C215.463 209.621 215.65 209.823 215.879 209.97C216.113 210.11 216.397 210.181 216.731 210.181C217.165 210.181 217.522 210.084 217.804 209.891C218.085 209.691 218.299 209.419 218.445 209.073C218.598 208.728 218.686 208.329 218.709 207.878V206.727C218.691 206.357 218.639 206.026 218.551 205.733C218.469 205.435 218.346 205.18 218.182 204.969C218.023 204.758 217.824 204.594 217.584 204.477C217.35 204.359 217.071 204.301 216.749 204.301C216.421 204.301 216.14 204.377 215.905 204.529C215.671 204.676 215.48 204.878 215.334 205.136C215.193 205.394 215.088 205.698 215.018 206.05C214.953 206.396 214.921 206.771 214.921 207.175Z" fill="#0066CC"/>
<path d="M96.4092 240.582V242.533C96.4092 243.582 96.3154 244.467 96.1279 245.188C95.9404 245.908 95.6709 246.488 95.3193 246.928C94.9678 247.367 94.543 247.687 94.0449 247.886C93.5527 248.079 92.9961 248.176 92.375 248.176C91.8828 248.176 91.4287 248.114 91.0127 247.991C90.5967 247.868 90.2217 247.672 89.8877 247.402C89.5596 247.127 89.2783 246.77 89.0439 246.33C88.8096 245.891 88.6309 245.357 88.5078 244.73C88.3848 244.104 88.3232 243.371 88.3232 242.533V240.582C88.3232 239.533 88.417 238.654 88.6045 237.945C88.7979 237.236 89.0703 236.668 89.4219 236.24C89.7734 235.807 90.1953 235.496 90.6875 235.309C91.1855 235.121 91.7422 235.027 92.3574 235.027C92.8555 235.027 93.3125 235.089 93.7285 235.212C94.1504 235.329 94.5254 235.52 94.8535 235.783C95.1816 236.041 95.46 236.387 95.6885 236.82C95.9229 237.248 96.1016 237.772 96.2246 238.394C96.3477 239.015 96.4092 239.744 96.4092 240.582ZM94.7744 242.797V240.31C94.7744 239.735 94.7393 239.231 94.6689 238.798C94.6045 238.358 94.5078 237.983 94.3789 237.673C94.25 237.362 94.0859 237.11 93.8867 236.917C93.6934 236.724 93.4678 236.583 93.21 236.495C92.958 236.401 92.6738 236.354 92.3574 236.354C91.9707 236.354 91.6279 236.428 91.3291 236.574C91.0303 236.715 90.7783 236.94 90.5732 237.251C90.374 237.562 90.2217 237.969 90.1162 238.473C90.0107 238.977 89.958 239.589 89.958 240.31V242.797C89.958 243.371 89.9902 243.878 90.0547 244.317C90.125 244.757 90.2275 245.138 90.3623 245.46C90.4971 245.776 90.6611 246.037 90.8545 246.242C91.0479 246.447 91.2705 246.6 91.5225 246.699C91.7803 246.793 92.0645 246.84 92.375 246.84C92.7734 246.84 93.1221 246.764 93.4209 246.611C93.7197 246.459 93.9688 246.222 94.168 245.899C94.373 245.571 94.5254 245.152 94.625 244.643C94.7246 244.127 94.7744 243.512 94.7744 242.797ZM106.569 244.537C106.569 245.316 106.388 245.979 106.024 246.523C105.667 247.062 105.181 247.473 104.565 247.754C103.956 248.035 103.268 248.176 102.5 248.176C101.732 248.176 101.041 248.035 100.426 247.754C99.8105 247.473 99.3242 247.062 98.9668 246.523C98.6094 245.979 98.4307 245.316 98.4307 244.537C98.4307 244.027 98.5273 243.562 98.7207 243.14C98.9199 242.712 99.1982 242.34 99.5557 242.023C99.9189 241.707 100.347 241.464 100.839 241.294C101.337 241.118 101.885 241.03 102.482 241.03C103.268 241.03 103.968 241.183 104.583 241.487C105.198 241.786 105.682 242.199 106.033 242.727C106.391 243.254 106.569 243.857 106.569 244.537ZM104.935 244.502C104.935 244.027 104.832 243.608 104.627 243.245C104.422 242.876 104.135 242.589 103.766 242.384C103.396 242.179 102.969 242.076 102.482 242.076C101.984 242.076 101.554 242.179 101.19 242.384C100.833 242.589 100.555 242.876 100.355 243.245C100.156 243.608 100.057 244.027 100.057 244.502C100.057 244.994 100.153 245.416 100.347 245.768C100.546 246.113 100.827 246.38 101.19 246.567C101.56 246.749 101.996 246.84 102.5 246.84C103.004 246.84 103.438 246.749 103.801 246.567C104.164 246.38 104.442 246.113 104.636 245.768C104.835 245.416 104.935 244.994 104.935 244.502ZM106.271 238.534C106.271 239.155 106.106 239.715 105.778 240.213C105.45 240.711 105.002 241.104 104.434 241.391C103.865 241.678 103.221 241.821 102.5 241.821C101.768 241.821 101.114 241.678 100.54 241.391C99.9717 241.104 99.5264 240.711 99.2041 240.213C98.8818 239.715 98.7207 239.155 98.7207 238.534C98.7207 237.79 98.8818 237.157 99.2041 236.636C99.5322 236.114 99.9805 235.716 100.549 235.44C101.117 235.165 101.765 235.027 102.491 235.027C103.224 235.027 103.874 235.165 104.442 235.44C105.011 235.716 105.456 236.114 105.778 236.636C106.106 237.157 106.271 237.79 106.271 238.534ZM104.645 238.561C104.645 238.133 104.554 237.755 104.372 237.427C104.19 237.099 103.938 236.841 103.616 236.653C103.294 236.46 102.919 236.363 102.491 236.363C102.063 236.363 101.688 236.454 101.366 236.636C101.05 236.812 100.801 237.063 100.619 237.392C100.443 237.72 100.355 238.109 100.355 238.561C100.355 239 100.443 239.384 100.619 239.712C100.801 240.04 101.053 240.295 101.375 240.477C101.697 240.658 102.072 240.749 102.5 240.749C102.928 240.749 103.3 240.658 103.616 240.477C103.938 240.295 104.19 240.04 104.372 239.712C104.554 239.384 104.645 239 104.645 238.561ZM116.659 240.582V242.533C116.659 243.582 116.565 244.467 116.378 245.188C116.19 245.908 115.921 246.488 115.569 246.928C115.218 247.367 114.793 247.687 114.295 247.886C113.803 248.079 113.246 248.176 112.625 248.176C112.133 248.176 111.679 248.114 111.263 247.991C110.847 247.868 110.472 247.672 110.138 247.402C109.81 247.127 109.528 246.77 109.294 246.33C109.06 245.891 108.881 245.357 108.758 244.73C108.635 244.104 108.573 243.371 108.573 242.533V240.582C108.573 239.533 108.667 238.654 108.854 237.945C109.048 237.236 109.32 236.668 109.672 236.24C110.023 235.807 110.445 235.496 110.938 235.309C111.436 235.121 111.992 235.027 112.607 235.027C113.105 235.027 113.562 235.089 113.979 235.212C114.4 235.329 114.775 235.52 115.104 235.783C115.432 236.041 115.71 236.387 115.938 236.82C116.173 237.248 116.352 237.772 116.475 238.394C116.598 239.015 116.659 239.744 116.659 240.582ZM115.024 242.797V240.31C115.024 239.735 114.989 239.231 114.919 238.798C114.854 238.358 114.758 237.983 114.629 237.673C114.5 237.362 114.336 237.11 114.137 236.917C113.943 236.724 113.718 236.583 113.46 236.495C113.208 236.401 112.924 236.354 112.607 236.354C112.221 236.354 111.878 236.428 111.579 236.574C111.28 236.715 111.028 236.94 110.823 237.251C110.624 237.562 110.472 237.969 110.366 238.473C110.261 238.977 110.208 239.589 110.208 240.31V242.797C110.208 243.371 110.24 243.878 110.305 244.317C110.375 244.757 110.478 245.138 110.612 245.46C110.747 245.776 110.911 246.037 111.104 246.242C111.298 246.447 111.521 246.6 111.772 246.699C112.03 246.793 112.314 246.84 112.625 246.84C113.023 246.84 113.372 246.764 113.671 246.611C113.97 246.459 114.219 246.222 114.418 245.899C114.623 245.571 114.775 245.152 114.875 244.643C114.975 244.127 115.024 243.512 115.024 242.797ZM127.136 246.664V248H118.76V246.831L122.952 242.164C123.468 241.59 123.866 241.104 124.147 240.705C124.435 240.301 124.634 239.94 124.745 239.624C124.862 239.302 124.921 238.974 124.921 238.64C124.921 238.218 124.833 237.837 124.657 237.497C124.487 237.151 124.235 236.876 123.901 236.671C123.567 236.466 123.163 236.363 122.688 236.363C122.12 236.363 121.646 236.475 121.265 236.697C120.89 236.914 120.608 237.219 120.421 237.611C120.233 238.004 120.14 238.455 120.14 238.965H118.514C118.514 238.244 118.672 237.585 118.988 236.987C119.305 236.39 119.773 235.915 120.395 235.563C121.016 235.206 121.78 235.027 122.688 235.027C123.497 235.027 124.188 235.171 124.763 235.458C125.337 235.739 125.776 236.138 126.081 236.653C126.392 237.163 126.547 237.761 126.547 238.446C126.547 238.821 126.482 239.202 126.354 239.589C126.23 239.97 126.058 240.351 125.835 240.731C125.618 241.112 125.363 241.487 125.07 241.856C124.783 242.226 124.476 242.589 124.147 242.946L120.72 246.664H127.136ZM136.944 244.537C136.944 245.316 136.763 245.979 136.399 246.523C136.042 247.062 135.556 247.473 134.94 247.754C134.331 248.035 133.643 248.176 132.875 248.176C132.107 248.176 131.416 248.035 130.801 247.754C130.186 247.473 129.699 247.062 129.342 246.523C128.984 245.979 128.806 245.316 128.806 244.537C128.806 244.027 128.902 243.562 129.096 243.14C129.295 242.712 129.573 242.34 129.931 242.023C130.294 241.707 130.722 241.464 131.214 241.294C131.712 241.118 132.26 241.03 132.857 241.03C133.643 241.03 134.343 241.183 134.958 241.487C135.573 241.786 136.057 242.199 136.408 242.727C136.766 243.254 136.944 243.857 136.944 244.537ZM135.31 244.502C135.31 244.027 135.207 243.608 135.002 243.245C134.797 242.876 134.51 242.589 134.141 242.384C133.771 242.179 133.344 242.076 132.857 242.076C132.359 242.076 131.929 242.179 131.565 242.384C131.208 242.589 130.93 242.876 130.73 243.245C130.531 243.608 130.432 244.027 130.432 244.502C130.432 244.994 130.528 245.416 130.722 245.768C130.921 246.113 131.202 246.38 131.565 246.567C131.935 246.749 132.371 246.84 132.875 246.84C133.379 246.84 133.812 246.749 134.176 246.567C134.539 246.38 134.817 246.113 135.011 245.768C135.21 245.416 135.31 244.994 135.31 244.502ZM136.646 238.534C136.646 239.155 136.481 239.715 136.153 240.213C135.825 240.711 135.377 241.104 134.809 241.391C134.24 241.678 133.596 241.821 132.875 241.821C132.143 241.821 131.489 241.678 130.915 241.391C130.347 241.104 129.901 240.711 129.579 240.213C129.257 239.715 129.096 239.155 129.096 238.534C129.096 237.79 129.257 237.157 129.579 236.636C129.907 236.114 130.355 235.716 130.924 235.44C131.492 235.165 132.14 235.027 132.866 235.027C133.599 235.027 134.249 235.165 134.817 235.44C135.386 235.716 135.831 236.114 136.153 236.636C136.481 237.157 136.646 237.79 136.646 238.534ZM135.02 238.561C135.02 238.133 134.929 237.755 134.747 237.427C134.565 237.099 134.313 236.841 133.991 236.653C133.669 236.46 133.294 236.363 132.866 236.363C132.438 236.363 132.063 236.454 131.741 236.636C131.425 236.812 131.176 237.063 130.994 237.392C130.818 237.72 130.73 238.109 130.73 238.561C130.73 239 130.818 239.384 130.994 239.712C131.176 240.04 131.428 240.295 131.75 240.477C132.072 240.658 132.447 240.749 132.875 240.749C133.303 240.749 133.675 240.658 133.991 240.477C134.313 240.295 134.565 240.04 134.747 239.712C134.929 239.384 135.02 239 135.02 238.561ZM141.374 240.802H142.534C143.103 240.802 143.571 240.708 143.94 240.521C144.315 240.327 144.594 240.066 144.775 239.738C144.963 239.404 145.057 239.029 145.057 238.613C145.057 238.121 144.975 237.708 144.811 237.374C144.646 237.04 144.4 236.788 144.072 236.618C143.744 236.448 143.328 236.363 142.824 236.363C142.367 236.363 141.963 236.454 141.611 236.636C141.266 236.812 140.993 237.063 140.794 237.392C140.601 237.72 140.504 238.106 140.504 238.552H138.878C138.878 237.901 139.042 237.31 139.37 236.776C139.698 236.243 140.158 235.818 140.75 235.502C141.348 235.186 142.039 235.027 142.824 235.027C143.598 235.027 144.274 235.165 144.854 235.44C145.435 235.71 145.886 236.114 146.208 236.653C146.53 237.187 146.691 237.852 146.691 238.648C146.691 238.971 146.615 239.316 146.463 239.686C146.316 240.049 146.085 240.389 145.769 240.705C145.458 241.021 145.054 241.282 144.556 241.487C144.058 241.687 143.46 241.786 142.763 241.786H141.374V240.802ZM141.374 242.138V241.162H142.763C143.577 241.162 144.251 241.259 144.784 241.452C145.317 241.646 145.736 241.903 146.041 242.226C146.352 242.548 146.568 242.902 146.691 243.289C146.82 243.67 146.885 244.051 146.885 244.432C146.885 245.029 146.782 245.56 146.577 246.022C146.378 246.485 146.094 246.878 145.725 247.2C145.361 247.522 144.934 247.766 144.441 247.93C143.949 248.094 143.413 248.176 142.833 248.176C142.276 248.176 141.752 248.097 141.26 247.938C140.773 247.78 140.343 247.552 139.968 247.253C139.593 246.948 139.3 246.576 139.089 246.137C138.878 245.691 138.772 245.185 138.772 244.616H140.398C140.398 245.062 140.495 245.451 140.688 245.785C140.888 246.119 141.169 246.38 141.532 246.567C141.901 246.749 142.335 246.84 142.833 246.84C143.331 246.84 143.759 246.755 144.116 246.585C144.479 246.409 144.758 246.146 144.951 245.794C145.15 245.442 145.25 245 145.25 244.467C145.25 243.934 145.139 243.497 144.916 243.157C144.693 242.812 144.377 242.557 143.967 242.393C143.562 242.223 143.085 242.138 142.534 242.138H141.374ZM157.511 246.664V248H149.135V246.831L153.327 242.164C153.843 241.59 154.241 241.104 154.522 240.705C154.81 240.301 155.009 239.94 155.12 239.624C155.237 239.302 155.296 238.974 155.296 238.64C155.296 238.218 155.208 237.837 155.032 237.497C154.862 237.151 154.61 236.876 154.276 236.671C153.942 236.466 153.538 236.363 153.063 236.363C152.495 236.363 152.021 236.475 151.64 236.697C151.265 236.914 150.983 237.219 150.796 237.611C150.608 238.004 150.515 238.455 150.515 238.965H148.889C148.889 238.244 149.047 237.585 149.363 236.987C149.68 236.39 150.148 235.915 150.77 235.563C151.391 235.206 152.155 235.027 153.063 235.027C153.872 235.027 154.563 235.171 155.138 235.458C155.712 235.739 156.151 236.138 156.456 236.653C156.767 237.163 156.922 237.761 156.922 238.446C156.922 238.821 156.857 239.202 156.729 239.589C156.605 239.97 156.433 240.351 156.21 240.731C155.993 241.112 155.738 241.487 155.445 241.856C155.158 242.226 154.851 242.589 154.522 242.946L151.095 246.664H157.511ZM167.319 244.537C167.319 245.316 167.138 245.979 166.774 246.523C166.417 247.062 165.931 247.473 165.315 247.754C164.706 248.035 164.018 248.176 163.25 248.176C162.482 248.176 161.791 248.035 161.176 247.754C160.561 247.473 160.074 247.062 159.717 246.523C159.359 245.979 159.181 245.316 159.181 244.537C159.181 244.027 159.277 243.562 159.471 243.14C159.67 242.712 159.948 242.34 160.306 242.023C160.669 241.707 161.097 241.464 161.589 241.294C162.087 241.118 162.635 241.03 163.232 241.03C164.018 241.03 164.718 241.183 165.333 241.487C165.948 241.786 166.432 242.199 166.783 242.727C167.141 243.254 167.319 243.857 167.319 244.537ZM165.685 244.502C165.685 244.027 165.582 243.608 165.377 243.245C165.172 242.876 164.885 242.589 164.516 242.384C164.146 242.179 163.719 242.076 163.232 242.076C162.734 242.076 162.304 242.179 161.94 242.384C161.583 242.589 161.305 242.876 161.105 243.245C160.906 243.608 160.807 244.027 160.807 244.502C160.807 244.994 160.903 245.416 161.097 245.768C161.296 246.113 161.577 246.38 161.94 246.567C162.31 246.749 162.746 246.84 163.25 246.84C163.754 246.84 164.188 246.749 164.551 246.567C164.914 246.38 165.192 246.113 165.386 245.768C165.585 245.416 165.685 244.994 165.685 244.502ZM167.021 238.534C167.021 239.155 166.856 239.715 166.528 240.213C166.2 240.711 165.752 241.104 165.184 241.391C164.615 241.678 163.971 241.821 163.25 241.821C162.518 241.821 161.864 241.678 161.29 241.391C160.722 241.104 160.276 240.711 159.954 240.213C159.632 239.715 159.471 239.155 159.471 238.534C159.471 237.79 159.632 237.157 159.954 236.636C160.282 236.114 160.73 235.716 161.299 235.44C161.867 235.165 162.515 235.027 163.241 235.027C163.974 235.027 164.624 235.165 165.192 235.44C165.761 235.716 166.206 236.114 166.528 236.636C166.856 237.157 167.021 237.79 167.021 238.534ZM165.395 238.561C165.395 238.133 165.304 237.755 165.122 237.427C164.94 237.099 164.688 236.841 164.366 236.653C164.044 236.46 163.669 236.363 163.241 236.363C162.813 236.363 162.438 236.454 162.116 236.636C161.8 236.812 161.551 237.063 161.369 237.392C161.193 237.72 161.105 238.109 161.105 238.561C161.105 239 161.193 239.384 161.369 239.712C161.551 240.04 161.803 240.295 162.125 240.477C162.447 240.658 162.822 240.749 163.25 240.749C163.678 240.749 164.05 240.658 164.366 240.477C164.688 240.295 164.94 240.04 165.122 239.712C165.304 239.384 165.395 239 165.395 238.561ZM177.761 246.664V248H169.385V246.831L173.577 242.164C174.093 241.59 174.491 241.104 174.772 240.705C175.06 240.301 175.259 239.94 175.37 239.624C175.487 239.302 175.546 238.974 175.546 238.64C175.546 238.218 175.458 237.837 175.282 237.497C175.112 237.151 174.86 236.876 174.526 236.671C174.192 236.466 173.788 236.363 173.313 236.363C172.745 236.363 172.271 236.475 171.89 236.697C171.515 236.914 171.233 237.219 171.046 237.611C170.858 238.004 170.765 238.455 170.765 238.965H169.139C169.139 238.244 169.297 237.585 169.613 236.987C169.93 236.39 170.398 235.915 171.02 235.563C171.641 235.206 172.405 235.027 173.313 235.027C174.122 235.027 174.813 235.171 175.388 235.458C175.962 235.739 176.401 236.138 176.706 236.653C177.017 237.163 177.172 237.761 177.172 238.446C177.172 238.821 177.107 239.202 176.979 239.589C176.855 239.97 176.683 240.351 176.46 240.731C176.243 241.112 175.988 241.487 175.695 241.856C175.408 242.226 175.101 242.589 174.772 242.946L171.345 246.664H177.761ZM187.534 240.582V242.533C187.534 243.582 187.44 244.467 187.253 245.188C187.065 245.908 186.796 246.488 186.444 246.928C186.093 247.367 185.668 247.687 185.17 247.886C184.678 248.079 184.121 248.176 183.5 248.176C183.008 248.176 182.554 248.114 182.138 247.991C181.722 247.868 181.347 247.672 181.013 247.402C180.685 247.127 180.403 246.77 180.169 246.33C179.935 245.891 179.756 245.357 179.633 244.73C179.51 244.104 179.448 243.371 179.448 242.533V240.582C179.448 239.533 179.542 238.654 179.729 237.945C179.923 237.236 180.195 236.668 180.547 236.24C180.898 235.807 181.32 235.496 181.812 235.309C182.311 235.121 182.867 235.027 183.482 235.027C183.98 235.027 184.438 235.089 184.854 235.212C185.275 235.329 185.65 235.52 185.979 235.783C186.307 236.041 186.585 236.387 186.813 236.82C187.048 237.248 187.227 237.772 187.35 238.394C187.473 239.015 187.534 239.744 187.534 240.582ZM185.899 242.797V240.31C185.899 239.735 185.864 239.231 185.794 238.798C185.729 238.358 185.633 237.983 185.504 237.673C185.375 237.362 185.211 237.11 185.012 236.917C184.818 236.724 184.593 236.583 184.335 236.495C184.083 236.401 183.799 236.354 183.482 236.354C183.096 236.354 182.753 236.428 182.454 236.574C182.155 236.715 181.903 236.94 181.698 237.251C181.499 237.562 181.347 237.969 181.241 238.473C181.136 238.977 181.083 239.589 181.083 240.31V242.797C181.083 243.371 181.115 243.878 181.18 244.317C181.25 244.757 181.353 245.138 181.487 245.46C181.622 245.776 181.786 246.037 181.979 246.242C182.173 246.447 182.396 246.6 182.647 246.699C182.905 246.793 183.189 246.84 183.5 246.84C183.898 246.84 184.247 246.764 184.546 246.611C184.845 246.459 185.094 246.222 185.293 245.899C185.498 245.571 185.65 245.152 185.75 244.643C185.85 244.127 185.899 243.512 185.899 242.797ZM198.274 243.693V245.029H189.028V244.071L194.759 235.203H196.086L194.662 237.77L190.874 243.693H198.274ZM196.49 235.203V248H194.864V235.203H196.49Z" fill="black"/>
<circle cx="142.5" cy="95" r="95" fill="white"/>
<path d="M114.682 130V121.882H121.155L129.144 95.1956C129.684 93.4368 130.679 92.0324 132.13 90.9825C133.581 89.9326 135.181 89.4091 136.932 89.4118H149.068C150.821 89.4118 152.423 89.9367 153.874 90.9866C155.325 92.0365 156.319 93.4395 156.856 95.1956L164.845 121.882H171.318V130H114.682ZM138.955 81.2941V61H147.045V81.2941H138.955ZM163.025 91.3397L157.26 85.5559L171.622 71.2485L177.285 76.9309L163.025 91.3397ZM167.273 109.706V101.588H187.5V109.706H167.273ZM122.975 91.3397L108.715 76.9309L114.378 71.2485L128.74 85.5559L122.975 91.3397ZM98.5 109.706V101.588H118.727V109.706H98.5Z" fill="#FF0000"/>
</g>
<defs>
<filter id="filter0_d_38_2642" x="0.5" y="0" width="284" height="365" filterUnits="userSpaceOnUse" color-interpolation-filters="sRGB">
<feFlood flood-opacity="0" result="BackgroundImageFix"/>
<feColorMatrix in="SourceAlpha" type="matrix" values="0 0 0 0 0 0 0 0 0 0 0 0 0 0 0 0 0 0 127 0" result="hardAlpha"/>
<feOffset dy="4"/>
<feGaussianBlur stdDeviation="2"/>
<feComposite in2="hardAlpha" operator="out"/>
<feColorMatrix type="matrix" values="0 0 0 0 0 0 0 0 0 0 0 0 0 0 0 0 0 0 0.25 0"/>
<feBlend mode="normal" in2="BackgroundImageFix" result="effect1_dropShadow_38_2642"/>
<feBlend mode="normal" in="SourceGraphic" in2="effect1_dropShadow_38_2642" result="shape"/>
</filter>
</defs>
</svg>
