<svg width="276" height="357" viewBox="0 0 276 357" fill="none" xmlns="http://www.w3.org/2000/svg">
<rect y="95" width="276" height="262" rx="8" fill="white"/>
<circle cx="138" cy="95" r="95" fill="white"/>
<path d="M46.4717 214.943V217H39.6602V214.943H46.4717ZM40.5215 204.203V217H37.8848V204.203H40.5215ZM45.584 209.415V211.419H39.6602V209.415H45.584ZM46.4629 204.203V206.269H39.6602V204.203H46.4629ZM50.3828 209.459V217H47.8428V207.49H50.2246L50.3828 209.459ZM50.0312 211.911H49.3281C49.3281 211.249 49.4072 210.64 49.5654 210.083C49.7295 209.521 49.9668 209.034 50.2773 208.624C50.5938 208.208 50.9834 207.886 51.4463 207.657C51.9092 207.429 52.4453 207.314 53.0547 207.314C53.4766 207.314 53.8633 207.379 54.2148 207.508C54.5664 207.631 54.8682 207.827 55.1201 208.097C55.3779 208.36 55.5771 208.706 55.7178 209.134C55.8584 209.556 55.9287 210.062 55.9287 210.654V217H53.3975V210.936C53.3975 210.502 53.3389 210.168 53.2217 209.934C53.1045 209.699 52.9375 209.535 52.7207 209.441C52.5098 209.348 52.2549 209.301 51.9561 209.301C51.6279 209.301 51.3408 209.368 51.0947 209.503C50.8545 209.638 50.6553 209.825 50.4971 210.065C50.3389 210.3 50.2217 210.575 50.1455 210.892C50.0693 211.208 50.0312 211.548 50.0312 211.911ZM55.6914 211.621L54.7861 211.735C54.7861 211.114 54.8623 210.537 55.0146 210.004C55.1729 209.471 55.4043 209.002 55.709 208.598C56.0195 208.193 56.4033 207.88 56.8604 207.657C57.3174 207.429 57.8447 207.314 58.4424 207.314C58.8994 207.314 59.3154 207.382 59.6904 207.517C60.0654 207.646 60.3848 207.854 60.6484 208.141C60.918 208.422 61.123 208.791 61.2637 209.248C61.4102 209.705 61.4834 210.265 61.4834 210.927V217H58.9434V210.927C58.9434 210.487 58.8848 210.153 58.7676 209.925C58.6562 209.69 58.4922 209.529 58.2754 209.441C58.0645 209.348 57.8125 209.301 57.5195 209.301C57.2148 209.301 56.9482 209.362 56.7197 209.485C56.4912 209.603 56.3008 209.767 56.1484 209.978C55.9961 210.188 55.8818 210.435 55.8057 210.716C55.7295 210.991 55.6914 211.293 55.6914 211.621ZM67.8203 217.176C67.082 217.176 66.4199 217.059 65.834 216.824C65.248 216.584 64.75 216.253 64.3398 215.831C63.9355 215.409 63.625 214.92 63.4082 214.363C63.1914 213.801 63.083 213.203 63.083 212.57V212.219C63.083 211.498 63.1855 210.839 63.3906 210.241C63.5957 209.644 63.8887 209.125 64.2695 208.686C64.6562 208.246 65.125 207.909 65.6758 207.675C66.2266 207.435 66.8477 207.314 67.5391 207.314C68.2129 207.314 68.8105 207.426 69.332 207.648C69.8535 207.871 70.29 208.188 70.6416 208.598C70.999 209.008 71.2686 209.5 71.4502 210.074C71.6318 210.643 71.7227 211.275 71.7227 211.973V213.027H64.1641V211.34H69.2354V211.146C69.2354 210.795 69.1709 210.481 69.042 210.206C68.9189 209.925 68.7314 209.702 68.4795 209.538C68.2275 209.374 67.9053 209.292 67.5127 209.292C67.1787 209.292 66.8916 209.365 66.6514 209.512C66.4111 209.658 66.2148 209.863 66.0625 210.127C65.916 210.391 65.8047 210.701 65.7285 211.059C65.6582 211.41 65.623 211.797 65.623 212.219V212.57C65.623 212.951 65.6758 213.303 65.7812 213.625C65.8926 213.947 66.0479 214.226 66.2471 214.46C66.4521 214.694 66.6982 214.876 66.9854 215.005C67.2783 215.134 67.6094 215.198 67.9785 215.198C68.4355 215.198 68.8604 215.11 69.2529 214.935C69.6514 214.753 69.9941 214.48 70.2812 214.117L71.5117 215.453C71.3125 215.74 71.04 216.016 70.6943 216.279C70.3545 216.543 69.9443 216.76 69.4639 216.93C68.9834 217.094 68.4355 217.176 67.8203 217.176ZM75.6953 209.564V217H73.1641V207.49H75.5459L75.6953 209.564ZM78.5605 207.429L78.5166 209.775C78.3936 209.758 78.2441 209.743 78.0684 209.731C77.8984 209.714 77.7432 209.705 77.6025 209.705C77.2451 209.705 76.9346 209.752 76.6709 209.846C76.4131 209.934 76.1963 210.065 76.0205 210.241C75.8506 210.417 75.7217 210.631 75.6338 210.883C75.5518 211.135 75.5049 211.422 75.4932 211.744L74.9834 211.586C74.9834 210.971 75.0449 210.405 75.168 209.89C75.291 209.368 75.4697 208.914 75.7041 208.527C75.9443 208.141 76.2373 207.842 76.583 207.631C76.9287 207.42 77.3242 207.314 77.7695 207.314C77.9102 207.314 78.0537 207.326 78.2002 207.35C78.3467 207.367 78.4668 207.394 78.5605 207.429ZM85.6006 207.49H87.8945V216.684C87.8945 217.551 87.7012 218.286 87.3145 218.89C86.9336 219.499 86.4004 219.959 85.7148 220.27C85.0293 220.586 84.2324 220.744 83.3242 220.744C82.9258 220.744 82.5039 220.691 82.0586 220.586C81.6191 220.48 81.1973 220.316 80.793 220.094C80.3945 219.871 80.0605 219.59 79.791 219.25L80.9072 217.756C81.2002 218.096 81.54 218.359 81.9268 218.547C82.3135 218.74 82.7412 218.837 83.21 218.837C83.667 218.837 84.0537 218.752 84.3701 218.582C84.6865 218.418 84.9297 218.175 85.0996 217.853C85.2695 217.536 85.3545 217.152 85.3545 216.701V209.688L85.6006 207.49ZM79.2021 212.359V212.175C79.2021 211.448 79.29 210.789 79.4658 210.197C79.6475 209.6 79.9023 209.087 80.2305 208.659C80.5645 208.231 80.9688 207.9 81.4434 207.666C81.918 207.432 82.4541 207.314 83.0518 207.314C83.6846 207.314 84.2148 207.432 84.6426 207.666C85.0703 207.9 85.4219 208.234 85.6973 208.668C85.9727 209.096 86.1865 209.603 86.3389 210.188C86.4971 210.769 86.6201 211.404 86.708 212.096V212.5C86.6201 213.162 86.4883 213.777 86.3125 214.346C86.1367 214.914 85.9053 215.412 85.6182 215.84C85.3311 216.262 84.9736 216.59 84.5459 216.824C84.124 217.059 83.6201 217.176 83.0342 217.176C82.4482 217.176 81.918 217.056 81.4434 216.815C80.9746 216.575 80.5732 216.238 80.2393 215.805C79.9053 215.371 79.6475 214.861 79.4658 214.275C79.29 213.689 79.2021 213.051 79.2021 212.359ZM81.7334 212.175V212.359C81.7334 212.752 81.7715 213.118 81.8477 213.458C81.9238 213.798 82.041 214.1 82.1992 214.363C82.3633 214.621 82.5654 214.823 82.8057 214.97C83.0518 215.11 83.3418 215.181 83.6758 215.181C84.1387 215.181 84.5166 215.084 84.8096 214.891C85.1025 214.691 85.3223 214.419 85.4688 214.073C85.6152 213.728 85.7002 213.329 85.7236 212.878V211.727C85.7119 211.357 85.6621 211.026 85.5742 210.733C85.4863 210.435 85.3633 210.18 85.2051 209.969C85.0469 209.758 84.8418 209.594 84.5898 209.477C84.3379 209.359 84.0391 209.301 83.6934 209.301C83.3594 209.301 83.0693 209.377 82.8232 209.529C82.583 209.676 82.3809 209.878 82.2168 210.136C82.0586 210.394 81.9385 210.698 81.8564 211.05C81.7744 211.396 81.7334 211.771 81.7334 212.175ZM94.2402 217.176C93.502 217.176 92.8398 217.059 92.2539 216.824C91.668 216.584 91.1699 216.253 90.7598 215.831C90.3555 215.409 90.0449 214.92 89.8281 214.363C89.6113 213.801 89.5029 213.203 89.5029 212.57V212.219C89.5029 211.498 89.6055 210.839 89.8105 210.241C90.0156 209.644 90.3086 209.125 90.6895 208.686C91.0762 208.246 91.5449 207.909 92.0957 207.675C92.6465 207.435 93.2676 207.314 93.959 207.314C94.6328 207.314 95.2305 207.426 95.752 207.648C96.2734 207.871 96.71 208.188 97.0615 208.598C97.4189 209.008 97.6885 209.5 97.8701 210.074C98.0518 210.643 98.1426 211.275 98.1426 211.973V213.027H90.584V211.34H95.6553V211.146C95.6553 210.795 95.5908 210.481 95.4619 210.206C95.3389 209.925 95.1514 209.702 94.8994 209.538C94.6475 209.374 94.3252 209.292 93.9326 209.292C93.5986 209.292 93.3115 209.365 93.0713 209.512C92.8311 209.658 92.6348 209.863 92.4824 210.127C92.3359 210.391 92.2246 210.701 92.1484 211.059C92.0781 211.41 92.043 211.797 92.043 212.219V212.57C92.043 212.951 92.0957 213.303 92.2012 213.625C92.3125 213.947 92.4678 214.226 92.667 214.46C92.8721 214.694 93.1182 214.876 93.4053 215.005C93.6982 215.134 94.0293 215.198 94.3984 215.198C94.8555 215.198 95.2803 215.11 95.6729 214.935C96.0713 214.753 96.4141 214.48 96.7012 214.117L97.9316 215.453C97.7324 215.74 97.46 216.016 97.1143 216.279C96.7744 216.543 96.3643 216.76 95.8838 216.93C95.4033 217.094 94.8555 217.176 94.2402 217.176ZM102.062 209.521V217H99.5312V207.49H101.904L102.062 209.521ZM101.693 211.911H101.008C101.008 211.208 101.099 210.575 101.28 210.013C101.462 209.444 101.717 208.961 102.045 208.562C102.373 208.158 102.763 207.851 103.214 207.64C103.671 207.423 104.181 207.314 104.743 207.314C105.188 207.314 105.596 207.379 105.965 207.508C106.334 207.637 106.65 207.842 106.914 208.123C107.184 208.404 107.389 208.776 107.529 209.239C107.676 209.702 107.749 210.268 107.749 210.936V217H105.2V210.927C105.2 210.505 105.142 210.177 105.024 209.942C104.907 209.708 104.734 209.544 104.506 209.45C104.283 209.351 104.008 209.301 103.68 209.301C103.34 209.301 103.044 209.368 102.792 209.503C102.546 209.638 102.341 209.825 102.177 210.065C102.019 210.3 101.898 210.575 101.816 210.892C101.734 211.208 101.693 211.548 101.693 211.911ZM113.603 215.198C113.913 215.198 114.188 215.14 114.429 215.022C114.669 214.899 114.856 214.729 114.991 214.513C115.132 214.29 115.205 214.029 115.211 213.73H117.593C117.587 214.398 117.408 214.993 117.057 215.515C116.705 216.03 116.233 216.438 115.642 216.736C115.05 217.029 114.388 217.176 113.655 217.176C112.917 217.176 112.272 217.053 111.722 216.807C111.177 216.561 110.723 216.221 110.359 215.787C109.996 215.348 109.724 214.838 109.542 214.258C109.36 213.672 109.27 213.045 109.27 212.377V212.122C109.27 211.448 109.36 210.821 109.542 210.241C109.724 209.655 109.996 209.146 110.359 208.712C110.723 208.272 111.177 207.93 111.722 207.684C112.267 207.438 112.905 207.314 113.638 207.314C114.417 207.314 115.1 207.464 115.686 207.763C116.277 208.062 116.74 208.489 117.074 209.046C117.414 209.597 117.587 210.25 117.593 211.006H115.211C115.205 210.689 115.138 210.402 115.009 210.145C114.886 209.887 114.704 209.682 114.464 209.529C114.229 209.371 113.939 209.292 113.594 209.292C113.225 209.292 112.923 209.371 112.688 209.529C112.454 209.682 112.272 209.893 112.144 210.162C112.015 210.426 111.924 210.728 111.871 211.067C111.824 211.401 111.801 211.753 111.801 212.122V212.377C111.801 212.746 111.824 213.101 111.871 213.44C111.918 213.78 112.006 214.082 112.135 214.346C112.27 214.609 112.454 214.817 112.688 214.97C112.923 215.122 113.228 215.198 113.603 215.198ZM121.882 215.928L124.404 207.49H127.12L123.297 218.433C123.215 218.673 123.104 218.931 122.963 219.206C122.828 219.481 122.644 219.742 122.409 219.988C122.181 220.24 121.891 220.445 121.539 220.604C121.193 220.762 120.769 220.841 120.265 220.841C120.024 220.841 119.828 220.826 119.676 220.797C119.523 220.768 119.342 220.727 119.131 220.674V218.819C119.195 218.819 119.263 218.819 119.333 218.819C119.403 218.825 119.471 218.828 119.535 218.828C119.869 218.828 120.142 218.79 120.353 218.714C120.563 218.638 120.733 218.521 120.862 218.362C120.991 218.21 121.094 218.011 121.17 217.765L121.882 215.928ZM120.827 207.49L122.893 214.381L123.253 217.062L121.53 217.246L118.111 207.49H120.827ZM133.976 204.203H136.208L139.495 213.599L142.782 204.203H145.015L140.392 217H138.599L133.976 204.203ZM132.771 204.203H134.995L135.399 213.361V217H132.771V204.203ZM143.995 204.203H146.228V217H143.591V213.361L143.995 204.203ZM153.514 214.855V210.619C153.514 210.314 153.464 210.054 153.364 209.837C153.265 209.614 153.109 209.441 152.898 209.318C152.693 209.195 152.427 209.134 152.099 209.134C151.817 209.134 151.574 209.184 151.369 209.283C151.164 209.377 151.006 209.515 150.895 209.696C150.783 209.872 150.728 210.08 150.728 210.32H148.196C148.196 209.916 148.29 209.532 148.478 209.169C148.665 208.806 148.938 208.486 149.295 208.211C149.652 207.93 150.077 207.71 150.569 207.552C151.067 207.394 151.624 207.314 152.239 207.314C152.978 207.314 153.634 207.438 154.208 207.684C154.782 207.93 155.233 208.299 155.562 208.791C155.896 209.283 156.062 209.898 156.062 210.637V214.706C156.062 215.228 156.095 215.655 156.159 215.989C156.224 216.317 156.317 216.604 156.44 216.851V217H153.883C153.76 216.742 153.666 216.42 153.602 216.033C153.543 215.641 153.514 215.248 153.514 214.855ZM153.848 211.208L153.865 212.641H152.45C152.116 212.641 151.826 212.679 151.58 212.755C151.334 212.831 151.132 212.939 150.974 213.08C150.815 213.215 150.698 213.373 150.622 213.555C150.552 213.736 150.517 213.936 150.517 214.152C150.517 214.369 150.566 214.565 150.666 214.741C150.766 214.911 150.909 215.046 151.097 215.146C151.284 215.239 151.504 215.286 151.756 215.286C152.137 215.286 152.468 215.21 152.749 215.058C153.03 214.905 153.247 214.718 153.399 214.495C153.558 214.272 153.64 214.062 153.646 213.862L154.313 214.935C154.22 215.175 154.091 215.424 153.927 215.682C153.769 215.939 153.566 216.183 153.32 216.411C153.074 216.634 152.778 216.818 152.433 216.965C152.087 217.105 151.677 217.176 151.202 217.176C150.599 217.176 150.051 217.056 149.559 216.815C149.072 216.569 148.686 216.232 148.398 215.805C148.117 215.371 147.977 214.879 147.977 214.328C147.977 213.83 148.07 213.388 148.258 213.001C148.445 212.614 148.721 212.289 149.084 212.025C149.453 211.756 149.913 211.554 150.464 211.419C151.015 211.278 151.653 211.208 152.38 211.208H153.848ZM160.492 209.521V217H157.961V207.49H160.334L160.492 209.521ZM160.123 211.911H159.438C159.438 211.208 159.528 210.575 159.71 210.013C159.892 209.444 160.146 208.961 160.475 208.562C160.803 208.158 161.192 207.851 161.644 207.64C162.101 207.423 162.61 207.314 163.173 207.314C163.618 207.314 164.025 207.379 164.395 207.508C164.764 207.637 165.08 207.842 165.344 208.123C165.613 208.404 165.818 208.776 165.959 209.239C166.105 209.702 166.179 210.268 166.179 210.936V217H163.63V210.927C163.63 210.505 163.571 210.177 163.454 209.942C163.337 209.708 163.164 209.544 162.936 209.45C162.713 209.351 162.438 209.301 162.109 209.301C161.77 209.301 161.474 209.368 161.222 209.503C160.976 209.638 160.771 209.825 160.606 210.065C160.448 210.3 160.328 210.575 160.246 210.892C160.164 211.208 160.123 211.548 160.123 211.911ZM173.236 214.855V210.619C173.236 210.314 173.187 210.054 173.087 209.837C172.987 209.614 172.832 209.441 172.621 209.318C172.416 209.195 172.149 209.134 171.821 209.134C171.54 209.134 171.297 209.184 171.092 209.283C170.887 209.377 170.729 209.515 170.617 209.696C170.506 209.872 170.45 210.08 170.45 210.32H167.919C167.919 209.916 168.013 209.532 168.2 209.169C168.388 208.806 168.66 208.486 169.018 208.211C169.375 207.93 169.8 207.71 170.292 207.552C170.79 207.394 171.347 207.314 171.962 207.314C172.7 207.314 173.356 207.438 173.931 207.684C174.505 207.93 174.956 208.299 175.284 208.791C175.618 209.283 175.785 209.898 175.785 210.637V214.706C175.785 215.228 175.817 215.655 175.882 215.989C175.946 216.317 176.04 216.604 176.163 216.851V217H173.605C173.482 216.742 173.389 216.42 173.324 216.033C173.266 215.641 173.236 215.248 173.236 214.855ZM173.57 211.208L173.588 212.641H172.173C171.839 212.641 171.549 212.679 171.303 212.755C171.057 212.831 170.854 212.939 170.696 213.08C170.538 213.215 170.421 213.373 170.345 213.555C170.274 213.736 170.239 213.936 170.239 214.152C170.239 214.369 170.289 214.565 170.389 214.741C170.488 214.911 170.632 215.046 170.819 215.146C171.007 215.239 171.227 215.286 171.479 215.286C171.859 215.286 172.19 215.21 172.472 215.058C172.753 214.905 172.97 214.718 173.122 214.495C173.28 214.272 173.362 214.062 173.368 213.862L174.036 214.935C173.942 215.175 173.813 215.424 173.649 215.682C173.491 215.939 173.289 216.183 173.043 216.411C172.797 216.634 172.501 216.818 172.155 216.965C171.81 217.105 171.399 217.176 170.925 217.176C170.321 217.176 169.773 217.056 169.281 216.815C168.795 216.569 168.408 216.232 168.121 215.805C167.84 215.371 167.699 214.879 167.699 214.328C167.699 213.83 167.793 213.388 167.98 213.001C168.168 212.614 168.443 212.289 168.807 212.025C169.176 211.756 169.636 211.554 170.187 211.419C170.737 211.278 171.376 211.208 172.103 211.208H173.57ZM183.757 207.49H186.051V216.684C186.051 217.551 185.857 218.286 185.471 218.89C185.09 219.499 184.557 219.959 183.871 220.27C183.186 220.586 182.389 220.744 181.48 220.744C181.082 220.744 180.66 220.691 180.215 220.586C179.775 220.48 179.354 220.316 178.949 220.094C178.551 219.871 178.217 219.59 177.947 219.25L179.063 217.756C179.356 218.096 179.696 218.359 180.083 218.547C180.47 218.74 180.897 218.837 181.366 218.837C181.823 218.837 182.21 218.752 182.526 218.582C182.843 218.418 183.086 218.175 183.256 217.853C183.426 217.536 183.511 217.152 183.511 216.701V209.688L183.757 207.49ZM177.358 212.359V212.175C177.358 211.448 177.446 210.789 177.622 210.197C177.804 209.6 178.059 209.087 178.387 208.659C178.721 208.231 179.125 207.9 179.6 207.666C180.074 207.432 180.61 207.314 181.208 207.314C181.841 207.314 182.371 207.432 182.799 207.666C183.227 207.9 183.578 208.234 183.854 208.668C184.129 209.096 184.343 209.603 184.495 210.188C184.653 210.769 184.776 211.404 184.864 212.096V212.5C184.776 213.162 184.645 213.777 184.469 214.346C184.293 214.914 184.062 215.412 183.774 215.84C183.487 216.262 183.13 216.59 182.702 216.824C182.28 217.059 181.776 217.176 181.19 217.176C180.604 217.176 180.074 217.056 179.6 216.815C179.131 216.575 178.729 216.238 178.396 215.805C178.062 215.371 177.804 214.861 177.622 214.275C177.446 213.689 177.358 213.051 177.358 212.359ZM179.89 212.175V212.359C179.89 212.752 179.928 213.118 180.004 213.458C180.08 213.798 180.197 214.1 180.355 214.363C180.52 214.621 180.722 214.823 180.962 214.97C181.208 215.11 181.498 215.181 181.832 215.181C182.295 215.181 182.673 215.084 182.966 214.891C183.259 214.691 183.479 214.419 183.625 214.073C183.771 213.728 183.856 213.329 183.88 212.878V211.727C183.868 211.357 183.818 211.026 183.73 210.733C183.643 210.435 183.52 210.18 183.361 209.969C183.203 209.758 182.998 209.594 182.746 209.477C182.494 209.359 182.195 209.301 181.85 209.301C181.516 209.301 181.226 209.377 180.979 209.529C180.739 209.676 180.537 209.878 180.373 210.136C180.215 210.394 180.095 210.698 180.013 211.05C179.931 211.396 179.89 211.771 179.89 212.175ZM192.396 217.176C191.658 217.176 190.996 217.059 190.41 216.824C189.824 216.584 189.326 216.253 188.916 215.831C188.512 215.409 188.201 214.92 187.984 214.363C187.768 213.801 187.659 213.203 187.659 212.57V212.219C187.659 211.498 187.762 210.839 187.967 210.241C188.172 209.644 188.465 209.125 188.846 208.686C189.232 208.246 189.701 207.909 190.252 207.675C190.803 207.435 191.424 207.314 192.115 207.314C192.789 207.314 193.387 207.426 193.908 207.648C194.43 207.871 194.866 208.188 195.218 208.598C195.575 209.008 195.845 209.5 196.026 210.074C196.208 210.643 196.299 211.275 196.299 211.973V213.027H188.74V211.34H193.812V211.146C193.812 210.795 193.747 210.481 193.618 210.206C193.495 209.925 193.308 209.702 193.056 209.538C192.804 209.374 192.481 209.292 192.089 209.292C191.755 209.292 191.468 209.365 191.228 209.512C190.987 209.658 190.791 209.863 190.639 210.127C190.492 210.391 190.381 210.701 190.305 211.059C190.234 211.41 190.199 211.797 190.199 212.219V212.57C190.199 212.951 190.252 213.303 190.357 213.625C190.469 213.947 190.624 214.226 190.823 214.46C191.028 214.694 191.274 214.876 191.562 215.005C191.854 215.134 192.186 215.198 192.555 215.198C193.012 215.198 193.437 215.11 193.829 214.935C194.228 214.753 194.57 214.48 194.857 214.117L196.088 215.453C195.889 215.74 195.616 216.016 195.271 216.279C194.931 216.543 194.521 216.76 194.04 216.93C193.56 217.094 193.012 217.176 192.396 217.176ZM200.271 209.459V217H197.731V207.49H200.113L200.271 209.459ZM199.92 211.911H199.217C199.217 211.249 199.296 210.64 199.454 210.083C199.618 209.521 199.855 209.034 200.166 208.624C200.482 208.208 200.872 207.886 201.335 207.657C201.798 207.429 202.334 207.314 202.943 207.314C203.365 207.314 203.752 207.379 204.104 207.508C204.455 207.631 204.757 207.827 205.009 208.097C205.267 208.36 205.466 208.706 205.606 209.134C205.747 209.556 205.817 210.062 205.817 210.654V217H203.286V210.936C203.286 210.502 203.228 210.168 203.11 209.934C202.993 209.699 202.826 209.535 202.609 209.441C202.398 209.348 202.144 209.301 201.845 209.301C201.517 209.301 201.229 209.368 200.983 209.503C200.743 209.638 200.544 209.825 200.386 210.065C200.228 210.3 200.11 210.575 200.034 210.892C199.958 211.208 199.92 211.548 199.92 211.911ZM205.58 211.621L204.675 211.735C204.675 211.114 204.751 210.537 204.903 210.004C205.062 209.471 205.293 209.002 205.598 208.598C205.908 208.193 206.292 207.88 206.749 207.657C207.206 207.429 207.733 207.314 208.331 207.314C208.788 207.314 209.204 207.382 209.579 207.517C209.954 207.646 210.273 207.854 210.537 208.141C210.807 208.422 211.012 208.791 211.152 209.248C211.299 209.705 211.372 210.265 211.372 210.927V217H208.832V210.927C208.832 210.487 208.773 210.153 208.656 209.925C208.545 209.69 208.381 209.529 208.164 209.441C207.953 209.348 207.701 209.301 207.408 209.301C207.104 209.301 206.837 209.362 206.608 209.485C206.38 209.603 206.189 209.767 206.037 209.978C205.885 210.188 205.771 210.435 205.694 210.716C205.618 210.991 205.58 211.293 205.58 211.621ZM217.709 217.176C216.971 217.176 216.309 217.059 215.723 216.824C215.137 216.584 214.639 216.253 214.229 215.831C213.824 215.409 213.514 214.92 213.297 214.363C213.08 213.801 212.972 213.203 212.972 212.57V212.219C212.972 211.498 213.074 210.839 213.279 210.241C213.484 209.644 213.777 209.125 214.158 208.686C214.545 208.246 215.014 207.909 215.564 207.675C216.115 207.435 216.736 207.314 217.428 207.314C218.102 207.314 218.699 207.426 219.221 207.648C219.742 207.871 220.179 208.188 220.53 208.598C220.888 209.008 221.157 209.5 221.339 210.074C221.521 210.643 221.611 211.275 221.611 211.973V213.027H214.053V211.34H219.124V211.146C219.124 210.795 219.06 210.481 218.931 210.206C218.808 209.925 218.62 209.702 218.368 209.538C218.116 209.374 217.794 209.292 217.401 209.292C217.067 209.292 216.78 209.365 216.54 209.512C216.3 209.658 216.104 209.863 215.951 210.127C215.805 210.391 215.693 210.701 215.617 211.059C215.547 211.41 215.512 211.797 215.512 212.219V212.57C215.512 212.951 215.564 213.303 215.67 213.625C215.781 213.947 215.937 214.226 216.136 214.46C216.341 214.694 216.587 214.876 216.874 215.005C217.167 215.134 217.498 215.198 217.867 215.198C218.324 215.198 218.749 215.11 219.142 214.935C219.54 214.753 219.883 214.48 220.17 214.117L221.4 215.453C221.201 215.74 220.929 216.016 220.583 216.279C220.243 216.543 219.833 216.76 219.353 216.93C218.872 217.094 218.324 217.176 217.709 217.176ZM225.531 209.521V217H223V207.49H225.373L225.531 209.521ZM225.162 211.911H224.477C224.477 211.208 224.567 210.575 224.749 210.013C224.931 209.444 225.186 208.961 225.514 208.562C225.842 208.158 226.231 207.851 226.683 207.64C227.14 207.423 227.649 207.314 228.212 207.314C228.657 207.314 229.064 207.379 229.434 207.508C229.803 207.637 230.119 207.842 230.383 208.123C230.652 208.404 230.857 208.776 230.998 209.239C231.145 209.702 231.218 210.268 231.218 210.936V217H228.669V210.927C228.669 210.505 228.61 210.177 228.493 209.942C228.376 209.708 228.203 209.544 227.975 209.45C227.752 209.351 227.477 209.301 227.148 209.301C226.809 209.301 226.513 209.368 226.261 209.503C226.015 209.638 225.81 209.825 225.646 210.065C225.487 210.3 225.367 210.575 225.285 210.892C225.203 211.208 225.162 211.548 225.162 211.911ZM237.801 207.49V209.283H232.264V207.49H237.801ZM233.635 205.144H236.166V214.135C236.166 214.41 236.201 214.621 236.271 214.768C236.348 214.914 236.459 215.017 236.605 215.075C236.752 215.128 236.937 215.154 237.159 215.154C237.317 215.154 237.458 215.148 237.581 215.137C237.71 215.119 237.818 215.102 237.906 215.084L237.915 216.947C237.698 217.018 237.464 217.073 237.212 217.114C236.96 217.155 236.682 217.176 236.377 217.176C235.82 217.176 235.334 217.085 234.918 216.903C234.508 216.716 234.191 216.417 233.969 216.007C233.746 215.597 233.635 215.058 233.635 214.39V205.144ZM96.666 237.99V237.797C96.666 236.561 96.7949 235.438 97.0527 234.431C97.3164 233.423 97.6621 232.538 98.0898 231.776C98.5234 231.009 98.9951 230.373 99.5049 229.869C100.015 229.365 100.521 229.002 101.025 228.779L101.509 230.115C101.175 230.361 100.847 230.701 100.524 231.135C100.202 231.562 99.9092 232.09 99.6455 232.717C99.3877 233.338 99.1797 234.07 99.0215 234.914C98.8633 235.752 98.7842 236.707 98.7842 237.779V238.008C98.7842 239.08 98.8633 240.038 99.0215 240.882C99.1797 241.72 99.3877 242.452 99.6455 243.079C99.9092 243.712 100.202 244.245 100.524 244.679C100.847 245.112 101.175 245.455 101.509 245.707L101.025 247.008C100.521 246.785 100.015 246.422 99.5049 245.918C98.9951 245.42 98.5234 244.787 98.0898 244.02C97.6621 243.258 97.3164 242.373 97.0527 241.365C96.7949 240.352 96.666 239.227 96.666 237.99ZM111.229 240.943V243H104.787V240.943H111.229ZM105.64 230.203V243H103.003V230.203H105.64ZM118.12 232.392L114.64 243H111.836L116.591 230.203H118.375L118.12 232.392ZM121.012 243L117.522 232.392L117.241 230.203H119.043L123.824 243H121.012ZM120.854 238.236V240.302H114.095V238.236H120.854ZM131.673 239.651C131.673 239.423 131.638 239.218 131.567 239.036C131.503 238.849 131.38 238.679 131.198 238.526C131.017 238.368 130.762 238.213 130.434 238.061C130.105 237.908 129.681 237.75 129.159 237.586C128.579 237.398 128.028 237.188 127.507 236.953C126.991 236.719 126.534 236.446 126.136 236.136C125.743 235.819 125.433 235.453 125.204 235.037C124.981 234.621 124.87 234.138 124.87 233.587C124.87 233.054 124.987 232.57 125.222 232.137C125.456 231.697 125.784 231.322 126.206 231.012C126.628 230.695 127.126 230.452 127.7 230.282C128.28 230.112 128.916 230.027 129.607 230.027C130.551 230.027 131.374 230.197 132.077 230.537C132.78 230.877 133.325 231.343 133.712 231.935C134.104 232.526 134.301 233.203 134.301 233.965H131.682C131.682 233.59 131.603 233.262 131.444 232.98C131.292 232.693 131.058 232.468 130.741 232.304C130.431 232.14 130.038 232.058 129.563 232.058C129.106 232.058 128.726 232.128 128.421 232.269C128.116 232.403 127.888 232.588 127.735 232.822C127.583 233.051 127.507 233.309 127.507 233.596C127.507 233.812 127.56 234.009 127.665 234.185C127.776 234.36 127.94 234.524 128.157 234.677C128.374 234.829 128.641 234.973 128.957 235.107C129.273 235.242 129.64 235.374 130.056 235.503C130.753 235.714 131.365 235.951 131.893 236.215C132.426 236.479 132.871 236.774 133.229 237.103C133.586 237.431 133.855 237.803 134.037 238.219C134.219 238.635 134.31 239.106 134.31 239.634C134.31 240.19 134.201 240.688 133.984 241.128C133.768 241.567 133.454 241.939 133.044 242.244C132.634 242.549 132.145 242.78 131.576 242.938C131.008 243.097 130.372 243.176 129.669 243.176C129.036 243.176 128.412 243.094 127.797 242.93C127.182 242.76 126.622 242.505 126.118 242.165C125.62 241.825 125.222 241.392 124.923 240.864C124.624 240.337 124.475 239.713 124.475 238.992H127.12C127.12 239.391 127.182 239.728 127.305 240.003C127.428 240.278 127.601 240.501 127.823 240.671C128.052 240.841 128.321 240.964 128.632 241.04C128.948 241.116 129.294 241.154 129.669 241.154C130.126 241.154 130.501 241.09 130.794 240.961C131.093 240.832 131.312 240.653 131.453 240.425C131.6 240.196 131.673 239.938 131.673 239.651ZM144.689 240.943V243H137.878V240.943H144.689ZM138.739 230.203V243H136.103V230.203H138.739ZM143.802 235.415V237.419H137.878V235.415H143.802ZM144.681 230.203V232.269H137.878V230.203H144.681ZM147.432 230.203H149.664L152.951 239.599L156.238 230.203H158.471L153.848 243H152.055L147.432 230.203ZM146.228 230.203H148.451L148.855 239.361V243H146.228V230.203ZM157.451 230.203H159.684V243H157.047V239.361L157.451 230.203ZM167.356 232.392L163.876 243H161.072L165.827 230.203H167.611L167.356 232.392ZM170.248 243L166.759 232.392L166.478 230.203H168.279L173.061 243H170.248ZM170.09 238.236V240.302H163.331V238.236H170.09ZM178.439 237.797V237.99C178.439 239.186 178.305 240.287 178.035 241.295C177.766 242.297 177.408 243.185 176.963 243.958C176.523 244.737 176.04 245.385 175.513 245.9C174.991 246.416 174.47 246.785 173.948 247.008L173.456 245.707C173.79 245.461 174.115 245.121 174.432 244.688C174.754 244.254 175.047 243.721 175.311 243.088C175.574 242.461 175.782 241.726 175.935 240.882C176.093 240.038 176.172 239.08 176.172 238.008V237.779C176.172 236.707 176.093 235.749 175.935 234.905C175.776 234.062 175.562 233.326 175.293 232.699C175.029 232.066 174.736 231.536 174.414 231.108C174.098 230.675 173.778 230.335 173.456 230.089L173.948 228.779C174.47 229.002 174.991 229.374 175.513 229.896C176.04 230.411 176.523 231.056 176.963 231.829C177.408 232.603 177.766 233.493 178.035 234.501C178.305 235.503 178.439 236.602 178.439 237.797Z" fill="#0066CC"/>
<path d="M29.4385 271.582V273.533C29.4385 274.582 29.3447 275.467 29.1572 276.188C28.9697 276.908 28.7002 277.488 28.3486 277.928C27.9971 278.367 27.5723 278.687 27.0742 278.886C26.582 279.079 26.0254 279.176 25.4043 279.176C24.9121 279.176 24.458 279.114 24.042 278.991C23.626 278.868 23.251 278.672 22.917 278.402C22.5889 278.127 22.3076 277.77 22.0732 277.33C21.8389 276.891 21.6602 276.357 21.5371 275.73C21.4141 275.104 21.3525 274.371 21.3525 273.533V271.582C21.3525 270.533 21.4463 269.654 21.6338 268.945C21.8271 268.236 22.0996 267.668 22.4512 267.24C22.8027 266.807 23.2246 266.496 23.7168 266.309C24.2148 266.121 24.7715 266.027 25.3867 266.027C25.8848 266.027 26.3418 266.089 26.7578 266.212C27.1797 266.329 27.5547 266.52 27.8828 266.783C28.2109 267.041 28.4893 267.387 28.7178 267.82C28.9521 268.248 29.1309 268.772 29.2539 269.394C29.377 270.015 29.4385 270.744 29.4385 271.582ZM27.8037 273.797V271.31C27.8037 270.735 27.7686 270.231 27.6982 269.798C27.6338 269.358 27.5371 268.983 27.4082 268.673C27.2793 268.362 27.1152 268.11 26.916 267.917C26.7227 267.724 26.4971 267.583 26.2393 267.495C25.9873 267.401 25.7031 267.354 25.3867 267.354C25 267.354 24.6572 267.428 24.3584 267.574C24.0596 267.715 23.8076 267.94 23.6025 268.251C23.4033 268.562 23.251 268.969 23.1455 269.473C23.04 269.977 22.9873 270.589 22.9873 271.31V273.797C22.9873 274.371 23.0195 274.878 23.084 275.317C23.1543 275.757 23.2568 276.138 23.3916 276.46C23.5264 276.776 23.6904 277.037 23.8838 277.242C24.0771 277.447 24.2998 277.6 24.5518 277.699C24.8096 277.793 25.0938 277.84 25.4043 277.84C25.8027 277.84 26.1514 277.764 26.4502 277.611C26.749 277.459 26.998 277.222 27.1973 276.899C27.4023 276.571 27.5547 276.152 27.6543 275.643C27.7539 275.127 27.8037 274.512 27.8037 273.797ZM39.5986 275.537C39.5986 276.316 39.417 276.979 39.0537 277.523C38.6963 278.062 38.21 278.473 37.5947 278.754C36.9854 279.035 36.2969 279.176 35.5293 279.176C34.7617 279.176 34.0703 279.035 33.4551 278.754C32.8398 278.473 32.3535 278.062 31.9961 277.523C31.6387 276.979 31.46 276.316 31.46 275.537C31.46 275.027 31.5566 274.562 31.75 274.14C31.9492 273.712 32.2275 273.34 32.585 273.023C32.9482 272.707 33.376 272.464 33.8682 272.294C34.3662 272.118 34.9141 272.03 35.5117 272.03C36.2969 272.03 36.9971 272.183 37.6123 272.487C38.2275 272.786 38.7109 273.199 39.0625 273.727C39.4199 274.254 39.5986 274.857 39.5986 275.537ZM37.9639 275.502C37.9639 275.027 37.8613 274.608 37.6562 274.245C37.4512 273.876 37.1641 273.589 36.7949 273.384C36.4258 273.179 35.998 273.076 35.5117 273.076C35.0137 273.076 34.583 273.179 34.2197 273.384C33.8623 273.589 33.584 273.876 33.3848 274.245C33.1855 274.608 33.0859 275.027 33.0859 275.502C33.0859 275.994 33.1826 276.416 33.376 276.768C33.5752 277.113 33.8564 277.38 34.2197 277.567C34.5889 277.749 35.0254 277.84 35.5293 277.84C36.0332 277.84 36.4668 277.749 36.8301 277.567C37.1934 277.38 37.4717 277.113 37.665 276.768C37.8643 276.416 37.9639 275.994 37.9639 275.502ZM39.2998 269.534C39.2998 270.155 39.1357 270.715 38.8076 271.213C38.4795 271.711 38.0312 272.104 37.4629 272.391C36.8945 272.678 36.25 272.821 35.5293 272.821C34.7969 272.821 34.1436 272.678 33.5693 272.391C33.001 272.104 32.5557 271.711 32.2334 271.213C31.9111 270.715 31.75 270.155 31.75 269.534C31.75 268.79 31.9111 268.157 32.2334 267.636C32.5615 267.114 33.0098 266.716 33.5781 266.44C34.1465 266.165 34.7939 266.027 35.5205 266.027C36.2529 266.027 36.9033 266.165 37.4717 266.44C38.04 266.716 38.4854 267.114 38.8076 267.636C39.1357 268.157 39.2998 268.79 39.2998 269.534ZM37.6738 269.561C37.6738 269.133 37.583 268.755 37.4014 268.427C37.2197 268.099 36.9678 267.841 36.6455 267.653C36.3232 267.46 35.9482 267.363 35.5205 267.363C35.0928 267.363 34.7178 267.454 34.3955 267.636C34.0791 267.812 33.8301 268.063 33.6484 268.392C33.4727 268.72 33.3848 269.109 33.3848 269.561C33.3848 270 33.4727 270.384 33.6484 270.712C33.8301 271.04 34.082 271.295 34.4043 271.477C34.7266 271.658 35.1016 271.749 35.5293 271.749C35.957 271.749 36.3291 271.658 36.6455 271.477C36.9678 271.295 37.2197 271.04 37.4014 270.712C37.583 270.384 37.6738 270 37.6738 269.561ZM49.6885 271.582V273.533C49.6885 274.582 49.5947 275.467 49.4072 276.188C49.2197 276.908 48.9502 277.488 48.5986 277.928C48.2471 278.367 47.8223 278.687 47.3242 278.886C46.832 279.079 46.2754 279.176 45.6543 279.176C45.1621 279.176 44.708 279.114 44.292 278.991C43.876 278.868 43.501 278.672 43.167 278.402C42.8389 278.127 42.5576 277.77 42.3232 277.33C42.0889 276.891 41.9102 276.357 41.7871 275.73C41.6641 275.104 41.6025 274.371 41.6025 273.533V271.582C41.6025 270.533 41.6963 269.654 41.8838 268.945C42.0771 268.236 42.3496 267.668 42.7012 267.24C43.0527 266.807 43.4746 266.496 43.9668 266.309C44.4648 266.121 45.0215 266.027 45.6367 266.027C46.1348 266.027 46.5918 266.089 47.0078 266.212C47.4297 266.329 47.8047 266.52 48.1328 266.783C48.4609 267.041 48.7393 267.387 48.9678 267.82C49.2021 268.248 49.3809 268.772 49.5039 269.394C49.627 270.015 49.6885 270.744 49.6885 271.582ZM48.0537 273.797V271.31C48.0537 270.735 48.0186 270.231 47.9482 269.798C47.8838 269.358 47.7871 268.983 47.6582 268.673C47.5293 268.362 47.3652 268.11 47.166 267.917C46.9727 267.724 46.7471 267.583 46.4893 267.495C46.2373 267.401 45.9531 267.354 45.6367 267.354C45.25 267.354 44.9072 267.428 44.6084 267.574C44.3096 267.715 44.0576 267.94 43.8525 268.251C43.6533 268.562 43.501 268.969 43.3955 269.473C43.29 269.977 43.2373 270.589 43.2373 271.31V273.797C43.2373 274.371 43.2695 274.878 43.334 275.317C43.4043 275.757 43.5068 276.138 43.6416 276.46C43.7764 276.776 43.9404 277.037 44.1338 277.242C44.3271 277.447 44.5498 277.6 44.8018 277.699C45.0596 277.793 45.3438 277.84 45.6543 277.84C46.0527 277.84 46.4014 277.764 46.7002 277.611C46.999 277.459 47.248 277.222 47.4473 276.899C47.6523 276.571 47.8047 276.152 47.9043 275.643C48.0039 275.127 48.0537 274.512 48.0537 273.797ZM58.0205 266.186H58.1611V267.565H58.0205C57.1592 267.565 56.4385 267.706 55.8584 267.987C55.2783 268.263 54.8184 268.635 54.4785 269.104C54.1387 269.566 53.8926 270.088 53.7402 270.668C53.5938 271.248 53.5205 271.837 53.5205 272.435V274.315C53.5205 274.884 53.5879 275.388 53.7227 275.827C53.8574 276.261 54.042 276.627 54.2764 276.926C54.5107 277.225 54.7744 277.45 55.0674 277.603C55.3662 277.755 55.6768 277.831 55.999 277.831C56.374 277.831 56.708 277.761 57.001 277.62C57.2939 277.474 57.54 277.271 57.7393 277.014C57.9443 276.75 58.0996 276.439 58.2051 276.082C58.3105 275.725 58.3633 275.332 58.3633 274.904C58.3633 274.523 58.3164 274.157 58.2227 273.806C58.1289 273.448 57.9854 273.132 57.792 272.856C57.5986 272.575 57.3555 272.355 57.0625 272.197C56.7754 272.033 56.4326 271.951 56.0342 271.951C55.583 271.951 55.1611 272.062 54.7686 272.285C54.3818 272.502 54.0625 272.789 53.8105 273.146C53.5645 273.498 53.4238 273.882 53.3887 274.298L52.5273 274.289C52.6094 273.633 52.7617 273.073 52.9844 272.61C53.2129 272.142 53.4941 271.761 53.8281 271.468C54.168 271.169 54.5459 270.952 54.9619 270.817C55.3838 270.677 55.8291 270.606 56.2979 270.606C56.9365 270.606 57.4873 270.727 57.9502 270.967C58.4131 271.207 58.7939 271.529 59.0928 271.934C59.3916 272.332 59.6113 272.783 59.752 273.287C59.8984 273.785 59.9717 274.298 59.9717 274.825C59.9717 275.429 59.8867 275.994 59.7168 276.521C59.5469 277.049 59.292 277.512 58.9521 277.91C58.6182 278.309 58.2051 278.619 57.7129 278.842C57.2207 279.064 56.6494 279.176 55.999 279.176C55.3076 279.176 54.7041 279.035 54.1885 278.754C53.6729 278.467 53.2451 278.086 52.9053 277.611C52.5654 277.137 52.3105 276.609 52.1406 276.029C51.9707 275.449 51.8857 274.86 51.8857 274.263V273.498C51.8857 272.596 51.9766 271.711 52.1582 270.844C52.3398 269.977 52.6533 269.191 53.0986 268.488C53.5498 267.785 54.1738 267.226 54.9707 266.81C55.7676 266.394 56.7842 266.186 58.0205 266.186ZM69.9385 271.582V273.533C69.9385 274.582 69.8447 275.467 69.6572 276.188C69.4697 276.908 69.2002 277.488 68.8486 277.928C68.4971 278.367 68.0723 278.687 67.5742 278.886C67.082 279.079 66.5254 279.176 65.9043 279.176C65.4121 279.176 64.958 279.114 64.542 278.991C64.126 278.868 63.751 278.672 63.417 278.402C63.0889 278.127 62.8076 277.77 62.5732 277.33C62.3389 276.891 62.1602 276.357 62.0371 275.73C61.9141 275.104 61.8525 274.371 61.8525 273.533V271.582C61.8525 270.533 61.9463 269.654 62.1338 268.945C62.3271 268.236 62.5996 267.668 62.9512 267.24C63.3027 266.807 63.7246 266.496 64.2168 266.309C64.7148 266.121 65.2715 266.027 65.8867 266.027C66.3848 266.027 66.8418 266.089 67.2578 266.212C67.6797 266.329 68.0547 266.52 68.3828 266.783C68.7109 267.041 68.9893 267.387 69.2178 267.82C69.4521 268.248 69.6309 268.772 69.7539 269.394C69.877 270.015 69.9385 270.744 69.9385 271.582ZM68.3037 273.797V271.31C68.3037 270.735 68.2686 270.231 68.1982 269.798C68.1338 269.358 68.0371 268.983 67.9082 268.673C67.7793 268.362 67.6152 268.11 67.416 267.917C67.2227 267.724 66.9971 267.583 66.7393 267.495C66.4873 267.401 66.2031 267.354 65.8867 267.354C65.5 267.354 65.1572 267.428 64.8584 267.574C64.5596 267.715 64.3076 267.94 64.1025 268.251C63.9033 268.562 63.751 268.969 63.6455 269.473C63.54 269.977 63.4873 270.589 63.4873 271.31V273.797C63.4873 274.371 63.5195 274.878 63.584 275.317C63.6543 275.757 63.7568 276.138 63.8916 276.46C64.0264 276.776 64.1904 277.037 64.3838 277.242C64.5771 277.447 64.7998 277.6 65.0518 277.699C65.3096 277.793 65.5938 277.84 65.9043 277.84C66.3027 277.84 66.6514 277.764 66.9502 277.611C67.249 277.459 67.498 277.222 67.6973 276.899C67.9023 276.571 68.0547 276.152 68.1543 275.643C68.2539 275.127 68.3037 274.512 68.3037 273.797ZM73.6475 277.638H73.8145C74.752 277.638 75.5137 277.506 76.0996 277.242C76.6855 276.979 77.1367 276.624 77.4531 276.179C77.7695 275.733 77.9863 275.232 78.1035 274.676C78.2207 274.113 78.2793 273.536 78.2793 272.944V270.984C78.2793 270.404 78.2119 269.889 78.0771 269.438C77.9482 268.986 77.7666 268.608 77.5322 268.304C77.3037 267.999 77.043 267.768 76.75 267.609C76.457 267.451 76.1465 267.372 75.8184 267.372C75.4434 267.372 75.1064 267.448 74.8076 267.601C74.5146 267.747 74.2656 267.955 74.0605 268.225C73.8613 268.494 73.709 268.811 73.6035 269.174C73.498 269.537 73.4453 269.933 73.4453 270.36C73.4453 270.741 73.4922 271.11 73.5859 271.468C73.6797 271.825 73.8232 272.147 74.0166 272.435C74.21 272.722 74.4502 272.95 74.7373 273.12C75.0303 273.284 75.373 273.366 75.7656 273.366C76.1289 273.366 76.4688 273.296 76.7852 273.155C77.1074 273.009 77.3916 272.812 77.6377 272.566C77.8896 272.314 78.0889 272.03 78.2354 271.714C78.3877 271.397 78.4756 271.066 78.499 270.721H79.2725C79.2725 271.207 79.1758 271.688 78.9824 272.162C78.7949 272.631 78.5312 273.059 78.1914 273.445C77.8516 273.832 77.4531 274.143 76.9961 274.377C76.5391 274.605 76.041 274.72 75.502 274.72C74.8691 274.72 74.3213 274.597 73.8584 274.351C73.3955 274.104 73.0146 273.776 72.7158 273.366C72.4229 272.956 72.2031 272.499 72.0566 271.995C71.916 271.485 71.8457 270.97 71.8457 270.448C71.8457 269.839 71.9307 269.268 72.1006 268.734C72.2705 268.201 72.5225 267.732 72.8564 267.328C73.1904 266.918 73.6035 266.599 74.0957 266.37C74.5938 266.142 75.168 266.027 75.8184 266.027C76.5508 266.027 77.1748 266.174 77.6904 266.467C78.2061 266.76 78.625 267.152 78.9473 267.645C79.2754 268.137 79.5156 268.69 79.668 269.306C79.8203 269.921 79.8965 270.554 79.8965 271.204V271.793C79.8965 272.455 79.8525 273.129 79.7646 273.814C79.6826 274.494 79.5215 275.145 79.2812 275.766C79.0469 276.387 78.7041 276.943 78.2529 277.436C77.8018 277.922 77.2129 278.309 76.4863 278.596C75.7656 278.877 74.875 279.018 73.8145 279.018H73.6475V277.638ZM90.1885 271.582V273.533C90.1885 274.582 90.0947 275.467 89.9072 276.188C89.7197 276.908 89.4502 277.488 89.0986 277.928C88.7471 278.367 88.3223 278.687 87.8242 278.886C87.332 279.079 86.7754 279.176 86.1543 279.176C85.6621 279.176 85.208 279.114 84.792 278.991C84.376 278.868 84.001 278.672 83.667 278.402C83.3389 278.127 83.0576 277.77 82.8232 277.33C82.5889 276.891 82.4102 276.357 82.2871 275.73C82.1641 275.104 82.1025 274.371 82.1025 273.533V271.582C82.1025 270.533 82.1963 269.654 82.3838 268.945C82.5771 268.236 82.8496 267.668 83.2012 267.24C83.5527 266.807 83.9746 266.496 84.4668 266.309C84.9648 266.121 85.5215 266.027 86.1367 266.027C86.6348 266.027 87.0918 266.089 87.5078 266.212C87.9297 266.329 88.3047 266.52 88.6328 266.783C88.9609 267.041 89.2393 267.387 89.4678 267.82C89.7021 268.248 89.8809 268.772 90.0039 269.394C90.127 270.015 90.1885 270.744 90.1885 271.582ZM88.5537 273.797V271.31C88.5537 270.735 88.5186 270.231 88.4482 269.798C88.3838 269.358 88.2871 268.983 88.1582 268.673C88.0293 268.362 87.8652 268.11 87.666 267.917C87.4727 267.724 87.2471 267.583 86.9893 267.495C86.7373 267.401 86.4531 267.354 86.1367 267.354C85.75 267.354 85.4072 267.428 85.1084 267.574C84.8096 267.715 84.5576 267.94 84.3525 268.251C84.1533 268.562 84.001 268.969 83.8955 269.473C83.79 269.977 83.7373 270.589 83.7373 271.31V273.797C83.7373 274.371 83.7695 274.878 83.834 275.317C83.9043 275.757 84.0068 276.138 84.1416 276.46C84.2764 276.776 84.4404 277.037 84.6338 277.242C84.8271 277.447 85.0498 277.6 85.3018 277.699C85.5596 277.793 85.8438 277.84 86.1543 277.84C86.5527 277.84 86.9014 277.764 87.2002 277.611C87.499 277.459 87.748 277.222 87.9473 276.899C88.1523 276.571 88.3047 276.152 88.4043 275.643C88.5039 275.127 88.5537 274.512 88.5537 273.797ZM100.551 266.203V267.117L95.251 279H93.5371L98.8281 267.539H91.9023V266.203H100.551ZM104.778 271.802H105.938C106.507 271.802 106.976 271.708 107.345 271.521C107.72 271.327 107.998 271.066 108.18 270.738C108.367 270.404 108.461 270.029 108.461 269.613C108.461 269.121 108.379 268.708 108.215 268.374C108.051 268.04 107.805 267.788 107.477 267.618C107.148 267.448 106.732 267.363 106.229 267.363C105.771 267.363 105.367 267.454 105.016 267.636C104.67 267.812 104.397 268.063 104.198 268.392C104.005 268.72 103.908 269.106 103.908 269.552H102.282C102.282 268.901 102.446 268.31 102.774 267.776C103.103 267.243 103.562 266.818 104.154 266.502C104.752 266.186 105.443 266.027 106.229 266.027C107.002 266.027 107.679 266.165 108.259 266.44C108.839 266.71 109.29 267.114 109.612 267.653C109.935 268.187 110.096 268.852 110.096 269.648C110.096 269.971 110.02 270.316 109.867 270.686C109.721 271.049 109.489 271.389 109.173 271.705C108.862 272.021 108.458 272.282 107.96 272.487C107.462 272.687 106.864 272.786 106.167 272.786H104.778V271.802ZM104.778 273.138V272.162H106.167C106.981 272.162 107.655 272.259 108.188 272.452C108.722 272.646 109.141 272.903 109.445 273.226C109.756 273.548 109.973 273.902 110.096 274.289C110.225 274.67 110.289 275.051 110.289 275.432C110.289 276.029 110.187 276.56 109.981 277.022C109.782 277.485 109.498 277.878 109.129 278.2C108.766 278.522 108.338 278.766 107.846 278.93C107.354 279.094 106.817 279.176 106.237 279.176C105.681 279.176 105.156 279.097 104.664 278.938C104.178 278.78 103.747 278.552 103.372 278.253C102.997 277.948 102.704 277.576 102.493 277.137C102.282 276.691 102.177 276.185 102.177 275.616H103.803C103.803 276.062 103.899 276.451 104.093 276.785C104.292 277.119 104.573 277.38 104.937 277.567C105.306 277.749 105.739 277.84 106.237 277.84C106.735 277.84 107.163 277.755 107.521 277.585C107.884 277.409 108.162 277.146 108.355 276.794C108.555 276.442 108.654 276 108.654 275.467C108.654 274.934 108.543 274.497 108.32 274.157C108.098 273.812 107.781 273.557 107.371 273.393C106.967 273.223 106.489 273.138 105.938 273.138H104.778ZM114.903 271.802H116.063C116.632 271.802 117.101 271.708 117.47 271.521C117.845 271.327 118.123 271.066 118.305 270.738C118.492 270.404 118.586 270.029 118.586 269.613C118.586 269.121 118.504 268.708 118.34 268.374C118.176 268.04 117.93 267.788 117.602 267.618C117.273 267.448 116.857 267.363 116.354 267.363C115.896 267.363 115.492 267.454 115.141 267.636C114.795 267.812 114.522 268.063 114.323 268.392C114.13 268.72 114.033 269.106 114.033 269.552H112.407C112.407 268.901 112.571 268.31 112.899 267.776C113.228 267.243 113.688 266.818 114.279 266.502C114.877 266.186 115.568 266.027 116.354 266.027C117.127 266.027 117.804 266.165 118.384 266.44C118.964 266.71 119.415 267.114 119.737 267.653C120.06 268.187 120.221 268.852 120.221 269.648C120.221 269.971 120.145 270.316 119.992 270.686C119.846 271.049 119.614 271.389 119.298 271.705C118.987 272.021 118.583 272.282 118.085 272.487C117.587 272.687 116.989 272.786 116.292 272.786H114.903V271.802ZM114.903 273.138V272.162H116.292C117.106 272.162 117.78 272.259 118.313 272.452C118.847 272.646 119.266 272.903 119.57 273.226C119.881 273.548 120.098 273.902 120.221 274.289C120.35 274.67 120.414 275.051 120.414 275.432C120.414 276.029 120.312 276.56 120.106 277.022C119.907 277.485 119.623 277.878 119.254 278.2C118.891 278.522 118.463 278.766 117.971 278.93C117.479 279.094 116.942 279.176 116.362 279.176C115.806 279.176 115.281 279.097 114.789 278.938C114.303 278.78 113.872 278.552 113.497 278.253C113.122 277.948 112.829 277.576 112.618 277.137C112.407 276.691 112.302 276.185 112.302 275.616H113.928C113.928 276.062 114.024 276.451 114.218 276.785C114.417 277.119 114.698 277.38 115.062 277.567C115.431 277.749 115.864 277.84 116.362 277.84C116.86 277.84 117.288 277.755 117.646 277.585C118.009 277.409 118.287 277.146 118.48 276.794C118.68 276.442 118.779 276 118.779 275.467C118.779 274.934 118.668 274.497 118.445 274.157C118.223 273.812 117.906 273.557 117.496 273.393C117.092 273.223 116.614 273.138 116.063 273.138H114.903ZM125.028 271.802H126.188C126.757 271.802 127.226 271.708 127.595 271.521C127.97 271.327 128.248 271.066 128.43 270.738C128.617 270.404 128.711 270.029 128.711 269.613C128.711 269.121 128.629 268.708 128.465 268.374C128.301 268.04 128.055 267.788 127.727 267.618C127.398 267.448 126.982 267.363 126.479 267.363C126.021 267.363 125.617 267.454 125.266 267.636C124.92 267.812 124.647 268.063 124.448 268.392C124.255 268.72 124.158 269.106 124.158 269.552H122.532C122.532 268.901 122.696 268.31 123.024 267.776C123.353 267.243 123.812 266.818 124.404 266.502C125.002 266.186 125.693 266.027 126.479 266.027C127.252 266.027 127.929 266.165 128.509 266.44C129.089 266.71 129.54 267.114 129.862 267.653C130.185 268.187 130.346 268.852 130.346 269.648C130.346 269.971 130.27 270.316 130.117 270.686C129.971 271.049 129.739 271.389 129.423 271.705C129.112 272.021 128.708 272.282 128.21 272.487C127.712 272.687 127.114 272.786 126.417 272.786H125.028V271.802ZM125.028 273.138V272.162H126.417C127.231 272.162 127.905 272.259 128.438 272.452C128.972 272.646 129.391 272.903 129.695 273.226C130.006 273.548 130.223 273.902 130.346 274.289C130.475 274.67 130.539 275.051 130.539 275.432C130.539 276.029 130.437 276.56 130.231 277.022C130.032 277.485 129.748 277.878 129.379 278.2C129.016 278.522 128.588 278.766 128.096 278.93C127.604 279.094 127.067 279.176 126.487 279.176C125.931 279.176 125.406 279.097 124.914 278.938C124.428 278.78 123.997 278.552 123.622 278.253C123.247 277.948 122.954 277.576 122.743 277.137C122.532 276.691 122.427 276.185 122.427 275.616H124.053C124.053 276.062 124.149 276.451 124.343 276.785C124.542 277.119 124.823 277.38 125.187 277.567C125.556 277.749 125.989 277.84 126.487 277.84C126.985 277.84 127.413 277.755 127.771 277.585C128.134 277.409 128.412 277.146 128.605 276.794C128.805 276.442 128.904 276 128.904 275.467C128.904 274.934 128.793 274.497 128.57 274.157C128.348 273.812 128.031 273.557 127.621 273.393C127.217 273.223 126.739 273.138 126.188 273.138H125.028ZM134.433 277.066V278.376C134.433 278.909 134.298 279.472 134.028 280.063C133.759 280.661 133.381 281.159 132.895 281.558L131.972 280.916C132.159 280.658 132.317 280.395 132.446 280.125C132.575 279.861 132.672 279.586 132.736 279.299C132.807 279.018 132.842 278.719 132.842 278.402V277.066H134.433ZM148.829 271.582V273.533C148.829 274.582 148.735 275.467 148.548 276.188C148.36 276.908 148.091 277.488 147.739 277.928C147.388 278.367 146.963 278.687 146.465 278.886C145.973 279.079 145.416 279.176 144.795 279.176C144.303 279.176 143.849 279.114 143.433 278.991C143.017 278.868 142.642 278.672 142.308 278.402C141.979 278.127 141.698 277.77 141.464 277.33C141.229 276.891 141.051 276.357 140.928 275.73C140.805 275.104 140.743 274.371 140.743 273.533V271.582C140.743 270.533 140.837 269.654 141.024 268.945C141.218 268.236 141.49 267.668 141.842 267.24C142.193 266.807 142.615 266.496 143.107 266.309C143.605 266.121 144.162 266.027 144.777 266.027C145.275 266.027 145.732 266.089 146.148 266.212C146.57 266.329 146.945 266.52 147.273 266.783C147.602 267.041 147.88 267.387 148.108 267.82C148.343 268.248 148.521 268.772 148.645 269.394C148.768 270.015 148.829 270.744 148.829 271.582ZM147.194 273.797V271.31C147.194 270.735 147.159 270.231 147.089 269.798C147.024 269.358 146.928 268.983 146.799 268.673C146.67 268.362 146.506 268.11 146.307 267.917C146.113 267.724 145.888 267.583 145.63 267.495C145.378 267.401 145.094 267.354 144.777 267.354C144.391 267.354 144.048 267.428 143.749 267.574C143.45 267.715 143.198 267.94 142.993 268.251C142.794 268.562 142.642 268.969 142.536 269.473C142.431 269.977 142.378 270.589 142.378 271.31V273.797C142.378 274.371 142.41 274.878 142.475 275.317C142.545 275.757 142.647 276.138 142.782 276.46C142.917 276.776 143.081 277.037 143.274 277.242C143.468 277.447 143.69 277.6 143.942 277.699C144.2 277.793 144.484 277.84 144.795 277.84C145.193 277.84 145.542 277.764 145.841 277.611C146.14 277.459 146.389 277.222 146.588 276.899C146.793 276.571 146.945 276.152 147.045 275.643C147.145 275.127 147.194 274.512 147.194 273.797ZM158.989 275.537C158.989 276.316 158.808 276.979 158.444 277.523C158.087 278.062 157.601 278.473 156.985 278.754C156.376 279.035 155.688 279.176 154.92 279.176C154.152 279.176 153.461 279.035 152.846 278.754C152.23 278.473 151.744 278.062 151.387 277.523C151.029 276.979 150.851 276.316 150.851 275.537C150.851 275.027 150.947 274.562 151.141 274.14C151.34 273.712 151.618 273.34 151.976 273.023C152.339 272.707 152.767 272.464 153.259 272.294C153.757 272.118 154.305 272.03 154.902 272.03C155.688 272.03 156.388 272.183 157.003 272.487C157.618 272.786 158.102 273.199 158.453 273.727C158.811 274.254 158.989 274.857 158.989 275.537ZM157.354 275.502C157.354 275.027 157.252 274.608 157.047 274.245C156.842 273.876 156.555 273.589 156.186 273.384C155.816 273.179 155.389 273.076 154.902 273.076C154.404 273.076 153.974 273.179 153.61 273.384C153.253 273.589 152.975 273.876 152.775 274.245C152.576 274.608 152.477 275.027 152.477 275.502C152.477 275.994 152.573 276.416 152.767 276.768C152.966 277.113 153.247 277.38 153.61 277.567C153.979 277.749 154.416 277.84 154.92 277.84C155.424 277.84 155.857 277.749 156.221 277.567C156.584 277.38 156.862 277.113 157.056 276.768C157.255 276.416 157.354 275.994 157.354 275.502ZM158.69 269.534C158.69 270.155 158.526 270.715 158.198 271.213C157.87 271.711 157.422 272.104 156.854 272.391C156.285 272.678 155.641 272.821 154.92 272.821C154.188 272.821 153.534 272.678 152.96 272.391C152.392 272.104 151.946 271.711 151.624 271.213C151.302 270.715 151.141 270.155 151.141 269.534C151.141 268.79 151.302 268.157 151.624 267.636C151.952 267.114 152.4 266.716 152.969 266.44C153.537 266.165 154.185 266.027 154.911 266.027C155.644 266.027 156.294 266.165 156.862 266.44C157.431 266.716 157.876 267.114 158.198 267.636C158.526 268.157 158.69 268.79 158.69 269.534ZM157.064 269.561C157.064 269.133 156.974 268.755 156.792 268.427C156.61 268.099 156.358 267.841 156.036 267.653C155.714 267.46 155.339 267.363 154.911 267.363C154.483 267.363 154.108 267.454 153.786 267.636C153.47 267.812 153.221 268.063 153.039 268.392C152.863 268.72 152.775 269.109 152.775 269.561C152.775 270 152.863 270.384 153.039 270.712C153.221 271.04 153.473 271.295 153.795 271.477C154.117 271.658 154.492 271.749 154.92 271.749C155.348 271.749 155.72 271.658 156.036 271.477C156.358 271.295 156.61 271.04 156.792 270.712C156.974 270.384 157.064 270 157.064 269.561ZM169.079 271.582V273.533C169.079 274.582 168.985 275.467 168.798 276.188C168.61 276.908 168.341 277.488 167.989 277.928C167.638 278.367 167.213 278.687 166.715 278.886C166.223 279.079 165.666 279.176 165.045 279.176C164.553 279.176 164.099 279.114 163.683 278.991C163.267 278.868 162.892 278.672 162.558 278.402C162.229 278.127 161.948 277.77 161.714 277.33C161.479 276.891 161.301 276.357 161.178 275.73C161.055 275.104 160.993 274.371 160.993 273.533V271.582C160.993 270.533 161.087 269.654 161.274 268.945C161.468 268.236 161.74 267.668 162.092 267.24C162.443 266.807 162.865 266.496 163.357 266.309C163.855 266.121 164.412 266.027 165.027 266.027C165.525 266.027 165.982 266.089 166.398 266.212C166.82 266.329 167.195 266.52 167.523 266.783C167.852 267.041 168.13 267.387 168.358 267.82C168.593 268.248 168.771 268.772 168.895 269.394C169.018 270.015 169.079 270.744 169.079 271.582ZM167.444 273.797V271.31C167.444 270.735 167.409 270.231 167.339 269.798C167.274 269.358 167.178 268.983 167.049 268.673C166.92 268.362 166.756 268.11 166.557 267.917C166.363 267.724 166.138 267.583 165.88 267.495C165.628 267.401 165.344 267.354 165.027 267.354C164.641 267.354 164.298 267.428 163.999 267.574C163.7 267.715 163.448 267.94 163.243 268.251C163.044 268.562 162.892 268.969 162.786 269.473C162.681 269.977 162.628 270.589 162.628 271.31V273.797C162.628 274.371 162.66 274.878 162.725 275.317C162.795 275.757 162.897 276.138 163.032 276.46C163.167 276.776 163.331 277.037 163.524 277.242C163.718 277.447 163.94 277.6 164.192 277.699C164.45 277.793 164.734 277.84 165.045 277.84C165.443 277.84 165.792 277.764 166.091 277.611C166.39 277.459 166.639 277.222 166.838 276.899C167.043 276.571 167.195 276.152 167.295 275.643C167.395 275.127 167.444 274.512 167.444 273.797ZM179.556 277.664V279H171.18V277.831L175.372 273.164C175.888 272.59 176.286 272.104 176.567 271.705C176.854 271.301 177.054 270.94 177.165 270.624C177.282 270.302 177.341 269.974 177.341 269.64C177.341 269.218 177.253 268.837 177.077 268.497C176.907 268.151 176.655 267.876 176.321 267.671C175.987 267.466 175.583 267.363 175.108 267.363C174.54 267.363 174.065 267.475 173.685 267.697C173.31 267.914 173.028 268.219 172.841 268.611C172.653 269.004 172.56 269.455 172.56 269.965H170.934C170.934 269.244 171.092 268.585 171.408 267.987C171.725 267.39 172.193 266.915 172.814 266.563C173.436 266.206 174.2 266.027 175.108 266.027C175.917 266.027 176.608 266.171 177.183 266.458C177.757 266.739 178.196 267.138 178.501 267.653C178.812 268.163 178.967 268.761 178.967 269.446C178.967 269.821 178.902 270.202 178.773 270.589C178.65 270.97 178.478 271.351 178.255 271.731C178.038 272.112 177.783 272.487 177.49 272.856C177.203 273.226 176.896 273.589 176.567 273.946L173.14 277.664H179.556ZM183.669 271.802H184.829C185.397 271.802 185.866 271.708 186.235 271.521C186.61 271.327 186.889 271.066 187.07 270.738C187.258 270.404 187.352 270.029 187.352 269.613C187.352 269.121 187.27 268.708 187.105 268.374C186.941 268.04 186.695 267.788 186.367 267.618C186.039 267.448 185.623 267.363 185.119 267.363C184.662 267.363 184.258 267.454 183.906 267.636C183.561 267.812 183.288 268.063 183.089 268.392C182.896 268.72 182.799 269.106 182.799 269.552H181.173C181.173 268.901 181.337 268.31 181.665 267.776C181.993 267.243 182.453 266.818 183.045 266.502C183.643 266.186 184.334 266.027 185.119 266.027C185.893 266.027 186.569 266.165 187.149 266.44C187.729 266.71 188.181 267.114 188.503 267.653C188.825 268.187 188.986 268.852 188.986 269.648C188.986 269.971 188.91 270.316 188.758 270.686C188.611 271.049 188.38 271.389 188.063 271.705C187.753 272.021 187.349 272.282 186.851 272.487C186.353 272.687 185.755 272.786 185.058 272.786H183.669V271.802ZM183.669 273.138V272.162H185.058C185.872 272.162 186.546 272.259 187.079 272.452C187.612 272.646 188.031 272.903 188.336 273.226C188.646 273.548 188.863 273.902 188.986 274.289C189.115 274.67 189.18 275.051 189.18 275.432C189.18 276.029 189.077 276.56 188.872 277.022C188.673 277.485 188.389 277.878 188.02 278.2C187.656 278.522 187.229 278.766 186.736 278.93C186.244 279.094 185.708 279.176 185.128 279.176C184.571 279.176 184.047 279.097 183.555 278.938C183.068 278.78 182.638 278.552 182.263 278.253C181.888 277.948 181.595 277.576 181.384 277.137C181.173 276.691 181.067 276.185 181.067 275.616H182.693C182.693 276.062 182.79 276.451 182.983 276.785C183.183 277.119 183.464 277.38 183.827 277.567C184.196 277.749 184.63 277.84 185.128 277.84C185.626 277.84 186.054 277.755 186.411 277.585C186.774 277.409 187.053 277.146 187.246 276.794C187.445 276.442 187.545 276 187.545 275.467C187.545 274.934 187.434 274.497 187.211 274.157C186.988 273.812 186.672 273.557 186.262 273.393C185.857 273.223 185.38 273.138 184.829 273.138H183.669ZM196.765 266.133V279H195.139V268.163L191.86 269.358V267.891L196.51 266.133H196.765ZM209.931 277.664V279H201.555V277.831L205.747 273.164C206.263 272.59 206.661 272.104 206.942 271.705C207.229 271.301 207.429 270.94 207.54 270.624C207.657 270.302 207.716 269.974 207.716 269.64C207.716 269.218 207.628 268.837 207.452 268.497C207.282 268.151 207.03 267.876 206.696 267.671C206.362 267.466 205.958 267.363 205.483 267.363C204.915 267.363 204.44 267.475 204.06 267.697C203.685 267.914 203.403 268.219 203.216 268.611C203.028 269.004 202.935 269.455 202.935 269.965H201.309C201.309 269.244 201.467 268.585 201.783 267.987C202.1 267.39 202.568 266.915 203.189 266.563C203.811 266.206 204.575 266.027 205.483 266.027C206.292 266.027 206.983 266.171 207.558 266.458C208.132 266.739 208.571 267.138 208.876 267.653C209.187 268.163 209.342 268.761 209.342 269.446C209.342 269.821 209.277 270.202 209.148 270.589C209.025 270.97 208.853 271.351 208.63 271.731C208.413 272.112 208.158 272.487 207.865 272.856C207.578 273.226 207.271 273.589 206.942 273.946L203.515 277.664H209.931ZM219.941 266.203V267.117L214.642 279H212.928L218.219 267.539H211.293V266.203H219.941ZM228.036 266.186H228.177V267.565H228.036C227.175 267.565 226.454 267.706 225.874 267.987C225.294 268.263 224.834 268.635 224.494 269.104C224.154 269.566 223.908 270.088 223.756 270.668C223.609 271.248 223.536 271.837 223.536 272.435V274.315C223.536 274.884 223.604 275.388 223.738 275.827C223.873 276.261 224.058 276.627 224.292 276.926C224.526 277.225 224.79 277.45 225.083 277.603C225.382 277.755 225.692 277.831 226.015 277.831C226.39 277.831 226.724 277.761 227.017 277.62C227.31 277.474 227.556 277.271 227.755 277.014C227.96 276.75 228.115 276.439 228.221 276.082C228.326 275.725 228.379 275.332 228.379 274.904C228.379 274.523 228.332 274.157 228.238 273.806C228.145 273.448 228.001 273.132 227.808 272.856C227.614 272.575 227.371 272.355 227.078 272.197C226.791 272.033 226.448 271.951 226.05 271.951C225.599 271.951 225.177 272.062 224.784 272.285C224.397 272.502 224.078 272.789 223.826 273.146C223.58 273.498 223.439 273.882 223.404 274.298L222.543 274.289C222.625 273.633 222.777 273.073 223 272.61C223.229 272.142 223.51 271.761 223.844 271.468C224.184 271.169 224.562 270.952 224.978 270.817C225.399 270.677 225.845 270.606 226.313 270.606C226.952 270.606 227.503 270.727 227.966 270.967C228.429 271.207 228.81 271.529 229.108 271.934C229.407 272.332 229.627 272.783 229.768 273.287C229.914 273.785 229.987 274.298 229.987 274.825C229.987 275.429 229.902 275.994 229.732 276.521C229.562 277.049 229.308 277.512 228.968 277.91C228.634 278.309 228.221 278.619 227.729 278.842C227.236 279.064 226.665 279.176 226.015 279.176C225.323 279.176 224.72 279.035 224.204 278.754C223.688 278.467 223.261 278.086 222.921 277.611C222.581 277.137 222.326 276.609 222.156 276.029C221.986 275.449 221.901 274.86 221.901 274.263V273.498C221.901 272.596 221.992 271.711 222.174 270.844C222.355 269.977 222.669 269.191 223.114 268.488C223.565 267.785 224.189 267.226 224.986 266.81C225.783 266.394 226.8 266.186 228.036 266.186ZM233.978 272.909L232.677 272.575L233.318 266.203H239.884V267.706H234.698L234.312 271.187C234.546 271.052 234.842 270.926 235.199 270.809C235.562 270.691 235.979 270.633 236.447 270.633C237.039 270.633 237.569 270.735 238.038 270.94C238.507 271.14 238.905 271.427 239.233 271.802C239.567 272.177 239.822 272.628 239.998 273.155C240.174 273.683 240.262 274.271 240.262 274.922C240.262 275.537 240.177 276.103 240.007 276.618C239.843 277.134 239.594 277.585 239.26 277.972C238.926 278.353 238.504 278.648 237.994 278.859C237.49 279.07 236.896 279.176 236.21 279.176C235.694 279.176 235.205 279.105 234.742 278.965C234.285 278.818 233.875 278.599 233.512 278.306C233.154 278.007 232.861 277.638 232.633 277.198C232.41 276.753 232.27 276.231 232.211 275.634H233.758C233.828 276.114 233.969 276.519 234.18 276.847C234.391 277.175 234.666 277.424 235.006 277.594C235.352 277.758 235.753 277.84 236.21 277.84C236.597 277.84 236.939 277.772 237.238 277.638C237.537 277.503 237.789 277.31 237.994 277.058C238.199 276.806 238.354 276.501 238.46 276.144C238.571 275.786 238.627 275.385 238.627 274.939C238.627 274.535 238.571 274.16 238.46 273.814C238.349 273.469 238.182 273.167 237.959 272.909C237.742 272.651 237.476 272.452 237.159 272.312C236.843 272.165 236.479 272.092 236.069 272.092C235.524 272.092 235.111 272.165 234.83 272.312C234.555 272.458 234.271 272.657 233.978 272.909ZM250.694 274.693V276.029H241.448V275.071L247.179 266.203H248.506L247.082 268.77L243.294 274.693H250.694ZM248.91 266.203V279H247.284V266.203H248.91ZM253.823 277.066V278.376C253.823 278.909 253.688 279.472 253.419 280.063C253.149 280.661 252.771 281.159 252.285 281.558L251.362 280.916C251.55 280.658 251.708 280.395 251.837 280.125C251.966 279.861 252.062 279.586 252.127 279.299C252.197 279.018 252.232 278.719 252.232 278.402V277.066H253.823ZM39.5635 297.582V299.533C39.5635 300.582 39.4697 301.467 39.2822 302.188C39.0947 302.908 38.8252 303.488 38.4736 303.928C38.1221 304.367 37.6973 304.687 37.1992 304.886C36.707 305.079 36.1504 305.176 35.5293 305.176C35.0371 305.176 34.583 305.114 34.167 304.991C33.751 304.868 33.376 304.672 33.042 304.402C32.7139 304.127 32.4326 303.77 32.1982 303.33C31.9639 302.891 31.7852 302.357 31.6621 301.73C31.5391 301.104 31.4775 300.371 31.4775 299.533V297.582C31.4775 296.533 31.5713 295.654 31.7588 294.945C31.9521 294.236 32.2246 293.668 32.5762 293.24C32.9277 292.807 33.3496 292.496 33.8418 292.309C34.3398 292.121 34.8965 292.027 35.5117 292.027C36.0098 292.027 36.4668 292.089 36.8828 292.212C37.3047 292.329 37.6797 292.52 38.0078 292.783C38.3359 293.041 38.6143 293.387 38.8428 293.82C39.0771 294.248 39.2559 294.772 39.3789 295.394C39.502 296.015 39.5635 296.744 39.5635 297.582ZM37.9287 299.797V297.31C37.9287 296.735 37.8936 296.231 37.8232 295.798C37.7588 295.358 37.6621 294.983 37.5332 294.673C37.4043 294.362 37.2402 294.11 37.041 293.917C36.8477 293.724 36.6221 293.583 36.3643 293.495C36.1123 293.401 35.8281 293.354 35.5117 293.354C35.125 293.354 34.7822 293.428 34.4834 293.574C34.1846 293.715 33.9326 293.94 33.7275 294.251C33.5283 294.562 33.376 294.969 33.2705 295.473C33.165 295.977 33.1123 296.589 33.1123 297.31V299.797C33.1123 300.371 33.1445 300.878 33.209 301.317C33.2793 301.757 33.3818 302.138 33.5166 302.46C33.6514 302.776 33.8154 303.037 34.0088 303.242C34.2021 303.447 34.4248 303.6 34.6768 303.699C34.9346 303.793 35.2188 303.84 35.5293 303.84C35.9277 303.84 36.2764 303.764 36.5752 303.611C36.874 303.459 37.123 303.222 37.3223 302.899C37.5273 302.571 37.6797 302.152 37.7793 301.643C37.8789 301.127 37.9287 300.512 37.9287 299.797ZM49.7236 301.537C49.7236 302.316 49.542 302.979 49.1787 303.523C48.8213 304.062 48.335 304.473 47.7197 304.754C47.1104 305.035 46.4219 305.176 45.6543 305.176C44.8867 305.176 44.1953 305.035 43.5801 304.754C42.9648 304.473 42.4785 304.062 42.1211 303.523C41.7637 302.979 41.585 302.316 41.585 301.537C41.585 301.027 41.6816 300.562 41.875 300.14C42.0742 299.712 42.3525 299.34 42.71 299.023C43.0732 298.707 43.501 298.464 43.9932 298.294C44.4912 298.118 45.0391 298.03 45.6367 298.03C46.4219 298.03 47.1221 298.183 47.7373 298.487C48.3525 298.786 48.8359 299.199 49.1875 299.727C49.5449 300.254 49.7236 300.857 49.7236 301.537ZM48.0889 301.502C48.0889 301.027 47.9863 300.608 47.7812 300.245C47.5762 299.876 47.2891 299.589 46.9199 299.384C46.5508 299.179 46.123 299.076 45.6367 299.076C45.1387 299.076 44.708 299.179 44.3447 299.384C43.9873 299.589 43.709 299.876 43.5098 300.245C43.3105 300.608 43.2109 301.027 43.2109 301.502C43.2109 301.994 43.3076 302.416 43.501 302.768C43.7002 303.113 43.9814 303.38 44.3447 303.567C44.7139 303.749 45.1504 303.84 45.6543 303.84C46.1582 303.84 46.5918 303.749 46.9551 303.567C47.3184 303.38 47.5967 303.113 47.79 302.768C47.9893 302.416 48.0889 301.994 48.0889 301.502ZM49.4248 295.534C49.4248 296.155 49.2607 296.715 48.9326 297.213C48.6045 297.711 48.1562 298.104 47.5879 298.391C47.0195 298.678 46.375 298.821 45.6543 298.821C44.9219 298.821 44.2686 298.678 43.6943 298.391C43.126 298.104 42.6807 297.711 42.3584 297.213C42.0361 296.715 41.875 296.155 41.875 295.534C41.875 294.79 42.0361 294.157 42.3584 293.636C42.6865 293.114 43.1348 292.716 43.7031 292.44C44.2715 292.165 44.9189 292.027 45.6455 292.027C46.3779 292.027 47.0283 292.165 47.5967 292.44C48.165 292.716 48.6104 293.114 48.9326 293.636C49.2607 294.157 49.4248 294.79 49.4248 295.534ZM47.7988 295.561C47.7988 295.133 47.708 294.755 47.5264 294.427C47.3447 294.099 47.0928 293.841 46.7705 293.653C46.4482 293.46 46.0732 293.363 45.6455 293.363C45.2178 293.363 44.8428 293.454 44.5205 293.636C44.2041 293.812 43.9551 294.063 43.7734 294.392C43.5977 294.72 43.5098 295.109 43.5098 295.561C43.5098 296 43.5977 296.384 43.7734 296.712C43.9551 297.04 44.207 297.295 44.5293 297.477C44.8516 297.658 45.2266 297.749 45.6543 297.749C46.082 297.749 46.4541 297.658 46.7705 297.477C47.0928 297.295 47.3447 297.04 47.5264 296.712C47.708 296.384 47.7988 296 47.7988 295.561ZM59.8135 297.582V299.533C59.8135 300.582 59.7197 301.467 59.5322 302.188C59.3447 302.908 59.0752 303.488 58.7236 303.928C58.3721 304.367 57.9473 304.687 57.4492 304.886C56.957 305.079 56.4004 305.176 55.7793 305.176C55.2871 305.176 54.833 305.114 54.417 304.991C54.001 304.868 53.626 304.672 53.292 304.402C52.9639 304.127 52.6826 303.77 52.4482 303.33C52.2139 302.891 52.0352 302.357 51.9121 301.73C51.7891 301.104 51.7275 300.371 51.7275 299.533V297.582C51.7275 296.533 51.8213 295.654 52.0088 294.945C52.2021 294.236 52.4746 293.668 52.8262 293.24C53.1777 292.807 53.5996 292.496 54.0918 292.309C54.5898 292.121 55.1465 292.027 55.7617 292.027C56.2598 292.027 56.7168 292.089 57.1328 292.212C57.5547 292.329 57.9297 292.52 58.2578 292.783C58.5859 293.041 58.8643 293.387 59.0928 293.82C59.3271 294.248 59.5059 294.772 59.6289 295.394C59.752 296.015 59.8135 296.744 59.8135 297.582ZM58.1787 299.797V297.31C58.1787 296.735 58.1436 296.231 58.0732 295.798C58.0088 295.358 57.9121 294.983 57.7832 294.673C57.6543 294.362 57.4902 294.11 57.291 293.917C57.0977 293.724 56.8721 293.583 56.6143 293.495C56.3623 293.401 56.0781 293.354 55.7617 293.354C55.375 293.354 55.0322 293.428 54.7334 293.574C54.4346 293.715 54.1826 293.94 53.9775 294.251C53.7783 294.562 53.626 294.969 53.5205 295.473C53.415 295.977 53.3623 296.589 53.3623 297.31V299.797C53.3623 300.371 53.3945 300.878 53.459 301.317C53.5293 301.757 53.6318 302.138 53.7666 302.46C53.9014 302.776 54.0654 303.037 54.2588 303.242C54.4521 303.447 54.6748 303.6 54.9268 303.699C55.1846 303.793 55.4688 303.84 55.7793 303.84C56.1777 303.84 56.5264 303.764 56.8252 303.611C57.124 303.459 57.373 303.222 57.5723 302.899C57.7773 302.571 57.9297 302.152 58.0293 301.643C58.1289 301.127 58.1787 300.512 58.1787 299.797ZM70.29 303.664V305H61.9141V303.831L66.1064 299.164C66.6221 298.59 67.0205 298.104 67.3018 297.705C67.5889 297.301 67.7881 296.94 67.8994 296.624C68.0166 296.302 68.0752 295.974 68.0752 295.64C68.0752 295.218 67.9873 294.837 67.8115 294.497C67.6416 294.151 67.3896 293.876 67.0557 293.671C66.7217 293.466 66.3174 293.363 65.8428 293.363C65.2744 293.363 64.7998 293.475 64.4189 293.697C64.0439 293.914 63.7627 294.219 63.5752 294.611C63.3877 295.004 63.2939 295.455 63.2939 295.965H61.668C61.668 295.244 61.8262 294.585 62.1426 293.987C62.459 293.39 62.9277 292.915 63.5488 292.563C64.1699 292.206 64.9346 292.027 65.8428 292.027C66.6514 292.027 67.3428 292.171 67.917 292.458C68.4912 292.739 68.9307 293.138 69.2354 293.653C69.5459 294.163 69.7012 294.761 69.7012 295.446C69.7012 295.821 69.6367 296.202 69.5078 296.589C69.3848 296.97 69.2119 297.351 68.9893 297.731C68.7725 298.112 68.5176 298.487 68.2246 298.856C67.9375 299.226 67.6299 299.589 67.3018 299.946L63.874 303.664H70.29ZM80.415 303.664V305H72.0391V303.831L76.2314 299.164C76.7471 298.59 77.1455 298.104 77.4268 297.705C77.7139 297.301 77.9131 296.94 78.0244 296.624C78.1416 296.302 78.2002 295.974 78.2002 295.64C78.2002 295.218 78.1123 294.837 77.9365 294.497C77.7666 294.151 77.5146 293.876 77.1807 293.671C76.8467 293.466 76.4424 293.363 75.9678 293.363C75.3994 293.363 74.9248 293.475 74.5439 293.697C74.1689 293.914 73.8877 294.219 73.7002 294.611C73.5127 295.004 73.4189 295.455 73.4189 295.965H71.793C71.793 295.244 71.9512 294.585 72.2676 293.987C72.584 293.39 73.0527 292.915 73.6738 292.563C74.2949 292.206 75.0596 292.027 75.9678 292.027C76.7764 292.027 77.4678 292.171 78.042 292.458C78.6162 292.739 79.0557 293.138 79.3604 293.653C79.6709 294.163 79.8262 294.761 79.8262 295.446C79.8262 295.821 79.7617 296.202 79.6328 296.589C79.5098 296.97 79.3369 297.351 79.1143 297.731C78.8975 298.112 78.6426 298.487 78.3496 298.856C78.0625 299.226 77.7549 299.589 77.4268 299.946L73.999 303.664H80.415ZM90.54 303.664V305H82.1641V303.831L86.3564 299.164C86.8721 298.59 87.2705 298.104 87.5518 297.705C87.8389 297.301 88.0381 296.94 88.1494 296.624C88.2666 296.302 88.3252 295.974 88.3252 295.64C88.3252 295.218 88.2373 294.837 88.0615 294.497C87.8916 294.151 87.6396 293.876 87.3057 293.671C86.9717 293.466 86.5674 293.363 86.0928 293.363C85.5244 293.363 85.0498 293.475 84.6689 293.697C84.2939 293.914 84.0127 294.219 83.8252 294.611C83.6377 295.004 83.5439 295.455 83.5439 295.965H81.918C81.918 295.244 82.0762 294.585 82.3926 293.987C82.709 293.39 83.1777 292.915 83.7988 292.563C84.4199 292.206 85.1846 292.027 86.0928 292.027C86.9014 292.027 87.5928 292.171 88.167 292.458C88.7412 292.739 89.1807 293.138 89.4854 293.653C89.7959 294.163 89.9512 294.761 89.9512 295.446C89.9512 295.821 89.8867 296.202 89.7578 296.589C89.6348 296.97 89.4619 297.351 89.2393 297.731C89.0225 298.112 88.7676 298.487 88.4746 298.856C88.1875 299.226 87.8799 299.589 87.5518 299.946L84.124 303.664H90.54ZM94.6533 297.802H95.8135C96.3818 297.802 96.8506 297.708 97.2197 297.521C97.5947 297.327 97.873 297.066 98.0547 296.738C98.2422 296.404 98.3359 296.029 98.3359 295.613C98.3359 295.121 98.2539 294.708 98.0898 294.374C97.9258 294.04 97.6797 293.788 97.3516 293.618C97.0234 293.448 96.6074 293.363 96.1035 293.363C95.6465 293.363 95.2422 293.454 94.8906 293.636C94.5449 293.812 94.2725 294.063 94.0732 294.392C93.8799 294.72 93.7832 295.106 93.7832 295.552H92.1572C92.1572 294.901 92.3213 294.31 92.6494 293.776C92.9775 293.243 93.4375 292.818 94.0293 292.502C94.627 292.186 95.3184 292.027 96.1035 292.027C96.877 292.027 97.5537 292.165 98.1338 292.44C98.7139 292.71 99.165 293.114 99.4873 293.653C99.8096 294.187 99.9707 294.852 99.9707 295.648C99.9707 295.971 99.8945 296.316 99.7422 296.686C99.5957 297.049 99.3643 297.389 99.0479 297.705C98.7373 298.021 98.333 298.282 97.835 298.487C97.3369 298.687 96.7393 298.786 96.042 298.786H94.6533V297.802ZM94.6533 299.138V298.162H96.042C96.8564 298.162 97.5303 298.259 98.0635 298.452C98.5967 298.646 99.0156 298.903 99.3203 299.226C99.6309 299.548 99.8477 299.902 99.9707 300.289C100.1 300.67 100.164 301.051 100.164 301.432C100.164 302.029 100.062 302.56 99.8564 303.022C99.6572 303.485 99.373 303.878 99.0039 304.2C98.6406 304.522 98.2129 304.766 97.7207 304.93C97.2285 305.094 96.6924 305.176 96.1123 305.176C95.5557 305.176 95.0312 305.097 94.5391 304.938C94.0527 304.78 93.6221 304.552 93.2471 304.253C92.8721 303.948 92.5791 303.576 92.3682 303.137C92.1572 302.691 92.0518 302.185 92.0518 301.616H93.6777C93.6777 302.062 93.7744 302.451 93.9678 302.785C94.167 303.119 94.4482 303.38 94.8115 303.567C95.1807 303.749 95.6143 303.84 96.1123 303.84C96.6104 303.84 97.0381 303.755 97.3955 303.585C97.7588 303.409 98.0371 303.146 98.2305 302.794C98.4297 302.442 98.5293 302 98.5293 301.467C98.5293 300.934 98.418 300.497 98.1953 300.157C97.9727 299.812 97.6562 299.557 97.2461 299.393C96.8418 299.223 96.3643 299.138 95.8135 299.138H94.6533ZM111.054 300.693V302.029H101.808V301.071L107.538 292.203H108.865L107.441 294.77L103.653 300.693H111.054ZM109.27 292.203V305H107.644V292.203H109.27ZM120.599 301.537C120.599 302.316 120.417 302.979 120.054 303.523C119.696 304.062 119.21 304.473 118.595 304.754C117.985 305.035 117.297 305.176 116.529 305.176C115.762 305.176 115.07 305.035 114.455 304.754C113.84 304.473 113.354 304.062 112.996 303.523C112.639 302.979 112.46 302.316 112.46 301.537C112.46 301.027 112.557 300.562 112.75 300.14C112.949 299.712 113.228 299.34 113.585 299.023C113.948 298.707 114.376 298.464 114.868 298.294C115.366 298.118 115.914 298.03 116.512 298.03C117.297 298.03 117.997 298.183 118.612 298.487C119.228 298.786 119.711 299.199 120.062 299.727C120.42 300.254 120.599 300.857 120.599 301.537ZM118.964 301.502C118.964 301.027 118.861 300.608 118.656 300.245C118.451 299.876 118.164 299.589 117.795 299.384C117.426 299.179 116.998 299.076 116.512 299.076C116.014 299.076 115.583 299.179 115.22 299.384C114.862 299.589 114.584 299.876 114.385 300.245C114.186 300.608 114.086 301.027 114.086 301.502C114.086 301.994 114.183 302.416 114.376 302.768C114.575 303.113 114.856 303.38 115.22 303.567C115.589 303.749 116.025 303.84 116.529 303.84C117.033 303.84 117.467 303.749 117.83 303.567C118.193 303.38 118.472 303.113 118.665 302.768C118.864 302.416 118.964 301.994 118.964 301.502ZM120.3 295.534C120.3 296.155 120.136 296.715 119.808 297.213C119.479 297.711 119.031 298.104 118.463 298.391C117.895 298.678 117.25 298.821 116.529 298.821C115.797 298.821 115.144 298.678 114.569 298.391C114.001 298.104 113.556 297.711 113.233 297.213C112.911 296.715 112.75 296.155 112.75 295.534C112.75 294.79 112.911 294.157 113.233 293.636C113.562 293.114 114.01 292.716 114.578 292.44C115.146 292.165 115.794 292.027 116.521 292.027C117.253 292.027 117.903 292.165 118.472 292.44C119.04 292.716 119.485 293.114 119.808 293.636C120.136 294.157 120.3 294.79 120.3 295.534ZM118.674 295.561C118.674 295.133 118.583 294.755 118.401 294.427C118.22 294.099 117.968 293.841 117.646 293.653C117.323 293.46 116.948 293.363 116.521 293.363C116.093 293.363 115.718 293.454 115.396 293.636C115.079 293.812 114.83 294.063 114.648 294.392C114.473 294.72 114.385 295.109 114.385 295.561C114.385 296 114.473 296.384 114.648 296.712C114.83 297.04 115.082 297.295 115.404 297.477C115.727 297.658 116.102 297.749 116.529 297.749C116.957 297.749 117.329 297.658 117.646 297.477C117.968 297.295 118.22 297.04 118.401 296.712C118.583 296.384 118.674 296 118.674 295.561ZM130.926 292.203V293.117L125.626 305H123.912L129.203 293.539H122.277V292.203H130.926ZM140.813 297.582V299.533C140.813 300.582 140.72 301.467 140.532 302.188C140.345 302.908 140.075 303.488 139.724 303.928C139.372 304.367 138.947 304.687 138.449 304.886C137.957 305.079 137.4 305.176 136.779 305.176C136.287 305.176 135.833 305.114 135.417 304.991C135.001 304.868 134.626 304.672 134.292 304.402C133.964 304.127 133.683 303.77 133.448 303.33C133.214 302.891 133.035 302.357 132.912 301.73C132.789 301.104 132.728 300.371 132.728 299.533V297.582C132.728 296.533 132.821 295.654 133.009 294.945C133.202 294.236 133.475 293.668 133.826 293.24C134.178 292.807 134.6 292.496 135.092 292.309C135.59 292.121 136.146 292.027 136.762 292.027C137.26 292.027 137.717 292.089 138.133 292.212C138.555 292.329 138.93 292.52 139.258 292.783C139.586 293.041 139.864 293.387 140.093 293.82C140.327 294.248 140.506 294.772 140.629 295.394C140.752 296.015 140.813 296.744 140.813 297.582ZM139.179 299.797V297.31C139.179 296.735 139.144 296.231 139.073 295.798C139.009 295.358 138.912 294.983 138.783 294.673C138.654 294.362 138.49 294.11 138.291 293.917C138.098 293.724 137.872 293.583 137.614 293.495C137.362 293.401 137.078 293.354 136.762 293.354C136.375 293.354 136.032 293.428 135.733 293.574C135.435 293.715 135.183 293.94 134.978 294.251C134.778 294.562 134.626 294.969 134.521 295.473C134.415 295.977 134.362 296.589 134.362 297.31V299.797C134.362 300.371 134.395 300.878 134.459 301.317C134.529 301.757 134.632 302.138 134.767 302.46C134.901 302.776 135.065 303.037 135.259 303.242C135.452 303.447 135.675 303.6 135.927 303.699C136.185 303.793 136.469 303.84 136.779 303.84C137.178 303.84 137.526 303.764 137.825 303.611C138.124 303.459 138.373 303.222 138.572 302.899C138.777 302.571 138.93 302.152 139.029 301.643C139.129 301.127 139.179 300.512 139.179 299.797ZM144.558 303.066V304.376C144.558 304.909 144.423 305.472 144.153 306.063C143.884 306.661 143.506 307.159 143.02 307.558L142.097 306.916C142.284 306.658 142.442 306.395 142.571 306.125C142.7 305.861 142.797 305.586 142.861 305.299C142.932 305.018 142.967 304.719 142.967 304.402V303.066H144.558ZM158.954 297.582V299.533C158.954 300.582 158.86 301.467 158.673 302.188C158.485 302.908 158.216 303.488 157.864 303.928C157.513 304.367 157.088 304.687 156.59 304.886C156.098 305.079 155.541 305.176 154.92 305.176C154.428 305.176 153.974 305.114 153.558 304.991C153.142 304.868 152.767 304.672 152.433 304.402C152.104 304.127 151.823 303.77 151.589 303.33C151.354 302.891 151.176 302.357 151.053 301.73C150.93 301.104 150.868 300.371 150.868 299.533V297.582C150.868 296.533 150.962 295.654 151.149 294.945C151.343 294.236 151.615 293.668 151.967 293.24C152.318 292.807 152.74 292.496 153.232 292.309C153.73 292.121 154.287 292.027 154.902 292.027C155.4 292.027 155.857 292.089 156.273 292.212C156.695 292.329 157.07 292.52 157.398 292.783C157.727 293.041 158.005 293.387 158.233 293.82C158.468 294.248 158.646 294.772 158.77 295.394C158.893 296.015 158.954 296.744 158.954 297.582ZM157.319 299.797V297.31C157.319 296.735 157.284 296.231 157.214 295.798C157.149 295.358 157.053 294.983 156.924 294.673C156.795 294.362 156.631 294.11 156.432 293.917C156.238 293.724 156.013 293.583 155.755 293.495C155.503 293.401 155.219 293.354 154.902 293.354C154.516 293.354 154.173 293.428 153.874 293.574C153.575 293.715 153.323 293.94 153.118 294.251C152.919 294.562 152.767 294.969 152.661 295.473C152.556 295.977 152.503 296.589 152.503 297.31V299.797C152.503 300.371 152.535 300.878 152.6 301.317C152.67 301.757 152.772 302.138 152.907 302.46C153.042 302.776 153.206 303.037 153.399 303.242C153.593 303.447 153.815 303.6 154.067 303.699C154.325 303.793 154.609 303.84 154.92 303.84C155.318 303.84 155.667 303.764 155.966 303.611C156.265 303.459 156.514 303.222 156.713 302.899C156.918 302.571 157.07 302.152 157.17 301.643C157.27 301.127 157.319 300.512 157.319 299.797ZM166.39 292.133V305H164.764V294.163L161.485 295.358V293.891L166.135 292.133H166.39ZM177.411 292.186H177.552V293.565H177.411C176.55 293.565 175.829 293.706 175.249 293.987C174.669 294.263 174.209 294.635 173.869 295.104C173.529 295.566 173.283 296.088 173.131 296.668C172.984 297.248 172.911 297.837 172.911 298.435V300.315C172.911 300.884 172.979 301.388 173.113 301.827C173.248 302.261 173.433 302.627 173.667 302.926C173.901 303.225 174.165 303.45 174.458 303.603C174.757 303.755 175.067 303.831 175.39 303.831C175.765 303.831 176.099 303.761 176.392 303.62C176.685 303.474 176.931 303.271 177.13 303.014C177.335 302.75 177.49 302.439 177.596 302.082C177.701 301.725 177.754 301.332 177.754 300.904C177.754 300.523 177.707 300.157 177.613 299.806C177.52 299.448 177.376 299.132 177.183 298.856C176.989 298.575 176.746 298.355 176.453 298.197C176.166 298.033 175.823 297.951 175.425 297.951C174.974 297.951 174.552 298.062 174.159 298.285C173.772 298.502 173.453 298.789 173.201 299.146C172.955 299.498 172.814 299.882 172.779 300.298L171.918 300.289C172 299.633 172.152 299.073 172.375 298.61C172.604 298.142 172.885 297.761 173.219 297.468C173.559 297.169 173.937 296.952 174.353 296.817C174.774 296.677 175.22 296.606 175.688 296.606C176.327 296.606 176.878 296.727 177.341 296.967C177.804 297.207 178.185 297.529 178.483 297.934C178.782 298.332 179.002 298.783 179.143 299.287C179.289 299.785 179.362 300.298 179.362 300.825C179.362 301.429 179.277 301.994 179.107 302.521C178.938 303.049 178.683 303.512 178.343 303.91C178.009 304.309 177.596 304.619 177.104 304.842C176.611 305.064 176.04 305.176 175.39 305.176C174.698 305.176 174.095 305.035 173.579 304.754C173.063 304.467 172.636 304.086 172.296 303.611C171.956 303.137 171.701 302.609 171.531 302.029C171.361 301.449 171.276 300.86 171.276 300.263V299.498C171.276 298.596 171.367 297.711 171.549 296.844C171.73 295.977 172.044 295.191 172.489 294.488C172.94 293.785 173.564 293.226 174.361 292.81C175.158 292.394 176.175 292.186 177.411 292.186ZM183.353 298.909L182.052 298.575L182.693 292.203H189.259V293.706H184.073L183.687 297.187C183.921 297.052 184.217 296.926 184.574 296.809C184.938 296.691 185.354 296.633 185.822 296.633C186.414 296.633 186.944 296.735 187.413 296.94C187.882 297.14 188.28 297.427 188.608 297.802C188.942 298.177 189.197 298.628 189.373 299.155C189.549 299.683 189.637 300.271 189.637 300.922C189.637 301.537 189.552 302.103 189.382 302.618C189.218 303.134 188.969 303.585 188.635 303.972C188.301 304.353 187.879 304.648 187.369 304.859C186.865 305.07 186.271 305.176 185.585 305.176C185.069 305.176 184.58 305.105 184.117 304.965C183.66 304.818 183.25 304.599 182.887 304.306C182.529 304.007 182.236 303.638 182.008 303.198C181.785 302.753 181.645 302.231 181.586 301.634H183.133C183.203 302.114 183.344 302.519 183.555 302.847C183.766 303.175 184.041 303.424 184.381 303.594C184.727 303.758 185.128 303.84 185.585 303.84C185.972 303.84 186.314 303.772 186.613 303.638C186.912 303.503 187.164 303.31 187.369 303.058C187.574 302.806 187.729 302.501 187.835 302.144C187.946 301.786 188.002 301.385 188.002 300.939C188.002 300.535 187.946 300.16 187.835 299.814C187.724 299.469 187.557 299.167 187.334 298.909C187.117 298.651 186.851 298.452 186.534 298.312C186.218 298.165 185.854 298.092 185.444 298.092C184.899 298.092 184.486 298.165 184.205 298.312C183.93 298.458 183.646 298.657 183.353 298.909ZM199.691 292.203V293.117L194.392 305H192.678L197.969 293.539H191.043V292.203H199.691ZM210.194 300.693V302.029H200.948V301.071L206.679 292.203H208.006L206.582 294.77L202.794 300.693H210.194ZM208.41 292.203V305H206.784V292.203H208.41ZM219.941 292.203V293.117L214.642 305H212.928L218.219 293.539H211.293V292.203H219.941ZM229.829 297.582V299.533C229.829 300.582 229.735 301.467 229.548 302.188C229.36 302.908 229.091 303.488 228.739 303.928C228.388 304.367 227.963 304.687 227.465 304.886C226.973 305.079 226.416 305.176 225.795 305.176C225.303 305.176 224.849 305.114 224.433 304.991C224.017 304.868 223.642 304.672 223.308 304.402C222.979 304.127 222.698 303.77 222.464 303.33C222.229 302.891 222.051 302.357 221.928 301.73C221.805 301.104 221.743 300.371 221.743 299.533V297.582C221.743 296.533 221.837 295.654 222.024 294.945C222.218 294.236 222.49 293.668 222.842 293.24C223.193 292.807 223.615 292.496 224.107 292.309C224.605 292.121 225.162 292.027 225.777 292.027C226.275 292.027 226.732 292.089 227.148 292.212C227.57 292.329 227.945 292.52 228.273 292.783C228.602 293.041 228.88 293.387 229.108 293.82C229.343 294.248 229.521 294.772 229.645 295.394C229.768 296.015 229.829 296.744 229.829 297.582ZM228.194 299.797V297.31C228.194 296.735 228.159 296.231 228.089 295.798C228.024 295.358 227.928 294.983 227.799 294.673C227.67 294.362 227.506 294.11 227.307 293.917C227.113 293.724 226.888 293.583 226.63 293.495C226.378 293.401 226.094 293.354 225.777 293.354C225.391 293.354 225.048 293.428 224.749 293.574C224.45 293.715 224.198 293.94 223.993 294.251C223.794 294.562 223.642 294.969 223.536 295.473C223.431 295.977 223.378 296.589 223.378 297.31V299.797C223.378 300.371 223.41 300.878 223.475 301.317C223.545 301.757 223.647 302.138 223.782 302.46C223.917 302.776 224.081 303.037 224.274 303.242C224.468 303.447 224.69 303.6 224.942 303.699C225.2 303.793 225.484 303.84 225.795 303.84C226.193 303.84 226.542 303.764 226.841 303.611C227.14 303.459 227.389 303.222 227.588 302.899C227.793 302.571 227.945 302.152 228.045 301.643C228.145 301.127 228.194 300.512 228.194 299.797ZM238.161 292.186H238.302V293.565H238.161C237.3 293.565 236.579 293.706 235.999 293.987C235.419 294.263 234.959 294.635 234.619 295.104C234.279 295.566 234.033 296.088 233.881 296.668C233.734 297.248 233.661 297.837 233.661 298.435V300.315C233.661 300.884 233.729 301.388 233.863 301.827C233.998 302.261 234.183 302.627 234.417 302.926C234.651 303.225 234.915 303.45 235.208 303.603C235.507 303.755 235.817 303.831 236.14 303.831C236.515 303.831 236.849 303.761 237.142 303.62C237.435 303.474 237.681 303.271 237.88 303.014C238.085 302.75 238.24 302.439 238.346 302.082C238.451 301.725 238.504 301.332 238.504 300.904C238.504 300.523 238.457 300.157 238.363 299.806C238.27 299.448 238.126 299.132 237.933 298.856C237.739 298.575 237.496 298.355 237.203 298.197C236.916 298.033 236.573 297.951 236.175 297.951C235.724 297.951 235.302 298.062 234.909 298.285C234.522 298.502 234.203 298.789 233.951 299.146C233.705 299.498 233.564 299.882 233.529 300.298L232.668 300.289C232.75 299.633 232.902 299.073 233.125 298.61C233.354 298.142 233.635 297.761 233.969 297.468C234.309 297.169 234.687 296.952 235.103 296.817C235.524 296.677 235.97 296.606 236.438 296.606C237.077 296.606 237.628 296.727 238.091 296.967C238.554 297.207 238.935 297.529 239.233 297.934C239.532 298.332 239.752 298.783 239.893 299.287C240.039 299.785 240.112 300.298 240.112 300.825C240.112 301.429 240.027 301.994 239.857 302.521C239.688 303.049 239.433 303.512 239.093 303.91C238.759 304.309 238.346 304.619 237.854 304.842C237.361 305.064 236.79 305.176 236.14 305.176C235.448 305.176 234.845 305.035 234.329 304.754C233.813 304.467 233.386 304.086 233.046 303.611C232.706 303.137 232.451 302.609 232.281 302.029C232.111 301.449 232.026 300.86 232.026 300.263V299.498C232.026 298.596 232.117 297.711 232.299 296.844C232.48 295.977 232.794 295.191 233.239 294.488C233.69 293.785 234.314 293.226 235.111 292.81C235.908 292.394 236.925 292.186 238.161 292.186ZM243.698 303.066V304.376C243.698 304.909 243.563 305.472 243.294 306.063C243.024 306.661 242.646 307.159 242.16 307.558L241.237 306.916C241.425 306.658 241.583 306.395 241.712 306.125C241.841 305.861 241.938 305.586 242.002 305.299C242.072 305.018 242.107 304.719 242.107 304.402V303.066H243.698ZM98.8018 322.582V324.533C98.8018 325.582 98.708 326.467 98.5205 327.188C98.333 327.908 98.0635 328.488 97.7119 328.928C97.3604 329.367 96.9355 329.687 96.4375 329.886C95.9453 330.079 95.3887 330.176 94.7676 330.176C94.2754 330.176 93.8213 330.114 93.4053 329.991C92.9893 329.868 92.6143 329.672 92.2803 329.402C91.9521 329.127 91.6709 328.77 91.4365 328.33C91.2021 327.891 91.0234 327.357 90.9004 326.73C90.7773 326.104 90.7158 325.371 90.7158 324.533V322.582C90.7158 321.533 90.8096 320.654 90.9971 319.945C91.1904 319.236 91.4629 318.668 91.8145 318.24C92.166 317.807 92.5879 317.496 93.0801 317.309C93.5781 317.121 94.1348 317.027 94.75 317.027C95.248 317.027 95.7051 317.089 96.1211 317.212C96.543 317.329 96.918 317.52 97.2461 317.783C97.5742 318.041 97.8525 318.387 98.0811 318.82C98.3154 319.248 98.4941 319.772 98.6172 320.394C98.7402 321.015 98.8018 321.744 98.8018 322.582ZM97.167 324.797V322.31C97.167 321.735 97.1318 321.231 97.0615 320.798C96.9971 320.358 96.9004 319.983 96.7715 319.673C96.6426 319.362 96.4785 319.11 96.2793 318.917C96.0859 318.724 95.8604 318.583 95.6025 318.495C95.3506 318.401 95.0664 318.354 94.75 318.354C94.3633 318.354 94.0205 318.428 93.7217 318.574C93.4229 318.715 93.1709 318.94 92.9658 319.251C92.7666 319.562 92.6143 319.969 92.5088 320.473C92.4033 320.977 92.3506 321.589 92.3506 322.31V324.797C92.3506 325.371 92.3828 325.878 92.4473 326.317C92.5176 326.757 92.6201 327.138 92.7549 327.46C92.8896 327.776 93.0537 328.037 93.2471 328.242C93.4404 328.447 93.6631 328.6 93.915 328.699C94.1729 328.793 94.457 328.84 94.7676 328.84C95.166 328.84 95.5146 328.764 95.8135 328.611C96.1123 328.459 96.3613 328.222 96.5605 327.899C96.7656 327.571 96.918 327.152 97.0176 326.643C97.1172 326.127 97.167 325.512 97.167 324.797ZM106.237 317.133V330H104.611V319.163L101.333 320.358V318.891L105.982 317.133H106.237ZM117.259 317.186H117.399V318.565H117.259C116.397 318.565 115.677 318.706 115.097 318.987C114.517 319.263 114.057 319.635 113.717 320.104C113.377 320.566 113.131 321.088 112.979 321.668C112.832 322.248 112.759 322.837 112.759 323.435V325.315C112.759 325.884 112.826 326.388 112.961 326.827C113.096 327.261 113.28 327.627 113.515 327.926C113.749 328.225 114.013 328.45 114.306 328.603C114.604 328.755 114.915 328.831 115.237 328.831C115.612 328.831 115.946 328.761 116.239 328.62C116.532 328.474 116.778 328.271 116.978 328.014C117.183 327.75 117.338 327.439 117.443 327.082C117.549 326.725 117.602 326.332 117.602 325.904C117.602 325.523 117.555 325.157 117.461 324.806C117.367 324.448 117.224 324.132 117.03 323.856C116.837 323.575 116.594 323.355 116.301 323.197C116.014 323.033 115.671 322.951 115.272 322.951C114.821 322.951 114.399 323.062 114.007 323.285C113.62 323.502 113.301 323.789 113.049 324.146C112.803 324.498 112.662 324.882 112.627 325.298L111.766 325.289C111.848 324.633 112 324.073 112.223 323.61C112.451 323.142 112.732 322.761 113.066 322.468C113.406 322.169 113.784 321.952 114.2 321.817C114.622 321.677 115.067 321.606 115.536 321.606C116.175 321.606 116.726 321.727 117.188 321.967C117.651 322.207 118.032 322.529 118.331 322.934C118.63 323.332 118.85 323.783 118.99 324.287C119.137 324.785 119.21 325.298 119.21 325.825C119.21 326.429 119.125 326.994 118.955 327.521C118.785 328.049 118.53 328.512 118.19 328.91C117.856 329.309 117.443 329.619 116.951 329.842C116.459 330.064 115.888 330.176 115.237 330.176C114.546 330.176 113.942 330.035 113.427 329.754C112.911 329.467 112.483 329.086 112.144 328.611C111.804 328.137 111.549 327.609 111.379 327.029C111.209 326.449 111.124 325.86 111.124 325.263V324.498C111.124 323.596 111.215 322.711 111.396 321.844C111.578 320.977 111.892 320.191 112.337 319.488C112.788 318.785 113.412 318.226 114.209 317.81C115.006 317.394 116.022 317.186 117.259 317.186ZM123.2 323.909L121.899 323.575L122.541 317.203H129.106V318.706H123.921L123.534 322.187C123.769 322.052 124.064 321.926 124.422 321.809C124.785 321.691 125.201 321.633 125.67 321.633C126.262 321.633 126.792 321.735 127.261 321.94C127.729 322.14 128.128 322.427 128.456 322.802C128.79 323.177 129.045 323.628 129.221 324.155C129.396 324.683 129.484 325.271 129.484 325.922C129.484 326.537 129.399 327.103 129.229 327.618C129.065 328.134 128.816 328.585 128.482 328.972C128.148 329.353 127.727 329.648 127.217 329.859C126.713 330.07 126.118 330.176 125.433 330.176C124.917 330.176 124.428 330.105 123.965 329.965C123.508 329.818 123.098 329.599 122.734 329.306C122.377 329.007 122.084 328.638 121.855 328.198C121.633 327.753 121.492 327.231 121.434 326.634H122.98C123.051 327.114 123.191 327.519 123.402 327.847C123.613 328.175 123.889 328.424 124.229 328.594C124.574 328.758 124.976 328.84 125.433 328.84C125.819 328.84 126.162 328.772 126.461 328.638C126.76 328.503 127.012 328.31 127.217 328.058C127.422 327.806 127.577 327.501 127.683 327.144C127.794 326.786 127.85 326.385 127.85 325.939C127.85 325.535 127.794 325.16 127.683 324.814C127.571 324.469 127.404 324.167 127.182 323.909C126.965 323.651 126.698 323.452 126.382 323.312C126.065 323.165 125.702 323.092 125.292 323.092C124.747 323.092 124.334 323.165 124.053 323.312C123.777 323.458 123.493 323.657 123.2 323.909ZM139.539 317.203V318.117L134.239 330H132.525L137.816 318.539H130.891V317.203H139.539ZM150.042 325.693V327.029H140.796V326.071L146.526 317.203H147.854L146.43 319.77L142.642 325.693H150.042ZM148.258 317.203V330H146.632V317.203H148.258ZM159.789 317.203V318.117L154.489 330H152.775L158.066 318.539H151.141V317.203H159.789ZM166.987 317.133V330H165.361V319.163L162.083 320.358V318.891L166.732 317.133H166.987ZM180.417 325.693V327.029H171.171V326.071L176.901 317.203H178.229L176.805 319.77L173.017 325.693H180.417ZM178.633 317.203V330H177.007V317.203H178.633Z" fill="black"/>
<path d="M109.182 130V121.882H115.655L123.644 95.1956C124.184 93.4368 125.179 92.0324 126.63 90.9825C128.081 89.9326 129.681 89.4091 131.432 89.4118H143.568C145.321 89.4118 146.923 89.9367 148.374 90.9866C149.825 92.0365 150.819 93.4395 151.356 95.1956L159.345 121.882H165.818V130H109.182ZM133.455 81.2941V61H141.545V81.2941H133.455ZM157.525 91.3397L151.76 85.5559L166.122 71.2485L171.785 76.9309L157.525 91.3397ZM161.773 109.706V101.588H182V109.706H161.773ZM117.475 91.3397L103.215 76.9309L108.878 71.2485L123.24 85.5559L117.475 91.3397ZM93 109.706V101.588H113.227V109.706H93Z" fill="#FF0000"/>
</svg>
