<svg width="56" height="57" viewBox="0 0 56 57" fill="none" xmlns="http://www.w3.org/2000/svg">
<rect y="0.515625" width="56" height="56" rx="28" fill="#5ABDC5"/>
<g clip-path="url(#clip0_9_788)">
<path d="M38.92 22C38.15 22.35 37.32 22.58 36.46 22.69C37.34 22.16 38.02 21.32 38.34 20.31C37.51 20.81 36.59 21.16 35.62 21.36C34.83 20.5 33.72 20 32.46 20C30.11 20 28.19 21.92 28.19 24.29C28.19 24.63 28.23 24.96 28.3 25.27C24.74 25.09 21.57 23.38 19.46 20.79C19.09 21.42 18.88 22.16 18.88 22.94C18.88 24.43 19.63 25.75 20.79 26.5C20.08 26.5 19.42 26.3 18.84 26V26.03C18.84 28.11 20.32 29.85 22.28 30.24C21.6507 30.4122 20.9901 30.4362 20.35 30.31C20.6216 31.1625 21.1535 31.9084 21.871 32.4429C22.5885 32.9775 23.4554 33.2737 24.35 33.29C22.8336 34.4904 20.954 35.1393 19.02 35.13C18.68 35.13 18.34 35.11 18 35.07C19.9 36.29 22.16 37 24.58 37C32.46 37 36.79 30.46 36.79 24.79C36.79 24.6 36.79 24.42 36.78 24.23C37.62 23.63 38.34 22.87 38.92 22Z" fill="white"/>
</g>
<defs>
<clipPath id="clip0_9_788">
<rect width="32" height="32" fill="white" transform="translate(12 12.5156)"/>
</clipPath>
</defs>
</svg>
