<svg width="57" height="57" viewBox="0 0 57 57" fill="none" xmlns="http://www.w3.org/2000/svg">
<rect x="0.203125" y="0.515625" width="56" height="56" rx="28" fill="#5ABDC5"/>
<g clip-path="url(#clip0_9_784)">
<path d="M23.8 19H32.2C35.4 19 38 21.6 38 24.8V33.2C38 34.7383 37.3889 36.2135 36.3012 37.3012C35.2135 38.3889 33.7383 39 32.2 39H23.8C20.6 39 18 36.4 18 33.2V24.8C18 23.2617 18.6111 21.7865 19.6988 20.6988C20.7865 19.6111 22.2617 19 23.8 19ZM23.6 21C22.6452 21 21.7295 21.3793 21.0544 22.0544C20.3793 22.7295 20 23.6452 20 24.6V33.4C20 35.39 21.61 37 23.6 37H32.4C33.3548 37 34.2705 36.6207 34.9456 35.9456C35.6207 35.2705 36 34.3548 36 33.4V24.6C36 22.61 34.39 21 32.4 21H23.6ZM33.25 22.5C33.5815 22.5 33.8995 22.6317 34.1339 22.8661C34.3683 23.1005 34.5 23.4185 34.5 23.75C34.5 24.0815 34.3683 24.3995 34.1339 24.6339C33.8995 24.8683 33.5815 25 33.25 25C32.9185 25 32.6005 24.8683 32.3661 24.6339C32.1317 24.3995 32 24.0815 32 23.75C32 23.4185 32.1317 23.1005 32.3661 22.8661C32.6005 22.6317 32.9185 22.5 33.25 22.5ZM28 24C29.3261 24 30.5979 24.5268 31.5355 25.4645C32.4732 26.4021 33 27.6739 33 29C33 30.3261 32.4732 31.5979 31.5355 32.5355C30.5979 33.4732 29.3261 34 28 34C26.6739 34 25.4021 33.4732 24.4645 32.5355C23.5268 31.5979 23 30.3261 23 29C23 27.6739 23.5268 26.4021 24.4645 25.4645C25.4021 24.5268 26.6739 24 28 24ZM28 26C27.2044 26 26.4413 26.3161 25.8787 26.8787C25.3161 27.4413 25 28.2044 25 29C25 29.7956 25.3161 30.5587 25.8787 31.1213C26.4413 31.6839 27.2044 32 28 32C28.7956 32 29.5587 31.6839 30.1213 31.1213C30.6839 30.5587 31 29.7956 31 29C31 28.2044 30.6839 27.4413 30.1213 26.8787C29.5587 26.3161 28.7956 26 28 26Z" fill="white"/>
</g>
<defs>
<clipPath id="clip0_9_784">
<rect width="32" height="32" fill="white" transform="translate(12.2031 12.5156)"/>
</clipPath>
</defs>
</svg>
