<svg width="17" height="23" viewBox="0 0 17 23" fill="none" xmlns="http://www.w3.org/2000/svg">
<path d="M7.39062 22.0103C1.11719 12.9868 0 12.0415 0 8.68994C0 4.13525 3.65234 0.439941 8.25 0.439941C12.8047 0.439941 16.5 4.13525 16.5 8.68994C16.5 12.0415 15.3398 12.9868 9.06641 22.0103C8.67969 22.6118 7.77734 22.6118 7.39062 22.0103ZM8.25 12.1274C10.1406 12.1274 11.6875 10.6235 11.6875 8.68994C11.6875 6.79932 10.1406 5.25244 8.25 5.25244C6.31641 5.25244 4.8125 6.79932 4.8125 8.68994C4.8125 10.6235 6.31641 12.1274 8.25 12.1274Z" fill="#F2EC20" fill-opacity="0.97"/>
</svg>
