<svg width="22" height="23" viewBox="0 0 22 23" fill="none" xmlns="http://www.w3.org/2000/svg">
<path d="M21.3555 16.1047C21.6992 16.2766 21.957 16.6633 21.957 17.093C21.957 17.136 21.957 17.2219 21.957 17.3079L20.9258 21.7766C20.7969 22.2493 20.4102 22.55 19.9375 22.55C8.89453 22.55 0 13.6555 0 2.61255C0 2.13989 0.300781 1.75317 0.773438 1.62427L5.24219 0.593018C5.32812 0.593018 5.41406 0.550049 5.45703 0.550049C5.88672 0.550049 6.27344 0.807861 6.44531 1.19458L8.50781 6.00708C8.55078 6.13599 8.59375 6.26489 8.59375 6.3938C8.59375 6.73755 8.42188 7.03833 8.20703 7.21021L5.58594 9.35864C7.17578 12.7102 9.83984 15.3743 13.1914 16.9641L15.3398 14.343C15.5117 14.1282 15.8125 13.9563 16.1133 13.9563C16.2852 13.9563 16.4141 13.9993 16.543 14.0422L21.3555 16.1047Z" fill="#F2EC20" fill-opacity="0.97"/>
</svg>
