<svg width="22" height="17" viewBox="0 0 22 17" fill="none" xmlns="http://www.w3.org/2000/svg">
<path d="M21.5703 5.53711C21.7422 5.4082 22 5.53711 22 5.75195V14.5176C22 15.6777 21.0547 16.5801 19.9375 16.5801H2.0625C0.902344 16.5801 0 15.6777 0 14.5176V5.75195C0 5.53711 0.214844 5.4082 0.386719 5.53711C1.375 6.31055 2.62109 7.25586 7.00391 10.4355C7.90625 11.0801 9.45312 12.498 11 12.498C12.5039 12.498 14.0938 11.0801 14.9531 10.4355C19.3359 7.25586 20.582 6.31055 21.5703 5.53711ZM11 11.0801C9.96875 11.123 8.55078 9.83398 7.82031 9.31836C2.10547 5.19336 1.67578 4.80664 0.386719 3.77539C0.128906 3.60352 0 3.30273 0 2.95898V2.14258C0 1.02539 0.902344 0.0800781 2.0625 0.0800781H19.9375C21.0547 0.0800781 22 1.02539 22 2.14258V2.95898C22 3.30273 21.8281 3.60352 21.5703 3.77539C20.2812 4.80664 19.8516 5.19336 14.1367 9.31836C13.4062 9.83398 11.9883 11.123 11 11.0801Z" fill="#F2EC20" fill-opacity="0.97"/>
</svg>
