<svg width="20" height="20" viewBox="0 0 20 20" fill="none" xmlns="http://www.w3.org/2000/svg">
<path d="M17.5375 0.265015C18.6547 0.265015 19.6 1.21033 19.6 2.32751V17.4525C19.6 18.6127 18.6547 19.515 17.5375 19.515H11.6078V12.9838H14.1L14.5727 9.89001H11.6078V7.91345C11.6078 7.05408 12.0375 6.23767 13.3695 6.23767H14.7016V3.61658C14.7016 3.61658 13.4984 3.40173 12.2953 3.40173C9.88906 3.40173 8.29922 4.90564 8.29922 7.5697V9.89001H5.59219V12.9838H8.29922V19.515H2.4125C1.25234 19.515 0.35 18.6127 0.35 17.4525V2.32751C0.35 1.21033 1.25234 0.265015 2.4125 0.265015H17.5375Z" fill="#F2EC20" fill-opacity="0.97"/>
</svg>
