<svg width="20" height="20" viewBox="0 0 20 20" fill="none" xmlns="http://www.w3.org/2000/svg">
<path d="M9.725 4.94861C12.432 4.94861 14.6664 7.18298 14.6664 9.89001C14.6664 12.64 12.432 14.8314 9.725 14.8314C6.975 14.8314 4.78359 12.64 4.78359 9.89001C4.78359 7.18298 6.975 4.94861 9.725 4.94861ZM9.725 13.1127C11.4867 13.1127 12.9047 11.6947 12.9047 9.89001C12.9047 8.1283 11.4867 6.71033 9.725 6.71033C7.92031 6.71033 6.50234 8.1283 6.50234 9.89001C6.50234 11.6947 7.96328 13.1127 9.725 13.1127ZM15.9984 4.77673C15.9984 5.42126 15.4828 5.93689 14.8383 5.93689C14.1938 5.93689 13.6781 5.42126 13.6781 4.77673C13.6781 4.1322 14.1938 3.61658 14.8383 3.61658C15.4828 3.61658 15.9984 4.1322 15.9984 4.77673ZM19.2641 5.93689C19.35 7.52673 19.35 12.2963 19.2641 13.8861C19.1781 15.433 18.8344 16.765 17.7172 17.9252C16.6 19.0424 15.225 19.3861 13.6781 19.472C12.0883 19.558 7.31875 19.558 5.72891 19.472C4.18203 19.3861 2.85 19.0424 1.68984 17.9252C0.572657 16.765 0.228907 15.433 0.142969 13.8861C0.0570316 12.2963 0.0570316 7.52673 0.142969 5.93689C0.228907 4.39001 0.572657 3.01501 1.68984 1.89783C2.85 0.78064 4.18203 0.43689 5.72891 0.350952C7.31875 0.265015 12.0883 0.265015 13.6781 0.350952C15.225 0.43689 16.6 0.78064 17.7172 1.89783C18.8344 3.01501 19.1781 4.39001 19.2641 5.93689ZM17.2016 15.5619C17.7172 14.3158 17.5883 11.308 17.5883 9.89001C17.5883 8.51501 17.7172 5.5072 17.2016 4.21814C16.8578 3.40173 16.2133 2.71423 15.3969 2.41345C14.1078 1.89783 11.1 2.02673 9.725 2.02673C8.30703 2.02673 5.29922 1.89783 4.05313 2.41345C3.19375 2.7572 2.54922 3.40173 2.20547 4.21814C1.68984 5.5072 1.81875 8.51501 1.81875 9.89001C1.81875 11.308 1.68984 14.3158 2.20547 15.5619C2.54922 16.4213 3.19375 17.0658 4.05313 17.4095C5.29922 17.9252 8.30703 17.7963 9.725 17.7963C11.1 17.7963 14.1078 17.9252 15.3969 17.4095C16.2133 17.0658 16.9008 16.4213 17.2016 15.5619Z" fill="#F2EC20" fill-opacity="0.97"/>
</svg>
