<svg width="23" height="19" viewBox="0 0 23 19" fill="none" xmlns="http://www.w3.org/2000/svg">
<path d="M20.0727 5.42126C20.0727 5.63611 20.0727 5.80798 20.0727 6.02283C20.0727 11.9955 15.5609 18.8275 7.26797 18.8275C4.68984 18.8275 2.32656 18.097 0.35 16.808C0.69375 16.851 1.0375 16.8939 1.42422 16.8939C3.52969 16.8939 5.46328 16.1635 7.01016 14.9603C5.03359 14.9174 3.35781 13.6283 2.79922 11.8236C3.1 11.8666 3.35781 11.9095 3.65859 11.9095C4.04531 11.9095 4.475 11.8236 4.81875 11.7377C2.75625 11.308 1.20938 9.5033 1.20938 7.31189V7.26892C1.81094 7.61267 2.54141 7.78455 3.27188 7.82751C2.02578 7.01111 1.25234 5.63611 1.25234 4.08923C1.25234 3.22986 1.46719 2.45642 1.85391 1.81189C4.08828 4.51892 7.43984 6.32361 11.1781 6.53845C11.0922 6.1947 11.0492 5.85095 11.0492 5.5072C11.0492 3.01501 13.0688 0.995483 15.5609 0.995483C16.85 0.995483 18.0102 1.51111 18.8695 2.41345C19.8578 2.19861 20.8461 1.81189 21.7055 1.29626C21.3617 2.37048 20.6742 3.22986 19.7289 3.78845C20.6313 3.70251 21.5336 3.4447 22.307 3.10095C21.7055 4.0033 20.932 4.77673 20.0727 5.42126Z" fill="#F2EC20" fill-opacity="0.97"/>
</svg>
